<?xml version="1.0" standalone="no"?>
<!DOCTYPE svg PUBLIC "-//W3C//DTD SVG 1.1//EN" "http://www.w3.org/Graphics/SVG/1.1/DTD/svg11.dtd" >
<svg xmlns="http://www.w3.org/2000/svg" xmlns:xlink="http://www.w3.org/1999/xlink" version="1.1">
<metadata>
Created by FontForge 20170731 at Wed Apr  1 16:10:26 2020
 By Aleksey,,,
Copyright 2006 The Inconsolata Project Authors (https://github.com/cyrealtype/Inconsolata)
</metadata>
<defs>
<font id="Inconsolata-Black" horiz-adv-x="500" >
  <font-face 
    font-family="Inconsolata Black"
    font-weight="900"
    font-stretch="normal"
    units-per-em="1000"
    panose-1="0 0 5 9 0 0 0 0 0 0"
    ascent="800"
    descent="-200"
    x-height="471"
    cap-height="623"
    bbox="-80 -400 1455 1004"
    underline-thickness="50"
    underline-position="-275"
    unicode-range="U+000D-FFFD"
  />
<missing-glyph 
 />
    <glyph glyph-name=".notdef" 
 />
    <glyph glyph-name=".null" horiz-adv-x="0" 
 />
    <glyph glyph-name="nonmarkingreturn" horiz-adv-x="333" 
 />
    <glyph glyph-name="NULL" 
 />
    <glyph glyph-name="NULL" 
 />
    <glyph glyph-name="CR" unicode="&#xd;" 
 />
    <glyph glyph-name="space" unicode=" " 
 />
    <glyph glyph-name="exclam" unicode="!" 
d="M190 218l-29 357q-3 35 8 56t30.5 30.5t41.5 9.5t41 -9t30.5 -30t8.5 -57l-31 -357h-100zM239 -10q-38 0 -65.5 25t-27.5 61q0 35 27.5 61.5t65.5 26.5q41 0 68 -27.5t27 -60.5q0 -34 -28.5 -60t-66.5 -26z" />
    <glyph glyph-name="quotedbl" unicode="&#x22;" 
d="M110 665h120q0 -60 -2 -96t-5 -60.5t-7 -47t-7 -54.5h-78q-3 32 -7 54.5t-7 46.5t-5 60.5t-2 96.5zM270 665h120q0 -60 -2 -96t-5 -60.5t-7 -47t-7 -54.5h-78q-3 32 -7 54.5t-7 46.5t-5 60.5t-2 96.5z" />
    <glyph glyph-name="numbersign" unicode="#" 
d="M248 7l21 149h-66l-20 -144l-110 -1l18 144h-82l6 98h87l15 116h-94l5 99h98l18 158l113 1l-19 -157h64l18 154l118 1l-18 -153h74l-10 -100h-74l-15 -115h79l-6 -98h-82l-20 -146zM212 255h65l16 115h-66z" />
    <glyph glyph-name="dollar" unicode="$" 
d="M231 -44v51q-30 3 -64 12.5t-65.5 26.5t-55.5 40l58 103q14 -5 16 -15t12 -20q12 -11 27.5 -19.5t32.5 -14t34 -9.5v154q-52 22 -90 46.5t-58.5 57t-20.5 76.5q0 42 25 73t65 50t84 25v58h78q4 -1 5 -4t1 -6t-3 -12t-3 -19v-16q28 -4 56.5 -14.5t54 -26.5t44.5 -39
l-59 -75q-14 0 -17 10.5t-9 12.5q-5 6 -12.5 10.5t-16.5 7.5t-18 5.5t-18 3.5v-133q58 -22 94.5 -45.5t53.5 -53.5t17 -74q0 -41 -21.5 -79t-60 -64t-88.5 -33v-51h-78zM314 112q14 4 26 14t19.5 23.5t7.5 27.5q0 16 -7.5 28t-19.5 21.5t-26 14.5v-129zM226 388v102
q-11 -2 -24 -7t-21.5 -13.5t-8.5 -22.5q0 -11 7 -22t19.5 -20.5t27.5 -16.5z" />
    <glyph glyph-name="percent" unicode="%" 
d="M27 0l354 623h102l-357 -623h-99zM365 -10q-33 0 -61.5 18t-45.5 49t-17 70q0 38 17 69t45.5 49t61.5 18q34 0 62 -18.5t45 -49.5t17 -69q0 -40 -16 -70.5t-44 -48t-64 -17.5zM365 71q13 0 21 7.5t12 20t4 27.5t-4 28t-12 20.5t-21 7.5q-12 0 -20.5 -7.5t-12.5 -20.5
t-4 -28t4 -27.5t12.5 -20t20.5 -7.5zM137 361q-33 0 -61.5 18t-45.5 49t-17 70q0 38 17 69t45.5 49t61.5 18q34 0 62 -18.5t45 -49.5t17 -69q0 -40 -16 -70.5t-44 -48t-64 -17.5zM137 442q13 0 21 7.5t12 20t4 27.5q0 11 -2.5 21t-7 18t-11.5 12.5t-16 4.5q-13 0 -21 -7.5
t-12 -20.5t-4 -28t4 -27.5t12 -20t21 -7.5z" />
    <glyph glyph-name="ampersand" unicode="&#x26;" 
d="M390 -15l-46 64q-20 -20 -42.5 -33.5t-48.5 -20.5t-55 -7q-55 0 -93.5 21.5t-59 59t-20.5 84.5q0 29 6 55.5t18.5 51t32.5 46t48 39.5q-31 37 -43.5 72t-12.5 76q0 30 13 55.5t35.5 44.5t51 29.5t58.5 10.5q44 0 76.5 -20t50.5 -52t18 -68q0 -33 -7 -58.5t-19.5 -46
t-29 -38t-36.5 -35.5l75 -103q4 6 9.5 14.5t11 18.5t9 19.5t3.5 17.5q0 6 1 11t7 12l90 -63q-10 -24 -20.5 -44t-21 -36.5t-22.5 -31.5l47 -63zM209 93q13 0 25 4t24 12.5t22 19.5l-85 124q-12 -10 -21 -20t-14.5 -21t-8 -23.5t-2.5 -26.5q0 -16 3.5 -29t11 -22t18.5 -13.5
t27 -4.5zM220 404q12 8 21 17t15 20t9 23t3 25q0 15 -7 28.5t-28 13.5q-15 0 -25 -7t-14.5 -17t-4.5 -18q0 -12 3 -26.5t10 -29t18 -29.5z" />
    <glyph glyph-name="quotesingle" unicode="'" 
d="M190 665h120q0 -60 -2 -96t-5 -60.5t-7 -47t-7 -54.5h-78q-3 32 -7 54.5t-7 46.5t-5 60.5t-2 96.5z" />
    <glyph glyph-name="parenleft" unicode="(" 
d="M397 -111q-104 44 -172.5 110t-101.5 148.5t-33 172.5t33 170t100 144.5t168 107.5l34 -115q-50 -25 -87.5 -56t-63 -68.5t-38 -83.5t-12.5 -102q0 -55 14 -102.5t40.5 -87.5t65.5 -71.5t90 -55.5z" />
    <glyph glyph-name="parenright" unicode=")" 
d="M131 -111l-37 111q51 24 90 55.5t65.5 71.5t40.5 87.5t14 102.5q0 56 -12.5 102t-38 83.5t-63 68.5t-87.5 56l34 115q102 -43 168.5 -107.5t99.5 -144.5t33 -170t-33 -172.5t-101 -148.5t-173 -110z" />
    <glyph glyph-name="asterisk" unicode="*" 
d="M167 98l-115 91l117 116l-144 40l49 127l124 -74l-26 149h169l-35 -149l119 64l52 -123l-145 -33l113 -117l-116 -90l-79 140z" />
    <glyph glyph-name="plus" unicode="+" 
d="M197 103v170h-161v105h161v156h117v-156h155v-105h-155v-170h-117z" />
    <glyph glyph-name="comma" unicode="," 
d="M223 -172l-80 65q28 26 40.5 48.5t12.5 38.5q0 12 -6.5 22.5t-15 22t-15 26t-6.5 35.5q0 38 27.5 57t61.5 19q47 0 71.5 -31t24.5 -81q0 -26 -7 -52.5t-21 -54t-35.5 -56.5t-51.5 -59z" />
    <glyph glyph-name="hyphen" unicode="-" 
d="M101 265v111h300v-111h-300z" />
    <glyph glyph-name="period" unicode="." 
d="M240 -13q-37 0 -62.5 25.5t-25.5 62.5q0 36 25.5 61.5t62.5 25.5q36 0 61.5 -25.5t25.5 -61.5q0 -37 -25.5 -62.5t-61.5 -25.5z" />
    <glyph glyph-name="slash" unicode="/" 
d="M168 -44l-134 56l304 656l130 -66z" />
    <glyph glyph-name="zero" unicode="0" 
d="M106 207l266 296l18 -93l-266 -296zM250 -12q-68 0 -119 37t-79 108.5t-28 174.5t28 176t79 112t119 39t119 -39t79 -112t28 -176t-28 -174.5t-79 -108.5t-119 -37zM250 91q35 0 56.5 25.5t32 74t10.5 117.5q0 70 -10.5 118t-32 73.5t-56.5 25.5q-34 0 -56 -25.5
t-32.5 -73.5t-10.5 -118q0 -69 10.5 -117.5t32.5 -74t56 -25.5z" />
    <glyph glyph-name="one" unicode="1" 
d="M193 0v476l-104 -42l-30 98l169 91h107v-623h-142z" />
    <glyph glyph-name="two" unicode="2" 
d="M47 102q60 57 105 100t77.5 76.5t53 61.5t30 55t9.5 58q0 15 -4 27t-13 20.5t-23.5 13.5t-35.5 5q-19 0 -35 -3.5t-30 -11.5t-26 -21q-10 -13 -12.5 -20t-1.5 -15l-7 -9l-7 5l-95 73q24 39 58 65t74.5 39.5t83.5 13.5q56 0 102.5 -22.5t74.5 -63t28 -95.5q0 -37 -9 -69
t-26.5 -62t-43.5 -62t-61.5 -68t-79.5 -80h173q17 0 24 2t13 7h11v-9v-113h-407v102z" />
    <glyph glyph-name="three" unicode="3" 
d="M232 -12q-59 0 -116 18.5t-89 58.5l65 102l5 8l10 -6q2 -7 4.5 -15.5t14.5 -20.5q20 -16 45.5 -25.5t53.5 -9.5q27 0 46 10t29.5 28.5t10.5 42.5q0 28 -9 47t-28 29.5t-48.5 13t-70.5 -2.5v110q41 -2 69.5 3t45.5 15.5t24.5 24.5t7.5 30q0 17 -5.5 30t-15.5 22.5
t-24.5 14.5t-32.5 5q-20 0 -40 -5.5t-37 -16.5t-30 -28l-80 82q37 44 89.5 63t104.5 19q58 0 104.5 -21.5t73.5 -58.5t27 -84q0 -36 -15.5 -64t-38 -46.5t-43.5 -28.5q26 -9 52 -28.5t43.5 -51.5t17.5 -77q0 -53 -27.5 -95.5t-76.5 -67t-116 -24.5v0z" />
    <glyph glyph-name="four" unicode="4" 
d="M262 0v144h-228v90l260 389h101v-366h83v-114h-83v-143h-133zM170 254h96v156z" />
    <glyph glyph-name="five" unicode="5" 
d="M254 -12q-70 0 -125 24.5t-82 76.5l95 79l7 6l7 -8q0 -8 3 -15t13 -20q16 -15 36 -23t42 -8q21 0 37.5 7.5t28.5 21.5t18 31.5t6 36.5q0 23 -5.5 42.5t-16.5 34t-28 23t-40 8.5q-19 0 -36 -4t-30.5 -13.5t-24.5 -24.5l-85 18l23 342h345v-110h-227l-8 -116q9 6 23 11
t29 7.5t27 2.5q42 0 76 -13t58.5 -38.5t37.5 -64.5t13 -90q0 -69 -28 -119.5t-76.5 -77.5t-112.5 -27v0z" />
    <glyph glyph-name="six" unicode="6" 
d="M259 -12q-70 0 -119 37.5t-74 105t-25 156.5q0 109 32 186.5t86.5 119.5t123.5 42q43 0 90.5 -14.5t81.5 -49.5l-73 -82l-6 -7l-9 7q-1 8 -7 12t-20 12q-6 2 -13 3.5t-14 2.5t-14 1q-14 0 -29.5 -3t-29.5 -11.5t-26.5 -24.5t-21.5 -42t-13 -65q13 13 30.5 22t36.5 14
t37 5q39 0 72 -11.5t57.5 -36t38 -63t13.5 -92.5q0 -62 -26 -113t-72 -81t-107 -30v0zM261 98q17 0 30.5 9t23.5 24.5t15 36t5 44.5t-6 42t-16.5 30t-24 18t-28.5 6q-13 0 -24 -4t-20.5 -11.5t-18 -18t-16.5 -24.5q0 -40 6 -69t16.5 -47.5t25 -27t32.5 -8.5v0z" />
    <glyph glyph-name="seven" unicode="7" 
d="M104 0q30 88 60.5 171.5t63.5 166.5t68 167h-240v118h395v-77q-29 -66 -56.5 -132t-53 -133.5t-49.5 -137t-47 -143.5h-141z" />
    <glyph glyph-name="eight" unicode="8" 
d="M250 -12q-65 0 -114.5 22.5t-76.5 62t-27 89.5q0 43 14.5 74t40 55t57.5 42q-24 17 -43 38.5t-29.5 47t-10.5 52.5q0 46 25 83t69 59t101 22q59 0 102 -21t66.5 -57t23.5 -80q0 -27 -5 -49t-15 -40.5t-24 -34t-32 -27.5q24 -13 42.5 -30.5t30.5 -38t18 -43.5t6 -49
q0 -52 -27.5 -92t-77 -62.5t-114.5 -22.5zM252 102q26 0 43.5 9.5t26.5 26t9 38.5q0 18 -7 33.5t-20.5 28.5t-32.5 23.5t-42 18.5q-14 -10 -25 -20.5t-18.5 -22.5t-11.5 -26t-4 -32q0 -23 10 -40.5t28.5 -27t43.5 -9.5zM273 367q12 10 20 21.5t13 23.5t7 25.5t2 26.5
q0 17 -8 29.5t-22 20t-32 7.5t-31 -7t-20.5 -19.5t-7.5 -28.5t6 -30t17 -26.5t25.5 -23t30.5 -19.5z" />
    <glyph glyph-name="nine" unicode="9" 
d="M221 -12q-47 0 -95.5 11.5t-89.5 43.5l67 107l5 8l10 -6q2 -7 6.5 -14t17.5 -17q18 -10 37 -15t39 -5q22 0 41 12t33.5 37t23.5 62t10 86q2 89 -7 138.5t-27.5 69.5t-47.5 20q-19 0 -34 -8t-25.5 -23t-16 -36t-5.5 -48q0 -23 6 -40t17 -28t26 -16.5t32 -5.5q19 0 38 4.5
t35 16.5t26 34l16 -114q-12 -15 -33 -26.5t-46 -17.5t-51 -6q-41 0 -77 14t-63 41t-42 65t-15 86q0 46 17 85.5t46.5 69t70 46t86.5 16.5q70 0 115 -33t66.5 -100.5t21.5 -171.5q0 -108 -27 -184.5t-79 -117t-128 -40.5v0z" />
    <glyph glyph-name="colon" unicode=":" 
d="M233 279q-36 0 -61 27t-25 61t25 61t61 27q33 0 60 -25.5t27 -62.5q0 -34 -24.5 -61t-62.5 -27zM233 -13q-37 0 -61.5 26.5t-24.5 60.5q0 35 25 62.5t61 27.5q33 0 60 -26.5t27 -63.5q0 -33 -24.5 -60t-62.5 -27z" />
    <glyph glyph-name="semicolon" unicode=";" 
d="M222 -172l-80 65q28 26 40.5 48.5t12.5 38.5q0 12 -6.5 22.5t-15 22t-15 26t-6.5 35.5q0 26 12.5 42.5t33 25t43.5 8.5q47 0 71.5 -31t24.5 -81q0 -35 -12.5 -70.5t-37.5 -73t-65 -78.5zM233 279q-36 0 -61 27t-25 61t25 61t61 27q33 0 60 -25.5t27 -62.5
q0 -34 -24.5 -61t-62.5 -27z" />
    <glyph glyph-name="less" unicode="&#x3c;" 
d="M469 29l-437 260v70l434 233v-125l-292 -144l295 -161v-133z" />
    <glyph glyph-name="equal" unicode="=" 
d="M41 368v105h423v-105h-423zM41 158v105h423v-105h-423z" />
    <glyph glyph-name="greater" unicode="&#x3e;" 
d="M37 29v127l294 167l-293 144v125l436 -233v-70z" />
    <glyph glyph-name="question" unicode="?" 
d="M201 270q0 33 9 57t23.5 42t30 33t30 29t23.5 30.5t9 37.5q0 19 -6 31.5t-17 19.5t-24.5 10t-28.5 3q-19 0 -39.5 -8t-37.5 -22q-11 -13 -14.5 -19.5t-3.5 -14.5l-7 -8l-7 6l-86 60q24 36 54.5 61.5t68 39.5t81.5 14q60 0 104 -24.5t68 -63.5t24 -83q0 -35 -9.5 -60
t-25 -42.5t-33 -31.5t-32.5 -27.5t-25 -30t-10 -39.5v-55h-119v55zM263 -13q-37 0 -62.5 25.5t-25.5 62.5q0 36 25.5 61.5t62.5 25.5q36 0 61.5 -25.5t25.5 -61.5q0 -37 -25.5 -62.5t-61.5 -25.5z" />
    <glyph glyph-name="at" unicode="@" 
d="M294 -12q-55 0 -104 20.5t-87.5 62t-60.5 103t-22 143.5q0 81 20.5 141t55.5 99.5t80.5 58.5t95.5 19q51 0 90 -15t64.5 -46t38.5 -79.5t13 -115.5v-216h-106v27q-13 -16 -30 -25t-43 -9q-38 0 -68 18t-46.5 49.5t-16.5 70.5q0 37 10.5 68t34.5 53.5t62.5 35t93.5 13.5
q-3 32 -15.5 50t-33.5 26t-51 8q-28 0 -54 -13t-46.5 -40.5t-32.5 -71t-12 -105.5q0 -60 13.5 -104t38 -72.5t56.5 -42.5t68 -14q24 0 52.5 9t56.5 33l53 -82q-35 -27 -79.5 -42t-88.5 -15zM315 248q17 0 28 7t17.5 22t9.5 38t3 54q-41 0 -63 -9.5t-29.5 -24.5t-7.5 -34
q0 -30 10.5 -41.5t31.5 -11.5z" />
    <glyph glyph-name="A" unicode="A" 
d="M373 121h-255l17 98h218zM251 381l-101 -381h-140l198 623h85l198 -623h-142z" />
    <glyph glyph-name="B" unicode="B" 
d="M30 0v623h199q57 0 99.5 -11.5t71 -33t43 -51t14.5 -65.5q0 -24 -10 -50.5t-29 -48.5t-47 -34q25 -12 45.5 -28t35 -34.5t22 -39.5t7.5 -44q0 -41 -16 -75t-48 -58t-79 -37t-110 -13h-198zM172 115h67q31 0 52 9.5t32 25.5t11 36q0 25 -10.5 43.5t-35 29t-65.5 10.5h-51
v-154zM172 380h48q37 0 57.5 8.5t28.5 24.5t8 37q0 15 -5 26t-15.5 18.5t-26.5 11.5t-37 4h-58v-130z" />
    <glyph glyph-name="C" unicode="C" 
d="M275 -12q-51 0 -96.5 19t-80.5 58t-54.5 99.5t-19.5 143.5q0 73 15.5 128t42 93t60 61.5t70 34t72.5 10.5q73 0 124 -31t79 -90l-78 -70l-7 -6l-7 8q0 8 -2 16t-11 21q-19 22 -41 29.5t-45 7.5q-22 0 -45 -12.5t-42.5 -38t-31.5 -64.5t-12 -92q0 -51 8.5 -90t24 -65.5
t37 -40t47.5 -13.5q24 0 42 5t33 19t29 39l96 -73q-38 -61 -89 -83.5t-118 -22.5v0z" />
    <glyph glyph-name="D" unicode="D" 
d="M34 0v623h171q56 0 94 -10t65 -29.5t48 -47.5t36.5 -63.5t24 -76.5t8.5 -89q0 -71 -17 -127.5t-52 -96.5t-89.5 -61.5t-129.5 -21.5h-159zM173 111h18q59 0 92.5 26t47 70.5t13.5 99.5q0 61 -11.5 107t-42.5 72.5t-89 26.5h-28v-402z" />
    <glyph glyph-name="E" unicode="E" 
d="M46 0v623h421v-112h-282v-131h231v-112h-231v-156h280v-112h-419z" />
    <glyph glyph-name="F" unicode="F" 
d="M58 0v623h407v-112h-285v-120h232v-112h-232v-279h-122z" />
    <glyph glyph-name="G" unicode="G" 
d="M276 -12q-81 0 -139 40.5t-88.5 113.5t-30.5 170q0 79 17.5 134.5t46.5 92.5t63.5 58t68.5 29.5t62 8.5q43 0 82 -12.5t70.5 -37t51.5 -61.5l-77 -83l-6 -7l-9 8q-1 8 -2.5 16t-11.5 21q-9 11 -21 20t-29.5 15t-42.5 6q-19 0 -37 -7t-33.5 -22.5t-27.5 -39t-18.5 -56.5
t-6.5 -76q0 -57 9 -98t24.5 -68t37.5 -40t47 -13q11 0 21 1.5t20 4t19 8t19 12.5v94h-96v115h222v-282q-45 -37 -97.5 -51t-107.5 -14v0z" />
    <glyph glyph-name="H" unicode="H" 
d="M30 623h141h9v-11q-5 -6 -6.5 -13t-1.5 -24v-196h157v244h141h9v-11q-5 -6 -6.5 -13t-1.5 -24v-575h-142v269h-157v-269h-142v623z" />
    <glyph glyph-name="I" unicode="I" 
d="M63 0v113h121v397h-115v113h368v-113h-121v-397h126v-113h-379z" />
    <glyph glyph-name="J" unicode="J" 
d="M192 -17q-50 0 -97 16t-76 53l66 114l5 8l10 -6q2 -7 5 -15.5t14 -20.5q12 -8 26.5 -13t30.5 -5q21 0 36 14t23 40.5t8 61.5v280h-111v113h342v-113h-89v-295q0 -57 -16.5 -100.5t-44 -72.5t-62 -44t-70.5 -15v0z" />
    <glyph glyph-name="K" unicode="K" 
d="M204 262l-36 -54v-208h-135v623h134h9v-11q-5 -6 -6.5 -13t-1.5 -24v-186l173 240q8 -2 20.5 -3t25.5 -2t24 -1h17h69l-195 -256l204 -366l-155 -5z" />
    <glyph glyph-name="L" unicode="L" 
d="M51 623h141h9v-11q-5 -6 -6.5 -13t-1.5 -24v-461h276v-114h-418v623z" />
    <glyph glyph-name="M" unicode="M" 
d="M26 0v623h128l99 -273l98 274h129v-624h-119v412l-73 -215h-74l-70 215v-412h-118z" />
    <glyph glyph-name="N" unicode="N" 
d="M28 623h151l178 -376l-10 376h124h9v-11q-5 -6 -6.5 -13t-1.5 -24v-575h-138l-181 401v-401h-125v623z" />
    <glyph glyph-name="O" unicode="O" 
d="M253 -12q-80 0 -133 38t-79.5 110.5t-26.5 176.5q0 103 26.5 174.5t79.5 109.5t133 38q79 0 132 -38t80 -109.5t27 -174.5q0 -104 -27 -177t-80 -110.5t-132 -37.5zM253 100q31 0 53 22.5t34.5 70t12.5 122.5q0 69 -12.5 115.5t-34.5 69.5t-53 23q-32 0 -54.5 -23
t-34 -69.5t-11.5 -115.5q0 -75 11.5 -122.5t34 -70t54.5 -22.5z" />
    <glyph glyph-name="P" unicode="P" 
d="M40 0v623h221q74 0 123 -25.5t73 -68t24 -93.5q0 -38 -13.5 -71.5t-40 -58.5t-67 -39.5t-94.5 -14.5h-82v-252h-144zM184 367h74q23 0 40.5 9t27.5 25t10 36q0 21 -10 36t-27 23t-40 8h-75v-137z" />
    <glyph glyph-name="Q" unicode="Q" 
d="M363 -146q-46 0 -79 6.5t-54.5 22t-32.5 43t-13 70.5q-57 15 -94.5 58t-56.5 109t-19 150q0 83 17 143.5t48 100t75 59t98 19.5t98 -19.5t75.5 -59t48 -100.5t16.5 -144q0 -76 -13 -132t-35.5 -93t-53.5 -59t-67 -31q1 -11 5.5 -19.5t13.5 -12.5t23 -4l83 4l-3 -111h-80z
M252 100q22 0 40 12.5t31.5 38t21 66t7.5 95.5q0 54 -7 94t-20 66t-31 38.5t-41 12.5q-22 0 -40 -12t-31.5 -37.5t-21 -63.5t-7.5 -91q0 -76 13 -124.5t35.5 -71.5t50.5 -23z" />
    <glyph glyph-name="R" unicode="R" 
d="M37 0v623h207q78 0 128.5 -23t75 -65t24.5 -98q0 -34 -13.5 -67.5t-38.5 -61t-59 -43.5l128 -265h-146l-119 248h-43v-248h-144zM181 363h70q35 0 55.5 18.5t20.5 50.5q0 20 -9 36t-26 26t-41 10h-70v-141z" />
    <glyph glyph-name="S" unicode="S" 
d="M239 -12q-63 0 -121.5 17.5t-94.5 54.5l68 113l5 8l10 -6q2 -7 5.5 -14.5t16.5 -18.5q24 -16 52 -27t58 -12q21 0 37.5 3t28.5 10t18.5 19.5t6.5 30.5q0 9 -2.5 18.5t-8.5 19t-18.5 19.5t-31.5 22t-48 25q-64 31 -101.5 59t-54 61.5t-16.5 80.5q0 46 27.5 83t74.5 59
t103 22q43 0 78.5 -9t66 -27t56.5 -46l-85 -92l-6 -7l-9 8q-1 8 -3 15.5t-13 19.5q-16 14 -34 18.5t-42 4.5q-17 0 -31 -3.5t-24 -10t-15.5 -14.5t-5.5 -17t2 -16.5t8 -15.5t18.5 -17t33 -20.5t51.5 -26.5q48 -24 81 -46t52.5 -45.5t28 -51.5t8.5 -64q0 -47 -24 -89
t-75 -68.5t-131 -26.5v0z" />
    <glyph glyph-name="T" unicode="T" 
d="M179 0v506h-161v117h466v-117h-171v-506h-134z" />
    <glyph glyph-name="U" unicode="U" 
d="M249 -14q-104 0 -163 62.5t-59 171.5v403h141h9v-11q-5 -6 -6.5 -13t-1.5 -24v-356q0 -56 17.5 -88t63.5 -32q47 0 65 32.5t18 90.5v401h140v-400q0 -81 -29 -133.5t-79.5 -78t-115.5 -25.5v0z" />
    <glyph glyph-name="V" unicode="V" 
d="M202 0l-192 623h138l111 -412l104 412h135l-190 -623h-106z" />
    <glyph glyph-name="W" unicode="W" 
d="M76 0l-70 623h119l26 -371l67 320h84l67 -317l16 368h114l-68 -623h-100l-76 369l-77 -369h-102z" />
    <glyph glyph-name="X" unicode="X" 
d="M21 0l158 318l-156 305h142l88 -184l85 184h136l-145 -304l165 -319h-146l-94 194l-91 -194h-142z" />
    <glyph glyph-name="Y" unicode="Y" 
d="M191 0v246l-182 377h141l112 -232l98 232h137l-168 -378v-245h-138z" />
    <glyph glyph-name="Z" unicode="Z" 
d="M31 88l272 418h-261v117h429v-88l-267 -419h234q17 0 24 2t13 7h11v-9v-116h-455v88z" />
    <glyph glyph-name="bracketleft" unicode="[" 
d="M108 -90v759h330v-112h-195v-536h195v-111h-330z" />
    <glyph glyph-name="backslash" unicode="\" 
d="M341 -47l-306 653l132 61l305 -653z" />
    <glyph glyph-name="bracketright" unicode="]" 
d="M441 -90h-330v111h195v536h-195v112h330v-759z" />
    <glyph glyph-name="asciicircum" unicode="^" 
d="M169 323l-111 56l153 246h78l146 -246l-108 -55l-80 138z" />
    <glyph glyph-name="underscore" unicode="_" 
d="M29 -115v110h442v-110h-442z" />
    <glyph glyph-name="grave" unicode="`" 
d="M252 502l-117 147l96 68l82 -177z" />
    <glyph glyph-name="a" unicode="a" 
d="M189 -12q-76 0 -119 36.5t-43 96.5q0 38 16 70.5t50 57t87 38.5t127 14h11h18h17l4 -94h-17t-22.5 -0.5t-17.5 -0.5q-43 0 -69 -5.5t-39.5 -15t-18.5 -21t-5 -22.5q0 -12 4 -21t11 -14t17 -7.5t21 -2.5q24 0 41 8t28.5 26.5t17 47.5t5.5 71q0 51 -9.5 78t-27 36.5
t-42.5 9.5q-31 0 -57 -8.5t-55 -38.5l-80 82q45 41 96.5 57t100.5 16q43 0 81.5 -9.5t69 -31.5t48 -60.5t17.5 -96.5v-284h-143v37q-13 -12 -25.5 -21.5t-27 -15.5t-31.5 -9t-39 -3z" />
    <glyph glyph-name="b" unicode="b" 
d="M287 -12q-22 0 -43.5 6t-41 19t-35.5 32l-15 -45h-112v675h141h9v-11q-5 -6 -6.5 -13t-1.5 -24v-197q10 12 22 21.5t26.5 16.5t30.5 10.5t33 3.5q43 -1 77.5 -16t59 -44.5t38 -73.5t13.5 -103q0 -66 -15 -114.5t-41.5 -80t-62 -47t-76.5 -15.5v0zM256 92q19 0 35 7.5
t27.5 24t18 43t6.5 63.5q0 34 -5.5 61.5t-16 47.5t-26.5 31t-37 11q-25 0 -41.5 -16t-24.5 -47t-9 -77q0 -38 4.5 -66t14 -46.5t23 -27.5t31.5 -9v0z" />
    <glyph glyph-name="c" unicode="c" 
d="M274 -12q-52 0 -97 17.5t-78.5 50t-52 76.5t-18.5 97q0 52 18.5 98t52 80.5t78.5 54.5t98 20q70 0 120 -24.5t79 -68.5l-75 -85l-6 -7l-9 7q-1 8 -2 17t-11 22q-17 17 -39 23t-50 6q-22 0 -42 -9.5t-36 -27.5t-25 -45t-9 -63q0 -31 9.5 -55.5t25 -40.5t35 -24.5
t39.5 -8.5t39.5 5t39 17.5t37.5 35.5l76 -87q-39 -44 -93 -62.5t-104 -18.5v0z" />
    <glyph glyph-name="d" unicode="d" 
d="M220 -12q-41 0 -76.5 15.5t-62 46.5t-41.5 77.5t-15 108.5q0 59 13.5 105t39 77.5t61.5 47.5t80 16q18 0 36.5 -3t34.5 -11t27 -25v232h142h9v-11q-5 -6 -7 -13t-1 -24l-2 -571q0 -14 2 -28t9 -28h-138l-7 14t-2 9v14q-12 -18 -28 -29t-35 -15.5t-39 -4.5v0zM245 98
q17 0 30.5 7t23 22.5t14.5 42.5t5 66q0 52 -8 82.5t-24.5 43.5t-41.5 13q-19 0 -34.5 -10t-25.5 -28.5t-15.5 -45t-5.5 -59.5q0 -43 13 -73t32 -45.5t37 -15.5v0z" />
    <glyph glyph-name="e" unicode="e" 
d="M270 -12q-50 0 -93.5 16.5t-76 47.5t-50.5 76.5t-18 102.5q0 58 17.5 104.5t48 79t71.5 50t89 17.5q41 0 78.5 -15t66.5 -44.5t46 -73t17 -99.5v-30t-1 -29h-297q2 -25 12 -42.5t25.5 -29t34 -17t37.5 -5.5q20 0 38 3t35 11.5t33 24.5l70 -68q-24 -28 -53 -46t-62 -26
t-68 -8zM169 295h163q0 20 -5 34.5t-15 24t-25 14t-34 4.5q-17 0 -31.5 -4.5t-25.5 -14t-18 -24t-9 -34.5z" />
    <glyph glyph-name="f" unicode="f" 
d="M123 361h-101v110h101v21q0 65 30.5 107t78.5 63t100 21q50 0 92 -17t73 -48l-46 -93l-4 -8l-9 5q-4 7 -7.5 14.5t-17.5 17.5q-18 11 -35 15.5t-37 4.5q-25 0 -42.5 -10t-26 -28t-8.5 -43v-22h134v-110h-134v-361h-141v361z" />
    <glyph glyph-name="g" unicode="g" 
d="M233 -183q-50 0 -89.5 9.5t-66.5 26.5t-41 40t-14 49q0 22 12 42t33 36.5t46 26.5l65 -23q-11 -9 -24.5 -17.5t-22.5 -18t-9 -22.5q0 -11 10 -18.5t27.5 -12t40 -6.5t48.5 -2q33 0 57.5 5t38 15t13.5 23q0 11 -8 17t-26 8.5t-47 2.5q-31 0 -63.5 2.5t-62.5 9.5t-54.5 19
t-38.5 30.5t-14 45.5q0 37 23 61.5t53 42.5l63 -31q-9 -8 -17.5 -12.5t-14 -9t-5.5 -14.5q0 -9 18 -16t56 -10.5t98 -3.5q39 0 67.5 -10.5t47 -29t27.5 -41.5t9 -49q0 -31 -14.5 -60.5t-44 -53t-73.5 -37.5t-103 -14zM232 158q-49 0 -90.5 21t-66 57t-24.5 82t24.5 83t66 59
t90.5 22q50 0 91 -22t65.5 -59t24.5 -83t-24.5 -82t-65.5 -57t-91 -21zM231 255q18 0 32 7.5t22.5 22t8.5 33.5t-8.5 32t-23 20.5t-31.5 7.5q-14 0 -28 -8t-23.5 -21.5t-9.5 -30.5t8.5 -31.5t22.5 -23t30 -8.5zM384 378l-53 67q28 18 67 29t80 8l12 -90q-28 7 -57 2.5
t-49 -16.5z" />
    <glyph glyph-name="h" unicode="h" 
d="M43 675h142h9v-11q-5 -6 -6.5 -13t-1.5 -24v-204q16 22 37 34.5t44.5 18.5t45.5 6q48 0 82.5 -20.5t53.5 -64.5t19 -114v-283h-142v282q0 36 -6 57.5t-17.5 30.5t-29.5 9q-17 0 -30.5 -5t-24 -14t-18 -22.5t-11 -30.5t-3.5 -37v-270h-143v675z" />
    <glyph glyph-name="i" unicode="i" 
d="M74 0v110h112v251h-107v110h249v-361h102v-110h-356zM250 535q-35 0 -59.5 23.5t-24.5 55.5q0 35 23.5 57t60.5 22q33 0 58.5 -23.5t25.5 -55.5t-25.5 -55.5t-58.5 -23.5z" />
    <glyph glyph-name="j" unicode="j" 
d="M189 -177q-50 0 -89.5 19.5t-73.5 56.5l76 100l6 7l9 -6q2 -8 3.5 -16.5t11.5 -21.5q11 -11 24.5 -17.5t32.5 -6.5q23 0 35.5 9t17 27.5t4.5 44.5v342h-157v110h300v-438q0 -75 -29 -121.5t-74.5 -67.5t-96.5 -21v0zM308 535q-35 0 -59.5 23.5t-24.5 55.5q0 35 23.5 57
t60.5 22q33 0 58.5 -23.5t25.5 -55.5t-25.5 -55.5t-58.5 -23.5z" />
    <glyph glyph-name="k" unicode="k" 
d="M208 199l-23 -24v-175h-142v675h141h9v-11q-5 -6 -6.5 -13t-1.5 -24v-297l145 146q9 -2 20 -3.5t22 -2.5t20.5 -1.5t14.5 -0.5h73l-180 -182l200 -285l-152 -5z" />
    <glyph glyph-name="l" unicode="l" 
d="M52 0v110h128v455h-122v110h264v-565h127v-110h-397z" />
    <glyph glyph-name="m" unicode="m" 
d="M25 0v471h114v-27q12 15 24 23t24.5 11.5t24.5 3.5q15 0 29 -4t27 -14.5t22 -31.5q12 19 25 29.5t30.5 15.5t39.5 5q27 0 45.5 -9.5t30.5 -27.5t17.5 -45t5.5 -62v-338h-119v315q0 23 -1.5 37.5t-5 21.5t-11.5 7q-9 0 -18 -8.5t-14.5 -27t-5.5 -49.5v-296h-109v314
q0 43 -5 57t-16 14q-8 0 -14.5 -5t-11 -15.5t-7 -26t-2.5 -35.5v-303h-119z" />
    <glyph glyph-name="n" unicode="n" 
d="M43 0v471h143v-54q16 19 33 33.5t38.5 23t48.5 8.5q42 0 79 -20.5t60 -64t23 -114.5v-283h-142v282q0 32 -6 53.5t-19 32.5t-33 11q-16 0 -31 -6.5t-26.5 -18.5t-18 -29t-6.5 -38v-287h-143z" />
    <glyph glyph-name="o" unicode="o" 
d="M249 -12q-63 0 -115 30.5t-83 86.5t-31 130q0 69 31 125t83 89t115 33t115.5 -33t84 -89t31.5 -125q0 -73 -31.5 -129t-84 -87t-115.5 -31zM249 99q27 0 47.5 17t32.5 47.5t12 71.5q0 44 -12 74t-32.5 46t-47.5 16q-25 0 -45.5 -16t-32.5 -46t-12 -74q0 -41 11.5 -71.5
t32 -47.5t46.5 -17z" />
    <glyph glyph-name="p" unicode="p" 
d="M40 -167l-1 639h138v-49q18 21 37.5 34t41.5 19t46 6q38 0 70.5 -16.5t57 -48.5t38.5 -78.5t14 -107.5q0 -62 -14.5 -108t-40 -76t-58.5 -44.5t-69 -14.5q-23 0 -45.5 4t-41.5 12.5t-31 21.5v-193h-142zM256 92q21 0 37 8t27.5 25t17.5 46t6 71q0 41 -10.5 71t-29.5 46
t-45 16q-21 0 -36 -8.5t-24 -26t-13 -44.5t-4 -64q0 -29 2.5 -51.5t8 -39t14 -27.5t21 -16.5t28.5 -5.5z" />
    <glyph glyph-name="q" unicode="q" 
d="M320 -167v191q-8 -12 -23 -20t-33.5 -12t-37.5 -4q-52 0 -91.5 17.5t-65.5 50t-39.5 78t-13.5 100.5t12.5 100.5t38 78t64.5 50.5t91 18q18 0 32.5 -2.5t27 -8t23 -13.5t19.5 -19v33h138v-638h-142zM249 92q16 0 29.5 8t23.5 24.5t15.5 44t5.5 66.5q0 40 -6 67t-17 43.5
t-25 23.5t-30 7q-19 0 -35.5 -7t-28.5 -23t-18.5 -42.5t-6.5 -65.5q0 -40 6.5 -68t19 -45t29.5 -25t38 -8z" />
    <glyph glyph-name="r" unicode="r" 
d="M69 471h145v-129l-16 4q3 30 15.5 54.5t32.5 43t44.5 28.5t50.5 10q41 0 73 -13t60 -42l-58 -121l-3 -8l-10 4q-4 8 -6 17.5t-13 21.5q-13 11 -29.5 18.5t-36.5 7.5q-23 0 -42.5 -7t-33.5 -22t-22 -38t-8 -55v-245h-143v471z" />
    <glyph glyph-name="s" unicode="s" 
d="M265 -12q-46 0 -87.5 7.5t-76.5 24t-64 43.5l56 108l4 8l9 -5q3 -7 6.5 -15.5t15.5 -19.5q28 -21 61.5 -32t76.5 -11q22 0 37.5 5t24 13.5t8.5 18.5t-6.5 17t-19 12.5t-32.5 11.5t-47 13q-50 13 -86.5 32t-56.5 47.5t-20 68.5q0 41 25 74t68.5 53t99.5 20q27 0 53.5 -4.5
t50.5 -13t46 -22t41 -31.5l-65 -95l-6 -8l-9 7q-1 8 -4.5 15t-15.5 18q-19 13 -41.5 18.5t-47.5 5.5q-29 0 -51 -9t-22 -27q0 -12 12 -20t35.5 -14.5t58.5 -14.5q56 -12 92 -32.5t53.5 -49.5t17.5 -67q0 -40 -23 -74.5t-66.5 -55t-104.5 -20.5v0z" />
    <glyph glyph-name="t" unicode="t" 
d="M299 -12q-37 0 -68 11.5t-53 39t-33 75.5t-8 122l14 340l144 19l9 1l1 -11l-8 -14t-5 -24l-12 -154h6l-8 -150q-3 -57 4.5 -88.5t22 -43.5t30.5 -12q31 0 56.5 13t44.5 29l24 -99q-34 -25 -73.5 -39.5t-87.5 -14.5v0zM51 471h378l-2 -110h-378z" />
    <glyph glyph-name="u" unicode="u" 
d="M206 -12q-29 0 -54.5 7t-46 22t-35.5 38t-23 55.5t-8 74.5v286h142v-286q0 -23 3.5 -39t10.5 -26.5t16.5 -15t20.5 -4.5q19 0 33.5 6t24 18.5t14 30.5t4.5 42v274h143v-395q0 -24 1.5 -41.5t8.5 -34.5h-127q-5 9 -7 18t-2.5 18t-0.5 18q-10 -17 -23.5 -29.5t-29 -20.5
t-32 -12t-33.5 -4z" />
    <glyph glyph-name="v" unicode="v" 
d="M192 0l-170 471h149l99 -306h-17l51 129q15 44 25 89t10 88h131q-3 -46 -19 -94.5t-34 -95.5l-113 -281h-112z" />
    <glyph glyph-name="w" unicode="w" 
d="M86 0l-81 471h120l39 -286l59 228h69l65 -225q6 51 10 89.5t5.5 67.5t2 51t0.5 40v35h116q-3 -72 -13.5 -154.5t-24.5 -164t-27 -152.5h-119l-52 223l-47 -223h-122z" />
    <glyph glyph-name="x" unicode="x" 
d="M15 0l161 233l-159 238h146l87 -128l79 128h141l-147 -232l166 -239h-148l-92 128l-86 -128h-148z" />
    <glyph glyph-name="y" unicode="y" 
d="M125 -177q-34 0 -60 12t-55 34l45 97l3 8l10 -4q4 -7 8 -15t17 -18q6 -4 13.5 -6t15.5 -2q16 0 28 9.5t23 29.5t23 53l110 296q15 41 23 77.5t8 76.5h127q-1 -45 -19.5 -96.5t-35.5 -96.5l-116 -311q-30 -80 -71 -112t-97 -32v0zM21 471h139l129 -338l-77 -142z" />
    <glyph glyph-name="z" unicode="z" 
d="M33 80l240 277h-221v114h393v-87l-235 -270h209q17 0 24 2t13 7h11v-9v-114h-434v80z" />
    <glyph glyph-name="braceleft" unicode="{" 
d="M360 -78q-70 0 -123.5 16t-84 56.5t-30.5 112.5l3 84q0 33 -7 49t-19.5 20.5t-31.5 4.5h-42v109h41q21 0 34.5 6t20 21t6.5 43l-2 94q0 59 26.5 99t74 60.5t110.5 20.5h81v-110h-98q-32 0 -47.5 -15.5t-15.5 -44.5l2 -93q0 -29 -8.5 -54.5t-24.5 -46t-38 -34.5
q20 -13 35.5 -34t24.5 -48.5t9 -60.5l-2 -70q0 -26 9.5 -43.5t30 -25.5t52.5 -8h70v-108h-56z" />
    <glyph glyph-name="bar" unicode="|" 
d="M187 -151v803h127v-803h-127z" />
    <glyph glyph-name="braceright" unicode="}" 
d="M102 -78h-56v108h70q33 0 53 8t29.5 25.5t9.5 43.5l-2 70q0 33 9 60.5t24.5 48.5t35.5 34q-22 14 -38 34.5t-24.5 46t-8.5 54.5l2 93q0 29 -15.5 44.5t-47.5 15.5h-98v110h81q63 0 110.5 -20.5t74 -60.5t26.5 -99l-2 -94q0 -28 6.5 -43t20.5 -21t34 -6h41v-109h-42
q-18 0 -31 -4.5t-20 -20.5t-7 -49l3 -84q0 -72 -30.5 -112.5t-84 -56.5t-123.5 -16z" />
    <glyph glyph-name="asciitilde" unicode="~" 
d="M341 237q-24 0 -43 8t-35.5 18.5t-32 19t-32.5 8.5q-28 0 -47.5 -10.5t-35.5 -33.5l-86 77q17 23 40.5 41.5t52 29.5t59.5 11q23 0 43.5 -8t38.5 -19t34 -19t31 -8q23 0 43 18t35 38l72 -88q-19 -23 -41.5 -42t-47 -29.5t-48.5 -11.5z" />
    <glyph glyph-name="uni00A0" unicode="&#xa0;" 
 />
    <glyph glyph-name="exclamdown" unicode="&#xa1;" 
d="M190 369h100l31 -357q3 -35 -8.5 -56.5t-30.5 -30.5t-41 -9t-41.5 9.5t-30.5 31t-8 55.5zM239 597q38 0 66.5 -25.5t28.5 -60.5q0 -33 -27 -60.5t-68 -27.5q-38 0 -65.5 26.5t-27.5 61.5q0 36 27.5 61t65.5 25z" />
    <glyph glyph-name="cent" unicode="&#xa2;" 
d="M299 -73h-125l95 696h122zM274 31q-52 0 -97 17.5t-78.5 50t-52 76.5t-18.5 97q0 52 18.5 98t52 80.5t78.5 54.5t98 20q70 0 120 -24.5t79 -68.5l-75 -85l-6 -7l-9 7q-1 8 -2 17t-11 22q-17 17 -39 23t-50 6q-22 0 -42 -9.5t-36 -27.5t-25 -45t-9 -63q0 -31 9.5 -55.5
t25 -40.5t35 -24.5t39.5 -8.5t39.5 5t39 17.5t37.5 35.5l76 -87q-39 -44 -93 -62.5t-104 -18.5v0z" />
    <glyph glyph-name="sterling" unicode="&#xa3;" 
d="M68 -17l-42 108q38 16 60.5 29.5t32.5 37.5t10 68q0 14 -2 32.5t-7 39.5h-61v109h41q-2 12 -3 22t-1 20q0 56 25.5 96t68.5 62t95 22q44 0 80 -17t68 -52l-67 -89q-12 19 -31 33.5t-50 14.5q-16 0 -29 -8.5t-20.5 -24t-7.5 -36.5q0 -8 1 -18t3 -25h120v-109h-99
q4 -20 5.5 -37.5t1.5 -33.5q0 -18 -1.5 -34t-6.5 -31t-14 -30q16 2 30 -3.5t28.5 -13.5t31 -14.5t35.5 -6.5q16 0 33 10t42 31l42 -96q-32 -26 -60.5 -39.5t-64.5 -13.5q-20 0 -40 6.5t-40 14.5t-39.5 14.5t-39.5 6.5q-31 0 -58.5 -11.5t-69.5 -33.5z" />
    <glyph glyph-name="currency" unicode="&#xa4;" 
d="M126 142l-85 75l55 56q-8 17 -13 36t-5 38t3.5 37t13.5 38l-54 53l85 75l52 -52q17 5 36.5 9.5t36.5 4.5q18 0 36.5 -4t34.5 -9l52 51l85 -75l-55 -53q11 -19 15 -38t4 -37q0 -20 -4 -38.5t-15 -37.5l55 -54l-85 -75l-51 52q-18 -7 -35.5 -9.5t-36.5 -2.5q-21 0 -39 3
t-35 10zM250 277q19 0 31 8.5t18.5 24t6.5 35.5q0 19 -6.5 34.5t-18.5 25t-31 9.5t-32 -9.5t-19 -25t-6 -34.5t6.5 -34.5t19 -24.5t31.5 -9z" />
    <glyph glyph-name="yen" unicode="&#xa5;" 
d="M206 229h-139v70h134zM308 299h133v-70h-133v70zM206 115h-139v69h139v-69zM308 184h133v-69h-133v69zM325 0h-136v277l-185 345h155l98 -219l92 220h145l-169 -338v-285z" />
    <glyph glyph-name="brokenbar" unicode="&#xa6;" 
d="M187 277v375h127v-375h-127zM187 -151v364h127v-364h-127z" />
    <glyph glyph-name="section" unicode="&#xa7;" 
d="M238 -59q-57 0 -109 22t-90 71l79 125q5 -1 5.5 -5t0 -10.5t3 -16.5t14.5 -23q11 -12 22.5 -22t27.5 -16t40 -6q13 0 23.5 4t17.5 10.5t11 14.5t4 15q0 13 -6.5 23t-23 19.5t-45.5 18.5q-54 17 -87 40t-48 52t-15 61q0 13 5 27.5t14 28.5t21.5 25.5t27.5 18.5
q-22 13 -38 40t-16 62q0 42 22.5 78.5t63 59t93.5 22.5q40 0 74.5 -13t62 -37.5t45.5 -59.5l-91 -82q-4 5 -6.5 8t-5.5 15q-3 11 -9.5 21.5t-15.5 19t-19.5 13.5t-21.5 5q-18 0 -30 -6t-17.5 -16t-5.5 -24q0 -8 4.5 -16.5t14 -17t24.5 -16t35 -13.5q19 -5 43 -17t46 -31
t36.5 -45.5t14.5 -59.5q0 -20 -8 -40t-21 -36t-28 -25q22 -19 35.5 -44.5t13.5 -51.5q0 -35 -13.5 -66t-38 -54.5t-59 -36.5t-76.5 -13zM301 250q6 7 8.5 13t3.5 12.5t1 12.5q0 11 -6.5 20.5t-18.5 18t-26.5 16.5t-31.5 17l-24 11q-3 -4 -6 -8.5t-5.5 -10t-4 -11t-1.5 -11.5
q0 -8 4.5 -15.5t13 -14t20.5 -13.5t27 -15q11 -5 23 -11t23 -11z" />
    <glyph glyph-name="dieresis" unicode="&#xa8;" 
d="M157 538q-32 0 -55 21.5t-23 51.5t23 52t55 22q36 0 57.5 -23.5t21.5 -50.5q0 -30 -23.5 -51.5t-55.5 -21.5zM345 538q-32 0 -55 21t-23 52t23 52.5t55 21.5q37 0 57 -24t20 -50q0 -30 -22.5 -51.5t-54.5 -21.5z" />
    <glyph glyph-name="copyright" unicode="&#xa9;" 
d="M248 131q-42 0 -71 20t-44.5 53.5t-15.5 71.5q0 30 9.5 55t26 44t39.5 29.5t50 10.5q60 0 93.5 -31t44.5 -77l-86 -21q-2 4 -2 7v6t-0.5 7.5t-4.5 10.5q-5 9 -13.5 13t-19.5 4q-6 0 -12.5 -4t-12 -11t-8.5 -17t-3 -22q0 -18 3.5 -33t12.5 -24t24 -9q10 0 18 4t13.5 11
t7.5 16l79 -33q-19 -37 -52.5 -59t-75.5 -22zM242 17q-51 0 -95.5 20t-77.5 55.5t-51.5 81.5t-18.5 98q0 53 19.5 99t53.5 81t79.5 55t96.5 20q50 0 95 -20t79.5 -55t54 -81t19.5 -99q0 -42 -12.5 -80.5t-35.5 -70t-54.5 -55t-70 -36.5t-81.5 -13zM249 85q39 0 71 14.5
t55 40.5t35.5 60t12.5 73q0 38 -14.5 72t-39 60t-55.5 41t-65 15t-65 -14.5t-55.5 -40.5t-38.5 -60.5t-14 -73.5t14 -72.5t38.5 -59.5t55.5 -40.5t65 -14.5z" />
    <glyph glyph-name="ordfeminine" unicode="&#xaa;" 
d="M202 258q-55 0 -86.5 29t-31.5 75q0 40 21 71.5t67 50.5t122 19h6h11h10l4 -77q-3 0 -10.5 -0.5l-15 -1t-11.5 -0.5q-42 0 -61 -7t-24 -17.5t-5 -19.5q0 -10 4.5 -17.5t11.5 -11t16 -3.5q15 0 25.5 5.5t17 18.5t9.5 35t3 54q0 39 -5.5 58.5t-16.5 26t-26 6.5
q-22 0 -40 -6t-39 -29l-65 67q34 32 72.5 44t76.5 12q42 0 78.5 -13t59 -45.5t22.5 -93.5v-221h-115v23q-9 -7 -17.5 -13t-18 -10.5t-21 -6.5t-28.5 -2zM64 227h374v-107h-374v107z" />
    <glyph glyph-name="guillemotleft" unicode="&#xab;" 
d="M227 38l-173 187v40l172 165l57 -63l-118 -124l127 -145zM384 38l-173 187v40l171 165l65 -68l-126 -119l133 -144z" />
    <glyph glyph-name="logicalnot" unicode="&#xac;" 
d="M298 152v110h-224v117h357v-227h-133z" />
    <glyph glyph-name="uni00AD" unicode="&#xad;" 
d="M101 265v111h300v-111h-300z" />
    <glyph glyph-name="registered" unicode="&#xae;" 
d="M279 152l-39 92h-7v-87h-73v238h80q40 0 64.5 -8.5t36 -25t11.5 -40.5q0 -20 -9.5 -37t-28.5 -28l44 -92zM233 298h16q15 0 21 4.5t6 14.5q0 7 -6.5 12t-22.5 5h-14v-36zM242 17q-51 0 -95.5 20t-77.5 55.5t-51.5 81.5t-18.5 98q0 53 19.5 99t53.5 81t79.5 55t96.5 20
q50 0 95 -20t79.5 -55t54 -81t19.5 -99q0 -42 -12.5 -80.5t-35.5 -70t-54.5 -55t-70 -36.5t-81.5 -13zM249 85q39 0 71 14.5t55 40.5t35.5 60t12.5 73q0 38 -14.5 72t-39 60t-55.5 41t-65 15t-65 -14.5t-55.5 -40.5t-38.5 -60.5t-14 -73.5t14 -72.5t38.5 -59.5t55.5 -40.5
t65 -14.5z" />
    <glyph glyph-name="macron" unicode="&#xaf;" 
d="M98 567v89h297v-89h-297z" />
    <glyph glyph-name="degree" unicode="&#xb0;" 
d="M256 390q-43 0 -78.5 20t-56 53.5t-20.5 73.5q0 31 12.5 58t34 47t49.5 31t59 11q44 0 79 -20.5t55.5 -54t20.5 -72.5t-20.5 -72.5t-55.5 -54t-79 -20.5zM256 488q12 0 20.5 6t13 17.5t4.5 27.5q0 15 -5 26.5t-13.5 17.5t-20.5 6t-20 -6t-12 -17.5t-4 -27.5
q0 -15 4 -26.5t12.5 -17.5t20.5 -6z" />
    <glyph glyph-name="plusminus" unicode="&#xb1;" 
d="M197 148v170h-161v105h161v156h117v-156h155v-105h-155v-170h-117zM34 -7v111h433v-111h-433z" />
    <glyph glyph-name="uni00B2" unicode="&#xb2;" 
d="M111 314q51 45 87 75t58 52.5t32.5 42t10.5 41.5q0 10 -4.5 18t-15.5 13t-32 5q-15 0 -27 -2.5t-22 -7.5q-11 -11 -14.5 -17.5t-4.5 -14.5l-8 -8l-6 6l-64 50q25 36 63.5 54.5t84.5 18.5q38 0 70 -14t51 -39t19 -60q0 -28 -8 -51t-25 -45.5t-43.5 -48.5t-62.5 -59h92
q17 0 24 2t13 7h11v-9v-77h-279v68z" />
    <glyph glyph-name="uni00B3" unicode="&#xb3;" 
d="M238 239q-42 0 -80.5 11.5t-59.5 36.5l44 67l5 8l10 -6q2 -8 6.5 -14.5t17.5 -16.5q11 -5 24.5 -8t27.5 -3q28 0 43.5 12t15.5 32q0 22 -11 34t-34.5 16t-60.5 -1v76q28 -1 47 1t30 7.5t16 13t5 16.5q0 12 -6 21.5t-17 14.5t-28 5q-21 0 -40.5 -7.5t-33.5 -23.5l-54 57
q25 29 61 40.5t71 11.5q59 0 99.5 -29t40.5 -73q0 -34 -21 -55.5t-41 -30.5q17 -5 33.5 -17.5t28 -32t11.5 -47.5q0 -34 -18 -60t-51.5 -41t-80.5 -15v0z" />
    <glyph glyph-name="acute" unicode="&#xb4;" 
d="M257 502l-61 38l82 177l96 -68z" />
    <glyph glyph-name="uni00B5" unicode="&#xb5;" 
d="M8 -145q0 14 1.5 30.5t4 41t5 61t4 90t1.5 127.5v266h141v-290q0 -24 2.5 -40t7.5 -25.5t12.5 -13.5t18.5 -4q14 0 23 8t13.5 25t4.5 43v297h139v-340q0 -7 2.5 -12.5t7.5 -8.5t10 -3q6 0 15 7t14 17l8 16l52 -97q-23 -31 -50 -46t-52 -15q-14 0 -26.5 5.5t-22.5 14.5
t-18 19q-7 -10 -20 -18t-30.5 -13t-39.5 -5q-16 0 -34 4t-34 13.5t-26 24.5q0 -13 -0.5 -37.5t-1.5 -52.5t-1.5 -52t-0.5 -37h-130z" />
    <glyph glyph-name="paragraph" unicode="&#xb6;" 
d="M178 -70v384q-34 8 -63 24.5t-49.5 40.5t-32 54t-11.5 64q0 45 23.5 83.5t79 62.5t149.5 24h205v-737h-126v626h-48v-626h-127z" />
    <glyph glyph-name="periodcentered" unicode="&#xb7;" 
d="M240 247q-37 0 -62.5 25.5t-25.5 62.5q0 36 25.5 61.5t62.5 25.5q36 0 61.5 -25.5t25.5 -61.5q0 -37 -25.5 -62.5t-61.5 -25.5z" />
    <glyph glyph-name="cedilla" unicode="&#xb8;" 
d="M271 -210q-34 0 -68.5 8.5t-72.5 39.5l45 81q31 -27 56.5 -36t51.5 -9q12 0 27.5 5.5t15.5 14.5q0 8 -12.5 11t-31.5 3h-62l13 92h104l-3 -20q22 -2 38.5 -13t25.5 -27t9 -35q0 -49 -38 -82t-98 -33z" />
    <glyph glyph-name="uni00B9" unicode="&#xb9;" 
d="M211 246v288l-70 -27l-21 68l114 57h74v-386h-97z" />
    <glyph glyph-name="ordmasculine" unicode="&#xba;" 
d="M249 258q-47 0 -85.5 22.5t-61.5 65.5t-23 102q0 56 23 99.5t62 68t85 24.5q47 0 86 -24.5t62.5 -68t23.5 -99.5q0 -59 -23.5 -101.5t-62.5 -65.5t-86 -23zM249 349q18 0 31.5 12t21 34.5t7.5 52.5q0 34 -7.5 56t-21 33.5t-31.5 11.5q-16 0 -29 -11.5t-21 -33.5t-8 -56
q0 -30 7.5 -52.5t20.5 -34.5t30 -12zM64 227h374v-107h-374v107z" />
    <glyph glyph-name="guillemotright" unicode="&#xbb;" 
d="M291 38l-65 60l127 145l-118 124l57 63l172 -165v-40zM134 38l-70 61l133 144l-126 119l65 68l171 -165v-40z" />
    <glyph glyph-name="onequarter" unicode="&#xbc;" 
d="M75 380v221l-52 -21l-18 60l90 45h64v-305h-84zM370 -70v67h-119v51l138 187h59v-171h45v-67h-45v-67h-78zM334 62h39v55zM123 -44l-74 48l308 671l75 -50z" />
    <glyph glyph-name="onehalf" unicode="&#xbd;" 
d="M75 380v221l-52 -21l-18 60l90 45h64v-305h-84zM268 -70v58q41 35 69 59t45.5 40.5t25 31t7.5 31.5q0 6 -3 11.5t-11 9t-24 3.5q-15 0 -26 -3t-19.5 -9.5t-16.5 -19.5l-55 43q20 28 51 42.5t67 14.5q31 0 56.5 -11t41.5 -31t16 -47q0 -22 -5.5 -39.5t-17.5 -34.5t-32 -37
t-49 -46h104v-66h-224zM123 -44l-74 48l308 671l75 -50z" />
    <glyph glyph-name="threequarters" unicode="&#xbe;" 
d="M100 374q-34 0 -65.5 9.5t-48.5 28.5l36 58l5 8l10 -6q2 -7 7 -13t18 -15q8 -3 16.5 -4.5t17.5 -1.5q20 0 31 8.5t11 22.5q0 16 -8 25t-25.5 12t-47.5 -1v64q22 -1 36.5 0.5t23.5 5t13 8.5t4 11q0 9 -4.5 16t-13.5 11t-22 4q-16 0 -31.5 -6t-25.5 -19l-47 50
q20 23 50 32.5t59 9.5q47 0 80.5 -23t33.5 -58q0 -28 -17 -44.5t-31 -23.5q17 -6 37 -24.5t20 -52.5q0 -40 -33 -66t-89 -26v0zM370 -3h-119v51l138 187h59v-171h45v-67h-45v-67h-78v67zM373 62v55l-39 -55h39zM123 -44l-74 48l308 671l75 -50z" />
    <glyph glyph-name="questiondown" unicode="&#xbf;" 
d="M297 292q0 -33 -9 -57t-23.5 -42t-30 -33t-30 -29t-23.5 -30.5t-9 -37.5q0 -19 6 -31.5t17 -19.5t24.5 -10t28.5 -3q20 0 40 8.5t37 21.5q11 13 14.5 19.5t3.5 14.5l7 8l7 -6l86 -60q-23 -35 -54 -61t-68.5 -40t-81.5 -14q-60 0 -104 24.5t-68 63.5t-24 83q0 35 10 60
t25 42.5t32.5 31.5t33 27.5t25 30t9.5 39.5v55h119v-55zM235 575q37 0 62.5 -25.5t25.5 -62.5q0 -36 -25.5 -61.5t-62.5 -25.5q-36 0 -61.5 25.5t-25.5 61.5q0 37 25.5 62.5t61.5 25.5v0z" />
    <glyph glyph-name="Agrave" unicode="&#xc0;" 
d="M373 121h-255l17 98h218zM251 381l-101 -381h-140l198 623h85l198 -623h-142zM327 650l-187 64l52 97l167 -100z" />
    <glyph glyph-name="Aacute" unicode="&#xc1;" 
d="M373 121h-255l17 98h218zM251 381l-101 -381h-140l198 623h85l198 -623h-142zM174 649l-32 62l170 99l47 -96z" />
    <glyph glyph-name="Acircumflex" unicode="&#xc2;" 
d="M373 121h-255l17 98h218zM251 381l-101 -381h-140l198 623h85l198 -623h-142zM101 645l-38 66l173 95h37l162 -91l-43 -71l-138 64z" />
    <glyph glyph-name="Atilde" unicode="&#xc3;" 
d="M373 121h-255l17 98h218zM251 381l-101 -381h-140l198 623h85l198 -623h-142zM350 786l70 -33q-19 -43 -45 -63t-57 -20q-34 0 -54 10t-33 23.5t-22.5 23.5t-22.5 10q-16 0 -28.5 -14.5t-22.5 -35.5l-70 33q18 50 46.5 71t69.5 21q29 0 48 -9.5t32 -22.5t24.5 -22.5
t24.5 -9.5q17 0 25 11t15 27z" />
    <glyph glyph-name="Adieresis" unicode="&#xc4;" 
d="M373 121h-255l17 98h218zM251 381l-101 -381h-140l198 623h85l198 -623h-142zM155 680q-32 0 -55 21.5t-23 51.5t23 52t55 22q36 0 57.5 -23.5t21.5 -50.5q0 -30 -23.5 -51.5t-55.5 -21.5zM343 680q-32 0 -55 21t-23 52t23 52.5t55 21.5q37 0 57 -24t20 -50
q0 -30 -22.5 -51.5t-54.5 -21.5z" />
    <glyph glyph-name="Aring" unicode="&#xc5;" 
d="M373 121h-255l17 98h218zM251 381l-101 -381h-140l198 623h85l198 -623h-142zM246 614q-30 0 -55.5 14.5t-40.5 39t-15 54.5q0 29 15 53t40.5 38.5t55.5 14.5q31 0 57 -14.5t41.5 -38.5t15.5 -52q0 -30 -16 -55t-41.5 -39.5t-56.5 -14.5zM247 692q11 0 18.5 9t7.5 23
q0 13 -7.5 22.5t-18.5 9.5t-18.5 -9.5t-7.5 -22.5q0 -14 7.5 -23t18.5 -9z" />
    <glyph glyph-name="AE" unicode="&#xc6;" 
d="M-10 0l189 622h321v-110h-148v-134h124v-109h-124v-159h146v-110h-278v152h-55l-38 -152h-137zM190 267h31l10 195h4z" />
    <glyph glyph-name="Ccedilla" unicode="&#xc7;" 
d="M275 -12q-51 0 -96.5 19t-80.5 58t-54.5 99.5t-19.5 143.5q0 73 15.5 128t42 93t60 61.5t70 34t72.5 10.5q73 0 124 -31t79 -90l-78 -70l-7 -6l-7 8q0 8 -2 16t-11 21q-19 22 -41 29.5t-45 7.5q-22 0 -45 -12.5t-42.5 -38t-31.5 -64.5t-12 -92q0 -51 8.5 -90t24 -65.5
t37 -40t47.5 -13.5q24 0 42 5t33 19t29 39l96 -73q-38 -61 -89 -83.5t-118 -22.5v0zM270 -210q-34 0 -68.5 8.5t-72.5 39.5l45 81q31 -27 56.5 -36t51.5 -9q12 0 27.5 5.5t15.5 14.5q0 8 -12.5 11t-31.5 3h-62l13 92h104l-3 -20q22 -2 38.5 -13t25.5 -27t9 -35
q0 -49 -38 -82t-98 -33z" />
    <glyph glyph-name="Egrave" unicode="&#xc8;" 
d="M46 0v623h421v-112h-282v-131h231v-112h-231v-156h280v-112h-419zM346 650l-187 64l52 97l167 -100z" />
    <glyph glyph-name="Eacute" unicode="&#xc9;" 
d="M46 0v623h421v-112h-282v-131h231v-112h-231v-156h280v-112h-419zM193 649l-32 62l170 99l47 -96z" />
    <glyph glyph-name="Ecircumflex" unicode="&#xca;" 
d="M46 0v623h421v-112h-282v-131h231v-112h-231v-156h280v-112h-419zM120 645l-38 66l173 95h37l162 -91l-43 -71l-138 64z" />
    <glyph glyph-name="Edieresis" unicode="&#xcb;" 
d="M46 0v623h421v-112h-282v-131h231v-112h-231v-156h280v-112h-419zM174 680q-32 0 -55 21.5t-23 51.5t23 52t55 22q36 0 57.5 -23.5t21.5 -50.5q0 -30 -23.5 -51.5t-55.5 -21.5zM362 680q-32 0 -55 21t-23 52t23 52.5t55 21.5q37 0 57 -24t20 -50q0 -30 -22.5 -51.5
t-54.5 -21.5z" />
    <glyph glyph-name="Igrave" unicode="&#xcc;" 
d="M63 0v113h121v397h-115v113h368v-113h-121v-397h126v-113h-379zM326 650l-187 64l52 97l167 -100z" />
    <glyph glyph-name="Iacute" unicode="&#xcd;" 
d="M63 0v113h121v397h-115v113h368v-113h-121v-397h126v-113h-379zM173 649l-32 62l170 99l47 -96z" />
    <glyph glyph-name="Icircumflex" unicode="&#xce;" 
d="M63 0v113h121v397h-115v113h368v-113h-121v-397h126v-113h-379zM100 645l-38 66l173 95h37l162 -91l-43 -71l-138 64z" />
    <glyph glyph-name="Idieresis" unicode="&#xcf;" 
d="M63 0v113h121v397h-115v113h368v-113h-121v-397h126v-113h-379zM154 680q-32 0 -55 21.5t-23 51.5t23 52t55 22q36 0 57.5 -23.5t21.5 -50.5q0 -30 -23.5 -51.5t-55.5 -21.5zM342 680q-32 0 -55 21t-23 52t23 52.5t55 21.5q37 0 57 -24t20 -50q0 -30 -22.5 -51.5
t-54.5 -21.5z" />
    <glyph glyph-name="Eth" unicode="&#xd0;" 
d="M40 1v272h-33v111h33v239h170q45 0 82 -8t65.5 -22t49.5 -31.5t34 -35.5q18 -25 29.5 -60.5t16.5 -76t5 -83.5q0 -69 -14.5 -125.5t-48 -96.5t-90 -61.5t-140.5 -21.5h-159zM174 114h23q56 0 90.5 21t51 63t16.5 105q0 64 -14.5 108.5t-47.5 67.5t-87 23h-32v-118h86
v-111h-86v-159z" />
    <glyph glyph-name="Ntilde" unicode="&#xd1;" 
d="M28 623h151l178 -376l-10 376h124h9v-11q-5 -6 -6.5 -13t-1.5 -24v-575h-138l-181 401v-401h-125v623zM349 786l70 -33q-19 -43 -45 -63t-57 -20q-34 0 -54 10t-33 23.5t-22.5 23.5t-22.5 10q-16 0 -28.5 -14.5t-22.5 -35.5l-70 33q18 50 46.5 71t69.5 21q29 0 48 -9.5
t32 -22.5t24.5 -22.5t24.5 -9.5q17 0 25 11t15 27z" />
    <glyph glyph-name="Ograve" unicode="&#xd2;" 
d="M253 -12q-80 0 -133 38t-79.5 110.5t-26.5 176.5q0 103 26.5 174.5t79.5 109.5t133 38q79 0 132 -38t80 -109.5t27 -174.5q0 -104 -27 -177t-80 -110.5t-132 -37.5zM253 100q31 0 53 22.5t34.5 70t12.5 122.5q0 69 -12.5 115.5t-34.5 69.5t-53 23q-32 0 -54.5 -23
t-34 -69.5t-11.5 -115.5q0 -75 11.5 -122.5t34 -70t54.5 -22.5zM328 655l-187 64l52 97l167 -100z" />
    <glyph glyph-name="Oacute" unicode="&#xd3;" 
d="M253 -12q-80 0 -133 38t-79.5 110.5t-26.5 176.5q0 103 26.5 174.5t79.5 109.5t133 38q79 0 132 -38t80 -109.5t27 -174.5q0 -104 -27 -177t-80 -110.5t-132 -37.5zM253 100q31 0 53 22.5t34.5 70t12.5 122.5q0 69 -12.5 115.5t-34.5 69.5t-53 23q-32 0 -54.5 -23
t-34 -69.5t-11.5 -115.5q0 -75 11.5 -122.5t34 -70t54.5 -22.5zM175 654l-32 62l170 99l47 -96z" />
    <glyph glyph-name="Ocircumflex" unicode="&#xd4;" 
d="M253 -12q-80 0 -133 38t-79.5 110.5t-26.5 176.5q0 103 26.5 174.5t79.5 109.5t133 38q79 0 132 -38t80 -109.5t27 -174.5q0 -104 -27 -177t-80 -110.5t-132 -37.5zM253 100q31 0 53 22.5t34.5 70t12.5 122.5q0 69 -12.5 115.5t-34.5 69.5t-53 23q-32 0 -54.5 -23
t-34 -69.5t-11.5 -115.5q0 -75 11.5 -122.5t34 -70t54.5 -22.5zM102 650l-38 66l173 95h37l162 -91l-43 -71l-138 64z" />
    <glyph glyph-name="Otilde" unicode="&#xd5;" 
d="M253 -12q-80 0 -133 38t-79.5 110.5t-26.5 176.5q0 103 26.5 174.5t79.5 109.5t133 38q79 0 132 -38t80 -109.5t27 -174.5q0 -104 -27 -177t-80 -110.5t-132 -37.5zM253 100q31 0 53 22.5t34.5 70t12.5 122.5q0 69 -12.5 115.5t-34.5 69.5t-53 23q-32 0 -54.5 -23
t-34 -69.5t-11.5 -115.5q0 -75 11.5 -122.5t34 -70t54.5 -22.5zM351 791l70 -33q-19 -43 -45 -63t-57 -20q-34 0 -54 10t-33 23.5t-22.5 23.5t-22.5 10q-16 0 -28.5 -14.5t-22.5 -35.5l-70 33q18 50 46.5 71t69.5 21q29 0 48 -9.5t32 -22.5t24.5 -22.5t24.5 -9.5q17 0 25 11
t15 27z" />
    <glyph glyph-name="Odieresis" unicode="&#xd6;" 
d="M253 -12q-80 0 -133 38t-79.5 110.5t-26.5 176.5q0 103 26.5 174.5t79.5 109.5t133 38q79 0 132 -38t80 -109.5t27 -174.5q0 -104 -27 -177t-80 -110.5t-132 -37.5zM253 100q31 0 53 22.5t34.5 70t12.5 122.5q0 69 -12.5 115.5t-34.5 69.5t-53 23q-32 0 -54.5 -23
t-34 -69.5t-11.5 -115.5q0 -75 11.5 -122.5t34 -70t54.5 -22.5zM156 685q-32 0 -55 21.5t-23 51.5t23 52t55 22q36 0 57.5 -23.5t21.5 -50.5q0 -30 -23.5 -51.5t-55.5 -21.5zM344 685q-32 0 -55 21t-23 52t23 52.5t55 21.5q37 0 57 -24t20 -50q0 -30 -22.5 -51.5
t-54.5 -21.5z" />
    <glyph glyph-name="multiply" unicode="&#xd7;" 
d="M365 140l-111 119l-110 -113l-84 83l112 115l-112 118l87 84l109 -115l108 113l89 -80l-114 -119l111 -118z" />
    <glyph glyph-name="Oslash" unicode="&#xd8;" 
d="M90 -65l-65 34l376 713l65 -34zM253 -12q-80 0 -133 38t-79.5 110.5t-26.5 176.5q0 103 26.5 174.5t79.5 109.5t133 38q79 0 132 -38t80 -109.5t27 -174.5q0 -104 -27 -177t-80 -110.5t-132 -37.5zM253 100q31 0 53 22.5t34.5 70t12.5 122.5q0 69 -12.5 115.5t-34.5 69.5
t-53 23q-32 0 -54.5 -23t-34 -69.5t-11.5 -115.5q0 -75 11.5 -122.5t34 -70t54.5 -22.5z" />
    <glyph glyph-name="Ugrave" unicode="&#xd9;" 
d="M249 -14q-104 0 -163 62.5t-59 171.5v403h141h9v-11q-5 -6 -6.5 -13t-1.5 -24v-356q0 -56 17.5 -88t63.5 -32q47 0 65 32.5t18 90.5v401h140v-400q0 -81 -29 -133.5t-79.5 -78t-115.5 -25.5v0zM326 650l-187 64l52 97l167 -100z" />
    <glyph glyph-name="Uacute" unicode="&#xda;" 
d="M249 -14q-104 0 -163 62.5t-59 171.5v403h141h9v-11q-5 -6 -6.5 -13t-1.5 -24v-356q0 -56 17.5 -88t63.5 -32q47 0 65 32.5t18 90.5v401h140v-400q0 -81 -29 -133.5t-79.5 -78t-115.5 -25.5v0zM173 649l-32 62l170 99l47 -96z" />
    <glyph glyph-name="Ucircumflex" unicode="&#xdb;" 
d="M249 -14q-104 0 -163 62.5t-59 171.5v403h141h9v-11q-5 -6 -6.5 -13t-1.5 -24v-356q0 -56 17.5 -88t63.5 -32q47 0 65 32.5t18 90.5v401h140v-400q0 -81 -29 -133.5t-79.5 -78t-115.5 -25.5v0zM100 645l-38 66l173 95h37l162 -91l-43 -71l-138 64z" />
    <glyph glyph-name="Udieresis" unicode="&#xdc;" 
d="M249 -14q-104 0 -163 62.5t-59 171.5v403h141h9v-11q-5 -6 -6.5 -13t-1.5 -24v-356q0 -56 17.5 -88t63.5 -32q47 0 65 32.5t18 90.5v401h140v-400q0 -81 -29 -133.5t-79.5 -78t-115.5 -25.5v0zM154 680q-32 0 -55 21.5t-23 51.5t23 52t55 22q36 0 57.5 -23.5t21.5 -50.5
q0 -30 -23.5 -51.5t-55.5 -21.5zM342 680q-32 0 -55 21t-23 52t23 52.5t55 21.5q37 0 57 -24t20 -50q0 -30 -22.5 -51.5t-54.5 -21.5z" />
    <glyph glyph-name="Yacute" unicode="&#xdd;" 
d="M191 0v246l-182 377h141l112 -232l98 232h137l-168 -378v-245h-138zM173 649l-32 62l170 99l47 -96z" />
    <glyph glyph-name="Thorn" unicode="&#xde;" 
d="M44 0v623h151q2 -2 2 -3v-3q0 -4 -3.5 -7t-4.5 -23v-69h73q77 0 125.5 -25.5t71 -68.5t22.5 -96q0 -52 -22 -94.5t-69.5 -68t-122.5 -25.5h-80v-140h-143zM187 250h67q29 0 48 10t28.5 27.5t9.5 37.5q0 19 -9.5 37.5t-27 31.5t-43.5 13h-71z" />
    <glyph glyph-name="germandbls" unicode="&#xdf;" 
d="M290 -15q-34 0 -55 8t-48 23l48 105q9 -9 19.5 -15t22.5 -6q15 0 24.5 9t15 23.5t8 31t2.5 32.5q0 21 -5.5 39.5t-17 32t-29 21t-41.5 7.5h-50v109h56q12 0 22 4t18 11.5t13 17.5t8 22.5t3 26.5q0 17 -4.5 31t-13 24.5t-21 16.5t-29.5 6q-19 0 -35 -14t-25.5 -40
t-9.5 -62v-449h-134v437q0 82 26.5 134.5t72.5 78t105 25.5q61 0 104 -24.5t66 -64.5t23 -87q0 -29 -7 -54t-22.5 -45.5t-42.5 -37.5q25 -8 44.5 -23t33.5 -37.5t21.5 -51t7.5 -63.5q0 -59 -22 -104.5t-61 -71.5t-91 -26z" />
    <glyph glyph-name="agrave" unicode="&#xe0;" 
d="M189 -12q-76 0 -119 36.5t-43 96.5q0 38 16 70.5t50 57t87 38.5t127 14h11h18h17l4 -94h-17t-22.5 -0.5t-17.5 -0.5q-43 0 -69 -5.5t-39.5 -15t-18.5 -21t-5 -22.5q0 -12 4 -21t11 -14t17 -7.5t21 -2.5q24 0 41 8t28.5 26.5t17 47.5t5.5 71q0 51 -9.5 78t-27 36.5
t-42.5 9.5q-31 0 -57 -8.5t-55 -38.5l-80 82q45 41 96.5 57t100.5 16q43 0 81.5 -9.5t69 -31.5t48 -60.5t17.5 -96.5v-284h-143v37q-13 -12 -25.5 -21.5t-27 -15.5t-31.5 -9t-39 -3zM233 502l-117 147l96 68l82 -177z" />
    <glyph glyph-name="aacute" unicode="&#xe1;" 
d="M189 -12q-76 0 -119 36.5t-43 96.5q0 38 16 70.5t50 57t87 38.5t127 14h11h18h17l4 -94h-17t-22.5 -0.5t-17.5 -0.5q-43 0 -69 -5.5t-39.5 -15t-18.5 -21t-5 -22.5q0 -12 4 -21t11 -14t17 -7.5t21 -2.5q24 0 41 8t28.5 26.5t17 47.5t5.5 71q0 51 -9.5 78t-27 36.5
t-42.5 9.5q-31 0 -57 -8.5t-55 -38.5l-80 82q45 41 96.5 57t100.5 16q43 0 81.5 -9.5t69 -31.5t48 -60.5t17.5 -96.5v-284h-143v37q-13 -12 -25.5 -21.5t-27 -15.5t-31.5 -9t-39 -3zM217 502l-61 38l82 177l96 -68z" />
    <glyph glyph-name="acircumflex" unicode="&#xe2;" 
d="M189 -12q-76 0 -119 36.5t-43 96.5q0 38 16 70.5t50 57t87 38.5t127 14h11h18h17l4 -94h-17t-22.5 -0.5t-17.5 -0.5q-43 0 -69 -5.5t-39.5 -15t-18.5 -21t-5 -22.5q0 -12 4 -21t11 -14t17 -7.5t21 -2.5q24 0 41 8t28.5 26.5t17 47.5t5.5 71q0 51 -9.5 78t-27 36.5
t-42.5 9.5q-31 0 -57 -8.5t-55 -38.5l-80 82q45 41 96.5 57t100.5 16q43 0 81.5 -9.5t69 -31.5t48 -60.5t17.5 -96.5v-284h-143v37q-13 -12 -25.5 -21.5t-27 -15.5t-31.5 -9t-39 -3zM127 490l-62 58l150 138h46l150 -138l-62 -58l-112 98z" />
    <glyph glyph-name="atilde" unicode="&#xe3;" 
d="M189 -12q-76 0 -119 36.5t-43 96.5q0 38 16 70.5t50 57t87 38.5t127 14h11h18h17l4 -94h-17t-22.5 -0.5t-17.5 -0.5q-43 0 -69 -5.5t-39.5 -15t-18.5 -21t-5 -22.5q0 -12 4 -21t11 -14t17 -7.5t21 -2.5q24 0 41 8t28.5 26.5t17 47.5t5.5 71q0 51 -9.5 78t-27 36.5
t-42.5 9.5q-31 0 -57 -8.5t-55 -38.5l-80 82q45 41 96.5 57t100.5 16q43 0 81.5 -9.5t69 -31.5t48 -60.5t17.5 -96.5v-284h-143v37q-13 -12 -25.5 -21.5t-27 -15.5t-31.5 -9t-39 -3zM339 662l70 -33q-19 -43 -45 -63t-57 -20q-34 0 -54 10t-33 23.5t-22.5 23.5t-22.5 10
q-16 0 -28.5 -14.5t-22.5 -35.5l-70 33q18 50 46.5 71t69.5 21q29 0 48 -9.5t32 -22.5t24.5 -22.5t24.5 -9.5q17 0 25 11t15 27z" />
    <glyph glyph-name="adieresis" unicode="&#xe4;" 
d="M189 -12q-76 0 -119 36.5t-43 96.5q0 38 16 70.5t50 57t87 38.5t127 14h11h18h17l4 -94h-17t-22.5 -0.5t-17.5 -0.5q-43 0 -69 -5.5t-39.5 -15t-18.5 -21t-5 -22.5q0 -12 4 -21t11 -14t17 -7.5t21 -2.5q24 0 41 8t28.5 26.5t17 47.5t5.5 71q0 51 -9.5 78t-27 36.5
t-42.5 9.5q-31 0 -57 -8.5t-55 -38.5l-80 82q45 41 96.5 57t100.5 16q43 0 81.5 -9.5t69 -31.5t48 -60.5t17.5 -96.5v-284h-143v37q-13 -12 -25.5 -21.5t-27 -15.5t-31.5 -9t-39 -3zM146 538q-32 0 -55 21.5t-23 51.5t23 52t55 22q36 0 57.5 -23.5t21.5 -50.5
q0 -30 -23.5 -51.5t-55.5 -21.5zM334 538q-32 0 -55 21t-23 52t23 52.5t55 21.5q37 0 57 -24t20 -50q0 -30 -22.5 -51.5t-54.5 -21.5z" />
    <glyph glyph-name="aring" unicode="&#xe5;" 
d="M189 -12q-76 0 -119 36.5t-43 96.5q0 38 16 70.5t50 57t87 38.5t127 14h11h18h17l4 -94h-17t-22.5 -0.5t-17.5 -0.5q-43 0 -69 -5.5t-39.5 -15t-18.5 -21t-5 -22.5q0 -12 4 -21t11 -14t17 -7.5t21 -2.5q24 0 41 8t28.5 26.5t17 47.5t5.5 71q0 51 -9.5 78t-27 36.5
t-42.5 9.5q-31 0 -57 -8.5t-55 -38.5l-80 82q45 41 96.5 57t100.5 16q43 0 81.5 -9.5t69 -31.5t48 -60.5t17.5 -96.5v-284h-143v37q-13 -12 -25.5 -21.5t-27 -15.5t-31.5 -9t-39 -3zM234 509q-30 0 -55.5 14.5t-40.5 39t-15 54.5q0 29 15 53t40.5 38.5t55.5 14.5
q31 0 57 -14.5t41.5 -38.5t15.5 -53q0 -30 -15.5 -54.5t-41 -39t-57.5 -14.5zM235 587q11 0 18.5 8.5t7.5 22.5t-7.5 23t-18.5 9q-10 0 -18 -9t-8 -23t8 -22.5t18 -8.5z" />
    <glyph glyph-name="ae" unicode="&#xe6;" 
d="M149 -13q-34 0 -69 15t-59 47.5t-24 83.5q0 35 14.5 65t41.5 52.5t62.5 35.5t77.5 14q0 25 -9 43t-21.5 28.5t-23.5 10.5q-16 0 -34.5 -13.5t-32.5 -35.5l-64 77q28 37 66 54.5t80 17.5q21 0 42.5 -8.5t38.5 -21t25 -24.5q10 13 23.5 25.5t30 20.5t33.5 8q52 0 85 -26.5
t49 -73.5t16 -109v-52l-192 -9v-32q0 -21 4.5 -38t12.5 -30t19.5 -20t26.5 -7q12 0 25 5t25.5 16.5t23.5 28.5l62 -75q-29 -34 -65.5 -53.5t-75.5 -19.5q-21 0 -40 6.5t-35.5 19.5t-30.5 30q-11 -16 -29 -29t-38.5 -20t-40.5 -7zM155 88q11 0 21 7t16 32.5t6 80.5
q-31 -1 -49 -14.5t-25.5 -30t-7.5 -29.5t4 -23.5t13 -16.5t22 -6zM305 305l97 2q0 25 -7.5 41.5t-18.5 25t-24 8.5q-11 0 -22 -10t-18 -27.5t-7 -39.5z" />
    <glyph glyph-name="ccedilla" unicode="&#xe7;" 
d="M274 -12q-52 0 -97 17.5t-78.5 50t-52 76.5t-18.5 97q0 52 18.5 98t52 80.5t78.5 54.5t98 20q70 0 120 -24.5t79 -68.5l-75 -85l-6 -7l-9 7q-1 8 -2 17t-11 22q-17 17 -39 23t-50 6q-22 0 -42 -9.5t-36 -27.5t-25 -45t-9 -63q0 -31 9.5 -55.5t25 -40.5t35 -24.5
t39.5 -8.5t39.5 5t39 17.5t37.5 35.5l76 -87q-39 -44 -93 -62.5t-104 -18.5v0zM270 -210q-34 0 -68.5 8.5t-72.5 39.5l45 81q31 -27 56.5 -36t51.5 -9q12 0 27.5 5.5t15.5 14.5q0 8 -12.5 11t-31.5 3h-62l13 92h104l-3 -20q22 -2 38.5 -13t25.5 -27t9 -35q0 -49 -38 -82
t-98 -33z" />
    <glyph glyph-name="egrave" unicode="&#xe8;" 
d="M270 -12q-50 0 -93.5 16.5t-76 47.5t-50.5 76.5t-18 102.5q0 58 17.5 104.5t48 79t71.5 50t89 17.5q41 0 78.5 -15t66.5 -44.5t46 -73t17 -99.5v-30t-1 -29h-297q2 -25 12 -42.5t25.5 -29t34 -17t37.5 -5.5q20 0 38 3t35 11.5t33 24.5l70 -68q-24 -28 -53 -46t-62 -26
t-68 -8zM169 295h163q0 20 -5 34.5t-15 24t-25 14t-34 4.5q-17 0 -31.5 -4.5t-25.5 -14t-18 -24t-9 -34.5zM251 502l-117 147l96 68l82 -177z" />
    <glyph glyph-name="eacute" unicode="&#xe9;" 
d="M270 -12q-50 0 -93.5 16.5t-76 47.5t-50.5 76.5t-18 102.5q0 58 17.5 104.5t48 79t71.5 50t89 17.5q41 0 78.5 -15t66.5 -44.5t46 -73t17 -99.5v-30t-1 -29h-297q2 -25 12 -42.5t25.5 -29t34 -17t37.5 -5.5q20 0 38 3t35 11.5t33 24.5l70 -68q-24 -28 -53 -46t-62 -26
t-68 -8zM169 295h163q0 20 -5 34.5t-15 24t-25 14t-34 4.5q-17 0 -31.5 -4.5t-25.5 -14t-18 -24t-9 -34.5zM235 502l-61 38l82 177l96 -68z" />
    <glyph glyph-name="ecircumflex" unicode="&#xea;" 
d="M270 -12q-50 0 -93.5 16.5t-76 47.5t-50.5 76.5t-18 102.5q0 58 17.5 104.5t48 79t71.5 50t89 17.5q41 0 78.5 -15t66.5 -44.5t46 -73t17 -99.5v-30t-1 -29h-297q2 -25 12 -42.5t25.5 -29t34 -17t37.5 -5.5q20 0 38 3t35 11.5t33 24.5l70 -68q-24 -28 -53 -46t-62 -26
t-68 -8zM169 295h163q0 20 -5 34.5t-15 24t-25 14t-34 4.5q-17 0 -31.5 -4.5t-25.5 -14t-18 -24t-9 -34.5zM145 490l-62 58l150 138h46l150 -138l-62 -58l-112 98z" />
    <glyph glyph-name="edieresis" unicode="&#xeb;" 
d="M270 -12q-50 0 -93.5 16.5t-76 47.5t-50.5 76.5t-18 102.5q0 58 17.5 104.5t48 79t71.5 50t89 17.5q41 0 78.5 -15t66.5 -44.5t46 -73t17 -99.5v-30t-1 -29h-297q2 -25 12 -42.5t25.5 -29t34 -17t37.5 -5.5q20 0 38 3t35 11.5t33 24.5l70 -68q-24 -28 -53 -46t-62 -26
t-68 -8zM169 295h163q0 20 -5 34.5t-15 24t-25 14t-34 4.5q-17 0 -31.5 -4.5t-25.5 -14t-18 -24t-9 -34.5zM164 538q-32 0 -55 21.5t-23 51.5t23 52t55 22q36 0 57.5 -23.5t21.5 -50.5q0 -30 -23.5 -51.5t-55.5 -21.5zM352 538q-32 0 -55 21t-23 52t23 52.5t55 21.5
q37 0 57 -24t20 -50q0 -30 -22.5 -51.5t-54.5 -21.5z" />
    <glyph glyph-name="igrave" unicode="&#xec;" 
d="M74 0v110h112v251h-107v110h249v-361h102v-110h-356zM243 502l-117 147l96 68l82 -177z" />
    <glyph glyph-name="iacute" unicode="&#xed;" 
d="M74 0v110h112v251h-107v110h249v-361h102v-110h-356zM249 502l-61 38l82 177l96 -68z" />
    <glyph glyph-name="icircumflex" unicode="&#xee;" 
d="M74 0v110h112v251h-107v110h249v-361h102v-110h-356zM137 490l-62 58l150 138h46l150 -138l-62 -58l-112 98z" />
    <glyph glyph-name="idieresis" unicode="&#xef;" 
d="M74 0v110h112v251h-107v110h249v-361h102v-110h-356zM149 538q-32 0 -55 21.5t-23 51.5t23 52t55 22q36 0 57.5 -23.5t21.5 -50.5q0 -30 -23.5 -51.5t-55.5 -21.5zM337 538q-32 0 -55 21t-23 52t23 52.5t55 21.5q37 0 57 -24t20 -50q0 -30 -22.5 -51.5t-54.5 -21.5z" />
    <glyph glyph-name="eth" unicode="&#xf0;" 
d="M255 -16q-51 0 -92 16t-70.5 46.5t-45.5 73.5t-16 98q0 54 14.5 100.5t40 81t60.5 53.5t77 19q18 0 33.5 -3t28 -9.5t21.5 -15.5q-10 20 -25 42.5t-32 34.5l-99 -28l-31 89l56 15q-13 10 -24.5 19t-25 17.5t-33.5 14.5l139 36q21 -13 37 -22.5t34 -25.5l117 35l32 -90
l-66 -22q20 -27 37 -61t29 -73.5t18.5 -83.5t6.5 -90q0 -59 -14.5 -108t-42.5 -84.5t-69 -55t-95 -19.5zM258 95q17 0 31 9t24.5 26t16.5 41.5t6 55.5q0 26 -4.5 46.5t-12 36.5t-17.5 26.5t-22 16t-24 5.5q-15 0 -29.5 -8.5t-26.5 -25t-19 -41t-7 -56.5q0 -29 7 -53.5
t19 -42t27 -27t31 -9.5z" />
    <glyph glyph-name="ntilde" unicode="&#xf1;" 
d="M43 0v471h143v-54q16 19 33 33.5t38.5 23t48.5 8.5q42 0 79 -20.5t60 -64t23 -114.5v-283h-142v282q0 32 -6 53.5t-19 32.5t-33 11q-16 0 -31 -6.5t-26.5 -18.5t-18 -29t-6.5 -38v-287h-143zM359 662l70 -33q-19 -43 -45 -63t-57 -20q-34 0 -54 10t-33 23.5t-22.5 23.5
t-22.5 10q-16 0 -28.5 -14.5t-22.5 -35.5l-70 33q18 50 46.5 71t69.5 21q29 0 48 -9.5t32 -22.5t24.5 -22.5t24.5 -9.5q17 0 25 11t15 27z" />
    <glyph glyph-name="ograve" unicode="&#xf2;" 
d="M249 -12q-63 0 -115 30.5t-83 86.5t-31 130q0 69 31 125t83 89t115 33t115.5 -33t84 -89t31.5 -125q0 -73 -31.5 -129t-84 -87t-115.5 -31zM249 99q27 0 47.5 17t32.5 47.5t12 71.5q0 44 -12 74t-32.5 46t-47.5 16q-25 0 -45.5 -16t-32.5 -46t-12 -74q0 -41 11.5 -71.5
t32 -47.5t46.5 -17zM244 502l-117 147l96 68l82 -177z" />
    <glyph glyph-name="oacute" unicode="&#xf3;" 
d="M249 -12q-63 0 -115 30.5t-83 86.5t-31 130q0 69 31 125t83 89t115 33t115.5 -33t84 -89t31.5 -125q0 -73 -31.5 -129t-84 -87t-115.5 -31zM249 99q27 0 47.5 17t32.5 47.5t12 71.5q0 44 -12 74t-32.5 46t-47.5 16q-25 0 -45.5 -16t-32.5 -46t-12 -74q0 -41 11.5 -71.5
t32 -47.5t46.5 -17zM228 502l-61 38l82 177l96 -68z" />
    <glyph glyph-name="ocircumflex" unicode="&#xf4;" 
d="M249 -12q-63 0 -115 30.5t-83 86.5t-31 130q0 69 31 125t83 89t115 33t115.5 -33t84 -89t31.5 -125q0 -73 -31.5 -129t-84 -87t-115.5 -31zM249 99q27 0 47.5 17t32.5 47.5t12 71.5q0 44 -12 74t-32.5 46t-47.5 16q-25 0 -45.5 -16t-32.5 -46t-12 -74q0 -41 11.5 -71.5
t32 -47.5t46.5 -17zM138 490l-62 58l150 138h46l150 -138l-62 -58l-112 98z" />
    <glyph glyph-name="otilde" unicode="&#xf5;" 
d="M249 -12q-63 0 -115 30.5t-83 86.5t-31 130q0 69 31 125t83 89t115 33t115.5 -33t84 -89t31.5 -125q0 -73 -31.5 -129t-84 -87t-115.5 -31zM249 99q27 0 47.5 17t32.5 47.5t12 71.5q0 44 -12 74t-32.5 46t-47.5 16q-25 0 -45.5 -16t-32.5 -46t-12 -74q0 -41 11.5 -71.5
t32 -47.5t46.5 -17zM350 662l70 -33q-19 -43 -45 -63t-57 -20q-34 0 -54 10t-33 23.5t-22.5 23.5t-22.5 10q-16 0 -28.5 -14.5t-22.5 -35.5l-70 33q18 50 46.5 71t69.5 21q29 0 48 -9.5t32 -22.5t24.5 -22.5t24.5 -9.5q17 0 25 11t15 27z" />
    <glyph glyph-name="odieresis" unicode="&#xf6;" 
d="M249 -12q-63 0 -115 30.5t-83 86.5t-31 130q0 69 31 125t83 89t115 33t115.5 -33t84 -89t31.5 -125q0 -73 -31.5 -129t-84 -87t-115.5 -31zM249 99q27 0 47.5 17t32.5 47.5t12 71.5q0 44 -12 74t-32.5 46t-47.5 16q-25 0 -45.5 -16t-32.5 -46t-12 -74q0 -41 11.5 -71.5
t32 -47.5t46.5 -17zM157 538q-32 0 -55 21.5t-23 51.5t23 52t55 22q36 0 57.5 -23.5t21.5 -50.5q0 -30 -23.5 -51.5t-55.5 -21.5zM345 538q-32 0 -55 21t-23 52t23 52.5t55 21.5q37 0 57 -24t20 -50q0 -30 -22.5 -51.5t-54.5 -21.5z" />
    <glyph glyph-name="divide" unicode="&#xf7;" 
d="M56 253v120h388v-120h-388zM255 412q-26 0 -45 19t-19 45q0 27 19.5 46.5t44.5 19.5q27 0 46 -20t19 -46t-19 -45t-46 -19zM255 84q-26 0 -45 19t-19 45q0 27 19.5 46.5t44.5 19.5q27 0 46 -20t19 -46t-19 -45t-46 -19z" />
    <glyph glyph-name="oslash" unicode="&#xf8;" 
d="M151 -71l-100 53l292 544l101 -55zM249 -12q-63 0 -115 30.5t-83 86.5t-31 130q0 69 31 125t83 89t115 33t115.5 -33t84 -89t31.5 -125q0 -73 -31.5 -129t-84 -87t-115.5 -31zM249 99q27 0 47.5 17t32.5 47.5t12 71.5q0 44 -12 74t-32.5 46t-47.5 16q-25 0 -45.5 -16
t-32.5 -46t-12 -74q0 -41 11.5 -71.5t32 -47.5t46.5 -17z" />
    <glyph glyph-name="ugrave" unicode="&#xf9;" 
d="M206 -12q-29 0 -54.5 7t-46 22t-35.5 38t-23 55.5t-8 74.5v286h142v-286q0 -23 3.5 -39t10.5 -26.5t16.5 -15t20.5 -4.5q19 0 33.5 6t24 18.5t14 30.5t4.5 42v274h143v-395q0 -24 1.5 -41.5t8.5 -34.5h-127q-5 9 -7 18t-2.5 18t-0.5 18q-10 -17 -23.5 -29.5t-29 -20.5
t-32 -12t-33.5 -4zM243 502l-117 147l96 68l82 -177z" />
    <glyph glyph-name="uacute" unicode="&#xfa;" 
d="M206 -12q-29 0 -54.5 7t-46 22t-35.5 38t-23 55.5t-8 74.5v286h142v-286q0 -23 3.5 -39t10.5 -26.5t16.5 -15t20.5 -4.5q19 0 33.5 6t24 18.5t14 30.5t4.5 42v274h143v-395q0 -24 1.5 -41.5t8.5 -34.5h-127q-5 9 -7 18t-2.5 18t-0.5 18q-10 -17 -23.5 -29.5t-29 -20.5
t-32 -12t-33.5 -4zM227 502l-61 38l82 177l96 -68z" />
    <glyph glyph-name="ucircumflex" unicode="&#xfb;" 
d="M206 -12q-29 0 -54.5 7t-46 22t-35.5 38t-23 55.5t-8 74.5v286h142v-286q0 -23 3.5 -39t10.5 -26.5t16.5 -15t20.5 -4.5q19 0 33.5 6t24 18.5t14 30.5t4.5 42v274h143v-395q0 -24 1.5 -41.5t8.5 -34.5h-127q-5 9 -7 18t-2.5 18t-0.5 18q-10 -17 -23.5 -29.5t-29 -20.5
t-32 -12t-33.5 -4zM137 490l-62 58l150 138h46l150 -138l-62 -58l-112 98z" />
    <glyph glyph-name="udieresis" unicode="&#xfc;" 
d="M206 -12q-29 0 -54.5 7t-46 22t-35.5 38t-23 55.5t-8 74.5v286h142v-286q0 -23 3.5 -39t10.5 -26.5t16.5 -15t20.5 -4.5q19 0 33.5 6t24 18.5t14 30.5t4.5 42v274h143v-395q0 -24 1.5 -41.5t8.5 -34.5h-127q-5 9 -7 18t-2.5 18t-0.5 18q-10 -17 -23.5 -29.5t-29 -20.5
t-32 -12t-33.5 -4zM156 538q-32 0 -55 21.5t-23 51.5t23 52t55 22q36 0 57.5 -23.5t21.5 -50.5q0 -30 -23.5 -51.5t-55.5 -21.5zM344 538q-32 0 -55 21t-23 52t23 52.5t55 21.5q37 0 57 -24t20 -50q0 -30 -22.5 -51.5t-54.5 -21.5z" />
    <glyph glyph-name="yacute" unicode="&#xfd;" 
d="M125 -177q-34 0 -60 12t-55 34l45 97l3 8l10 -4q4 -7 8 -15t17 -18q6 -4 13.5 -6t15.5 -2q16 0 28 9.5t23 29.5t23 53l110 296q15 41 23 77.5t8 76.5h127q-1 -45 -19.5 -96.5t-35.5 -96.5l-116 -311q-30 -80 -71 -112t-97 -32v0zM21 471h139l129 -338l-77 -142zM237 502
l-61 38l82 177l96 -68z" />
    <glyph glyph-name="thorn" unicode="&#xfe;" 
d="M39 675h137h9v-11q-5 -6 -6.5 -13t-1.5 -24v-204q18 21 37.5 34t41.5 19t46 6q38 0 70.5 -16.5t57 -48.5t38.5 -78.5t14 -107.5q0 -62 -14.5 -108t-40 -76t-58.5 -44.5t-69 -14.5q-23 0 -45.5 4t-41.5 12.5t-31 21.5v-193h-142zM256 92q21 0 37 8t27.5 25t17.5 46t6 71
q0 41 -10.5 71t-29.5 46t-45 16q-21 0 -36 -8.5t-24 -26t-13 -44.5t-4 -64q0 -29 2.5 -51.5t8 -39t14 -27.5t21 -16.5t28.5 -5.5v0z" />
    <glyph glyph-name="ydieresis" unicode="&#xff;" 
d="M125 -177q-34 0 -60 12t-55 34l45 97l3 8l10 -4q4 -7 8 -15t17 -18q6 -4 13.5 -6t15.5 -2q16 0 28 9.5t23 29.5t23 53l110 296q15 41 23 77.5t8 76.5h127q-1 -45 -19.5 -96.5t-35.5 -96.5l-116 -311q-30 -80 -71 -112t-97 -32v0zM21 471h139l129 -338l-77 -142zM166 538
q-32 0 -55 21.5t-23 51.5t23 52t55 22q36 0 57.5 -23.5t21.5 -50.5q0 -30 -23.5 -51.5t-55.5 -21.5zM354 538q-32 0 -55 21t-23 52t23 52.5t55 21.5q37 0 57 -24t20 -50q0 -30 -22.5 -51.5t-54.5 -21.5z" />
    <glyph glyph-name="Amacron" unicode="&#x100;" 
d="M373 121h-255l17 98h218zM251 381l-101 -381h-140l198 623h85l198 -623h-142zM101 719v89h297v-89h-297z" />
    <glyph glyph-name="amacron" unicode="&#x101;" 
d="M189 -12q-76 0 -119 36.5t-43 96.5q0 38 16 70.5t50 57t87 38.5t127 14h11h18h17l4 -94h-17t-22.5 -0.5t-17.5 -0.5q-43 0 -69 -5.5t-39.5 -15t-18.5 -21t-5 -22.5q0 -12 4 -21t11 -14t17 -7.5t21 -2.5q24 0 41 8t28.5 26.5t17 47.5t5.5 71q0 51 -9.5 78t-27 36.5
t-42.5 9.5q-31 0 -57 -8.5t-55 -38.5l-80 82q45 41 96.5 57t100.5 16q43 0 81.5 -9.5t69 -31.5t48 -60.5t17.5 -96.5v-284h-143v37q-13 -12 -25.5 -21.5t-27 -15.5t-31.5 -9t-39 -3zM90 563v89h297v-89h-297z" />
    <glyph glyph-name="Abreve" unicode="&#x102;" 
d="M373 121h-255l17 98h218zM251 381l-101 -381h-140l198 623h85l198 -623h-142zM326 812l82 -37q-25 -55 -65 -85t-92 -30t-92 30t-65 85l82 37q15 -37 32.5 -55.5t42.5 -18.5q17 0 31 8t25.5 24.5t18.5 41.5z" />
    <glyph glyph-name="abreve" unicode="&#x103;" 
d="M189 -12q-76 0 -119 36.5t-43 96.5q0 38 16 70.5t50 57t87 38.5t127 14h11h18h17l4 -94h-17t-22.5 -0.5t-17.5 -0.5q-43 0 -69 -5.5t-39.5 -15t-18.5 -21t-5 -22.5q0 -12 4 -21t11 -14t17 -7.5t21 -2.5q24 0 41 8t28.5 26.5t17 47.5t5.5 71q0 51 -9.5 78t-27 36.5
t-42.5 9.5q-31 0 -57 -8.5t-55 -38.5l-80 82q45 41 96.5 57t100.5 16q43 0 81.5 -9.5t69 -31.5t48 -60.5t17.5 -96.5v-284h-143v37q-13 -12 -25.5 -21.5t-27 -15.5t-31.5 -9t-39 -3zM315 677l82 -37q-25 -55 -65 -85t-92 -30t-92 30t-65 85l82 37q15 -37 32.5 -55.5
t42.5 -18.5q17 0 31 8t25.5 24.5t18.5 41.5z" />
    <glyph glyph-name="Aogonek" unicode="&#x104;" 
d="M373 121h-255l17 98h218zM251 381l-101 -381h-140l198 623h85l198 -623h-142zM468 -131l-64 -114q-53 16 -85 37t-46.5 44t-14.5 45q0 24 17 50.5t50.5 53t81.5 49.5l49 -34q-19 -17 -32 -31.5t-19.5 -25.5t-6.5 -21q0 -17 18 -30t52 -23z" />
    <glyph glyph-name="aogonek" unicode="&#x105;" 
d="M189 -12q-76 0 -119 36.5t-43 96.5q0 38 16 70.5t50 57t87 38.5t127 14h11h18h17l4 -94h-17t-22.5 -0.5t-17.5 -0.5q-43 0 -69 -5.5t-39.5 -15t-18.5 -21t-5 -22.5q0 -12 4 -21t11 -14t17 -7.5t21 -2.5q24 0 41 8t28.5 26.5t17 47.5t5.5 71q0 51 -9.5 78t-27 36.5
t-42.5 9.5q-31 0 -57 -8.5t-55 -38.5l-80 82q45 41 96.5 57t100.5 16q43 0 81.5 -9.5t69 -31.5t48 -60.5t17.5 -96.5v-284h-143v37q-13 -12 -25.5 -21.5t-27 -15.5t-31.5 -9t-39 -3zM401 -131l-64 -114q-53 16 -85 37t-46.5 44t-14.5 45q0 24 17 50.5t50.5 53t81.5 49.5
l49 -34q-19 -17 -32 -31.5t-19.5 -25.5t-6.5 -21q0 -17 18 -30t52 -23z" />
    <glyph glyph-name="Cacute" unicode="&#x106;" 
d="M275 -12q-51 0 -96.5 19t-80.5 58t-54.5 99.5t-19.5 143.5q0 73 15.5 128t42 93t60 61.5t70 34t72.5 10.5q73 0 124 -31t79 -90l-78 -70l-7 -6l-7 8q0 8 -2 16t-11 21q-19 22 -41 29.5t-45 7.5q-22 0 -45 -12.5t-42.5 -38t-31.5 -64.5t-12 -92q0 -51 8.5 -90t24 -65.5
t37 -40t47.5 -13.5q24 0 42 5t33 19t29 39l96 -73q-38 -61 -89 -83.5t-118 -22.5v0zM193 649l-32 62l170 99l47 -96z" />
    <glyph glyph-name="cacute" unicode="&#x107;" 
d="M274 -12q-52 0 -97 17.5t-78.5 50t-52 76.5t-18.5 97q0 52 18.5 98t52 80.5t78.5 54.5t98 20q70 0 120 -24.5t79 -68.5l-75 -85l-6 -7l-9 7q-1 8 -2 17t-11 22q-17 17 -39 23t-50 6q-22 0 -42 -9.5t-36 -27.5t-25 -45t-9 -63q0 -31 9.5 -55.5t25 -40.5t35 -24.5
t39.5 -8.5t39.5 5t39 17.5t37.5 35.5l76 -87q-39 -44 -93 -62.5t-104 -18.5v0zM247 502l-61 38l82 177l96 -68z" />
    <glyph glyph-name="Ccircumflex" unicode="&#x108;" 
d="M275 -12q-51 0 -96.5 19t-80.5 58t-54.5 99.5t-19.5 143.5q0 73 15.5 128t42 93t60 61.5t70 34t72.5 10.5q73 0 124 -31t79 -90l-78 -70l-7 -6l-7 8q0 8 -2 16t-11 21q-19 22 -41 29.5t-45 7.5q-22 0 -45 -12.5t-42.5 -38t-31.5 -64.5t-12 -92q0 -51 8.5 -90t24 -65.5
t37 -40t47.5 -13.5q24 0 42 5t33 19t29 39l96 -73q-38 -61 -89 -83.5t-118 -22.5v0zM120 645l-38 66l173 95h37l162 -91l-43 -71l-138 64z" />
    <glyph glyph-name="ccircumflex" unicode="&#x109;" 
d="M274 -12q-52 0 -97 17.5t-78.5 50t-52 76.5t-18.5 97q0 52 18.5 98t52 80.5t78.5 54.5t98 20q70 0 120 -24.5t79 -68.5l-75 -85l-6 -7l-9 7q-1 8 -2 17t-11 22q-17 17 -39 23t-50 6q-22 0 -42 -9.5t-36 -27.5t-25 -45t-9 -63q0 -31 9.5 -55.5t25 -40.5t35 -24.5
t39.5 -8.5t39.5 5t39 17.5t37.5 35.5l76 -87q-39 -44 -93 -62.5t-104 -18.5v0zM157 490l-62 58l150 138h46l150 -138l-62 -58l-112 98z" />
    <glyph glyph-name="Cdotaccent" unicode="&#x10a;" 
d="M275 -12q-51 0 -96.5 19t-80.5 58t-54.5 99.5t-19.5 143.5q0 73 15.5 128t42 93t60 61.5t70 34t72.5 10.5q73 0 124 -31t79 -90l-78 -70l-7 -6l-7 8q0 8 -2 16t-11 21q-19 22 -41 29.5t-45 7.5q-22 0 -45 -12.5t-42.5 -38t-31.5 -64.5t-12 -92q0 -51 8.5 -90t24 -65.5
t37 -40t47.5 -13.5q24 0 42 5t33 19t29 39l96 -73q-38 -61 -89 -83.5t-118 -22.5v0zM273 675q-35 0 -59.5 23.5t-24.5 55.5q0 35 23.5 57t60.5 22q33 0 58.5 -23.5t25.5 -55.5t-25.5 -55.5t-58.5 -23.5z" />
    <glyph glyph-name="cdotaccent" unicode="&#x10b;" 
d="M274 -12q-52 0 -97 17.5t-78.5 50t-52 76.5t-18.5 97q0 52 18.5 98t52 80.5t78.5 54.5t98 20q70 0 120 -24.5t79 -68.5l-75 -85l-6 -7l-9 7q-1 8 -2 17t-11 22q-17 17 -39 23t-50 6q-22 0 -42 -9.5t-36 -27.5t-25 -45t-9 -63q0 -31 9.5 -55.5t25 -40.5t35 -24.5
t39.5 -8.5t39.5 5t39 17.5t37.5 35.5l76 -87q-39 -44 -93 -62.5t-104 -18.5v0zM270 535q-35 0 -59.5 23.5t-24.5 55.5q0 35 23.5 57t60.5 22q33 0 58.5 -23.5t25.5 -55.5t-25.5 -55.5t-58.5 -23.5z" />
    <glyph glyph-name="Ccaron" unicode="&#x10c;" 
d="M275 -12q-51 0 -96.5 19t-80.5 58t-54.5 99.5t-19.5 143.5q0 73 15.5 128t42 93t60 61.5t70 34t72.5 10.5q73 0 124 -31t79 -90l-78 -70l-7 -6l-7 8q0 8 -2 16t-11 21q-19 22 -41 29.5t-45 7.5q-22 0 -45 -12.5t-42.5 -38t-31.5 -64.5t-12 -92q0 -51 8.5 -90t24 -65.5
t37 -40t47.5 -13.5q24 0 42 5t33 19t29 39l96 -73q-38 -61 -89 -83.5t-118 -22.5v0zM423 825l38 -66l-173 -95h-37l-162 91l43 71l138 -64z" />
    <glyph glyph-name="ccaron" unicode="&#x10d;" 
d="M274 -12q-52 0 -97 17.5t-78.5 50t-52 76.5t-18.5 97q0 52 18.5 98t52 80.5t78.5 54.5t98 20q70 0 120 -24.5t79 -68.5l-75 -85l-6 -7l-9 7q-1 8 -2 17t-11 22q-17 17 -39 23t-50 6q-22 0 -42 -9.5t-36 -27.5t-25 -45t-9 -63q0 -31 9.5 -55.5t25 -40.5t35 -24.5
t39.5 -8.5t39.5 5t39 17.5t37.5 35.5l76 -87q-39 -44 -93 -62.5t-104 -18.5v0zM154 714l110 -98l112 98l62 -58l-150 -138h-46l-150 138z" />
    <glyph glyph-name="Dcaron" unicode="&#x10e;" 
d="M34 0v623h171q56 0 94 -10t65 -29.5t48 -47.5t36.5 -63.5t24 -76.5t8.5 -89q0 -71 -17 -127.5t-52 -96.5t-89.5 -61.5t-129.5 -21.5h-159zM173 111h18q59 0 92.5 26t47 70.5t13.5 99.5q0 61 -11.5 107t-42.5 72.5t-89 26.5h-28v-402zM373 825l38 -66l-173 -95h-37
l-162 91l43 71l138 -64z" />
    <glyph glyph-name="dcaron" unicode="&#x10f;" 
d="M170 -11q-32 0 -59.5 13t-48 42t-32 76t-11.5 115q0 65 10 112t29 77t47 44.5t63 14.5q26 0 47.5 -9t32.5 -38v236h123h9v-11q-5 -6 -7 -13t-1 -24l-1 -563q0 -16 1 -30.5t7 -30.5h-119q-4 9 -6 14t-2.5 10.5t-0.5 15.5q-9 -18 -22.5 -29.5t-28.5 -16.5t-30 -5v0zM194 94
q18 0 30 15t18.5 46t6.5 79q0 54 -5.5 86t-17.5 46.5t-30 14.5q-13 0 -23.5 -8.5t-18 -26t-11.5 -45t-4 -65.5q0 -36 5 -63t13.5 -44.5t18 -26t18.5 -8.5v0zM433 668q31 0 48 -18t17 -52q0 -27 -6 -50t-19 -47.5t-33 -56.5l-65 42q12 15 20 26.5t11.5 21.5t3.5 19t-8 15.5
t-16.5 17.5t-8.5 32q0 22 17 36t39 14z" />
    <glyph glyph-name="Dcroat" unicode="&#x110;" 
d="M40 1v272h-33v111h33v239h170q45 0 82 -8t65.5 -22t49.5 -31.5t34 -35.5q18 -25 29.5 -60.5t16.5 -76t5 -83.5q0 -69 -14.5 -125.5t-48 -96.5t-90 -61.5t-140.5 -21.5h-159zM174 114h23q56 0 90.5 21t51 63t16.5 105q0 64 -14.5 108.5t-47.5 67.5t-87 23h-32v-118h86
v-111h-86v-159z" />
    <glyph glyph-name="dcroat" unicode="&#x111;" 
d="M220 -12q-41 0 -76.5 15.5t-62 46.5t-41.5 77.5t-15 108.5q0 59 13.5 105t39 77.5t61.5 47.5t80 16q18 0 36.5 -3t34.5 -11t27 -25v232h142h9v-11q-5 -6 -7 -13t-1 -24l-2 -571q0 -14 2 -28t9 -28h-138l-7 14t-2 9v14q-12 -18 -28 -29t-35 -15.5t-39 -4.5v0zM245 98
q17 0 30.5 7t23 22.5t14.5 42.5t5 66q0 52 -8 82.5t-24.5 43.5t-41.5 13q-19 0 -34.5 -10t-25.5 -28.5t-15.5 -45t-5.5 -59.5q0 -43 13 -73t32 -45.5t37 -15.5v0zM219 527v81h279v-81h-279z" />
    <glyph glyph-name="Emacron" unicode="&#x112;" 
d="M46 0v623h421v-112h-282v-131h231v-112h-231v-156h280v-112h-419zM120 719v89h297v-89h-297z" />
    <glyph glyph-name="emacron" unicode="&#x113;" 
d="M270 -12q-50 0 -93.5 16.5t-76 47.5t-50.5 76.5t-18 102.5q0 58 17.5 104.5t48 79t71.5 50t89 17.5q41 0 78.5 -15t66.5 -44.5t46 -73t17 -99.5v-30t-1 -29h-297q2 -25 12 -42.5t25.5 -29t34 -17t37.5 -5.5q20 0 38 3t35 11.5t33 24.5l70 -68q-24 -28 -53 -46t-62 -26
t-68 -8zM169 295h163q0 20 -5 34.5t-15 24t-25 14t-34 4.5q-17 0 -31.5 -4.5t-25.5 -14t-18 -24t-9 -34.5zM108 563v89h297v-89h-297z" />
    <glyph glyph-name="Ebreve" unicode="&#x114;" 
d="M46 0v623h421v-112h-282v-131h231v-112h-231v-156h280v-112h-419zM345 812l82 -37q-25 -55 -65 -85t-92 -30t-92 30t-65 85l82 37q15 -37 32.5 -55.5t42.5 -18.5q17 0 31 8t25.5 24.5t18.5 41.5z" />
    <glyph glyph-name="ebreve" unicode="&#x115;" 
d="M270 -12q-50 0 -93.5 16.5t-76 47.5t-50.5 76.5t-18 102.5q0 58 17.5 104.5t48 79t71.5 50t89 17.5q41 0 78.5 -15t66.5 -44.5t46 -73t17 -99.5v-30t-1 -29h-297q2 -25 12 -42.5t25.5 -29t34 -17t37.5 -5.5q20 0 38 3t35 11.5t33 24.5l70 -68q-24 -28 -53 -46t-62 -26
t-68 -8zM169 295h163q0 20 -5 34.5t-15 24t-25 14t-34 4.5q-17 0 -31.5 -4.5t-25.5 -14t-18 -24t-9 -34.5zM333 677l82 -37q-25 -55 -65 -85t-92 -30t-92 30t-65 85l82 37q15 -37 32.5 -55.5t42.5 -18.5q17 0 31 8t25.5 24.5t18.5 41.5z" />
    <glyph glyph-name="Edotaccent" unicode="&#x116;" 
d="M46 0v623h421v-112h-282v-131h231v-112h-231v-156h280v-112h-419zM273 675q-35 0 -59.5 23.5t-24.5 55.5q0 35 23.5 57t60.5 22q33 0 58.5 -23.5t25.5 -55.5t-25.5 -55.5t-58.5 -23.5z" />
    <glyph glyph-name="edotaccent" unicode="&#x117;" 
d="M270 -12q-50 0 -93.5 16.5t-76 47.5t-50.5 76.5t-18 102.5q0 58 17.5 104.5t48 79t71.5 50t89 17.5q41 0 78.5 -15t66.5 -44.5t46 -73t17 -99.5v-30t-1 -29h-297q2 -25 12 -42.5t25.5 -29t34 -17t37.5 -5.5q20 0 38 3t35 11.5t33 24.5l70 -68q-24 -28 -53 -46t-62 -26
t-68 -8zM169 295h163q0 20 -5 34.5t-15 24t-25 14t-34 4.5q-17 0 -31.5 -4.5t-25.5 -14t-18 -24t-9 -34.5zM258 535q-35 0 -59.5 23.5t-24.5 55.5q0 35 23.5 57t60.5 22q33 0 58.5 -23.5t25.5 -55.5t-25.5 -55.5t-58.5 -23.5z" />
    <glyph glyph-name="Eogonek" unicode="&#x118;" 
d="M46 0v623h421v-112h-282v-131h231v-112h-231v-156h280v-112h-419zM401 -131l-64 -114q-53 16 -85 37t-46.5 44t-14.5 45q0 24 17 50.5t50.5 53t81.5 49.5l49 -34q-19 -17 -32 -31.5t-19.5 -25.5t-6.5 -21q0 -17 18 -30t52 -23z" />
    <glyph glyph-name="eogonek" unicode="&#x119;" 
d="M270 -12q-50 0 -93.5 16.5t-76 47.5t-50.5 76.5t-18 102.5q0 58 17.5 104.5t48 79t71.5 50t89 17.5q41 0 78.5 -15t66.5 -44.5t46 -73t17 -99.5v-30t-1 -29h-297q2 -25 12 -42.5t25.5 -29t34 -17t37.5 -5.5q20 0 38 3t35 11.5t33 24.5l70 -68q-24 -28 -53 -46t-62 -26
t-68 -8zM169 295h163q0 20 -5 34.5t-15 24t-25 14t-34 4.5q-17 0 -31.5 -4.5t-25.5 -14t-18 -24t-9 -34.5zM401 -115l-64 -114q-53 16 -85 37t-46.5 44t-14.5 45q0 24 17 50.5t50.5 53t81.5 49.5l49 -34q-19 -17 -32 -31.5t-19.5 -25.5t-6.5 -21q0 -17 18 -30t52 -23z" />
    <glyph glyph-name="Ecaron" unicode="&#x11a;" 
d="M46 0v623h421v-112h-282v-131h231v-112h-231v-156h280v-112h-419zM423 825l38 -66l-173 -95h-37l-162 91l43 71l138 -64z" />
    <glyph glyph-name="ecaron" unicode="&#x11b;" 
d="M270 -12q-50 0 -93.5 16.5t-76 47.5t-50.5 76.5t-18 102.5q0 58 17.5 104.5t48 79t71.5 50t89 17.5q41 0 78.5 -15t66.5 -44.5t46 -73t17 -99.5v-30t-1 -29h-297q2 -25 12 -42.5t25.5 -29t34 -17t37.5 -5.5q20 0 38 3t35 11.5t33 24.5l70 -68q-24 -28 -53 -46t-62 -26
t-68 -8zM169 295h163q0 20 -5 34.5t-15 24t-25 14t-34 4.5q-17 0 -31.5 -4.5t-25.5 -14t-18 -24t-9 -34.5zM142 714l110 -98l112 98l62 -58l-150 -138h-46l-150 138z" />
    <glyph glyph-name="Gcircumflex" unicode="&#x11c;" 
d="M276 -12q-81 0 -139 40.5t-88.5 113.5t-30.5 170q0 79 17.5 134.5t46.5 92.5t63.5 58t68.5 29.5t62 8.5q43 0 82 -12.5t70.5 -37t51.5 -61.5l-77 -83l-6 -7l-9 8q-1 8 -2.5 16t-11.5 21q-9 11 -21 20t-29.5 15t-42.5 6q-19 0 -37 -7t-33.5 -22.5t-27.5 -39t-18.5 -56.5
t-6.5 -76q0 -57 9 -98t24.5 -68t37.5 -40t47 -13q11 0 21 1.5t20 4t19 8t19 12.5v94h-96v115h222v-282q-45 -37 -97.5 -51t-107.5 -14v0zM117 645l-38 66l173 95h37l162 -91l-43 -71l-138 64z" />
    <glyph glyph-name="gcircumflex" unicode="&#x11d;" 
d="M233 -183q-50 0 -89.5 9.5t-66.5 26.5t-41 40t-14 49q0 22 12 42t33 36.5t46 26.5l65 -23q-11 -9 -24.5 -17.5t-22.5 -18t-9 -22.5q0 -11 10 -18.5t27.5 -12t40 -6.5t48.5 -2q33 0 57.5 5t38 15t13.5 23q0 11 -8 17t-26 8.5t-47 2.5q-31 0 -63.5 2.5t-62.5 9.5t-54.5 19
t-38.5 30.5t-14 45.5q0 37 23 61.5t53 42.5l63 -31q-9 -8 -17.5 -12.5t-14 -9t-5.5 -14.5q0 -9 18 -16t56 -10.5t98 -3.5q39 0 67.5 -10.5t47 -29t27.5 -41.5t9 -49q0 -31 -14.5 -60.5t-44 -53t-73.5 -37.5t-103 -14zM232 158q-49 0 -90.5 21t-66 57t-24.5 82t24.5 83t66 59
t90.5 22q50 0 91 -22t65.5 -59t24.5 -83t-24.5 -82t-65.5 -57t-91 -21zM231 255q18 0 32 7.5t22.5 22t8.5 33.5t-8.5 32t-23 20.5t-31.5 7.5q-14 0 -28 -8t-23.5 -21.5t-9.5 -30.5t8.5 -31.5t22.5 -23t30 -8.5zM384 378l-53 67q28 18 67 29t80 8l12 -90q-28 7 -57 2.5
t-49 -16.5zM122 490l-62 58l150 138h46l150 -138l-62 -58l-112 98z" />
    <glyph glyph-name="Gbreve" unicode="&#x11e;" 
d="M276 -12q-81 0 -139 40.5t-88.5 113.5t-30.5 170q0 79 17.5 134.5t46.5 92.5t63.5 58t68.5 29.5t62 8.5q43 0 82 -12.5t70.5 -37t51.5 -61.5l-77 -83l-6 -7l-9 8q-1 8 -2.5 16t-11.5 21q-9 11 -21 20t-29.5 15t-42.5 6q-19 0 -37 -7t-33.5 -22.5t-27.5 -39t-18.5 -56.5
t-6.5 -76q0 -57 9 -98t24.5 -68t37.5 -40t47 -13q11 0 21 1.5t20 4t19 8t19 12.5v94h-96v115h222v-282q-45 -37 -97.5 -51t-107.5 -14v0zM342 812l82 -37q-25 -55 -65 -85t-92 -30t-92 30t-65 85l82 37q15 -37 32.5 -55.5t42.5 -18.5q17 0 31 8t25.5 24.5t18.5 41.5z" />
    <glyph glyph-name="gbreve" unicode="&#x11f;" 
d="M233 -183q-50 0 -89.5 9.5t-66.5 26.5t-41 40t-14 49q0 22 12 42t33 36.5t46 26.5l65 -23q-11 -9 -24.5 -17.5t-22.5 -18t-9 -22.5q0 -11 10 -18.5t27.5 -12t40 -6.5t48.5 -2q33 0 57.5 5t38 15t13.5 23q0 11 -8 17t-26 8.5t-47 2.5q-31 0 -63.5 2.5t-62.5 9.5t-54.5 19
t-38.5 30.5t-14 45.5q0 37 23 61.5t53 42.5l63 -31q-9 -8 -17.5 -12.5t-14 -9t-5.5 -14.5q0 -9 18 -16t56 -10.5t98 -3.5q39 0 67.5 -10.5t47 -29t27.5 -41.5t9 -49q0 -31 -14.5 -60.5t-44 -53t-73.5 -37.5t-103 -14zM232 158q-49 0 -90.5 21t-66 57t-24.5 82t24.5 83t66 59
t90.5 22q50 0 91 -22t65.5 -59t24.5 -83t-24.5 -82t-65.5 -57t-91 -21zM231 255q18 0 32 7.5t22.5 22t8.5 33.5t-8.5 32t-23 20.5t-31.5 7.5q-14 0 -28 -8t-23.5 -21.5t-9.5 -30.5t8.5 -31.5t22.5 -23t30 -8.5zM384 378l-53 67q28 18 67 29t80 8l12 -90q-28 7 -57 2.5
t-49 -16.5zM258 514q-36 0 -81 19.5t-94 67.5l78 93q23 -41 51 -56t52 -15q23 0 51 14t53 57l61 -92q-24 -29 -53.5 -48.5t-59.5 -29.5t-58 -10z" />
    <glyph glyph-name="Gdotaccent" unicode="&#x120;" 
d="M276 -12q-81 0 -139 40.5t-88.5 113.5t-30.5 170q0 79 17.5 134.5t46.5 92.5t63.5 58t68.5 29.5t62 8.5q43 0 82 -12.5t70.5 -37t51.5 -61.5l-77 -83l-6 -7l-9 8q-1 8 -2.5 16t-11.5 21q-9 11 -21 20t-29.5 15t-42.5 6q-19 0 -37 -7t-33.5 -22.5t-27.5 -39t-18.5 -56.5
t-6.5 -76q0 -57 9 -98t24.5 -68t37.5 -40t47 -13q11 0 21 1.5t20 4t19 8t19 12.5v94h-96v115h222v-282q-45 -37 -97.5 -51t-107.5 -14v0zM270 675q-35 0 -59.5 23.5t-24.5 55.5q0 35 23.5 57t60.5 22q33 0 58.5 -23.5t25.5 -55.5t-25.5 -55.5t-58.5 -23.5z" />
    <glyph glyph-name="gdotaccent" unicode="&#x121;" 
d="M233 -183q-50 0 -89.5 9.5t-66.5 26.5t-41 40t-14 49q0 22 12 42t33 36.5t46 26.5l65 -23q-11 -9 -24.5 -17.5t-22.5 -18t-9 -22.5q0 -11 10 -18.5t27.5 -12t40 -6.5t48.5 -2q33 0 57.5 5t38 15t13.5 23q0 11 -8 17t-26 8.5t-47 2.5q-31 0 -63.5 2.5t-62.5 9.5t-54.5 19
t-38.5 30.5t-14 45.5q0 37 23 61.5t53 42.5l63 -31q-9 -8 -17.5 -12.5t-14 -9t-5.5 -14.5q0 -9 18 -16t56 -10.5t98 -3.5q39 0 67.5 -10.5t47 -29t27.5 -41.5t9 -49q0 -31 -14.5 -60.5t-44 -53t-73.5 -37.5t-103 -14zM232 158q-49 0 -90.5 21t-66 57t-24.5 82t24.5 83t66 59
t90.5 22q50 0 91 -22t65.5 -59t24.5 -83t-24.5 -82t-65.5 -57t-91 -21zM231 255q18 0 32 7.5t22.5 22t8.5 33.5t-8.5 32t-23 20.5t-31.5 7.5q-14 0 -28 -8t-23.5 -21.5t-9.5 -30.5t8.5 -31.5t22.5 -23t30 -8.5zM384 378l-53 67q28 18 67 29t80 8l12 -90q-28 7 -57 2.5
t-49 -16.5zM235 535q-35 0 -59.5 23.5t-24.5 55.5q0 35 23.5 57t60.5 22q33 0 58.5 -23.5t25.5 -55.5t-25.5 -55.5t-58.5 -23.5z" />
    <glyph glyph-name="uni0122" unicode="&#x122;" 
d="M276 -12q-81 0 -139 40.5t-88.5 113.5t-30.5 170q0 79 17.5 134.5t46.5 92.5t63.5 58t68.5 29.5t62 8.5q43 0 82 -12.5t70.5 -37t51.5 -61.5l-77 -83l-6 -7l-9 8q-1 8 -2.5 16t-11.5 21q-9 11 -21 20t-29.5 15t-42.5 6q-19 0 -37 -7t-33.5 -22.5t-27.5 -39t-18.5 -56.5
t-6.5 -76q0 -57 9 -98t24.5 -68t37.5 -40t47 -13q11 0 21 1.5t20 4t19 8t19 12.5v94h-96v115h222v-282q-45 -37 -97.5 -51t-107.5 -14v0zM253 -309l-72 59q25 23 36 43.5t11 34.5t-9.5 26.5t-19 28.5t-9.5 40q0 35 24.5 52t55.5 17q42 0 64 -28t22 -73q0 -31 -11 -63.5
t-34 -66t-58 -70.5z" />
    <glyph glyph-name="uni0123" unicode="&#x123;" 
d="M233 -183q-50 0 -89.5 9.5t-66.5 26.5t-41 40t-14 49q0 22 12 42t33 36.5t46 26.5l65 -23q-11 -9 -24.5 -17.5t-22.5 -18t-9 -22.5q0 -11 10 -18.5t27.5 -12t40 -6.5t48.5 -2q33 0 57.5 5t38 15t13.5 23q0 11 -8 17t-26 8.5t-47 2.5q-31 0 -63.5 2.5t-62.5 9.5t-54.5 19
t-38.5 30.5t-14 45.5q0 37 23 61.5t53 42.5l63 -31q-9 -8 -17.5 -12.5t-14 -9t-5.5 -14.5q0 -9 18 -16t56 -10.5t98 -3.5q39 0 67.5 -10.5t47 -29t27.5 -41.5t9 -49q0 -31 -14.5 -60.5t-44 -53t-73.5 -37.5t-103 -14zM232 158q-49 0 -90.5 21t-66 57t-24.5 82t24.5 83t66 59
t90.5 22q50 0 91 -22t65.5 -59t24.5 -83t-24.5 -82t-65.5 -57t-91 -21zM231 255q18 0 32 7.5t22.5 22t8.5 33.5t-8.5 32t-23 20.5t-31.5 7.5q-14 0 -28 -8t-23.5 -21.5t-9.5 -30.5t8.5 -31.5t22.5 -23t30 -8.5zM384 378l-53 67q28 18 67 29t80 8l12 -90q-28 7 -57 2.5
t-49 -16.5zM248 825l80 -65q-28 -26 -40.5 -48.5t-12.5 -38.5q0 -12 6.5 -22.5t15 -22t15 -26t6.5 -35.5q0 -38 -27 -57t-62 -19q-46 0 -71 31.5t-25 80.5q0 26 7 52.5t21 54t35.5 56.5t51.5 59z" />
    <glyph glyph-name="Hcircumflex" unicode="&#x124;" 
d="M30 623h141h9v-11q-5 -6 -6.5 -13t-1.5 -24v-196h157v244h141h9v-11q-5 -6 -6.5 -13t-1.5 -24v-575h-142v269h-157v-269h-142v623zM100 645l-38 66l173 95h37l162 -91l-43 -71l-138 64z" />
    <glyph glyph-name="hcircumflex" unicode="&#x125;" 
d="M43 675h142h9v-11q-5 -6 -6.5 -13t-1.5 -24v-204q16 22 37 34.5t44.5 18.5t45.5 6q48 0 82.5 -20.5t53.5 -64.5t19 -114v-283h-142v282q0 36 -6 57.5t-17.5 30.5t-29.5 9q-17 0 -30.5 -5t-24 -14t-18 -22.5t-11 -30.5t-3.5 -37v-270h-143v675zM-32 697l-38 66l173 95h37
l162 -91l-43 -71l-138 64z" />
    <glyph glyph-name="Hbar" unicode="&#x126;" 
d="M5 471v110h495v-110h-495zM30 623h141h9v-11q-5 -6 -6.5 -13t-1.5 -24v-196h157v244h141h9v-11q-5 -6 -6.5 -13t-1.5 -24v-575h-142v269h-157v-269h-142v623z" />
    <glyph glyph-name="hbar" unicode="&#x127;" 
d="M43 675h142h9v-11q-5 -6 -6.5 -13t-1.5 -24v-204q16 22 37 34.5t44.5 18.5t45.5 6q48 0 82.5 -20.5t53.5 -64.5t19 -114v-283h-142v282q0 36 -6 57.5t-17.5 30.5t-29.5 9q-17 0 -30.5 -5t-24 -14t-18 -22.5t-11 -30.5t-3.5 -37v-270h-143v675zM-5 517v81h279v-81h-279z
" />
    <glyph glyph-name="Itilde" unicode="&#x128;" 
d="M63 0v113h121v397h-115v113h368v-113h-121v-397h126v-113h-379zM349 818l70 -33q-19 -43 -45 -63t-57 -20q-34 0 -54 10t-33 23.5t-22.5 23.5t-22.5 10q-16 0 -28.5 -14.5t-22.5 -35.5l-70 33q18 50 46.5 71t69.5 21q29 0 48 -9.5t32 -22.5t24.5 -22.5t24.5 -9.5
q17 0 25 11t15 27z" />
    <glyph glyph-name="itilde" unicode="&#x129;" 
d="M74 0v110h112v251h-107v110h249v-361h102v-110h-356zM339 671l64 -30q-17 -39 -41.5 -58.5t-50.5 -19.5q-22 0 -38 8t-28 18.5t-22 18.5t-21 8q-13 0 -22.5 -10.5t-16.5 -27.5l-64 30q15 37 41.5 58t51.5 21q21 0 37.5 -8t30 -18.5t24 -18.5t19.5 -8q11 0 19 7.5t17 29.5
z" />
    <glyph glyph-name="Imacron" unicode="&#x12a;" 
d="M63 0v113h121v397h-115v113h368v-113h-121v-397h126v-113h-379zM100 719v89h297v-89h-297z" />
    <glyph glyph-name="imacron" unicode="&#x12b;" 
d="M74 0v110h112v251h-107v110h249v-361h102v-110h-356zM100 563v89h297v-89h-297z" />
    <glyph glyph-name="Ibreve" unicode="&#x12c;" 
d="M63 0v113h121v397h-115v113h368v-113h-121v-397h126v-113h-379zM325 812l82 -37q-25 -55 -65 -85t-92 -30t-92 30t-65 85l82 37q15 -37 32.5 -55.5t42.5 -18.5q17 0 31 8t25.5 24.5t18.5 41.5z" />
    <glyph glyph-name="ibreve" unicode="&#x12d;" 
d="M74 0v110h112v251h-107v110h249v-361h102v-110h-356zM325 677l82 -37q-25 -55 -65 -85t-92 -30t-92 30t-65 85l82 37q15 -37 32.5 -55.5t42.5 -18.5q17 0 31 8t25.5 24.5t18.5 41.5z" />
    <glyph glyph-name="Iogonek" unicode="&#x12e;" 
d="M63 0v113h121v397h-115v113h368v-113h-121v-397h126v-113h-379zM463 -131l-64 -114q-53 16 -85 37t-46.5 44t-14.5 45q0 24 17 50.5t50.5 53t81.5 49.5l49 -34q-19 -17 -32 -31.5t-19.5 -25.5t-6.5 -21q0 -17 18 -30t52 -23z" />
    <glyph glyph-name="iogonek" unicode="&#x12f;" 
d="M74 0v110h112v251h-107v110h249v-361h102v-110h-356zM250 535q-35 0 -59.5 23.5t-24.5 55.5q0 35 23.5 57t60.5 22q33 0 58.5 -23.5t25.5 -55.5t-25.5 -55.5t-58.5 -23.5zM446 -131l-64 -114q-53 16 -85 37t-46.5 44t-14.5 45q0 24 17 50.5t50.5 53t81.5 49.5l49 -34
q-19 -17 -32 -31.5t-19.5 -25.5t-6.5 -21q0 -17 18 -30t52 -23z" />
    <glyph glyph-name="Idotaccent" unicode="&#x130;" 
d="M63 0v113h121v397h-115v113h368v-113h-121v-397h126v-113h-379zM253 675q-35 0 -59.5 23.5t-24.5 55.5q0 35 23.5 57t60.5 22q33 0 58.5 -23.5t25.5 -55.5t-25.5 -55.5t-58.5 -23.5z" />
    <glyph glyph-name="dotlessi" unicode="&#x131;" 
d="M74 0v110h112v251h-107v110h249v-361h102v-110h-356z" />
    <glyph glyph-name="Jcircumflex" unicode="&#x134;" 
d="M192 -17q-50 0 -97 16t-76 53l66 114l5 8l10 -6q2 -7 5 -15.5t14 -20.5q12 -8 26.5 -13t30.5 -5q21 0 36 14t23 40.5t8 61.5v280h-111v113h342v-113h-89v-295q0 -57 -16.5 -100.5t-44 -72.5t-62 -44t-70.5 -15v0zM160 645l-38 66l173 95h37l162 -91l-43 -71l-138 64z" />
    <glyph glyph-name="jcircumflex" unicode="&#x135;" 
d="M189 -177q-50 0 -89.5 19.5t-73.5 56.5l76 100l6 7l9 -6q2 -8 3.5 -16.5t11.5 -21.5q11 -11 24.5 -17.5t32.5 -6.5q23 0 35.5 9t17 27.5t4.5 44.5v342h-157v110h300v-438q0 -75 -29 -121.5t-74.5 -67.5t-96.5 -21v0zM195 490l-62 58l150 138h46l150 -138l-62 -58l-112 98
z" />
    <glyph glyph-name="uni0136" unicode="&#x136;" 
d="M204 262l-36 -54v-208h-135v623h134h9v-11q-5 -6 -6.5 -13t-1.5 -24v-186l173 240q8 -2 20.5 -3t25.5 -2t24 -1h17h69l-195 -256l204 -366l-155 -5zM229 -309l-72 59q25 23 36 43.5t11 34.5t-9.5 26.5t-19 28.5t-9.5 40q0 35 24.5 52t55.5 17q42 0 64 -28t22 -73
q0 -31 -11 -63.5t-34 -66t-58 -70.5z" />
    <glyph glyph-name="uni0137" unicode="&#x137;" 
d="M208 199l-23 -24v-175h-142v675h141h9v-11q-5 -6 -6.5 -13t-1.5 -24v-297l145 146q9 -2 20 -3.5t22 -2.5t20.5 -1.5t14.5 -0.5h73l-180 -182l200 -285l-152 -5zM239 -309l-72 59q25 23 36 43.5t11 34.5t-9.5 26.5t-19 28.5t-9.5 40q0 35 24.5 52t55.5 17q42 0 64 -28
t22 -73q0 -31 -11 -63.5t-34 -66t-58 -70.5z" />
    <glyph glyph-name="kgreenlandic" unicode="&#x138;" 
d="M208 199l-23 -24v-175h-142v471h141h9v-11q-5 -6 -6.5 -13t-1.5 -24v-93l145 146q9 -2 20 -3.5t22 -2.5t20.5 -1.5t14.5 -0.5h73l-180 -182l200 -285l-152 -5z" />
    <glyph glyph-name="Lacute" unicode="&#x139;" 
d="M51 623h141h9v-11q-5 -6 -6.5 -13t-1.5 -24v-461h276v-114h-418v623zM173 649l-32 62l170 99l47 -96z" />
    <glyph glyph-name="lacute" unicode="&#x13a;" 
d="M52 0v110h128v455h-122v110h264v-565h127v-110h-397zM173 701l-32 62l170 99l47 -96z" />
    <glyph glyph-name="uni013B" unicode="&#x13b;" 
d="M51 623h141h9v-11q-5 -6 -6.5 -13t-1.5 -24v-461h276v-114h-418v623zM239 -309l-72 59q25 23 36 43.5t11 34.5t-9.5 26.5t-19 28.5t-9.5 40q0 35 24.5 52t55.5 17q42 0 64 -28t22 -73q0 -31 -11 -63.5t-34 -66t-58 -70.5z" />
    <glyph glyph-name="uni013C" unicode="&#x13c;" 
d="M52 0v110h128v455h-122v110h264v-565h127v-110h-397zM239 -309l-72 59q25 23 36 43.5t11 34.5t-9.5 26.5t-19 28.5t-9.5 40q0 35 24.5 52t55.5 17q42 0 64 -28t22 -73q0 -31 -11 -63.5t-34 -66t-58 -70.5z" />
    <glyph glyph-name="Lcaron" unicode="&#x13d;" 
d="M347 386l-64 52q22 21 32 39t10 31t-8.5 24t-17 25t-8.5 36q0 31 21.5 46t49.5 15q37 0 57 -25t20 -65q0 -28 -10 -56.5t-30 -58.5t-52 -63zM51 623h141h9v-11q-5 -6 -6.5 -13t-1.5 -24v-461h276v-114h-418v623z" />
    <glyph glyph-name="lcaron" unicode="&#x13e;" 
d="M52 0v110h128v455h-122v110h264v-565h127v-110h-397zM402 427l-78 68q17 17 29.5 28t19 20t6.5 18q0 6 -5 12t-11 13t-11 16t-5 20q0 31 22.5 51t56.5 20t60 -24.5t26 -63.5q0 -23 -12 -50t-36.5 -59t-61.5 -69z" />
    <glyph glyph-name="Ldot" unicode="&#x13f;" 
d="M51 623h141h9v-11q-5 -6 -6.5 -13t-1.5 -24v-461h276v-114h-418v623zM340 247q-37 0 -62.5 25.5t-25.5 62.5q0 36 25.5 61.5t62.5 25.5q36 0 61.5 -25.5t25.5 -61.5q0 -37 -25.5 -62.5t-61.5 -25.5z" />
    <glyph glyph-name="ldot" unicode="&#x140;" 
d="M49 0v110h101v462h-95v110h237v-572h142v-110h-385zM400 247q-37 0 -62.5 25.5t-25.5 62.5q0 36 25.5 61.5t62.5 25.5q36 0 61.5 -25.5t25.5 -61.5q0 -37 -25.5 -62.5t-61.5 -25.5z" />
    <glyph glyph-name="Lslash" unicode="&#x141;" 
d="M63 0v206l-58 -18v117l58 18v300h149q2 -2 2 -3.5v-3.5q0 -4 -3.5 -7.5t-4.5 -21.5v-216l119 39q12 4 22.5 9t21.5 15v-133l-163 -54v-133h272v-114h-415z" />
    <glyph glyph-name="lslash" unicode="&#x142;" 
d="M59 0v110h121v126l-68 -24v128l68 23v202h-115v110h257v-263l78 24v-127l-78 -28v-171h122v-110h-385z" />
    <glyph glyph-name="Nacute" unicode="&#x143;" 
d="M28 623h151l178 -376l-10 376h124h9v-11q-5 -6 -6.5 -13t-1.5 -24v-575h-138l-181 401v-401h-125v623zM173 649l-32 62l170 99l47 -96z" />
    <glyph glyph-name="nacute" unicode="&#x144;" 
d="M43 0v471h143v-54q16 19 33 33.5t38.5 23t48.5 8.5q42 0 79 -20.5t60 -64t23 -114.5v-283h-142v282q0 32 -6 53.5t-19 32.5t-33 11q-16 0 -31 -6.5t-26.5 -18.5t-18 -29t-6.5 -38v-287h-143zM237 502l-61 38l82 177l96 -68z" />
    <glyph glyph-name="uni0145" unicode="&#x145;" 
d="M28 623h151l178 -376l-10 376h124h9v-11q-5 -6 -6.5 -13t-1.5 -24v-575h-138l-181 401v-401h-125v623zM239 -309l-72 59q25 23 36 43.5t11 34.5t-9.5 26.5t-19 28.5t-9.5 40q0 35 24.5 52t55.5 17q42 0 64 -28t22 -73q0 -31 -11 -63.5t-34 -66t-58 -70.5z" />
    <glyph glyph-name="uni0146" unicode="&#x146;" 
d="M43 0v471h143v-54q16 19 33 33.5t38.5 23t48.5 8.5q42 0 79 -20.5t60 -64t23 -114.5v-283h-142v282q0 32 -6 53.5t-19 32.5t-33 11q-16 0 -31 -6.5t-26.5 -18.5t-18 -29t-6.5 -38v-287h-143zM249 -309l-72 59q25 23 36 43.5t11 34.5t-9.5 26.5t-19 28.5t-9.5 40
q0 35 24.5 52t55.5 17q42 0 64 -28t22 -73q0 -31 -11 -63.5t-34 -66t-58 -70.5z" />
    <glyph glyph-name="Ncaron" unicode="&#x147;" 
d="M28 623h151l178 -376l-10 376h124h9v-11q-5 -6 -6.5 -13t-1.5 -24v-575h-138l-181 401v-401h-125v623zM403 825l38 -66l-173 -95h-37l-162 91l43 71l138 -64z" />
    <glyph glyph-name="ncaron" unicode="&#x148;" 
d="M43 0v471h143v-54q16 19 33 33.5t38.5 23t48.5 8.5q42 0 79 -20.5t60 -64t23 -114.5v-283h-142v282q0 32 -6 53.5t-19 32.5t-33 11q-16 0 -31 -6.5t-26.5 -18.5t-18 -29t-6.5 -38v-287h-143zM144 714l110 -98l112 98l62 -58l-150 -138h-46l-150 138z" />
    <glyph glyph-name="Eng" unicode="&#x14a;" 
d="M361 623h124q0 -19 -3.5 -28.5t-3.5 -25.5v-569q0 -61 -22.5 -108t-59.5 -73.5t-79 -26.5q-32 0 -67 13.5t-70 39.5l63 110q10 2 15 -3.5t9.5 -12.5t12.5 -13t23 -6q13 0 24.5 8t19 23.5t6.5 35.5l-204 414v-401h-125v623h150l187 -376v376z" />
    <glyph glyph-name="eng" unicode="&#x14b;" 
d="M272 -181q-30 0 -66 13.5t-63 38.5l54 105q8 -2 10.5 -8t6.5 -12.5t15 -11.5t35 -5q22 0 37 11t23 34t8 58v245q0 21 -5.5 37t-15.5 26.5t-22 16t-26 5.5q-17 0 -30 -5t-22.5 -13.5t-16 -20.5t-9.5 -26.5t-3 -31.5v-275h-139v471h139v-54q11 13 25 24.5t31 20t35 13.5
t36 5q33 0 61.5 -10.5t50.5 -33t34.5 -59.5t12.5 -90v-236q0 -61 -15.5 -105t-43 -72t-63 -41.5t-74.5 -13.5z" />
    <glyph glyph-name="Omacron" unicode="&#x14c;" 
d="M253 -12q-80 0 -133 38t-79.5 110.5t-26.5 176.5q0 103 26.5 174.5t79.5 109.5t133 38q79 0 132 -38t80 -109.5t27 -174.5q0 -104 -27 -177t-80 -110.5t-132 -37.5zM253 100q31 0 53 22.5t34.5 70t12.5 122.5q0 69 -12.5 115.5t-34.5 69.5t-53 23q-32 0 -54.5 -23
t-34 -69.5t-11.5 -115.5q0 -75 11.5 -122.5t34 -70t54.5 -22.5zM102 724v89h297v-89h-297z" />
    <glyph glyph-name="omacron" unicode="&#x14d;" 
d="M249 -12q-63 0 -115 30.5t-83 86.5t-31 130q0 69 31 125t83 89t115 33t115.5 -33t84 -89t31.5 -125q0 -73 -31.5 -129t-84 -87t-115.5 -31zM249 99q27 0 47.5 17t32.5 47.5t12 71.5q0 44 -12 74t-32.5 46t-47.5 16q-25 0 -45.5 -16t-32.5 -46t-12 -74q0 -41 11.5 -71.5
t32 -47.5t46.5 -17zM101 563v89h297v-89h-297z" />
    <glyph glyph-name="Obreve" unicode="&#x14e;" 
d="M253 -12q-80 0 -133 38t-79.5 110.5t-26.5 176.5q0 103 26.5 174.5t79.5 109.5t133 38q79 0 132 -38t80 -109.5t27 -174.5q0 -104 -27 -177t-80 -110.5t-132 -37.5zM253 100q31 0 53 22.5t34.5 70t12.5 122.5q0 69 -12.5 115.5t-34.5 69.5t-53 23q-32 0 -54.5 -23
t-34 -69.5t-11.5 -115.5q0 -75 11.5 -122.5t34 -70t54.5 -22.5zM327 817l82 -37q-25 -55 -65 -85t-92 -30t-92 30t-65 85l82 37q15 -37 32.5 -55.5t42.5 -18.5q17 0 31 8t25.5 24.5t18.5 41.5z" />
    <glyph glyph-name="obreve" unicode="&#x14f;" 
d="M249 -12q-63 0 -115 30.5t-83 86.5t-31 130q0 69 31 125t83 89t115 33t115.5 -33t84 -89t31.5 -125q0 -73 -31.5 -129t-84 -87t-115.5 -31zM249 99q27 0 47.5 17t32.5 47.5t12 71.5q0 44 -12 74t-32.5 46t-47.5 16q-25 0 -45.5 -16t-32.5 -46t-12 -74q0 -41 11.5 -71.5
t32 -47.5t46.5 -17zM326 677l82 -37q-25 -55 -65 -85t-92 -30t-92 30t-65 85l82 37q15 -37 32.5 -55.5t42.5 -18.5q17 0 31 8t25.5 24.5t18.5 41.5z" />
    <glyph glyph-name="Ohungarumlaut" unicode="&#x150;" 
d="M253 -12q-80 0 -133 38t-79.5 110.5t-26.5 176.5q0 103 26.5 174.5t79.5 109.5t133 38q79 0 132 -38t80 -109.5t27 -174.5q0 -104 -27 -177t-80 -110.5t-132 -37.5zM253 100q31 0 53 22.5t34.5 70t12.5 122.5q0 69 -12.5 115.5t-34.5 69.5t-53 23q-32 0 -54.5 -23
t-34 -69.5t-11.5 -115.5q0 -75 11.5 -122.5t34 -70t54.5 -22.5zM276 643l-42 53l143 126l61 -76zM97 643l-42 53l142 126l61 -76z" />
    <glyph glyph-name="ohungarumlaut" unicode="&#x151;" 
d="M249 -12q-63 0 -115 30.5t-83 86.5t-31 130q0 69 31 125t83 89t115 33t115.5 -33t84 -89t31.5 -125q0 -73 -31.5 -129t-84 -87t-115.5 -31zM249 99q27 0 47.5 17t32.5 47.5t12 71.5q0 44 -12 74t-32.5 46t-47.5 16q-25 0 -45.5 -16t-32.5 -46t-12 -74q0 -41 11.5 -71.5
t32 -47.5t46.5 -17zM325 514l-65 40l79 170l93 -65zM170 514l-65 40l79 170l93 -65z" />
    <glyph glyph-name="OE" unicode="&#x152;" 
d="M180 -7q-40 0 -73.5 19t-57.5 58.5t-37 99.5t-13 142q0 106 21.5 177t63.5 107t101 36q8 0 21.5 -4.5t23.5 -9.5v6h269v-110h-146v-135h123v-109h-123v-160h144v-110h-268v6q-11 -4 -26 -8.5t-23 -4.5zM194 112q14 0 20 11t6 31v318q-1 21 -9.5 32.5t-24.5 11.5
q-12 0 -21.5 -10t-16 -33.5t-10 -62.5t-3.5 -97q0 -64 5.5 -109t18.5 -68.5t35 -23.5z" />
    <glyph glyph-name="oe" unicode="&#x153;" 
d="M355 -12q-24 0 -48.5 7t-47.5 29q-22 -22 -44 -29t-48 -7q-31 0 -59.5 12t-51 40t-36 75.5t-13.5 119.5q0 88 23 142t61 79t82 25q27 0 48 -9t39 -29q13 17 35.5 27.5t45.5 10.5q49 0 83.5 -23.5t53.5 -68t19 -106.5v-78h-197q1 -48 11 -74t27 -35.5t37 -9.5q17 0 33 6
t32 28l47 -70q-28 -33 -57.5 -47.5t-74.5 -14.5zM175 90q8 0 13.5 2.5t10 6.5t6.5 8.5t2 9.5q0 8 -1 11t-2 10q-1 13 -3.5 24t-4 29t-1.5 51q0 35 4 57t8 34t4 16q0 3 -2 7.5t-6.5 9t-11.5 7.5t-17 3q-15 0 -26.5 -14.5t-18 -43t-6.5 -70.5q0 -45 3 -80.5t14 -56.5t35 -21z
M302 294h102q-1 24 -5.5 41.5t-14.5 27.5t-28 10q-17 0 -28.5 -12t-17.5 -30.5t-8 -36.5z" />
    <glyph glyph-name="Racute" unicode="&#x154;" 
d="M37 0v623h207q78 0 128.5 -23t75 -65t24.5 -98q0 -34 -13.5 -67.5t-38.5 -61t-59 -43.5l128 -265h-146l-119 248h-43v-248h-144zM181 363h70q35 0 55.5 18.5t20.5 50.5q0 20 -9 36t-26 26t-41 10h-70v-141zM173 649l-32 62l170 99l47 -96z" />
    <glyph glyph-name="racute" unicode="&#x155;" 
d="M69 471h145v-129l-16 4q3 30 15.5 54.5t32.5 43t44.5 28.5t50.5 10q41 0 73 -13t60 -42l-58 -121l-3 -8l-10 4q-4 8 -6 17.5t-13 21.5q-13 11 -29.5 18.5t-36.5 7.5q-23 0 -42.5 -7t-33.5 -22t-22 -38t-8 -55v-245h-143v471zM257 502l-61 38l82 177l96 -68z" />
    <glyph glyph-name="uni0156" unicode="&#x156;" 
d="M37 0v623h207q78 0 128.5 -23t75 -65t24.5 -98q0 -34 -13.5 -67.5t-38.5 -61t-59 -43.5l128 -265h-146l-119 248h-43v-248h-144zM181 363h70q35 0 55.5 18.5t20.5 50.5q0 20 -9 36t-26 26t-41 10h-70v-141zM239 -309l-72 59q25 23 36 43.5t11 34.5t-9.5 26.5t-19 28.5
t-9.5 40q0 35 24.5 52t55.5 17q42 0 64 -28t22 -73q0 -31 -11 -63.5t-34 -66t-58 -70.5z" />
    <glyph glyph-name="uni0157" unicode="&#x157;" 
d="M69 471h145v-129l-16 4q3 30 15.5 54.5t32.5 43t44.5 28.5t50.5 10q41 0 73 -13t60 -42l-58 -121l-3 -8l-10 4q-4 8 -6 17.5t-13 21.5q-13 11 -29.5 18.5t-36.5 7.5q-23 0 -42.5 -7t-33.5 -22t-22 -38t-8 -55v-245h-143v471zM289 -309l-72 59q25 23 36 43.5t11 34.5
t-9.5 26.5t-19 28.5t-9.5 40q0 35 24.5 52t55.5 17q42 0 64 -28t22 -73q0 -31 -11 -63.5t-34 -66t-58 -70.5z" />
    <glyph glyph-name="Rcaron" unicode="&#x158;" 
d="M37 0v623h207q78 0 128.5 -23t75 -65t24.5 -98q0 -34 -13.5 -67.5t-38.5 -61t-59 -43.5l128 -265h-146l-119 248h-43v-248h-144zM181 363h70q35 0 55.5 18.5t20.5 50.5q0 20 -9 36t-26 26t-41 10h-70v-141zM403 825l38 -66l-173 -95h-37l-162 91l43 71l138 -64z" />
    <glyph glyph-name="rcaron" unicode="&#x159;" 
d="M69 471h145v-129l-16 4q3 30 15.5 54.5t32.5 43t44.5 28.5t50.5 10q41 0 73 -13t60 -42l-58 -121l-3 -8l-10 4q-4 8 -6 17.5t-13 21.5q-13 11 -29.5 18.5t-36.5 7.5q-23 0 -42.5 -7t-33.5 -22t-22 -38t-8 -55v-245h-143v471zM164 714l110 -98l112 98l62 -58l-150 -138
h-46l-150 138z" />
    <glyph glyph-name="Sacute" unicode="&#x15a;" 
d="M239 -12q-63 0 -121.5 17.5t-94.5 54.5l68 113l5 8l10 -6q2 -7 5.5 -14.5t16.5 -18.5q24 -16 52 -27t58 -12q21 0 37.5 3t28.5 10t18.5 19.5t6.5 30.5q0 9 -2.5 18.5t-8.5 19t-18.5 19.5t-31.5 22t-48 25q-64 31 -101.5 59t-54 61.5t-16.5 80.5q0 46 27.5 83t74.5 59
t103 22q43 0 78.5 -9t66 -27t56.5 -46l-85 -92l-6 -7l-9 8q-1 8 -3 15.5t-13 19.5q-16 14 -34 18.5t-42 4.5q-17 0 -31 -3.5t-24 -10t-15.5 -14.5t-5.5 -17t2 -16.5t8 -15.5t18.5 -17t33 -20.5t51.5 -26.5q48 -24 81 -46t52.5 -45.5t28 -51.5t8.5 -64q0 -47 -24 -89
t-75 -68.5t-131 -26.5v0zM173 649l-32 62l170 99l47 -96z" />
    <glyph glyph-name="sacute" unicode="&#x15b;" 
d="M265 -12q-46 0 -87.5 7.5t-76.5 24t-64 43.5l56 108l4 8l9 -5q3 -7 6.5 -15.5t15.5 -19.5q28 -21 61.5 -32t76.5 -11q22 0 37.5 5t24 13.5t8.5 18.5t-6.5 17t-19 12.5t-32.5 11.5t-47 13q-50 13 -86.5 32t-56.5 47.5t-20 68.5q0 41 25 74t68.5 53t99.5 20q27 0 53.5 -4.5
t50.5 -13t46 -22t41 -31.5l-65 -95l-6 -8l-9 7q-1 8 -4.5 15t-15.5 18q-19 13 -41.5 18.5t-47.5 5.5q-29 0 -51 -9t-22 -27q0 -12 12 -20t35.5 -14.5t58.5 -14.5q56 -12 92 -32.5t53.5 -49.5t17.5 -67q0 -40 -23 -74.5t-66.5 -55t-104.5 -20.5v0zM257 502l-61 38l82 177
l96 -68z" />
    <glyph glyph-name="Scircumflex" unicode="&#x15c;" 
d="M239 -12q-63 0 -121.5 17.5t-94.5 54.5l68 113l5 8l10 -6q2 -7 5.5 -14.5t16.5 -18.5q24 -16 52 -27t58 -12q21 0 37.5 3t28.5 10t18.5 19.5t6.5 30.5q0 9 -2.5 18.5t-8.5 19t-18.5 19.5t-31.5 22t-48 25q-64 31 -101.5 59t-54 61.5t-16.5 80.5q0 46 27.5 83t74.5 59
t103 22q43 0 78.5 -9t66 -27t56.5 -46l-85 -92l-6 -7l-9 8q-1 8 -3 15.5t-13 19.5q-16 14 -34 18.5t-42 4.5q-17 0 -31 -3.5t-24 -10t-15.5 -14.5t-5.5 -17t2 -16.5t8 -15.5t18.5 -17t33 -20.5t51.5 -26.5q48 -24 81 -46t52.5 -45.5t28 -51.5t8.5 -64q0 -47 -24 -89
t-75 -68.5t-131 -26.5v0zM100 645l-38 66l173 95h37l162 -91l-43 -71l-138 64z" />
    <glyph glyph-name="scircumflex" unicode="&#x15d;" 
d="M265 -12q-46 0 -87.5 7.5t-76.5 24t-64 43.5l56 108l4 8l9 -5q3 -7 6.5 -15.5t15.5 -19.5q28 -21 61.5 -32t76.5 -11q22 0 37.5 5t24 13.5t8.5 18.5t-6.5 17t-19 12.5t-32.5 11.5t-47 13q-50 13 -86.5 32t-56.5 47.5t-20 68.5q0 41 25 74t68.5 53t99.5 20q27 0 53.5 -4.5
t50.5 -13t46 -22t41 -31.5l-65 -95l-6 -8l-9 7q-1 8 -4.5 15t-15.5 18q-19 13 -41.5 18.5t-47.5 5.5q-29 0 -51 -9t-22 -27q0 -12 12 -20t35.5 -14.5t58.5 -14.5q56 -12 92 -32.5t53.5 -49.5t17.5 -67q0 -40 -23 -74.5t-66.5 -55t-104.5 -20.5v0zM134 494l-62 58l150 138h46
l150 -138l-62 -58l-112 98z" />
    <glyph glyph-name="Scedilla" unicode="&#x15e;" 
d="M239 -12q-63 0 -121.5 17.5t-94.5 54.5l68 113l5 8l10 -6q2 -7 5.5 -14.5t16.5 -18.5q24 -16 52 -27t58 -12q21 0 37.5 3t28.5 10t18.5 19.5t6.5 30.5q0 9 -2.5 18.5t-8.5 19t-18.5 19.5t-31.5 22t-48 25q-64 31 -101.5 59t-54 61.5t-16.5 80.5q0 46 27.5 83t74.5 59
t103 22q43 0 78.5 -9t66 -27t56.5 -46l-85 -92l-6 -7l-9 8q-1 8 -3 15.5t-13 19.5q-16 14 -34 18.5t-42 4.5q-17 0 -31 -3.5t-24 -10t-15.5 -14.5t-5.5 -17t2 -16.5t8 -15.5t18.5 -17t33 -20.5t51.5 -26.5q48 -24 81 -46t52.5 -45.5t28 -51.5t8.5 -64q0 -47 -24 -89
t-75 -68.5t-131 -26.5v0zM258 -210q-34 0 -68.5 8.5t-72.5 39.5l45 81q31 -27 56.5 -36t51.5 -9q12 0 27.5 5.5t15.5 14.5q0 8 -12.5 11t-31.5 3h-62l13 92h104l-3 -20q22 -2 38.5 -13t25.5 -27t9 -35q0 -49 -38 -82t-98 -33z" />
    <glyph glyph-name="scedilla" unicode="&#x15f;" 
d="M265 -12q-46 0 -87.5 7.5t-76.5 24t-64 43.5l56 108l4 8l9 -5q3 -7 6.5 -15.5t15.5 -19.5q28 -21 61.5 -32t76.5 -11q22 0 37.5 5t24 13.5t8.5 18.5t-6.5 17t-19 12.5t-32.5 11.5t-47 13q-50 13 -86.5 32t-56.5 47.5t-20 68.5q0 41 25 74t68.5 53t99.5 20q27 0 53.5 -4.5
t50.5 -13t46 -22t41 -31.5l-65 -95l-6 -8l-9 7q-1 8 -4.5 15t-15.5 18q-19 13 -41.5 18.5t-47.5 5.5q-29 0 -51 -9t-22 -27q0 -12 12 -20t35.5 -14.5t58.5 -14.5q56 -12 92 -32.5t53.5 -49.5t17.5 -67q0 -40 -23 -74.5t-66.5 -55t-104.5 -20.5v0zM271 -210q-34 0 -68.5 8.5
t-72.5 39.5l45 81q31 -27 56.5 -36t51.5 -9q12 0 27.5 5.5t15.5 14.5q0 8 -12.5 11t-31.5 3h-62l13 92h104l-3 -20q22 -2 38.5 -13t25.5 -27t9 -35q0 -49 -38 -82t-98 -33z" />
    <glyph glyph-name="Scaron" unicode="&#x160;" 
d="M239 -12q-63 0 -121.5 17.5t-94.5 54.5l68 113l5 8l10 -6q2 -7 5.5 -14.5t16.5 -18.5q24 -16 52 -27t58 -12q21 0 37.5 3t28.5 10t18.5 19.5t6.5 30.5q0 9 -2.5 18.5t-8.5 19t-18.5 19.5t-31.5 22t-48 25q-64 31 -101.5 59t-54 61.5t-16.5 80.5q0 46 27.5 83t74.5 59
t103 22q43 0 78.5 -9t66 -27t56.5 -46l-85 -92l-6 -7l-9 8q-1 8 -3 15.5t-13 19.5q-16 14 -34 18.5t-42 4.5q-17 0 -31 -3.5t-24 -10t-15.5 -14.5t-5.5 -17t2 -16.5t8 -15.5t18.5 -17t33 -20.5t51.5 -26.5q48 -24 81 -46t52.5 -45.5t28 -51.5t8.5 -64q0 -47 -24 -89
t-75 -68.5t-131 -26.5v0zM403 825l38 -66l-173 -95h-37l-162 91l43 71l138 -64z" />
    <glyph glyph-name="scaron" unicode="&#x161;" 
d="M265 -12q-46 0 -87.5 7.5t-76.5 24t-64 43.5l56 108l4 8l9 -5q3 -7 6.5 -15.5t15.5 -19.5q28 -21 61.5 -32t76.5 -11q22 0 37.5 5t24 13.5t8.5 18.5t-6.5 17t-19 12.5t-32.5 11.5t-47 13q-50 13 -86.5 32t-56.5 47.5t-20 68.5q0 41 25 74t68.5 53t99.5 20q27 0 53.5 -4.5
t50.5 -13t46 -22t41 -31.5l-65 -95l-6 -8l-9 7q-1 8 -4.5 15t-15.5 18q-19 13 -41.5 18.5t-47.5 5.5q-29 0 -51 -9t-22 -27q0 -12 12 -20t35.5 -14.5t58.5 -14.5q56 -12 92 -32.5t53.5 -49.5t17.5 -67q0 -40 -23 -74.5t-66.5 -55t-104.5 -20.5v0zM139 714l110 -98l112 98
l62 -58l-150 -138h-46l-150 138z" />
    <glyph glyph-name="uni0162" unicode="&#x162;" 
d="M179 0v506h-161v117h466v-117h-171v-506h-134zM250 -210q-34 0 -68.5 8.5t-72.5 39.5l45 81q31 -27 56.5 -36t51.5 -9q12 0 27.5 5.5t15.5 14.5q0 8 -12.5 11t-31.5 3h-62l13 92h104l-3 -20q22 -2 38.5 -13t25.5 -27t9 -35q0 -49 -38 -82t-98 -33z" />
    <glyph glyph-name="uni0163" unicode="&#x163;" 
d="M299 -12q-37 0 -68 11.5t-53 39t-33 75.5t-8 122l14 340l144 19l9 1l1 -11l-8 -14t-5 -24l-12 -154h6l-8 -150q-3 -57 4.5 -88.5t22 -43.5t30.5 -12q31 0 56.5 13t44.5 29l24 -99q-34 -25 -73.5 -39.5t-87.5 -14.5v0zM51 471h378l-2 -110h-378zM290 -210q-34 0 -68.5 8.5
t-72.5 39.5l45 81q31 -27 56.5 -36t51.5 -9q12 0 27.5 5.5t15.5 14.5q0 8 -12.5 11t-31.5 3h-62l13 92h104l-3 -20q22 -2 38.5 -13t25.5 -27t9 -35q0 -49 -38 -82t-98 -33z" />
    <glyph glyph-name="Tcaron" unicode="&#x164;" 
d="M179 0v506h-161v117h466v-117h-171v-506h-134zM403 825l38 -66l-173 -95h-37l-162 91l43 71l138 -64z" />
    <glyph glyph-name="tcaron" unicode="&#x165;" 
d="M299 -12q-37 0 -68 11.5t-53 39t-33 75.5t-8 122l14 340l144 19l9 1l1 -11l-8 -14t-5 -24l-12 -154h6l-8 -150q-3 -57 4.5 -88.5t22 -43.5t30.5 -12q31 0 56.5 13t44.5 29l24 -99q-34 -25 -73.5 -39.5t-87.5 -14.5v0zM51 471h378l-2 -110h-378zM412 462l-78 68
q17 17 29.5 28t19 20t6.5 18q0 6 -5 12t-11 13t-11 16t-5 20q0 31 22.5 51t56.5 20t60 -24.5t26 -63.5q0 -23 -12 -50t-36.5 -59t-61.5 -69z" />
    <glyph glyph-name="Tbar" unicode="&#x166;" 
d="M179 0v506h-161v117h466v-117h-171v-506h-134zM59 275v81h362v-81h-362z" />
    <glyph glyph-name="tbar" unicode="&#x167;" 
d="M47 197v110h378v-110h-378zM299 -12q-37 0 -68 11.5t-53 39t-33 75.5t-8 122l14 340l144 19l9 1l1 -11l-8 -14t-5 -24l-12 -154h6l-8 -150q-3 -57 4.5 -88.5t22 -43.5t30.5 -12q31 0 56.5 13t44.5 29l24 -99q-34 -25 -73.5 -39.5t-87.5 -14.5v0zM51 471h378l-2 -110h-378
z" />
    <glyph glyph-name="Utilde" unicode="&#x168;" 
d="M249 -14q-104 0 -163 62.5t-59 171.5v403h141h9v-11q-5 -6 -6.5 -13t-1.5 -24v-356q0 -56 17.5 -88t63.5 -32q47 0 65 32.5t18 90.5v401h140v-400q0 -81 -29 -133.5t-79.5 -78t-115.5 -25.5v0zM349 786l70 -33q-19 -43 -45 -63t-57 -20q-34 0 -54 10t-33 23.5t-22.5 23.5
t-22.5 10q-16 0 -28.5 -14.5t-22.5 -35.5l-70 33q18 50 46.5 71t69.5 21q29 0 48 -9.5t32 -22.5t24.5 -22.5t24.5 -9.5q17 0 25 11t15 27z" />
    <glyph glyph-name="utilde" unicode="&#x169;" 
d="M206 -12q-29 0 -54.5 7t-46 22t-35.5 38t-23 55.5t-8 74.5v286h142v-286q0 -23 3.5 -39t10.5 -26.5t16.5 -15t20.5 -4.5q19 0 33.5 6t24 18.5t14 30.5t4.5 42v274h143v-395q0 -24 1.5 -41.5t8.5 -34.5h-127q-5 9 -7 18t-2.5 18t-0.5 18q-10 -17 -23.5 -29.5t-29 -20.5
t-32 -12t-33.5 -4zM349 662l70 -33q-19 -43 -45 -63t-57 -20q-34 0 -54 10t-33 23.5t-22.5 23.5t-22.5 10q-16 0 -28.5 -14.5t-22.5 -35.5l-70 33q18 50 46.5 71t69.5 21q29 0 48 -9.5t32 -22.5t24.5 -22.5t24.5 -9.5q17 0 25 11t15 27z" />
    <glyph glyph-name="Umacron" unicode="&#x16a;" 
d="M249 -14q-104 0 -163 62.5t-59 171.5v403h141h9v-11q-5 -6 -6.5 -13t-1.5 -24v-356q0 -56 17.5 -88t63.5 -32q47 0 65 32.5t18 90.5v401h140v-400q0 -81 -29 -133.5t-79.5 -78t-115.5 -25.5v0zM100 719v89h297v-89h-297z" />
    <glyph glyph-name="umacron" unicode="&#x16b;" 
d="M206 -12q-29 0 -54.5 7t-46 22t-35.5 38t-23 55.5t-8 74.5v286h142v-286q0 -23 3.5 -39t10.5 -26.5t16.5 -15t20.5 -4.5q19 0 33.5 6t24 18.5t14 30.5t4.5 42v274h143v-395q0 -24 1.5 -41.5t8.5 -34.5h-127q-5 9 -7 18t-2.5 18t-0.5 18q-10 -17 -23.5 -29.5t-29 -20.5
t-32 -12t-33.5 -4zM100 563v89h297v-89h-297z" />
    <glyph glyph-name="Ubreve" unicode="&#x16c;" 
d="M249 -14q-104 0 -163 62.5t-59 171.5v403h141h9v-11q-5 -6 -6.5 -13t-1.5 -24v-356q0 -56 17.5 -88t63.5 -32q47 0 65 32.5t18 90.5v401h140v-400q0 -81 -29 -133.5t-79.5 -78t-115.5 -25.5v0zM325 812l82 -37q-25 -55 -65 -85t-92 -30t-92 30t-65 85l82 37
q15 -37 32.5 -55.5t42.5 -18.5q17 0 31 8t25.5 24.5t18.5 41.5z" />
    <glyph glyph-name="ubreve" unicode="&#x16d;" 
d="M206 -12q-29 0 -54.5 7t-46 22t-35.5 38t-23 55.5t-8 74.5v286h142v-286q0 -23 3.5 -39t10.5 -26.5t16.5 -15t20.5 -4.5q19 0 33.5 6t24 18.5t14 30.5t4.5 42v274h143v-395q0 -24 1.5 -41.5t8.5 -34.5h-127q-5 9 -7 18t-2.5 18t-0.5 18q-10 -17 -23.5 -29.5t-29 -20.5
t-32 -12t-33.5 -4zM325 677l82 -37q-25 -55 -65 -85t-92 -30t-92 30t-65 85l82 37q15 -37 32.5 -55.5t42.5 -18.5q17 0 31 8t25.5 24.5t18.5 41.5z" />
    <glyph glyph-name="Uring" unicode="&#x16e;" 
d="M249 -14q-104 0 -163 62.5t-59 171.5v403h141h9v-11q-5 -6 -6.5 -13t-1.5 -24v-356q0 -56 17.5 -88t63.5 -32q47 0 65 32.5t18 90.5v401h140v-400q0 -81 -29 -133.5t-79.5 -78t-115.5 -25.5v0zM245 614q-30 0 -55.5 14.5t-40.5 39t-15 54.5q0 29 15 53t40.5 38.5
t55.5 14.5q31 0 57 -14.5t41.5 -38.5t15.5 -52q0 -30 -16 -55t-41.5 -39.5t-56.5 -14.5zM246 692q11 0 18.5 9t7.5 23q0 13 -7.5 22.5t-18.5 9.5t-18.5 -9.5t-7.5 -22.5q0 -14 7.5 -23t18.5 -9z" />
    <glyph glyph-name="uring" unicode="&#x16f;" 
d="M206 -12q-29 0 -54.5 7t-46 22t-35.5 38t-23 55.5t-8 74.5v286h142v-286q0 -23 3.5 -39t10.5 -26.5t16.5 -15t20.5 -4.5q19 0 33.5 6t24 18.5t14 30.5t4.5 42v274h143v-395q0 -24 1.5 -41.5t8.5 -34.5h-127q-5 9 -7 18t-2.5 18t-0.5 18q-10 -17 -23.5 -29.5t-29 -20.5
t-32 -12t-33.5 -4zM244 509q-30 0 -55.5 14.5t-40.5 39t-15 54.5q0 29 15 53t40.5 38.5t55.5 14.5q31 0 57 -14.5t41.5 -38.5t15.5 -53q0 -30 -15.5 -54.5t-41 -39t-57.5 -14.5zM245 587q11 0 18.5 8.5t7.5 22.5t-7.5 23t-18.5 9q-10 0 -18 -9t-8 -23t8 -22.5t18 -8.5z" />
    <glyph glyph-name="Uhungarumlaut" unicode="&#x170;" 
d="M249 -14q-104 0 -163 62.5t-59 171.5v403h141h9v-11q-5 -6 -6.5 -13t-1.5 -24v-356q0 -56 17.5 -88t63.5 -32q47 0 65 32.5t18 90.5v401h140v-400q0 -81 -29 -133.5t-79.5 -78t-115.5 -25.5v0zM274 638l-42 53l143 126l61 -76zM95 638l-42 53l142 126l61 -76z" />
    <glyph glyph-name="uhungarumlaut" unicode="&#x171;" 
d="M206 -12q-29 0 -54.5 7t-46 22t-35.5 38t-23 55.5t-8 74.5v286h142v-286q0 -23 3.5 -39t10.5 -26.5t16.5 -15t20.5 -4.5q19 0 33.5 6t24 18.5t14 30.5t4.5 42v274h143v-395q0 -24 1.5 -41.5t8.5 -34.5h-127q-5 9 -7 18t-2.5 18t-0.5 18q-10 -17 -23.5 -29.5t-29 -20.5
t-32 -12t-33.5 -4zM324 514l-65 40l79 170l93 -65zM169 514l-65 40l79 170l93 -65z" />
    <glyph glyph-name="Uogonek" unicode="&#x172;" 
d="M249 -14q-104 0 -163 62.5t-59 171.5v403h141h9v-11q-5 -6 -6.5 -13t-1.5 -24v-356q0 -56 17.5 -88t63.5 -32q47 0 65 32.5t18 90.5v401h140v-400q0 -81 -29 -133.5t-79.5 -78t-115.5 -25.5v0zM376 -121l-64 -114q-53 16 -85 37t-46.5 44t-14.5 45q0 24 17 50.5t50.5 53
t81.5 49.5l49 -34q-19 -17 -32 -31.5t-19.5 -25.5t-6.5 -21q0 -17 18 -30t52 -23z" />
    <glyph glyph-name="uogonek" unicode="&#x173;" 
d="M206 -12q-29 0 -54.5 7t-46 22t-35.5 38t-23 55.5t-8 74.5v286h142v-286q0 -23 3.5 -39t10.5 -26.5t16.5 -15t20.5 -4.5q19 0 33.5 6t24 18.5t14 30.5t4.5 42v274h143v-395q0 -24 1.5 -41.5t8.5 -34.5h-127q-5 9 -7 18t-2.5 18t-0.5 18q-10 -17 -23.5 -29.5t-29 -20.5
t-32 -12t-33.5 -4zM456 -131l-64 -114q-53 16 -85 37t-46.5 44t-14.5 45q0 24 17 50.5t50.5 53t81.5 49.5l49 -34q-19 -17 -32 -31.5t-19.5 -25.5t-6.5 -21q0 -17 18 -30t52 -23z" />
    <glyph glyph-name="Wcircumflex" unicode="&#x174;" 
d="M76 0l-70 623h119l26 -371l67 320h84l67 -317l16 368h114l-68 -623h-100l-76 369l-77 -369h-102zM105 645l-38 66l173 95h37l162 -91l-43 -71l-138 64z" />
    <glyph glyph-name="wcircumflex" unicode="&#x175;" 
d="M86 0l-81 471h120l39 -286l59 228h69l65 -225q6 51 10 89.5t5.5 67.5t2 51t0.5 40v35h116q-3 -72 -13.5 -154.5t-24.5 -164t-27 -152.5h-119l-52 223l-47 -223h-122zM137 490l-62 58l150 138h46l150 -138l-62 -58l-112 98z" />
    <glyph glyph-name="Ycircumflex" unicode="&#x176;" 
d="M191 0v246l-182 377h141l112 -232l98 232h137l-168 -378v-245h-138zM100 645l-38 66l173 95h37l162 -91l-43 -71l-138 64z" />
    <glyph glyph-name="ycircumflex" unicode="&#x177;" 
d="M125 -177q-34 0 -60 12t-55 34l45 97l3 8l10 -4q4 -7 8 -15t17 -18q6 -4 13.5 -6t15.5 -2q16 0 28 9.5t23 29.5t23 53l110 296q15 41 23 77.5t8 76.5h127q-1 -45 -19.5 -96.5t-35.5 -96.5l-116 -311q-30 -80 -71 -112t-97 -32v0zM21 471h139l129 -338l-77 -142zM147 490
l-62 58l150 138h46l150 -138l-62 -58l-112 98z" />
    <glyph glyph-name="Ydieresis" unicode="&#x178;" 
d="M191 0v246l-182 377h141l112 -232l98 232h137l-168 -378v-245h-138zM154 680q-32 0 -55 21.5t-23 51.5t23 52t55 22q36 0 57.5 -23.5t21.5 -50.5q0 -30 -23.5 -51.5t-55.5 -21.5zM342 680q-32 0 -55 21t-23 52t23 52.5t55 21.5q37 0 57 -24t20 -50q0 -30 -22.5 -51.5
t-54.5 -21.5z" />
    <glyph glyph-name="Zacute" unicode="&#x179;" 
d="M31 88l272 418h-261v117h429v-88l-267 -419h234q17 0 24 2t13 7h11v-9v-116h-455v88zM183 649l-32 62l170 99l47 -96z" />
    <glyph glyph-name="zacute" unicode="&#x17a;" 
d="M33 80l240 277h-221v114h393v-87l-235 -270h209q17 0 24 2t13 7h11v-9v-114h-434v80zM232 502l-61 38l82 177l96 -68z" />
    <glyph glyph-name="Zdotaccent" unicode="&#x17b;" 
d="M31 88l272 418h-261v117h429v-88l-267 -419h234q17 0 24 2t13 7h11v-9v-116h-455v88zM263 675q-35 0 -59.5 23.5t-24.5 55.5q0 35 23.5 57t60.5 22q33 0 58.5 -23.5t25.5 -55.5t-25.5 -55.5t-58.5 -23.5z" />
    <glyph glyph-name="zdotaccent" unicode="&#x17c;" 
d="M33 80l240 277h-221v114h393v-87l-235 -270h209q17 0 24 2t13 7h11v-9v-114h-434v80zM254 535q-35 0 -59.5 23.5t-24.5 55.5q0 35 23.5 57t60.5 22q33 0 58.5 -23.5t25.5 -55.5t-25.5 -55.5t-58.5 -23.5z" />
    <glyph glyph-name="Zcaron" unicode="&#x17d;" 
d="M31 88l272 418h-261v117h429v-88l-267 -419h234q17 0 24 2t13 7h11v-9v-116h-455v88zM413 825l38 -66l-173 -95h-37l-162 91l43 71l138 -64z" />
    <glyph glyph-name="zcaron" unicode="&#x17e;" 
d="M33 80l240 277h-221v114h393v-87l-235 -270h209q17 0 24 2t13 7h11v-9v-114h-434v80zM139 714l110 -98l112 98l62 -58l-150 -138h-46l-150 138z" />
    <glyph glyph-name="uni018F" unicode="&#x18f;" 
d="M253 -12q-80 0 -133 38t-79.5 110.5t-26.5 176.5q0 103 26.5 174.5t79.5 109.5t133 38q79 0 132 -38t80 -109.5t27 -174.5q0 -104 -27 -177t-80 -110.5t-132 -37.5zM253 100q31 0 53 22.5t34.5 70t12.5 122.5q0 69 -12.5 115.5t-34.5 69.5t-53 23q-32 0 -54.5 -23
t-34 -69.5t-11.5 -115.5q0 -75 11.5 -122.5t34 -70t54.5 -22.5z" />
    <glyph glyph-name="florin" unicode="&#x192;" 
d="M117 -175q-30 0 -59.5 14.5t-56.5 43.5l66 104q7 0 8 -6.5t2 -15t8.5 -14.5t26.5 -6q14 0 20.5 12.5t10 33.5t4.5 46l22 261h-104v112h110l7 72q7 69 29.5 113t59.5 65t87 21q40 0 75 -18t65 -55l-48 -104q-10 0 -11.5 5.5t-5.5 15.5q-4 9 -9.5 17t-12.5 14t-16 9.5
t-20 3.5q-14 0 -26.5 -10.5t-20.5 -32.5t-10 -58l-3 -58h103v-112h-113l-22 -266q-7 -67 -30.5 -113.5t-58 -70t-77.5 -23.5z" />
    <glyph glyph-name="uni0198" unicode="&#x198;" 
d="M38 623h140h9v-11q-5 -6 -6.5 -13t-1.5 -24v-151q41 53 71.5 92t56.5 64t52 37.5t58 12.5q21 0 39 -5t27 -15l1 -129v-9h-11q-6 5 -11.5 13.5t-20.5 14.5q-4 1 -9 1h-10q-22 0 -43 -12t-42.5 -34.5t-45.5 -55t-51.5 -74.5t-60.5 -92v-233h-141v623zM152 327l90 105
l243 -430l-148 -8z" />
    <glyph glyph-name="Ohorn" unicode="&#x1a0;" 
d="M253 -12q-80 0 -133 38t-79.5 110.5t-26.5 176.5q0 103 26.5 174.5t79.5 109.5t133 38q79 0 132 -38t80 -109.5t27 -174.5q0 -104 -27 -177t-80 -110.5t-132 -37.5zM253 100q31 0 53 22.5t34.5 70t12.5 122.5q0 69 -12.5 115.5t-34.5 69.5t-53 23q-32 0 -54.5 -23
t-34 -69.5t-11.5 -115.5q0 -75 11.5 -122.5t34 -70t54.5 -22.5zM416 487l-10 89q11 0 15 11t5 32t1 51h78q0 -52 -6 -93.5t-24.5 -65.5t-58.5 -24z" />
    <glyph glyph-name="ohorn" unicode="&#x1a1;" 
d="M249 -12q-63 0 -115 30.5t-83 86.5t-31 130q0 69 31 125t83 89t115 33t115.5 -33t84 -89t31.5 -125q0 -73 -31.5 -129t-84 -87t-115.5 -31zM249 99q27 0 47.5 17t32.5 47.5t12 71.5q0 44 -12 74t-32.5 46t-47.5 16q-25 0 -45.5 -16t-32.5 -46t-12 -74q0 -41 11.5 -71.5
t32 -47.5t46.5 -17zM468 550q0 -73 -16 -113.5t-43 -56.5t-60 -16v83q9 0 13.5 27t4.5 76h101z" />
    <glyph glyph-name="Uhorn" unicode="&#x1af;" 
d="M224 -14q-94 0 -147 62.5t-53 171.5v403h127h8v-11q-4 -6 -5.5 -13t-1.5 -24v-356q0 -56 15.5 -88t57.5 -32q43 0 59 32.5t16 90.5v401h126v-400q0 -81 -26 -133.5t-71.5 -78t-104.5 -25.5v0zM409 534l-10 89q11 0 15 11t5 32t1 51h78q0 -52 -6 -93.5t-24.5 -65.5
t-58.5 -24z" />
    <glyph glyph-name="uhorn" unicode="&#x1b0;" 
d="M164 -12q-26 0 -49 7t-41.5 22t-32 38t-20.5 55.5t-7 74.5v286h128v-286q0 -23 3.5 -39t9.5 -26.5t14.5 -15t18.5 -4.5q17 0 30 6t21.5 18.5t12.5 30.5t4 42v274h129v-395q0 -24 1 -41.5t8 -34.5h-114q-5 9 -7 18t-2 18v18q-10 -17 -22 -29.5t-26 -20.5t-29 -12t-30 -4z
M482 570q0 -73 -16 -113.5t-43 -56.5t-60 -16v83q9 0 13.5 27t4.5 76h101z" />
    <glyph glyph-name="uni01B8" unicode="&#x1b8;" 
d="M266 -24q-67 0 -119.5 26.5t-83 71.5t-30.5 100t21 96.5t59 69.5t90.5 41.5t116.5 13.5h13v-115q-54 1 -86.5 -8t-49 -24t-21.5 -33t-5 -35q0 -30 15.5 -48.5t39 -26.5t47.5 -8q38 0 67 8t51 28q10 14 12.5 21t1.5 14l7 9l7 -5l50 -109q-38 -45 -86.5 -66t-116.5 -21v0z
M53 527v96h377v-120h-202l105 -108l-102 -49z" />
    <glyph glyph-name="uni01B9" unicode="&#x1b9;" 
d="M261 -180q-67 0 -119.5 26.5t-83 71.5t-30.5 100t21 96.5t59 69.5t90.5 41.5t116.5 13.5h13v-115q-54 1 -86.5 -8t-49 -24t-21.5 -33t-5 -35q0 -30 15.5 -48.5t39 -26.5t47.5 -8q38 0 67 8t51 28q10 14 12.5 21t1.5 14l7 9l7 -5l50 -109q-38 -45 -86.5 -66t-116.5 -21v0z
M48 371v96h377v-120h-202l105 -108l-102 -49z" />
    <glyph glyph-name="uni01C7" unicode="&#x1c7;" 
d="M282 -198q-39 0 -72.5 17t-57.5 49l85 93q7 -7 7 -10t-0.5 -6t4.5 -11q4 -4 8.5 -9.5t11 -9t16.5 -3.5q17 0 26.5 15t13.5 44t4 70v472h-80v110h221v-116v0v-488q-1 -55 -15.5 -96t-40 -67.5t-59 -40t-72.5 -13.5zM36 0v623h149q0 -7 -2 -9t-4 -6.5t-2 -20.5v-477h93
v-110h-234z" />
    <glyph glyph-name="uni01C8" unicode="&#x1c8;" 
d="M58 0v623h148q0 -10 -3 -14.5t-3 -21.5v-471h66v-116h-208zM271 -179q-18 0 -38 4.5t-38 13.5t-32 21l84 110q2 -3 1.5 -6t0 -6t2 -6.5t5.5 -7.5q1 -1 3 -2.5t5.5 -2.5t8.5 -1q11 0 20.5 4.5t17.5 14.5t12.5 25.5t4.5 37.5v341h-77v113h216v-450q0 -54 -15 -92.5
t-42 -63.5t-62.5 -36.5t-76.5 -10.5zM398 535q-35 0 -59.5 23.5t-24.5 55.5q0 35 23.5 57t60.5 22q33 0 58.5 -23.5t25.5 -55.5t-25.5 -55.5t-58.5 -23.5z" />
    <glyph glyph-name="uni01C9" unicode="&#x1c9;" 
d="M271 -179q-28 0 -52.5 10t-45.5 29l62 104q5 0 5.5 -1.5t0 -4.5t1.5 -6.5t9 -7.5q3 -1 9 -3.5t13 -2.5q14 0 26.5 8t20.5 26.5t8 47.5v341h-77v110h216v-447q0 -54 -15 -92.5t-42 -63.5t-62.5 -36.5t-76.5 -10.5zM29 0v110h38v462h-32v110h170v-572h78v-110h-254z
M398 535q-35 0 -59.5 23.5t-24.5 55.5q0 35 23.5 57t60.5 22q33 0 58.5 -23.5t25.5 -55.5t-25.5 -55.5t-58.5 -23.5z" />
    <glyph glyph-name="Gcaron" unicode="&#x1e6;" 
d="M276 -12q-81 0 -139 40.5t-88.5 113.5t-30.5 170q0 79 17.5 134.5t46.5 92.5t63.5 58t68.5 29.5t62 8.5q43 0 82 -12.5t70.5 -37t51.5 -61.5l-77 -83l-6 -7l-9 8q-1 8 -2.5 16t-11.5 21q-9 11 -21 20t-29.5 15t-42.5 6q-19 0 -37 -7t-33.5 -22.5t-27.5 -39t-18.5 -56.5
t-6.5 -76q0 -57 9 -98t24.5 -68t37.5 -40t47 -13q11 0 21 1.5t20 4t19 8t19 12.5v94h-96v115h222v-282q-45 -37 -97.5 -51t-107.5 -14v0zM420 825l38 -66l-173 -95h-37l-162 91l43 71l138 -64z" />
    <glyph glyph-name="gcaron" unicode="&#x1e7;" 
d="M233 -183q-50 0 -89.5 9.5t-66.5 26.5t-41 40t-14 49q0 22 12 42t33 36.5t46 26.5l65 -23q-11 -9 -24.5 -17.5t-22.5 -18t-9 -22.5q0 -11 10 -18.5t27.5 -12t40 -6.5t48.5 -2q33 0 57.5 5t38 15t13.5 23q0 11 -8 17t-26 8.5t-47 2.5q-31 0 -63.5 2.5t-62.5 9.5t-54.5 19
t-38.5 30.5t-14 45.5q0 37 23 61.5t53 42.5l63 -31q-9 -8 -17.5 -12.5t-14 -9t-5.5 -14.5q0 -9 18 -16t56 -10.5t98 -3.5q39 0 67.5 -10.5t47 -29t27.5 -41.5t9 -49q0 -31 -14.5 -60.5t-44 -53t-73.5 -37.5t-103 -14zM232 158q-49 0 -90.5 21t-66 57t-24.5 82t24.5 83t66 59
t90.5 22q50 0 91 -22t65.5 -59t24.5 -83t-24.5 -82t-65.5 -57t-91 -21zM231 255q18 0 32 7.5t22.5 22t8.5 33.5t-8.5 32t-23 20.5t-31.5 7.5q-14 0 -28 -8t-23.5 -21.5t-9.5 -30.5t8.5 -31.5t22.5 -23t30 -8.5zM384 378l-53 67q28 18 67 29t80 8l12 -90q-28 7 -57 2.5
t-49 -16.5zM119 714l110 -98l112 98l62 -58l-150 -138h-46l-150 138z" />
    <glyph glyph-name="uni01EA" unicode="&#x1ea;" 
d="M253 -12q-80 0 -133 38t-79.5 110.5t-26.5 176.5q0 103 26.5 174.5t79.5 109.5t133 38q79 0 132 -38t80 -109.5t27 -174.5q0 -104 -27 -177t-80 -110.5t-132 -37.5zM253 100q31 0 53 22.5t34.5 70t12.5 122.5q0 69 -12.5 115.5t-34.5 69.5t-53 23q-32 0 -54.5 -23
t-34 -69.5t-11.5 -115.5q0 -75 11.5 -122.5t34 -70t54.5 -22.5zM384 -114l-64 -114q-53 16 -85 37t-46.5 44t-14.5 45q0 24 17 50.5t50.5 53t81.5 49.5l49 -34q-19 -17 -32 -31.5t-19.5 -25.5t-6.5 -21q0 -17 18 -30t52 -23z" />
    <glyph glyph-name="uni01EB" unicode="&#x1eb;" 
d="M249 -12q-63 0 -115 30.5t-83 86.5t-31 130q0 69 31 125t83 89t115 33t115.5 -33t84 -89t31.5 -125q0 -73 -31.5 -129t-84 -87t-115.5 -31zM249 99q27 0 47.5 17t32.5 47.5t12 71.5q0 44 -12 74t-32.5 46t-47.5 16q-25 0 -45.5 -16t-32.5 -46t-12 -74q0 -41 11.5 -71.5
t32 -47.5t46.5 -17zM400 -96l-64 -114q-53 16 -85 37t-46.5 44t-14.5 45q0 24 17 50.5t50.5 53t81.5 49.5l49 -34q-19 -17 -32 -31.5t-19.5 -25.5t-6.5 -21q0 -17 18 -30t52 -23z" />
    <glyph glyph-name="Aringacute" unicode="&#x1fa;" 
d="M373 121h-255l17 98h218zM251 381l-101 -381h-140l198 623h85l198 -623h-142zM246 614q-30 0 -55.5 14.5t-40.5 39t-15 54.5q0 29 15 53t40.5 38.5t55.5 14.5q31 0 57 -14.5t41.5 -38.5t15.5 -52q0 -30 -16 -55t-41.5 -39.5t-56.5 -14.5zM247 692q11 0 18.5 9t7.5 23
q0 13 -7.5 22.5t-18.5 9.5t-18.5 -9.5t-7.5 -22.5q0 -14 7.5 -23t18.5 -9zM174 841l-32 62l170 99l47 -96z" />
    <glyph glyph-name="aringacute" unicode="&#x1fb;" 
d="M189 -12q-76 0 -119 36.5t-43 96.5q0 38 16 70.5t50 57t87 38.5t127 14h11h18h17l4 -94h-17t-22.5 -0.5t-17.5 -0.5q-43 0 -69 -5.5t-39.5 -15t-18.5 -21t-5 -22.5q0 -12 4 -21t11 -14t17 -7.5t21 -2.5q24 0 41 8t28.5 26.5t17 47.5t5.5 71q0 51 -9.5 78t-27 36.5
t-42.5 9.5q-31 0 -57 -8.5t-55 -38.5l-80 82q45 41 96.5 57t100.5 16q43 0 81.5 -9.5t69 -31.5t48 -60.5t17.5 -96.5v-284h-143v37q-13 -12 -25.5 -21.5t-27 -15.5t-31.5 -9t-39 -3zM234 509q-30 0 -55.5 14.5t-40.5 39t-15 54.5q0 29 15 53t40.5 38.5t55.5 14.5
q31 0 57 -14.5t41.5 -38.5t15.5 -53q0 -30 -15.5 -54.5t-41 -39t-57.5 -14.5zM235 587q11 0 18.5 8.5t7.5 22.5t-7.5 23t-18.5 9q-10 0 -18 -9t-8 -23t8 -22.5t18 -8.5zM217 746l-61 38l82 177l96 -68z" />
    <glyph glyph-name="AEacute" unicode="&#x1fc;" 
d="M-10 0l189 622h321v-110h-148v-134h124v-109h-124v-159h146v-110h-278v152h-55l-38 -152h-137zM190 267h31l10 195h4zM193 649l-32 62l170 99l47 -96z" />
    <glyph glyph-name="aeacute" unicode="&#x1fd;" 
d="M149 -13q-34 0 -69 15t-59 47.5t-24 83.5q0 35 14.5 65t41.5 52.5t62.5 35.5t77.5 14q0 25 -9 43t-21.5 28.5t-23.5 10.5q-16 0 -34.5 -13.5t-32.5 -35.5l-64 77q28 37 66 54.5t80 17.5q21 0 42.5 -8.5t38.5 -21t25 -24.5q10 13 23.5 25.5t30 20.5t33.5 8q52 0 85 -26.5
t49 -73.5t16 -109v-52l-192 -9v-32q0 -21 4.5 -38t12.5 -30t19.5 -20t26.5 -7q12 0 25 5t25.5 16.5t23.5 28.5l62 -75q-29 -34 -65.5 -53.5t-75.5 -19.5q-21 0 -40 6.5t-35.5 19.5t-30.5 30q-11 -16 -29 -29t-38.5 -20t-40.5 -7zM155 88q11 0 21 7t16 32.5t6 80.5
q-31 -1 -49 -14.5t-25.5 -30t-7.5 -29.5t4 -23.5t13 -16.5t22 -6zM305 305l97 2q0 25 -7.5 41.5t-18.5 25t-24 8.5q-11 0 -22 -10t-18 -27.5t-7 -39.5zM257 502l-61 38l82 177l96 -68z" />
    <glyph glyph-name="Oslashacute" unicode="&#x1fe;" 
d="M90 -65l-65 34l376 713l65 -34zM253 -12q-80 0 -133 38t-79.5 110.5t-26.5 176.5q0 103 26.5 174.5t79.5 109.5t133 38q79 0 132 -38t80 -109.5t27 -174.5q0 -104 -27 -177t-80 -110.5t-132 -37.5zM253 100q31 0 53 22.5t34.5 70t12.5 122.5q0 69 -12.5 115.5t-34.5 69.5
t-53 23q-32 0 -54.5 -23t-34 -69.5t-11.5 -115.5q0 -75 11.5 -122.5t34 -70t54.5 -22.5zM175 654l-32 62l170 99l47 -96z" />
    <glyph glyph-name="oslashacute" unicode="&#x1ff;" 
d="M151 -71l-100 53l292 544l101 -55zM249 -12q-63 0 -115 30.5t-83 86.5t-31 130q0 69 31 125t83 89t115 33t115.5 -33t84 -89t31.5 -125q0 -73 -31.5 -129t-84 -87t-115.5 -31zM249 99q27 0 47.5 17t32.5 47.5t12 71.5q0 44 -12 74t-32.5 46t-47.5 16q-25 0 -45.5 -16
t-32.5 -46t-12 -74q0 -41 11.5 -71.5t32 -47.5t46.5 -17zM228 502l-61 38l82 177l96 -68z" />
    <glyph glyph-name="uni0200" unicode="&#x200;" 
d="M373 121h-255l17 98h218zM251 381l-101 -381h-140l198 623h85l198 -623h-142zM193 658l-117 147l96 68l82 -177zM353 658l-117 147l96 68l82 -177z" />
    <glyph glyph-name="uni0201" unicode="&#x201;" 
d="M189 -12q-76 0 -119 36.5t-43 96.5q0 38 16 70.5t50 57t87 38.5t127 14h11h18h17l4 -94h-17t-22.5 -0.5t-17.5 -0.5q-43 0 -69 -5.5t-39.5 -15t-18.5 -21t-5 -22.5q0 -12 4 -21t11 -14t17 -7.5t21 -2.5q24 0 41 8t28.5 26.5t17 47.5t5.5 71q0 51 -9.5 78t-27 36.5
t-42.5 9.5q-31 0 -57 -8.5t-55 -38.5l-80 82q45 41 96.5 57t100.5 16q43 0 81.5 -9.5t69 -31.5t48 -60.5t17.5 -96.5v-284h-143v37q-13 -12 -25.5 -21.5t-27 -15.5t-31.5 -9t-39 -3zM182 502l-117 147l96 68l82 -177zM342 502l-117 147l96 68l82 -177z" />
    <glyph glyph-name="uni0202" unicode="&#x202;" 
d="M373 121h-255l17 98h218zM251 381l-101 -381h-140l198 623h85l198 -623h-142zM179 671l-82 37q25 56 65 85.5t92 29.5t92 -29.5t65 -85.5l-82 -37q-15 37 -32.5 55.5t-42.5 18.5q-16 0 -30.5 -8t-25.5 -24t-19 -42z" />
    <glyph glyph-name="uni0203" unicode="&#x203;" 
d="M189 -12q-76 0 -119 36.5t-43 96.5q0 38 16 70.5t50 57t87 38.5t127 14h11h18h17l4 -94h-17t-22.5 -0.5t-17.5 -0.5q-43 0 -69 -5.5t-39.5 -15t-18.5 -21t-5 -22.5q0 -12 4 -21t11 -14t17 -7.5t21 -2.5q24 0 41 8t28.5 26.5t17 47.5t5.5 71q0 51 -9.5 78t-27 36.5
t-42.5 9.5q-31 0 -57 -8.5t-55 -38.5l-80 82q45 41 96.5 57t100.5 16q43 0 81.5 -9.5t69 -31.5t48 -60.5t17.5 -96.5v-284h-143v37q-13 -12 -25.5 -21.5t-27 -15.5t-31.5 -9t-39 -3zM168 515l-82 37q25 56 65 85.5t92 29.5t92 -29.5t65 -85.5l-82 -37q-15 37 -32.5 55.5
t-42.5 18.5q-16 0 -30.5 -8t-25.5 -24t-19 -42z" />
    <glyph glyph-name="uni0204" unicode="&#x204;" 
d="M46 0v623h421v-112h-282v-131h231v-112h-231v-156h280v-112h-419zM212 658l-117 147l96 68l82 -177zM372 658l-117 147l96 68l82 -177z" />
    <glyph glyph-name="uni0205" unicode="&#x205;" 
d="M270 -12q-50 0 -93.5 16.5t-76 47.5t-50.5 76.5t-18 102.5q0 58 17.5 104.5t48 79t71.5 50t89 17.5q41 0 78.5 -15t66.5 -44.5t46 -73t17 -99.5v-30t-1 -29h-297q2 -25 12 -42.5t25.5 -29t34 -17t37.5 -5.5q20 0 38 3t35 11.5t33 24.5l70 -68q-24 -28 -53 -46t-62 -26
t-68 -8zM169 295h163q0 20 -5 34.5t-15 24t-25 14t-34 4.5q-17 0 -31.5 -4.5t-25.5 -14t-18 -24t-9 -34.5zM200 502l-117 147l96 68l82 -177zM360 502l-117 147l96 68l82 -177z" />
    <glyph glyph-name="uni0206" unicode="&#x206;" 
d="M46 0v623h421v-112h-282v-131h231v-112h-231v-156h280v-112h-419zM198 671l-82 37q25 56 65 85.5t92 29.5t92 -29.5t65 -85.5l-82 -37q-15 37 -32.5 55.5t-42.5 18.5q-16 0 -30.5 -8t-25.5 -24t-19 -42z" />
    <glyph glyph-name="uni0207" unicode="&#x207;" 
d="M270 -12q-50 0 -93.5 16.5t-76 47.5t-50.5 76.5t-18 102.5q0 58 17.5 104.5t48 79t71.5 50t89 17.5q41 0 78.5 -15t66.5 -44.5t46 -73t17 -99.5v-30t-1 -29h-297q2 -25 12 -42.5t25.5 -29t34 -17t37.5 -5.5q20 0 38 3t35 11.5t33 24.5l70 -68q-24 -28 -53 -46t-62 -26
t-68 -8zM169 295h163q0 20 -5 34.5t-15 24t-25 14t-34 4.5q-17 0 -31.5 -4.5t-25.5 -14t-18 -24t-9 -34.5zM186 515l-82 37q25 56 65 85.5t92 29.5t92 -29.5t65 -85.5l-82 -37q-15 37 -32.5 55.5t-42.5 18.5q-16 0 -30.5 -8t-25.5 -24t-19 -42z" />
    <glyph glyph-name="uni0208" unicode="&#x208;" 
d="M63 0v113h121v397h-115v113h368v-113h-121v-397h126v-113h-379zM192 658l-117 147l96 68l82 -177zM352 658l-117 147l96 68l82 -177z" />
    <glyph glyph-name="uni0209" unicode="&#x209;" 
d="M74 0v110h112v251h-107v110h249v-361h102v-110h-356zM192 502l-117 147l96 68l82 -177zM352 502l-117 147l96 68l82 -177z" />
    <glyph glyph-name="uni020A" unicode="&#x20a;" 
d="M63 0v113h121v397h-115v113h368v-113h-121v-397h126v-113h-379zM178 671l-82 37q25 56 65 85.5t92 29.5t92 -29.5t65 -85.5l-82 -37q-15 37 -32.5 55.5t-42.5 18.5q-16 0 -30.5 -8t-25.5 -24t-19 -42z" />
    <glyph glyph-name="uni020B" unicode="&#x20b;" 
d="M74 0v110h112v251h-107v110h249v-361h102v-110h-356zM178 515l-82 37q25 56 65 85.5t92 29.5t92 -29.5t65 -85.5l-82 -37q-15 37 -32.5 55.5t-42.5 18.5q-16 0 -30.5 -8t-25.5 -24t-19 -42z" />
    <glyph glyph-name="uni020C" unicode="&#x20c;" 
d="M253 -12q-80 0 -133 38t-79.5 110.5t-26.5 176.5q0 103 26.5 174.5t79.5 109.5t133 38q79 0 132 -38t80 -109.5t27 -174.5q0 -104 -27 -177t-80 -110.5t-132 -37.5zM253 100q31 0 53 22.5t34.5 70t12.5 122.5q0 69 -12.5 115.5t-34.5 69.5t-53 23q-32 0 -54.5 -23
t-34 -69.5t-11.5 -115.5q0 -75 11.5 -122.5t34 -70t54.5 -22.5zM194 663l-117 147l96 68l82 -177zM354 663l-117 147l96 68l82 -177z" />
    <glyph glyph-name="uni020D" unicode="&#x20d;" 
d="M249 -12q-63 0 -115 30.5t-83 86.5t-31 130q0 69 31 125t83 89t115 33t115.5 -33t84 -89t31.5 -125q0 -73 -31.5 -129t-84 -87t-115.5 -31zM249 99q27 0 47.5 17t32.5 47.5t12 71.5q0 44 -12 74t-32.5 46t-47.5 16q-25 0 -45.5 -16t-32.5 -46t-12 -74q0 -41 11.5 -71.5
t32 -47.5t46.5 -17zM193 502l-117 147l96 68l82 -177zM353 502l-117 147l96 68l82 -177z" />
    <glyph glyph-name="uni020E" unicode="&#x20e;" 
d="M253 -12q-80 0 -133 38t-79.5 110.5t-26.5 176.5q0 103 26.5 174.5t79.5 109.5t133 38q79 0 132 -38t80 -109.5t27 -174.5q0 -104 -27 -177t-80 -110.5t-132 -37.5zM253 100q31 0 53 22.5t34.5 70t12.5 122.5q0 69 -12.5 115.5t-34.5 69.5t-53 23q-32 0 -54.5 -23
t-34 -69.5t-11.5 -115.5q0 -75 11.5 -122.5t34 -70t54.5 -22.5zM180 676l-82 37q25 56 65 85.5t92 29.5t92 -29.5t65 -85.5l-82 -37q-15 37 -32.5 55.5t-42.5 18.5q-16 0 -30.5 -8t-25.5 -24t-19 -42z" />
    <glyph glyph-name="uni020F" unicode="&#x20f;" 
d="M249 -12q-63 0 -115 30.5t-83 86.5t-31 130q0 69 31 125t83 89t115 33t115.5 -33t84 -89t31.5 -125q0 -73 -31.5 -129t-84 -87t-115.5 -31zM249 99q27 0 47.5 17t32.5 47.5t12 71.5q0 44 -12 74t-32.5 46t-47.5 16q-25 0 -45.5 -16t-32.5 -46t-12 -74q0 -41 11.5 -71.5
t32 -47.5t46.5 -17zM179 515l-82 37q25 56 65 85.5t92 29.5t92 -29.5t65 -85.5l-82 -37q-15 37 -32.5 55.5t-42.5 18.5q-16 0 -30.5 -8t-25.5 -24t-19 -42z" />
    <glyph glyph-name="uni0210" unicode="&#x210;" 
d="M37 0v623h207q78 0 128.5 -23t75 -65t24.5 -98q0 -34 -13.5 -67.5t-38.5 -61t-59 -43.5l128 -265h-146l-119 248h-43v-248h-144zM181 363h70q35 0 55.5 18.5t20.5 50.5q0 20 -9 36t-26 26t-41 10h-70v-141zM192 658l-117 147l96 68l82 -177zM352 658l-117 147l96 68
l82 -177z" />
    <glyph glyph-name="uni0211" unicode="&#x211;" 
d="M69 471h145v-129l-16 4q3 30 15.5 54.5t32.5 43t44.5 28.5t50.5 10q41 0 73 -13t60 -42l-58 -121l-3 -8l-10 4q-4 8 -6 17.5t-13 21.5q-13 11 -29.5 18.5t-36.5 7.5q-23 0 -42.5 -7t-33.5 -22t-22 -38t-8 -55v-245h-143v471zM222 502l-117 147l96 68l82 -177zM382 502
l-117 147l96 68l82 -177z" />
    <glyph glyph-name="uni0212" unicode="&#x212;" 
d="M37 0v623h207q78 0 128.5 -23t75 -65t24.5 -98q0 -34 -13.5 -67.5t-38.5 -61t-59 -43.5l128 -265h-146l-119 248h-43v-248h-144zM181 363h70q35 0 55.5 18.5t20.5 50.5q0 20 -9 36t-26 26t-41 10h-70v-141zM178 671l-82 37q25 56 65 85.5t92 29.5t92 -29.5t65 -85.5
l-82 -37q-15 37 -32.5 55.5t-42.5 18.5q-16 0 -30.5 -8t-25.5 -24t-19 -42z" />
    <glyph glyph-name="uni0213" unicode="&#x213;" 
d="M69 471h145v-129l-16 4q3 30 15.5 54.5t32.5 43t44.5 28.5t50.5 10q41 0 73 -13t60 -42l-58 -121l-3 -8l-10 4q-4 8 -6 17.5t-13 21.5q-13 11 -29.5 18.5t-36.5 7.5q-23 0 -42.5 -7t-33.5 -22t-22 -38t-8 -55v-245h-143v471zM208 515l-82 37q25 56 65 85.5t92 29.5
t92 -29.5t65 -85.5l-82 -37q-15 37 -32.5 55.5t-42.5 18.5q-16 0 -30.5 -8t-25.5 -24t-19 -42z" />
    <glyph glyph-name="uni0214" unicode="&#x214;" 
d="M249 -14q-104 0 -163 62.5t-59 171.5v403h141h9v-11q-5 -6 -6.5 -13t-1.5 -24v-356q0 -56 17.5 -88t63.5 -32q47 0 65 32.5t18 90.5v401h140v-400q0 -81 -29 -133.5t-79.5 -78t-115.5 -25.5v0zM192 658l-117 147l96 68l82 -177zM352 658l-117 147l96 68l82 -177z" />
    <glyph glyph-name="uni0215" unicode="&#x215;" 
d="M206 -12q-29 0 -54.5 7t-46 22t-35.5 38t-23 55.5t-8 74.5v286h142v-286q0 -23 3.5 -39t10.5 -26.5t16.5 -15t20.5 -4.5q19 0 33.5 6t24 18.5t14 30.5t4.5 42v274h143v-395q0 -24 1.5 -41.5t8.5 -34.5h-127q-5 9 -7 18t-2.5 18t-0.5 18q-10 -17 -23.5 -29.5t-29 -20.5
t-32 -12t-33.5 -4zM192 502l-117 147l96 68l82 -177zM352 502l-117 147l96 68l82 -177z" />
    <glyph glyph-name="uni0216" unicode="&#x216;" 
d="M249 -14q-104 0 -163 62.5t-59 171.5v403h141h9v-11q-5 -6 -6.5 -13t-1.5 -24v-356q0 -56 17.5 -88t63.5 -32q47 0 65 32.5t18 90.5v401h140v-400q0 -81 -29 -133.5t-79.5 -78t-115.5 -25.5v0zM178 671l-82 37q25 56 65 85.5t92 29.5t92 -29.5t65 -85.5l-82 -37
q-15 37 -32.5 55.5t-42.5 18.5q-16 0 -30.5 -8t-25.5 -24t-19 -42z" />
    <glyph glyph-name="uni0217" unicode="&#x217;" 
d="M206 -12q-29 0 -54.5 7t-46 22t-35.5 38t-23 55.5t-8 74.5v286h142v-286q0 -23 3.5 -39t10.5 -26.5t16.5 -15t20.5 -4.5q19 0 33.5 6t24 18.5t14 30.5t4.5 42v274h143v-395q0 -24 1.5 -41.5t8.5 -34.5h-127q-5 9 -7 18t-2.5 18t-0.5 18q-10 -17 -23.5 -29.5t-29 -20.5
t-32 -12t-33.5 -4zM178 515l-82 37q25 56 65 85.5t92 29.5t92 -29.5t65 -85.5l-82 -37q-15 37 -32.5 55.5t-42.5 18.5q-16 0 -30.5 -8t-25.5 -24t-19 -42z" />
    <glyph glyph-name="uni0218" unicode="&#x218;" 
d="M239 -12q-63 0 -121.5 17.5t-94.5 54.5l68 113l5 8l10 -6q2 -7 5.5 -14.5t16.5 -18.5q24 -16 52 -27t58 -12q21 0 37.5 3t28.5 10t18.5 19.5t6.5 30.5q0 9 -2.5 18.5t-8.5 19t-18.5 19.5t-31.5 22t-48 25q-64 31 -101.5 59t-54 61.5t-16.5 80.5q0 46 27.5 83t74.5 59
t103 22q43 0 78.5 -9t66 -27t56.5 -46l-85 -92l-6 -7l-9 8q-1 8 -3 15.5t-13 19.5q-16 14 -34 18.5t-42 4.5q-17 0 -31 -3.5t-24 -10t-15.5 -14.5t-5.5 -17t2 -16.5t8 -15.5t18.5 -17t33 -20.5t51.5 -26.5q48 -24 81 -46t52.5 -45.5t28 -51.5t8.5 -64q0 -47 -24 -89
t-75 -68.5t-131 -26.5v0zM247 -309l-72 59q25 23 36 43.5t11 34.5t-9.5 26.5t-19 28.5t-9.5 40q0 35 24.5 52t55.5 17q42 0 64 -28t22 -73q0 -31 -11 -63.5t-34 -66t-58 -70.5z" />
    <glyph glyph-name="uni0219" unicode="&#x219;" 
d="M265 -12q-46 0 -87.5 7.5t-76.5 24t-64 43.5l56 108l4 8l9 -5q3 -7 6.5 -15.5t15.5 -19.5q28 -21 61.5 -32t76.5 -11q22 0 37.5 5t24 13.5t8.5 18.5t-6.5 17t-19 12.5t-32.5 11.5t-47 13q-50 13 -86.5 32t-56.5 47.5t-20 68.5q0 41 25 74t68.5 53t99.5 20q27 0 53.5 -4.5
t50.5 -13t46 -22t41 -31.5l-65 -95l-6 -8l-9 7q-1 8 -4.5 15t-15.5 18q-19 13 -41.5 18.5t-47.5 5.5q-29 0 -51 -9t-22 -27q0 -12 12 -20t35.5 -14.5t58.5 -14.5q56 -12 92 -32.5t53.5 -49.5t17.5 -67q0 -40 -23 -74.5t-66.5 -55t-104.5 -20.5v0zM229 -309l-72 59
q25 23 36 43.5t11 34.5t-9.5 26.5t-19 28.5t-9.5 40q0 35 24.5 52t55.5 17q42 0 64 -28t22 -73q0 -31 -11 -63.5t-34 -66t-58 -70.5z" />
    <glyph glyph-name="uni021A" unicode="&#x21a;" 
d="M179 0v506h-161v117h466v-117h-171v-506h-134zM239 -309l-72 59q25 23 36 43.5t11 34.5t-9.5 26.5t-19 28.5t-9.5 40q0 35 24.5 52t55.5 17q42 0 64 -28t22 -73q0 -31 -11 -63.5t-34 -66t-58 -70.5z" />
    <glyph glyph-name="uni021B" unicode="&#x21b;" 
d="M299 -12q-37 0 -68 11.5t-53 39t-33 75.5t-8 122l14 340l144 19l9 1l1 -11l-8 -14t-5 -24l-12 -154h6l-8 -150q-3 -57 4.5 -88.5t22 -43.5t30.5 -12q31 0 56.5 13t44.5 29l24 -99q-34 -25 -73.5 -39.5t-87.5 -14.5v0zM51 471h378l-2 -110h-378zM279 -309l-72 59
q25 23 36 43.5t11 34.5t-9.5 26.5t-19 28.5t-9.5 40q0 35 24.5 52t55.5 17q42 0 64 -28t22 -73q0 -31 -11 -63.5t-34 -66t-58 -70.5z" />
    <glyph glyph-name="uni022A" unicode="&#x22a;" 
d="M253 -12q-80 0 -133 38t-79.5 110.5t-26.5 176.5q0 103 26.5 174.5t79.5 109.5t133 38q79 0 132 -38t80 -109.5t27 -174.5q0 -104 -27 -177t-80 -110.5t-132 -37.5zM253 100q31 0 53 22.5t34.5 70t12.5 122.5q0 69 -12.5 115.5t-34.5 69.5t-53 23q-32 0 -54.5 -23
t-34 -69.5t-11.5 -115.5q0 -75 11.5 -122.5t34 -70t54.5 -22.5zM156 685q-32 0 -55 21.5t-23 51.5t23 52t55 22q36 0 57.5 -23.5t21.5 -50.5q0 -30 -23.5 -51.5t-55.5 -21.5zM344 685q-32 0 -55 21t-23 52t23 52.5t55 21.5q37 0 57 -24t20 -50q0 -30 -22.5 -51.5
t-54.5 -21.5zM102 893v89h297v-89h-297z" />
    <glyph glyph-name="uni022B" unicode="&#x22b;" 
d="M249 -12q-63 0 -115 30.5t-83 86.5t-31 130q0 69 31 125t83 89t115 33t115.5 -33t84 -89t31.5 -125q0 -73 -31.5 -129t-84 -87t-115.5 -31zM249 99q27 0 47.5 17t32.5 47.5t12 71.5q0 44 -12 74t-32.5 46t-47.5 16q-25 0 -45.5 -16t-32.5 -46t-12 -74q0 -41 11.5 -71.5
t32 -47.5t46.5 -17zM157 538q-32 0 -55 21.5t-23 51.5t23 52t55 22q36 0 57.5 -23.5t21.5 -50.5q0 -30 -23.5 -51.5t-55.5 -21.5zM345 538q-32 0 -55 21t-23 52t23 52.5t55 21.5q37 0 57 -24t20 -50q0 -30 -22.5 -51.5t-54.5 -21.5zM101 716v89h297v-89h-297z" />
    <glyph glyph-name="uni022C" unicode="&#x22c;" 
d="M253 -12q-80 0 -133 38t-79.5 110.5t-26.5 176.5q0 103 26.5 174.5t79.5 109.5t133 38q79 0 132 -38t80 -109.5t27 -174.5q0 -104 -27 -177t-80 -110.5t-132 -37.5zM253 100q31 0 53 22.5t34.5 70t12.5 122.5q0 69 -12.5 115.5t-34.5 69.5t-53 23q-32 0 -54.5 -23
t-34 -69.5t-11.5 -115.5q0 -75 11.5 -122.5t34 -70t54.5 -22.5zM341 832l64 -30q-17 -39 -41.5 -58.5t-50.5 -19.5q-22 0 -38 8t-28 18.5t-22 18.5t-21 8q-13 0 -22.5 -10.5t-16.5 -27.5l-64 30q15 37 41.5 58t51.5 21q21 0 37.5 -8t30 -18.5t24 -18.5t19.5 -8q11 0 19 7.5
t17 29.5zM93 876v89h297v-89h-297z" />
    <glyph glyph-name="uni022D" unicode="&#x22d;" 
d="M249 -12q-63 0 -115 30.5t-83 86.5t-31 130q0 69 31 125t83 89t115 33t115.5 -33t84 -89t31.5 -125q0 -73 -31.5 -129t-84 -87t-115.5 -31zM249 99q27 0 47.5 17t32.5 47.5t12 71.5q0 44 -12 74t-32.5 46t-47.5 16q-25 0 -45.5 -16t-32.5 -46t-12 -74q0 -41 11.5 -71.5
t32 -47.5t46.5 -17zM350 662l70 -33q-19 -43 -45 -63t-57 -20q-34 0 -54 10t-33 23.5t-22.5 23.5t-22.5 10q-16 0 -28.5 -14.5t-22.5 -35.5l-70 33q18 50 46.5 71t69.5 21q29 0 48 -9.5t32 -22.5t24.5 -22.5t24.5 -9.5q17 0 25 11t15 27zM102 745v89h297v-89h-297z" />
    <glyph glyph-name="uni0230" unicode="&#x230;" 
d="M253 -12q-80 0 -133 38t-79.5 110.5t-26.5 176.5q0 103 26.5 174.5t79.5 109.5t133 38q79 0 132 -38t80 -109.5t27 -174.5q0 -104 -27 -177t-80 -110.5t-132 -37.5zM253 100q31 0 53 22.5t34.5 70t12.5 122.5q0 69 -12.5 115.5t-34.5 69.5t-53 23q-32 0 -54.5 -23
t-34 -69.5t-11.5 -115.5q0 -75 11.5 -122.5t34 -70t54.5 -22.5zM255 680q-35 0 -59.5 23.5t-24.5 55.5q0 35 23.5 57t60.5 22q33 0 58.5 -23.5t25.5 -55.5t-25.5 -55.5t-58.5 -23.5zM106 863v89h297v-89h-297z" />
    <glyph glyph-name="uni0231" unicode="&#x231;" 
d="M249 -12q-63 0 -115 30.5t-83 86.5t-31 130q0 69 31 125t83 89t115 33t115.5 -33t84 -89t31.5 -125q0 -73 -31.5 -129t-84 -87t-115.5 -31zM249 99q27 0 47.5 17t32.5 47.5t12 71.5q0 44 -12 74t-32.5 46t-47.5 16q-25 0 -45.5 -16t-32.5 -46t-12 -74q0 -41 11.5 -71.5
t32 -47.5t46.5 -17zM251 535q-35 0 -59.5 23.5t-24.5 55.5q0 35 23.5 57t60.5 22q33 0 58.5 -23.5t25.5 -55.5t-25.5 -55.5t-58.5 -23.5zM101 716v89h297v-89h-297z" />
    <glyph glyph-name="uni0232" unicode="&#x232;" 
d="M191 0v246l-182 377h141l112 -232l98 232h137l-168 -378v-245h-138zM100 719v89h297v-89h-297z" />
    <glyph glyph-name="uni0233" unicode="&#x233;" 
d="M125 -177q-34 0 -60 12t-55 34l45 97l3 8l10 -4q4 -7 8 -15t17 -18q6 -4 13.5 -6t15.5 -2q16 0 28 9.5t23 29.5t23 53l110 296q15 41 23 77.5t8 76.5h127q-1 -45 -19.5 -96.5t-35.5 -96.5l-116 -311q-30 -80 -71 -112t-97 -32v0zM21 471h139l129 -338l-77 -142zM110 563
v89h297v-89h-297z" />
    <glyph glyph-name="uni0237" unicode="&#x237;" 
d="M189 -177q-50 0 -89.5 19.5t-73.5 56.5l76 100l6 7l9 -6q2 -8 3.5 -16.5t11.5 -21.5q11 -11 24.5 -17.5t32.5 -6.5q23 0 35.5 9t17 27.5t4.5 44.5v342h-157v110h300v-438q0 -75 -29 -121.5t-74.5 -67.5t-96.5 -21v0z" />
    <glyph glyph-name="uni024D" unicode="&#x24d;" 
d="M23 145v111h312v-111h-312zM69 471h145v-129l-16 4q3 30 15.5 54.5t32.5 43t44.5 28.5t50.5 10q41 0 73 -13t60 -42l-58 -121l-3 -8l-10 4q-4 8 -6 17.5t-13 21.5q-13 11 -29.5 18.5t-36.5 7.5q-23 0 -42.5 -7t-33.5 -22t-22 -38t-8 -55v-245h-143v471z" />
    <glyph glyph-name="uni0259" unicode="&#x259;" 
d="M230 483q50 0 93.5 -16.5t76 -47.5t50.5 -76.5t18 -102.5q0 -58 -17.5 -104.5t-48 -79t-71.5 -50t-89 -17.5q-41 0 -78.5 15t-66.5 44.5t-46 73t-17 99.5v30t1 29h297q-1 25 -11.5 42.5t-26 29t-34 17t-37.5 5.5t-37.5 -3t-35.5 -11.5t-33 -24.5l-70 68q24 29 53 46.5
t62 25.5t68 8zM331 176h-163q0 -20 5 -34.5t15 -24t25 -14t34 -4.5q17 0 31.5 4.5t25.5 14t18 24t9 34.5z" />
    <glyph glyph-name="uni027B" unicode="&#x27b;" 
d="M414 -177q-49 0 -79.5 14t-46.5 41.5t-23 68.5t-10 95l-1 19q-12 -20 -32 -36t-43.5 -25t-47.5 -9q-33 0 -66.5 12t-62.5 39l53 108l3 8l10 -5l8 -14t17 -17q11 -7 23 -10.5t30 -3.5q17 0 35.5 9.5t35.5 26t27.5 38.5t10.5 46v245h139l-1 -432q0 -35 2.5 -58t11 -34.5
t25.5 -11.5h8t8 0.5t7 1.5q6 2 9 4.5t5 5t4 3.5l23 -108q-17 -9 -37.5 -15t-44.5 -6v0z" />
    <glyph glyph-name="uni0298" unicode="&#x298;" 
d="M253 -12q-80 0 -133 38t-79.5 110.5t-26.5 176.5q0 103 26.5 174.5t79.5 109.5t133 38q79 0 132 -38t80 -109.5t27 -174.5q0 -104 -27 -177t-80 -110.5t-132 -37.5zM253 100q31 0 53 22.5t34.5 70t12.5 122.5q0 69 -12.5 115.5t-34.5 69.5t-53 23q-32 0 -54.5 -23
t-34 -69.5t-11.5 -115.5q0 -75 11.5 -122.5t34 -70t54.5 -22.5zM252 258q-27 0 -45 17.5t-18 41.5q0 26 17.5 42.5t45.5 16.5q24 0 43 -17.5t19 -41.5t-19 -41.5t-43 -17.5z" />
    <glyph glyph-name="uni029A" unicode="&#x29a;" 
d="M225 -23q-74 0 -119.5 18t-66 50.5t-20.5 74.5q0 29 10.5 51t29.5 40t44 33q-37 19 -54 50t-17 68q0 28 21 57t63 48.5t103 19.5q87 0 145 -30.5t87 -87t29 -133.5q0 -81 -29 -139t-86 -88.5t-140 -31.5zM230 89q43 0 69 14.5t38 46.5t12 85q0 46 -8.5 76.5t-32 46.5
t-68.5 16q-27 0 -43.5 -7.5t-24 -18.5t-7.5 -23q0 -9 6 -20t19.5 -18.5t37.5 -7.5q16 0 25 0.5t26 3.5v-95q-17 1 -22.5 1h-10h-18.5q-25 0 -41 -5t-25 -12t-12 -14.5t-3 -13.5q0 -10 7.5 -23t26 -22.5t49.5 -9.5z" />
    <glyph glyph-name="uni02B9" unicode="&#x2b9;" 
d="M289 529h-74l25 200h113z" />
    <glyph glyph-name="uni02BA" unicode="&#x2ba;" 
d="M356 529h-74l25 200h113zM226 529h-74l25 200h113z" />
    <glyph glyph-name="uni02BB" unicode="&#x2bb;" 
d="M252 669l72 -59q-25 -23 -36 -43.5t-11 -34.5t9.5 -26.5t19 -28.5t9.5 -40q0 -35 -24.5 -52t-55.5 -17q-42 0 -64 28t-22 73q0 32 11 64t34 65.5t58 70.5z" />
    <glyph glyph-name="uni02BC" unicode="&#x2bc;" 
d="M238 427l-78 68q17 17 29.5 28t19 20t6.5 18q0 6 -5 12t-11 13t-11 16t-5 20q0 31 22.5 51t56.5 20t60 -24.5t26 -63.5q0 -23 -12 -50t-36.5 -59t-61.5 -69z" />
    <glyph glyph-name="uni02BE" unicode="&#x2be;" 
d="M188 467v74q11 0 18 5.5t10.5 15.5t3.5 23q0 20 -8 31t-24 11v75q33 0 61.5 -15.5t45.5 -42.5t17 -60q0 -32 -16.5 -59t-44.5 -42.5t-63 -15.5z" />
    <glyph glyph-name="uni02BF" unicode="&#x2bf;" 
d="M312 467q-35 0 -63 15.5t-44.5 42.5t-16.5 59q0 33 17 60t45.5 42.5t61.5 15.5v-75q-16 0 -24 -11t-8 -31q0 -13 3.5 -23t11 -15.5t17.5 -5.5v-74z" />
    <glyph glyph-name="circumflex" unicode="&#x2c6;" 
d="M353 510l-100 92l-105 -92l-57 52l144 143h39l135 -141z" />
    <glyph glyph-name="caron" unicode="&#x2c7;" 
d="M236 510l-118 142l61 55l79 -84l83 83l51 -54l-118 -142h-38z" />
    <glyph glyph-name="uni02C8" unicode="&#x2c8;" 
d="M334 445h-121v220h121v-220z" />
    <glyph glyph-name="uni02C9" unicode="&#x2c9;" 
d="M98 545v109h297v-109h-297z" />
    <glyph glyph-name="uni02CA" unicode="&#x2ca;" 
d="M265 548h-83l96 156h111z" />
    <glyph glyph-name="uni02CB" unicode="&#x2cb;" 
d="M278 514l-108 145l93 65l75 -175z" />
    <glyph glyph-name="uni02CC" unicode="&#x2cc;" 
d="M310 -190h-119v220h119v-220z" />
    <glyph glyph-name="breve" unicode="&#x2d8;" 
d="M249 514q-36 0 -81 19.5t-94 67.5l78 93q23 -41 51 -56t52 -15q23 0 51 14t53 57l61 -92q-24 -29 -53.5 -48.5t-59.5 -29.5t-58 -10z" />
    <glyph glyph-name="dotaccent" unicode="&#x2d9;" 
d="M254 535q-35 0 -59.5 23.5t-24.5 55.5q0 35 23.5 57t60.5 22q33 0 58.5 -23.5t25.5 -55.5t-25.5 -55.5t-58.5 -23.5z" />
    <glyph glyph-name="ring" unicode="&#x2da;" 
d="M244 509q-30 0 -55.5 14.5t-40.5 39t-15 54.5q0 29 15 53t40.5 38.5t55.5 14.5q31 0 57 -14.5t41.5 -38.5t15.5 -53q0 -30 -15.5 -54.5t-41 -39t-57.5 -14.5zM245 587q11 0 18.5 8.5t7.5 22.5t-7.5 23t-18.5 9q-10 0 -18 -9t-8 -23t8 -22.5t18 -8.5z" />
    <glyph glyph-name="ogonek" unicode="&#x2db;" 
d="M401 -131l-64 -114q-53 16 -85 37t-46.5 44t-14.5 45q0 24 17 50.5t50.5 53t81.5 49.5l49 -34q-19 -17 -32 -31.5t-19.5 -25.5t-6.5 -21q0 -17 18 -30t52 -23z" />
    <glyph glyph-name="tilde" unicode="&#x2dc;" 
d="M358 662l70 -33q-19 -43 -45 -63t-57 -20q-34 0 -54 10t-33 23.5t-22.5 23.5t-22.5 10q-16 0 -28.5 -14.5t-22.5 -35.5l-70 33q18 50 46.5 71t69.5 21q29 0 48 -9.5t32 -22.5t24.5 -22.5t24.5 -9.5q17 0 25 11t15 27z" />
    <glyph glyph-name="hungarumlaut" unicode="&#x2dd;" 
d="M333 514l-65 40l79 170l93 -65zM178 514l-65 40l79 170l93 -65z" />
    <glyph glyph-name="gravecomb" unicode="&#x300;" horiz-adv-x="0" 
d="M252 502l-117 147l96 68l82 -177z" />
    <glyph glyph-name="acutecomb" unicode="&#x301;" horiz-adv-x="0" 
d="M257 502l-61 38l82 177l96 -68z" />
    <glyph glyph-name="uni0302" unicode="&#x302;" horiz-adv-x="0" 
d="M134 494l-62 58l150 138h46l150 -138l-62 -58l-112 98z" />
    <glyph glyph-name="tildecomb" unicode="&#x303;" horiz-adv-x="0" 
d="M358 662l70 -33q-19 -43 -45 -63t-57 -20q-34 0 -54 10t-33 23.5t-22.5 23.5t-22.5 10q-16 0 -28.5 -14.5t-22.5 -35.5l-70 33q18 50 46.5 71t69.5 21q29 0 48 -9.5t32 -22.5t24.5 -22.5t24.5 -9.5q17 0 25 11t15 27z" />
    <glyph glyph-name="uni0304" unicode="&#x304;" horiz-adv-x="0" 
d="M98 563v89h297v-89h-297z" />
    <glyph glyph-name="uni0306" unicode="&#x306;" horiz-adv-x="0" 
d="M333 677l82 -37q-25 -55 -65 -85t-92 -30t-92 30t-65 85l82 37q15 -37 32.5 -55.5t42.5 -18.5q17 0 31 8t25.5 24.5t18.5 41.5z" />
    <glyph glyph-name="uni0307" unicode="&#x307;" horiz-adv-x="0" 
d="M254 535q-35 0 -59.5 23.5t-24.5 55.5q0 35 23.5 57t60.5 22q33 0 58.5 -23.5t25.5 -55.5t-25.5 -55.5t-58.5 -23.5z" />
    <glyph glyph-name="uni0308" unicode="&#x308;" horiz-adv-x="0" 
d="M157 538q-32 0 -55 21.5t-23 51.5t23 52t55 22q36 0 57.5 -23.5t21.5 -50.5q0 -30 -23.5 -51.5t-55.5 -21.5zM345 538q-32 0 -55 21t-23 52t23 52.5t55 21.5q37 0 57 -24t20 -50q0 -30 -22.5 -51.5t-54.5 -21.5z" />
    <glyph glyph-name="hookabovecomb" unicode="&#x309;" horiz-adv-x="0" 
d="M377 651q0 -21 -11.5 -38t-26.5 -31t-26.5 -27t-11.5 -26v-9h-83v28q0 17 10.5 30.5t25 24.5t25 21.5t10.5 20.5q0 14 -9.5 22t-24.5 8q-22 0 -37 -9t-26 -32l-44 65q20 25 52.5 37t60.5 11q36 -1 62 -13.5t40 -33.5t14 -49z" />
    <glyph glyph-name="uni030A" unicode="&#x30a;" horiz-adv-x="0" 
d="M244 509q-30 0 -55.5 14.5t-40.5 39t-15 54.5q0 29 15 53t40.5 38.5t55.5 14.5q31 0 57 -14.5t41.5 -38.5t15.5 -53q0 -30 -15.5 -54.5t-41 -39t-57.5 -14.5zM245 587q11 0 18.5 8.5t7.5 22.5t-7.5 23t-18.5 9q-10 0 -18 -9t-8 -23t8 -22.5t18 -8.5z" />
    <glyph glyph-name="uni030B" unicode="&#x30b;" horiz-adv-x="0" 
d="M333 514l-65 40l79 170l93 -65zM178 514l-65 40l79 170l93 -65z" />
    <glyph glyph-name="uni030C" unicode="&#x30c;" horiz-adv-x="0" 
d="M139 714l110 -98l112 98l62 -58l-150 -138h-46l-150 138z" />
    <glyph glyph-name="uni030F" unicode="&#x30f;" horiz-adv-x="0" 
d="M193 502l-117 147l96 68l82 -177zM353 502l-117 147l96 68l82 -177z" />
    <glyph glyph-name="uni0311" unicode="&#x311;" horiz-adv-x="0" 
d="M178 515l-82 37q25 56 65 85.5t92 29.5t92 -29.5t65 -85.5l-82 -37q-15 37 -32.5 55.5t-42.5 18.5q-16 0 -30.5 -8t-25.5 -24t-19 -42z" />
    <glyph glyph-name="uni0312" unicode="&#x312;" horiz-adv-x="0" 
d="M249 825l80 -65q-28 -26 -40.5 -48.5t-12.5 -38.5q0 -12 6.5 -22.5t15 -22t15 -26t6.5 -35.5q0 -38 -27 -57t-62 -19q-46 0 -71 31.5t-25 80.5q0 26 7 52.5t21 54t35.5 56.5t51.5 59z" />
    <glyph glyph-name="uni031B" unicode="&#x31b;" horiz-adv-x="0" 
d="M482 574q0 -73 -16 -113.5t-43 -56.5t-60 -16v83q9 0 13.5 27t4.5 76h101z" />
    <glyph glyph-name="dotbelowcomb" unicode="&#x323;" horiz-adv-x="0" 
d="M244 -185q-35 0 -59.5 23.5t-24.5 55.5q0 35 23.5 57t60.5 22q33 0 58.5 -23.5t25.5 -55.5t-25.5 -55.5t-58.5 -23.5z" />
    <glyph glyph-name="uni0324" unicode="&#x324;" horiz-adv-x="0" 
d="M157 -192q-32 0 -55 21.5t-23 51.5t23 52t55 22q36 0 57.5 -23.5t21.5 -50.5q0 -30 -23.5 -51.5t-55.5 -21.5zM345 -192q-32 0 -55 21t-23 52t23 52.5t55 21.5q37 0 57 -24t20 -50q0 -30 -22.5 -51.5t-54.5 -21.5z" />
    <glyph glyph-name="uni0326" unicode="&#x326;" horiz-adv-x="0" 
d="M229 -309l-72 59q25 23 36 43.5t11 34.5t-9.5 26.5t-19 28.5t-9.5 40q0 35 24.5 52t55.5 17q42 0 64 -28t22 -73q0 -31 -11 -63.5t-34 -66t-58 -70.5z" />
    <glyph glyph-name="uni0327" unicode="&#x327;" horiz-adv-x="0" 
d="M271 -210q-34 0 -68.5 8.5t-72.5 39.5l45 81q31 -27 56.5 -36t51.5 -9q12 0 27.5 5.5t15.5 14.5q0 8 -12.5 11t-31.5 3h-62l13 92h104l-3 -20q22 -2 38.5 -13t25.5 -27t9 -35q0 -49 -38 -82t-98 -33z" />
    <glyph glyph-name="uni0328" unicode="&#x328;" horiz-adv-x="0" 
d="M301 -131l-64 -114q-53 16 -85 37t-46.5 44t-14.5 45q0 24 17 50.5t50.5 53t81.5 49.5l49 -34q-19 -17 -32 -31.5t-19.5 -25.5t-6.5 -21q0 -17 18 -30t52 -23z" />
    <glyph glyph-name="uni032E" unicode="&#x32e;" horiz-adv-x="0" 
d="M333 -46l82 -37q-25 -55 -65 -85t-92 -30t-92 30t-65 85l82 37q15 -37 32.5 -55.5t42.5 -18.5q17 0 31 8t25.5 24.5t18.5 41.5z" />
    <glyph glyph-name="uni0331" unicode="&#x331;" horiz-adv-x="0" 
d="M100 -157v89h297v-89h-297z" />
    <glyph glyph-name="uni0335" unicode="&#x335;" horiz-adv-x="0" 
d="M109 284v81h279v-81h-279z" />
    <glyph glyph-name="uni0336" unicode="&#x336;" horiz-adv-x="0" 
d="M101 265v111h300v-111h-300z" />
    <glyph glyph-name="uni0375" unicode="&#x375;" 
d="M248 -76h-74l67 200h109z" />
    <glyph glyph-name="uni1E08" unicode="&#x1e08;" 
d="M275 -12q-51 0 -96.5 19t-80.5 58t-54.5 99.5t-19.5 143.5q0 73 15.5 128t42 93t60 61.5t70 34t72.5 10.5q73 0 124 -31t79 -90l-78 -70l-7 -6l-7 8q0 8 -2 16t-11 21q-19 22 -41 29.5t-45 7.5q-22 0 -45 -12.5t-42.5 -38t-31.5 -64.5t-12 -92q0 -51 8.5 -90t24 -65.5
t37 -40t47.5 -13.5q24 0 42 5t33 19t29 39l96 -73q-38 -61 -89 -83.5t-118 -22.5v0zM270 -210q-34 0 -68.5 8.5t-72.5 39.5l45 81q31 -27 56.5 -36t51.5 -9q12 0 27.5 5.5t15.5 14.5q0 8 -12.5 11t-31.5 3h-62l13 92h104l-3 -20q22 -2 38.5 -13t25.5 -27t9 -35
q0 -49 -38 -82t-98 -33zM193 649l-32 62l170 99l47 -96z" />
    <glyph glyph-name="uni1E09" unicode="&#x1e09;" 
d="M274 -12q-52 0 -97 17.5t-78.5 50t-52 76.5t-18.5 97q0 52 18.5 98t52 80.5t78.5 54.5t98 20q70 0 120 -24.5t79 -68.5l-75 -85l-6 -7l-9 7q-1 8 -2 17t-11 22q-17 17 -39 23t-50 6q-22 0 -42 -9.5t-36 -27.5t-25 -45t-9 -63q0 -31 9.5 -55.5t25 -40.5t35 -24.5
t39.5 -8.5t39.5 5t39 17.5t37.5 35.5l76 -87q-39 -44 -93 -62.5t-104 -18.5v0zM270 -210q-34 0 -68.5 8.5t-72.5 39.5l45 81q31 -27 56.5 -36t51.5 -9q12 0 27.5 5.5t15.5 14.5q0 8 -12.5 11t-31.5 3h-62l13 92h104l-3 -20q22 -2 38.5 -13t25.5 -27t9 -35q0 -49 -38 -82
t-98 -33zM247 502l-61 38l82 177l96 -68z" />
    <glyph glyph-name="uni1E0C" unicode="&#x1e0c;" 
d="M34 0v623h171q56 0 94 -10t65 -29.5t48 -47.5t36.5 -63.5t24 -76.5t8.5 -89q0 -71 -17 -127.5t-52 -96.5t-89.5 -61.5t-129.5 -21.5h-159zM173 111h18q59 0 92.5 26t47 70.5t13.5 99.5q0 61 -11.5 107t-42.5 72.5t-89 26.5h-28v-402zM237 -185q-35 0 -59.5 23.5
t-24.5 55.5q0 35 23.5 57t60.5 22q33 0 58.5 -23.5t25.5 -55.5t-25.5 -55.5t-58.5 -23.5z" />
    <glyph glyph-name="uni1E0D" unicode="&#x1e0d;" 
d="M220 -12q-41 0 -76.5 15.5t-62 46.5t-41.5 77.5t-15 108.5q0 59 13.5 105t39 77.5t61.5 47.5t80 16q18 0 36.5 -3t34.5 -11t27 -25v232h142h9v-11q-5 -6 -7 -13t-1 -24l-2 -571q0 -14 2 -28t9 -28h-138l-7 14t-2 9v14q-12 -18 -28 -29t-35 -15.5t-39 -4.5v0zM245 98
q17 0 30.5 7t23 22.5t14.5 42.5t5 66q0 52 -8 82.5t-24.5 43.5t-41.5 13q-19 0 -34.5 -10t-25.5 -28.5t-15.5 -45t-5.5 -59.5q0 -43 13 -73t32 -45.5t37 -15.5v0zM246 -185q-35 0 -59.5 23.5t-24.5 55.5q0 35 23.5 57t60.5 22q33 0 58.5 -23.5t25.5 -55.5t-25.5 -55.5
t-58.5 -23.5z" />
    <glyph glyph-name="uni1E0E" unicode="&#x1e0e;" 
d="M34 0v623h171q56 0 94 -10t65 -29.5t48 -47.5t36.5 -63.5t24 -76.5t8.5 -89q0 -71 -17 -127.5t-52 -96.5t-89.5 -61.5t-129.5 -21.5h-159zM173 111h18q59 0 92.5 26t47 70.5t13.5 99.5q0 61 -11.5 107t-42.5 72.5t-89 26.5h-28v-402zM91 -157v89h297v-89h-297z" />
    <glyph glyph-name="uni1E0F" unicode="&#x1e0f;" 
d="M220 -12q-41 0 -76.5 15.5t-62 46.5t-41.5 77.5t-15 108.5q0 59 13.5 105t39 77.5t61.5 47.5t80 16q18 0 36.5 -3t34.5 -11t27 -25v232h142h9v-11q-5 -6 -7 -13t-1 -24l-2 -571q0 -14 2 -28t9 -28h-138l-7 14t-2 9v14q-12 -18 -28 -29t-35 -15.5t-39 -4.5v0zM245 98
q17 0 30.5 7t23 22.5t14.5 42.5t5 66q0 52 -8 82.5t-24.5 43.5t-41.5 13q-19 0 -34.5 -10t-25.5 -28.5t-15.5 -45t-5.5 -59.5q0 -43 13 -73t32 -45.5t37 -15.5v0zM100 -157v89h297v-89h-297z" />
    <glyph glyph-name="uni1E14" unicode="&#x1e14;" 
d="M46 0v623h421v-112h-282v-131h231v-112h-231v-156h280v-112h-419zM120 719v89h297v-89h-297zM346 796l-187 64l52 97l167 -100z" />
    <glyph glyph-name="uni1E15" unicode="&#x1e15;" 
d="M270 -12q-50 0 -93.5 16.5t-76 47.5t-50.5 76.5t-18 102.5q0 58 17.5 104.5t48 79t71.5 50t89 17.5q41 0 78.5 -15t66.5 -44.5t46 -73t17 -99.5v-30t-1 -29h-297q2 -25 12 -42.5t25.5 -29t34 -17t37.5 -5.5q20 0 38 3t35 11.5t33 24.5l70 -68q-24 -28 -53 -46t-62 -26
t-68 -8zM169 295h163q0 20 -5 34.5t-15 24t-25 14t-34 4.5q-17 0 -31.5 -4.5t-25.5 -14t-18 -24t-9 -34.5zM108 563v89h297v-89h-297zM251 648l-117 147l96 68l82 -177z" />
    <glyph glyph-name="uni1E16" unicode="&#x1e16;" 
d="M46 0v623h421v-112h-282v-131h231v-112h-231v-156h280v-112h-419zM120 719v89h297v-89h-297zM193 795l-32 62l170 99l47 -96z" />
    <glyph glyph-name="uni1E17" unicode="&#x1e17;" 
d="M270 -12q-50 0 -93.5 16.5t-76 47.5t-50.5 76.5t-18 102.5q0 58 17.5 104.5t48 79t71.5 50t89 17.5q41 0 78.5 -15t66.5 -44.5t46 -73t17 -99.5v-30t-1 -29h-297q2 -25 12 -42.5t25.5 -29t34 -17t37.5 -5.5q20 0 38 3t35 11.5t33 24.5l70 -68q-24 -28 -53 -46t-62 -26
t-68 -8zM169 295h163q0 20 -5 34.5t-15 24t-25 14t-34 4.5q-17 0 -31.5 -4.5t-25.5 -14t-18 -24t-9 -34.5zM108 563v89h297v-89h-297zM235 648l-61 38l82 177l96 -68z" />
    <glyph glyph-name="uni1E1C" unicode="&#x1e1c;" 
d="M46 0v623h421v-112h-282v-131h231v-112h-231v-156h280v-112h-419zM250 -210q-34 0 -68.5 8.5t-72.5 39.5l45 81q31 -27 56.5 -36t51.5 -9q12 0 27.5 5.5t15.5 14.5q0 8 -12.5 11t-31.5 3h-62l13 92h104l-3 -20q22 -2 38.5 -13t25.5 -27t9 -35q0 -49 -38 -82t-98 -33z
M345 812l82 -37q-25 -55 -65 -85t-92 -30t-92 30t-65 85l82 37q15 -37 32.5 -55.5t42.5 -18.5q17 0 31 8t25.5 24.5t18.5 41.5z" />
    <glyph glyph-name="uni1E1D" unicode="&#x1e1d;" 
d="M270 -12q-50 0 -93.5 16.5t-76 47.5t-50.5 76.5t-18 102.5q0 58 17.5 104.5t48 79t71.5 50t89 17.5q41 0 78.5 -15t66.5 -44.5t46 -73t17 -99.5v-30t-1 -29h-297q2 -25 12 -42.5t25.5 -29t34 -17t37.5 -5.5q20 0 38 3t35 11.5t33 24.5l70 -68q-24 -28 -53 -46t-62 -26
t-68 -8zM169 295h163q0 20 -5 34.5t-15 24t-25 14t-34 4.5q-17 0 -31.5 -4.5t-25.5 -14t-18 -24t-9 -34.5zM260 -210q-34 0 -68.5 8.5t-72.5 39.5l45 81q31 -27 56.5 -36t51.5 -9q12 0 27.5 5.5t15.5 14.5q0 8 -12.5 11t-31.5 3h-62l13 92h104l-3 -20q22 -2 38.5 -13
t25.5 -27t9 -35q0 -49 -38 -82t-98 -33zM333 677l82 -37q-25 -55 -65 -85t-92 -30t-92 30t-65 85l82 37q15 -37 32.5 -55.5t42.5 -18.5q17 0 31 8t25.5 24.5t18.5 41.5z" />
    <glyph glyph-name="uni1E20" unicode="&#x1e20;" 
d="M276 -12q-81 0 -139 40.5t-88.5 113.5t-30.5 170q0 79 17.5 134.5t46.5 92.5t63.5 58t68.5 29.5t62 8.5q43 0 82 -12.5t70.5 -37t51.5 -61.5l-77 -83l-6 -7l-9 8q-1 8 -2.5 16t-11.5 21q-9 11 -21 20t-29.5 15t-42.5 6q-19 0 -37 -7t-33.5 -22.5t-27.5 -39t-18.5 -56.5
t-6.5 -76q0 -57 9 -98t24.5 -68t37.5 -40t47 -13q11 0 21 1.5t20 4t19 8t19 12.5v94h-96v115h222v-282q-45 -37 -97.5 -51t-107.5 -14v0zM117 719v89h297v-89h-297z" />
    <glyph glyph-name="uni1E21" unicode="&#x1e21;" 
d="M233 -183q-50 0 -89.5 9.5t-66.5 26.5t-41 40t-14 49q0 22 12 42t33 36.5t46 26.5l65 -23q-11 -9 -24.5 -17.5t-22.5 -18t-9 -22.5q0 -11 10 -18.5t27.5 -12t40 -6.5t48.5 -2q33 0 57.5 5t38 15t13.5 23q0 11 -8 17t-26 8.5t-47 2.5q-31 0 -63.5 2.5t-62.5 9.5t-54.5 19
t-38.5 30.5t-14 45.5q0 37 23 61.5t53 42.5l63 -31q-9 -8 -17.5 -12.5t-14 -9t-5.5 -14.5q0 -9 18 -16t56 -10.5t98 -3.5q39 0 67.5 -10.5t47 -29t27.5 -41.5t9 -49q0 -31 -14.5 -60.5t-44 -53t-73.5 -37.5t-103 -14zM232 158q-49 0 -90.5 21t-66 57t-24.5 82t24.5 83t66 59
t90.5 22q50 0 91 -22t65.5 -59t24.5 -83t-24.5 -82t-65.5 -57t-91 -21zM231 255q18 0 32 7.5t22.5 22t8.5 33.5t-8.5 32t-23 20.5t-31.5 7.5q-14 0 -28 -8t-23.5 -21.5t-9.5 -30.5t8.5 -31.5t22.5 -23t30 -8.5zM384 378l-53 67q28 18 67 29t80 8l12 -90q-28 7 -57 2.5
t-49 -16.5zM85 563v89h297v-89h-297z" />
    <glyph glyph-name="uni1E24" unicode="&#x1e24;" 
d="M30 623h141h9v-11q-5 -6 -6.5 -13t-1.5 -24v-196h157v244h141h9v-11q-5 -6 -6.5 -13t-1.5 -24v-575h-142v269h-157v-269h-142v623zM246 -185q-35 0 -59.5 23.5t-24.5 55.5q0 35 23.5 57t60.5 22q33 0 58.5 -23.5t25.5 -55.5t-25.5 -55.5t-58.5 -23.5z" />
    <glyph glyph-name="uni1E25" unicode="&#x1e25;" 
d="M43 675h142h9v-11q-5 -6 -6.5 -13t-1.5 -24v-204q16 22 37 34.5t44.5 18.5t45.5 6q48 0 82.5 -20.5t53.5 -64.5t19 -114v-283h-142v282q0 36 -6 57.5t-17.5 30.5t-29.5 9q-17 0 -30.5 -5t-24 -14t-18 -22.5t-11 -30.5t-3.5 -37v-270h-143v675zM246 -185q-35 0 -59.5 23.5
t-24.5 55.5q0 35 23.5 57t60.5 22q33 0 58.5 -23.5t25.5 -55.5t-25.5 -55.5t-58.5 -23.5z" />
    <glyph glyph-name="uni1E2A" unicode="&#x1e2a;" 
d="M30 623h141h9v-11q-5 -6 -6.5 -13t-1.5 -24v-196h157v244h141h9v-11q-5 -6 -6.5 -13t-1.5 -24v-575h-142v269h-157v-269h-142v623zM335 -46l82 -37q-25 -55 -65 -85t-92 -30t-92 30t-65 85l82 37q15 -37 32.5 -55.5t42.5 -18.5q17 0 31 8t25.5 24.5t18.5 41.5z" />
    <glyph glyph-name="uni1E2B" unicode="&#x1e2b;" 
d="M43 675h142h9v-11q-5 -6 -6.5 -13t-1.5 -24v-204q16 22 37 34.5t44.5 18.5t45.5 6q48 0 82.5 -20.5t53.5 -64.5t19 -114v-283h-142v282q0 36 -6 57.5t-17.5 30.5t-29.5 9q-17 0 -30.5 -5t-24 -14t-18 -22.5t-11 -30.5t-3.5 -37v-270h-143v675zM335 -46l82 -37
q-25 -55 -65 -85t-92 -30t-92 30t-65 85l82 37q15 -37 32.5 -55.5t42.5 -18.5q17 0 31 8t25.5 24.5t18.5 41.5z" />
    <glyph glyph-name="uni1E2E" unicode="&#x1e2e;" 
d="M63 0v113h121v397h-115v113h368v-113h-121v-397h126v-113h-379zM154 680q-32 0 -55 21.5t-23 51.5t23 52t55 22q36 0 57.5 -23.5t21.5 -50.5q0 -30 -23.5 -51.5t-55.5 -21.5zM342 680q-32 0 -55 21t-23 52t23 52.5t55 21.5q37 0 57 -24t20 -50q0 -30 -22.5 -51.5
t-54.5 -21.5zM173 818l-32 62l170 99l47 -96z" />
    <glyph glyph-name="uni1E2F" unicode="&#x1e2f;" 
d="M74 0v110h112v251h-107v110h249v-361h102v-110h-356zM156 538q-32 0 -55 21.5t-23 51.5t23 52t55 22q36 0 57.5 -23.5t21.5 -50.5q0 -30 -23.5 -51.5t-55.5 -21.5zM344 538q-32 0 -55 21t-23 52t23 52.5t55 21.5q37 0 57 -24t20 -50q0 -30 -22.5 -51.5t-54.5 -21.5z
M227 655l-61 38l82 177l96 -68z" />
    <glyph glyph-name="uni1E36" unicode="&#x1e36;" 
d="M51 623h141h9v-11q-5 -6 -6.5 -13t-1.5 -24v-461h276v-114h-418v623zM246 -185q-35 0 -59.5 23.5t-24.5 55.5q0 35 23.5 57t60.5 22q33 0 58.5 -23.5t25.5 -55.5t-25.5 -55.5t-58.5 -23.5z" />
    <glyph glyph-name="uni1E37" unicode="&#x1e37;" 
d="M52 0v110h128v455h-122v110h264v-565h127v-110h-397zM246 -185q-35 0 -59.5 23.5t-24.5 55.5q0 35 23.5 57t60.5 22q33 0 58.5 -23.5t25.5 -55.5t-25.5 -55.5t-58.5 -23.5z" />
    <glyph glyph-name="uni1E3A" unicode="&#x1e3a;" 
d="M51 623h141h9v-11q-5 -6 -6.5 -13t-1.5 -24v-461h276v-114h-418v623zM100 -157v89h297v-89h-297z" />
    <glyph glyph-name="uni1E3B" unicode="&#x1e3b;" 
d="M52 0v110h128v455h-122v110h264v-565h127v-110h-397zM100 -157v89h297v-89h-297z" />
    <glyph glyph-name="uni1E42" unicode="&#x1e42;" 
d="M26 0v623h128l99 -273l98 274h129v-624h-119v412l-73 -215h-74l-70 215v-412h-118zM246 -185q-35 0 -59.5 23.5t-24.5 55.5q0 35 23.5 57t60.5 22q33 0 58.5 -23.5t25.5 -55.5t-25.5 -55.5t-58.5 -23.5z" />
    <glyph glyph-name="uni1E43" unicode="&#x1e43;" 
d="M25 0v471h114v-27q12 15 24 23t24.5 11.5t24.5 3.5q15 0 29 -4t27 -14.5t22 -31.5q12 19 25 29.5t30.5 15.5t39.5 5q27 0 45.5 -9.5t30.5 -27.5t17.5 -45t5.5 -62v-338h-119v315q0 23 -1.5 37.5t-5 21.5t-11.5 7q-9 0 -18 -8.5t-14.5 -27t-5.5 -49.5v-296h-109v314
q0 43 -5 57t-16 14q-8 0 -14.5 -5t-11 -15.5t-7 -26t-2.5 -35.5v-303h-119zM246 -185q-35 0 -59.5 23.5t-24.5 55.5q0 35 23.5 57t60.5 22q33 0 58.5 -23.5t25.5 -55.5t-25.5 -55.5t-58.5 -23.5z" />
    <glyph glyph-name="uni1E44" unicode="&#x1e44;" 
d="M28 623h151l178 -376l-10 376h124h9v-11q-5 -6 -6.5 -13t-1.5 -24v-575h-138l-181 401v-401h-125v623zM253 675q-35 0 -59.5 23.5t-24.5 55.5q0 35 23.5 57t60.5 22q33 0 58.5 -23.5t25.5 -55.5t-25.5 -55.5t-58.5 -23.5z" />
    <glyph glyph-name="uni1E45" unicode="&#x1e45;" 
d="M43 0v471h143v-54q16 19 33 33.5t38.5 23t48.5 8.5q42 0 79 -20.5t60 -64t23 -114.5v-283h-142v282q0 32 -6 53.5t-19 32.5t-33 11q-16 0 -31 -6.5t-26.5 -18.5t-18 -29t-6.5 -38v-287h-143zM260 535q-35 0 -59.5 23.5t-24.5 55.5q0 35 23.5 57t60.5 22q33 0 58.5 -23.5
t25.5 -55.5t-25.5 -55.5t-58.5 -23.5z" />
    <glyph glyph-name="uni1E46" unicode="&#x1e46;" 
d="M28 623h151l178 -376l-10 376h124h9v-11q-5 -6 -6.5 -13t-1.5 -24v-575h-138l-181 401v-401h-125v623zM246 -185q-35 0 -59.5 23.5t-24.5 55.5q0 35 23.5 57t60.5 22q33 0 58.5 -23.5t25.5 -55.5t-25.5 -55.5t-58.5 -23.5z" />
    <glyph glyph-name="uni1E47" unicode="&#x1e47;" 
d="M43 0v471h143v-54q16 19 33 33.5t38.5 23t48.5 8.5q42 0 79 -20.5t60 -64t23 -114.5v-283h-142v282q0 32 -6 53.5t-19 32.5t-33 11q-16 0 -31 -6.5t-26.5 -18.5t-18 -29t-6.5 -38v-287h-143zM256 -185q-35 0 -59.5 23.5t-24.5 55.5q0 35 23.5 57t60.5 22q33 0 58.5 -23.5
t25.5 -55.5t-25.5 -55.5t-58.5 -23.5z" />
    <glyph glyph-name="uni1E48" unicode="&#x1e48;" 
d="M28 623h151l178 -376l-10 376h124h9v-11q-5 -6 -6.5 -13t-1.5 -24v-575h-138l-181 401v-401h-125v623zM100 -157v89h297v-89h-297z" />
    <glyph glyph-name="uni1E49" unicode="&#x1e49;" 
d="M43 0v471h143v-54q16 19 33 33.5t38.5 23t48.5 8.5q42 0 79 -20.5t60 -64t23 -114.5v-283h-142v282q0 32 -6 53.5t-19 32.5t-33 11q-16 0 -31 -6.5t-26.5 -18.5t-18 -29t-6.5 -38v-287h-143zM110 -157v89h297v-89h-297z" />
    <glyph glyph-name="uni1E4C" unicode="&#x1e4c;" 
d="M253 -12q-80 0 -133 38t-79.5 110.5t-26.5 176.5q0 103 26.5 174.5t79.5 109.5t133 38q79 0 132 -38t80 -109.5t27 -174.5q0 -104 -27 -177t-80 -110.5t-132 -37.5zM253 100q31 0 53 22.5t34.5 70t12.5 122.5q0 69 -12.5 115.5t-34.5 69.5t-53 23q-32 0 -54.5 -23
t-34 -69.5t-11.5 -115.5q0 -75 11.5 -122.5t34 -70t54.5 -22.5zM351 791l70 -33q-19 -43 -45 -63t-57 -20q-34 0 -54 10t-33 23.5t-22.5 23.5t-22.5 10q-16 0 -28.5 -14.5t-22.5 -35.5l-70 33q18 50 46.5 71t69.5 21q29 0 48 -9.5t32 -22.5t24.5 -22.5t24.5 -9.5q17 0 25 11
t15 27zM175 826l-32 62l170 99l47 -96z" />
    <glyph glyph-name="uni1E4D" unicode="&#x1e4d;" 
d="M249 -12q-63 0 -115 30.5t-83 86.5t-31 130q0 69 31 125t83 89t115 33t115.5 -33t84 -89t31.5 -125q0 -73 -31.5 -129t-84 -87t-115.5 -31zM249 99q27 0 47.5 17t32.5 47.5t12 71.5q0 44 -12 74t-32.5 46t-47.5 16q-25 0 -45.5 -16t-32.5 -46t-12 -74q0 -41 11.5 -71.5
t32 -47.5t46.5 -17zM350 662l70 -33q-19 -43 -45 -63t-57 -20q-34 0 -54 10t-33 23.5t-22.5 23.5t-22.5 10q-16 0 -28.5 -14.5t-22.5 -35.5l-70 33q18 50 46.5 71t69.5 21q29 0 48 -9.5t32 -22.5t24.5 -22.5t24.5 -9.5q17 0 25 11t15 27zM229 684l-61 38l82 177l96 -68z" />
    <glyph glyph-name="uni1E4E" unicode="&#x1e4e;" 
d="M253 -12q-80 0 -133 38t-79.5 110.5t-26.5 176.5q0 103 26.5 174.5t79.5 109.5t133 38q79 0 132 -38t80 -109.5t27 -174.5q0 -104 -27 -177t-80 -110.5t-132 -37.5zM253 100q31 0 53 22.5t34.5 70t12.5 122.5q0 69 -12.5 115.5t-34.5 69.5t-53 23q-32 0 -54.5 -23
t-34 -69.5t-11.5 -115.5q0 -75 11.5 -122.5t34 -70t54.5 -22.5zM351 791l70 -33q-19 -43 -45 -63t-57 -20q-34 0 -54 10t-33 23.5t-22.5 23.5t-22.5 10q-16 0 -28.5 -14.5t-22.5 -35.5l-70 33q18 50 46.5 71t69.5 21q29 0 48 -9.5t32 -22.5t24.5 -22.5t24.5 -9.5q17 0 25 11
t15 27zM156 857q-32 0 -55 21.5t-23 51.5t23 52t55 22q36 0 57.5 -23.5t21.5 -50.5q0 -30 -23.5 -51.5t-55.5 -21.5zM344 857q-32 0 -55 21t-23 52t23 52.5t55 21.5q37 0 57 -24t20 -50q0 -30 -22.5 -51.5t-54.5 -21.5z" />
    <glyph glyph-name="uni1E4F" unicode="&#x1e4f;" 
d="M249 -12q-63 0 -115 30.5t-83 86.5t-31 130q0 69 31 125t83 89t115 33t115.5 -33t84 -89t31.5 -125q0 -73 -31.5 -129t-84 -87t-115.5 -31zM249 99q27 0 47.5 17t32.5 47.5t12 71.5q0 44 -12 74t-32.5 46t-47.5 16q-25 0 -45.5 -16t-32.5 -46t-12 -74q0 -41 11.5 -71.5
t32 -47.5t46.5 -17zM350 662l70 -33q-19 -43 -45 -63t-57 -20q-34 0 -54 10t-33 23.5t-22.5 23.5t-22.5 10q-16 0 -28.5 -14.5t-22.5 -35.5l-70 33q18 50 46.5 71t69.5 21q29 0 48 -9.5t32 -22.5t24.5 -22.5t24.5 -9.5q17 0 25 11t15 27zM158 720q-32 0 -55 21.5t-23 51.5
t23 52t55 22q36 0 57.5 -23.5t21.5 -50.5q0 -30 -23.5 -51.5t-55.5 -21.5zM346 720q-32 0 -55 21t-23 52t23 52.5t55 21.5q37 0 57 -24t20 -50q0 -30 -22.5 -51.5t-54.5 -21.5z" />
    <glyph glyph-name="uni1E50" unicode="&#x1e50;" 
d="M253 -12q-80 0 -133 38t-79.5 110.5t-26.5 176.5q0 103 26.5 174.5t79.5 109.5t133 38q79 0 132 -38t80 -109.5t27 -174.5q0 -104 -27 -177t-80 -110.5t-132 -37.5zM253 100q31 0 53 22.5t34.5 70t12.5 122.5q0 69 -12.5 115.5t-34.5 69.5t-53 23q-32 0 -54.5 -23
t-34 -69.5t-11.5 -115.5q0 -75 11.5 -122.5t34 -70t54.5 -22.5zM102 724v89h297v-89h-297zM328 801l-187 64l52 97l167 -100z" />
    <glyph glyph-name="uni1E51" unicode="&#x1e51;" 
d="M249 -12q-63 0 -115 30.5t-83 86.5t-31 130q0 69 31 125t83 89t115 33t115.5 -33t84 -89t31.5 -125q0 -73 -31.5 -129t-84 -87t-115.5 -31zM249 99q27 0 47.5 17t32.5 47.5t12 71.5q0 44 -12 74t-32.5 46t-47.5 16q-25 0 -45.5 -16t-32.5 -46t-12 -74q0 -41 11.5 -71.5
t32 -47.5t46.5 -17zM101 563v89h297v-89h-297zM244 648l-117 147l96 68l82 -177z" />
    <glyph glyph-name="uni1E52" unicode="&#x1e52;" 
d="M253 -12q-80 0 -133 38t-79.5 110.5t-26.5 176.5q0 103 26.5 174.5t79.5 109.5t133 38q79 0 132 -38t80 -109.5t27 -174.5q0 -104 -27 -177t-80 -110.5t-132 -37.5zM253 100q31 0 53 22.5t34.5 70t12.5 122.5q0 69 -12.5 115.5t-34.5 69.5t-53 23q-32 0 -54.5 -23
t-34 -69.5t-11.5 -115.5q0 -75 11.5 -122.5t34 -70t54.5 -22.5zM102 724v89h297v-89h-297zM175 800l-32 62l170 99l47 -96z" />
    <glyph glyph-name="uni1E53" unicode="&#x1e53;" 
d="M249 -12q-63 0 -115 30.5t-83 86.5t-31 130q0 69 31 125t83 89t115 33t115.5 -33t84 -89t31.5 -125q0 -73 -31.5 -129t-84 -87t-115.5 -31zM249 99q27 0 47.5 17t32.5 47.5t12 71.5q0 44 -12 74t-32.5 46t-47.5 16q-25 0 -45.5 -16t-32.5 -46t-12 -74q0 -41 11.5 -71.5
t32 -47.5t46.5 -17zM101 563v89h297v-89h-297zM228 648l-61 38l82 177l96 -68z" />
    <glyph glyph-name="uni1E5A" unicode="&#x1e5a;" 
d="M37 0v623h207q78 0 128.5 -23t75 -65t24.5 -98q0 -34 -13.5 -67.5t-38.5 -61t-59 -43.5l128 -265h-146l-119 248h-43v-248h-144zM181 363h70q35 0 55.5 18.5t20.5 50.5q0 20 -9 36t-26 26t-41 10h-70v-141zM246 -185q-35 0 -59.5 23.5t-24.5 55.5q0 35 23.5 57t60.5 22
q33 0 58.5 -23.5t25.5 -55.5t-25.5 -55.5t-58.5 -23.5z" />
    <glyph glyph-name="uni1E5B" unicode="&#x1e5b;" 
d="M69 471h145v-129l-16 4q3 30 15.5 54.5t32.5 43t44.5 28.5t50.5 10q41 0 73 -13t60 -42l-58 -121l-3 -8l-10 4q-4 8 -6 17.5t-13 21.5q-13 11 -29.5 18.5t-36.5 7.5q-23 0 -42.5 -7t-33.5 -22t-22 -38t-8 -55v-245h-143v471zM296 -185q-35 0 -59.5 23.5t-24.5 55.5
q0 35 23.5 57t60.5 22q33 0 58.5 -23.5t25.5 -55.5t-25.5 -55.5t-58.5 -23.5z" />
    <glyph glyph-name="uni1E5E" unicode="&#x1e5e;" 
d="M37 0v623h207q78 0 128.5 -23t75 -65t24.5 -98q0 -34 -13.5 -67.5t-38.5 -61t-59 -43.5l128 -265h-146l-119 248h-43v-248h-144zM181 363h70q35 0 55.5 18.5t20.5 50.5q0 20 -9 36t-26 26t-41 10h-70v-141zM100 -157v89h297v-89h-297z" />
    <glyph glyph-name="uni1E5F" unicode="&#x1e5f;" 
d="M69 471h145v-129l-16 4q3 30 15.5 54.5t32.5 43t44.5 28.5t50.5 10q41 0 73 -13t60 -42l-58 -121l-3 -8l-10 4q-4 8 -6 17.5t-13 21.5q-13 11 -29.5 18.5t-36.5 7.5q-23 0 -42.5 -7t-33.5 -22t-22 -38t-8 -55v-245h-143v471zM150 -157v89h297v-89h-297z" />
    <glyph glyph-name="uni1E60" unicode="&#x1e60;" 
d="M239 -12q-63 0 -121.5 17.5t-94.5 54.5l68 113l5 8l10 -6q2 -7 5.5 -14.5t16.5 -18.5q24 -16 52 -27t58 -12q21 0 37.5 3t28.5 10t18.5 19.5t6.5 30.5q0 9 -2.5 18.5t-8.5 19t-18.5 19.5t-31.5 22t-48 25q-64 31 -101.5 59t-54 61.5t-16.5 80.5q0 46 27.5 83t74.5 59
t103 22q43 0 78.5 -9t66 -27t56.5 -46l-85 -92l-6 -7l-9 8q-1 8 -3 15.5t-13 19.5q-16 14 -34 18.5t-42 4.5q-17 0 -31 -3.5t-24 -10t-15.5 -14.5t-5.5 -17t2 -16.5t8 -15.5t18.5 -17t33 -20.5t51.5 -26.5q48 -24 81 -46t52.5 -45.5t28 -51.5t8.5 -64q0 -47 -24 -89
t-75 -68.5t-131 -26.5v0zM253 675q-35 0 -59.5 23.5t-24.5 55.5q0 35 23.5 57t60.5 22q33 0 58.5 -23.5t25.5 -55.5t-25.5 -55.5t-58.5 -23.5z" />
    <glyph glyph-name="uni1E61" unicode="&#x1e61;" 
d="M265 -12q-46 0 -87.5 7.5t-76.5 24t-64 43.5l56 108l4 8l9 -5q3 -7 6.5 -15.5t15.5 -19.5q28 -21 61.5 -32t76.5 -11q22 0 37.5 5t24 13.5t8.5 18.5t-6.5 17t-19 12.5t-32.5 11.5t-47 13q-50 13 -86.5 32t-56.5 47.5t-20 68.5q0 41 25 74t68.5 53t99.5 20q27 0 53.5 -4.5
t50.5 -13t46 -22t41 -31.5l-65 -95l-6 -8l-9 7q-1 8 -4.5 15t-15.5 18q-19 13 -41.5 18.5t-47.5 5.5q-29 0 -51 -9t-22 -27q0 -12 12 -20t35.5 -14.5t58.5 -14.5q56 -12 92 -32.5t53.5 -49.5t17.5 -67q0 -40 -23 -74.5t-66.5 -55t-104.5 -20.5v0zM254 535q-35 0 -59.5 23.5
t-24.5 55.5q0 35 23.5 57t60.5 22q33 0 58.5 -23.5t25.5 -55.5t-25.5 -55.5t-58.5 -23.5z" />
    <glyph glyph-name="uni1E62" unicode="&#x1e62;" 
d="M239 -12q-63 0 -121.5 17.5t-94.5 54.5l68 113l5 8l10 -6q2 -7 5.5 -14.5t16.5 -18.5q24 -16 52 -27t58 -12q21 0 37.5 3t28.5 10t18.5 19.5t6.5 30.5q0 9 -2.5 18.5t-8.5 19t-18.5 19.5t-31.5 22t-48 25q-64 31 -101.5 59t-54 61.5t-16.5 80.5q0 46 27.5 83t74.5 59
t103 22q43 0 78.5 -9t66 -27t56.5 -46l-85 -92l-6 -7l-9 8q-1 8 -3 15.5t-13 19.5q-16 14 -34 18.5t-42 4.5q-17 0 -31 -3.5t-24 -10t-15.5 -14.5t-5.5 -17t2 -16.5t8 -15.5t18.5 -17t33 -20.5t51.5 -26.5q48 -24 81 -46t52.5 -45.5t28 -51.5t8.5 -64q0 -47 -24 -89
t-75 -68.5t-131 -26.5v0zM254 -185q-35 0 -59.5 23.5t-24.5 55.5q0 35 23.5 57t60.5 22q33 0 58.5 -23.5t25.5 -55.5t-25.5 -55.5t-58.5 -23.5z" />
    <glyph glyph-name="uni1E63" unicode="&#x1e63;" 
d="M265 -12q-46 0 -87.5 7.5t-76.5 24t-64 43.5l56 108l4 8l9 -5q3 -7 6.5 -15.5t15.5 -19.5q28 -21 61.5 -32t76.5 -11q22 0 37.5 5t24 13.5t8.5 18.5t-6.5 17t-19 12.5t-32.5 11.5t-47 13q-50 13 -86.5 32t-56.5 47.5t-20 68.5q0 41 25 74t68.5 53t99.5 20q27 0 53.5 -4.5
t50.5 -13t46 -22t41 -31.5l-65 -95l-6 -8l-9 7q-1 8 -4.5 15t-15.5 18q-19 13 -41.5 18.5t-47.5 5.5q-29 0 -51 -9t-22 -27q0 -12 12 -20t35.5 -14.5t58.5 -14.5q56 -12 92 -32.5t53.5 -49.5t17.5 -67q0 -40 -23 -74.5t-66.5 -55t-104.5 -20.5v0zM244 -185q-35 0 -59.5 23.5
t-24.5 55.5q0 35 23.5 57t60.5 22q33 0 58.5 -23.5t25.5 -55.5t-25.5 -55.5t-58.5 -23.5z" />
    <glyph glyph-name="uni1E64" unicode="&#x1e64;" 
d="M239 -12q-63 0 -121.5 17.5t-94.5 54.5l68 113l5 8l10 -6q2 -7 5.5 -14.5t16.5 -18.5q24 -16 52 -27t58 -12q21 0 37.5 3t28.5 10t18.5 19.5t6.5 30.5q0 9 -2.5 18.5t-8.5 19t-18.5 19.5t-31.5 22t-48 25q-64 31 -101.5 59t-54 61.5t-16.5 80.5q0 46 27.5 83t74.5 59
t103 22q43 0 78.5 -9t66 -27t56.5 -46l-85 -92l-6 -7l-9 8q-1 8 -3 15.5t-13 19.5q-16 14 -34 18.5t-42 4.5q-17 0 -31 -3.5t-24 -10t-15.5 -14.5t-5.5 -17t2 -16.5t8 -15.5t18.5 -17t33 -20.5t51.5 -26.5q48 -24 81 -46t52.5 -45.5t28 -51.5t8.5 -64q0 -47 -24 -89
t-75 -68.5t-131 -26.5v0zM173 649l-32 62l170 99l47 -96zM253 808q-35 0 -59.5 23.5t-24.5 55.5q0 35 23.5 57t60.5 22q33 0 58.5 -23.5t25.5 -55.5t-25.5 -55.5t-58.5 -23.5z" />
    <glyph glyph-name="uni1E65" unicode="&#x1e65;" 
d="M265 -12q-46 0 -87.5 7.5t-76.5 24t-64 43.5l56 108l4 8l9 -5q3 -7 6.5 -15.5t15.5 -19.5q28 -21 61.5 -32t76.5 -11q22 0 37.5 5t24 13.5t8.5 18.5t-6.5 17t-19 12.5t-32.5 11.5t-47 13q-50 13 -86.5 32t-56.5 47.5t-20 68.5q0 41 25 74t68.5 53t99.5 20q27 0 53.5 -4.5
t50.5 -13t46 -22t41 -31.5l-65 -95l-6 -8l-9 7q-1 8 -4.5 15t-15.5 18q-19 13 -41.5 18.5t-47.5 5.5q-29 0 -51 -9t-22 -27q0 -12 12 -20t35.5 -14.5t58.5 -14.5q56 -12 92 -32.5t53.5 -49.5t17.5 -67q0 -40 -23 -74.5t-66.5 -55t-104.5 -20.5v0zM257 502l-61 38l82 177
l96 -68zM280 722q-35 0 -59.5 23.5t-24.5 55.5q0 35 23.5 57t60.5 22q33 0 58.5 -23.5t25.5 -55.5t-25.5 -55.5t-58.5 -23.5z" />
    <glyph glyph-name="uni1E66" unicode="&#x1e66;" 
d="M239 -12q-63 0 -121.5 17.5t-94.5 54.5l68 113l5 8l10 -6q2 -7 5.5 -14.5t16.5 -18.5q24 -16 52 -27t58 -12q21 0 37.5 3t28.5 10t18.5 19.5t6.5 30.5q0 9 -2.5 18.5t-8.5 19t-18.5 19.5t-31.5 22t-48 25q-64 31 -101.5 59t-54 61.5t-16.5 80.5q0 46 27.5 83t74.5 59
t103 22q43 0 78.5 -9t66 -27t56.5 -46l-85 -92l-6 -7l-9 8q-1 8 -3 15.5t-13 19.5q-16 14 -34 18.5t-42 4.5q-17 0 -31 -3.5t-24 -10t-15.5 -14.5t-5.5 -17t2 -16.5t8 -15.5t18.5 -17t33 -20.5t51.5 -26.5q48 -24 81 -46t52.5 -45.5t28 -51.5t8.5 -64q0 -47 -24 -89
t-75 -68.5t-131 -26.5v0zM403 825l38 -66l-173 -95h-37l-162 91l43 71l138 -64zM253 812q-35 0 -59.5 23.5t-24.5 55.5q0 35 23.5 57t60.5 22q33 0 58.5 -23.5t25.5 -55.5t-25.5 -55.5t-58.5 -23.5z" />
    <glyph glyph-name="uni1E67" unicode="&#x1e67;" 
d="M265 -12q-46 0 -87.5 7.5t-76.5 24t-64 43.5l56 108l4 8l9 -5q3 -7 6.5 -15.5t15.5 -19.5q28 -21 61.5 -32t76.5 -11q22 0 37.5 5t24 13.5t8.5 18.5t-6.5 17t-19 12.5t-32.5 11.5t-47 13q-50 13 -86.5 32t-56.5 47.5t-20 68.5q0 41 25 74t68.5 53t99.5 20q27 0 53.5 -4.5
t50.5 -13t46 -22t41 -31.5l-65 -95l-6 -8l-9 7q-1 8 -4.5 15t-15.5 18q-19 13 -41.5 18.5t-47.5 5.5q-29 0 -51 -9t-22 -27q0 -12 12 -20t35.5 -14.5t58.5 -14.5q56 -12 92 -32.5t53.5 -49.5t17.5 -67q0 -40 -23 -74.5t-66.5 -55t-104.5 -20.5v0zM139 714l110 -98l112 98
l62 -58l-150 -138h-46l-150 138zM255 670q-35 0 -59.5 23.5t-24.5 55.5q0 35 23.5 57t60.5 22q33 0 58.5 -23.5t25.5 -55.5t-25.5 -55.5t-58.5 -23.5z" />
    <glyph glyph-name="uni1E68" unicode="&#x1e68;" 
d="M239 -12q-63 0 -121.5 17.5t-94.5 54.5l68 113l5 8l10 -6q2 -7 5.5 -14.5t16.5 -18.5q24 -16 52 -27t58 -12q21 0 37.5 3t28.5 10t18.5 19.5t6.5 30.5q0 9 -2.5 18.5t-8.5 19t-18.5 19.5t-31.5 22t-48 25q-64 31 -101.5 59t-54 61.5t-16.5 80.5q0 46 27.5 83t74.5 59
t103 22q43 0 78.5 -9t66 -27t56.5 -46l-85 -92l-6 -7l-9 8q-1 8 -3 15.5t-13 19.5q-16 14 -34 18.5t-42 4.5q-17 0 -31 -3.5t-24 -10t-15.5 -14.5t-5.5 -17t2 -16.5t8 -15.5t18.5 -17t33 -20.5t51.5 -26.5q48 -24 81 -46t52.5 -45.5t28 -51.5t8.5 -64q0 -47 -24 -89
t-75 -68.5t-131 -26.5v0zM254 -185q-35 0 -59.5 23.5t-24.5 55.5q0 35 23.5 57t60.5 22q33 0 58.5 -23.5t25.5 -55.5t-25.5 -55.5t-58.5 -23.5zM253 675q-35 0 -59.5 23.5t-24.5 55.5q0 35 23.5 57t60.5 22q33 0 58.5 -23.5t25.5 -55.5t-25.5 -55.5t-58.5 -23.5z" />
    <glyph glyph-name="uni1E69" unicode="&#x1e69;" 
d="M265 -12q-46 0 -87.5 7.5t-76.5 24t-64 43.5l56 108l4 8l9 -5q3 -7 6.5 -15.5t15.5 -19.5q28 -21 61.5 -32t76.5 -11q22 0 37.5 5t24 13.5t8.5 18.5t-6.5 17t-19 12.5t-32.5 11.5t-47 13q-50 13 -86.5 32t-56.5 47.5t-20 68.5q0 41 25 74t68.5 53t99.5 20q27 0 53.5 -4.5
t50.5 -13t46 -22t41 -31.5l-65 -95l-6 -8l-9 7q-1 8 -4.5 15t-15.5 18q-19 13 -41.5 18.5t-47.5 5.5q-29 0 -51 -9t-22 -27q0 -12 12 -20t35.5 -14.5t58.5 -14.5q56 -12 92 -32.5t53.5 -49.5t17.5 -67q0 -40 -23 -74.5t-66.5 -55t-104.5 -20.5v0zM244 -185q-35 0 -59.5 23.5
t-24.5 55.5q0 35 23.5 57t60.5 22q33 0 58.5 -23.5t25.5 -55.5t-25.5 -55.5t-58.5 -23.5zM254 535q-35 0 -59.5 23.5t-24.5 55.5q0 35 23.5 57t60.5 22q33 0 58.5 -23.5t25.5 -55.5t-25.5 -55.5t-58.5 -23.5z" />
    <glyph glyph-name="uni1E6C" unicode="&#x1e6c;" 
d="M179 0v506h-161v117h466v-117h-171v-506h-134zM246 -185q-35 0 -59.5 23.5t-24.5 55.5q0 35 23.5 57t60.5 22q33 0 58.5 -23.5t25.5 -55.5t-25.5 -55.5t-58.5 -23.5z" />
    <glyph glyph-name="uni1E6D" unicode="&#x1e6d;" 
d="M299 -12q-37 0 -68 11.5t-53 39t-33 75.5t-8 122l14 340l144 19l9 1l1 -11l-8 -14t-5 -24l-12 -154h6l-8 -150q-3 -57 4.5 -88.5t22 -43.5t30.5 -12q31 0 56.5 13t44.5 29l24 -99q-34 -25 -73.5 -39.5t-87.5 -14.5v0zM51 471h378l-2 -110h-378zM286 -185
q-35 0 -59.5 23.5t-24.5 55.5q0 35 23.5 57t60.5 22q33 0 58.5 -23.5t25.5 -55.5t-25.5 -55.5t-58.5 -23.5z" />
    <glyph glyph-name="uni1E6E" unicode="&#x1e6e;" 
d="M179 0v506h-161v117h466v-117h-171v-506h-134zM100 -157v89h297v-89h-297z" />
    <glyph glyph-name="uni1E6F" unicode="&#x1e6f;" 
d="M299 -12q-37 0 -68 11.5t-53 39t-33 75.5t-8 122l14 340l144 19l9 1l1 -11l-8 -14t-5 -24l-12 -154h6l-8 -150q-3 -57 4.5 -88.5t22 -43.5t30.5 -12q31 0 56.5 13t44.5 29l24 -99q-34 -25 -73.5 -39.5t-87.5 -14.5v0zM51 471h378l-2 -110h-378zM140 -157v89h297v-89h-297
z" />
    <glyph glyph-name="uni1E78" unicode="&#x1e78;" 
d="M249 -14q-104 0 -163 62.5t-59 171.5v403h141h9v-11q-5 -6 -6.5 -13t-1.5 -24v-356q0 -56 17.5 -88t63.5 -32q47 0 65 32.5t18 90.5v401h140v-400q0 -81 -29 -133.5t-79.5 -78t-115.5 -25.5v0zM349 786l70 -33q-19 -43 -45 -63t-57 -20q-34 0 -54 10t-33 23.5t-22.5 23.5
t-22.5 10q-16 0 -28.5 -14.5t-22.5 -35.5l-70 33q18 50 46.5 71t69.5 21q29 0 48 -9.5t32 -22.5t24.5 -22.5t24.5 -9.5q17 0 25 11t15 27zM173 821l-32 62l170 99l47 -96z" />
    <glyph glyph-name="uni1E79" unicode="&#x1e79;" 
d="M206 -12q-29 0 -54.5 7t-46 22t-35.5 38t-23 55.5t-8 74.5v286h142v-286q0 -23 3.5 -39t10.5 -26.5t16.5 -15t20.5 -4.5q19 0 33.5 6t24 18.5t14 30.5t4.5 42v274h143v-395q0 -24 1.5 -41.5t8.5 -34.5h-127q-5 9 -7 18t-2.5 18t-0.5 18q-10 -17 -23.5 -29.5t-29 -20.5
t-32 -12t-33.5 -4zM349 662l70 -33q-19 -43 -45 -63t-57 -20q-34 0 -54 10t-33 23.5t-22.5 23.5t-22.5 10q-16 0 -28.5 -14.5t-22.5 -35.5l-70 33q18 50 46.5 71t69.5 21q29 0 48 -9.5t32 -22.5t24.5 -22.5t24.5 -9.5q17 0 25 11t15 27zM228 684l-61 38l82 177l96 -68z" />
    <glyph glyph-name="uni1E7A" unicode="&#x1e7a;" 
d="M249 -14q-104 0 -163 62.5t-59 171.5v403h141h9v-11q-5 -6 -6.5 -13t-1.5 -24v-356q0 -56 17.5 -88t63.5 -32q47 0 65 32.5t18 90.5v401h140v-400q0 -81 -29 -133.5t-79.5 -78t-115.5 -25.5v0zM100 719v89h297v-89h-297zM154 826q-32 0 -55 21.5t-23 51.5t23 52t55 22
q36 0 57.5 -23.5t21.5 -50.5q0 -30 -23.5 -51.5t-55.5 -21.5zM342 826q-32 0 -55 21t-23 52t23 52.5t55 21.5q37 0 57 -24t20 -50q0 -30 -22.5 -51.5t-54.5 -21.5z" />
    <glyph glyph-name="uni1E7B" unicode="&#x1e7b;" 
d="M206 -12q-29 0 -54.5 7t-46 22t-35.5 38t-23 55.5t-8 74.5v286h142v-286q0 -23 3.5 -39t10.5 -26.5t16.5 -15t20.5 -4.5q19 0 33.5 6t24 18.5t14 30.5t4.5 42v274h143v-395q0 -24 1.5 -41.5t8.5 -34.5h-127q-5 9 -7 18t-2.5 18t-0.5 18q-10 -17 -23.5 -29.5t-29 -20.5
t-32 -12t-33.5 -4zM100 563v89h297v-89h-297zM156 684q-32 0 -55 21.5t-23 51.5t23 52t55 22q36 0 57.5 -23.5t21.5 -50.5q0 -30 -23.5 -51.5t-55.5 -21.5zM344 684q-32 0 -55 21t-23 52t23 52.5t55 21.5q37 0 57 -24t20 -50q0 -30 -22.5 -51.5t-54.5 -21.5z" />
    <glyph glyph-name="Wgrave" unicode="&#x1e80;" 
d="M76 0l-70 623h119l26 -371l67 320h84l67 -317l16 368h114l-68 -623h-100l-76 369l-77 -369h-102zM331 650l-187 64l52 97l167 -100z" />
    <glyph glyph-name="wgrave" unicode="&#x1e81;" 
d="M86 0l-81 471h120l39 -286l59 228h69l65 -225q6 51 10 89.5t5.5 67.5t2 51t0.5 40v35h116q-3 -72 -13.5 -154.5t-24.5 -164t-27 -152.5h-119l-52 223l-47 -223h-122zM243 502l-117 147l96 68l82 -177z" />
    <glyph glyph-name="Wacute" unicode="&#x1e82;" 
d="M76 0l-70 623h119l26 -371l67 320h84l67 -317l16 368h114l-68 -623h-100l-76 369l-77 -369h-102zM178 649l-32 62l170 99l47 -96z" />
    <glyph glyph-name="wacute" unicode="&#x1e83;" 
d="M86 0l-81 471h120l39 -286l59 228h69l65 -225q6 51 10 89.5t5.5 67.5t2 51t0.5 40v35h116q-3 -72 -13.5 -154.5t-24.5 -164t-27 -152.5h-119l-52 223l-47 -223h-122zM227 502l-61 38l82 177l96 -68z" />
    <glyph glyph-name="Wdieresis" unicode="&#x1e84;" 
d="M76 0l-70 623h119l26 -371l67 320h84l67 -317l16 368h114l-68 -623h-100l-76 369l-77 -369h-102zM159 680q-32 0 -55 21.5t-23 51.5t23 52t55 22q36 0 57.5 -23.5t21.5 -50.5q0 -30 -23.5 -51.5t-55.5 -21.5zM347 680q-32 0 -55 21t-23 52t23 52.5t55 21.5q37 0 57 -24
t20 -50q0 -30 -22.5 -51.5t-54.5 -21.5z" />
    <glyph glyph-name="wdieresis" unicode="&#x1e85;" 
d="M86 0l-81 471h120l39 -286l59 228h69l65 -225q6 51 10 89.5t5.5 67.5t2 51t0.5 40v35h116q-3 -72 -13.5 -154.5t-24.5 -164t-27 -152.5h-119l-52 223l-47 -223h-122zM156 538q-32 0 -55 21.5t-23 51.5t23 52t55 22q36 0 57.5 -23.5t21.5 -50.5q0 -30 -23.5 -51.5
t-55.5 -21.5zM344 538q-32 0 -55 21t-23 52t23 52.5t55 21.5q37 0 57 -24t20 -50q0 -30 -22.5 -51.5t-54.5 -21.5z" />
    <glyph glyph-name="uni1E8E" unicode="&#x1e8e;" 
d="M191 0v246l-182 377h141l112 -232l98 232h137l-168 -378v-245h-138zM253 675q-35 0 -59.5 23.5t-24.5 55.5q0 35 23.5 57t60.5 22q33 0 58.5 -23.5t25.5 -55.5t-25.5 -55.5t-58.5 -23.5z" />
    <glyph glyph-name="uni1E8F" unicode="&#x1e8f;" 
d="M125 -177q-34 0 -60 12t-55 34l45 97l3 8l10 -4q4 -7 8 -15t17 -18q6 -4 13.5 -6t15.5 -2q16 0 28 9.5t23 29.5t23 53l110 296q15 41 23 77.5t8 76.5h127q-1 -45 -19.5 -96.5t-35.5 -96.5l-116 -311q-30 -80 -71 -112t-97 -32v0zM21 471h139l129 -338l-77 -142zM260 535
q-35 0 -59.5 23.5t-24.5 55.5q0 35 23.5 57t60.5 22q33 0 58.5 -23.5t25.5 -55.5t-25.5 -55.5t-58.5 -23.5z" />
    <glyph glyph-name="uni1E92" unicode="&#x1e92;" 
d="M31 88l272 418h-261v117h429v-88l-267 -419h234q17 0 24 2t13 7h11v-9v-116h-455v88zM262 -185q-35 0 -59.5 23.5t-24.5 55.5q0 35 23.5 57t60.5 22q33 0 58.5 -23.5t25.5 -55.5t-25.5 -55.5t-58.5 -23.5z" />
    <glyph glyph-name="uni1E93" unicode="&#x1e93;" 
d="M33 80l240 277h-221v114h393v-87l-235 -270h209q17 0 24 2t13 7h11v-9v-114h-434v80zM246 -185q-35 0 -59.5 23.5t-24.5 55.5q0 35 23.5 57t60.5 22q33 0 58.5 -23.5t25.5 -55.5t-25.5 -55.5t-58.5 -23.5z" />
    <glyph glyph-name="uni1E97" unicode="&#x1e97;" 
d="M299 -12q-37 0 -68 11.5t-53 39t-33 75.5t-8 122l14 340l144 19l9 1l1 -11l-8 -14t-5 -24l-12 -154h6l-8 -150q-3 -57 4.5 -88.5t22 -43.5t30.5 -12q31 0 56.5 13t44.5 29l24 -99q-34 -25 -73.5 -39.5t-87.5 -14.5v0zM51 471h378l-2 -110h-378zM146 658q-32 0 -55 21.5
t-23 51.5t23 52t55 22q36 0 57.5 -23.5t21.5 -50.5q0 -30 -23.5 -51.5t-55.5 -21.5zM334 658q-32 0 -55 21t-23 52t23 52.5t55 21.5q37 0 57 -24t20 -50q0 -30 -22.5 -51.5t-54.5 -21.5z" />
    <glyph glyph-name="uni1E9E" unicode="&#x1e9e;" 
d="M297 -15q-33 0 -59.5 9t-44.5 22l46 103q5 -6 10.5 -10t12.5 -6.5t17 -2.5q11 0 20.5 6.5t17 18.5t11.5 27t4 32q0 27 -10.5 50t-32.5 37.5t-55 14.5h-30v109l94 98q-2 24 -9 39.5t-18.5 23.5t-28.5 8q-13 0 -25 -7.5t-21.5 -22t-15 -35t-5.5 -45.5v-454h-143v437
q0 60 15.5 104.5t43 74t65 44.5t82.5 15q60 0 102.5 -27t65 -72t22.5 -100l-163 -162l-23 81q79 0 129 -30.5t74.5 -79.5t24.5 -103q0 -40 -11.5 -75.5t-33 -63t-54 -43t-74.5 -15.5z" />
    <glyph glyph-name="uni1EA0" unicode="&#x1ea0;" 
d="M373 121h-255l17 98h218zM251 381l-101 -381h-140l198 623h85l198 -623h-142zM246 -185q-35 0 -59.5 23.5t-24.5 55.5q0 35 23.5 57t60.5 22q33 0 58.5 -23.5t25.5 -55.5t-25.5 -55.5t-58.5 -23.5z" />
    <glyph glyph-name="uni1EA1" unicode="&#x1ea1;" 
d="M189 -12q-76 0 -119 36.5t-43 96.5q0 38 16 70.5t50 57t87 38.5t127 14h11h18h17l4 -94h-17t-22.5 -0.5t-17.5 -0.5q-43 0 -69 -5.5t-39.5 -15t-18.5 -21t-5 -22.5q0 -12 4 -21t11 -14t17 -7.5t21 -2.5q24 0 41 8t28.5 26.5t17 47.5t5.5 71q0 51 -9.5 78t-27 36.5
t-42.5 9.5q-31 0 -57 -8.5t-55 -38.5l-80 82q45 41 96.5 57t100.5 16q43 0 81.5 -9.5t69 -31.5t48 -60.5t17.5 -96.5v-284h-143v37q-13 -12 -25.5 -21.5t-27 -15.5t-31.5 -9t-39 -3zM246 -185q-35 0 -59.5 23.5t-24.5 55.5q0 35 23.5 57t60.5 22q33 0 58.5 -23.5t25.5 -55.5
t-25.5 -55.5t-58.5 -23.5z" />
    <glyph glyph-name="uni1EA2" unicode="&#x1ea2;" 
d="M373 121h-255l17 98h218zM251 381l-101 -381h-140l198 623h85l198 -623h-142zM382 803q0 -21 -11.5 -38t-26.5 -31t-26.5 -27t-11.5 -26v-9h-83v28q0 17 10.5 30.5t25 24.5t25 21.5t10.5 20.5q0 14 -9.5 22t-24.5 8q-22 0 -37 -9t-26 -32l-44 65q20 25 52.5 37t60.5 11
q36 -1 62 -13.5t40 -33.5t14 -49z" />
    <glyph glyph-name="uni1EA3" unicode="&#x1ea3;" 
d="M189 -12q-76 0 -119 36.5t-43 96.5q0 38 16 70.5t50 57t87 38.5t127 14h11h18h17l4 -94h-17t-22.5 -0.5t-17.5 -0.5q-43 0 -69 -5.5t-39.5 -15t-18.5 -21t-5 -22.5q0 -12 4 -21t11 -14t17 -7.5t21 -2.5q24 0 41 8t28.5 26.5t17 47.5t5.5 71q0 51 -9.5 78t-27 36.5
t-42.5 9.5q-31 0 -57 -8.5t-55 -38.5l-80 82q45 41 96.5 57t100.5 16q43 0 81.5 -9.5t69 -31.5t48 -60.5t17.5 -96.5v-284h-143v37q-13 -12 -25.5 -21.5t-27 -15.5t-31.5 -9t-39 -3zM371 647q0 -21 -11.5 -38t-26.5 -31t-26.5 -27t-11.5 -26v-9h-83v28q0 17 10.5 30.5
t25 24.5t25 21.5t10.5 20.5q0 14 -9.5 22t-24.5 8q-22 0 -37 -9t-26 -32l-44 65q20 25 52.5 37t60.5 11q36 -1 62 -13.5t40 -33.5t14 -49z" />
    <glyph glyph-name="uni1EA4" unicode="&#x1ea4;" 
d="M373 121h-255l17 98h218zM251 381l-101 -381h-140l198 623h85l198 -623h-142zM98 645l-38 66l173 95h37l162 -91l-43 -71l-138 64zM377 769l-32 62l170 99l47 -96z" />
    <glyph glyph-name="uni1EA5" unicode="&#x1ea5;" 
d="M189 -12q-76 0 -119 36.5t-43 96.5q0 38 16 70.5t50 57t87 38.5t127 14h11h18h17l4 -94h-17t-22.5 -0.5t-17.5 -0.5q-43 0 -69 -5.5t-39.5 -15t-18.5 -21t-5 -22.5q0 -12 4 -21t11 -14t17 -7.5t21 -2.5q24 0 41 8t28.5 26.5t17 47.5t5.5 71q0 51 -9.5 78t-27 36.5
t-42.5 9.5q-31 0 -57 -8.5t-55 -38.5l-80 82q45 41 96.5 57t100.5 16q43 0 81.5 -9.5t69 -31.5t48 -60.5t17.5 -96.5v-284h-143v37q-13 -12 -25.5 -21.5t-27 -15.5t-31.5 -9t-39 -3zM127 494l-62 58l150 138h46l150 -138l-62 -58l-112 98zM388 628l-61 38l82 177l96 -68z
" />
    <glyph glyph-name="uni1EA6" unicode="&#x1ea6;" 
d="M373 121h-255l17 98h218zM251 381l-101 -381h-140l198 623h85l198 -623h-142zM103 645l-38 66l173 95h37l162 -91l-43 -71l-138 64zM370 812l-187 64l52 97l167 -100z" />
    <glyph glyph-name="uni1EA7" unicode="&#x1ea7;" 
d="M189 -12q-76 0 -119 36.5t-43 96.5q0 38 16 70.5t50 57t87 38.5t127 14h11h18h17l4 -94h-17t-22.5 -0.5t-17.5 -0.5q-43 0 -69 -5.5t-39.5 -15t-18.5 -21t-5 -22.5q0 -12 4 -21t11 -14t17 -7.5t21 -2.5q24 0 41 8t28.5 26.5t17 47.5t5.5 71q0 51 -9.5 78t-27 36.5
t-42.5 9.5q-31 0 -57 -8.5t-55 -38.5l-80 82q45 41 96.5 57t100.5 16q43 0 81.5 -9.5t69 -31.5t48 -60.5t17.5 -96.5v-284h-143v37q-13 -12 -25.5 -21.5t-27 -15.5t-31.5 -9t-39 -3zM127 494l-62 58l150 138h46l150 -138l-62 -58l-112 98zM361 654l-117 147l96 68l82 -177z
" />
    <glyph glyph-name="uni1EA8" unicode="&#x1ea8;" 
d="M373 121h-255l17 98h218zM251 381l-101 -381h-140l198 623h85l198 -623h-142zM99 645l-38 66l173 95h37l162 -91l-43 -71l-138 64zM525 885q0 -21 -11.5 -38t-26.5 -31t-26.5 -27t-11.5 -26v-9h-83v28q0 17 10.5 30.5t25 24.5t25 21.5t10.5 20.5q0 14 -9.5 22t-24.5 8
q-22 0 -37 -9t-26 -32l-44 65q20 25 52.5 37t60.5 11q36 -1 62 -13.5t40 -33.5t14 -49z" />
    <glyph glyph-name="uni1EA9" unicode="&#x1ea9;" 
d="M189 -12q-76 0 -119 36.5t-43 96.5q0 38 16 70.5t50 57t87 38.5t127 14h11h18h17l4 -94h-17t-22.5 -0.5t-17.5 -0.5q-43 0 -69 -5.5t-39.5 -15t-18.5 -21t-5 -22.5q0 -12 4 -21t11 -14t17 -7.5t21 -2.5q24 0 41 8t28.5 26.5t17 47.5t5.5 71q0 51 -9.5 78t-27 36.5
t-42.5 9.5q-31 0 -57 -8.5t-55 -38.5l-80 82q45 41 96.5 57t100.5 16q43 0 81.5 -9.5t69 -31.5t48 -60.5t17.5 -96.5v-284h-143v37q-13 -12 -25.5 -21.5t-27 -15.5t-31.5 -9t-39 -3zM127 494l-62 58l150 138h46l150 -138l-62 -58l-112 98zM507 762q0 -21 -11.5 -38
t-26.5 -31t-26.5 -27t-11.5 -26v-9h-83v28q0 17 10.5 30.5t25 24.5t25 21.5t10.5 20.5q0 14 -9.5 22t-24.5 8q-22 0 -37 -9t-26 -32l-44 65q20 25 52.5 37t60.5 11q36 -1 62 -13.5t40 -33.5t14 -49z" />
    <glyph glyph-name="uni1EAA" unicode="&#x1eaa;" 
d="M373 121h-255l17 98h218zM251 381l-101 -381h-140l198 623h85l198 -623h-142zM99 645l-38 66l173 95h37l162 -91l-43 -71l-138 64zM316 939l64 -30q-17 -39 -41.5 -58.5t-50.5 -19.5q-22 0 -38 8t-28 18.5t-22 18.5t-21 8q-13 0 -22.5 -10.5t-16.5 -27.5l-64 30
q15 37 41.5 58t51.5 21q21 0 37.5 -8t30 -18.5t24 -18.5t19.5 -8q11 0 19 7.5t17 29.5z" />
    <glyph glyph-name="uni1EAB" unicode="&#x1eab;" 
d="M189 -12q-76 0 -119 36.5t-43 96.5q0 38 16 70.5t50 57t87 38.5t127 14h11h18h17l4 -94h-17t-22.5 -0.5t-17.5 -0.5q-43 0 -69 -5.5t-39.5 -15t-18.5 -21t-5 -22.5q0 -12 4 -21t11 -14t17 -7.5t21 -2.5q24 0 41 8t28.5 26.5t17 47.5t5.5 71q0 51 -9.5 78t-27 36.5
t-42.5 9.5q-31 0 -57 -8.5t-55 -38.5l-80 82q45 41 96.5 57t100.5 16q43 0 81.5 -9.5t69 -31.5t48 -60.5t17.5 -96.5v-284h-143v37q-13 -12 -25.5 -21.5t-27 -15.5t-31.5 -9t-39 -3zM127 494l-62 58l150 138h46l150 -138l-62 -58l-112 98zM305 833l64 -30
q-17 -39 -41.5 -58.5t-50.5 -19.5q-22 0 -38 8t-28 18.5t-22 18.5t-21 8q-13 0 -22.5 -10.5t-16.5 -27.5l-64 30q15 37 41.5 58t51.5 21q21 0 37.5 -8t30 -18.5t24 -18.5t19.5 -8q11 0 19 7.5t17 29.5z" />
    <glyph glyph-name="uni1EAC" unicode="&#x1eac;" 
d="M373 121h-255l17 98h218zM251 381l-101 -381h-140l198 623h85l198 -623h-142zM246 -185q-35 0 -59.5 23.5t-24.5 55.5q0 35 23.5 57t60.5 22q33 0 58.5 -23.5t25.5 -55.5t-25.5 -55.5t-58.5 -23.5zM101 645l-38 66l173 95h37l162 -91l-43 -71l-138 64z" />
    <glyph glyph-name="uni1EAD" unicode="&#x1ead;" 
d="M189 -12q-76 0 -119 36.5t-43 96.5q0 38 16 70.5t50 57t87 38.5t127 14h11h18h17l4 -94h-17t-22.5 -0.5t-17.5 -0.5q-43 0 -69 -5.5t-39.5 -15t-18.5 -21t-5 -22.5q0 -12 4 -21t11 -14t17 -7.5t21 -2.5q24 0 41 8t28.5 26.5t17 47.5t5.5 71q0 51 -9.5 78t-27 36.5
t-42.5 9.5q-31 0 -57 -8.5t-55 -38.5l-80 82q45 41 96.5 57t100.5 16q43 0 81.5 -9.5t69 -31.5t48 -60.5t17.5 -96.5v-284h-143v37q-13 -12 -25.5 -21.5t-27 -15.5t-31.5 -9t-39 -3zM246 -185q-35 0 -59.5 23.5t-24.5 55.5q0 35 23.5 57t60.5 22q33 0 58.5 -23.5t25.5 -55.5
t-25.5 -55.5t-58.5 -23.5zM127 490l-62 58l150 138h46l150 -138l-62 -58l-112 98z" />
    <glyph glyph-name="uni1EAE" unicode="&#x1eae;" 
d="M373 121h-255l17 98h218zM251 381l-101 -381h-140l198 623h85l198 -623h-142zM326 812l82 -37q-25 -55 -65 -85t-92 -30t-92 30t-65 85l82 37q15 -37 32.5 -55.5t42.5 -18.5q17 0 31 8t25.5 24.5t18.5 41.5zM203 804l-32 62l170 99l47 -96z" />
    <glyph glyph-name="uni1EAF" unicode="&#x1eaf;" 
d="M189 -12q-76 0 -119 36.5t-43 96.5q0 38 16 70.5t50 57t87 38.5t127 14h11h18h17l4 -94h-17t-22.5 -0.5t-17.5 -0.5q-43 0 -69 -5.5t-39.5 -15t-18.5 -21t-5 -22.5q0 -12 4 -21t11 -14t17 -7.5t21 -2.5q24 0 41 8t28.5 26.5t17 47.5t5.5 71q0 51 -9.5 78t-27 36.5
t-42.5 9.5q-31 0 -57 -8.5t-55 -38.5l-80 82q45 41 96.5 57t100.5 16q43 0 81.5 -9.5t69 -31.5t48 -60.5t17.5 -96.5v-284h-143v37q-13 -12 -25.5 -21.5t-27 -15.5t-31.5 -9t-39 -3zM315 677l82 -37q-25 -55 -65 -85t-92 -30t-92 30t-65 85l82 37q15 -37 32.5 -55.5
t42.5 -18.5q17 0 31 8t25.5 24.5t18.5 41.5zM247 633l-61 38l82 177l96 -68z" />
    <glyph glyph-name="uni1EB0" unicode="&#x1eb0;" 
d="M373 121h-255l17 98h218zM251 381l-101 -381h-140l198 623h85l198 -623h-142zM326 812l82 -37q-25 -55 -65 -85t-92 -30t-92 30t-65 85l82 37q15 -37 32.5 -55.5t42.5 -18.5q17 0 31 8t25.5 24.5t18.5 41.5zM276 805l-187 64l52 97l167 -100z" />
    <glyph glyph-name="uni1EB1" unicode="&#x1eb1;" 
d="M189 -12q-76 0 -119 36.5t-43 96.5q0 38 16 70.5t50 57t87 38.5t127 14h11h18h17l4 -94h-17t-22.5 -0.5t-17.5 -0.5q-43 0 -69 -5.5t-39.5 -15t-18.5 -21t-5 -22.5q0 -12 4 -21t11 -14t17 -7.5t21 -2.5q24 0 41 8t28.5 26.5t17 47.5t5.5 71q0 51 -9.5 78t-27 36.5
t-42.5 9.5q-31 0 -57 -8.5t-55 -38.5l-80 82q45 41 96.5 57t100.5 16q43 0 81.5 -9.5t69 -31.5t48 -60.5t17.5 -96.5v-284h-143v37q-13 -12 -25.5 -21.5t-27 -15.5t-31.5 -9t-39 -3zM315 677l82 -37q-25 -55 -65 -85t-92 -30t-92 30t-65 85l82 37q15 -37 32.5 -55.5
t42.5 -18.5q17 0 31 8t25.5 24.5t18.5 41.5zM242 633l-117 147l96 68l82 -177z" />
    <glyph glyph-name="uni1EB2" unicode="&#x1eb2;" 
d="M373 121h-255l17 98h218zM251 381l-101 -381h-140l198 623h85l198 -623h-142zM326 812l82 -37q-25 -55 -65 -85t-92 -30t-92 30t-65 85l82 37q15 -37 32.5 -55.5t42.5 -18.5q17 0 31 8t25.5 24.5t18.5 41.5zM371 907q0 -21 -11.5 -38t-26.5 -31t-26.5 -27t-11.5 -26v-9
h-83v28q0 17 10.5 30.5t25 24.5t25 21.5t10.5 20.5q0 14 -9.5 22t-24.5 8q-22 0 -37 -9t-26 -32l-44 65q20 25 52.5 37t60.5 11q36 -1 62 -13.5t40 -33.5t14 -49z" />
    <glyph glyph-name="uni1EB3" unicode="&#x1eb3;" 
d="M189 -12q-76 0 -119 36.5t-43 96.5q0 38 16 70.5t50 57t87 38.5t127 14h11h18h17l4 -94h-17t-22.5 -0.5t-17.5 -0.5q-43 0 -69 -5.5t-39.5 -15t-18.5 -21t-5 -22.5q0 -12 4 -21t11 -14t17 -7.5t21 -2.5q24 0 41 8t28.5 26.5t17 47.5t5.5 71q0 51 -9.5 78t-27 36.5
t-42.5 9.5q-31 0 -57 -8.5t-55 -38.5l-80 82q45 41 96.5 57t100.5 16q43 0 81.5 -9.5t69 -31.5t48 -60.5t17.5 -96.5v-284h-143v37q-13 -12 -25.5 -21.5t-27 -15.5t-31.5 -9t-39 -3zM315 677l82 -37q-25 -55 -65 -85t-92 -30t-92 30t-65 85l82 37q15 -37 32.5 -55.5
t42.5 -18.5q17 0 31 8t25.5 24.5t18.5 41.5zM371 820q0 -21 -11.5 -38t-26.5 -31t-26.5 -27t-11.5 -26v-9h-83v28q0 17 10.5 30.5t25 24.5t25 21.5t10.5 20.5q0 14 -9.5 22t-24.5 8q-22 0 -37 -9t-26 -32l-44 65q20 25 52.5 37t60.5 11q36 -1 62 -13.5t40 -33.5t14 -49z" />
    <glyph glyph-name="uni1EB4" unicode="&#x1eb4;" 
d="M373 121h-255l17 98h218zM251 381l-101 -381h-140l198 623h85l198 -623h-142zM326 812l82 -37q-25 -55 -65 -85t-92 -30t-92 30t-65 85l82 37q15 -37 32.5 -55.5t42.5 -18.5q17 0 31 8t25.5 24.5t18.5 41.5zM307 966l64 -30q-17 -39 -41.5 -58.5t-50.5 -19.5q-22 0 -38 8
t-28 18.5t-22 18.5t-21 8q-13 0 -22.5 -10.5t-16.5 -27.5l-64 30q15 37 41.5 58t51.5 21q21 0 37.5 -8t30 -18.5t24 -18.5t19.5 -8q11 0 19 7.5t17 29.5z" />
    <glyph glyph-name="uni1EB5" unicode="&#x1eb5;" 
d="M189 -12q-76 0 -119 36.5t-43 96.5q0 38 16 70.5t50 57t87 38.5t127 14h11h18h17l4 -94h-17t-22.5 -0.5t-17.5 -0.5q-43 0 -69 -5.5t-39.5 -15t-18.5 -21t-5 -22.5q0 -12 4 -21t11 -14t17 -7.5t21 -2.5q24 0 41 8t28.5 26.5t17 47.5t5.5 71q0 51 -9.5 78t-27 36.5
t-42.5 9.5q-31 0 -57 -8.5t-55 -38.5l-80 82q45 41 96.5 57t100.5 16q43 0 81.5 -9.5t69 -31.5t48 -60.5t17.5 -96.5v-284h-143v37q-13 -12 -25.5 -21.5t-27 -15.5t-31.5 -9t-39 -3zM311 677l82 -37q-25 -55 -65 -85t-92 -30t-92 30t-65 85l82 37q15 -37 32.5 -55.5
t42.5 -18.5q17 0 31 8t25.5 24.5t18.5 41.5zM327 822l64 -30q-17 -39 -41.5 -58.5t-50.5 -19.5q-22 0 -38 8t-28 18.5t-22 18.5t-21 8q-13 0 -22.5 -10.5t-16.5 -27.5l-64 30q15 37 41.5 58t51.5 21q21 0 37.5 -8t30 -18.5t24 -18.5t19.5 -8q11 0 19 7.5t17 29.5z" />
    <glyph glyph-name="uni1EB6" unicode="&#x1eb6;" 
d="M373 121h-255l17 98h218zM251 381l-101 -381h-140l198 623h85l198 -623h-142zM246 -185q-35 0 -59.5 23.5t-24.5 55.5q0 35 23.5 57t60.5 22q33 0 58.5 -23.5t25.5 -55.5t-25.5 -55.5t-58.5 -23.5zM326 812l82 -37q-25 -55 -65 -85t-92 -30t-92 30t-65 85l82 37
q15 -37 32.5 -55.5t42.5 -18.5q17 0 31 8t25.5 24.5t18.5 41.5z" />
    <glyph glyph-name="uni1EB7" unicode="&#x1eb7;" 
d="M189 -12q-76 0 -119 36.5t-43 96.5q0 38 16 70.5t50 57t87 38.5t127 14h11h18h17l4 -94h-17t-22.5 -0.5t-17.5 -0.5q-43 0 -69 -5.5t-39.5 -15t-18.5 -21t-5 -22.5q0 -12 4 -21t11 -14t17 -7.5t21 -2.5q24 0 41 8t28.5 26.5t17 47.5t5.5 71q0 51 -9.5 78t-27 36.5
t-42.5 9.5q-31 0 -57 -8.5t-55 -38.5l-80 82q45 41 96.5 57t100.5 16q43 0 81.5 -9.5t69 -31.5t48 -60.5t17.5 -96.5v-284h-143v37q-13 -12 -25.5 -21.5t-27 -15.5t-31.5 -9t-39 -3zM246 -185q-35 0 -59.5 23.5t-24.5 55.5q0 35 23.5 57t60.5 22q33 0 58.5 -23.5t25.5 -55.5
t-25.5 -55.5t-58.5 -23.5zM315 677l82 -37q-25 -55 -65 -85t-92 -30t-92 30t-65 85l82 37q15 -37 32.5 -55.5t42.5 -18.5q17 0 31 8t25.5 24.5t18.5 41.5z" />
    <glyph glyph-name="uni1EB8" unicode="&#x1eb8;" 
d="M46 0v623h421v-112h-282v-131h231v-112h-231v-156h280v-112h-419zM246 -185q-35 0 -59.5 23.5t-24.5 55.5q0 35 23.5 57t60.5 22q33 0 58.5 -23.5t25.5 -55.5t-25.5 -55.5t-58.5 -23.5z" />
    <glyph glyph-name="uni1EB9" unicode="&#x1eb9;" 
d="M270 -12q-50 0 -93.5 16.5t-76 47.5t-50.5 76.5t-18 102.5q0 58 17.5 104.5t48 79t71.5 50t89 17.5q41 0 78.5 -15t66.5 -44.5t46 -73t17 -99.5v-30t-1 -29h-297q2 -25 12 -42.5t25.5 -29t34 -17t37.5 -5.5q20 0 38 3t35 11.5t33 24.5l70 -68q-24 -28 -53 -46t-62 -26
t-68 -8zM169 295h163q0 20 -5 34.5t-15 24t-25 14t-34 4.5q-17 0 -31.5 -4.5t-25.5 -14t-18 -24t-9 -34.5zM256 -185q-35 0 -59.5 23.5t-24.5 55.5q0 35 23.5 57t60.5 22q33 0 58.5 -23.5t25.5 -55.5t-25.5 -55.5t-58.5 -23.5z" />
    <glyph glyph-name="uni1EBA" unicode="&#x1eba;" 
d="M46 0v623h421v-112h-282v-131h231v-112h-231v-156h280v-112h-419zM401 803q0 -21 -11.5 -38t-26.5 -31t-26.5 -27t-11.5 -26v-9h-83v28q0 17 10.5 30.5t25 24.5t25 21.5t10.5 20.5q0 14 -9.5 22t-24.5 8q-22 0 -37 -9t-26 -32l-44 65q20 25 52.5 37t60.5 11
q36 -1 62 -13.5t40 -33.5t14 -49z" />
    <glyph glyph-name="uni1EBB" unicode="&#x1ebb;" 
d="M270 -12q-50 0 -93.5 16.5t-76 47.5t-50.5 76.5t-18 102.5q0 58 17.5 104.5t48 79t71.5 50t89 17.5q41 0 78.5 -15t66.5 -44.5t46 -73t17 -99.5v-30t-1 -29h-297q2 -25 12 -42.5t25.5 -29t34 -17t37.5 -5.5q20 0 38 3t35 11.5t33 24.5l70 -68q-24 -28 -53 -46t-62 -26
t-68 -8zM169 295h163q0 20 -5 34.5t-15 24t-25 14t-34 4.5q-17 0 -31.5 -4.5t-25.5 -14t-18 -24t-9 -34.5zM389 647q0 -21 -11.5 -38t-26.5 -31t-26.5 -27t-11.5 -26v-9h-83v28q0 17 10.5 30.5t25 24.5t25 21.5t10.5 20.5q0 14 -9.5 22t-24.5 8q-22 0 -37 -9t-26 -32l-44 65
q20 25 52.5 37t60.5 11q36 -1 62 -13.5t40 -33.5t14 -49z" />
    <glyph glyph-name="uni1EBC" unicode="&#x1ebc;" 
d="M46 0v623h421v-112h-282v-131h231v-112h-231v-156h280v-112h-419zM369 786l70 -33q-19 -43 -45 -63t-57 -20q-34 0 -54 10t-33 23.5t-22.5 23.5t-22.5 10q-16 0 -28.5 -14.5t-22.5 -35.5l-70 33q18 50 46.5 71t69.5 21q29 0 48 -9.5t32 -22.5t24.5 -22.5t24.5 -9.5
q17 0 25 11t15 27z" />
    <glyph glyph-name="uni1EBD" unicode="&#x1ebd;" 
d="M270 -12q-50 0 -93.5 16.5t-76 47.5t-50.5 76.5t-18 102.5q0 58 17.5 104.5t48 79t71.5 50t89 17.5q41 0 78.5 -15t66.5 -44.5t46 -73t17 -99.5v-30t-1 -29h-297q2 -25 12 -42.5t25.5 -29t34 -17t37.5 -5.5q20 0 38 3t35 11.5t33 24.5l70 -68q-24 -28 -53 -46t-62 -26
t-68 -8zM169 295h163q0 20 -5 34.5t-15 24t-25 14t-34 4.5q-17 0 -31.5 -4.5t-25.5 -14t-18 -24t-9 -34.5zM357 662l70 -33q-19 -43 -45 -63t-57 -20q-34 0 -54 10t-33 23.5t-22.5 23.5t-22.5 10q-16 0 -28.5 -14.5t-22.5 -35.5l-70 33q18 50 46.5 71t69.5 21q29 0 48 -9.5
t32 -22.5t24.5 -22.5t24.5 -9.5q17 0 25 11t15 27z" />
    <glyph glyph-name="uni1EBE" unicode="&#x1ebe;" 
d="M46 0v623h421v-112h-282v-131h231v-112h-231v-156h280v-112h-419zM117 645l-38 66l173 95h37l162 -91l-43 -71l-138 64zM396 769l-32 62l170 99l47 -96z" />
    <glyph glyph-name="uni1EBF" unicode="&#x1ebf;" 
d="M270 -12q-50 0 -93.5 16.5t-76 47.5t-50.5 76.5t-18 102.5q0 58 17.5 104.5t48 79t71.5 50t89 17.5q41 0 78.5 -15t66.5 -44.5t46 -73t17 -99.5v-30t-1 -29h-297q2 -25 12 -42.5t25.5 -29t34 -17t37.5 -5.5q20 0 38 3t35 11.5t33 24.5l70 -68q-24 -28 -53 -46t-62 -26
t-68 -8zM169 295h163q0 20 -5 34.5t-15 24t-25 14t-34 4.5q-17 0 -31.5 -4.5t-25.5 -14t-18 -24t-9 -34.5zM145 494l-62 58l150 138h46l150 -138l-62 -58l-112 98zM406 628l-61 38l82 177l96 -68z" />
    <glyph glyph-name="uni1EC0" unicode="&#x1ec0;" 
d="M46 0v623h421v-112h-282v-131h231v-112h-231v-156h280v-112h-419zM122 645l-38 66l173 95h37l162 -91l-43 -71l-138 64zM389 812l-187 64l52 97l167 -100z" />
    <glyph glyph-name="uni1EC1" unicode="&#x1ec1;" 
d="M270 -12q-50 0 -93.5 16.5t-76 47.5t-50.5 76.5t-18 102.5q0 58 17.5 104.5t48 79t71.5 50t89 17.5q41 0 78.5 -15t66.5 -44.5t46 -73t17 -99.5v-30t-1 -29h-297q2 -25 12 -42.5t25.5 -29t34 -17t37.5 -5.5q20 0 38 3t35 11.5t33 24.5l70 -68q-24 -28 -53 -46t-62 -26
t-68 -8zM169 295h163q0 20 -5 34.5t-15 24t-25 14t-34 4.5q-17 0 -31.5 -4.5t-25.5 -14t-18 -24t-9 -34.5zM145 494l-62 58l150 138h46l150 -138l-62 -58l-112 98zM379 654l-117 147l96 68l82 -177z" />
    <glyph glyph-name="uni1EC2" unicode="&#x1ec2;" 
d="M46 0v623h421v-112h-282v-131h231v-112h-231v-156h280v-112h-419zM118 645l-38 66l173 95h37l162 -91l-43 -71l-138 64zM544 885q0 -21 -11.5 -38t-26.5 -31t-26.5 -27t-11.5 -26v-9h-83v28q0 17 10.5 30.5t25 24.5t25 21.5t10.5 20.5q0 14 -9.5 22t-24.5 8q-22 0 -37 -9
t-26 -32l-44 65q20 25 52.5 37t60.5 11q36 -1 62 -13.5t40 -33.5t14 -49z" />
    <glyph glyph-name="uni1EC3" unicode="&#x1ec3;" 
d="M270 -12q-50 0 -93.5 16.5t-76 47.5t-50.5 76.5t-18 102.5q0 58 17.5 104.5t48 79t71.5 50t89 17.5q41 0 78.5 -15t66.5 -44.5t46 -73t17 -99.5v-30t-1 -29h-297q2 -25 12 -42.5t25.5 -29t34 -17t37.5 -5.5q20 0 38 3t35 11.5t33 24.5l70 -68q-24 -28 -53 -46t-62 -26
t-68 -8zM169 295h163q0 20 -5 34.5t-15 24t-25 14t-34 4.5q-17 0 -31.5 -4.5t-25.5 -14t-18 -24t-9 -34.5zM145 494l-62 58l150 138h46l150 -138l-62 -58l-112 98zM525 762q0 -21 -11.5 -38t-26.5 -31t-26.5 -27t-11.5 -26v-9h-83v28q0 17 10.5 30.5t25 24.5t25 21.5
t10.5 20.5q0 14 -9.5 22t-24.5 8q-22 0 -37 -9t-26 -32l-44 65q20 25 52.5 37t60.5 11q36 -1 62 -13.5t40 -33.5t14 -49z" />
    <glyph glyph-name="uni1EC4" unicode="&#x1ec4;" 
d="M46 0v623h421v-112h-282v-131h231v-112h-231v-156h280v-112h-419zM118 645l-38 66l173 95h37l162 -91l-43 -71l-138 64zM335 939l64 -30q-17 -39 -41.5 -58.5t-50.5 -19.5q-22 0 -38 8t-28 18.5t-22 18.5t-21 8q-13 0 -22.5 -10.5t-16.5 -27.5l-64 30q15 37 41.5 58
t51.5 21q21 0 37.5 -8t30 -18.5t24 -18.5t19.5 -8q11 0 19 7.5t17 29.5z" />
    <glyph glyph-name="uni1EC5" unicode="&#x1ec5;" 
d="M270 -12q-50 0 -93.5 16.5t-76 47.5t-50.5 76.5t-18 102.5q0 58 17.5 104.5t48 79t71.5 50t89 17.5q41 0 78.5 -15t66.5 -44.5t46 -73t17 -99.5v-30t-1 -29h-297q2 -25 12 -42.5t25.5 -29t34 -17t37.5 -5.5q20 0 38 3t35 11.5t33 24.5l70 -68q-24 -28 -53 -46t-62 -26
t-68 -8zM169 295h163q0 20 -5 34.5t-15 24t-25 14t-34 4.5q-17 0 -31.5 -4.5t-25.5 -14t-18 -24t-9 -34.5zM145 494l-62 58l150 138h46l150 -138l-62 -58l-112 98zM323 833l64 -30q-17 -39 -41.5 -58.5t-50.5 -19.5q-22 0 -38 8t-28 18.5t-22 18.5t-21 8q-13 0 -22.5 -10.5
t-16.5 -27.5l-64 30q15 37 41.5 58t51.5 21q21 0 37.5 -8t30 -18.5t24 -18.5t19.5 -8q11 0 19 7.5t17 29.5z" />
    <glyph glyph-name="uni1EC6" unicode="&#x1ec6;" 
d="M46 0v623h421v-112h-282v-131h231v-112h-231v-156h280v-112h-419zM246 -185q-35 0 -59.5 23.5t-24.5 55.5q0 35 23.5 57t60.5 22q33 0 58.5 -23.5t25.5 -55.5t-25.5 -55.5t-58.5 -23.5zM120 645l-38 66l173 95h37l162 -91l-43 -71l-138 64z" />
    <glyph glyph-name="uni1EC7" unicode="&#x1ec7;" 
d="M270 -12q-50 0 -93.5 16.5t-76 47.5t-50.5 76.5t-18 102.5q0 58 17.5 104.5t48 79t71.5 50t89 17.5q41 0 78.5 -15t66.5 -44.5t46 -73t17 -99.5v-30t-1 -29h-297q2 -25 12 -42.5t25.5 -29t34 -17t37.5 -5.5q20 0 38 3t35 11.5t33 24.5l70 -68q-24 -28 -53 -46t-62 -26
t-68 -8zM169 295h163q0 20 -5 34.5t-15 24t-25 14t-34 4.5q-17 0 -31.5 -4.5t-25.5 -14t-18 -24t-9 -34.5zM256 -185q-35 0 -59.5 23.5t-24.5 55.5q0 35 23.5 57t60.5 22q33 0 58.5 -23.5t25.5 -55.5t-25.5 -55.5t-58.5 -23.5zM145 490l-62 58l150 138h46l150 -138l-62 -58
l-112 98z" />
    <glyph glyph-name="uni1EC8" unicode="&#x1ec8;" 
d="M63 0v113h121v397h-115v113h368v-113h-121v-397h126v-113h-379zM381 803q0 -21 -11.5 -38t-26.5 -31t-26.5 -27t-11.5 -26v-9h-83v28q0 17 10.5 30.5t25 24.5t25 21.5t10.5 20.5q0 14 -9.5 22t-24.5 8q-22 0 -37 -9t-26 -32l-44 65q20 25 52.5 37t60.5 11q36 -1 62 -13.5
t40 -33.5t14 -49z" />
    <glyph glyph-name="uni1EC9" unicode="&#x1ec9;" 
d="M74 0v110h112v251h-107v110h249v-361h102v-110h-356zM381 647q0 -21 -11.5 -38t-26.5 -31t-26.5 -27t-11.5 -26v-9h-83v28q0 17 10.5 30.5t25 24.5t25 21.5t10.5 20.5q0 14 -9.5 22t-24.5 8q-22 0 -37 -9t-26 -32l-44 65q20 25 52.5 37t60.5 11q36 -1 62 -13.5t40 -33.5
t14 -49z" />
    <glyph glyph-name="uni1ECA" unicode="&#x1eca;" 
d="M63 0v113h121v397h-115v113h368v-113h-121v-397h126v-113h-379zM246 -185q-35 0 -59.5 23.5t-24.5 55.5q0 35 23.5 57t60.5 22q33 0 58.5 -23.5t25.5 -55.5t-25.5 -55.5t-58.5 -23.5z" />
    <glyph glyph-name="uni1ECB" unicode="&#x1ecb;" 
d="M74 0v110h112v251h-107v110h249v-361h102v-110h-356zM250 535q-35 0 -59.5 23.5t-24.5 55.5q0 35 23.5 57t60.5 22q33 0 58.5 -23.5t25.5 -55.5t-25.5 -55.5t-58.5 -23.5zM246 -185q-35 0 -59.5 23.5t-24.5 55.5q0 35 23.5 57t60.5 22q33 0 58.5 -23.5t25.5 -55.5
t-25.5 -55.5t-58.5 -23.5z" />
    <glyph glyph-name="uni1ECC" unicode="&#x1ecc;" 
d="M253 -12q-80 0 -133 38t-79.5 110.5t-26.5 176.5q0 103 26.5 174.5t79.5 109.5t133 38q79 0 132 -38t80 -109.5t27 -174.5q0 -104 -27 -177t-80 -110.5t-132 -37.5zM253 100q31 0 53 22.5t34.5 70t12.5 122.5q0 69 -12.5 115.5t-34.5 69.5t-53 23q-32 0 -54.5 -23
t-34 -69.5t-11.5 -115.5q0 -75 11.5 -122.5t34 -70t54.5 -22.5zM249 -185q-35 0 -59.5 23.5t-24.5 55.5q0 35 23.5 57t60.5 22q33 0 58.5 -23.5t25.5 -55.5t-25.5 -55.5t-58.5 -23.5z" />
    <glyph glyph-name="uni1ECD" unicode="&#x1ecd;" 
d="M249 -12q-63 0 -115 30.5t-83 86.5t-31 130q0 69 31 125t83 89t115 33t115.5 -33t84 -89t31.5 -125q0 -73 -31.5 -129t-84 -87t-115.5 -31zM249 99q27 0 47.5 17t32.5 47.5t12 71.5q0 44 -12 74t-32.5 46t-47.5 16q-25 0 -45.5 -16t-32.5 -46t-12 -74q0 -41 11.5 -71.5
t32 -47.5t46.5 -17zM246 -185q-35 0 -59.5 23.5t-24.5 55.5q0 35 23.5 57t60.5 22q33 0 58.5 -23.5t25.5 -55.5t-25.5 -55.5t-58.5 -23.5z" />
    <glyph glyph-name="uni1ECE" unicode="&#x1ece;" 
d="M253 -12q-80 0 -133 38t-79.5 110.5t-26.5 176.5q0 103 26.5 174.5t79.5 109.5t133 38q79 0 132 -38t80 -109.5t27 -174.5q0 -104 -27 -177t-80 -110.5t-132 -37.5zM253 100q31 0 53 22.5t34.5 70t12.5 122.5q0 69 -12.5 115.5t-34.5 69.5t-53 23q-32 0 -54.5 -23
t-34 -69.5t-11.5 -115.5q0 -75 11.5 -122.5t34 -70t54.5 -22.5zM383 808q0 -21 -11.5 -38t-26.5 -31t-26.5 -27t-11.5 -26v-9h-83v28q0 17 10.5 30.5t25 24.5t25 21.5t10.5 20.5q0 14 -9.5 22t-24.5 8q-22 0 -37 -9t-26 -32l-44 65q20 25 52.5 37t60.5 11q36 -1 62 -13.5
t40 -33.5t14 -49z" />
    <glyph glyph-name="uni1ECF" unicode="&#x1ecf;" 
d="M249 -12q-63 0 -115 30.5t-83 86.5t-31 130q0 69 31 125t83 89t115 33t115.5 -33t84 -89t31.5 -125q0 -73 -31.5 -129t-84 -87t-115.5 -31zM249 99q27 0 47.5 17t32.5 47.5t12 71.5q0 44 -12 74t-32.5 46t-47.5 16q-25 0 -45.5 -16t-32.5 -46t-12 -74q0 -41 11.5 -71.5
t32 -47.5t46.5 -17zM382 647q0 -21 -11.5 -38t-26.5 -31t-26.5 -27t-11.5 -26v-9h-83v28q0 17 10.5 30.5t25 24.5t25 21.5t10.5 20.5q0 14 -9.5 22t-24.5 8q-22 0 -37 -9t-26 -32l-44 65q20 25 52.5 37t60.5 11q36 -1 62 -13.5t40 -33.5t14 -49z" />
    <glyph glyph-name="uni1ED0" unicode="&#x1ed0;" 
d="M253 -12q-80 0 -133 38t-79.5 110.5t-26.5 176.5q0 103 26.5 174.5t79.5 109.5t133 38q79 0 132 -38t80 -109.5t27 -174.5q0 -104 -27 -177t-80 -110.5t-132 -37.5zM253 100q31 0 53 22.5t34.5 70t12.5 122.5q0 69 -12.5 115.5t-34.5 69.5t-53 23q-32 0 -54.5 -23
t-34 -69.5t-11.5 -115.5q0 -75 11.5 -122.5t34 -70t54.5 -22.5zM99 650l-38 66l173 95h37l162 -91l-43 -71l-138 64zM378 774l-32 62l170 99l47 -96z" />
    <glyph glyph-name="uni1ED1" unicode="&#x1ed1;" 
d="M249 -12q-63 0 -115 30.5t-83 86.5t-31 130q0 69 31 125t83 89t115 33t115.5 -33t84 -89t31.5 -125q0 -73 -31.5 -129t-84 -87t-115.5 -31zM249 99q27 0 47.5 17t32.5 47.5t12 71.5q0 44 -12 74t-32.5 46t-47.5 16q-25 0 -45.5 -16t-32.5 -46t-12 -74q0 -41 11.5 -71.5
t32 -47.5t46.5 -17zM138 494l-62 58l150 138h46l150 -138l-62 -58l-112 98zM399 628l-61 38l82 177l96 -68z" />
    <glyph glyph-name="uni1ED2" unicode="&#x1ed2;" 
d="M253 -12q-80 0 -133 38t-79.5 110.5t-26.5 176.5q0 103 26.5 174.5t79.5 109.5t133 38q79 0 132 -38t80 -109.5t27 -174.5q0 -104 -27 -177t-80 -110.5t-132 -37.5zM253 100q31 0 53 22.5t34.5 70t12.5 122.5q0 69 -12.5 115.5t-34.5 69.5t-53 23q-32 0 -54.5 -23
t-34 -69.5t-11.5 -115.5q0 -75 11.5 -122.5t34 -70t54.5 -22.5zM104 650l-38 66l173 95h37l162 -91l-43 -71l-138 64zM371 817l-187 64l52 97l167 -100z" />
    <glyph glyph-name="uni1ED3" unicode="&#x1ed3;" 
d="M249 -12q-63 0 -115 30.5t-83 86.5t-31 130q0 69 31 125t83 89t115 33t115.5 -33t84 -89t31.5 -125q0 -73 -31.5 -129t-84 -87t-115.5 -31zM249 99q27 0 47.5 17t32.5 47.5t12 71.5q0 44 -12 74t-32.5 46t-47.5 16q-25 0 -45.5 -16t-32.5 -46t-12 -74q0 -41 11.5 -71.5
t32 -47.5t46.5 -17zM138 494l-62 58l150 138h46l150 -138l-62 -58l-112 98zM372 654l-117 147l96 68l82 -177z" />
    <glyph glyph-name="uni1ED4" unicode="&#x1ed4;" 
d="M253 -12q-80 0 -133 38t-79.5 110.5t-26.5 176.5q0 103 26.5 174.5t79.5 109.5t133 38q79 0 132 -38t80 -109.5t27 -174.5q0 -104 -27 -177t-80 -110.5t-132 -37.5zM253 100q31 0 53 22.5t34.5 70t12.5 122.5q0 69 -12.5 115.5t-34.5 69.5t-53 23q-32 0 -54.5 -23
t-34 -69.5t-11.5 -115.5q0 -75 11.5 -122.5t34 -70t54.5 -22.5zM100 650l-38 66l173 95h37l162 -91l-43 -71l-138 64zM526 890q0 -21 -11.5 -38t-26.5 -31t-26.5 -27t-11.5 -26v-9h-83v28q0 17 10.5 30.5t25 24.5t25 21.5t10.5 20.5q0 14 -9.5 22t-24.5 8q-22 0 -37 -9
t-26 -32l-44 65q20 25 52.5 37t60.5 11q36 -1 62 -13.5t40 -33.5t14 -49z" />
    <glyph glyph-name="uni1ED5" unicode="&#x1ed5;" 
d="M249 -12q-63 0 -115 30.5t-83 86.5t-31 130q0 69 31 125t83 89t115 33t115.5 -33t84 -89t31.5 -125q0 -73 -31.5 -129t-84 -87t-115.5 -31zM249 99q27 0 47.5 17t32.5 47.5t12 71.5q0 44 -12 74t-32.5 46t-47.5 16q-25 0 -45.5 -16t-32.5 -46t-12 -74q0 -41 11.5 -71.5
t32 -47.5t46.5 -17zM138 494l-62 58l150 138h46l150 -138l-62 -58l-112 98zM518 762q0 -21 -11.5 -38t-26.5 -31t-26.5 -27t-11.5 -26v-9h-83v28q0 17 10.5 30.5t25 24.5t25 21.5t10.5 20.5q0 14 -9.5 22t-24.5 8q-22 0 -37 -9t-26 -32l-44 65q20 25 52.5 37t60.5 11
q36 -1 62 -13.5t40 -33.5t14 -49z" />
    <glyph glyph-name="uni1ED6" unicode="&#x1ed6;" 
d="M253 -12q-80 0 -133 38t-79.5 110.5t-26.5 176.5q0 103 26.5 174.5t79.5 109.5t133 38q79 0 132 -38t80 -109.5t27 -174.5q0 -104 -27 -177t-80 -110.5t-132 -37.5zM253 100q31 0 53 22.5t34.5 70t12.5 122.5q0 69 -12.5 115.5t-34.5 69.5t-53 23q-32 0 -54.5 -23
t-34 -69.5t-11.5 -115.5q0 -75 11.5 -122.5t34 -70t54.5 -22.5zM100 650l-38 66l173 95h37l162 -91l-43 -71l-138 64zM317 944l64 -30q-17 -39 -41.5 -58.5t-50.5 -19.5q-22 0 -38 8t-28 18.5t-22 18.5t-21 8q-13 0 -22.5 -10.5t-16.5 -27.5l-64 30q15 37 41.5 58t51.5 21
q21 0 37.5 -8t30 -18.5t24 -18.5t19.5 -8q11 0 19 7.5t17 29.5z" />
    <glyph glyph-name="uni1ED7" unicode="&#x1ed7;" 
d="M249 -12q-63 0 -115 30.5t-83 86.5t-31 130q0 69 31 125t83 89t115 33t115.5 -33t84 -89t31.5 -125q0 -73 -31.5 -129t-84 -87t-115.5 -31zM249 99q27 0 47.5 17t32.5 47.5t12 71.5q0 44 -12 74t-32.5 46t-47.5 16q-25 0 -45.5 -16t-32.5 -46t-12 -74q0 -41 11.5 -71.5
t32 -47.5t46.5 -17zM138 494l-62 58l150 138h46l150 -138l-62 -58l-112 98zM316 833l64 -30q-17 -39 -41.5 -58.5t-50.5 -19.5q-22 0 -38 8t-28 18.5t-22 18.5t-21 8q-13 0 -22.5 -10.5t-16.5 -27.5l-64 30q15 37 41.5 58t51.5 21q21 0 37.5 -8t30 -18.5t24 -18.5t19.5 -8
q11 0 19 7.5t17 29.5z" />
    <glyph glyph-name="uni1ED8" unicode="&#x1ed8;" 
d="M253 -12q-80 0 -133 38t-79.5 110.5t-26.5 176.5q0 103 26.5 174.5t79.5 109.5t133 38q79 0 132 -38t80 -109.5t27 -174.5q0 -104 -27 -177t-80 -110.5t-132 -37.5zM253 100q31 0 53 22.5t34.5 70t12.5 122.5q0 69 -12.5 115.5t-34.5 69.5t-53 23q-32 0 -54.5 -23
t-34 -69.5t-11.5 -115.5q0 -75 11.5 -122.5t34 -70t54.5 -22.5zM249 -185q-35 0 -59.5 23.5t-24.5 55.5q0 35 23.5 57t60.5 22q33 0 58.5 -23.5t25.5 -55.5t-25.5 -55.5t-58.5 -23.5zM102 650l-38 66l173 95h37l162 -91l-43 -71l-138 64z" />
    <glyph glyph-name="uni1ED9" unicode="&#x1ed9;" 
d="M249 -12q-63 0 -115 30.5t-83 86.5t-31 130q0 69 31 125t83 89t115 33t115.5 -33t84 -89t31.5 -125q0 -73 -31.5 -129t-84 -87t-115.5 -31zM249 99q27 0 47.5 17t32.5 47.5t12 71.5q0 44 -12 74t-32.5 46t-47.5 16q-25 0 -45.5 -16t-32.5 -46t-12 -74q0 -41 11.5 -71.5
t32 -47.5t46.5 -17zM246 -185q-35 0 -59.5 23.5t-24.5 55.5q0 35 23.5 57t60.5 22q33 0 58.5 -23.5t25.5 -55.5t-25.5 -55.5t-58.5 -23.5zM138 490l-62 58l150 138h46l150 -138l-62 -58l-112 98z" />
    <glyph glyph-name="uni1EDA" unicode="&#x1eda;" 
d="M253 -12q-80 0 -133 38t-79.5 110.5t-26.5 176.5q0 103 26.5 174.5t79.5 109.5t133 38q79 0 132 -38t80 -109.5t27 -174.5q0 -104 -27 -177t-80 -110.5t-132 -37.5zM253 100q31 0 53 22.5t34.5 70t12.5 122.5q0 69 -12.5 115.5t-34.5 69.5t-53 23q-32 0 -54.5 -23
t-34 -69.5t-11.5 -115.5q0 -75 11.5 -122.5t34 -70t54.5 -22.5zM416 487l-10 89q11 0 15 11t5 32t1 51h78q0 -52 -6 -93.5t-24.5 -65.5t-58.5 -24zM175 654l-32 62l170 99l47 -96z" />
    </font>
</defs>
</svg>
