<?xml version="1.0" standalone="no"?>
<!DOCTYPE svg PUBLIC "-//W3C//DTD SVG 1.1//EN" "http://www.w3.org/Graphics/SVG/1.1/DTD/svg11.dtd" >
<svg xmlns="http://www.w3.org/2000/svg" xmlns:xlink="http://www.w3.org/1999/xlink" version="1.1">
<metadata>
Created by FontForge 20170731 at Wed Apr  1 16:10:26 2020
 By Aleksey,,,
Copyright 2006 The Inconsolata Project Authors (https://github.com/cyrealtype/Inconsolata)
</metadata>
<defs>
<font id="Inconsolata-Medium" horiz-adv-x="500" >
  <font-face 
    font-family="Inconsolata Medium"
    font-weight="500"
    font-stretch="normal"
    units-per-em="1000"
    panose-1="0 0 5 9 0 0 0 0 0 0"
    ascent="800"
    descent="-200"
    x-height="460"
    cap-height="623"
    bbox="-80 -400 1455 1000"
    underline-thickness="50"
    underline-position="-275"
    unicode-range="U+000D-FFFD"
  />
<missing-glyph 
 />
    <glyph glyph-name=".notdef" 
 />
    <glyph glyph-name=".null" horiz-adv-x="0" 
 />
    <glyph glyph-name="nonmarkingreturn" horiz-adv-x="333" 
 />
    <glyph glyph-name="NULL" 
 />
    <glyph glyph-name="NULL" 
 />
    <glyph glyph-name="CR" unicode="&#xd;" 
 />
    <glyph glyph-name="space" unicode=" " 
 />
    <glyph glyph-name="exclam" unicode="!" 
d="M210 199l-26 391q0 26 7 43.5t20 26.5t30 9t29.5 -9t20 -28t7.5 -50l-28 -383h-60zM239 -11q-27 0 -46.5 18.5t-19.5 45.5q0 26 19.5 45.5t46.5 19.5t47 -19.5t20 -45.5q0 -25 -20 -44.5t-47 -19.5z" />
    <glyph glyph-name="quotedbl" unicode="&#x22;" 
d="M130 665h88q0 -60 -1 -96t-4 -60.5t-6 -47t-6 -54.5h-54q-3 32 -6 54.5t-6 46.5t-4 60.5t-1 96.5zM282 665h88q0 -60 -1 -96t-4 -60.5t-6 -47t-6 -54.5h-54q-3 32 -6 54.5t-6 46.5t-4 60.5t-1 96.5z" />
    <glyph glyph-name="numbersign" unicode="#" 
d="M266 9l21 177h-102l-20 -172l-70 -1l21 171h-94l4 55h97l19 160h-106l3 57h109l19 168l72 2l-21 -168h101l19 164l74 1l-20 -163h88l-7 -58h-88l-20 -158h95l-5 -55h-95l-22 -175zM192 241h101l20 159h-102z" />
    <glyph glyph-name="dollar" unicode="$" 
d="M234 -46v59q-35 3 -67 12.5t-59.5 26.5t-50.5 40l46 69q6 -3 6.5 -11t4.5 -13q16 -16 34.5 -28t40 -19t44.5 -10v207q-52 18 -87 40.5t-53 51.5t-18 67t21 68.5t57 50.5t81 26v60h67q2 -1 2 -2v-2q0 -3 -3 -8t-4 -13v-34q31 -3 58 -13t50.5 -26t41.5 -38l-46 -58
q-7 1 -8 9t-6 12q-8 9 -17.5 17t-21 13t-24 9.5t-26.5 6.5v-181q58 -19 94.5 -40.5t54.5 -50t18 -71.5q0 -37 -20.5 -73t-58 -61.5t-89.5 -32.5v-60h-62zM297 82q29 5 49.5 19.5t31.5 34.5t11 41q0 22 -9.5 38t-30 29t-52.5 23v-185zM233 366v159q-26 -3 -44.5 -13.5
t-28.5 -25.5t-10 -33t9.5 -33.5t28 -29t45.5 -24.5z" />
    <glyph glyph-name="percent" unicode="%" 
d="M42 0l347 623h66l-350 -623h-63zM370 -10q-31 0 -57 17t-42 47t-16 67t16 66.5t42 47t57 17.5t57 -18t41 -47.5t15 -66.5q0 -36 -15 -66t-41 -47t-57 -17zM371 46q13 0 24 8.5t17.5 25t6.5 40.5q0 21 -6 38t-17 27t-27 10q-13 0 -24 -8t-18 -24t-7 -42q0 -25 7 -42
t19 -25t25 -8zM139 371q-30 0 -56 17t-42 47t-16 68q0 37 16 66.5t42 47t56 17.5q32 0 57.5 -17.5t41.5 -47.5t16 -67q0 -39 -15 -68.5t-41 -46t-59 -16.5zM139 429q13 0 23.5 7.5t17 24t6.5 42.5q0 19 -4 33t-10.5 23t-15.5 13t-18 4q-12 0 -22.5 -7.5t-17.5 -23.5t-7 -42
t7 -42t17.5 -24t23.5 -8z" />
    <glyph glyph-name="ampersand" unicode="&#x26;" 
d="M411 -13l-53 84q-20 -25 -46.5 -43.5t-56.5 -28t-62 -9.5q-47 0 -83 20.5t-56 55.5t-20 77q0 32 8.5 60.5t24 54t38.5 47.5t51 38q-35 42 -51.5 80.5t-16.5 73.5q0 28 11 52.5t30.5 42.5t45 28t54.5 10q41 0 71.5 -19.5t48 -49.5t17.5 -64q0 -26 -8 -51.5t-22 -47.5
t-33 -40.5t-42 -30.5l105 -146q11 13 18.5 25t12.5 23.5t7.5 23t3.5 23.5q0 3 1 6t4 6l70 -48q-11 -21 -23 -40.5t-24.5 -38t-26.5 -37.5l66 -85zM201 62q22 0 41.5 7.5t38 21.5t34.5 33l-118 163q-19 -11 -33 -26.5t-24 -33t-15.5 -36t-5.5 -37.5q0 -20 6.5 -36.5t17.5 -29
t25.5 -19.5t32.5 -7zM221 379q17 9 30 21t22 27.5t13.5 32t4.5 31.5q0 30 -17.5 50.5t-43.5 20.5q-18 0 -32.5 -8.5t-23 -23.5t-8.5 -35q0 -15 5.5 -33t18.5 -38.5t31 -44.5z" />
    <glyph glyph-name="quotesingle" unicode="'" 
d="M206 665h88q0 -60 -1 -96t-4 -60.5t-6 -47t-6 -54.5h-54q-3 32 -6 54.5t-6 46.5t-4 60.5t-1 96.5z" />
    <glyph glyph-name="parenleft" unicode="(" 
d="M395 -105q-87 40 -150 105.5t-96 148t-33 171.5t33 169.5t94 144t146 102.5l22 -72q-48 -26 -87 -62.5t-67 -81t-43 -96t-15 -107.5t15.5 -108t44 -98t68.5 -83t91 -63z" />
    <glyph glyph-name="parenright" unicode=")" 
d="M133 -105l-23 70q51 26 91 63t68.5 83t44 98t15.5 108t-15 107.5t-43 96t-67 81t-87 62.5l22 72q85 -39 146 -102.5t94 -144t33 -169.5t-33 -171.5t-96 -148t-150 -105.5z" />
    <glyph glyph-name="asterisk" unicode="*" 
d="M144 118l-66 53l127 144l-167 50l30 77l155 -75l-18 171h96l-21 -171l151 70l31 -73l-166 -48l123 -145l-67 -52l-102 161z" />
    <glyph glyph-name="plus" unicode="+" 
d="M217 104v183h-174v70h174v168h74v-168h168v-70h-168v-183h-74z" />
    <glyph glyph-name="comma" unicode="," 
d="M204 -169l-43 37q28 26 45 54.5t17 47.5q0 10 -7 19t-17.5 17.5t-17.5 20t-7 25.5q0 28 18.5 45.5t46.5 17.5q30 0 51.5 -24.5t21.5 -64.5q0 -21 -6.5 -43.5t-20 -47t-34 -50.5t-47.5 -54z" />
    <glyph glyph-name="hyphen" unicode="-" 
d="M109 278v76h284v-76h-284z" />
    <glyph glyph-name="period" unicode="." 
d="M238 -11q-26 0 -45 18.5t-19 44.5q0 25 19 44t45 19t44.5 -19t18.5 -44q0 -26 -18.5 -44.5t-44.5 -18.5z" />
    <glyph glyph-name="slash" unicode="/" 
d="M132 -42l-74 34l311 674l74 -38z" />
    <glyph glyph-name="zero" unicode="0" 
d="M107 165l267 333l22 -56l-267 -330zM250 -11q-63 0 -107.5 37t-68.5 108.5t-24 173.5q0 100 24 171.5t68.5 110.5t107.5 39t107.5 -39t68.5 -110.5t24 -171.5q0 -102 -24 -173.5t-68.5 -108.5t-107.5 -37zM250 58q37 0 63 29t40 85t14 136q0 77 -14 132.5t-40 86.5
t-63 31t-63 -31t-40 -86.5t-14 -132.5q0 -80 14 -136t40 -85t63 -29z" />
    <glyph glyph-name="one" unicode="1" 
d="M223 0v525l-122 -38l-19 51l164 86h61v-624h-84z" />
    <glyph glyph-name="two" unicode="2" 
d="M68 65q55 56 100 100.5t80 82t59 70.5t36.5 65.5t12.5 67.5q0 29 -7.5 49t-21 32.5t-32 18.5t-39.5 6q-23 0 -44 -6.5t-40 -19t-35 -32.5q-9 -14 -11 -21.5t-1 -15.5l-5 -5l-7 5l-60 46q21 39 51.5 66t69 41t81.5 14q54 0 95 -22t65 -62t24 -95q0 -40 -13.5 -77.5
t-38 -73t-57.5 -71.5t-72 -74.5t-81 -82.5h220q17 0 24 2t13 8h8v-10v-71h-374v65z" />
    <glyph glyph-name="three" unicode="3" 
d="M238 -11q-51 0 -98 18t-79 54l49 64l7 8l6 -5q1 -8 4 -15.5t14 -19.5q18 -15 40.5 -24.5t53.5 -9.5q37 0 61.5 14.5t37 41t12.5 60.5t-11.5 58t-34 37.5t-54 18.5t-71.5 1v67q47 -1 77 8t46.5 25t23 36.5t6.5 43.5q0 20 -6.5 36t-17.5 27.5t-27.5 18t-35.5 6.5
q-20 0 -39.5 -5t-38 -15t-35.5 -27l-49 50q34 37 77 52.5t85 15.5q53 0 91 -20t59 -55.5t21 -81.5q0 -33 -11.5 -61.5t-33.5 -49t-53 -31.5q33 -10 60 -31t42.5 -52.5t15.5 -74.5q0 -50 -22.5 -91.5t-65.5 -66.5t-106 -25v0z" />
    <glyph glyph-name="four" unicode="4" 
d="M307 0v151h-262v59l280 414h68v-404h80v-70h-80v-150h-86zM137 220h171v260z" />
    <glyph glyph-name="five" unicode="5" 
d="M250 -11q-60 0 -109.5 25t-79.5 72l63 49l8 6l5 -5q-1 -8 2.5 -15t13.5 -20q19 -21 42.5 -31t56.5 -10q24 0 45 10t36.5 28t24.5 44t9 57q0 32 -9 58t-25 44t-38 28t-48 10q-21 0 -41.5 -6.5t-38 -19t-32.5 -30.5l-52 18l21 322h322v-72h-251l-10 -167q16 8 32 13.5t33 8
t33 2.5q41 0 75 -14.5t59.5 -41.5t39 -65.5t13.5 -87.5q0 -65 -26.5 -112t-71 -72.5t-102.5 -25.5v0z" />
    <glyph glyph-name="six" unicode="6" 
d="M261 -10q-64 0 -108.5 36t-67.5 102.5t-23 156.5q0 111 28.5 188t79 117.5t116.5 40.5q40 0 77 -14t67 -44l-50 -57l-6 -8l-6 6q-1 8 -5 14.5t-17 16.5q-8 5 -16.5 8t-18 4t-20.5 1q-16 0 -35 -5t-37.5 -19t-35 -38.5t-27 -64t-11.5 -95.5q13 22 33.5 37t44.5 23.5
t48 8.5q36 0 67.5 -14t55 -40.5t37 -64.5t13.5 -85q0 -62 -24.5 -110t-65.5 -74.5t-93 -26.5v0zM263 61q21 0 39 9.5t32 27t22 43t8 59.5q0 35 -9 60.5t-24 41.5t-33 24t-36 8q-17 0 -33.5 -6t-31 -16.5t-27 -24.5t-22.5 -31q-3 -36 3.5 -70.5t21.5 -62.5t38 -45t52 -17v0z
" />
    <glyph glyph-name="seven" unicode="7" 
d="M145 0q29 94 59.5 185t63 181t67.5 181h-261v76h362v-47q-28 -70 -55.5 -141t-52.5 -143t-47.5 -144.5t-44.5 -147.5h-91z" />
    <glyph glyph-name="eight" unicode="8" 
d="M250 -10q-60 0 -104 22.5t-68 60.5t-24 85q0 37 15.5 70t43 59.5t64.5 43.5q-27 16 -48 38t-33 49.5t-12 57.5q0 43 20 78t58 56.5t93 21.5q58 0 95.5 -20.5t56.5 -54.5t19 -75q0 -23 -7 -45t-19 -41.5t-29.5 -35.5t-39.5 -28q27 -13 48 -31t36.5 -40t23.5 -47t8 -52
q0 -50 -24.5 -88.5t-68.5 -61t-104 -22.5zM252 63q36 0 60.5 13.5t37 36.5t12.5 51q0 22 -9 42.5t-25.5 37.5t-40 31.5t-52.5 22.5q-20 -9 -38 -22.5t-30.5 -31t-19.5 -36.5t-7 -41q0 -29 13 -52.5t38.5 -37.5t60.5 -14zM268 360q17 10 31 23.5t24 28.5t16 32t6 34
q0 22 -10.5 41t-31 31t-50.5 12t-49.5 -11.5t-29.5 -30t-10 -40.5q0 -21 8 -38.5t22.5 -31.5t33.5 -26.5t40 -23.5z" />
    <glyph glyph-name="nine" unicode="9" 
d="M227 -10q-47 0 -86 13.5t-71 42.5l48 61l7 8l6 -5q1 -8 5 -14.5t16 -17.5q15 -9 31.5 -13.5t37.5 -4.5q37 0 63.5 21t43.5 57t26 82t9 96q0 84 -12 137.5t-37.5 79t-64.5 25.5q-24 0 -44 -9t-34.5 -27t-22 -43t-7.5 -57q0 -28 8.5 -50.5t23.5 -38t34.5 -23.5t41.5 -8
q32 0 55 7t42.5 24t35.5 45l7 -80q-17 -20 -38 -35t-47.5 -23.5t-58.5 -8.5q-39 0 -73 13.5t-59 39t-38.5 61t-13.5 78.5q0 44 14.5 81.5t40 65.5t59.5 43.5t73 15.5q61 0 104.5 -34t66.5 -95t23 -144q0 -122 -25.5 -203t-73.5 -121.5t-116 -41.5v0z" />
    <glyph glyph-name="colon" unicode=":" 
d="M237 302q-26 0 -45 19t-19 44q0 26 19 45t45 19q25 0 45 -18.5t20 -45.5q0 -25 -19 -44t-46 -19zM237 -11q-27 0 -45.5 18.5t-18.5 44.5t19 45t45 19q25 0 45 -19t20 -45q0 -25 -18.5 -44t-46.5 -19z" />
    <glyph glyph-name="semicolon" unicode=";" 
d="M204 -169l-44 37q28 26 45.5 54.5t17.5 47.5q0 10 -7.5 19t-17.5 17.5t-17 20t-7 25.5q0 19 8.5 33t23 22t33.5 8q30 0 51.5 -24.5t21.5 -64.5q0 -28 -12 -59t-36 -64.5t-60 -71.5zM237 302q-26 0 -45 19t-19 44q0 26 19 45t45 19q25 0 45 -18.5t20 -45.5q0 -25 -19 -44
t-46 -19z" />
    <glyph glyph-name="less" unicode="&#x3c;" 
d="M463 43l-429 252v52l426 225v-82l-336 -170l339 -189v-88z" />
    <glyph glyph-name="equal" unicode="=" 
d="M44 385v70h414v-70h-414zM44 177v70h414v-70h-414z" />
    <glyph glyph-name="greater" unicode="&#x3e;" 
d="M39 43v87l338 190l-336 170v82l427 -225v-52z" />
    <glyph glyph-name="question" unicode="?" 
d="M221 235q0 36 10 61t25.5 43.5t32.5 35t33 34t25.5 40.5t9.5 54q0 22 -7.5 39t-21.5 29t-33.5 18.5t-41.5 6.5q-34 0 -61 -10.5t-49 -32.5q-10 -13 -12.5 -20t-1.5 -15l-5 -6l-8 6l-54 42q23 34 49.5 57.5t62 36t83.5 12.5q55 0 95.5 -20t63 -55.5t22.5 -83.5
q0 -39 -10 -66.5t-26 -47.5t-34 -36.5t-34 -33t-26 -37.5t-10 -51v-44h-77v44zM261 -11q-26 0 -45 18.5t-19 44.5q0 25 19 44t45 19t44.5 -19t18.5 -44q0 -26 -18.5 -44.5t-44.5 -18.5z" />
    <glyph glyph-name="at" unicode="@" 
d="M295 -11q-50 0 -98 19.5t-85.5 59.5t-60 101t-22.5 145q0 82 21 142.5t56 99.5t78 58t87 19q40 0 76 -14t63 -42.5t42.5 -72.5t15.5 -102v-229h-70v35q-17 -21 -40 -32t-52 -11q-38 0 -68 17t-47 47.5t-17 68.5q0 35 13 63.5t40.5 49t69.5 30.5t98 7q0 37 -15.5 65
t-43.5 44t-68 16q-34 0 -65 -14.5t-55 -45.5t-38 -78t-14 -112q0 -70 17 -120.5t46.5 -83.5t66 -49t75.5 -16q28 0 55 8.5t52 26.5l32 -56q-32 -21 -69 -32.5t-76 -11.5zM317 227q21 0 36.5 8.5t25.5 27.5t15 50t5 76q-53 4 -87 -6t-51 -30.5t-17 -49.5q0 -36 18 -56t55 -20
z" />
    <glyph glyph-name="A" unicode="A" 
d="M360 170h-232l15 63h200zM249 455l-151 -455h-83l223 632h24l223 -632h-86z" />
    <glyph glyph-name="B" unicode="B" 
d="M44 0v623h182q54 0 94 -11t66 -31.5t38.5 -48.5t12.5 -62q0 -28 -10.5 -55.5t-30.5 -49t-50 -32.5q26 -10 47.5 -26t36.5 -36.5t23.5 -44.5t8.5 -49q0 -40 -14.5 -72.5t-43.5 -56t-74 -36t-105 -12.5h-181zM128 72h109q41 0 71.5 11t47.5 35t17 62q0 35 -15 61.5t-48 42
t-90 15.5h-92v-227zM128 368h88q51 0 81 12t42.5 33.5t12.5 47.5q0 20 -7 36.5t-21.5 29t-38.5 19.5t-58 7h-99v-185z" />
    <glyph glyph-name="C" unicode="C" 
d="M283 -10q-51 0 -95.5 18.5t-78 57.5t-52.5 99t-19 143q0 73 14 127.5t38.5 92t56 59.5t66 32t69.5 10q69 0 117.5 -33t73.5 -89l-64 -37l-9 -4l-3 7q2 8 -1 15t-11 21q-24 31 -49.5 42t-53.5 11q-35 0 -65 -16.5t-52 -48.5t-33.5 -78.5t-11.5 -105.5q0 -57 12.5 -103.5
t34.5 -79.5t51.5 -51t63.5 -18q25 0 47.5 8t41.5 25t33 40l60 -42q-31 -52 -75 -77t-106 -25v0z" />
    <glyph glyph-name="D" unicode="D" 
d="M50 -1v624h150q55 0 92 -10t63 -28.5t47 -46.5t34.5 -63.5t20.5 -76.5t7 -90q-2 -72 -18.5 -129t-49 -97t-83.5 -61.5t-125 -21.5h-138zM131 65h54q70 0 113 28.5t63.5 82.5t19.5 129q0 77 -18.5 133t-58.5 86t-108 30h-65v-489z" />
    <glyph glyph-name="E" unicode="E" 
d="M56 0v624h390v-72h-309v-190h255v-74h-255v-216h306v-72h-387z" />
    <glyph glyph-name="F" unicode="F" 
d="M74 0v624h369v-71h-289v-181h233v-71h-233v-301h-80z" />
    <glyph glyph-name="G" unicode="G" 
d="M277 -10q-76 0 -131 39t-84.5 110.5t-29.5 166.5q0 80 15.5 136.5t42.5 93.5t59.5 58t65 29t59.5 8q39 0 75 -13.5t66 -36.5t47 -56l-54 -48l-8 -7l-5 6q1 8 -2 15t-14 20q-14 16 -29 26.5t-33.5 15.5t-41.5 5q-26 0 -49.5 -7t-43.5 -24.5t-35 -45t-23 -68t-8 -94.5
q0 -63 11 -111t32.5 -80.5t51 -49t66.5 -16.5q13 0 27.5 1.5t29 6t28 11.5t25.5 16v137h-110v72h187v-251q-44 -33 -91.5 -49t-95.5 -16v0z" />
    <glyph glyph-name="H" unicode="H" 
d="M46 623h86h10v-8q-6 -6 -7.5 -13t-1.5 -24v-217h226v262h86h10v-8q-6 -6 -7.5 -13t-1.5 -24v-578h-87v291h-226v-291h-87v623z" />
    <glyph glyph-name="I" unicode="I" 
d="M77 0v70h123v483h-116v70h321v-70h-123v-484h129v-69h-334z" />
    <glyph glyph-name="J" unicode="J" 
d="M195 -12q-45 0 -84 17t-68 52l45 63l7 8l6 -5q1 -8 4.5 -15.5t15.5 -18.5q16 -12 33 -18.5t38 -6.5q31 0 51 14.5t29.5 47.5t9.5 86v341h-118v70h296v-70h-94v-343q1 -59 -12.5 -101.5t-38 -69.5t-55.5 -39t-65 -12v0z" />
    <glyph glyph-name="K" unicode="K" 
d="M174 302l-47 -54v-248h-87v623h86h10v-8q-6 -6 -7.5 -13t-1.5 -24v-231l243 281q6 -1 13.5 -2t15 -1.5t15.5 -1t15 -0.5h34l-227 -266l242 -357l-103 -4z" />
    <glyph glyph-name="L" unicode="L" 
d="M63 623h86h10v-8q-6 -6 -7.5 -13t-1.5 -24v-507h295v-71h-382v623z" />
    <glyph glyph-name="M" unicode="M" 
d="M38 0v623h70l143 -299l145 300h68v-624h-77v458l-122 -243h-37l-114 241v-456h-76z" />
    <glyph glyph-name="N" unicode="N" 
d="M46 623h84l245 -445l-2 445h78h10v-8q-6 -6 -7.5 -13t-1.5 -24v-578h-72l-256 472v-472h-78v623z" />
    <glyph glyph-name="O" unicode="O" 
d="M251 -11q-73 0 -123.5 37t-77 109t-26.5 174q0 100 26.5 171.5t77 110t123.5 38.5t123 -38.5t76.5 -110t26.5 -171.5q0 -102 -26.5 -174t-76.5 -109t-123 -37zM251 60q44 0 75.5 28.5t48 84t16.5 136.5q0 77 -16.5 132.5t-48 85.5t-75.5 30t-76 -30t-48.5 -85.5
t-16.5 -132.5q0 -81 16.5 -136.5t48.5 -84t76 -28.5z" />
    <glyph glyph-name="P" unicode="P" 
d="M55 0v623h204q71 0 115.5 -24.5t65.5 -64.5t21 -89q0 -37 -11.5 -68.5t-35.5 -55.5t-61 -37.5t-89 -13.5h-122v-270h-87zM142 343h114q42 0 68 12.5t38 35.5t12 52t-12 52t-38 37t-67 14h-115v-203z" />
    <glyph glyph-name="Q" unicode="Q" 
d="M393 -145q-48 -2 -81.5 4.5t-54 23.5t-30 44t-9.5 67q-52 8 -95.5 45.5t-70 105t-26.5 164.5q0 91 20 153t53.5 99t73 53.5t78.5 16.5q45 0 86 -18.5t72.5 -57.5t49 -99.5t16.5 -144.5q0 -70 -12 -125t-35 -94.5t-57 -63.5t-77 -34q2 -20 8 -35.5t20 -23.5t39 -8l82 4
l-2 -76h-48zM255 64q25 0 49.5 12.5t44.5 40.5t32.5 72.5t12.5 108.5q0 78 -13 128.5t-34.5 80t-46.5 41.5t-49 12q-35 0 -62 -19t-45 -51.5t-27 -75.5t-9 -92q0 -78 18 -136t51 -90t78 -32z" />
    <glyph glyph-name="R" unicode="R" 
d="M52 0v623h189q75 0 121.5 -22t68 -62.5t21.5 -95.5q0 -34 -15 -69t-43 -61t-66 -38l141 -275h-92l-134 270h-105v-270h-86zM138 342h111q60 0 88 27.5t28 72.5q0 29 -12 52.5t-38 37.5t-66 14h-111v-204z" />
    <glyph glyph-name="S" unicode="S" 
d="M245 -10q-61 0 -111.5 19.5t-87.5 57.5l43 73l4 9l7 -4q2 -7 5.5 -15.5t14.5 -20.5q26 -21 59 -33.5t74 -12.5q27 0 49 7.5t38.5 20.5t25.5 31t9 39q0 16 -3.5 29t-12.5 24t-24 22t-39 24t-58 28q-64 26 -101.5 55t-53.5 62t-16 71q0 46 24 81t67.5 55t101.5 20
q36 0 68.5 -9.5t60.5 -26.5t50 -43l-48 -60l-6 -8l-7 5q-1 8 -4 16t-14 20q-22 21 -47 28.5t-60 7.5q-23 0 -41.5 -6t-31.5 -18t-20.5 -26.5t-7.5 -30.5t4 -28.5t13 -24.5t25.5 -24.5t42 -25t61.5 -27.5q47 -20 78 -39t48.5 -40.5t25.5 -46t8 -55.5q0 -43 -22 -85t-69 -68.5
t-122 -26.5v0z" />
    <glyph glyph-name="T" unicode="T" 
d="M202 0v550h-174v74h439v-74h-181v-550h-84z" />
    <glyph glyph-name="U" unicode="U" 
d="M251 -12q-101 0 -153.5 60.5t-52.5 167.5v407h83h10v-8q-6 -6 -7.5 -13t-1.5 -24v-363q0 -72 27 -114.5t96 -42.5t96.5 42.5t27.5 117.5v405h82v-404q0 -79 -26 -130t-72.5 -76t-108.5 -25v0z" />
    <glyph glyph-name="V" unicode="V" 
d="M230 -3l-208 627h86l150 -466l142 465h82l-205 -626h-47z" />
    <glyph glyph-name="W" unicode="W" 
d="M109 0l-94 623h76l58 -411l94 364h34l94 -365l49 412h70l-93 -623h-41l-101 399l-103 -399h-43z" />
    <glyph glyph-name="X" unicode="X" 
d="M37 0l168 318l-165 306h88l123 -227l120 227h83l-155 -305l174 -319h-92l-129 236l-126 -236h-89z" />
    <glyph glyph-name="Y" unicode="Y" 
d="M214 0v246l-190 377h92l145 -288l130 288h87l-175 -377v-246h-89z" />
    <glyph glyph-name="Z" unicode="Z" 
d="M46 57l306 492h-294v74h394v-57l-301 -493h272q17 0 24 2t13 8h8v-10v-73h-422v57z" />
    <glyph glyph-name="bracketleft" unicode="[" 
d="M126 -89v759h295v-71h-216v-620h217v-68h-296z" />
    <glyph glyph-name="backslash" unicode="\" 
d="M371 -43l-313 671l74 37l312 -673z" />
    <glyph glyph-name="bracketright" unicode="]" 
d="M423 -89h-296v68h217v620h-216v71h295v-759z" />
    <glyph glyph-name="asciicircum" unicode="^" 
d="M148 339l-62 30l153 254h33l137 -253l-64 -31l-93 168z" />
    <glyph glyph-name="underscore" unicode="_" 
d="M34 -87v71h433v-71h-433z" />
    <glyph glyph-name="grave" unicode="`" 
d="M254 506l-104 137l63 46l84 -155z" />
    <glyph glyph-name="a" unicode="a" 
d="M207 -11q-78 0 -120 35.5t-42 91.5q0 37 17.5 67.5t49.5 51.5t76 32.5t97 11.5h29.5t33 -1.5t35.5 -3.5l3 -63q-16 2 -33 3.5t-33.5 2t-31.5 0.5q-37 0 -66.5 -6t-49.5 -17.5t-31 -29t-11 -40.5q0 -20 7 -33t19 -21t28 -11.5t35 -3.5q36 0 63.5 11.5t47 34.5t29.5 56.5
t10 78.5q0 64 -14.5 100t-43.5 50.5t-73 14.5q-33 0 -63.5 -11.5t-57.5 -38.5l-44 53q35 34 79 50t91 16q45 0 82 -10.5t64.5 -35.5t42.5 -67t15 -106v-251h-91v63q-13 -22 -30.5 -36.5t-37 -22.5t-40.5 -11.5t-41 -3.5z" />
    <glyph glyph-name="b" unicode="b" 
d="M270 -11q-27 0 -51 8t-44.5 23.5t-36.5 36.5l-23 -57h-59v667h86h10v-8q-6 -6 -7.5 -13t-1.5 -24v-226q11 16 25 30t31.5 24.5t36.5 15.5t38 5q42 0 76.5 -15t59.5 -44.5t38.5 -73.5t13.5 -103q0 -62 -16 -108.5t-43 -77t-61.5 -45.5t-71.5 -15v0zM257 61q23 0 44 8.5
t38 28.5t26.5 52.5t9.5 78.5q0 43 -8.5 75.5t-23.5 54t-36.5 32t-47.5 10.5q-35 0 -61 -21t-40.5 -60t-14.5 -90q0 -39 6.5 -70t20 -53.5t35 -34t52.5 -11.5v0z" />
    <glyph glyph-name="c" unicode="c" 
d="M283 -11q-51 0 -93.5 18t-73.5 50t-48.5 75.5t-17.5 95.5q0 51 17.5 95t48.5 76.5t73.5 51t92.5 18.5q59 0 104.5 -23t73.5 -63l-51 -53l-6 -7l-6 6q0 8 -3 15.5t-15 19.5q-21 19 -45.5 26.5t-56.5 7.5q-27 0 -52 -11.5t-44.5 -33t-31 -52.5t-11.5 -69t11.5 -68.5
t31.5 -53t47.5 -35t58.5 -12.5q22 0 43 6t40 18.5t35 31.5l49 -56q-35 -38 -79 -56t-92 -18v0z" />
    <glyph glyph-name="d" unicode="d" 
d="M231 -10q-36 0 -70 15t-61 45t-43 76t-16 108t16.5 106.5t44 74t61.5 43.5t71 14q29 0 53.5 -9t43 -24.5t29.5 -37.5v266h81h10v-8q-6 -6 -7.5 -13t-1.5 -24l1 -554q0 -17 1.5 -34t8.5 -34h-84q-5 12 -7 22t-2.5 20.5t-0.5 21.5q-14 -23 -33 -40t-43 -25.5t-52 -8.5v0z
M245 62q30 0 51 12t34 35t19.5 54.5t6.5 68.5q0 51 -12 89.5t-38 60t-66 21.5q-28 0 -50 -11t-36 -32.5t-21.5 -51t-7.5 -66.5q0 -55 14.5 -95t41.5 -62.5t64 -22.5v0z" />
    <glyph glyph-name="e" unicode="e" 
d="M272 -10q-50 0 -91.5 15.5t-72 45.5t-46.5 75t-16 102q0 58 16.5 103t45.5 76t68 47.5t83 16.5q39 0 74 -13.5t60.5 -40.5t40.5 -68.5t15 -97.5q0 -9 -0.5 -19.5t-1.5 -18.5h-319q2 -41 14.5 -70.5t32.5 -48t45.5 -27.5t54.5 -9q23 0 43.5 5t38.5 16t33 27l46 -44
q-20 -24 -45.5 -40.5t-55 -24t-63.5 -7.5zM131 278h233q0 30 -8 53t-22 40t-34.5 25.5t-45.5 8.5q-23 0 -43 -7.5t-36.5 -23.5t-28 -39.5t-15.5 -56.5z" />
    <glyph glyph-name="f" unicode="f" 
d="M154 392h-99v68h99v34q0 62 23.5 101.5t63.5 58.5t89 19q45 0 83.5 -15.5t64.5 -47.5l-40 -61l-5 -8l-7 4q-2 8 -5 16t-14 19q-17 14 -33 19.5t-40 5.5q-28 0 -50 -11t-34 -35t-12 -64v-35h146v-68h-146v-392h-84v392z" />
    <glyph glyph-name="g" unicode="g" 
d="M244 -174q-48 0 -87 8t-66 23t-41.5 37t-14.5 51q0 27 12 48.5t31.5 36.5t43.5 23l37 -19q-17 -11 -28.5 -21.5t-17 -24t-5.5 -32.5q0 -15 10 -27.5t28 -20.5t44 -12.5t58 -4.5q43 0 71 8.5t42 24t14 34.5q0 20 -8 32.5t-32 18.5t-70 6q-34 0 -64 3t-54.5 10t-41.5 17.5
t-26.5 26.5t-9.5 37q0 28 16.5 52t42.5 46l40 -28q-10 -11 -16.5 -18.5t-9.5 -14.5t-3 -16q0 -15 13.5 -24t46 -13.5t86.5 -4.5q50 0 82 -9t50 -25.5t25.5 -38t7.5 -46.5q0 -28 -11.5 -53.5t-36 -45.5t-63.5 -32t-95 -12zM227 156q-49 0 -86 21t-57.5 57.5t-20.5 81.5
q0 44 20.5 80t57.5 58t86 22q50 0 86.5 -22t57 -58t20.5 -80q0 -45 -20.5 -81.5t-57 -57.5t-86.5 -21zM227 223q27 0 47.5 12.5t33 33.5t12.5 47t-12.5 46.5t-33 33t-47.5 12.5q-26 0 -47 -12.5t-33 -33.5t-12 -46t12 -46.5t33 -34t47 -12.5zM364 382l-33 40q29 27 62 40
t75 10l10 -66q-32 4 -61 -1t-53 -23z" />
    <glyph glyph-name="h" unicode="h" 
d="M67 667h84h9v-8q-5 -6 -6.5 -13t-1.5 -24v-237q17 27 41 46t50.5 29.5t53.5 10.5q42 0 74.5 -19.5t50 -62t17.5 -111.5v-278h-84v276q0 46 -10 73t-27.5 39t-40.5 12q-18 0 -36 -6t-34 -17.5t-28.5 -28t-19.5 -37.5t-7 -47v-264h-85v667z" />
    <glyph glyph-name="i" unicode="i" 
d="M95 0v68h116v323h-110v69h196v-392h106v-68h-308zM249 549q-24 0 -41 17t-17 40q0 25 16.5 41t41.5 16q23 0 40.5 -17t17.5 -40t-17.5 -40t-40.5 -17z" />
    <glyph glyph-name="j" unicode="j" 
d="M193 -175q-44 0 -83 17t-66 50l47 63l6 8l6 -5q2 -8 5 -15.5t14 -19.5q13 -11 30.5 -18t39.5 -7q29 0 50 12.5t32.5 39t11.5 68.5v373h-167v69h254v-436q0 -70 -25 -114t-65.5 -64.5t-89.5 -20.5v0zM323 549q-24 0 -41 17t-17 40q0 25 16.5 41t41.5 16q23 0 40.5 -17
t17.5 -40t-17.5 -40t-40.5 -17z" />
    <glyph glyph-name="k" unicode="k" 
d="M201 223l-53 -50v-173h-87v667h86h10v-8q-6 -6 -7.5 -13t-1.5 -24v-358l212 198l14 -2t14.5 -1.5t15.5 -1t14 -0.5h36l-190 -181l219 -276l-105 -4z" />
    <glyph glyph-name="l" unicode="l" 
d="M74 0v68h133v531h-127v68h214v-599h133v-68h-353z" />
    <glyph glyph-name="m" unicode="m" 
d="M35 0v460h76v-42q11 17 25 28.5t30.5 18t33.5 6.5q19 0 35.5 -7.5t28 -22t16.5 -34.5q10 20 25 34t35 22t42 8q24 0 41 -9t28.5 -25t16.5 -39t4 -50v-348h-77v322q0 38 -4.5 56.5t-13 24t-20.5 5.5q-17 0 -32 -15.5t-24.5 -40t-9.5 -51.5v-301h-75v317q0 54 -9.5 72
t-34.5 18q-11 0 -21.5 -7t-19 -19.5t-14 -32t-5.5 -43.5v-305h-77z" />
    <glyph glyph-name="n" unicode="n" 
d="M66 0v460h85v-76q17 26 40 45.5t50.5 30.5t57.5 11q39 0 70 -19.5t50 -61.5t19 -112v-278h-84v276q0 45 -10 72t-28 39.5t-41 12.5q-21 0 -43 -9.5t-40.5 -26.5t-29.5 -41.5t-11 -54.5v-268h-85z" />
    <glyph glyph-name="o" unicode="o" 
d="M250 -9q-62 0 -110.5 30.5t-76.5 84.5t-28 124t28 124t76.5 85t110.5 31t110.5 -31t76.5 -85t28 -124t-28 -124t-76.5 -84.5t-110.5 -30.5zM250 61q37 0 65 22t44.5 60t16.5 88t-16.5 88t-44.5 59.5t-65 21.5q-36 0 -64.5 -21.5t-45 -59.5t-16.5 -88t16 -88t44.5 -60
t65.5 -22z" />
    <glyph glyph-name="p" unicode="p" 
d="M56 -167v627h86v-82q12 32 32.5 52.5t47 30t56.5 9.5q38 0 72 -15t60 -44.5t41.5 -74t15.5 -104.5q0 -61 -16 -107t-43.5 -76t-61.5 -45.5t-70 -15.5q-26 0 -51 7.5t-45.5 22.5t-35.5 35v-220h-88zM258 60q23 0 44.5 8.5t39 28t27.5 52.5t10 83q0 52 -13 88.5t-38 56.5
t-61 22q-27 2 -49.5 -8t-39.5 -32t-26 -57t-9 -85q1 -32 6 -57t15 -44t23.5 -31t31.5 -18.5t39 -6.5z" />
    <glyph glyph-name="q" unicode="q" 
d="M360 -167v230q-13 -22 -33 -39t-45 -25.5t-53 -8.5q-41 0 -76.5 17.5t-61.5 49t-40 76t-14 98.5q0 56 15 100.5t42.5 76t64.5 47.5t80 16q23 0 41.5 -4.5t34.5 -14t28 -23t21 -29.5v60h82v-627h-86zM244 61q24 0 45 10t37 31t24.5 55.5t8.5 82.5q0 45 -8 76.5t-23 50.5
t-34.5 27.5t-43.5 8.5q-26 0 -49.5 -9.5t-40.5 -30t-27 -52.5t-10 -77q0 -42 8.5 -74t24.5 -54t38.5 -33.5t49.5 -11.5z" />
    <glyph glyph-name="r" unicode="r" 
d="M109 460h89l-2 -132l-11 12q6 31 20.5 55t35 41t45.5 26t52 9q37 0 67.5 -12.5t55.5 -38.5l-37 -69l-4 -9l-7 4q-3 8 -6.5 15.5t-16.5 17.5q-15 11 -29 15t-32 4q-24 0 -48 -9t-43.5 -28t-30.5 -48.5t-11 -69.5v-244h-87v461z" />
    <glyph glyph-name="s" unicode="s" 
d="M254 -10q-40 0 -76 7.5t-67 24t-58 40.5l43 76l6 9l6 -4q3 -8 5.5 -16.5t13.5 -20.5q23 -21 53 -34t76 -13q34 0 57.5 8.5t36 23t12.5 34.5q0 14 -6 24.5t-19 19.5t-35 18.5t-53 18.5q-51 15 -89.5 34.5t-59.5 46.5t-21 62q0 37 20.5 64t59 42.5t93.5 15.5q31 0 57 -4.5
t48.5 -13.5t42 -22.5t36.5 -31.5l-46 -59l-7 -8l-5 5q-1 8 -4.5 15.5t-15.5 18.5q-22 17 -49.5 26t-54.5 9q-38 0 -65.5 -13t-27.5 -40q0 -15 11 -28t38 -26t76 -26q56 -17 91 -36t51 -44t16 -59q0 -38 -21 -71.5t-63.5 -53t-105.5 -19.5v0z" />
    <glyph glyph-name="t" unicode="t" 
d="M299 -8q-43 0 -71.5 14.5t-45 45t-22 78.5t-3.5 116l12 328l89 11l10 1l1 -7q-5 -7 -8.5 -14t-5.5 -24l-9 -122l3 -14l-7 -162q-3 -72 4 -111.5t24.5 -54.5t44.5 -15q33 0 58.5 13t51.5 32l22 -65q-34 -25 -70.5 -37.5t-77.5 -12.5v0zM66 460h339v-69h-339v69z" />
    <glyph glyph-name="u" unicode="u" 
d="M218 -11q-27 0 -51.5 7.5t-44 24t-34 41t-22 59t-7.5 78.5l1 261h84v-261q0 -39 7 -66.5t20 -44t30.5 -23.5t36.5 -7q23 0 43.5 8.5t36 26.5t24.5 45.5t9 64.5v257h85v-388q0 -19 1.5 -36.5t8.5 -35.5h-81q-5 11 -7 22t-2.5 22.5t-0.5 22.5q-11 -19 -25.5 -33.5
t-32.5 -24.5t-37.5 -15t-41.5 -5z" />
    <glyph glyph-name="v" unicode="v" 
d="M215 0l-179 460h88l138 -361h-15l75 174q23 53 36.5 99.5t18.5 87.5h81q-7 -43 -24 -92.5t-40 -105.5l-112 -262h-67z" />
    <glyph glyph-name="w" unicode="w" 
d="M104 -1l-90 461h74l67 -351l74 305h49l91 -304q12 82 19.5 135t11.5 88t5 59.5t1 48.5v19h77q-9 -76 -20 -154t-24.5 -155t-29.5 -152h-78l-78 282l-73 -282h-76z" />
    <glyph glyph-name="x" unicode="x" 
d="M41 0l161 232l-159 228h93l112 -161l107 161h88l-148 -224l168 -236h-96l-119 168l-112 -168h-95z" />
    <glyph glyph-name="y" unicode="y" 
d="M127 -175q-33 0 -59.5 10.5t-47.5 30.5l33 58l6 9l7 -4q2 -8 7 -14t18 -15q9 -3 18.5 -4.5t19.5 -1.5q25 0 42 12t30.5 38t26.5 65l92 274q15 45 27.5 88.5t16.5 88.5h83q-6 -46 -21.5 -94t-32.5 -94l-114 -320q-26 -70 -64 -98.5t-88 -28.5v0zM41 460h88l144 -373
l-41 -99z" />
    <glyph glyph-name="z" unicode="z" 
d="M47 55l274 332h-254v73h363v-57l-270 -331h249q17 0 24 2t13 8h7v-10v-72h-406v55z" />
    <glyph glyph-name="braceleft" unicode="{" 
d="M369 -92q-72 0 -121 15t-74 53.5t-22 108.5l3 97q0 42 -9.5 65t-28 31.5t-45.5 8.5h-25v66h24q29 0 48 10t28.5 32t9.5 58l-2 76q0 58 22 97t64 58.5t102 19.5h67v-67h-85q-44 0 -65.5 -24.5t-21.5 -72.5l2 -75q0 -35 -9.5 -63t-28.5 -48.5t-46 -33.5q27 -10 45 -30.5
t27.5 -51t9.5 -71.5l-3 -81q0 -41 12 -65.5t38.5 -35t68.5 -10.5h55v-67h-40z" />
    <glyph glyph-name="bar" unicode="|" 
d="M211 -151v803h79v-803h-79z" />
    <glyph glyph-name="braceright" unicode="}" 
d="M93 -92h-40v67h55q43 0 69 10.5t38 35t12 65.5l-3 81q0 41 9.5 71.5t28 51t44.5 30.5q-27 13 -46 33.5t-28.5 48.5t-9.5 63l2 75q0 48 -21.5 72.5t-65.5 24.5h-85v67h67q61 0 102.5 -19.5t63.5 -58.5t22 -97l-2 -76q0 -36 9.5 -58t29 -32t47.5 -10h24v-66h-25
q-26 0 -45 -8.5t-28.5 -31.5t-9.5 -65l3 -97q3 -70 -21.5 -108.5t-74 -53.5t-121.5 -15z" />
    <glyph glyph-name="asciitilde" unicode="~" 
d="M347 260q-26 0 -46 8t-36.5 19t-32.5 19t-36 8q-24 0 -42 -10t-35 -36l-56 33q12 23 30 41t42.5 28.5t55.5 10.5q26 0 45 -8t35.5 -19t33 -19t36.5 -8q22 0 38 11.5t34 38.5l51 -40q-17 -27 -35 -44t-38 -25t-44 -8z" />
    <glyph glyph-name="uni00A0" unicode="&#xa0;" 
 />
    <glyph glyph-name="exclamdown" unicode="&#xa1;" 
d="M210 388h60l28 -383q0 -31 -7.5 -50t-20 -28t-29.5 -9t-30 9t-20 27t-7 43zM239 598q27 0 47 -19t20 -45t-20 -45.5t-47 -19.5t-46.5 19.5t-19.5 45.5q0 27 19.5 45.5t46.5 18.5z" />
    <glyph glyph-name="cent" unicode="&#xa2;" 
d="M257 -73h-67l95 696h64zM283 32q-51 0 -93.5 18t-73.5 50t-48.5 75.5t-17.5 95.5q0 51 17.5 95t48.5 76.5t73.5 51t92.5 18.5q59 0 104.5 -23t73.5 -63l-51 -53l-6 -7l-6 6q0 8 -3 15.5t-15 19.5q-21 19 -45.5 26.5t-56.5 7.5q-27 0 -52 -11.5t-44.5 -33t-31 -52.5
t-11.5 -69t11.5 -68.5t31.5 -53t47.5 -35t58.5 -12.5q22 0 43 6t40 18.5t35 31.5l49 -56q-35 -38 -79 -56t-92 -18v0z" />
    <glyph glyph-name="sterling" unicode="&#xa3;" 
d="M66 -10l-30 67q41 20 64 40t33.5 49.5t10.5 76.5q0 18 -3 41t-11 52h-65v68h50q-3 16 -4.5 30.5t-1.5 28.5q0 56 24 96t65 62.5t89 22.5q39 0 72 -13.5t62 -40.5l-49 -62q-16 20 -36.5 34.5t-62.5 14.5q-25 0 -44 -14t-29.5 -39t-10.5 -60q0 -12 1.5 -26.5t5.5 -33.5h128
v-68h-113q7 -26 9.5 -49t2.5 -42q0 -24 -3.5 -46t-11 -42t-18.5 -39q25 3 48.5 -2.5t45.5 -14t44 -15t43 -6.5q18 0 35.5 7.5t36.5 22.5l29 -61q-27 -22 -53.5 -33t-54.5 -11q-15 0 -37 7t-48 15.5t-50.5 15.5t-45.5 7q-24 0 -52.5 -10t-64.5 -30z" />
    <glyph glyph-name="currency" unicode="&#xa4;" 
d="M108 160l-45 43l55 56q-12 20 -19 42t-7 44q0 23 6.5 45t20.5 42l-56 57l45 43l56 -56q19 13 41.5 19.5t45.5 6.5q22 0 43.5 -6t41.5 -19l56 55l45 -43l-55 -55q14 -21 20.5 -43t6.5 -46t-6.5 -46t-20.5 -42l55 -54l-45 -43l-55 54q-19 -13 -41 -19.5t-45 -6.5
q-24 0 -46 7t-42 20zM250 251q30 0 50.5 13t31 34.5t10.5 46.5q0 26 -10.5 47t-31 34.5t-50.5 13.5q-29 0 -49.5 -13.5t-31 -34.5t-10.5 -47q0 -25 10.5 -46.5t31 -34.5t49.5 -13z" />
    <glyph glyph-name="yen" unicode="&#xa5;" 
d="M232 219h-151v60h150zM284 279h145v-60h-145v60zM232 101h-151v59h151v-59zM284 160h145v-59h-145v59zM299 0h-82v291l-187 333h93l136 -253l124 252h89l-173 -330v-293z" />
    <glyph glyph-name="brokenbar" unicode="&#xa6;" 
d="M211 291v361h79v-361h-79zM211 -151v350h79v-350h-79z" />
    <glyph glyph-name="section" unicode="&#xa7;" 
d="M238 -55q-52 0 -99 21.5t-79 65.5l57 73q6 -1 7 -4.5t2 -9t6 -15t19 -22.5q11 -11 23 -17.5t27 -10.5t32 -4q22 0 40 5.5t29.5 15.5t18 23t6.5 28q0 21 -9.5 36t-33 28t-66.5 25q-51 17 -82.5 36t-45.5 43t-14 54q0 17 5.5 31.5t16 28.5t25 24.5t32.5 16.5
q-32 19 -48.5 46.5t-16.5 64.5q0 39 22 72t59.5 53.5t85.5 20.5q34 0 64.5 -11t55 -32t41.5 -51l-64 -56l-4 6t-3 7q-2 13 -10 25t-19.5 21.5t-26.5 15t-33 5.5q-22 0 -41 -9.5t-29.5 -25t-10.5 -35.5t8 -34t25.5 -25t44.5 -22.5t64 -25.5q23 -9 41 -21.5t32 -27.5t21.5 -33
t7.5 -39q0 -20 -9 -39.5t-25 -34t-37 -23.5q30 -22 45.5 -49t15.5 -59q0 -34 -13 -62.5t-36 -49t-55 -32.5t-69 -12zM306 232q11 7 17.5 15.5t10 19.5t3.5 24q0 16 -6 28t-18.5 22.5t-31 19.5t-43.5 18l-39 14q-9 -3 -16 -9t-12.5 -13.5t-8 -16.5t-2.5 -19q0 -15 5.5 -27.5
t17 -22.5t30 -18.5t43.5 -16.5q16 -5 28.5 -9t21.5 -9z" />
    <glyph glyph-name="dieresis" unicode="&#xa8;" 
d="M162 559q-23 0 -40 16t-17 38t17 39t40 17t39.5 -16.5t16.5 -39.5q0 -22 -17 -38t-39 -16zM342 559q-23 0 -39.5 15.5t-16.5 38.5t16.5 39.5t39.5 16.5t39 -17t16 -39t-16.5 -38t-38.5 -16z" />
    <glyph glyph-name="copyright" unicode="&#xa9;" 
d="M258 124q-41 0 -73 20.5t-51 56t-19 75.5q0 32 11.5 58t31 46t44 31t50.5 11q55 0 89 -26.5t45 -69.5l-59 -19q-4 6 -4 10.5t-0.5 9.5t-5 11.5t-18.5 16.5q-7 5 -17.5 8t-21.5 3q-12 0 -25.5 -5t-26 -15t-20.5 -26.5t-8 -38.5q0 -28 11 -50t30 -35.5t43 -13.5
q14 0 27.5 5t23.5 14.5t16 22.5l51 -30q-20 -33 -53 -51.5t-71 -18.5zM252 19q-50 0 -93.5 20t-77 55t-52 81.5t-18.5 98.5q0 53 19 99t52.5 81t77.5 55t94 20t94 -20t77.5 -55t53 -81t19.5 -99q0 -43 -12.5 -81t-35 -70t-53 -55t-67.5 -36t-78 -13zM255 67q40 0 75.5 16.5
t62 44.5t41.5 66t15 81q0 42 -15.5 80t-42 66t-61.5 45t-75 17q-39 0 -74 -16.5t-61.5 -44.5t-42 -66.5t-15.5 -81.5t15.5 -80.5t42 -66t61.5 -44.5t74 -16z" />
    <glyph glyph-name="ordfeminine" unicode="&#xaa;" 
d="M216 258q-57 0 -88 28t-31 72q0 39 22 68t63 44.5t96 15.5q9 0 19.5 -0.5t22 -1t23.5 -2.5l2 -53q-9 2 -21 2.5t-23.5 1t-21.5 0.5q-37 0 -61 -8t-36.5 -23t-12.5 -36q0 -18 8 -29.5t21 -16.5t30 -5q24 0 42.5 8.5t31 25t19 42t6.5 60.5q0 47 -9.5 73.5t-28.5 37
t-49 10.5q-23 0 -44.5 -8t-41.5 -29l-38 45q27 27 60 38.5t68 11.5q45 0 79 -14.5t53.5 -50t19.5 -100.5v-198h-75v45q-10 -16 -22 -26.5t-25.5 -16.5t-28 -8.5t-29.5 -2.5zM74 214h354v-64h-354v64z" />
    <glyph glyph-name="guillemotleft" unicode="&#xab;" 
d="M225 56l-161 173v26l156 151l43 -45l-120 -120l127 -141zM402 56l-161 173v26l155 151l45 -46l-122 -119l129 -140z" />
    <glyph glyph-name="logicalnot" unicode="&#xac;" 
d="M340 156v124h-252v73h329v-197h-77z" />
    <glyph glyph-name="uni00AD" unicode="&#xad;" 
d="M109 278v76h284v-76h-284z" />
    <glyph glyph-name="registered" unicode="&#xae;" 
d="M319 135l-57 119h-55v-116h-51v281h91q43 0 69 -10.5t38 -29t12 -43.5q0 -24 -13.5 -45t-40.5 -29l60 -119zM207 296h45q31 0 46.5 10t15.5 29t-16 29t-49 10h-42v-78zM252 19q-50 0 -93.5 20t-77 55t-52 81.5t-18.5 98.5q0 53 19 99t52.5 81t77.5 55t94 20t94 -20
t77.5 -55t53 -81t19.5 -99q0 -43 -12.5 -81t-35 -70t-53 -55t-67.5 -36t-78 -13zM255 67q40 0 75.5 16.5t62 44.5t41.5 66t15 81q0 42 -15.5 80t-42 66t-61.5 45t-75 17q-39 0 -74 -16.5t-61.5 -44.5t-42 -66.5t-15.5 -81.5t15.5 -80.5t42 -66t61.5 -44.5t74 -16z" />
    <glyph glyph-name="macron" unicode="&#xaf;" 
d="M118 565v63h263v-63h-263z" />
    <glyph glyph-name="degree" unicode="&#xb0;" 
d="M256 374q-38 0 -70 18.5t-50.5 49.5t-18.5 69q0 29 11.5 54t30.5 43.5t44 29t53 10.5q38 0 69.5 -19t50.5 -50t19 -68t-18.5 -68t-50 -50t-70.5 -19zM256 438q20 0 35 10t24 27t9 37t-9 37t-23.5 27.5t-34.5 10.5q-19 0 -34.5 -10.5t-24.5 -27.5t-9 -37t9 -37t24.5 -27
t33.5 -10z" />
    <glyph glyph-name="plusminus" unicode="&#xb1;" 
d="M217 154v184h-174v70h174v168h74v-168h168v-70h-168v-184h-74zM44 12v73h415v-73h-415z" />
    <glyph glyph-name="uni00B2" unicode="&#xb2;" 
d="M123 292q48 44 84.5 76t61 57.5t37.5 49.5t13 50q0 21 -8 34t-23 18.5t-35 5.5q-19 0 -36.5 -5t-31.5 -16q-10 -12 -13.5 -19t-2.5 -15l-5 -6l-8 6l-44 35q23 35 59.5 54.5t81.5 19.5q36 0 65.5 -13.5t46 -38.5t16.5 -60q0 -30 -13 -57t-35.5 -53.5t-53 -55t-66.5 -61.5
h125q17 0 24 2t13 8h8v-10v-52h-260v46z" />
    <glyph glyph-name="uni00B3" unicode="&#xb3;" 
d="M241 239q-36 0 -69.5 11.5t-55.5 34.5l36 45l6 8l6 -5q1 -8 5.5 -14t17.5 -17q11 -5 23.5 -8.5t28.5 -3.5q36 0 55 18.5t19 47.5q0 26 -14 41.5t-40 21.5t-63 2v50q32 0 52 4.5t32 13t16.5 20.5t4.5 25q0 16 -7.5 27t-20.5 17t-31 6q-21 0 -40.5 -6.5t-36.5 -22.5l-38 38
q24 24 54.5 34t61.5 10q54 0 87.5 -27.5t33.5 -70.5q0 -32 -17.5 -55t-46.5 -33q21 -6 38 -18.5t28 -32t11 -47.5q0 -32 -16 -58t-46 -41t-74 -15v0z" />
    <glyph glyph-name="acute" unicode="&#xb4;" 
d="M255 518l-43 28l84 155l63 -46z" />
    <glyph glyph-name="uni00B5" unicode="&#xb5;" 
d="M21 -163q0 17 2 49t4.5 73t5.5 85t5 85t2 74v257h81v-275q0 -38 7 -63.5t18.5 -40t27 -21t33.5 -6.5q29 0 49 16.5t30 46.5t10 71v272h79v-341q0 -20 4 -33.5t12 -20t20 -6.5t25.5 11t19.5 23l6 13l32 -60q-20 -29 -42.5 -42.5t-48.5 -13.5q-19 0 -36 9.5t-28 25
t-15 34.5q-10 -23 -28.5 -38t-41 -23t-46.5 -8q-22 0 -44 7t-39 21.5t-27 36.5v-53t-0.5 -56t-1 -55.5t-0.5 -53.5h-75z" />
    <glyph glyph-name="paragraph" unicode="&#xb6;" 
d="M230 -68v388q-36 4 -68.5 18.5t-55.5 39t-36.5 56t-13.5 67.5q0 43 23.5 80.5t77.5 60.5t147 23h141v-733h-72v666h-70v-666h-73z" />
    <glyph glyph-name="periodcentered" unicode="&#xb7;" 
d="M238 269q-27 0 -45.5 18t-18.5 45q0 26 19.5 44.5t44.5 18.5q26 0 46 -18.5t20 -44.5t-19 -44.5t-47 -18.5z" />
    <glyph glyph-name="cedilla" unicode="&#xb8;" 
d="M269 -200q-28 0 -55 8t-53 27l29 50q22 -18 44 -25.5t47 -7.5q24 0 36.5 8.5t12.5 23.5t-13.5 22.5t-36.5 7.5h-36l11 86h56l-5 -42q28 -2 46.5 -12t27.5 -24.5t9 -30.5q0 -37 -30.5 -64t-89.5 -27z" />
    <glyph glyph-name="uni00B9" unicode="&#xb9;" 
d="M228 246v317l-81 -25l-14 40l111 55h48v-387h-64z" />
    <glyph glyph-name="ordmasculine" unicode="&#xba;" 
d="M250 260q-46 0 -82 22.5t-57 64.5t-21 98q0 55 21 97t57.5 65t81.5 23q46 0 82 -23t57 -65t21 -97q0 -56 -21 -97.5t-57 -64.5t-82 -23zM250 319q26 0 45 16t30 44.5t11 66.5t-11 66t-30.5 43.5t-44.5 15.5t-44.5 -15.5t-30.5 -43.5t-11 -66t11 -66.5t30.5 -44.5
t44.5 -16zM74 214h354v-64h-354v64z" />
    <glyph glyph-name="guillemotright" unicode="&#xbb;" 
d="M293 56l-45 44l127 141l-120 120l43 45l156 -151v-26zM116 56l-46 45l129 140l-122 119l45 46l155 -151v-26z" />
    <glyph glyph-name="onequarter" unicode="&#xbc;" 
d="M89 380v246l-61 -20l-13 36l89 44h42v-306h-57zM391 -70v72h-135v36l147 198h43v-190h45v-45h-45v-71h-55zM316 46h76v104zM123 -42l-52 30l312 679l53 -32z" />
    <glyph glyph-name="onehalf" unicode="&#xbd;" 
d="M89 380v246l-61 -20l-13 36l89 44h42v-306h-57zM278 -70v40q38 35 67 60.5t48 44.5t29 37.5t10 38.5q0 15 -6.5 24t-17.5 13t-27 4t-29.5 -4t-24 -13t-19.5 -24l-38 30q17 28 46.5 43.5t64.5 15.5q30 0 53.5 -11t37.5 -31t14 -47q0 -24 -9.5 -44.5t-26.5 -40.5t-40.5 -42
t-51.5 -48h128v-46h-208zM123 -42l-52 30l312 679l53 -32z" />
    <glyph glyph-name="threequarters" unicode="&#xbe;" 
d="M102 374q-29 0 -56.5 9t-44.5 27l30 41l6 8l6 -5q2 -7 7 -13t18 -16q6 -3 14 -4.5t18 -1.5q27 0 41.5 13t14.5 35q0 20 -10.5 32t-30.5 16t-49 1v43q24 0 40 3t25 10t13 15t4 17q0 13 -6 21.5t-16 13t-24 4.5q-16 0 -31.5 -5t-28.5 -18l-33 33q19 20 44.5 28.5t49.5 8.5
q45 0 72.5 -22t27.5 -57q0 -26 -15 -43.5t-36 -25.5q24 -7 42 -25.5t18 -52.5q0 -37 -29 -63.5t-81 -26.5v0zM391 2h-135v36l147 198h43v-190h45v-45h-45v-71h-55v72zM392 46v104l-76 -104h76zM123 -42l-52 30l312 679l53 -32z" />
    <glyph glyph-name="questiondown" unicode="&#xbf;" 
d="M277 311q0 -35 -10 -60.5t-25.5 -44t-32.5 -35t-33 -34t-25.5 -40t-9.5 -54.5q0 -21 7.5 -38.5t21.5 -29.5t33.5 -18.5t41.5 -6.5q34 0 61.5 10.5t48.5 32.5q10 13 12.5 20t1.5 15l5 6l8 -6l54 -42q-22 -33 -49 -57t-62.5 -36.5t-83.5 -12.5q-55 0 -95.5 20t-63 55.5
t-22.5 83.5q0 39 10.5 66.5t26 47.5t33.5 36.5t34 33t26 38t10 50.5v44h77v-44zM237 557q26 0 45 -18.5t19 -44.5q0 -25 -19 -44t-45 -19t-44.5 19t-18.5 44q0 26 18.5 44.5t44.5 18.5v0z" />
    <glyph glyph-name="Agrave" unicode="&#xc0;" 
d="M360 170h-232l15 63h200zM249 455l-151 -455h-83l223 632h24l223 -632h-86zM299 658l-173 62l42 75l156 -91z" />
    <glyph glyph-name="Aacute" unicode="&#xc1;" 
d="M360 170h-232l15 63h200zM249 455l-151 -455h-83l223 632h24l223 -632h-86zM176 658l-24 46l155 91l42 -75z" />
    <glyph glyph-name="Acircumflex" unicode="&#xc2;" 
d="M360 170h-232l15 63h200zM249 455l-151 -455h-83l223 632h24l223 -632h-86zM120 653l-34 44l149 97h25l154 -97l-33 -43l-132 68z" />
    <glyph glyph-name="Atilde" unicode="&#xc3;" 
d="M360 170h-232l15 63h200zM249 455l-151 -455h-83l223 632h24l223 -632h-86zM374 790l50 -29q-21 -42 -42.5 -59.5t-51.5 -17.5q-25 0 -43 8.5t-32 20t-27.5 20t-29.5 8.5q-17 0 -30.5 -11t-24.5 -37l-54 25q15 37 41 59.5t65 22.5q23 0 40 -8.5t31 -19.5t28 -19.5
t31 -8.5q16 0 26 10t23 36z" />
    <glyph glyph-name="Adieresis" unicode="&#xc4;" 
d="M360 170h-232l15 63h200zM249 455l-151 -455h-83l223 632h24l223 -632h-86zM159 686q-22 0 -39 16.5t-17 38.5t17 39t39 17q24 0 40.5 -17t16.5 -39t-17 -38.5t-40 -16.5zM339 686q-22 0 -38.5 16t-16.5 39t16.5 39.5t38.5 16.5q24 0 40 -17t16 -39t-16.5 -38.5
t-39.5 -16.5z" />
    <glyph glyph-name="Aring" unicode="&#xc5;" 
d="M360 170h-232l15 63h200zM249 455l-151 -455h-83l223 632h24l223 -632h-86zM249 618q-26 0 -48 12.5t-35 33.5t-13 46t13.5 46t35 33.5t47.5 12.5t47.5 -12.5t34.5 -33.5t13 -47q0 -24 -12.5 -45t-34 -33.5t-48.5 -12.5zM250 668q15 0 26.5 12t11.5 30q0 19 -11.5 31.5
t-26.5 12.5q-16 0 -27.5 -12.5t-11.5 -31.5q0 -18 11.5 -30t27.5 -12z" />
    <glyph glyph-name="AE" unicode="&#xc6;" 
d="M10 0l195 624h291v-72h-166v-191h140v-73h-140v-216h164v-72h-240v166h-115l-50 -166h-79zM156 235h99l2 307h-8z" />
    <glyph glyph-name="Ccedilla" unicode="&#xc7;" 
d="M283 -10q-51 0 -95.5 18.5t-78 57.5t-52.5 99t-19 143q0 73 14 127.5t38.5 92t56 59.5t66 32t69.5 10q69 0 117.5 -33t73.5 -89l-64 -37l-9 -4l-3 7q2 8 -1 15t-11 21q-24 31 -49.5 42t-53.5 11q-35 0 -65 -16.5t-52 -48.5t-33.5 -78.5t-11.5 -105.5q0 -57 12.5 -103.5
t34.5 -79.5t51.5 -51t63.5 -18q25 0 47.5 8t41.5 25t33 40l60 -42q-31 -52 -75 -77t-106 -25v0zM276 -200q-28 0 -55 8t-53 27l29 50q22 -18 44 -25.5t47 -7.5q24 0 36.5 8.5t12.5 23.5t-13.5 22.5t-36.5 7.5h-36l11 86h56l-5 -42q28 -2 46.5 -12t27.5 -24.5t9 -30.5
q0 -37 -30.5 -64t-89.5 -27z" />
    <glyph glyph-name="Egrave" unicode="&#xc8;" 
d="M56 0v624h390v-72h-309v-190h255v-74h-255v-216h306v-72h-387zM310 658l-173 62l42 75l156 -91z" />
    <glyph glyph-name="Eacute" unicode="&#xc9;" 
d="M56 0v624h390v-72h-309v-190h255v-74h-255v-216h306v-72h-387zM187 658l-24 46l155 91l42 -75z" />
    <glyph glyph-name="Ecircumflex" unicode="&#xca;" 
d="M56 0v624h390v-72h-309v-190h255v-74h-255v-216h306v-72h-387zM131 653l-34 44l149 97h25l154 -97l-33 -43l-132 68z" />
    <glyph glyph-name="Edieresis" unicode="&#xcb;" 
d="M56 0v624h390v-72h-309v-190h255v-74h-255v-216h306v-72h-387zM170 686q-22 0 -39 16.5t-17 38.5t17 39t39 17q24 0 40.5 -17t16.5 -39t-17 -38.5t-40 -16.5zM350 686q-22 0 -38.5 16t-16.5 39t16.5 39.5t38.5 16.5q24 0 40 -17t16 -39t-16.5 -38.5t-39.5 -16.5z" />
    <glyph glyph-name="Igrave" unicode="&#xcc;" 
d="M77 0v70h123v483h-116v70h321v-70h-123v-484h129v-69h-334zM290 658l-173 62l42 75l156 -91z" />
    <glyph glyph-name="Iacute" unicode="&#xcd;" 
d="M77 0v70h123v483h-116v70h321v-70h-123v-484h129v-69h-334zM167 658l-24 46l155 91l42 -75z" />
    <glyph glyph-name="Icircumflex" unicode="&#xce;" 
d="M77 0v70h123v483h-116v70h321v-70h-123v-484h129v-69h-334zM111 653l-34 44l149 97h25l154 -97l-33 -43l-132 68z" />
    <glyph glyph-name="Idieresis" unicode="&#xcf;" 
d="M77 0v70h123v483h-116v70h321v-70h-123v-484h129v-69h-334zM150 686q-22 0 -39 16.5t-17 38.5t17 39t39 17q24 0 40.5 -17t16.5 -39t-17 -38.5t-40 -16.5zM330 686q-22 0 -38.5 16t-16.5 39t16.5 39.5t38.5 16.5q24 0 40 -17t16 -39t-16.5 -38.5t-39.5 -16.5z" />
    <glyph glyph-name="Eth" unicode="&#xd0;" 
d="M71 -1v296h-46v69h46v259h145q47 0 81.5 -9.5t59.5 -26t43 -36.5t30 -41q11 -18 20.5 -46.5t15 -67.5t5.5 -88q0 -72 -17 -129.5t-50.5 -97t-83.5 -61t-116 -21.5h-133zM149 68h53q62 0 104 28t63 81t21 128q0 77 -18.5 132.5t-58 85t-101.5 29.5h-63v-188h101v-69h-101
v-227z" />
    <glyph glyph-name="Ntilde" unicode="&#xd1;" 
d="M46 623h84l245 -445l-2 445h78h10v-8q-6 -6 -7.5 -13t-1.5 -24v-578h-72l-256 472v-472h-78v623zM373 790l50 -29q-21 -42 -42.5 -59.5t-51.5 -17.5q-25 0 -43 8.5t-32 20t-27.5 20t-29.5 8.5q-17 0 -30.5 -11t-24.5 -37l-54 25q15 37 41 59.5t65 22.5q23 0 40 -8.5
t31 -19.5t28 -19.5t31 -8.5q16 0 26 10t23 36z" />
    <glyph glyph-name="Ograve" unicode="&#xd2;" 
d="M251 -11q-73 0 -123.5 37t-77 109t-26.5 174q0 100 26.5 171.5t77 110t123.5 38.5t123 -38.5t76.5 -110t26.5 -171.5q0 -102 -26.5 -174t-76.5 -109t-123 -37zM251 60q44 0 75.5 28.5t48 84t16.5 136.5q0 77 -16.5 132.5t-48 85.5t-75.5 30t-76 -30t-48.5 -85.5
t-16.5 -132.5q0 -81 16.5 -136.5t48.5 -84t76 -28.5zM300 659l-173 62l42 75l156 -91z" />
    <glyph glyph-name="Oacute" unicode="&#xd3;" 
d="M251 -11q-73 0 -123.5 37t-77 109t-26.5 174q0 100 26.5 171.5t77 110t123.5 38.5t123 -38.5t76.5 -110t26.5 -171.5q0 -102 -26.5 -174t-76.5 -109t-123 -37zM251 60q44 0 75.5 28.5t48 84t16.5 136.5q0 77 -16.5 132.5t-48 85.5t-75.5 30t-76 -30t-48.5 -85.5
t-16.5 -132.5q0 -81 16.5 -136.5t48.5 -84t76 -28.5zM176 659l-24 46l155 91l42 -75z" />
    <glyph glyph-name="Ocircumflex" unicode="&#xd4;" 
d="M251 -11q-73 0 -123.5 37t-77 109t-26.5 174q0 100 26.5 171.5t77 110t123.5 38.5t123 -38.5t76.5 -110t26.5 -171.5q0 -102 -26.5 -174t-76.5 -109t-123 -37zM251 60q44 0 75.5 28.5t48 84t16.5 136.5q0 77 -16.5 132.5t-48 85.5t-75.5 30t-76 -30t-48.5 -85.5
t-16.5 -132.5q0 -81 16.5 -136.5t48.5 -84t76 -28.5zM120 654l-34 44l149 97h25l154 -97l-33 -43l-132 68z" />
    <glyph glyph-name="Otilde" unicode="&#xd5;" 
d="M251 -11q-73 0 -123.5 37t-77 109t-26.5 174q0 100 26.5 171.5t77 110t123.5 38.5t123 -38.5t76.5 -110t26.5 -171.5q0 -102 -26.5 -174t-76.5 -109t-123 -37zM251 60q44 0 75.5 28.5t48 84t16.5 136.5q0 77 -16.5 132.5t-48 85.5t-75.5 30t-76 -30t-48.5 -85.5
t-16.5 -132.5q0 -81 16.5 -136.5t48.5 -84t76 -28.5zM374 791l50 -29q-21 -42 -42.5 -59.5t-51.5 -17.5q-25 0 -43 8.5t-32 20t-27.5 20t-29.5 8.5q-17 0 -30.5 -11t-24.5 -37l-54 25q15 37 41 59.5t65 22.5q23 0 40 -8.5t31 -19.5t28 -19.5t31 -8.5q16 0 26 10t23 36z" />
    <glyph glyph-name="Odieresis" unicode="&#xd6;" 
d="M251 -11q-73 0 -123.5 37t-77 109t-26.5 174q0 100 26.5 171.5t77 110t123.5 38.5t123 -38.5t76.5 -110t26.5 -171.5q0 -102 -26.5 -174t-76.5 -109t-123 -37zM251 60q44 0 75.5 28.5t48 84t16.5 136.5q0 77 -16.5 132.5t-48 85.5t-75.5 30t-76 -30t-48.5 -85.5
t-16.5 -132.5q0 -81 16.5 -136.5t48.5 -84t76 -28.5zM160 687q-22 0 -39 16.5t-17 38.5t17 39t39 17q24 0 40.5 -17t16.5 -39t-17 -38.5t-40 -16.5zM340 687q-22 0 -38.5 16t-16.5 39t16.5 39.5t38.5 16.5q24 0 40 -17t16 -39t-16.5 -38.5t-39.5 -16.5z" />
    <glyph glyph-name="multiply" unicode="&#xd7;" 
d="M378 144l-124 130l-122 -126l-52 52l123 128l-123 130l55 54l121 -128l122 127l57 -51l-127 -131l124 -131z" />
    <glyph glyph-name="Oslash" unicode="&#xd8;" 
d="M86 -47l-48 23l375 706l47 -24zM251 -11q-73 0 -123.5 37t-77 109t-26.5 174q0 100 26.5 171.5t77 110t123.5 38.5t123 -38.5t76.5 -110t26.5 -171.5q0 -102 -26.5 -174t-76.5 -109t-123 -37zM251 60q44 0 75.5 28.5t48 84t16.5 136.5q0 77 -16.5 132.5t-48 85.5
t-75.5 30t-76 -30t-48.5 -85.5t-16.5 -132.5q0 -81 16.5 -136.5t48.5 -84t76 -28.5z" />
    <glyph glyph-name="Ugrave" unicode="&#xd9;" 
d="M251 -12q-101 0 -153.5 60.5t-52.5 167.5v407h83h10v-8q-6 -6 -7.5 -13t-1.5 -24v-363q0 -72 27 -114.5t96 -42.5t96.5 42.5t27.5 117.5v405h82v-404q0 -79 -26 -130t-72.5 -76t-108.5 -25v0zM299 658l-173 62l42 75l156 -91z" />
    <glyph glyph-name="Uacute" unicode="&#xda;" 
d="M251 -12q-101 0 -153.5 60.5t-52.5 167.5v407h83h10v-8q-6 -6 -7.5 -13t-1.5 -24v-363q0 -72 27 -114.5t96 -42.5t96.5 42.5t27.5 117.5v405h82v-404q0 -79 -26 -130t-72.5 -76t-108.5 -25v0zM176 658l-24 46l155 91l42 -75z" />
    <glyph glyph-name="Ucircumflex" unicode="&#xdb;" 
d="M251 -12q-101 0 -153.5 60.5t-52.5 167.5v407h83h10v-8q-6 -6 -7.5 -13t-1.5 -24v-363q0 -72 27 -114.5t96 -42.5t96.5 42.5t27.5 117.5v405h82v-404q0 -79 -26 -130t-72.5 -76t-108.5 -25v0zM120 653l-34 44l149 97h25l154 -97l-33 -43l-132 68z" />
    <glyph glyph-name="Udieresis" unicode="&#xdc;" 
d="M251 -12q-101 0 -153.5 60.5t-52.5 167.5v407h83h10v-8q-6 -6 -7.5 -13t-1.5 -24v-363q0 -72 27 -114.5t96 -42.5t96.5 42.5t27.5 117.5v405h82v-404q0 -79 -26 -130t-72.5 -76t-108.5 -25v0zM159 686q-22 0 -39 16.5t-17 38.5t17 39t39 17q24 0 40.5 -17t16.5 -39
t-17 -38.5t-40 -16.5zM339 686q-22 0 -38.5 16t-16.5 39t16.5 39.5t38.5 16.5q24 0 40 -17t16 -39t-16.5 -38.5t-39.5 -16.5z" />
    <glyph glyph-name="Yacute" unicode="&#xdd;" 
d="M214 0v246l-190 377h92l145 -288l130 288h87l-175 -377v-246h-89zM176 658l-24 46l155 91l42 -75z" />
    <glyph glyph-name="Thorn" unicode="&#xde;" 
d="M56 0v623h93l1.5 -1.5t0.5 -2.5q0 -3 -4 -8.5t-6 -17.5v-85h119q71 0 115 -24t65 -64.5t21 -89.5t-20.5 -89t-63.5 -63.5t-112 -23.5h-124v-154h-85zM141 225h121q40 0 65 13.5t36.5 37t11.5 51.5q0 29 -12 52.5t-38 38.5t-67 15h-117v-208z" />
    <glyph glyph-name="germandbls" unicode="&#xdf;" 
d="M283 -11q-30 0 -55 7.5t-49 23.5l38 66q13 -12 29.5 -18t36.5 -6t38.5 10.5t32.5 28.5t22 41.5t8 51.5q0 25 -8.5 48t-26 40t-44 26.5t-63.5 9.5h-34v67h40q14 0 28 4.5t26 13t21 21t14 29t5 36.5q0 25 -7.5 45t-21 35.5t-32 24t-41.5 8.5q-34 0 -58.5 -21.5t-37 -60
t-12.5 -90.5v-430h-82v426q0 83 23.5 137t64.5 80.5t94 26.5q55 0 98 -24.5t67.5 -64.5t24.5 -87q0 -28 -9 -54t-26 -46.5t-43 -33.5q28 -9 50 -25.5t37.5 -40t24 -51.5t8.5 -61q0 -54 -22.5 -98t-63 -69.5t-95.5 -25.5z" />
    <glyph glyph-name="agrave" unicode="&#xe0;" 
d="M207 -11q-78 0 -120 35.5t-42 91.5q0 37 17.5 67.5t49.5 51.5t76 32.5t97 11.5h29.5t33 -1.5t35.5 -3.5l3 -63q-16 2 -33 3.5t-33.5 2t-31.5 0.5q-37 0 -66.5 -6t-49.5 -17.5t-31 -29t-11 -40.5q0 -20 7 -33t19 -21t28 -11.5t35 -3.5q36 0 63.5 11.5t47 34.5t29.5 56.5
t10 78.5q0 64 -14.5 100t-43.5 50.5t-73 14.5q-33 0 -63.5 -11.5t-57.5 -38.5l-44 53q35 34 79 50t91 16q45 0 82 -10.5t64.5 -35.5t42.5 -67t15 -106v-251h-91v63q-13 -22 -30.5 -36.5t-37 -22.5t-40.5 -11.5t-41 -3.5zM241 506l-104 137l63 46l84 -155z" />
    <glyph glyph-name="aacute" unicode="&#xe1;" 
d="M207 -11q-78 0 -120 35.5t-42 91.5q0 37 17.5 67.5t49.5 51.5t76 32.5t97 11.5h29.5t33 -1.5t35.5 -3.5l3 -63q-16 2 -33 3.5t-33.5 2t-31.5 0.5q-37 0 -66.5 -6t-49.5 -17.5t-31 -29t-11 -40.5q0 -20 7 -33t19 -21t28 -11.5t35 -3.5q36 0 63.5 11.5t47 34.5t29.5 56.5
t10 78.5q0 64 -14.5 100t-43.5 50.5t-73 14.5q-33 0 -63.5 -11.5t-57.5 -38.5l-44 53q35 34 79 50t91 16q45 0 82 -10.5t64.5 -35.5t42.5 -67t15 -106v-251h-91v63q-13 -22 -30.5 -36.5t-37 -22.5t-40.5 -11.5t-41 -3.5zM238 506l-43 28l84 155l63 -46z" />
    <glyph glyph-name="acircumflex" unicode="&#xe2;" 
d="M207 -11q-78 0 -120 35.5t-42 91.5q0 37 17.5 67.5t49.5 51.5t76 32.5t97 11.5h29.5t33 -1.5t35.5 -3.5l3 -63q-16 2 -33 3.5t-33.5 2t-31.5 0.5q-37 0 -66.5 -6t-49.5 -17.5t-31 -29t-11 -40.5q0 -20 7 -33t19 -21t28 -11.5t35 -3.5q36 0 63.5 11.5t47 34.5t29.5 56.5
t10 78.5q0 64 -14.5 100t-43.5 50.5t-73 14.5q-33 0 -63.5 -11.5t-57.5 -38.5l-44 53q35 34 79 50t91 16q45 0 82 -10.5t64.5 -35.5t42.5 -67t15 -106v-251h-91v63q-13 -22 -30.5 -36.5t-37 -22.5t-40.5 -11.5t-41 -3.5zM137 507l-44 38l141 140h28l141 -140l-44 -38
l-111 107z" />
    <glyph glyph-name="atilde" unicode="&#xe3;" 
d="M207 -11q-78 0 -120 35.5t-42 91.5q0 37 17.5 67.5t49.5 51.5t76 32.5t97 11.5h29.5t33 -1.5t35.5 -3.5l3 -63q-16 2 -33 3.5t-33.5 2t-31.5 0.5q-37 0 -66.5 -6t-49.5 -17.5t-31 -29t-11 -40.5q0 -20 7 -33t19 -21t28 -11.5t35 -3.5q36 0 63.5 11.5t47 34.5t29.5 56.5
t10 78.5q0 64 -14.5 100t-43.5 50.5t-73 14.5q-33 0 -63.5 -11.5t-57.5 -38.5l-44 53q35 34 79 50t91 16q45 0 82 -10.5t64.5 -35.5t42.5 -67t15 -106v-251h-91v63q-13 -22 -30.5 -36.5t-37 -22.5t-40.5 -11.5t-41 -3.5zM368 674l50 -29q-21 -42 -42.5 -59.5t-51.5 -17.5
q-25 0 -43 8.5t-32 20t-27.5 20t-29.5 8.5q-17 0 -30.5 -11t-24.5 -37l-54 25q15 37 41 59.5t65 22.5q23 0 40 -8.5t31 -19.5t28 -19.5t31 -8.5q16 0 26 10t23 36z" />
    <glyph glyph-name="adieresis" unicode="&#xe4;" 
d="M207 -11q-78 0 -120 35.5t-42 91.5q0 37 17.5 67.5t49.5 51.5t76 32.5t97 11.5h29.5t33 -1.5t35.5 -3.5l3 -63q-16 2 -33 3.5t-33.5 2t-31.5 0.5q-37 0 -66.5 -6t-49.5 -17.5t-31 -29t-11 -40.5q0 -20 7 -33t19 -21t28 -11.5t35 -3.5q36 0 63.5 11.5t47 34.5t29.5 56.5
t10 78.5q0 64 -14.5 100t-43.5 50.5t-73 14.5q-33 0 -63.5 -11.5t-57.5 -38.5l-44 53q35 34 79 50t91 16q45 0 82 -10.5t64.5 -35.5t42.5 -67t15 -106v-251h-91v63q-13 -22 -30.5 -36.5t-37 -22.5t-40.5 -11.5t-41 -3.5zM159 559q-23 0 -40 16t-17 38t17 39t40 17
t39.5 -16.5t16.5 -39.5q0 -22 -17 -38t-39 -16zM339 559q-23 0 -39.5 15.5t-16.5 38.5t16.5 39.5t39.5 16.5t39 -17t16 -39t-16.5 -38t-38.5 -16z" />
    <glyph glyph-name="aring" unicode="&#xe5;" 
d="M207 -11q-78 0 -120 35.5t-42 91.5q0 37 17.5 67.5t49.5 51.5t76 32.5t97 11.5h29.5t33 -1.5t35.5 -3.5l3 -63q-16 2 -33 3.5t-33.5 2t-31.5 0.5q-37 0 -66.5 -6t-49.5 -17.5t-31 -29t-11 -40.5q0 -20 7 -33t19 -21t28 -11.5t35 -3.5q36 0 63.5 11.5t47 34.5t29.5 56.5
t10 78.5q0 64 -14.5 100t-43.5 50.5t-73 14.5q-33 0 -63.5 -11.5t-57.5 -38.5l-44 53q35 34 79 50t91 16q45 0 82 -10.5t64.5 -35.5t42.5 -67t15 -106v-251h-91v63q-13 -22 -30.5 -36.5t-37 -22.5t-40.5 -11.5t-41 -3.5zM246 515q-26 0 -47.5 12.5t-34.5 33.5t-13 46t13 46
t34.5 33.5t47.5 12.5t48 -12.5t35 -33t13 -46.5q0 -25 -13.5 -46t-35 -33.5t-47.5 -12.5zM247 565q15 0 26.5 12.5t11.5 30.5t-11.5 31t-26.5 13q-16 0 -27 -13t-11 -31t11 -30.5t27 -12.5z" />
    <glyph glyph-name="ae" unicode="&#xe6;" 
d="M143 -11q-44 0 -74 17t-46 48t-16 71q0 36 14 64.5t40 49t65 31.5t89 13q0 40 -8 67t-24.5 41t-41.5 14q-20 0 -39 -11t-35 -33l-41 51q24 29 54 43.5t68 14.5q24 0 45.5 -7.5t38.5 -21t26 -31.5q12 18 28 31.5t35 21t38 7.5q47 0 76 -24.5t42.5 -69.5t13.5 -107v-41
l-204 -7v-45q0 -27 6.5 -49.5t19 -38.5t30 -24.5t39.5 -8.5q16 0 29 4t24 13t21 22l40 -48q-23 -28 -53.5 -42.5t-65.5 -14.5q-25 0 -47.5 8t-41.5 23t-33 35q-11 -20 -28.5 -35t-38.5 -23t-45 -8zM146 58q31 0 46 19.5t19.5 55.5t4.5 84q-48 -2 -77.5 -12.5t-43 -30
t-13.5 -50.5q0 -25 7.5 -39.5t22 -20.5t34.5 -6zM287 284l139 5q0 38 -7 64t-21.5 39t-37.5 13q-22 0 -38.5 -14.5t-25.5 -41t-9 -65.5z" />
    <glyph glyph-name="ccedilla" unicode="&#xe7;" 
d="M283 -11q-51 0 -93.5 18t-73.5 50t-48.5 75.5t-17.5 95.5q0 51 17.5 95t48.5 76.5t73.5 51t92.5 18.5q59 0 104.5 -23t73.5 -63l-51 -53l-6 -7l-6 6q0 8 -3 15.5t-15 19.5q-21 19 -45.5 26.5t-56.5 7.5q-27 0 -52 -11.5t-44.5 -33t-31 -52.5t-11.5 -69t11.5 -68.5
t31.5 -53t47.5 -35t58.5 -12.5q22 0 43 6t40 18.5t35 31.5l49 -56q-35 -38 -79 -56t-92 -18v0zM281 -200q-28 0 -55 8t-53 27l29 50q22 -18 44 -25.5t47 -7.5q24 0 36.5 8.5t12.5 23.5t-13.5 22.5t-36.5 7.5h-36l11 86h56l-5 -42q28 -2 46.5 -12t27.5 -24.5t9 -30.5
q0 -37 -30.5 -64t-89.5 -27z" />
    <glyph glyph-name="egrave" unicode="&#xe8;" 
d="M272 -10q-50 0 -91.5 15.5t-72 45.5t-46.5 75t-16 102q0 58 16.5 103t45.5 76t68 47.5t83 16.5q39 0 74 -13.5t60.5 -40.5t40.5 -68.5t15 -97.5q0 -9 -0.5 -19.5t-1.5 -18.5h-319q2 -41 14.5 -70.5t32.5 -48t45.5 -27.5t54.5 -9q23 0 43.5 5t38.5 16t33 27l46 -44
q-20 -24 -45.5 -40.5t-55 -24t-63.5 -7.5zM131 278h233q0 30 -8 53t-22 40t-34.5 25.5t-45.5 8.5q-23 0 -43 -7.5t-36.5 -23.5t-28 -39.5t-15.5 -56.5zM253 506l-104 137l63 46l84 -155z" />
    <glyph glyph-name="eacute" unicode="&#xe9;" 
d="M272 -10q-50 0 -91.5 15.5t-72 45.5t-46.5 75t-16 102q0 58 16.5 103t45.5 76t68 47.5t83 16.5q39 0 74 -13.5t60.5 -40.5t40.5 -68.5t15 -97.5q0 -9 -0.5 -19.5t-1.5 -18.5h-319q2 -41 14.5 -70.5t32.5 -48t45.5 -27.5t54.5 -9q23 0 43.5 5t38.5 16t33 27l46 -44
q-20 -24 -45.5 -40.5t-55 -24t-63.5 -7.5zM131 278h233q0 30 -8 53t-22 40t-34.5 25.5t-45.5 8.5q-23 0 -43 -7.5t-36.5 -23.5t-28 -39.5t-15.5 -56.5zM250 506l-43 28l84 155l63 -46z" />
    <glyph glyph-name="ecircumflex" unicode="&#xea;" 
d="M272 -10q-50 0 -91.5 15.5t-72 45.5t-46.5 75t-16 102q0 58 16.5 103t45.5 76t68 47.5t83 16.5q39 0 74 -13.5t60.5 -40.5t40.5 -68.5t15 -97.5q0 -9 -0.5 -19.5t-1.5 -18.5h-319q2 -41 14.5 -70.5t32.5 -48t45.5 -27.5t54.5 -9q23 0 43.5 5t38.5 16t33 27l46 -44
q-20 -24 -45.5 -40.5t-55 -24t-63.5 -7.5zM131 278h233q0 30 -8 53t-22 40t-34.5 25.5t-45.5 8.5q-23 0 -43 -7.5t-36.5 -23.5t-28 -39.5t-15.5 -56.5zM148 507l-44 38l141 140h28l141 -140l-44 -38l-111 107z" />
    <glyph glyph-name="edieresis" unicode="&#xeb;" 
d="M272 -10q-50 0 -91.5 15.5t-72 45.5t-46.5 75t-16 102q0 58 16.5 103t45.5 76t68 47.5t83 16.5q39 0 74 -13.5t60.5 -40.5t40.5 -68.5t15 -97.5q0 -9 -0.5 -19.5t-1.5 -18.5h-319q2 -41 14.5 -70.5t32.5 -48t45.5 -27.5t54.5 -9q23 0 43.5 5t38.5 16t33 27l46 -44
q-20 -24 -45.5 -40.5t-55 -24t-63.5 -7.5zM131 278h233q0 30 -8 53t-22 40t-34.5 25.5t-45.5 8.5q-23 0 -43 -7.5t-36.5 -23.5t-28 -39.5t-15.5 -56.5zM171 559q-23 0 -40 16t-17 38t17 39t40 17t39.5 -16.5t16.5 -39.5q0 -22 -17 -38t-39 -16zM351 559q-23 0 -39.5 15.5
t-16.5 38.5t16.5 39.5t39.5 16.5t39 -17t16 -39t-16.5 -38t-38.5 -16z" />
    <glyph glyph-name="igrave" unicode="&#xec;" 
d="M95 0v68h116v323h-110v69h196v-392h106v-68h-308zM243 506l-104 137l63 46l84 -155z" />
    <glyph glyph-name="iacute" unicode="&#xed;" 
d="M95 0v68h116v323h-110v69h196v-392h106v-68h-308zM247 518l-43 28l84 155l63 -46z" />
    <glyph glyph-name="icircumflex" unicode="&#xee;" 
d="M95 0v68h116v323h-110v69h196v-392h106v-68h-308zM139 507l-44 38l141 140h28l141 -140l-44 -38l-111 107z" />
    <glyph glyph-name="idieresis" unicode="&#xef;" 
d="M95 0v68h116v323h-110v69h196v-392h106v-68h-308zM154 559q-23 0 -40 16t-17 38t17 39t40 17t39.5 -16.5t16.5 -39.5q0 -22 -17 -38t-39 -16zM334 559q-23 0 -39.5 15.5t-16.5 38.5t16.5 39.5t39.5 16.5t39 -17t16 -39t-16.5 -38t-38.5 -16z" />
    <glyph glyph-name="eth" unicode="&#xf0;" 
d="M256 -13q-45 0 -84.5 17.5t-69.5 48.5t-47 74t-17 95q0 51 16.5 95.5t45 78.5t64 53t74.5 19q25 0 46 -5t39.5 -15.5t32.5 -26.5q-14 34 -34 66t-46 59l-122 -35l-21 57l95 25q-15 12 -30.5 23t-32 21t-35.5 17l92 20q23 -13 43.5 -26.5t40.5 -32.5l110 30l20 -53
l-81 -24q26 -31 46 -66.5t34 -75t21 -83.5t7 -90q0 -60 -13.5 -109t-39.5 -84t-64.5 -54t-89.5 -19zM256 59q24 0 45.5 10t38.5 31.5t27 53.5t10 77q0 36 -7.5 63.5t-19.5 46.5t-28 31.5t-33.5 18t-34.5 5.5q-23 0 -45.5 -10.5t-40.5 -31t-29 -51.5t-11 -72
q0 -39 10.5 -70.5t28 -54t40.5 -35t49 -12.5z" />
    <glyph glyph-name="ntilde" unicode="&#xf1;" 
d="M66 0v460h85v-76q17 26 40 45.5t50.5 30.5t57.5 11q39 0 70 -19.5t50 -61.5t19 -112v-278h-84v276q0 45 -10 72t-28 39.5t-41 12.5q-21 0 -43 -9.5t-40.5 -26.5t-29.5 -41.5t-11 -54.5v-268h-85zM384 674l50 -29q-21 -42 -42.5 -59.5t-51.5 -17.5q-25 0 -43 8.5t-32 20
t-27.5 20t-29.5 8.5q-17 0 -30.5 -11t-24.5 -37l-54 25q15 37 41 59.5t65 22.5q23 0 40 -8.5t31 -19.5t28 -19.5t31 -8.5q16 0 26 10t23 36z" />
    <glyph glyph-name="ograve" unicode="&#xf2;" 
d="M250 -9q-62 0 -110.5 30.5t-76.5 84.5t-28 124t28 124t76.5 85t110.5 31t110.5 -31t76.5 -85t28 -124t-28 -124t-76.5 -84.5t-110.5 -30.5zM250 61q37 0 65 22t44.5 60t16.5 88t-16.5 88t-44.5 59.5t-65 21.5q-36 0 -64.5 -21.5t-45 -59.5t-16.5 -88t16 -88t44.5 -60
t65.5 -22zM244 506l-104 137l63 46l84 -155z" />
    <glyph glyph-name="oacute" unicode="&#xf3;" 
d="M250 -9q-62 0 -110.5 30.5t-76.5 84.5t-28 124t28 124t76.5 85t110.5 31t110.5 -31t76.5 -85t28 -124t-28 -124t-76.5 -84.5t-110.5 -30.5zM250 61q37 0 65 22t44.5 60t16.5 88t-16.5 88t-44.5 59.5t-65 21.5q-36 0 -64.5 -21.5t-45 -59.5t-16.5 -88t16 -88t44.5 -60
t65.5 -22zM240 506l-43 28l84 155l63 -46z" />
    <glyph glyph-name="ocircumflex" unicode="&#xf4;" 
d="M250 -9q-62 0 -110.5 30.5t-76.5 84.5t-28 124t28 124t76.5 85t110.5 31t110.5 -31t76.5 -85t28 -124t-28 -124t-76.5 -84.5t-110.5 -30.5zM250 61q37 0 65 22t44.5 60t16.5 88t-16.5 88t-44.5 59.5t-65 21.5q-36 0 -64.5 -21.5t-45 -59.5t-16.5 -88t16 -88t44.5 -60
t65.5 -22zM139 507l-44 38l141 140h28l141 -140l-44 -38l-111 107z" />
    <glyph glyph-name="otilde" unicode="&#xf5;" 
d="M250 -9q-62 0 -110.5 30.5t-76.5 84.5t-28 124t28 124t76.5 85t110.5 31t110.5 -31t76.5 -85t28 -124t-28 -124t-76.5 -84.5t-110.5 -30.5zM250 61q37 0 65 22t44.5 60t16.5 88t-16.5 88t-44.5 59.5t-65 21.5q-36 0 -64.5 -21.5t-45 -59.5t-16.5 -88t16 -88t44.5 -60
t65.5 -22zM370 674l50 -29q-21 -42 -42.5 -59.5t-51.5 -17.5q-25 0 -43 8.5t-32 20t-27.5 20t-29.5 8.5q-17 0 -30.5 -11t-24.5 -37l-54 25q15 37 41 59.5t65 22.5q23 0 40 -8.5t31 -19.5t28 -19.5t31 -8.5q16 0 26 10t23 36z" />
    <glyph glyph-name="odieresis" unicode="&#xf6;" 
d="M250 -9q-62 0 -110.5 30.5t-76.5 84.5t-28 124t28 124t76.5 85t110.5 31t110.5 -31t76.5 -85t28 -124t-28 -124t-76.5 -84.5t-110.5 -30.5zM250 61q37 0 65 22t44.5 60t16.5 88t-16.5 88t-44.5 59.5t-65 21.5q-36 0 -64.5 -21.5t-45 -59.5t-16.5 -88t16 -88t44.5 -60
t65.5 -22zM161 559q-23 0 -40 16t-17 38t17 39t40 17t39.5 -16.5t16.5 -39.5q0 -22 -17 -38t-39 -16zM341 559q-23 0 -39.5 15.5t-16.5 38.5t16.5 39.5t39.5 16.5t39 -17t16 -39t-16.5 -38t-38.5 -16z" />
    <glyph glyph-name="divide" unicode="&#xf7;" 
d="M68 275v78h366v-78h-366zM255 428q-20 0 -34 14t-14 34q0 21 14.5 35.5t33.5 14.5q21 0 35 -15t14 -35t-14 -34t-35 -14zM256 100q-20 0 -35 14t-15 34q0 21 15.5 35.5t34.5 14.5t33.5 -15t14.5 -35t-14 -34t-34 -14z" />
    <glyph glyph-name="oslash" unicode="&#xf8;" 
d="M127 -65l-61 33l300 552l64 -33zM250 -9q-62 0 -110.5 30.5t-76.5 84.5t-28 124t28 124t76.5 85t110.5 31t110.5 -31t76.5 -85t28 -124t-28 -124t-76.5 -84.5t-110.5 -30.5zM250 61q37 0 65 22t44.5 60t16.5 88t-16.5 88t-44.5 59.5t-65 21.5q-36 0 -64.5 -21.5
t-45 -59.5t-16.5 -88t16 -88t44.5 -60t65.5 -22z" />
    <glyph glyph-name="ugrave" unicode="&#xf9;" 
d="M218 -11q-27 0 -51.5 7.5t-44 24t-34 41t-22 59t-7.5 78.5l1 261h84v-261q0 -39 7 -66.5t20 -44t30.5 -23.5t36.5 -7q23 0 43.5 8.5t36 26.5t24.5 45.5t9 64.5v257h85v-388q0 -19 1.5 -36.5t8.5 -35.5h-81q-5 11 -7 22t-2.5 22.5t-0.5 22.5q-11 -19 -25.5 -33.5
t-32.5 -24.5t-37.5 -15t-41.5 -5zM243 506l-104 137l63 46l84 -155z" />
    <glyph glyph-name="uacute" unicode="&#xfa;" 
d="M218 -11q-27 0 -51.5 7.5t-44 24t-34 41t-22 59t-7.5 78.5l1 261h84v-261q0 -39 7 -66.5t20 -44t30.5 -23.5t36.5 -7q23 0 43.5 8.5t36 26.5t24.5 45.5t9 64.5v257h85v-388q0 -19 1.5 -36.5t8.5 -35.5h-81q-5 11 -7 22t-2.5 22.5t-0.5 22.5q-11 -19 -25.5 -33.5
t-32.5 -24.5t-37.5 -15t-41.5 -5zM240 506l-43 28l84 155l63 -46z" />
    <glyph glyph-name="ucircumflex" unicode="&#xfb;" 
d="M218 -11q-27 0 -51.5 7.5t-44 24t-34 41t-22 59t-7.5 78.5l1 261h84v-261q0 -39 7 -66.5t20 -44t30.5 -23.5t36.5 -7q23 0 43.5 8.5t36 26.5t24.5 45.5t9 64.5v257h85v-388q0 -19 1.5 -36.5t8.5 -35.5h-81q-5 11 -7 22t-2.5 22.5t-0.5 22.5q-11 -19 -25.5 -33.5
t-32.5 -24.5t-37.5 -15t-41.5 -5zM139 507l-44 38l141 140h28l141 -140l-44 -38l-111 107z" />
    <glyph glyph-name="udieresis" unicode="&#xfc;" 
d="M218 -11q-27 0 -51.5 7.5t-44 24t-34 41t-22 59t-7.5 78.5l1 261h84v-261q0 -39 7 -66.5t20 -44t30.5 -23.5t36.5 -7q23 0 43.5 8.5t36 26.5t24.5 45.5t9 64.5v257h85v-388q0 -19 1.5 -36.5t8.5 -35.5h-81q-5 11 -7 22t-2.5 22.5t-0.5 22.5q-11 -19 -25.5 -33.5
t-32.5 -24.5t-37.5 -15t-41.5 -5zM161 559q-23 0 -40 16t-17 38t17 39t40 17t39.5 -16.5t16.5 -39.5q0 -22 -17 -38t-39 -16zM341 559q-23 0 -39.5 15.5t-16.5 38.5t16.5 39.5t39.5 16.5t39 -17t16 -39t-16.5 -38t-38.5 -16z" />
    <glyph glyph-name="yacute" unicode="&#xfd;" 
d="M127 -175q-33 0 -59.5 10.5t-47.5 30.5l33 58l6 9l7 -4q2 -8 7 -14t18 -15q9 -3 18.5 -4.5t19.5 -1.5q25 0 42 12t30.5 38t26.5 65l92 274q15 45 27.5 88.5t16.5 88.5h83q-6 -46 -21.5 -94t-32.5 -94l-114 -320q-26 -70 -64 -98.5t-88 -28.5v0zM41 460h88l144 -373
l-41 -99zM245 506l-43 28l84 155l63 -46z" />
    <glyph glyph-name="thorn" unicode="&#xfe;" 
d="M56 667h85h10v-8q-6 -6 -7.5 -13t-1.5 -24v-244q12 32 32.5 52.5t47 30t56.5 9.5q38 0 72 -15t60 -44.5t41.5 -74t15.5 -104.5q0 -61 -16 -107t-43.5 -76t-61.5 -45.5t-70 -15.5q-26 0 -51 7.5t-45.5 22.5t-35.5 35v-220h-88v834zM258 60q23 0 44.5 8.5t39 28t27.5 52.5
t10 83q0 52 -13 88.5t-38 56.5t-61 22q-27 2 -49.5 -8t-39.5 -32t-26 -57t-9 -85q1 -32 6 -57t15 -44t23.5 -31t31.5 -18.5t39 -6.5v0z" />
    <glyph glyph-name="ydieresis" unicode="&#xff;" 
d="M127 -175q-33 0 -59.5 10.5t-47.5 30.5l33 58l6 9l7 -4q2 -8 7 -14t18 -15q9 -3 18.5 -4.5t19.5 -1.5q25 0 42 12t30.5 38t26.5 65l92 274q15 45 27.5 88.5t16.5 88.5h83q-6 -46 -21.5 -94t-32.5 -94l-114 -320q-26 -70 -64 -98.5t-88 -28.5v0zM41 460h88l144 -373
l-41 -99zM165 559q-23 0 -40 16t-17 38t17 39t40 17t39.5 -16.5t16.5 -39.5q0 -22 -17 -38t-39 -16zM345 559q-23 0 -39.5 15.5t-16.5 38.5t16.5 39.5t39.5 16.5t39 -17t16 -39t-16.5 -38t-38.5 -16z" />
    <glyph glyph-name="Amacron" unicode="&#x100;" 
d="M360 170h-232l15 63h200zM249 455l-151 -455h-83l223 632h24l223 -632h-86zM119 728v63h263v-63h-263z" />
    <glyph glyph-name="amacron" unicode="&#x101;" 
d="M207 -11q-78 0 -120 35.5t-42 91.5q0 37 17.5 67.5t49.5 51.5t76 32.5t97 11.5h29.5t33 -1.5t35.5 -3.5l3 -63q-16 2 -33 3.5t-33.5 2t-31.5 0.5q-37 0 -66.5 -6t-49.5 -17.5t-31 -29t-11 -40.5q0 -20 7 -33t19 -21t28 -11.5t35 -3.5q36 0 63.5 11.5t47 34.5t29.5 56.5
t10 78.5q0 64 -14.5 100t-43.5 50.5t-73 14.5q-33 0 -63.5 -11.5t-57.5 -38.5l-44 53q35 34 79 50t91 16q45 0 82 -10.5t64.5 -35.5t42.5 -67t15 -106v-251h-91v63q-13 -22 -30.5 -36.5t-37 -22.5t-40.5 -11.5t-41 -3.5zM116 564v63h263v-63h-263z" />
    <glyph glyph-name="Abreve" unicode="&#x102;" 
d="M360 170h-232l15 63h200zM249 455l-151 -455h-83l223 632h24l223 -632h-86zM337 792l58 -27q-23 -46 -60 -71.5t-85 -25.5q-47 0 -84.5 25.5t-60.5 71.5l58 27q17 -36 37.5 -53t49.5 -17q19 0 35 7.5t29 23t23 39.5z" />
    <glyph glyph-name="abreve" unicode="&#x103;" 
d="M207 -11q-78 0 -120 35.5t-42 91.5q0 37 17.5 67.5t49.5 51.5t76 32.5t97 11.5h29.5t33 -1.5t35.5 -3.5l3 -63q-16 2 -33 3.5t-33.5 2t-31.5 0.5q-37 0 -66.5 -6t-49.5 -17.5t-31 -29t-11 -40.5q0 -20 7 -33t19 -21t28 -11.5t35 -3.5q36 0 63.5 11.5t47 34.5t29.5 56.5
t10 78.5q0 64 -14.5 100t-43.5 50.5t-73 14.5q-33 0 -63.5 -11.5t-57.5 -38.5l-44 53q35 34 79 50t91 16q45 0 82 -10.5t64.5 -35.5t42.5 -67t15 -106v-251h-91v63q-13 -22 -30.5 -36.5t-37 -22.5t-40.5 -11.5t-41 -3.5zM335 659l58 -27q-23 -46 -60 -71.5t-85 -25.5
q-47 0 -84.5 25.5t-60.5 71.5l58 27q17 -36 37.5 -53t49.5 -17q19 0 35 7.5t29 23t23 39.5z" />
    <glyph glyph-name="Aogonek" unicode="&#x104;" 
d="M360 170h-232l15 63h200zM249 455l-151 -455h-83l223 632h24l223 -632h-86zM448 -169l-25 -62q-37 8 -63.5 21t-41 32.5t-14.5 44.5q0 26 14.5 52.5t43 52t69.5 48.5l31 -20q-24 -19 -41.5 -39.5t-26.5 -39.5t-9 -35q0 -20 15.5 -34.5t47.5 -20.5z" />
    <glyph glyph-name="aogonek" unicode="&#x105;" 
d="M207 -11q-78 0 -120 35.5t-42 91.5q0 37 17.5 67.5t49.5 51.5t76 32.5t97 11.5h29.5t33 -1.5t35.5 -3.5l3 -63q-16 2 -33 3.5t-33.5 2t-31.5 0.5q-37 0 -66.5 -6t-49.5 -17.5t-31 -29t-11 -40.5q0 -20 7 -33t19 -21t28 -11.5t35 -3.5q36 0 63.5 11.5t47 34.5t29.5 56.5
t10 78.5q0 64 -14.5 100t-43.5 50.5t-73 14.5q-33 0 -63.5 -11.5t-57.5 -38.5l-44 53q35 34 79 50t91 16q45 0 82 -10.5t64.5 -35.5t42.5 -67t15 -106v-251h-91v63q-13 -22 -30.5 -36.5t-37 -22.5t-40.5 -11.5t-41 -3.5zM383 -169l-25 -62q-37 8 -63.5 21t-41 32.5
t-14.5 44.5q0 26 14.5 52.5t43 52t69.5 48.5l31 -20q-24 -19 -41.5 -39.5t-26.5 -39.5t-9 -35q0 -20 15.5 -34.5t47.5 -20.5z" />
    <glyph glyph-name="Cacute" unicode="&#x106;" 
d="M283 -10q-51 0 -95.5 18.5t-78 57.5t-52.5 99t-19 143q0 73 14 127.5t38.5 92t56 59.5t66 32t69.5 10q69 0 117.5 -33t73.5 -89l-64 -37l-9 -4l-3 7q2 8 -1 15t-11 21q-24 31 -49.5 42t-53.5 11q-35 0 -65 -16.5t-52 -48.5t-33.5 -78.5t-11.5 -105.5q0 -57 12.5 -103.5
t34.5 -79.5t51.5 -51t63.5 -18q25 0 47.5 8t41.5 25t33 40l60 -42q-31 -52 -75 -77t-106 -25v0zM196 658l-24 46l155 91l42 -75z" />
    <glyph glyph-name="cacute" unicode="&#x107;" 
d="M283 -11q-51 0 -93.5 18t-73.5 50t-48.5 75.5t-17.5 95.5q0 51 17.5 95t48.5 76.5t73.5 51t92.5 18.5q59 0 104.5 -23t73.5 -63l-51 -53l-6 -7l-6 6q0 8 -3 15.5t-15 19.5q-21 19 -45.5 26.5t-56.5 7.5q-27 0 -52 -11.5t-44.5 -33t-31 -52.5t-11.5 -69t11.5 -68.5
t31.5 -53t47.5 -35t58.5 -12.5q22 0 43 6t40 18.5t35 31.5l49 -56q-35 -38 -79 -56t-92 -18v0zM273 506l-43 28l84 155l63 -46z" />
    <glyph glyph-name="Ccircumflex" unicode="&#x108;" 
d="M283 -10q-51 0 -95.5 18.5t-78 57.5t-52.5 99t-19 143q0 73 14 127.5t38.5 92t56 59.5t66 32t69.5 10q69 0 117.5 -33t73.5 -89l-64 -37l-9 -4l-3 7q2 8 -1 15t-11 21q-24 31 -49.5 42t-53.5 11q-35 0 -65 -16.5t-52 -48.5t-33.5 -78.5t-11.5 -105.5q0 -57 12.5 -103.5
t34.5 -79.5t51.5 -51t63.5 -18q25 0 47.5 8t41.5 25t33 40l60 -42q-31 -52 -75 -77t-106 -25v0zM140 653l-34 44l149 97h25l154 -97l-33 -43l-132 68z" />
    <glyph glyph-name="ccircumflex" unicode="&#x109;" 
d="M283 -11q-51 0 -93.5 18t-73.5 50t-48.5 75.5t-17.5 95.5q0 51 17.5 95t48.5 76.5t73.5 51t92.5 18.5q59 0 104.5 -23t73.5 -63l-51 -53l-6 -7l-6 6q0 8 -3 15.5t-15 19.5q-21 19 -45.5 26.5t-56.5 7.5q-27 0 -52 -11.5t-44.5 -33t-31 -52.5t-11.5 -69t11.5 -68.5
t31.5 -53t47.5 -35t58.5 -12.5q22 0 43 6t40 18.5t35 31.5l49 -56q-35 -38 -79 -56t-92 -18v0zM171 507l-44 38l141 140h28l141 -140l-44 -38l-111 107z" />
    <glyph glyph-name="Cdotaccent" unicode="&#x10a;" 
d="M283 -10q-51 0 -95.5 18.5t-78 57.5t-52.5 99t-19 143q0 73 14 127.5t38.5 92t56 59.5t66 32t69.5 10q69 0 117.5 -33t73.5 -89l-64 -37l-9 -4l-3 7q2 8 -1 15t-11 21q-24 31 -49.5 42t-53.5 11q-35 0 -65 -16.5t-52 -48.5t-33.5 -78.5t-11.5 -105.5q0 -57 12.5 -103.5
t34.5 -79.5t51.5 -51t63.5 -18q25 0 47.5 8t41.5 25t33 40l60 -42q-31 -52 -75 -77t-106 -25v0zM269 689q-24 0 -41 17t-17 40q0 25 16.5 41t41.5 16q23 0 40.5 -17t17.5 -40t-17.5 -40t-40.5 -17z" />
    <glyph glyph-name="cdotaccent" unicode="&#x10b;" 
d="M283 -11q-51 0 -93.5 18t-73.5 50t-48.5 75.5t-17.5 95.5q0 51 17.5 95t48.5 76.5t73.5 51t92.5 18.5q59 0 104.5 -23t73.5 -63l-51 -53l-6 -7l-6 6q0 8 -3 15.5t-15 19.5q-21 19 -45.5 26.5t-56.5 7.5q-27 0 -52 -11.5t-44.5 -33t-31 -52.5t-11.5 -69t11.5 -68.5
t31.5 -53t47.5 -35t58.5 -12.5q22 0 43 6t40 18.5t35 31.5l49 -56q-35 -38 -79 -56t-92 -18v0zM282 549q-24 0 -41 17t-17 40q0 25 16.5 41t41.5 16q23 0 40.5 -17t17.5 -40t-17.5 -40t-40.5 -17z" />
    <glyph glyph-name="Ccaron" unicode="&#x10c;" 
d="M283 -10q-51 0 -95.5 18.5t-78 57.5t-52.5 99t-19 143q0 73 14 127.5t38.5 92t56 59.5t66 32t69.5 10q69 0 117.5 -33t73.5 -89l-64 -37l-9 -4l-3 7q2 8 -1 15t-11 21q-24 31 -49.5 42t-53.5 11q-35 0 -65 -16.5t-52 -48.5t-33.5 -78.5t-11.5 -105.5q0 -57 12.5 -103.5
t34.5 -79.5t51.5 -51t63.5 -18q25 0 47.5 8t41.5 25t33 40l60 -42q-31 -52 -75 -77t-106 -25v0zM397 799l34 -43l-149 -98h-25l-153 98l32 43l132 -69z" />
    <glyph glyph-name="ccaron" unicode="&#x10d;" 
d="M283 -11q-51 0 -93.5 18t-73.5 50t-48.5 75.5t-17.5 95.5q0 51 17.5 95t48.5 76.5t73.5 51t92.5 18.5q59 0 104.5 -23t73.5 -63l-51 -53l-6 -7l-6 6q0 8 -3 15.5t-15 19.5q-21 19 -45.5 26.5t-56.5 7.5q-27 0 -52 -11.5t-44.5 -33t-31 -52.5t-11.5 -69t11.5 -68.5
t31.5 -53t47.5 -35t58.5 -12.5q22 0 43 6t40 18.5t35 31.5l49 -56q-35 -38 -79 -56t-92 -18v0zM170 693l111 -107l111 107l44 -39l-141 -139h-28l-141 139z" />
    <glyph glyph-name="Dcaron" unicode="&#x10e;" 
d="M50 -1v624h150q55 0 92 -10t63 -28.5t47 -46.5t34.5 -63.5t20.5 -76.5t7 -90q-2 -72 -18.5 -129t-49 -97t-83.5 -61.5t-125 -21.5h-138zM131 65h54q70 0 113 28.5t63.5 82.5t19.5 129q0 77 -18.5 133t-58.5 86t-108 30h-65v-489zM347 799l34 -43l-149 -98h-25l-153 98
l32 43l132 -69z" />
    <glyph glyph-name="dcaron" unicode="&#x10f;" 
d="M180 -10q-28 0 -55 13t-48 41t-33 75t-12 114t12 113t33.5 73.5t48.5 40t58 12.5q35 0 60.5 -17.5t37.5 -52.5v264h73h10v-7q-6 -6 -7.5 -13t-1.5 -24v-553q0 -18 1 -34.5t7 -34.5h-74q-4 11 -6 20t-3 19t-1 22q-10 -21 -25 -37.5t-33.5 -25t-41.5 -8.5v0zM195 60
q29 0 47.5 20t27.5 58t9 94q0 57 -9.5 95t-28.5 57t-48 19q-21 0 -37.5 -9.5t-27.5 -29t-17 -50t-6 -72.5q0 -48 7 -82.5t18.5 -56.5t28 -32.5t36.5 -10.5v0zM433 668q21 0 35 -15.5t14 -40.5q0 -21 -9 -47t-24.5 -52.5t-33.5 -50.5l-36 26q10 12 19 24.5t14.5 25t5.5 25.5
q0 10 -8 17.5t-16.5 17.5t-8.5 28q0 16 13 29t35 13z" />
    <glyph glyph-name="Dcroat" unicode="&#x110;" 
d="M71 -1v296h-46v69h46v259h145q47 0 81.5 -9.5t59.5 -26t43 -36.5t30 -41q11 -18 20.5 -46.5t15 -67.5t5.5 -88q0 -72 -17 -129.5t-50.5 -97t-83.5 -61t-116 -21.5h-133zM149 68h53q62 0 104 28t63 81t21 128q0 77 -18.5 132.5t-58 85t-101.5 29.5h-63v-188h101v-69h-101
v-227z" />
    <glyph glyph-name="dcroat" unicode="&#x111;" 
d="M231 -10q-36 0 -70 15t-61 45t-43 76t-16 108t16.5 106.5t44 74t61.5 43.5t71 14q29 0 53.5 -9t43 -24.5t29.5 -37.5v266h81h10v-8q-6 -6 -7.5 -13t-1.5 -24l1 -554q0 -17 1.5 -34t8.5 -34h-84q-5 12 -7 22t-2.5 20.5t-0.5 21.5q-14 -23 -33 -40t-43 -25.5t-52 -8.5v0z
M245 62q30 0 51 12t34 35t19.5 54.5t6.5 68.5q0 51 -12 89.5t-38 60t-66 21.5q-28 0 -50 -11t-36 -32.5t-21.5 -51t-7.5 -66.5q0 -55 14.5 -95t41.5 -62.5t64 -22.5v0zM228 522v61h271v-61h-271z" />
    <glyph glyph-name="Emacron" unicode="&#x112;" 
d="M56 0v624h390v-72h-309v-190h255v-74h-255v-216h306v-72h-387zM130 728v63h263v-63h-263z" />
    <glyph glyph-name="emacron" unicode="&#x113;" 
d="M272 -10q-50 0 -91.5 15.5t-72 45.5t-46.5 75t-16 102q0 58 16.5 103t45.5 76t68 47.5t83 16.5q39 0 74 -13.5t60.5 -40.5t40.5 -68.5t15 -97.5q0 -9 -0.5 -19.5t-1.5 -18.5h-319q2 -41 14.5 -70.5t32.5 -48t45.5 -27.5t54.5 -9q23 0 43.5 5t38.5 16t33 27l46 -44
q-20 -24 -45.5 -40.5t-55 -24t-63.5 -7.5zM131 278h233q0 30 -8 53t-22 40t-34.5 25.5t-45.5 8.5q-23 0 -43 -7.5t-36.5 -23.5t-28 -39.5t-15.5 -56.5zM128 564v63h263v-63h-263z" />
    <glyph glyph-name="Ebreve" unicode="&#x114;" 
d="M56 0v624h390v-72h-309v-190h255v-74h-255v-216h306v-72h-387zM348 792l58 -27q-23 -46 -60 -71.5t-85 -25.5q-47 0 -84.5 25.5t-60.5 71.5l58 27q17 -36 37.5 -53t49.5 -17q19 0 35 7.5t29 23t23 39.5z" />
    <glyph glyph-name="ebreve" unicode="&#x115;" 
d="M272 -10q-50 0 -91.5 15.5t-72 45.5t-46.5 75t-16 102q0 58 16.5 103t45.5 76t68 47.5t83 16.5q39 0 74 -13.5t60.5 -40.5t40.5 -68.5t15 -97.5q0 -9 -0.5 -19.5t-1.5 -18.5h-319q2 -41 14.5 -70.5t32.5 -48t45.5 -27.5t54.5 -9q23 0 43.5 5t38.5 16t33 27l46 -44
q-20 -24 -45.5 -40.5t-55 -24t-63.5 -7.5zM131 278h233q0 30 -8 53t-22 40t-34.5 25.5t-45.5 8.5q-23 0 -43 -7.5t-36.5 -23.5t-28 -39.5t-15.5 -56.5zM347 659l58 -27q-23 -46 -60 -71.5t-85 -25.5q-47 0 -84.5 25.5t-60.5 71.5l58 27q17 -36 37.5 -53t49.5 -17
q19 0 35 7.5t29 23t23 39.5z" />
    <glyph glyph-name="Edotaccent" unicode="&#x116;" 
d="M56 0v624h390v-72h-309v-190h255v-74h-255v-216h306v-72h-387zM260 689q-24 0 -41 17t-17 40q0 25 16.5 41t41.5 16q23 0 40.5 -17t17.5 -40t-17.5 -40t-40.5 -17z" />
    <glyph glyph-name="edotaccent" unicode="&#x117;" 
d="M272 -10q-50 0 -91.5 15.5t-72 45.5t-46.5 75t-16 102q0 58 16.5 103t45.5 76t68 47.5t83 16.5q39 0 74 -13.5t60.5 -40.5t40.5 -68.5t15 -97.5q0 -9 -0.5 -19.5t-1.5 -18.5h-319q2 -41 14.5 -70.5t32.5 -48t45.5 -27.5t54.5 -9q23 0 43.5 5t38.5 16t33 27l46 -44
q-20 -24 -45.5 -40.5t-55 -24t-63.5 -7.5zM131 278h233q0 30 -8 53t-22 40t-34.5 25.5t-45.5 8.5q-23 0 -43 -7.5t-36.5 -23.5t-28 -39.5t-15.5 -56.5zM259 549q-24 0 -41 17t-17 40q0 25 16.5 41t41.5 16q23 0 40.5 -17t17.5 -40t-17.5 -40t-40.5 -17z" />
    <glyph glyph-name="Eogonek" unicode="&#x118;" 
d="M56 0v624h390v-72h-309v-190h255v-74h-255v-216h306v-72h-387zM383 -169l-25 -62q-37 8 -63.5 21t-41 32.5t-14.5 44.5q0 26 14.5 52.5t43 52t69.5 48.5l31 -20q-24 -19 -41.5 -39.5t-26.5 -39.5t-9 -35q0 -20 15.5 -34.5t47.5 -20.5z" />
    <glyph glyph-name="eogonek" unicode="&#x119;" 
d="M272 -10q-50 0 -91.5 15.5t-72 45.5t-46.5 75t-16 102q0 58 16.5 103t45.5 76t68 47.5t83 16.5q39 0 74 -13.5t60.5 -40.5t40.5 -68.5t15 -97.5q0 -9 -0.5 -19.5t-1.5 -18.5h-319q2 -41 14.5 -70.5t32.5 -48t45.5 -27.5t54.5 -9q23 0 43.5 5t38.5 16t33 27l46 -44
q-20 -24 -45.5 -40.5t-55 -24t-63.5 -7.5zM131 278h233q0 30 -8 53t-22 40t-34.5 25.5t-45.5 8.5q-23 0 -43 -7.5t-36.5 -23.5t-28 -39.5t-15.5 -56.5zM366 -154l-25 -62q-37 8 -63.5 21t-41 32.5t-14.5 44.5q0 26 14.5 52.5t43 52t69.5 48.5l31 -20q-24 -19 -41.5 -39.5
t-26.5 -39.5t-9 -35q0 -20 15.5 -34.5t47.5 -20.5z" />
    <glyph glyph-name="Ecaron" unicode="&#x11a;" 
d="M56 0v624h390v-72h-309v-190h255v-74h-255v-216h306v-72h-387zM389 799l34 -43l-149 -98h-25l-153 98l32 43l132 -69z" />
    <glyph glyph-name="ecaron" unicode="&#x11b;" 
d="M272 -10q-50 0 -91.5 15.5t-72 45.5t-46.5 75t-16 102q0 58 16.5 103t45.5 76t68 47.5t83 16.5q39 0 74 -13.5t60.5 -40.5t40.5 -68.5t15 -97.5q0 -9 -0.5 -19.5t-1.5 -18.5h-319q2 -41 14.5 -70.5t32.5 -48t45.5 -27.5t54.5 -9q23 0 43.5 5t38.5 16t33 27l46 -44
q-20 -24 -45.5 -40.5t-55 -24t-63.5 -7.5zM131 278h233q0 30 -8 53t-22 40t-34.5 25.5t-45.5 8.5q-23 0 -43 -7.5t-36.5 -23.5t-28 -39.5t-15.5 -56.5zM147 693l111 -107l111 107l44 -39l-141 -139h-28l-141 139z" />
    <glyph glyph-name="Gcircumflex" unicode="&#x11c;" 
d="M277 -10q-76 0 -131 39t-84.5 110.5t-29.5 166.5q0 80 15.5 136.5t42.5 93.5t59.5 58t65 29t59.5 8q39 0 75 -13.5t66 -36.5t47 -56l-54 -48l-8 -7l-5 6q1 8 -2 15t-14 20q-14 16 -29 26.5t-33.5 15.5t-41.5 5q-26 0 -49.5 -7t-43.5 -24.5t-35 -45t-23 -68t-8 -94.5
q0 -63 11 -111t32.5 -80.5t51 -49t66.5 -16.5q13 0 27.5 1.5t29 6t28 11.5t25.5 16v137h-110v72h187v-251q-44 -33 -91.5 -49t-95.5 -16v0zM142 653l-34 44l149 97h25l154 -97l-33 -43l-132 68z" />
    <glyph glyph-name="gcircumflex" unicode="&#x11d;" 
d="M244 -174q-48 0 -87 8t-66 23t-41.5 37t-14.5 51q0 27 12 48.5t31.5 36.5t43.5 23l37 -19q-17 -11 -28.5 -21.5t-17 -24t-5.5 -32.5q0 -15 10 -27.5t28 -20.5t44 -12.5t58 -4.5q43 0 71 8.5t42 24t14 34.5q0 20 -8 32.5t-32 18.5t-70 6q-34 0 -64 3t-54.5 10t-41.5 17.5
t-26.5 26.5t-9.5 37q0 28 16.5 52t42.5 46l40 -28q-10 -11 -16.5 -18.5t-9.5 -14.5t-3 -16q0 -15 13.5 -24t46 -13.5t86.5 -4.5q50 0 82 -9t50 -25.5t25.5 -38t7.5 -46.5q0 -28 -11.5 -53.5t-36 -45.5t-63.5 -32t-95 -12zM227 156q-49 0 -86 21t-57.5 57.5t-20.5 81.5
q0 44 20.5 80t57.5 58t86 22q50 0 86.5 -22t57 -58t20.5 -80q0 -45 -20.5 -81.5t-57 -57.5t-86.5 -21zM227 223q27 0 47.5 12.5t33 33.5t12.5 47t-12.5 46.5t-33 33t-47.5 12.5q-26 0 -47 -12.5t-33 -33.5t-12 -46t12 -46.5t33 -34t47 -12.5zM364 382l-33 40q29 27 62 40
t75 10l10 -66q-32 4 -61 -1t-53 -23zM116 507l-44 38l141 140h28l141 -140l-44 -38l-111 107z" />
    <glyph glyph-name="Gbreve" unicode="&#x11e;" 
d="M277 -10q-76 0 -131 39t-84.5 110.5t-29.5 166.5q0 80 15.5 136.5t42.5 93.5t59.5 58t65 29t59.5 8q39 0 75 -13.5t66 -36.5t47 -56l-54 -48l-8 -7l-5 6q1 8 -2 15t-14 20q-14 16 -29 26.5t-33.5 15.5t-41.5 5q-26 0 -49.5 -7t-43.5 -24.5t-35 -45t-23 -68t-8 -94.5
q0 -63 11 -111t32.5 -80.5t51 -49t66.5 -16.5q13 0 27.5 1.5t29 6t28 11.5t25.5 16v137h-110v72h187v-251q-44 -33 -91.5 -49t-95.5 -16v0zM360 792l58 -27q-23 -46 -60 -71.5t-85 -25.5q-47 0 -84.5 25.5t-60.5 71.5l58 27q17 -36 37.5 -53t49.5 -17q19 0 35 7.5t29 23
t23 39.5z" />
    <glyph glyph-name="gbreve" unicode="&#x11f;" 
d="M244 -174q-48 0 -87 8t-66 23t-41.5 37t-14.5 51q0 27 12 48.5t31.5 36.5t43.5 23l37 -19q-17 -11 -28.5 -21.5t-17 -24t-5.5 -32.5q0 -15 10 -27.5t28 -20.5t44 -12.5t58 -4.5q43 0 71 8.5t42 24t14 34.5q0 20 -8 32.5t-32 18.5t-70 6q-34 0 -64 3t-54.5 10t-41.5 17.5
t-26.5 26.5t-9.5 37q0 28 16.5 52t42.5 46l40 -28q-10 -11 -16.5 -18.5t-9.5 -14.5t-3 -16q0 -15 13.5 -24t46 -13.5t86.5 -4.5q50 0 82 -9t50 -25.5t25.5 -38t7.5 -46.5q0 -28 -11.5 -53.5t-36 -45.5t-63.5 -32t-95 -12zM227 156q-49 0 -86 21t-57.5 57.5t-20.5 81.5
q0 44 20.5 80t57.5 58t86 22q50 0 86.5 -22t57 -58t20.5 -80q0 -45 -20.5 -81.5t-57 -57.5t-86.5 -21zM227 223q27 0 47.5 12.5t33 33.5t12.5 47t-12.5 46.5t-33 33t-47.5 12.5q-26 0 -47 -12.5t-33 -33.5t-12 -46t12 -46.5t33 -34t47 -12.5zM364 382l-33 40q29 27 62 40
t75 10l10 -66q-32 4 -61 -1t-53 -23zM260 522q-42 0 -81 19.5t-74 59.5l44 55q20 -33 49 -52t62 -19q30 0 59.5 17t56.5 54l35 -52q-20 -25 -44.5 -43.5t-51.5 -28.5t-55 -10z" />
    <glyph glyph-name="Gdotaccent" unicode="&#x120;" 
d="M277 -10q-76 0 -131 39t-84.5 110.5t-29.5 166.5q0 80 15.5 136.5t42.5 93.5t59.5 58t65 29t59.5 8q39 0 75 -13.5t66 -36.5t47 -56l-54 -48l-8 -7l-5 6q1 8 -2 15t-14 20q-14 16 -29 26.5t-33.5 15.5t-41.5 5q-26 0 -49.5 -7t-43.5 -24.5t-35 -45t-23 -68t-8 -94.5
q0 -63 11 -111t32.5 -80.5t51 -49t66.5 -16.5q13 0 27.5 1.5t29 6t28 11.5t25.5 16v137h-110v72h187v-251q-44 -33 -91.5 -49t-95.5 -16v0zM272 689q-24 0 -41 17t-17 40q0 25 16.5 41t41.5 16q23 0 40.5 -17t17.5 -40t-17.5 -40t-40.5 -17z" />
    <glyph glyph-name="gdotaccent" unicode="&#x121;" 
d="M244 -174q-48 0 -87 8t-66 23t-41.5 37t-14.5 51q0 27 12 48.5t31.5 36.5t43.5 23l37 -19q-17 -11 -28.5 -21.5t-17 -24t-5.5 -32.5q0 -15 10 -27.5t28 -20.5t44 -12.5t58 -4.5q43 0 71 8.5t42 24t14 34.5q0 20 -8 32.5t-32 18.5t-70 6q-34 0 -64 3t-54.5 10t-41.5 17.5
t-26.5 26.5t-9.5 37q0 28 16.5 52t42.5 46l40 -28q-10 -11 -16.5 -18.5t-9.5 -14.5t-3 -16q0 -15 13.5 -24t46 -13.5t86.5 -4.5q50 0 82 -9t50 -25.5t25.5 -38t7.5 -46.5q0 -28 -11.5 -53.5t-36 -45.5t-63.5 -32t-95 -12zM227 156q-49 0 -86 21t-57.5 57.5t-20.5 81.5
q0 44 20.5 80t57.5 58t86 22q50 0 86.5 -22t57 -58t20.5 -80q0 -45 -20.5 -81.5t-57 -57.5t-86.5 -21zM227 223q27 0 47.5 12.5t33 33.5t12.5 47t-12.5 46.5t-33 33t-47.5 12.5q-26 0 -47 -12.5t-33 -33.5t-12 -46t12 -46.5t33 -34t47 -12.5zM364 382l-33 40q29 27 62 40
t75 10l10 -66q-32 4 -61 -1t-53 -23zM227 549q-24 0 -41 17t-17 40q0 25 16.5 41t41.5 16q23 0 40.5 -17t17.5 -40t-17.5 -40t-40.5 -17z" />
    <glyph glyph-name="uni0122" unicode="&#x122;" 
d="M277 -10q-76 0 -131 39t-84.5 110.5t-29.5 166.5q0 80 15.5 136.5t42.5 93.5t59.5 58t65 29t59.5 8q39 0 75 -13.5t66 -36.5t47 -56l-54 -48l-8 -7l-5 6q1 8 -2 15t-14 20q-14 16 -29 26.5t-33.5 15.5t-41.5 5q-26 0 -49.5 -7t-43.5 -24.5t-35 -45t-23 -68t-8 -94.5
q0 -63 11 -111t32.5 -80.5t51 -49t66.5 -16.5q13 0 27.5 1.5t29 6t28 11.5t25.5 16v137h-110v72h187v-251q-44 -33 -91.5 -49t-95.5 -16v0zM240 -282l-38 34q24 23 40 48.5t16 41.5q0 13 -11 23.5t-22.5 22t-11.5 29.5q0 25 17 41t42 16q27 0 46.5 -22.5t19.5 -58.5
q0 -25 -10.5 -52.5t-32.5 -58t-55 -64.5z" />
    <glyph glyph-name="uni0123" unicode="&#x123;" 
d="M244 -174q-48 0 -87 8t-66 23t-41.5 37t-14.5 51q0 27 12 48.5t31.5 36.5t43.5 23l37 -19q-17 -11 -28.5 -21.5t-17 -24t-5.5 -32.5q0 -15 10 -27.5t28 -20.5t44 -12.5t58 -4.5q43 0 71 8.5t42 24t14 34.5q0 20 -8 32.5t-32 18.5t-70 6q-34 0 -64 3t-54.5 10t-41.5 17.5
t-26.5 26.5t-9.5 37q0 28 16.5 52t42.5 46l40 -28q-10 -11 -16.5 -18.5t-9.5 -14.5t-3 -16q0 -15 13.5 -24t46 -13.5t86.5 -4.5q50 0 82 -9t50 -25.5t25.5 -38t7.5 -46.5q0 -28 -11.5 -53.5t-36 -45.5t-63.5 -32t-95 -12zM227 156q-49 0 -86 21t-57.5 57.5t-20.5 81.5
q0 44 20.5 80t57.5 58t86 22q50 0 86.5 -22t57 -58t20.5 -80q0 -45 -20.5 -81.5t-57 -57.5t-86.5 -21zM227 223q27 0 47.5 12.5t33 33.5t12.5 47t-12.5 46.5t-33 33t-47.5 12.5q-26 0 -47 -12.5t-33 -33.5t-12 -46t12 -46.5t33 -34t47 -12.5zM364 382l-33 40q29 27 62 40
t75 10l10 -66q-32 4 -61 -1t-53 -23zM260 814l43 -37q-28 -26 -45 -54.5t-17 -47.5q0 -10 7 -19t17.5 -17.5t17.5 -19.5t7 -26q0 -28 -18.5 -45.5t-46.5 -17.5q-30 0 -51.5 25t-21.5 64q0 21 6.5 43.5t20 47t34 50.5t47.5 54z" />
    <glyph glyph-name="Hcircumflex" unicode="&#x124;" 
d="M46 623h86h10v-8q-6 -6 -7.5 -13t-1.5 -24v-217h226v262h86h10v-8q-6 -6 -7.5 -13t-1.5 -24v-578h-87v291h-226v-291h-87v623zM120 653l-34 44l149 97h25l154 -97l-33 -43l-132 68z" />
    <glyph glyph-name="hcircumflex" unicode="&#x125;" 
d="M67 667h84h9v-8q-5 -6 -6.5 -13t-1.5 -24v-237q17 27 41 46t50.5 29.5t53.5 10.5q42 0 74.5 -19.5t50 -62t17.5 -111.5v-278h-84v276q0 46 -10 73t-27.5 39t-40.5 12q-18 0 -36 -6t-34 -17.5t-28.5 -28t-19.5 -37.5t-7 -47v-264h-85v667zM-12 697l-34 44l149 97h25
l154 -97l-33 -43l-132 68z" />
    <glyph glyph-name="Hbar" unicode="&#x126;" 
d="M7 493v66h483v-66h-483zM46 623h86h10v-8q-6 -6 -7.5 -13t-1.5 -24v-217h226v262h86h10v-8q-6 -6 -7.5 -13t-1.5 -24v-578h-87v291h-226v-291h-87v623z" />
    <glyph glyph-name="hbar" unicode="&#x127;" 
d="M67 667h84h9v-8q-5 -6 -6.5 -13t-1.5 -24v-237q17 27 41 46t50.5 29.5t53.5 10.5q42 0 74.5 -19.5t50 -62t17.5 -111.5v-278h-84v276q0 46 -10 73t-27.5 39t-40.5 12q-18 0 -36 -6t-34 -17.5t-28.5 -28t-19.5 -37.5t-7 -47v-264h-85v667zM-1 520v61h271v-61h-271z" />
    <glyph glyph-name="Itilde" unicode="&#x128;" 
d="M77 0v70h123v483h-116v70h321v-70h-123v-484h129v-69h-334zM361 838l50 -29q-21 -42 -42.5 -59.5t-51.5 -17.5q-25 0 -43 8.5t-32 20t-27.5 20t-29.5 8.5q-17 0 -30.5 -11t-24.5 -37l-54 25q15 37 41 59.5t65 22.5q23 0 40 -8.5t31 -19.5t28 -19.5t31 -8.5q16 0 26 10
t23 36z" />
    <glyph glyph-name="itilde" unicode="&#x129;" 
d="M95 0v68h116v323h-110v69h196v-392h106v-68h-308zM345 671l50 -24q-19 -41 -39.5 -58t-46.5 -17q-19 0 -34.5 8t-28 18.5t-24 18.5t-23.5 8q-13 0 -24.5 -10.5t-19.5 -30.5l-50 24q12 34 37 55t50 21q19 0 35.5 -8t30.5 -19t26 -19t23 -8t20 9.5t18 31.5z" />
    <glyph glyph-name="Imacron" unicode="&#x12a;" 
d="M77 0v70h123v483h-116v70h321v-70h-123v-484h129v-69h-334zM110 728v63h263v-63h-263z" />
    <glyph glyph-name="imacron" unicode="&#x12b;" 
d="M95 0v68h116v323h-110v69h196v-392h106v-68h-308zM118 564v63h263v-63h-263z" />
    <glyph glyph-name="Ibreve" unicode="&#x12c;" 
d="M77 0v70h123v483h-116v70h321v-70h-123v-484h129v-69h-334zM328 792l58 -27q-23 -46 -60 -71.5t-85 -25.5q-47 0 -84.5 25.5t-60.5 71.5l58 27q17 -36 37.5 -53t49.5 -17q19 0 35 7.5t29 23t23 39.5z" />
    <glyph glyph-name="ibreve" unicode="&#x12d;" 
d="M95 0v68h116v323h-110v69h196v-392h106v-68h-308zM337 659l58 -27q-23 -46 -60 -71.5t-85 -25.5q-47 0 -84.5 25.5t-60.5 71.5l58 27q17 -36 37.5 -53t49.5 -17q19 0 35 7.5t29 23t23 39.5z" />
    <glyph glyph-name="Iogonek" unicode="&#x12e;" 
d="M77 0v70h123v483h-116v70h321v-70h-123v-484h129v-69h-334zM399 -169l-25 -62q-37 8 -63.5 21t-41 32.5t-14.5 44.5q0 26 14.5 52.5t43 52t69.5 48.5l31 -20q-24 -19 -41.5 -39.5t-26.5 -39.5t-9 -35q0 -20 15.5 -34.5t47.5 -20.5z" />
    <glyph glyph-name="iogonek" unicode="&#x12f;" 
d="M95 0v68h116v323h-110v69h196v-392h106v-68h-308zM249 549q-24 0 -41 17t-17 40q0 25 16.5 41t41.5 16q23 0 40.5 -17t17.5 -40t-17.5 -40t-40.5 -17zM390 -169l-25 -62q-37 8 -63.5 21t-41 32.5t-14.5 44.5q0 26 14.5 52.5t43 52t69.5 48.5l31 -20q-24 -19 -41.5 -39.5
t-26.5 -39.5t-9 -35q0 -20 15.5 -34.5t47.5 -20.5z" />
    <glyph glyph-name="Idotaccent" unicode="&#x130;" 
d="M77 0v70h123v483h-116v70h321v-70h-123v-484h129v-69h-334zM240 689q-24 0 -41 17t-17 40q0 25 16.5 41t41.5 16q23 0 40.5 -17t17.5 -40t-17.5 -40t-40.5 -17z" />
    <glyph glyph-name="dotlessi" unicode="&#x131;" 
d="M95 0v68h116v323h-110v69h196v-392h106v-68h-308z" />
    <glyph glyph-name="Jcircumflex" unicode="&#x134;" 
d="M195 -12q-45 0 -84 17t-68 52l45 63l7 8l6 -5q1 -8 4.5 -15.5t15.5 -18.5q16 -12 33 -18.5t38 -6.5q31 0 51 14.5t29.5 47.5t9.5 86v341h-118v70h296v-70h-94v-343q1 -59 -12.5 -101.5t-38 -69.5t-55.5 -39t-65 -12v0zM196 653l-34 44l149 97h25l154 -97l-33 -43l-132 68
z" />
    <glyph glyph-name="jcircumflex" unicode="&#x135;" 
d="M193 -175q-44 0 -83 17t-66 50l47 63l6 8l6 -5q2 -8 5 -15.5t14 -19.5q13 -11 30.5 -18t39.5 -7q29 0 50 12.5t32.5 39t11.5 68.5v373h-167v69h254v-436q0 -70 -25 -114t-65.5 -64.5t-89.5 -20.5v0zM213 507l-44 38l141 140h28l141 -140l-44 -38l-111 107z" />
    <glyph glyph-name="uni0136" unicode="&#x136;" 
d="M174 302l-47 -54v-248h-87v623h86h10v-8q-6 -6 -7.5 -13t-1.5 -24v-231l243 281q6 -1 13.5 -2t15 -1.5t15.5 -1t15 -0.5h34l-227 -266l242 -357l-103 -4zM211 -282l-38 34q24 23 40 48.5t16 41.5q0 13 -11 23.5t-22.5 22t-11.5 29.5q0 25 17 41t42 16q27 0 46.5 -22.5
t19.5 -58.5q0 -25 -10.5 -52.5t-32.5 -58t-55 -64.5z" />
    <glyph glyph-name="uni0137" unicode="&#x137;" 
d="M201 223l-53 -50v-173h-87v667h86h10v-8q-6 -6 -7.5 -13t-1.5 -24v-358l212 198l14 -2t14.5 -1.5t15.5 -1t14 -0.5h36l-190 -181l219 -276l-105 -4zM224 -282l-38 34q24 23 40 48.5t16 41.5q0 13 -11 23.5t-22.5 22t-11.5 29.5q0 25 17 41t42 16q27 0 46.5 -22.5
t19.5 -58.5q0 -25 -10.5 -52.5t-32.5 -58t-55 -64.5z" />
    <glyph glyph-name="kgreenlandic" unicode="&#x138;" 
d="M201 223l-53 -50v-173h-87v460h86h10v-8q-6 -6 -7.5 -13t-1.5 -24v-151l212 198l14 -2t14.5 -1.5t15.5 -1t14 -0.5h36l-190 -181l219 -276l-105 -4z" />
    <glyph glyph-name="Lacute" unicode="&#x139;" 
d="M63 623h86h10v-8q-6 -6 -7.5 -13t-1.5 -24v-507h295v-71h-382v623zM136 658l-24 46l155 91l42 -75z" />
    <glyph glyph-name="lacute" unicode="&#x13a;" 
d="M74 0v68h133v531h-127v68h214v-599h133v-68h-353zM176 702l-24 46l155 91l42 -75z" />
    <glyph glyph-name="uni013B" unicode="&#x13b;" 
d="M63 623h86h10v-8q-6 -6 -7.5 -13t-1.5 -24v-507h295v-71h-382v623zM224 -282l-38 34q24 23 40 48.5t16 41.5q0 13 -11 23.5t-22.5 22t-11.5 29.5q0 25 17 41t42 16q27 0 46.5 -22.5t19.5 -58.5q0 -25 -10.5 -52.5t-32.5 -58t-55 -64.5z" />
    <glyph glyph-name="uni013C" unicode="&#x13c;" 
d="M74 0v68h133v531h-127v68h214v-599h133v-68h-353zM224 -282l-38 34q24 23 40 48.5t16 41.5q0 13 -11 23.5t-22.5 22t-11.5 29.5q0 25 17 41t42 16q27 0 46.5 -22.5t19.5 -58.5q0 -25 -10.5 -52.5t-32.5 -58t-55 -64.5z" />
    <glyph glyph-name="Lcaron" unicode="&#x13d;" 
d="M341 406l-36 30q23 21 36.5 44t13.5 37q0 11 -9.5 20.5t-19.5 20.5t-10 25q0 23 15 36.5t37 13.5q25 0 42 -19.5t17 -51.5q0 -23 -9.5 -48t-28.5 -51.5t-48 -56.5zM63 623h86h10v-8q-6 -6 -7.5 -13t-1.5 -24v-507h295v-71h-382v623z" />
    <glyph glyph-name="lcaron" unicode="&#x13e;" 
d="M74 0v68h133v531h-127v68h214v-599h133v-68h-353zM378 449l-38 32q16 15 28 30t18.5 28.5t6.5 23.5q0 7 -6 13.5t-14 13t-14 15t-6 19.5q0 22 15.5 36.5t39.5 14.5q23 0 41.5 -19.5t18.5 -50.5q0 -21 -10 -46t-29.5 -52.5t-50.5 -57.5z" />
    <glyph glyph-name="Ldot" unicode="&#x13f;" 
d="M63 623h86h10v-8q-6 -6 -7.5 -13t-1.5 -24v-507h295v-71h-382v623zM306 269q-27 0 -45.5 18t-18.5 45q0 26 19.5 44.5t44.5 18.5q26 0 46 -18.5t20 -44.5t-19 -44.5t-47 -18.5z" />
    <glyph glyph-name="ldot" unicode="&#x140;" 
d="M65 0v68h112v532h-106v68h193v-600h152v-68h-351zM390 269q-27 0 -45.5 18t-18.5 45q0 26 19.5 44.5t44.5 18.5q26 0 46 -18.5t20 -44.5t-19 -44.5t-47 -18.5z" />
    <glyph glyph-name="Lslash" unicode="&#x141;" 
d="M71 0v236l-54 -18v73l54 18v314h95q1 0 1.5 -1t0.5 -2q0 -4 -4 -8.5t-6 -22.5v-252l157 51q8 3 15.5 6t12.5 6v-77l-185 -60v-192h294v-71h-381z" />
    <glyph glyph-name="lslash" unicode="&#x142;" 
d="M75 0v68h132v202l-77 -26v78l77 27v250h-126v68h213v-289l88 32v-81l-88 -30v-231h132v-68h-351z" />
    <glyph glyph-name="Nacute" unicode="&#x143;" 
d="M46 623h84l245 -445l-2 445h78h10v-8q-6 -6 -7.5 -13t-1.5 -24v-578h-72l-256 472v-472h-78v623zM176 658l-24 46l155 91l42 -75z" />
    <glyph glyph-name="nacute" unicode="&#x144;" 
d="M66 0v460h85v-76q17 26 40 45.5t50.5 30.5t57.5 11q39 0 70 -19.5t50 -61.5t19 -112v-278h-84v276q0 45 -10 72t-28 39.5t-41 12.5q-21 0 -43 -9.5t-40.5 -26.5t-29.5 -41.5t-11 -54.5v-268h-85zM254 506l-43 28l84 155l63 -46z" />
    <glyph glyph-name="uni0145" unicode="&#x145;" 
d="M46 623h84l245 -445l-2 445h78h10v-8q-6 -6 -7.5 -13t-1.5 -24v-578h-72l-256 472v-472h-78v623zM224 -282l-38 34q24 23 40 48.5t16 41.5q0 13 -11 23.5t-22.5 22t-11.5 29.5q0 25 17 41t42 16q27 0 46.5 -22.5t19.5 -58.5q0 -25 -10.5 -52.5t-32.5 -58t-55 -64.5z" />
    <glyph glyph-name="uni0146" unicode="&#x146;" 
d="M66 0v460h85v-76q17 26 40 45.5t50.5 30.5t57.5 11q39 0 70 -19.5t50 -61.5t19 -112v-278h-84v276q0 45 -10 72t-28 39.5t-41 12.5q-21 0 -43 -9.5t-40.5 -26.5t-29.5 -41.5t-11 -54.5v-268h-85zM234 -282l-38 34q24 23 40 48.5t16 41.5q0 13 -11 23.5t-22.5 22
t-11.5 29.5q0 25 17 41t42 16q27 0 46.5 -22.5t19.5 -58.5q0 -25 -10.5 -52.5t-32.5 -58t-55 -64.5z" />
    <glyph glyph-name="Ncaron" unicode="&#x147;" 
d="M46 623h84l245 -445l-2 445h78h10v-8q-6 -6 -7.5 -13t-1.5 -24v-578h-72l-256 472v-472h-78v623zM377 799l34 -43l-149 -98h-25l-153 98l32 43l132 -69z" />
    <glyph glyph-name="ncaron" unicode="&#x148;" 
d="M66 0v460h85v-76q17 26 40 45.5t50.5 30.5t57.5 11q39 0 70 -19.5t50 -61.5t19 -112v-278h-84v276q0 45 -10 72t-28 39.5t-41 12.5q-21 0 -43 -9.5t-40.5 -26.5t-29.5 -41.5t-11 -54.5v-268h-85zM151 693l111 -107l111 107l44 -39l-141 -139h-28l-141 139z" />
    <glyph glyph-name="Eng" unicode="&#x14a;" 
d="M376 623h84q0 -9 -3.5 -14.5t-3.5 -17.5v-591q0 -62 -19 -104t-54 -64t-81 -22q-24 0 -49 7.5t-48 23.5l41 72q8 -2 11.5 -6t7.5 -8.5t12.5 -8.5t24.5 -4q27 0 43.5 14t24 43t8.5 72l-252 457v-472h-78v623h84l247 -445v445z" />
    <glyph glyph-name="eng" unicode="&#x14b;" 
d="M264 -177q-27 0 -53.5 9.5t-49.5 28.5l38 74q4 -1 6.5 -6t8 -11.5t17 -11.5t33.5 -5q31 0 51 15.5t30 48t10 79.5v233q0 33 -6 56.5t-17.5 37.5t-26 20.5t-31.5 6.5q-18 0 -36 -6t-34 -17.5t-28 -27.5t-19 -36.5t-7 -45.5v-265h-87v460h87v-76q13 20 29 35.5t35 27
t39.5 17.5t41.5 6q30 0 56.5 -10.5t46 -33t30.5 -59t11 -88.5v-224q0 -61 -13.5 -105t-37.5 -72t-55.5 -41.5t-68.5 -13.5z" />
    <glyph glyph-name="Omacron" unicode="&#x14c;" 
d="M251 -11q-73 0 -123.5 37t-77 109t-26.5 174q0 100 26.5 171.5t77 110t123.5 38.5t123 -38.5t76.5 -110t26.5 -171.5q0 -102 -26.5 -174t-76.5 -109t-123 -37zM251 60q44 0 75.5 28.5t48 84t16.5 136.5q0 77 -16.5 132.5t-48 85.5t-75.5 30t-76 -30t-48.5 -85.5
t-16.5 -132.5q0 -81 16.5 -136.5t48.5 -84t76 -28.5zM119 729v63h263v-63h-263z" />
    <glyph glyph-name="omacron" unicode="&#x14d;" 
d="M250 -9q-62 0 -110.5 30.5t-76.5 84.5t-28 124t28 124t76.5 85t110.5 31t110.5 -31t76.5 -85t28 -124t-28 -124t-76.5 -84.5t-110.5 -30.5zM250 61q37 0 65 22t44.5 60t16.5 88t-16.5 88t-44.5 59.5t-65 21.5q-36 0 -64.5 -21.5t-45 -59.5t-16.5 -88t16 -88t44.5 -60
t65.5 -22zM119 564v63h263v-63h-263z" />
    <glyph glyph-name="Obreve" unicode="&#x14e;" 
d="M251 -11q-73 0 -123.5 37t-77 109t-26.5 174q0 100 26.5 171.5t77 110t123.5 38.5t123 -38.5t76.5 -110t26.5 -171.5q0 -102 -26.5 -174t-76.5 -109t-123 -37zM251 60q44 0 75.5 28.5t48 84t16.5 136.5q0 77 -16.5 132.5t-48 85.5t-75.5 30t-76 -30t-48.5 -85.5
t-16.5 -132.5q0 -81 16.5 -136.5t48.5 -84t76 -28.5zM337 793l58 -27q-23 -46 -60 -71.5t-85 -25.5q-47 0 -84.5 25.5t-60.5 71.5l58 27q17 -36 37.5 -53t49.5 -17q19 0 35 7.5t29 23t23 39.5z" />
    <glyph glyph-name="obreve" unicode="&#x14f;" 
d="M250 -9q-62 0 -110.5 30.5t-76.5 84.5t-28 124t28 124t76.5 85t110.5 31t110.5 -31t76.5 -85t28 -124t-28 -124t-76.5 -84.5t-110.5 -30.5zM250 61q37 0 65 22t44.5 60t16.5 88t-16.5 88t-44.5 59.5t-65 21.5q-36 0 -64.5 -21.5t-45 -59.5t-16.5 -88t16 -88t44.5 -60
t65.5 -22zM337 659l58 -27q-23 -46 -60 -71.5t-85 -25.5q-47 0 -84.5 25.5t-60.5 71.5l58 27q17 -36 37.5 -53t49.5 -17q19 0 35 7.5t29 23t23 39.5z" />
    <glyph glyph-name="Ohungarumlaut" unicode="&#x150;" 
d="M251 -11q-73 0 -123.5 37t-77 109t-26.5 174q0 100 26.5 171.5t77 110t123.5 38.5t123 -38.5t76.5 -110t26.5 -171.5q0 -102 -26.5 -174t-76.5 -109t-123 -37zM251 60q44 0 75.5 28.5t48 84t16.5 136.5q0 77 -16.5 132.5t-48 85.5t-75.5 30t-76 -30t-48.5 -85.5
t-16.5 -132.5q0 -81 16.5 -136.5t48.5 -84t76 -28.5zM281 645l-34 43l133 124l49 -66zM102 645l-34 43l134 124l49 -66z" />
    <glyph glyph-name="ohungarumlaut" unicode="&#x151;" 
d="M250 -9q-62 0 -110.5 30.5t-76.5 84.5t-28 124t28 124t76.5 85t110.5 31t110.5 -31t76.5 -85t28 -124t-28 -124t-76.5 -84.5t-110.5 -30.5zM250 61q37 0 65 22t44.5 60t16.5 88t-16.5 88t-44.5 59.5t-65 21.5q-36 0 -64.5 -21.5t-45 -59.5t-16.5 -88t16 -88t44.5 -60
t65.5 -22zM338 520l-53 32l87 152l69 -47zM183 520l-53 32l87 152l69 -47z" />
    <glyph glyph-name="OE" unicode="&#x152;" 
d="M174 -7q-38 0 -69 19t-52.5 58.5t-33.5 99.5t-12 142q0 106 20 177t57.5 107t90.5 36q19 0 38 -7.5t35 -24.5v24h239v-72h-164v-191h139v-73h-139v-216h162v-72h-238v26q-15 -17 -34 -25t-39 -8zM182 66q24 0 41 19t23 49v348q-10 32 -27 56t-45 24q-18 0 -34 -12
t-28 -40t-19.5 -76.5t-7.5 -120.5q0 -78 11.5 -133.5t32.5 -84.5t53 -29z" />
    <glyph glyph-name="oe" unicode="&#x153;" 
d="M369 -12q-32 0 -61 10t-54 30q-22 -20 -46 -29.5t-51 -9.5t-53.5 10.5t-48.5 37.5t-35.5 73.5t-13.5 118.5q0 88 22.5 140.5t58.5 76t76 23.5q30 0 53 -11t40 -33q19 21 43.5 32.5t53.5 11.5q43 0 74 -21t47.5 -62.5t16.5 -102.5v-65h-221q1 -67 12.5 -102.5t32.5 -48
t50 -12.5t51 8.5t39 28.5l38 -48q-27 -29 -57 -42.5t-67 -13.5zM165 58q10 0 18.5 2.5t15 7.5t10 11.5t3.5 15.5q0 3 -0.5 8t-2.5 14q-4 22 -6 42t-3 39.5t-1 40.5q0 38 2.5 63t5 39t2.5 18q0 8 -3 15.5t-9 13t-14.5 9t-18.5 3.5q-22 0 -42 -16t-32.5 -51t-12.5 -92
q0 -60 10.5 -101t30 -61.5t47.5 -20.5zM271 281h155q-1 43 -8 70t-23.5 39.5t-43.5 12.5q-24 0 -42 -14.5t-28 -42t-10 -65.5z" />
    <glyph glyph-name="Racute" unicode="&#x154;" 
d="M52 0v623h189q75 0 121.5 -22t68 -62.5t21.5 -95.5q0 -34 -15 -69t-43 -61t-66 -38l141 -275h-92l-134 270h-105v-270h-86zM138 342h111q60 0 88 27.5t28 72.5q0 29 -12 52.5t-38 37.5t-66 14h-111v-204zM176 658l-24 46l155 91l42 -75z" />
    <glyph glyph-name="racute" unicode="&#x155;" 
d="M109 460h89l-2 -132l-11 12q6 31 20.5 55t35 41t45.5 26t52 9q37 0 67.5 -12.5t55.5 -38.5l-37 -69l-4 -9l-7 4q-3 8 -6.5 15.5t-16.5 17.5q-15 11 -29 15t-32 4q-24 0 -48 -9t-43.5 -28t-30.5 -48.5t-11 -69.5v-244h-87v461zM278 506l-43 28l84 155l63 -46z" />
    <glyph glyph-name="uni0156" unicode="&#x156;" 
d="M52 0v623h189q75 0 121.5 -22t68 -62.5t21.5 -95.5q0 -34 -15 -69t-43 -61t-66 -38l141 -275h-92l-134 270h-105v-270h-86zM138 342h111q60 0 88 27.5t28 72.5q0 29 -12 52.5t-38 37.5t-66 14h-111v-204zM224 -282l-38 34q24 23 40 48.5t16 41.5q0 13 -11 23.5t-22.5 22
t-11.5 29.5q0 25 17 41t42 16q27 0 46.5 -22.5t19.5 -58.5q0 -25 -10.5 -52.5t-32.5 -58t-55 -64.5z" />
    <glyph glyph-name="uni0157" unicode="&#x157;" 
d="M109 460h89l-2 -132l-11 12q6 31 20.5 55t35 41t45.5 26t52 9q37 0 67.5 -12.5t55.5 -38.5l-37 -69l-4 -9l-7 4q-3 8 -6.5 15.5t-16.5 17.5q-15 11 -29 15t-32 4q-24 0 -48 -9t-43.5 -28t-30.5 -48.5t-11 -69.5v-244h-87v461zM250 -282l-38 34q24 23 40 48.5t16 41.5
q0 13 -11 23.5t-22.5 22t-11.5 29.5q0 25 17 41t42 16q27 0 46.5 -22.5t19.5 -58.5q0 -25 -10.5 -52.5t-32.5 -58t-55 -64.5z" />
    <glyph glyph-name="Rcaron" unicode="&#x158;" 
d="M52 0v623h189q75 0 121.5 -22t68 -62.5t21.5 -95.5q0 -34 -15 -69t-43 -61t-66 -38l141 -275h-92l-134 270h-105v-270h-86zM138 342h111q60 0 88 27.5t28 72.5q0 29 -12 52.5t-38 37.5t-66 14h-111v-204zM377 799l34 -43l-149 -98h-25l-153 98l32 43l132 -69z" />
    <glyph glyph-name="rcaron" unicode="&#x159;" 
d="M109 460h89l-2 -132l-11 12q6 31 20.5 55t35 41t45.5 26t52 9q37 0 67.5 -12.5t55.5 -38.5l-37 -69l-4 -9l-7 4q-3 8 -6.5 15.5t-16.5 17.5q-15 11 -29 15t-32 4q-24 0 -48 -9t-43.5 -28t-30.5 -48.5t-11 -69.5v-244h-87v461zM175 693l111 -107l111 107l44 -39l-141 -139
h-28l-141 139z" />
    <glyph glyph-name="Sacute" unicode="&#x15a;" 
d="M245 -10q-61 0 -111.5 19.5t-87.5 57.5l43 73l4 9l7 -4q2 -7 5.5 -15.5t14.5 -20.5q26 -21 59 -33.5t74 -12.5q27 0 49 7.5t38.5 20.5t25.5 31t9 39q0 16 -3.5 29t-12.5 24t-24 22t-39 24t-58 28q-64 26 -101.5 55t-53.5 62t-16 71q0 46 24 81t67.5 55t101.5 20
q36 0 68.5 -9.5t60.5 -26.5t50 -43l-48 -60l-6 -8l-7 5q-1 8 -4 16t-14 20q-22 21 -47 28.5t-60 7.5q-23 0 -41.5 -6t-31.5 -18t-20.5 -26.5t-7.5 -30.5t4 -28.5t13 -24.5t25.5 -24.5t42 -25t61.5 -27.5q47 -20 78 -39t48.5 -40.5t25.5 -46t8 -55.5q0 -43 -22 -85t-69 -68.5
t-122 -26.5v0zM185 658l-24 46l155 91l42 -75z" />
    <glyph glyph-name="sacute" unicode="&#x15b;" 
d="M254 -10q-40 0 -76 7.5t-67 24t-58 40.5l43 76l6 9l6 -4q3 -8 5.5 -16.5t13.5 -20.5q23 -21 53 -34t76 -13q34 0 57.5 8.5t36 23t12.5 34.5q0 14 -6 24.5t-19 19.5t-35 18.5t-53 18.5q-51 15 -89.5 34.5t-59.5 46.5t-21 62q0 37 20.5 64t59 42.5t93.5 15.5q31 0 57 -4.5
t48.5 -13.5t42 -22.5t36.5 -31.5l-46 -59l-7 -8l-5 5q-1 8 -4.5 15.5t-15.5 18.5q-22 17 -49.5 26t-54.5 9q-38 0 -65.5 -13t-27.5 -40q0 -15 11 -28t38 -26t76 -26q56 -17 91 -36t51 -44t16 -59q0 -38 -21 -71.5t-63.5 -53t-105.5 -19.5v0zM255 506l-43 28l84 155l63 -46z
" />
    <glyph glyph-name="Scircumflex" unicode="&#x15c;" 
d="M245 -10q-61 0 -111.5 19.5t-87.5 57.5l43 73l4 9l7 -4q2 -7 5.5 -15.5t14.5 -20.5q26 -21 59 -33.5t74 -12.5q27 0 49 7.5t38.5 20.5t25.5 31t9 39q0 16 -3.5 29t-12.5 24t-24 22t-39 24t-58 28q-64 26 -101.5 55t-53.5 62t-16 71q0 46 24 81t67.5 55t101.5 20
q36 0 68.5 -9.5t60.5 -26.5t50 -43l-48 -60l-6 -8l-7 5q-1 8 -4 16t-14 20q-22 21 -47 28.5t-60 7.5q-23 0 -41.5 -6t-31.5 -18t-20.5 -26.5t-7.5 -30.5t4 -28.5t13 -24.5t25.5 -24.5t42 -25t61.5 -27.5q47 -20 78 -39t48.5 -40.5t25.5 -46t8 -55.5q0 -43 -22 -85t-69 -68.5
t-122 -26.5v0zM128 653l-34 44l149 97h25l154 -97l-33 -43l-132 68z" />
    <glyph glyph-name="scircumflex" unicode="&#x15d;" 
d="M254 -10q-40 0 -76 7.5t-67 24t-58 40.5l43 76l6 9l6 -4q3 -8 5.5 -16.5t13.5 -20.5q23 -21 53 -34t76 -13q34 0 57.5 8.5t36 23t12.5 34.5q0 14 -6 24.5t-19 19.5t-35 18.5t-53 18.5q-51 15 -89.5 34.5t-59.5 46.5t-21 62q0 37 20.5 64t59 42.5t93.5 15.5q31 0 57 -4.5
t48.5 -13.5t42 -22.5t36.5 -31.5l-46 -59l-7 -8l-5 5q-1 8 -4.5 15.5t-15.5 18.5q-22 17 -49.5 26t-54.5 9q-38 0 -65.5 -13t-27.5 -40q0 -15 11 -28t38 -26t76 -26q56 -17 91 -36t51 -44t16 -59q0 -38 -21 -71.5t-63.5 -53t-105.5 -19.5v0zM138 508l-44 38l141 140h28
l141 -140l-44 -38l-111 107z" />
    <glyph glyph-name="Scedilla" unicode="&#x15e;" 
d="M245 -10q-61 0 -111.5 19.5t-87.5 57.5l43 73l4 9l7 -4q2 -7 5.5 -15.5t14.5 -20.5q26 -21 59 -33.5t74 -12.5q27 0 49 7.5t38.5 20.5t25.5 31t9 39q0 16 -3.5 29t-12.5 24t-24 22t-39 24t-58 28q-64 26 -101.5 55t-53.5 62t-16 71q0 46 24 81t67.5 55t101.5 20
q36 0 68.5 -9.5t60.5 -26.5t50 -43l-48 -60l-6 -8l-7 5q-1 8 -4 16t-14 20q-22 21 -47 28.5t-60 7.5q-23 0 -41.5 -6t-31.5 -18t-20.5 -26.5t-7.5 -30.5t4 -28.5t13 -24.5t25.5 -24.5t42 -25t61.5 -27.5q47 -20 78 -39t48.5 -40.5t25.5 -46t8 -55.5q0 -43 -22 -85t-69 -68.5
t-122 -26.5v0zM247 -200q-28 0 -55 8t-53 27l29 50q22 -18 44 -25.5t47 -7.5q24 0 36.5 8.5t12.5 23.5t-13.5 22.5t-36.5 7.5h-36l11 86h56l-5 -42q28 -2 46.5 -12t27.5 -24.5t9 -30.5q0 -37 -30.5 -64t-89.5 -27z" />
    <glyph glyph-name="scedilla" unicode="&#x15f;" 
d="M254 -10q-40 0 -76 7.5t-67 24t-58 40.5l43 76l6 9l6 -4q3 -8 5.5 -16.5t13.5 -20.5q23 -21 53 -34t76 -13q34 0 57.5 8.5t36 23t12.5 34.5q0 14 -6 24.5t-19 19.5t-35 18.5t-53 18.5q-51 15 -89.5 34.5t-59.5 46.5t-21 62q0 37 20.5 64t59 42.5t93.5 15.5q31 0 57 -4.5
t48.5 -13.5t42 -22.5t36.5 -31.5l-46 -59l-7 -8l-5 5q-1 8 -4.5 15.5t-15.5 18.5q-22 17 -49.5 26t-54.5 9q-38 0 -65.5 -13t-27.5 -40q0 -15 11 -28t38 -26t76 -26q56 -17 91 -36t51 -44t16 -59q0 -38 -21 -71.5t-63.5 -53t-105.5 -19.5v0zM269 -200q-28 0 -55 8t-53 27
l29 50q22 -18 44 -25.5t47 -7.5q24 0 36.5 8.5t12.5 23.5t-13.5 22.5t-36.5 7.5h-36l11 86h56l-5 -42q28 -2 46.5 -12t27.5 -24.5t9 -30.5q0 -37 -30.5 -64t-89.5 -27z" />
    <glyph glyph-name="Scaron" unicode="&#x160;" 
d="M245 -10q-61 0 -111.5 19.5t-87.5 57.5l43 73l4 9l7 -4q2 -7 5.5 -15.5t14.5 -20.5q26 -21 59 -33.5t74 -12.5q27 0 49 7.5t38.5 20.5t25.5 31t9 39q0 16 -3.5 29t-12.5 24t-24 22t-39 24t-58 28q-64 26 -101.5 55t-53.5 62t-16 71q0 46 24 81t67.5 55t101.5 20
q36 0 68.5 -9.5t60.5 -26.5t50 -43l-48 -60l-6 -8l-7 5q-1 8 -4 16t-14 20q-22 21 -47 28.5t-60 7.5q-23 0 -41.5 -6t-31.5 -18t-20.5 -26.5t-7.5 -30.5t4 -28.5t13 -24.5t25.5 -24.5t42 -25t61.5 -27.5q47 -20 78 -39t48.5 -40.5t25.5 -46t8 -55.5q0 -43 -22 -85t-69 -68.5
t-122 -26.5v0zM386 799l34 -43l-149 -98h-25l-153 98l32 43l132 -69z" />
    <glyph glyph-name="scaron" unicode="&#x161;" 
d="M254 -10q-40 0 -76 7.5t-67 24t-58 40.5l43 76l6 9l6 -4q3 -8 5.5 -16.5t13.5 -20.5q23 -21 53 -34t76 -13q34 0 57.5 8.5t36 23t12.5 34.5q0 14 -6 24.5t-19 19.5t-35 18.5t-53 18.5q-51 15 -89.5 34.5t-59.5 46.5t-21 62q0 37 20.5 64t59 42.5t93.5 15.5q31 0 57 -4.5
t48.5 -13.5t42 -22.5t36.5 -31.5l-46 -59l-7 -8l-5 5q-1 8 -4.5 15.5t-15.5 18.5q-22 17 -49.5 26t-54.5 9q-38 0 -65.5 -13t-27.5 -40q0 -15 11 -28t38 -26t76 -26q56 -17 91 -36t51 -44t16 -59q0 -38 -21 -71.5t-63.5 -53t-105.5 -19.5v0zM143 693l111 -107l111 107
l44 -39l-141 -139h-28l-141 139z" />
    <glyph glyph-name="uni0162" unicode="&#x162;" 
d="M202 0v550h-174v74h439v-74h-181v-550h-84zM248 -200q-28 0 -55 8t-53 27l29 50q22 -18 44 -25.5t47 -7.5q24 0 36.5 8.5t12.5 23.5t-13.5 22.5t-36.5 7.5h-36l11 86h56l-5 -42q28 -2 46.5 -12t27.5 -24.5t9 -30.5q0 -37 -30.5 -64t-89.5 -27z" />
    <glyph glyph-name="uni0163" unicode="&#x163;" 
d="M299 -8q-43 0 -71.5 14.5t-45 45t-22 78.5t-3.5 116l12 328l89 11l10 1l1 -7q-5 -7 -8.5 -14t-5.5 -24l-9 -122l3 -14l-7 -162q-3 -72 4 -111.5t24.5 -54.5t44.5 -15q33 0 58.5 13t51.5 32l22 -65q-34 -25 -70.5 -37.5t-77.5 -12.5v0zM66 460h339v-69h-339v69zM256 -200
q-28 0 -55 8t-53 27l29 50q22 -18 44 -25.5t47 -7.5q24 0 36.5 8.5t12.5 23.5t-13.5 22.5t-36.5 7.5h-36l11 86h56l-5 -42q28 -2 46.5 -12t27.5 -24.5t9 -30.5q0 -37 -30.5 -64t-89.5 -27z" />
    <glyph glyph-name="Tcaron" unicode="&#x164;" 
d="M202 0v550h-174v74h439v-74h-181v-550h-84zM377 799l34 -43l-149 -98h-25l-153 98l32 43l132 -69z" />
    <glyph glyph-name="tcaron" unicode="&#x165;" 
d="M299 -8q-43 0 -71.5 14.5t-45 45t-22 78.5t-3.5 116l12 328l89 11l10 1l1 -7q-5 -7 -8.5 -14t-5.5 -24l-9 -122l3 -14l-7 -162q-3 -72 4 -111.5t24.5 -54.5t44.5 -15q33 0 58.5 13t51.5 32l22 -65q-34 -25 -70.5 -37.5t-77.5 -12.5v0zM66 460h339v-69h-339v69zM388 484
l-38 32q16 15 28 30t18.5 28.5t6.5 23.5q0 7 -6 13.5t-14 13t-14 15t-6 19.5q0 22 15.5 36.5t39.5 14.5q23 0 41.5 -19.5t18.5 -50.5q0 -21 -10 -46t-29.5 -52.5t-50.5 -57.5z" />
    <glyph glyph-name="Tbar" unicode="&#x166;" 
d="M202 0v550h-174v74h439v-74h-181v-550h-84zM82 281v62h332v-62h-332z" />
    <glyph glyph-name="tbar" unicode="&#x167;" 
d="M58 215v68h339v-68h-339zM299 -8q-43 0 -71.5 14.5t-45 45t-22 78.5t-3.5 116l12 328l89 11l10 1l1 -7q-5 -7 -8.5 -14t-5.5 -24l-9 -122l3 -14l-7 -162q-3 -72 4 -111.5t24.5 -54.5t44.5 -15q33 0 58.5 13t51.5 32l22 -65q-34 -25 -70.5 -37.5t-77.5 -12.5v0zM66 460
h339v-69h-339v69z" />
    <glyph glyph-name="Utilde" unicode="&#x168;" 
d="M251 -12q-101 0 -153.5 60.5t-52.5 167.5v407h83h10v-8q-6 -6 -7.5 -13t-1.5 -24v-363q0 -72 27 -114.5t96 -42.5t96.5 42.5t27.5 117.5v405h82v-404q0 -79 -26 -130t-72.5 -76t-108.5 -25v0zM373 790l50 -29q-21 -42 -42.5 -59.5t-51.5 -17.5q-25 0 -43 8.5t-32 20
t-27.5 20t-29.5 8.5q-17 0 -30.5 -11t-24.5 -37l-54 25q15 37 41 59.5t65 22.5q23 0 40 -8.5t31 -19.5t28 -19.5t31 -8.5q16 0 26 10t23 36z" />
    <glyph glyph-name="utilde" unicode="&#x169;" 
d="M218 -11q-27 0 -51.5 7.5t-44 24t-34 41t-22 59t-7.5 78.5l1 261h84v-261q0 -39 7 -66.5t20 -44t30.5 -23.5t36.5 -7q23 0 43.5 8.5t36 26.5t24.5 45.5t9 64.5v257h85v-388q0 -19 1.5 -36.5t8.5 -35.5h-81q-5 11 -7 22t-2.5 22.5t-0.5 22.5q-11 -19 -25.5 -33.5
t-32.5 -24.5t-37.5 -15t-41.5 -5zM370 674l50 -29q-21 -42 -42.5 -59.5t-51.5 -17.5q-25 0 -43 8.5t-32 20t-27.5 20t-29.5 8.5q-17 0 -30.5 -11t-24.5 -37l-54 25q15 37 41 59.5t65 22.5q23 0 40 -8.5t31 -19.5t28 -19.5t31 -8.5q16 0 26 10t23 36z" />
    <glyph glyph-name="Umacron" unicode="&#x16a;" 
d="M251 -12q-101 0 -153.5 60.5t-52.5 167.5v407h83h10v-8q-6 -6 -7.5 -13t-1.5 -24v-363q0 -72 27 -114.5t96 -42.5t96.5 42.5t27.5 117.5v405h82v-404q0 -79 -26 -130t-72.5 -76t-108.5 -25v0zM118 728v63h263v-63h-263z" />
    <glyph glyph-name="umacron" unicode="&#x16b;" 
d="M218 -11q-27 0 -51.5 7.5t-44 24t-34 41t-22 59t-7.5 78.5l1 261h84v-261q0 -39 7 -66.5t20 -44t30.5 -23.5t36.5 -7q23 0 43.5 8.5t36 26.5t24.5 45.5t9 64.5v257h85v-388q0 -19 1.5 -36.5t8.5 -35.5h-81q-5 11 -7 22t-2.5 22.5t-0.5 22.5q-11 -19 -25.5 -33.5
t-32.5 -24.5t-37.5 -15t-41.5 -5zM118 564v63h263v-63h-263z" />
    <glyph glyph-name="Ubreve" unicode="&#x16c;" 
d="M251 -12q-101 0 -153.5 60.5t-52.5 167.5v407h83h10v-8q-6 -6 -7.5 -13t-1.5 -24v-363q0 -72 27 -114.5t96 -42.5t96.5 42.5t27.5 117.5v405h82v-404q0 -79 -26 -130t-72.5 -76t-108.5 -25v0zM337 792l58 -27q-23 -46 -60 -71.5t-85 -25.5q-47 0 -84.5 25.5t-60.5 71.5
l58 27q17 -36 37.5 -53t49.5 -17q19 0 35 7.5t29 23t23 39.5z" />
    <glyph glyph-name="ubreve" unicode="&#x16d;" 
d="M218 -11q-27 0 -51.5 7.5t-44 24t-34 41t-22 59t-7.5 78.5l1 261h84v-261q0 -39 7 -66.5t20 -44t30.5 -23.5t36.5 -7q23 0 43.5 8.5t36 26.5t24.5 45.5t9 64.5v257h85v-388q0 -19 1.5 -36.5t8.5 -35.5h-81q-5 11 -7 22t-2.5 22.5t-0.5 22.5q-11 -19 -25.5 -33.5
t-32.5 -24.5t-37.5 -15t-41.5 -5zM337 659l58 -27q-23 -46 -60 -71.5t-85 -25.5q-47 0 -84.5 25.5t-60.5 71.5l58 27q17 -36 37.5 -53t49.5 -17q19 0 35 7.5t29 23t23 39.5z" />
    <glyph glyph-name="Uring" unicode="&#x16e;" 
d="M251 -12q-101 0 -153.5 60.5t-52.5 167.5v407h83h10v-8q-6 -6 -7.5 -13t-1.5 -24v-363q0 -72 27 -114.5t96 -42.5t96.5 42.5t27.5 117.5v405h82v-404q0 -79 -26 -130t-72.5 -76t-108.5 -25v0zM249 618q-26 0 -48 12.5t-35 33.5t-13 46t13.5 46t35 33.5t47.5 12.5
t47.5 -12.5t34.5 -33.5t13 -47q0 -24 -12.5 -45t-34 -33.5t-48.5 -12.5zM250 668q15 0 26.5 12t11.5 30q0 19 -11.5 31.5t-26.5 12.5q-16 0 -27.5 -12.5t-11.5 -31.5q0 -18 11.5 -30t27.5 -12z" />
    <glyph glyph-name="uring" unicode="&#x16f;" 
d="M218 -11q-27 0 -51.5 7.5t-44 24t-34 41t-22 59t-7.5 78.5l1 261h84v-261q0 -39 7 -66.5t20 -44t30.5 -23.5t36.5 -7q23 0 43.5 8.5t36 26.5t24.5 45.5t9 64.5v257h85v-388q0 -19 1.5 -36.5t8.5 -35.5h-81q-5 11 -7 22t-2.5 22.5t-0.5 22.5q-11 -19 -25.5 -33.5
t-32.5 -24.5t-37.5 -15t-41.5 -5zM248 515q-26 0 -47.5 12.5t-34.5 33.5t-13 46t13 46t34.5 33.5t47.5 12.5t48 -12.5t35 -33t13 -46.5q0 -25 -13.5 -46t-35 -33.5t-47.5 -12.5zM249 565q15 0 26.5 12.5t11.5 30.5t-11.5 31t-26.5 13q-16 0 -27 -13t-11 -31t11 -30.5
t27 -12.5z" />
    <glyph glyph-name="Uhungarumlaut" unicode="&#x170;" 
d="M251 -12q-101 0 -153.5 60.5t-52.5 167.5v407h83h10v-8q-6 -6 -7.5 -13t-1.5 -24v-363q0 -72 27 -114.5t96 -42.5t96.5 42.5t27.5 117.5v405h82v-404q0 -79 -26 -130t-72.5 -76t-108.5 -25v0zM281 644l-34 43l133 124l49 -66zM102 644l-34 43l134 124l49 -66z" />
    <glyph glyph-name="uhungarumlaut" unicode="&#x171;" 
d="M218 -11q-27 0 -51.5 7.5t-44 24t-34 41t-22 59t-7.5 78.5l1 261h84v-261q0 -39 7 -66.5t20 -44t30.5 -23.5t36.5 -7q23 0 43.5 8.5t36 26.5t24.5 45.5t9 64.5v257h85v-388q0 -19 1.5 -36.5t8.5 -35.5h-81q-5 11 -7 22t-2.5 22.5t-0.5 22.5q-11 -19 -25.5 -33.5
t-32.5 -24.5t-37.5 -15t-41.5 -5zM338 520l-53 32l87 152l69 -47zM183 520l-53 32l87 152l69 -47z" />
    <glyph glyph-name="Uogonek" unicode="&#x172;" 
d="M251 -12q-101 0 -153.5 60.5t-52.5 167.5v407h83h10v-8q-6 -6 -7.5 -13t-1.5 -24v-363q0 -72 27 -114.5t96 -42.5t96.5 42.5t27.5 117.5v405h82v-404q0 -79 -26 -130t-72.5 -76t-108.5 -25v0zM340 -159l-25 -62q-37 8 -63.5 21t-41 32.5t-14.5 44.5q0 26 14.5 52.5t43 52
t69.5 48.5l31 -20q-24 -19 -41.5 -39.5t-26.5 -39.5t-9 -35q0 -20 15.5 -34.5t47.5 -20.5z" />
    <glyph glyph-name="uogonek" unicode="&#x173;" 
d="M218 -11q-27 0 -51.5 7.5t-44 24t-34 41t-22 59t-7.5 78.5l1 261h84v-261q0 -39 7 -66.5t20 -44t30.5 -23.5t36.5 -7q23 0 43.5 8.5t36 26.5t24.5 45.5t9 64.5v257h85v-388q0 -19 1.5 -36.5t8.5 -35.5h-81q-5 11 -7 22t-2.5 22.5t-0.5 22.5q-11 -19 -25.5 -33.5
t-32.5 -24.5t-37.5 -15t-41.5 -5zM417 -169l-25 -62q-37 8 -63.5 21t-41 32.5t-14.5 44.5q0 26 14.5 52.5t43 52t69.5 48.5l31 -20q-24 -19 -41.5 -39.5t-26.5 -39.5t-9 -35q0 -20 15.5 -34.5t47.5 -20.5z" />
    <glyph glyph-name="Wcircumflex" unicode="&#x174;" 
d="M109 0l-94 623h76l58 -411l94 364h34l94 -365l49 412h70l-93 -623h-41l-101 399l-103 -399h-43zM129 653l-34 44l149 97h25l154 -97l-33 -43l-132 68z" />
    <glyph glyph-name="wcircumflex" unicode="&#x175;" 
d="M104 -1l-90 461h74l67 -351l74 305h49l91 -304q12 82 19.5 135t11.5 88t5 59.5t1 48.5v19h77q-9 -76 -20 -154t-24.5 -155t-29.5 -152h-78l-78 282l-73 -282h-76zM139 507l-44 38l141 140h28l141 -140l-44 -38l-111 107z" />
    <glyph glyph-name="Ycircumflex" unicode="&#x176;" 
d="M214 0v246l-190 377h92l145 -288l130 288h87l-175 -377v-246h-89zM120 653l-34 44l149 97h25l154 -97l-33 -43l-132 68z" />
    <glyph glyph-name="ycircumflex" unicode="&#x177;" 
d="M127 -175q-33 0 -59.5 10.5t-47.5 30.5l33 58l6 9l7 -4q2 -8 7 -14t18 -15q9 -3 18.5 -4.5t19.5 -1.5q25 0 42 12t30.5 38t26.5 65l92 274q15 45 27.5 88.5t16.5 88.5h83q-6 -46 -21.5 -94t-32.5 -94l-114 -320q-26 -70 -64 -98.5t-88 -28.5v0zM41 460h88l144 -373
l-41 -99zM143 507l-44 38l141 140h28l141 -140l-44 -38l-111 107z" />
    <glyph glyph-name="Ydieresis" unicode="&#x178;" 
d="M214 0v246l-190 377h92l145 -288l130 288h87l-175 -377v-246h-89zM159 686q-22 0 -39 16.5t-17 38.5t17 39t39 17q24 0 40.5 -17t16.5 -39t-17 -38.5t-40 -16.5zM339 686q-22 0 -38.5 16t-16.5 39t16.5 39.5t38.5 16.5q24 0 40 -17t16 -39t-16.5 -38.5t-39.5 -16.5z" />
    <glyph glyph-name="Zacute" unicode="&#x179;" 
d="M46 57l306 492h-294v74h394v-57l-301 -493h272q17 0 24 2t13 8h8v-10v-73h-422v57zM186 658l-24 46l155 91l42 -75z" />
    <glyph glyph-name="zacute" unicode="&#x17a;" 
d="M47 55l274 332h-254v73h363v-57l-270 -331h249q17 0 24 2t13 8h7v-10v-72h-406v55zM241 506l-43 28l84 155l63 -46z" />
    <glyph glyph-name="Zdotaccent" unicode="&#x17b;" 
d="M46 57l306 492h-294v74h394v-57l-301 -493h272q17 0 24 2t13 8h8v-10v-73h-422v57zM259 689q-24 0 -41 17t-17 40q0 25 16.5 41t41.5 16q23 0 40.5 -17t17.5 -40t-17.5 -40t-40.5 -17z" />
    <glyph glyph-name="zdotaccent" unicode="&#x17c;" 
d="M47 55l274 332h-254v73h363v-57l-270 -331h249q17 0 24 2t13 8h7v-10v-72h-406v55zM254 549q-24 0 -41 17t-17 40q0 25 16.5 41t41.5 16q23 0 40.5 -17t17.5 -40t-17.5 -40t-40.5 -17z" />
    <glyph glyph-name="Zcaron" unicode="&#x17d;" 
d="M46 57l306 492h-294v74h394v-57l-301 -493h272q17 0 24 2t13 8h8v-10v-73h-422v57zM387 799l34 -43l-149 -98h-25l-153 98l32 43l132 -69z" />
    <glyph glyph-name="zcaron" unicode="&#x17e;" 
d="M47 55l274 332h-254v73h363v-57l-270 -331h249q17 0 24 2t13 8h7v-10v-72h-406v55zM138 693l111 -107l111 107l44 -39l-141 -139h-28l-141 139z" />
    <glyph glyph-name="uni018F" unicode="&#x18f;" 
d="M251 -11q-73 0 -123.5 37t-77 109t-26.5 174q0 100 26.5 171.5t77 110t123.5 38.5t123 -38.5t76.5 -110t26.5 -171.5q0 -102 -26.5 -174t-76.5 -109t-123 -37zM251 60q44 0 75.5 28.5t48 84t16.5 136.5q0 77 -16.5 132.5t-48 85.5t-75.5 30t-76 -30t-48.5 -85.5
t-16.5 -132.5q0 -81 16.5 -136.5t48.5 -84t76 -28.5z" />
    <glyph glyph-name="florin" unicode="&#x192;" 
d="M103 -175q-26 0 -47.5 10t-40.5 30l46 72q3 -1 5.5 -6.5t6 -12t12 -11t25.5 -4.5q18 0 30.5 14.5t21 43t11.5 68.5l22 291h-118v68h122l7 88q6 69 26.5 113t54.5 65t79 21q35 0 64.5 -14.5t53.5 -42.5l-36 -74q-6 0 -7.5 3t-3.5 9q-2 12 -8.5 21t-15.5 16t-20 10.5
t-23 3.5q-22 0 -39 -12t-28 -42.5t-15 -86.5l-5 -78h119v-68h-125l-24 -294q-6 -72 -27 -116.5t-52.5 -64.5t-70.5 -20z" />
    <glyph glyph-name="uni0198" unicode="&#x198;" 
d="M41 623h87h10v-8q-6 -6 -7.5 -13t-1.5 -24v-232q47 77 88 131.5t77 87.5t69 48t65 15q12 0 22.5 -2t18.5 -6v-83v-10h-8q-6 6 -12.5 11t-23.5 7h-3h-3q-13 0 -30 -6.5t-39.5 -24t-53.5 -51.5t-72 -89.5t-95 -136.5v-237h-88v623zM146 339l61 55l267 -394l-102 -4z" />
    <glyph glyph-name="Ohorn" unicode="&#x1a0;" 
d="M251 -11q-73 0 -123.5 37t-77 109t-26.5 174q0 100 26.5 171.5t77 110t123.5 38.5t123 -38.5t76.5 -110t26.5 -171.5q0 -102 -26.5 -174t-76.5 -109t-123 -37zM251 60q44 0 75.5 28.5t48 84t16.5 136.5q0 77 -16.5 132.5t-48 85.5t-75.5 30t-76 -30t-48.5 -85.5
t-16.5 -132.5q0 -81 16.5 -136.5t48.5 -84t76 -28.5zM386 525l-10 57q17 0 25 8t10 28.5t2 57.5h62q0 -52 -6 -85.5t-24.5 -49.5t-58.5 -16z" />
    <glyph glyph-name="ohorn" unicode="&#x1a1;" 
d="M250 -9q-62 0 -110.5 30.5t-76.5 84.5t-28 124t28 124t76.5 85t110.5 31t110.5 -31t76.5 -85t28 -124t-28 -124t-76.5 -84.5t-110.5 -30.5zM250 61q37 0 65 22t44.5 60t16.5 88t-16.5 88t-44.5 59.5t-65 21.5q-36 0 -64.5 -21.5t-45 -59.5t-16.5 -88t16 -88t44.5 -60
t65.5 -22zM456 526q0 -53 -8.5 -85t-30 -45.5t-60.5 -13.5v56q15 0 21.5 18t6.5 70h71z" />
    <glyph glyph-name="Uhorn" unicode="&#x1af;" 
d="M226 -12q-91 0 -138 60.5t-47 167.5v407h74h9v-8q-5 -6 -6.5 -13t-1.5 -24v-363q0 -72 24.5 -114.5t86.5 -42.5q63 0 87 42.5t24 117.5v405h74v-404q0 -79 -23 -130t-65 -76t-98 -25v0zM408 566l-10 57q17 0 25 8t10 28.5t2 57.5h62q0 -52 -6 -85.5t-24.5 -49.5
t-58.5 -16z" />
    <glyph glyph-name="uhorn" unicode="&#x1b0;" 
d="M184 -11q-26 0 -49 7.5t-41.5 24t-31.5 41t-20 59t-7 78.5l1 261h78v-261q0 -39 7 -66.5t19 -44t28 -23.5t34 -7q22 0 41.5 8.5t34.5 26.5t23.5 45.5t8.5 64.5v257h78v-388q0 -19 1.5 -36.5t8.5 -35.5h-76q-4 11 -6 22t-2.5 22.5t-0.5 22.5q-10 -19 -24 -33.5
t-30.5 -24.5t-35.5 -15t-39 -5zM476 547q0 -53 -8.5 -85t-30 -45.5t-60.5 -13.5v56q15 0 21.5 18t6.5 70h71z" />
    <glyph glyph-name="uni01B8" unicode="&#x1b8;" 
d="M268 -14q-66 0 -111.5 26t-69.5 68t-24 92q0 44 16 81t45 65t69.5 43.5t88.5 15.5h55v-65q-46 2 -81.5 -5.5t-59 -24t-35.5 -43t-12 -61.5q0 -37 15.5 -64t43.5 -41t67 -14q30 0 51 8t39 24q10 14 13.5 20.5t2.5 14.5l5 6l7 -6l44 -65q-33 -37 -75.5 -56t-93.5 -19v0z
M81 553v70h319v-74h-222l159 -172l-76 -13z" />
    <glyph glyph-name="uni01B9" unicode="&#x1b9;" 
d="M283 -178q-66 0 -111.5 26t-69.5 68t-24 92q0 44 16 81t45 65t69.5 43.5t88.5 15.5h55v-65q-46 2 -81.5 -5.5t-59 -24t-35.5 -43t-12 -61.5q0 -37 15.5 -64t43.5 -41t67 -14q30 0 51 8t39 24q10 14 13.5 20.5t2.5 14.5l5 6l7 -6l44 -65q-33 -37 -75.5 -56t-93.5 -19v0z
M96 389v70h319v-74h-222l159 -172l-76 -13z" />
    <glyph glyph-name="uni01C7" unicode="&#x1c7;" 
d="M285 -160q-43 0 -79 17t-64 51l54 64q6 -4 8 -9t3 -10t7 -12q4 -5 14.5 -12.5t24.5 -12.5t32 -5q29 0 48 15t28.5 48.5t9.5 88.5v491h-120v69h204v-70v0v-494q1 -59 -12.5 -101t-37.5 -68t-55 -38t-65 -12zM60 0v623h95q0 -7 -2 -8.5t-4 -5.5t-2 -20v-518h154v-71h-241z
" />
    <glyph glyph-name="uni01C8" unicode="&#x1c8;" 
d="M64 0v623h96q0 -10 -4.5 -17t-4.5 -17v-517h141v-72h-228zM253 -175q-27 0 -51.5 6.5t-45 20t-37.5 32.5l54 72q5 -5 6.5 -10.5t4 -11t9.5 -12t23 -14.5q7 -3 13 -5t13.5 -3.5t14.5 -1.5q21 0 37.5 7t29.5 21.5t19.5 37.5t6.5 54v373h-127v69h214v-438q0 -52 -14.5 -89
t-39.5 -60.5t-58.5 -35t-71.5 -12.5zM386 549q-24 0 -41 16.5t-17 39.5q0 25 16.5 41.5t41.5 16.5q23 0 40.5 -17.5t17.5 -40.5t-17.5 -39.5t-40.5 -16.5z" />
    <glyph glyph-name="uni01C9" unicode="&#x1c9;" 
d="M253 -175q-41 0 -74 15t-58 44l50 70q5 -4 6.5 -9t4 -10.5t9.5 -12t24 -14.5q9 -4 19.5 -7t22.5 -3q27 0 48 12.5t33 39t12 68.5v373h-127v69h214v-438q0 -52 -14.5 -89t-39.5 -60.5t-58.5 -35t-71.5 -12.5zM21 0v68h60v532h-54v68h140v-600h114v-68h-260zM385 549
q-24 0 -40.5 17t-16.5 40q0 25 16 41t41 16q24 0 41.5 -17t17.5 -40t-17.5 -40t-41.5 -17z" />
    <glyph glyph-name="Gcaron" unicode="&#x1e6;" 
d="M277 -10q-76 0 -131 39t-84.5 110.5t-29.5 166.5q0 80 15.5 136.5t42.5 93.5t59.5 58t65 29t59.5 8q39 0 75 -13.5t66 -36.5t47 -56l-54 -48l-8 -7l-5 6q1 8 -2 15t-14 20q-14 16 -29 26.5t-33.5 15.5t-41.5 5q-26 0 -49.5 -7t-43.5 -24.5t-35 -45t-23 -68t-8 -94.5
q0 -63 11 -111t32.5 -80.5t51 -49t66.5 -16.5q13 0 27.5 1.5t29 6t28 11.5t25.5 16v137h-110v72h187v-251q-44 -33 -91.5 -49t-95.5 -16v0zM400 799l34 -43l-149 -98h-25l-153 98l32 43l132 -69z" />
    <glyph glyph-name="gcaron" unicode="&#x1e7;" 
d="M244 -174q-48 0 -87 8t-66 23t-41.5 37t-14.5 51q0 27 12 48.5t31.5 36.5t43.5 23l37 -19q-17 -11 -28.5 -21.5t-17 -24t-5.5 -32.5q0 -15 10 -27.5t28 -20.5t44 -12.5t58 -4.5q43 0 71 8.5t42 24t14 34.5q0 20 -8 32.5t-32 18.5t-70 6q-34 0 -64 3t-54.5 10t-41.5 17.5
t-26.5 26.5t-9.5 37q0 28 16.5 52t42.5 46l40 -28q-10 -11 -16.5 -18.5t-9.5 -14.5t-3 -16q0 -15 13.5 -24t46 -13.5t86.5 -4.5q50 0 82 -9t50 -25.5t25.5 -38t7.5 -46.5q0 -28 -11.5 -53.5t-36 -45.5t-63.5 -32t-95 -12zM227 156q-49 0 -86 21t-57.5 57.5t-20.5 81.5
q0 44 20.5 80t57.5 58t86 22q50 0 86.5 -22t57 -58t20.5 -80q0 -45 -20.5 -81.5t-57 -57.5t-86.5 -21zM227 223q27 0 47.5 12.5t33 33.5t12.5 47t-12.5 46.5t-33 33t-47.5 12.5q-26 0 -47 -12.5t-33 -33.5t-12 -46t12 -46.5t33 -34t47 -12.5zM364 382l-33 40q29 27 62 40
t75 10l10 -66q-32 4 -61 -1t-53 -23zM115 693l111 -107l111 107l44 -39l-141 -139h-28l-141 139z" />
    <glyph glyph-name="uni01EA" unicode="&#x1ea;" 
d="M251 -11q-73 0 -123.5 37t-77 109t-26.5 174q0 100 26.5 171.5t77 110t123.5 38.5t123 -38.5t76.5 -110t26.5 -171.5q0 -102 -26.5 -174t-76.5 -109t-123 -37zM251 60q44 0 75.5 28.5t48 84t16.5 136.5q0 77 -16.5 132.5t-48 85.5t-75.5 30t-76 -30t-48.5 -85.5
t-16.5 -132.5q0 -81 16.5 -136.5t48.5 -84t76 -28.5zM330 -158l-25 -62q-37 8 -63.5 21t-41 32.5t-14.5 44.5q0 26 14.5 52.5t43 52t69.5 48.5l31 -20q-24 -19 -41.5 -39.5t-26.5 -39.5t-9 -35q0 -20 15.5 -34.5t47.5 -20.5z" />
    <glyph glyph-name="uni01EB" unicode="&#x1eb;" 
d="M250 -9q-62 0 -110.5 30.5t-76.5 84.5t-28 124t28 124t76.5 85t110.5 31t110.5 -31t76.5 -85t28 -124t-28 -124t-76.5 -84.5t-110.5 -30.5zM250 61q37 0 65 22t44.5 60t16.5 88t-16.5 88t-44.5 59.5t-65 21.5q-36 0 -64.5 -21.5t-45 -59.5t-16.5 -88t16 -88t44.5 -60
t65.5 -22zM332 -154l-25 -62q-37 8 -63.5 21t-41 32.5t-14.5 44.5q0 26 14.5 52.5t43 52t69.5 48.5l31 -20q-24 -19 -41.5 -39.5t-26.5 -39.5t-9 -35q0 -20 15.5 -34.5t47.5 -20.5z" />
    <glyph glyph-name="Aringacute" unicode="&#x1fa;" 
d="M360 170h-232l15 63h200zM249 455l-151 -455h-83l223 632h24l223 -632h-86zM249 618q-26 0 -48 12.5t-35 33.5t-13 46t13.5 46t35 33.5t47.5 12.5t47.5 -12.5t34.5 -33.5t13 -47q0 -24 -12.5 -45t-34 -33.5t-48.5 -12.5zM250 668q15 0 26.5 12t11.5 30q0 19 -11.5 31.5
t-26.5 12.5q-16 0 -27.5 -12.5t-11.5 -31.5q0 -18 11.5 -30t27.5 -12zM176 834l-24 46l155 91l42 -75z" />
    <glyph glyph-name="aringacute" unicode="&#x1fb;" 
d="M207 -11q-78 0 -120 35.5t-42 91.5q0 37 17.5 67.5t49.5 51.5t76 32.5t97 11.5h29.5t33 -1.5t35.5 -3.5l3 -63q-16 2 -33 3.5t-33.5 2t-31.5 0.5q-37 0 -66.5 -6t-49.5 -17.5t-31 -29t-11 -40.5q0 -20 7 -33t19 -21t28 -11.5t35 -3.5q36 0 63.5 11.5t47 34.5t29.5 56.5
t10 78.5q0 64 -14.5 100t-43.5 50.5t-73 14.5q-33 0 -63.5 -11.5t-57.5 -38.5l-44 53q35 34 79 50t91 16q45 0 82 -10.5t64.5 -35.5t42.5 -67t15 -106v-251h-91v63q-13 -22 -30.5 -36.5t-37 -22.5t-40.5 -11.5t-41 -3.5zM246 515q-26 0 -47.5 12.5t-34.5 33.5t-13 46t13 46
t34.5 33.5t47.5 12.5t48 -12.5t35 -33t13 -46.5q0 -25 -13.5 -46t-35 -33.5t-47.5 -12.5zM247 565q15 0 26.5 12.5t11.5 30.5t-11.5 31t-26.5 13q-16 0 -27 -13t-11 -31t11 -30.5t27 -12.5zM238 744l-43 28l84 155l63 -46z" />
    <glyph glyph-name="AEacute" unicode="&#x1fc;" 
d="M10 0l195 624h291v-72h-166v-191h140v-73h-140v-216h164v-72h-240v166h-115l-50 -166h-79zM156 235h99l2 307h-8zM195 658l-24 46l155 91l42 -75z" />
    <glyph glyph-name="aeacute" unicode="&#x1fd;" 
d="M143 -11q-44 0 -74 17t-46 48t-16 71q0 36 14 64.5t40 49t65 31.5t89 13q0 40 -8 67t-24.5 41t-41.5 14q-20 0 -39 -11t-35 -33l-41 51q24 29 54 43.5t68 14.5q24 0 45.5 -7.5t38.5 -21t26 -31.5q12 18 28 31.5t35 21t38 7.5q47 0 76 -24.5t42.5 -69.5t13.5 -107v-41
l-204 -7v-45q0 -27 6.5 -49.5t19 -38.5t30 -24.5t39.5 -8.5q16 0 29 4t24 13t21 22l40 -48q-23 -28 -53.5 -42.5t-65.5 -14.5q-25 0 -47.5 8t-41.5 23t-33 35q-11 -20 -28.5 -35t-38.5 -23t-45 -8zM146 58q31 0 46 19.5t19.5 55.5t4.5 84q-48 -2 -77.5 -12.5t-43 -30
t-13.5 -50.5q0 -25 7.5 -39.5t22 -20.5t34.5 -6zM287 284l139 5q0 38 -7 64t-21.5 39t-37.5 13q-22 0 -38.5 -14.5t-25.5 -41t-9 -65.5zM255 506l-43 28l84 155l63 -46z" />
    <glyph glyph-name="Oslashacute" unicode="&#x1fe;" 
d="M86 -47l-48 23l375 706l47 -24zM251 -11q-73 0 -123.5 37t-77 109t-26.5 174q0 100 26.5 171.5t77 110t123.5 38.5t123 -38.5t76.5 -110t26.5 -171.5q0 -102 -26.5 -174t-76.5 -109t-123 -37zM251 60q44 0 75.5 28.5t48 84t16.5 136.5q0 77 -16.5 132.5t-48 85.5
t-75.5 30t-76 -30t-48.5 -85.5t-16.5 -132.5q0 -81 16.5 -136.5t48.5 -84t76 -28.5zM176 659l-24 46l155 91l42 -75z" />
    <glyph glyph-name="oslashacute" unicode="&#x1ff;" 
d="M127 -65l-61 33l300 552l64 -33zM250 -9q-62 0 -110.5 30.5t-76.5 84.5t-28 124t28 124t76.5 85t110.5 31t110.5 -31t76.5 -85t28 -124t-28 -124t-76.5 -84.5t-110.5 -30.5zM250 61q37 0 65 22t44.5 60t16.5 88t-16.5 88t-44.5 59.5t-65 21.5q-36 0 -64.5 -21.5
t-45 -59.5t-16.5 -88t16 -88t44.5 -60t65.5 -22zM240 506l-43 28l84 155l63 -46z" />
    <glyph glyph-name="uni0200" unicode="&#x200;" 
d="M360 170h-232l15 63h200zM249 455l-151 -455h-83l223 632h24l223 -632h-86zM178 670l-104 137l63 46l84 -155zM338 670l-104 137l63 46l84 -155z" />
    <glyph glyph-name="uni0201" unicode="&#x201;" 
d="M207 -11q-78 0 -120 35.5t-42 91.5q0 37 17.5 67.5t49.5 51.5t76 32.5t97 11.5h29.5t33 -1.5t35.5 -3.5l3 -63q-16 2 -33 3.5t-33.5 2t-31.5 0.5q-37 0 -66.5 -6t-49.5 -17.5t-31 -29t-11 -40.5q0 -20 7 -33t19 -21t28 -11.5t35 -3.5q36 0 63.5 11.5t47 34.5t29.5 56.5
t10 78.5q0 64 -14.5 100t-43.5 50.5t-73 14.5q-33 0 -63.5 -11.5t-57.5 -38.5l-44 53q35 34 79 50t91 16q45 0 82 -10.5t64.5 -35.5t42.5 -67t15 -106v-251h-91v63q-13 -22 -30.5 -36.5t-37 -22.5t-40.5 -11.5t-41 -3.5zM176 506l-104 137l63 46l84 -155zM336 506l-104 137
l63 46l84 -155z" />
    <glyph glyph-name="uni0202" unicode="&#x202;" 
d="M360 170h-232l15 63h200zM249 455l-151 -455h-83l223 632h24l223 -632h-86zM163 689l-58 27q24 46 61 71.5t84 25.5q48 0 85.5 -25.5t59.5 -71.5l-58 -27q-16 36 -37 53t-50 17q-19 0 -34.5 -7.5t-28.5 -22.5t-24 -40z" />
    <glyph glyph-name="uni0203" unicode="&#x203;" 
d="M207 -11q-78 0 -120 35.5t-42 91.5q0 37 17.5 67.5t49.5 51.5t76 32.5t97 11.5h29.5t33 -1.5t35.5 -3.5l3 -63q-16 2 -33 3.5t-33.5 2t-31.5 0.5q-37 0 -66.5 -6t-49.5 -17.5t-31 -29t-11 -40.5q0 -20 7 -33t19 -21t28 -11.5t35 -3.5q36 0 63.5 11.5t47 34.5t29.5 56.5
t10 78.5q0 64 -14.5 100t-43.5 50.5t-73 14.5q-33 0 -63.5 -11.5t-57.5 -38.5l-44 53q35 34 79 50t91 16q45 0 82 -10.5t64.5 -35.5t42.5 -67t15 -106v-251h-91v63q-13 -22 -30.5 -36.5t-37 -22.5t-40.5 -11.5t-41 -3.5zM161 525l-58 27q24 46 61 71.5t84 25.5
q48 0 85.5 -25.5t59.5 -71.5l-58 -27q-16 36 -37 53t-50 17q-19 0 -34.5 -7.5t-28.5 -22.5t-24 -40z" />
    <glyph glyph-name="uni0204" unicode="&#x204;" 
d="M56 0v624h390v-72h-309v-190h255v-74h-255v-216h306v-72h-387zM189 670l-104 137l63 46l84 -155zM349 670l-104 137l63 46l84 -155z" />
    <glyph glyph-name="uni0205" unicode="&#x205;" 
d="M272 -10q-50 0 -91.5 15.5t-72 45.5t-46.5 75t-16 102q0 58 16.5 103t45.5 76t68 47.5t83 16.5q39 0 74 -13.5t60.5 -40.5t40.5 -68.5t15 -97.5q0 -9 -0.5 -19.5t-1.5 -18.5h-319q2 -41 14.5 -70.5t32.5 -48t45.5 -27.5t54.5 -9q23 0 43.5 5t38.5 16t33 27l46 -44
q-20 -24 -45.5 -40.5t-55 -24t-63.5 -7.5zM131 278h233q0 30 -8 53t-22 40t-34.5 25.5t-45.5 8.5q-23 0 -43 -7.5t-36.5 -23.5t-28 -39.5t-15.5 -56.5zM188 506l-104 137l63 46l84 -155zM348 506l-104 137l63 46l84 -155z" />
    <glyph glyph-name="uni0206" unicode="&#x206;" 
d="M56 0v624h390v-72h-309v-190h255v-74h-255v-216h306v-72h-387zM174 689l-58 27q24 46 61 71.5t84 25.5q48 0 85.5 -25.5t59.5 -71.5l-58 -27q-16 36 -37 53t-50 17q-19 0 -34.5 -7.5t-28.5 -22.5t-24 -40z" />
    <glyph glyph-name="uni0207" unicode="&#x207;" 
d="M272 -10q-50 0 -91.5 15.5t-72 45.5t-46.5 75t-16 102q0 58 16.5 103t45.5 76t68 47.5t83 16.5q39 0 74 -13.5t60.5 -40.5t40.5 -68.5t15 -97.5q0 -9 -0.5 -19.5t-1.5 -18.5h-319q2 -41 14.5 -70.5t32.5 -48t45.5 -27.5t54.5 -9q23 0 43.5 5t38.5 16t33 27l46 -44
q-20 -24 -45.5 -40.5t-55 -24t-63.5 -7.5zM131 278h233q0 30 -8 53t-22 40t-34.5 25.5t-45.5 8.5q-23 0 -43 -7.5t-36.5 -23.5t-28 -39.5t-15.5 -56.5zM172 525l-58 27q24 46 61 71.5t84 25.5q48 0 85.5 -25.5t59.5 -71.5l-58 -27q-16 36 -37 53t-50 17q-19 0 -34.5 -7.5
t-28.5 -22.5t-24 -40z" />
    <glyph glyph-name="uni0208" unicode="&#x208;" 
d="M77 0v70h123v483h-116v70h321v-70h-123v-484h129v-69h-334zM169 670l-104 137l63 46l84 -155zM329 670l-104 137l63 46l84 -155z" />
    <glyph glyph-name="uni0209" unicode="&#x209;" 
d="M95 0v68h116v323h-110v69h196v-392h106v-68h-308zM178 506l-104 137l63 46l84 -155zM338 506l-104 137l63 46l84 -155z" />
    <glyph glyph-name="uni020A" unicode="&#x20a;" 
d="M77 0v70h123v483h-116v70h321v-70h-123v-484h129v-69h-334zM154 689l-58 27q24 46 61 71.5t84 25.5q48 0 85.5 -25.5t59.5 -71.5l-58 -27q-16 36 -37 53t-50 17q-19 0 -34.5 -7.5t-28.5 -22.5t-24 -40z" />
    <glyph glyph-name="uni020B" unicode="&#x20b;" 
d="M95 0v68h116v323h-110v69h196v-392h106v-68h-308zM163 525l-58 27q24 46 61 71.5t84 25.5q48 0 85.5 -25.5t59.5 -71.5l-58 -27q-16 36 -37 53t-50 17q-19 0 -34.5 -7.5t-28.5 -22.5t-24 -40z" />
    <glyph glyph-name="uni020C" unicode="&#x20c;" 
d="M251 -11q-73 0 -123.5 37t-77 109t-26.5 174q0 100 26.5 171.5t77 110t123.5 38.5t123 -38.5t76.5 -110t26.5 -171.5q0 -102 -26.5 -174t-76.5 -109t-123 -37zM251 60q44 0 75.5 28.5t48 84t16.5 136.5q0 77 -16.5 132.5t-48 85.5t-75.5 30t-76 -30t-48.5 -85.5
t-16.5 -132.5q0 -81 16.5 -136.5t48.5 -84t76 -28.5zM178 671l-104 137l63 46l84 -155zM338 671l-104 137l63 46l84 -155z" />
    <glyph glyph-name="uni020D" unicode="&#x20d;" 
d="M250 -9q-62 0 -110.5 30.5t-76.5 84.5t-28 124t28 124t76.5 85t110.5 31t110.5 -31t76.5 -85t28 -124t-28 -124t-76.5 -84.5t-110.5 -30.5zM250 61q37 0 65 22t44.5 60t16.5 88t-16.5 88t-44.5 59.5t-65 21.5q-36 0 -64.5 -21.5t-45 -59.5t-16.5 -88t16 -88t44.5 -60
t65.5 -22zM178 506l-104 137l63 46l84 -155zM338 506l-104 137l63 46l84 -155z" />
    <glyph glyph-name="uni020E" unicode="&#x20e;" 
d="M251 -11q-73 0 -123.5 37t-77 109t-26.5 174q0 100 26.5 171.5t77 110t123.5 38.5t123 -38.5t76.5 -110t26.5 -171.5q0 -102 -26.5 -174t-76.5 -109t-123 -37zM251 60q44 0 75.5 28.5t48 84t16.5 136.5q0 77 -16.5 132.5t-48 85.5t-75.5 30t-76 -30t-48.5 -85.5
t-16.5 -132.5q0 -81 16.5 -136.5t48.5 -84t76 -28.5zM163 690l-58 27q24 46 61 71.5t84 25.5q48 0 85.5 -25.5t59.5 -71.5l-58 -27q-16 36 -37 53t-50 17q-19 0 -34.5 -7.5t-28.5 -22.5t-24 -40z" />
    <glyph glyph-name="uni020F" unicode="&#x20f;" 
d="M250 -9q-62 0 -110.5 30.5t-76.5 84.5t-28 124t28 124t76.5 85t110.5 31t110.5 -31t76.5 -85t28 -124t-28 -124t-76.5 -84.5t-110.5 -30.5zM250 61q37 0 65 22t44.5 60t16.5 88t-16.5 88t-44.5 59.5t-65 21.5q-36 0 -64.5 -21.5t-45 -59.5t-16.5 -88t16 -88t44.5 -60
t65.5 -22zM163 525l-58 27q24 46 61 71.5t84 25.5q48 0 85.5 -25.5t59.5 -71.5l-58 -27q-16 36 -37 53t-50 17q-19 0 -34.5 -7.5t-28.5 -22.5t-24 -40z" />
    <glyph glyph-name="uni0210" unicode="&#x210;" 
d="M52 0v623h189q75 0 121.5 -22t68 -62.5t21.5 -95.5q0 -34 -15 -69t-43 -61t-66 -38l141 -275h-92l-134 270h-105v-270h-86zM138 342h111q60 0 88 27.5t28 72.5q0 29 -12 52.5t-38 37.5t-66 14h-111v-204zM178 670l-104 137l63 46l84 -155zM338 670l-104 137l63 46
l84 -155z" />
    <glyph glyph-name="uni0211" unicode="&#x211;" 
d="M109 460h89l-2 -132l-11 12q6 31 20.5 55t35 41t45.5 26t52 9q37 0 67.5 -12.5t55.5 -38.5l-37 -69l-4 -9l-7 4q-3 8 -6.5 15.5t-16.5 17.5q-15 11 -29 15t-32 4q-24 0 -48 -9t-43.5 -28t-30.5 -48.5t-11 -69.5v-244h-87v461zM216 506l-104 137l63 46l84 -155zM376 506
l-104 137l63 46l84 -155z" />
    <glyph glyph-name="uni0212" unicode="&#x212;" 
d="M52 0v623h189q75 0 121.5 -22t68 -62.5t21.5 -95.5q0 -34 -15 -69t-43 -61t-66 -38l141 -275h-92l-134 270h-105v-270h-86zM138 342h111q60 0 88 27.5t28 72.5q0 29 -12 52.5t-38 37.5t-66 14h-111v-204zM163 689l-58 27q24 46 61 71.5t84 25.5q48 0 85.5 -25.5
t59.5 -71.5l-58 -27q-16 36 -37 53t-50 17q-19 0 -34.5 -7.5t-28.5 -22.5t-24 -40z" />
    <glyph glyph-name="uni0213" unicode="&#x213;" 
d="M109 460h89l-2 -132l-11 12q6 31 20.5 55t35 41t45.5 26t52 9q37 0 67.5 -12.5t55.5 -38.5l-37 -69l-4 -9l-7 4q-3 8 -6.5 15.5t-16.5 17.5q-15 11 -29 15t-32 4q-24 0 -48 -9t-43.5 -28t-30.5 -48.5t-11 -69.5v-244h-87v461zM201 525l-58 27q24 46 61 71.5t84 25.5
q48 0 85.5 -25.5t59.5 -71.5l-58 -27q-16 36 -37 53t-50 17q-19 0 -34.5 -7.5t-28.5 -22.5t-24 -40z" />
    <glyph glyph-name="uni0214" unicode="&#x214;" 
d="M251 -12q-101 0 -153.5 60.5t-52.5 167.5v407h83h10v-8q-6 -6 -7.5 -13t-1.5 -24v-363q0 -72 27 -114.5t96 -42.5t96.5 42.5t27.5 117.5v405h82v-404q0 -79 -26 -130t-72.5 -76t-108.5 -25v0zM178 670l-104 137l63 46l84 -155zM338 670l-104 137l63 46l84 -155z" />
    <glyph glyph-name="uni0215" unicode="&#x215;" 
d="M218 -11q-27 0 -51.5 7.5t-44 24t-34 41t-22 59t-7.5 78.5l1 261h84v-261q0 -39 7 -66.5t20 -44t30.5 -23.5t36.5 -7q23 0 43.5 8.5t36 26.5t24.5 45.5t9 64.5v257h85v-388q0 -19 1.5 -36.5t8.5 -35.5h-81q-5 11 -7 22t-2.5 22.5t-0.5 22.5q-11 -19 -25.5 -33.5
t-32.5 -24.5t-37.5 -15t-41.5 -5zM178 506l-104 137l63 46l84 -155zM338 506l-104 137l63 46l84 -155z" />
    <glyph glyph-name="uni0216" unicode="&#x216;" 
d="M251 -12q-101 0 -153.5 60.5t-52.5 167.5v407h83h10v-8q-6 -6 -7.5 -13t-1.5 -24v-363q0 -72 27 -114.5t96 -42.5t96.5 42.5t27.5 117.5v405h82v-404q0 -79 -26 -130t-72.5 -76t-108.5 -25v0zM163 689l-58 27q24 46 61 71.5t84 25.5q48 0 85.5 -25.5t59.5 -71.5l-58 -27
q-16 36 -37 53t-50 17q-19 0 -34.5 -7.5t-28.5 -22.5t-24 -40z" />
    <glyph glyph-name="uni0217" unicode="&#x217;" 
d="M218 -11q-27 0 -51.5 7.5t-44 24t-34 41t-22 59t-7.5 78.5l1 261h84v-261q0 -39 7 -66.5t20 -44t30.5 -23.5t36.5 -7q23 0 43.5 8.5t36 26.5t24.5 45.5t9 64.5v257h85v-388q0 -19 1.5 -36.5t8.5 -35.5h-81q-5 11 -7 22t-2.5 22.5t-0.5 22.5q-11 -19 -25.5 -33.5
t-32.5 -24.5t-37.5 -15t-41.5 -5zM163 525l-58 27q24 46 61 71.5t84 25.5q48 0 85.5 -25.5t59.5 -71.5l-58 -27q-16 36 -37 53t-50 17q-19 0 -34.5 -7.5t-28.5 -22.5t-24 -40z" />
    <glyph glyph-name="uni0218" unicode="&#x218;" 
d="M245 -10q-61 0 -111.5 19.5t-87.5 57.5l43 73l4 9l7 -4q2 -7 5.5 -15.5t14.5 -20.5q26 -21 59 -33.5t74 -12.5q27 0 49 7.5t38.5 20.5t25.5 31t9 39q0 16 -3.5 29t-12.5 24t-24 22t-39 24t-58 28q-64 26 -101.5 55t-53.5 62t-16 71q0 46 24 81t67.5 55t101.5 20
q36 0 68.5 -9.5t60.5 -26.5t50 -43l-48 -60l-6 -8l-7 5q-1 8 -4 16t-14 20q-22 21 -47 28.5t-60 7.5q-23 0 -41.5 -6t-31.5 -18t-20.5 -26.5t-7.5 -30.5t4 -28.5t13 -24.5t25.5 -24.5t42 -25t61.5 -27.5q47 -20 78 -39t48.5 -40.5t25.5 -46t8 -55.5q0 -43 -22 -85t-69 -68.5
t-122 -26.5v0zM223 -282l-38 34q24 23 40 48.5t16 41.5q0 13 -11 23.5t-22.5 22t-11.5 29.5q0 25 17 41t42 16q27 0 46.5 -22.5t19.5 -58.5q0 -25 -10.5 -52.5t-32.5 -58t-55 -64.5z" />
    <glyph glyph-name="uni0219" unicode="&#x219;" 
d="M254 -10q-40 0 -76 7.5t-67 24t-58 40.5l43 76l6 9l6 -4q3 -8 5.5 -16.5t13.5 -20.5q23 -21 53 -34t76 -13q34 0 57.5 8.5t36 23t12.5 34.5q0 14 -6 24.5t-19 19.5t-35 18.5t-53 18.5q-51 15 -89.5 34.5t-59.5 46.5t-21 62q0 37 20.5 64t59 42.5t93.5 15.5q31 0 57 -4.5
t48.5 -13.5t42 -22.5t36.5 -31.5l-46 -59l-7 -8l-5 5q-1 8 -4.5 15.5t-15.5 18.5q-22 17 -49.5 26t-54.5 9q-38 0 -65.5 -13t-27.5 -40q0 -15 11 -28t38 -26t76 -26q56 -17 91 -36t51 -44t16 -59q0 -38 -21 -71.5t-63.5 -53t-105.5 -19.5v0zM211 -282l-38 34q24 23 40 48.5
t16 41.5q0 13 -11 23.5t-22.5 22t-11.5 29.5q0 25 17 41t42 16q27 0 46.5 -22.5t19.5 -58.5q0 -25 -10.5 -52.5t-32.5 -58t-55 -64.5z" />
    <glyph glyph-name="uni021A" unicode="&#x21a;" 
d="M202 0v550h-174v74h439v-74h-181v-550h-84zM224 -282l-38 34q24 23 40 48.5t16 41.5q0 13 -11 23.5t-22.5 22t-11.5 29.5q0 25 17 41t42 16q27 0 46.5 -22.5t19.5 -58.5q0 -25 -10.5 -52.5t-32.5 -58t-55 -64.5z" />
    <glyph glyph-name="uni021B" unicode="&#x21b;" 
d="M299 -8q-43 0 -71.5 14.5t-45 45t-22 78.5t-3.5 116l12 328l89 11l10 1l1 -7q-5 -7 -8.5 -14t-5.5 -24l-9 -122l3 -14l-7 -162q-3 -72 4 -111.5t24.5 -54.5t44.5 -15q33 0 58.5 13t51.5 32l22 -65q-34 -25 -70.5 -37.5t-77.5 -12.5v0zM66 460h339v-69h-339v69zM232 -282
l-38 34q24 23 40 48.5t16 41.5q0 13 -11 23.5t-22.5 22t-11.5 29.5q0 25 17 41t42 16q27 0 46.5 -22.5t19.5 -58.5q0 -25 -10.5 -52.5t-32.5 -58t-55 -64.5z" />
    <glyph glyph-name="uni022A" unicode="&#x22a;" 
d="M251 -11q-73 0 -123.5 37t-77 109t-26.5 174q0 100 26.5 171.5t77 110t123.5 38.5t123 -38.5t76.5 -110t26.5 -171.5q0 -102 -26.5 -174t-76.5 -109t-123 -37zM251 60q44 0 75.5 28.5t48 84t16.5 136.5q0 77 -16.5 132.5t-48 85.5t-75.5 30t-76 -30t-48.5 -85.5
t-16.5 -132.5q0 -81 16.5 -136.5t48.5 -84t76 -28.5zM160 687q-22 0 -39 16.5t-17 38.5t17 39t39 17q24 0 40.5 -17t16.5 -39t-17 -38.5t-40 -16.5zM340 687q-22 0 -38.5 16t-16.5 39t16.5 39.5t38.5 16.5q24 0 40 -17t16 -39t-16.5 -38.5t-39.5 -16.5zM117 876v63h263v-63
h-263z" />
    <glyph glyph-name="uni022B" unicode="&#x22b;" 
d="M250 -9q-62 0 -110.5 30.5t-76.5 84.5t-28 124t28 124t76.5 85t110.5 31t110.5 -31t76.5 -85t28 -124t-28 -124t-76.5 -84.5t-110.5 -30.5zM250 61q37 0 65 22t44.5 60t16.5 88t-16.5 88t-44.5 59.5t-65 21.5q-36 0 -64.5 -21.5t-45 -59.5t-16.5 -88t16 -88t44.5 -60
t65.5 -22zM161 559q-23 0 -40 16t-17 38t17 39t40 17t39.5 -16.5t16.5 -39.5q0 -22 -17 -38t-39 -16zM341 559q-23 0 -39.5 15.5t-16.5 38.5t16.5 39.5t39.5 16.5t39 -17t16 -39t-16.5 -38t-38.5 -16zM119 713v63h263v-63h-263z" />
    <glyph glyph-name="uni022C" unicode="&#x22c;" 
d="M251 -11q-73 0 -123.5 37t-77 109t-26.5 174q0 100 26.5 171.5t77 110t123.5 38.5t123 -38.5t76.5 -110t26.5 -171.5q0 -102 -26.5 -174t-76.5 -109t-123 -37zM251 60q44 0 75.5 28.5t48 84t16.5 136.5q0 77 -16.5 132.5t-48 85.5t-75.5 30t-76 -30t-48.5 -85.5
t-16.5 -132.5q0 -81 16.5 -136.5t48.5 -84t76 -28.5zM345 836l50 -24q-19 -41 -39.5 -58t-46.5 -17q-19 0 -34.5 8t-28 18.5t-24 18.5t-23.5 8q-13 0 -24.5 -10.5t-19.5 -30.5l-50 24q12 34 37 55t50 21q19 0 35.5 -8t30.5 -19t26 -19t23 -8t20 9.5t18 31.5zM113 877v63h263
v-63h-263z" />
    <glyph glyph-name="uni022D" unicode="&#x22d;" 
d="M250 -9q-62 0 -110.5 30.5t-76.5 84.5t-28 124t28 124t76.5 85t110.5 31t110.5 -31t76.5 -85t28 -124t-28 -124t-76.5 -84.5t-110.5 -30.5zM250 61q37 0 65 22t44.5 60t16.5 88t-16.5 88t-44.5 59.5t-65 21.5q-36 0 -64.5 -21.5t-45 -59.5t-16.5 -88t16 -88t44.5 -60
t65.5 -22zM370 674l50 -29q-21 -42 -42.5 -59.5t-51.5 -17.5q-25 0 -43 8.5t-32 20t-27.5 20t-29.5 8.5q-17 0 -30.5 -11t-24.5 -37l-54 25q15 37 41 59.5t65 22.5q23 0 40 -8.5t31 -19.5t28 -19.5t31 -8.5q16 0 26 10t23 36zM119 744v63h263v-63h-263z" />
    <glyph glyph-name="uni0230" unicode="&#x230;" 
d="M251 -11q-73 0 -123.5 37t-77 109t-26.5 174q0 100 26.5 171.5t77 110t123.5 38.5t123 -38.5t76.5 -110t26.5 -171.5q0 -102 -26.5 -174t-76.5 -109t-123 -37zM251 60q44 0 75.5 28.5t48 84t16.5 136.5q0 77 -16.5 132.5t-48 85.5t-75.5 30t-76 -30t-48.5 -85.5
t-16.5 -132.5q0 -81 16.5 -136.5t48.5 -84t76 -28.5zM249 690q-24 0 -41 17t-17 40q0 25 16.5 41t41.5 16q23 0 40.5 -17t17.5 -40t-17.5 -40t-40.5 -17zM118 846v63h263v-63h-263z" />
    <glyph glyph-name="uni0231" unicode="&#x231;" 
d="M250 -9q-62 0 -110.5 30.5t-76.5 84.5t-28 124t28 124t76.5 85t110.5 31t110.5 -31t76.5 -85t28 -124t-28 -124t-76.5 -84.5t-110.5 -30.5zM250 61q37 0 65 22t44.5 60t16.5 88t-16.5 88t-44.5 59.5t-65 21.5q-36 0 -64.5 -21.5t-45 -59.5t-16.5 -88t16 -88t44.5 -60
t65.5 -22zM249 549q-24 0 -41 17t-17 40q0 25 16.5 41t41.5 16q23 0 40.5 -17t17.5 -40t-17.5 -40t-40.5 -17zM119 713v63h263v-63h-263z" />
    <glyph glyph-name="uni0232" unicode="&#x232;" 
d="M214 0v246l-190 377h92l145 -288l130 288h87l-175 -377v-246h-89zM118 728v63h263v-63h-263z" />
    <glyph glyph-name="uni0233" unicode="&#x233;" 
d="M127 -175q-33 0 -59.5 10.5t-47.5 30.5l33 58l6 9l7 -4q2 -8 7 -14t18 -15q9 -3 18.5 -4.5t19.5 -1.5q25 0 42 12t30.5 38t26.5 65l92 274q15 45 27.5 88.5t16.5 88.5h83q-6 -46 -21.5 -94t-32.5 -94l-114 -320q-26 -70 -64 -98.5t-88 -28.5v0zM41 460h88l144 -373
l-41 -99zM123 564v63h263v-63h-263z" />
    <glyph glyph-name="uni0237" unicode="&#x237;" 
d="M193 -175q-44 0 -83 17t-66 50l47 63l6 8l6 -5q2 -8 5 -15.5t14 -19.5q13 -11 30.5 -18t39.5 -7q29 0 50 12.5t32.5 39t11.5 68.5v373h-167v69h254v-436q0 -70 -25 -114t-65.5 -64.5t-89.5 -20.5v0z" />
    <glyph glyph-name="uni024D" unicode="&#x24d;" 
d="M33 167v67h278v-67h-278zM109 460h89l-2 -132l-11 12q6 31 20.5 55t35 41t45.5 26t52 9q37 0 67.5 -12.5t55.5 -38.5l-37 -69l-4 -9l-7 4q-3 8 -6.5 15.5t-16.5 17.5q-15 11 -29 15t-32 4q-24 0 -48 -9t-43.5 -28t-30.5 -48.5t-11 -69.5v-244h-87v461z" />
    <glyph glyph-name="uni0259" unicode="&#x259;" 
d="M228 470q50 0 91.5 -15.5t72 -46t46.5 -75t16 -101.5q0 -58 -16.5 -103.5t-45.5 -76t-67.5 -47t-83.5 -16.5q-39 0 -74 13.5t-60.5 40.5t-40.5 68.5t-15 97.5q0 9 0.5 19.5t1.5 18.5h319q-2 40 -14.5 69.5t-32.5 48.5t-45.5 28t-54.5 9q-22 0 -43 -5t-38.5 -16t-33.5 -28
l-46 45q21 25 46 41t54.5 23.5t63.5 7.5zM369 182h-233q0 -30 8 -53.5t22 -40t34.5 -25t45.5 -8.5q23 0 43 7.5t36.5 23t28 39.5t15.5 57z" />
    <glyph glyph-name="uni027B" unicode="&#x27b;" 
d="M400 -177q-28 0 -52 8t-42.5 26t-29 47t-11.5 72l1 105q-12 -29 -33 -49.5t-46.5 -31.5t-53.5 -11q-33 0 -59.5 12.5t-53.5 38.5l35 66l4 9l7 -4q3 -7 6.5 -15t15.5 -19q11 -8 23 -11.5t29 -3.5q21 0 43.5 9.5t41 29t29.5 48.5t11 69v243h87l-1 -486q0 -26 8 -43.5
t21.5 -27t31.5 -9.5q6 0 12 1t12.5 3t12.5 6q6 2 8 5.5t3.5 7t4.5 5.5l25 -65q-17 -17 -39.5 -26t-50.5 -9v0z" />
    <glyph glyph-name="uni0298" unicode="&#x298;" 
d="M251 -11q-73 0 -123.5 37t-77 109t-26.5 174q0 100 26.5 171.5t77 110t123.5 38.5t123 -38.5t76.5 -110t26.5 -171.5q0 -102 -26.5 -174t-76.5 -109t-123 -37zM251 60q44 0 75.5 28.5t48 84t16.5 136.5q0 77 -16.5 132.5t-48 85.5t-75.5 30t-76 -30t-48.5 -85.5
t-16.5 -132.5q0 -81 16.5 -136.5t48.5 -84t76 -28.5zM252 266q-20 0 -34 14t-14 33q0 20 14 34t34 14t34 -14.5t14 -33.5t-14 -33t-34 -14z" />
    <glyph glyph-name="uni029A" unicode="&#x29a;" 
d="M234 -11q-60 1 -104 20.5t-67 53.5t-23 75q0 29 11 51t30 38t46 23q-31 18 -46.5 43t-15.5 55q0 34 22 62t61.5 44.5t90.5 16.5q68 0 117 -30.5t75.5 -84.5t26.5 -126q0 -71 -27 -126t-78 -85t-119 -30zM235 59q43 0 73.5 20t46.5 58t16 94q0 51 -14.5 89t-44 59
t-71.5 21q-30 0 -49.5 -8.5t-29 -22.5t-9.5 -33q0 -16 8 -29.5t26.5 -21.5t50.5 -8q8 0 15 0.5t15 1.5v-73q-8 1 -14 1.5t-11.5 1t-13.5 0.5q-24 0 -42.5 -4.5t-31.5 -14t-20 -22t-7 -30.5q0 -22 13.5 -40t37.5 -28.5t56 -10.5z" />
    <glyph glyph-name="uni02B9" unicode="&#x2b9;" 
d="M252 517h-50l23 184h79z" />
    <glyph glyph-name="uni02BA" unicode="&#x2ba;" 
d="M321 517h-50l23 184h79zM191 517h-50l23 184h79z" />
    <glyph glyph-name="uni02BB" unicode="&#x2bb;" 
d="M270 642l39 -34q-25 -23 -41 -48.5t-16 -41.5q0 -13 11 -23.5t22.5 -22t11.5 -29.5q0 -25 -17 -41t-42 -16q-27 0 -46.5 22.5t-19.5 58.5q0 25 10.5 52.5t32.5 58t55 64.5z" />
    <glyph glyph-name="uni02BC" unicode="&#x2bc;" 
d="M214 449l-38 32q16 15 28 30t18.5 28.5t6.5 23.5q0 7 -6 13.5t-14 13t-14 15t-6 19.5q0 22 15.5 36.5t39.5 14.5q23 0 41.5 -19.5t18.5 -50.5q0 -21 -10 -46t-29.5 -52.5t-50.5 -57.5z" />
    <glyph glyph-name="uni02BE" unicode="&#x2be;" 
d="M194 453v54q15 0 26.5 7.5t18.5 20.5t7 28q0 24 -15.5 41t-36.5 17v51q30 0 55.5 -14.5t41 -39t15.5 -56.5q0 -30 -15 -55t-40.5 -39.5t-56.5 -14.5z" />
    <glyph glyph-name="uni02BF" unicode="&#x2bf;" 
d="M306 453q-31 0 -56.5 14.5t-40.5 39.5t-15 55q0 32 15.5 56.5t41 39t55.5 14.5v-51q-21 0 -36.5 -17t-15.5 -41q0 -15 7 -28t19 -20.5t26 -7.5v-54z" />
    <glyph glyph-name="circumflex" unicode="&#x2c6;" 
d="M345 516l-90 101l-97 -103l-41 34l126 141h25l123 -141z" />
    <glyph glyph-name="caron" unicode="&#x2c7;" 
d="M242 516l-111 142l49 39l78 -100l81 99l41 -39l-112 -141h-26z" />
    <glyph glyph-name="uni02C8" unicode="&#x2c8;" 
d="M300 445h-81v220h81v-220z" />
    <glyph glyph-name="uni02C9" unicode="&#x2c9;" 
d="M118 561v67h263v-67h-263z" />
    <glyph glyph-name="uni02CA" unicode="&#x2ca;" 
d="M246 556h-62l92 148h85z" />
    <glyph glyph-name="uni02CB" unicode="&#x2cb;" 
d="M280 520l-102 137l69 47l85 -153z" />
    <glyph glyph-name="uni02CC" unicode="&#x2cc;" 
d="M292 -190h-83v220h83v-220z" />
    <glyph glyph-name="breve" unicode="&#x2d8;" 
d="M251 522q-42 0 -81 19.5t-74 59.5l44 55q20 -33 49 -52t62 -19q30 0 59.5 17t56.5 54l35 -52q-20 -25 -44.5 -43.5t-51.5 -28.5t-55 -10z" />
    <glyph glyph-name="dotaccent" unicode="&#x2d9;" 
d="M254 549q-24 0 -41 17t-17 40q0 25 16.5 41t41.5 16q23 0 40.5 -17t17.5 -40t-17.5 -40t-40.5 -17z" />
    <glyph glyph-name="ring" unicode="&#x2da;" 
d="M254 515q-26 0 -47.5 12.5t-34.5 33.5t-13 46t13 46t34.5 33.5t47.5 12.5t48 -12.5t35 -33t13 -46.5q0 -25 -13.5 -46t-35 -33.5t-47.5 -12.5zM255 565q15 0 26.5 12.5t11.5 30.5t-11.5 31t-26.5 13q-16 0 -27 -13t-11 -31t11 -30.5t27 -12.5z" />
    <glyph glyph-name="ogonek" unicode="&#x2db;" 
d="M383 -169l-25 -62q-37 8 -63.5 21t-41 32.5t-14.5 44.5q0 26 14.5 52.5t43 52t69.5 48.5l31 -20q-24 -19 -41.5 -39.5t-26.5 -39.5t-9 -35q0 -20 15.5 -34.5t47.5 -20.5z" />
    <glyph glyph-name="tilde" unicode="&#x2dc;" 
d="M380 674l50 -29q-21 -42 -42.5 -59.5t-51.5 -17.5q-25 0 -43 8.5t-32 20t-27.5 20t-29.5 8.5q-17 0 -30.5 -11t-24.5 -37l-54 25q15 37 41 59.5t65 22.5q23 0 40 -8.5t31 -19.5t28 -19.5t31 -8.5q16 0 26 10t23 36z" />
    <glyph glyph-name="hungarumlaut" unicode="&#x2dd;" 
d="M331 520l-53 32l87 152l69 -47zM176 520l-53 32l87 152l69 -47z" />
    <glyph glyph-name="gravecomb" unicode="&#x300;" horiz-adv-x="0" 
d="M254 506l-104 137l63 46l84 -155z" />
    <glyph glyph-name="acutecomb" unicode="&#x301;" horiz-adv-x="0" 
d="M255 506l-43 28l84 155l63 -46z" />
    <glyph glyph-name="uni0302" unicode="&#x302;" horiz-adv-x="0" 
d="M138 508l-44 38l141 140h28l141 -140l-44 -38l-111 107z" />
    <glyph glyph-name="tildecomb" unicode="&#x303;" horiz-adv-x="0" 
d="M380 674l50 -29q-21 -42 -42.5 -59.5t-51.5 -17.5q-25 0 -43 8.5t-32 20t-27.5 20t-29.5 8.5q-17 0 -30.5 -11t-24.5 -37l-54 25q15 37 41 59.5t65 22.5q23 0 40 -8.5t31 -19.5t28 -19.5t31 -8.5q16 0 26 10t23 36z" />
    <glyph glyph-name="uni0304" unicode="&#x304;" horiz-adv-x="0" 
d="M118 564v63h263v-63h-263z" />
    <glyph glyph-name="uni0306" unicode="&#x306;" horiz-adv-x="0" 
d="M345 659l58 -27q-23 -46 -60 -71.5t-85 -25.5q-47 0 -84.5 25.5t-60.5 71.5l58 27q17 -36 37.5 -53t49.5 -17q19 0 35 7.5t29 23t23 39.5z" />
    <glyph glyph-name="uni0307" unicode="&#x307;" horiz-adv-x="0" 
d="M254 549q-24 0 -41 17t-17 40q0 25 16.5 41t41.5 16q23 0 40.5 -17t17.5 -40t-17.5 -40t-40.5 -17z" />
    <glyph glyph-name="uni0308" unicode="&#x308;" horiz-adv-x="0" 
d="M162 559q-23 0 -40 16t-17 38t17 39t40 17t39.5 -16.5t16.5 -39.5q0 -22 -17 -38t-39 -16zM342 559q-23 0 -39.5 15.5t-16.5 38.5t16.5 39.5t39.5 16.5t39 -17t16 -39t-16.5 -38t-38.5 -16z" />
    <glyph glyph-name="hookabovecomb" unicode="&#x309;" horiz-adv-x="0" 
d="M331 634q0 -21 -9 -33.5t-20.5 -21.5t-21 -20t-9.5 -29v-8h-57v28q0 14 8.5 25t19.5 20t19.5 18t8.5 18q0 14 -9 21.5t-23 7.5q-15 0 -28 -6.5t-20 -27.5l-38 43q18 24 41 34t50 10q25 -1 45 -10.5t31.5 -27t11.5 -41.5z" />
    <glyph glyph-name="uni030A" unicode="&#x30a;" horiz-adv-x="0" 
d="M254 515q-26 0 -47.5 12.5t-34.5 33.5t-13 46t13 46t34.5 33.5t47.5 12.5t48 -12.5t35 -33t13 -46.5q0 -25 -13.5 -46t-35 -33.5t-47.5 -12.5zM255 565q15 0 26.5 12.5t11.5 30.5t-11.5 31t-26.5 13q-16 0 -27 -13t-11 -31t11 -30.5t27 -12.5z" />
    <glyph glyph-name="uni030B" unicode="&#x30b;" horiz-adv-x="0" 
d="M331 520l-53 32l87 152l69 -47zM176 520l-53 32l87 152l69 -47z" />
    <glyph glyph-name="uni030C" unicode="&#x30c;" horiz-adv-x="0" 
d="M143 693l111 -107l111 107l44 -39l-141 -139h-28l-141 139z" />
    <glyph glyph-name="uni030F" unicode="&#x30f;" horiz-adv-x="0" 
d="M195 506l-104 137l63 46l84 -155zM355 506l-104 137l63 46l84 -155z" />
    <glyph glyph-name="uni0311" unicode="&#x311;" horiz-adv-x="0" 
d="M169 525l-58 27q24 46 61 71.5t84 25.5q48 0 85.5 -25.5t59.5 -71.5l-58 -27q-16 36 -37 53t-50 17q-19 0 -34.5 -7.5t-28.5 -22.5t-24 -40z" />
    <glyph glyph-name="uni0312" unicode="&#x312;" horiz-adv-x="0" 
d="M268 822l43 -37q-28 -26 -45 -54.5t-17 -47.5q0 -10 7 -19t17.5 -17.5t17.5 -19.5t7 -26q0 -28 -18.5 -45.5t-46.5 -17.5q-30 0 -51.5 25t-21.5 64q0 21 6.5 43.5t20 47t34 50.5t47.5 54z" />
    <glyph glyph-name="uni031B" unicode="&#x31b;" horiz-adv-x="0" 
d="M488 548q0 -53 -8.5 -85t-30 -45.5t-60.5 -13.5v56q15 0 21.5 18t6.5 70h71z" />
    <glyph glyph-name="dotbelowcomb" unicode="&#x323;" horiz-adv-x="0" 
d="M239 -155q-24 0 -41 17t-17 40q0 25 16.5 41t41.5 16q23 0 40.5 -17t17.5 -40t-17.5 -40t-40.5 -17z" />
    <glyph glyph-name="uni0324" unicode="&#x324;" horiz-adv-x="0" 
d="M162 -171q-23 0 -40 16t-17 38t17 39t40 17t39.5 -16.5t16.5 -39.5q0 -22 -17 -38t-39 -16zM342 -171q-23 0 -39.5 15.5t-16.5 38.5t16.5 39.5t39.5 16.5t39 -17t16 -39t-16.5 -38t-38.5 -16z" />
    <glyph glyph-name="uni0326" unicode="&#x326;" horiz-adv-x="0" 
d="M211 -282l-38 34q24 23 40 48.5t16 41.5q0 13 -11 23.5t-22.5 22t-11.5 29.5q0 25 17 41t42 16q27 0 46.5 -22.5t19.5 -58.5q0 -25 -10.5 -52.5t-32.5 -58t-55 -64.5z" />
    <glyph glyph-name="uni0327" unicode="&#x327;" horiz-adv-x="0" 
d="M269 -200q-28 0 -55 8t-53 27l29 50q22 -18 44 -25.5t47 -7.5q24 0 36.5 8.5t12.5 23.5t-13.5 22.5t-36.5 7.5h-36l11 86h56l-5 -42q28 -2 46.5 -12t27.5 -24.5t9 -30.5q0 -37 -30.5 -64t-89.5 -27z" />
    <glyph glyph-name="uni0328" unicode="&#x328;" horiz-adv-x="0" 
d="M283 -169l-25 -62q-37 8 -63.5 21t-41 32.5t-14.5 44.5q0 26 14.5 52.5t43 52t69.5 48.5l31 -20q-24 -19 -41.5 -39.5t-26.5 -39.5t-9 -35q0 -20 15.5 -34.5t47.5 -20.5z" />
    <glyph glyph-name="uni032E" unicode="&#x32e;" horiz-adv-x="0" 
d="M345 -56l58 -27q-23 -46 -60 -71.5t-85 -25.5q-47 0 -84.5 25.5t-60.5 71.5l58 27q17 -36 37.5 -53t49.5 -17q19 0 35 7.5t29 23t23 39.5z" />
    <glyph glyph-name="uni0331" unicode="&#x331;" horiz-adv-x="0" 
d="M118 -156v63h263v-63h-263z" />
    <glyph glyph-name="uni0335" unicode="&#x335;" horiz-adv-x="0" 
d="M119 286v61h271v-61h-271z" />
    <glyph glyph-name="uni0336" unicode="&#x336;" horiz-adv-x="0" 
d="M109 278v76h284v-76h-284z" />
    <glyph glyph-name="uni0375" unicode="&#x375;" 
d="M223 -76h-50l63 184h79z" />
    <glyph glyph-name="uni1E08" unicode="&#x1e08;" 
d="M283 -10q-51 0 -95.5 18.5t-78 57.5t-52.5 99t-19 143q0 73 14 127.5t38.5 92t56 59.5t66 32t69.5 10q69 0 117.5 -33t73.5 -89l-64 -37l-9 -4l-3 7q2 8 -1 15t-11 21q-24 31 -49.5 42t-53.5 11q-35 0 -65 -16.5t-52 -48.5t-33.5 -78.5t-11.5 -105.5q0 -57 12.5 -103.5
t34.5 -79.5t51.5 -51t63.5 -18q25 0 47.5 8t41.5 25t33 40l60 -42q-31 -52 -75 -77t-106 -25v0zM276 -200q-28 0 -55 8t-53 27l29 50q22 -18 44 -25.5t47 -7.5q24 0 36.5 8.5t12.5 23.5t-13.5 22.5t-36.5 7.5h-36l11 86h56l-5 -42q28 -2 46.5 -12t27.5 -24.5t9 -30.5
q0 -37 -30.5 -64t-89.5 -27zM196 658l-24 46l155 91l42 -75z" />
    <glyph glyph-name="uni1E09" unicode="&#x1e09;" 
d="M283 -11q-51 0 -93.5 18t-73.5 50t-48.5 75.5t-17.5 95.5q0 51 17.5 95t48.5 76.5t73.5 51t92.5 18.5q59 0 104.5 -23t73.5 -63l-51 -53l-6 -7l-6 6q0 8 -3 15.5t-15 19.5q-21 19 -45.5 26.5t-56.5 7.5q-27 0 -52 -11.5t-44.5 -33t-31 -52.5t-11.5 -69t11.5 -68.5
t31.5 -53t47.5 -35t58.5 -12.5q22 0 43 6t40 18.5t35 31.5l49 -56q-35 -38 -79 -56t-92 -18v0zM281 -200q-28 0 -55 8t-53 27l29 50q22 -18 44 -25.5t47 -7.5q24 0 36.5 8.5t12.5 23.5t-13.5 22.5t-36.5 7.5h-36l11 86h56l-5 -42q28 -2 46.5 -12t27.5 -24.5t9 -30.5
q0 -37 -30.5 -64t-89.5 -27zM273 506l-43 28l84 155l63 -46z" />
    <glyph glyph-name="uni1E0C" unicode="&#x1e0c;" 
d="M50 -1v624h150q55 0 92 -10t63 -28.5t47 -46.5t34.5 -63.5t20.5 -76.5t7 -90q-2 -72 -18.5 -129t-49 -97t-83.5 -61.5t-125 -21.5h-138zM131 65h54q70 0 113 28.5t63.5 82.5t19.5 129q0 77 -18.5 133t-58.5 86t-108 30h-65v-489zM246 -155q-24 0 -41 17t-17 40
q0 25 16.5 41t41.5 16q23 0 40.5 -17t17.5 -40t-17.5 -40t-40.5 -17z" />
    <glyph glyph-name="uni1E0D" unicode="&#x1e0d;" 
d="M231 -10q-36 0 -70 15t-61 45t-43 76t-16 108t16.5 106.5t44 74t61.5 43.5t71 14q29 0 53.5 -9t43 -24.5t29.5 -37.5v266h81h10v-8q-6 -6 -7.5 -13t-1.5 -24l1 -554q0 -17 1.5 -34t8.5 -34h-84q-5 12 -7 22t-2.5 20.5t-0.5 21.5q-14 -23 -33 -40t-43 -25.5t-52 -8.5v0z
M245 62q30 0 51 12t34 35t19.5 54.5t6.5 68.5q0 51 -12 89.5t-38 60t-66 21.5q-28 0 -50 -11t-36 -32.5t-21.5 -51t-7.5 -66.5q0 -55 14.5 -95t41.5 -62.5t64 -22.5v0zM248 -155q-24 0 -41 17t-17 40q0 25 16.5 41t41.5 16q23 0 40.5 -17t17.5 -40t-17.5 -40t-40.5 -17z" />
    <glyph glyph-name="uni1E0E" unicode="&#x1e0e;" 
d="M50 -1v624h150q55 0 92 -10t63 -28.5t47 -46.5t34.5 -63.5t20.5 -76.5t7 -90q-2 -72 -18.5 -129t-49 -97t-83.5 -61.5t-125 -21.5h-138zM131 65h54q70 0 113 28.5t63.5 82.5t19.5 129q0 77 -18.5 133t-58.5 86t-108 30h-65v-489zM118 -156v63h263v-63h-263z" />
    <glyph glyph-name="uni1E0F" unicode="&#x1e0f;" 
d="M231 -10q-36 0 -70 15t-61 45t-43 76t-16 108t16.5 106.5t44 74t61.5 43.5t71 14q29 0 53.5 -9t43 -24.5t29.5 -37.5v266h81h10v-8q-6 -6 -7.5 -13t-1.5 -24l1 -554q0 -17 1.5 -34t8.5 -34h-84q-5 12 -7 22t-2.5 20.5t-0.5 21.5q-14 -23 -33 -40t-43 -25.5t-52 -8.5v0z
M245 62q30 0 51 12t34 35t19.5 54.5t6.5 68.5q0 51 -12 89.5t-38 60t-66 21.5q-28 0 -50 -11t-36 -32.5t-21.5 -51t-7.5 -66.5q0 -55 14.5 -95t41.5 -62.5t64 -22.5v0zM120 -156v63h263v-63h-263z" />
    <glyph glyph-name="uni1E14" unicode="&#x1e14;" 
d="M56 0v624h390v-72h-309v-190h255v-74h-255v-216h306v-72h-387zM130 728v63h263v-63h-263zM310 810l-173 62l42 75l156 -91z" />
    <glyph glyph-name="uni1E15" unicode="&#x1e15;" 
d="M272 -10q-50 0 -91.5 15.5t-72 45.5t-46.5 75t-16 102q0 58 16.5 103t45.5 76t68 47.5t83 16.5q39 0 74 -13.5t60.5 -40.5t40.5 -68.5t15 -97.5q0 -9 -0.5 -19.5t-1.5 -18.5h-319q2 -41 14.5 -70.5t32.5 -48t45.5 -27.5t54.5 -9q23 0 43.5 5t38.5 16t33 27l46 -44
q-20 -24 -45.5 -40.5t-55 -24t-63.5 -7.5zM131 278h233q0 30 -8 53t-22 40t-34.5 25.5t-45.5 8.5q-23 0 -43 -7.5t-36.5 -23.5t-28 -39.5t-15.5 -56.5zM128 564v63h263v-63h-263zM253 658l-104 137l63 46l84 -155z" />
    <glyph glyph-name="uni1E16" unicode="&#x1e16;" 
d="M56 0v624h390v-72h-309v-190h255v-74h-255v-216h306v-72h-387zM130 728v63h263v-63h-263zM187 810l-24 46l155 91l42 -75z" />
    <glyph glyph-name="uni1E17" unicode="&#x1e17;" 
d="M272 -10q-50 0 -91.5 15.5t-72 45.5t-46.5 75t-16 102q0 58 16.5 103t45.5 76t68 47.5t83 16.5q39 0 74 -13.5t60.5 -40.5t40.5 -68.5t15 -97.5q0 -9 -0.5 -19.5t-1.5 -18.5h-319q2 -41 14.5 -70.5t32.5 -48t45.5 -27.5t54.5 -9q23 0 43.5 5t38.5 16t33 27l46 -44
q-20 -24 -45.5 -40.5t-55 -24t-63.5 -7.5zM131 278h233q0 30 -8 53t-22 40t-34.5 25.5t-45.5 8.5q-23 0 -43 -7.5t-36.5 -23.5t-28 -39.5t-15.5 -56.5zM128 564v63h263v-63h-263zM250 658l-43 28l84 155l63 -46z" />
    <glyph glyph-name="uni1E1C" unicode="&#x1e1c;" 
d="M56 0v624h390v-72h-309v-190h255v-74h-255v-216h306v-72h-387zM248 -200q-28 0 -55 8t-53 27l29 50q22 -18 44 -25.5t47 -7.5q24 0 36.5 8.5t12.5 23.5t-13.5 22.5t-36.5 7.5h-36l11 86h56l-5 -42q28 -2 46.5 -12t27.5 -24.5t9 -30.5q0 -37 -30.5 -64t-89.5 -27zM348 792
l58 -27q-23 -46 -60 -71.5t-85 -25.5q-47 0 -84.5 25.5t-60.5 71.5l58 27q17 -36 37.5 -53t49.5 -17q19 0 35 7.5t29 23t23 39.5z" />
    <glyph glyph-name="uni1E1D" unicode="&#x1e1d;" 
d="M272 -10q-50 0 -91.5 15.5t-72 45.5t-46.5 75t-16 102q0 58 16.5 103t45.5 76t68 47.5t83 16.5q39 0 74 -13.5t60.5 -40.5t40.5 -68.5t15 -97.5q0 -9 -0.5 -19.5t-1.5 -18.5h-319q2 -41 14.5 -70.5t32.5 -48t45.5 -27.5t54.5 -9q23 0 43.5 5t38.5 16t33 27l46 -44
q-20 -24 -45.5 -40.5t-55 -24t-63.5 -7.5zM131 278h233q0 30 -8 53t-22 40t-34.5 25.5t-45.5 8.5q-23 0 -43 -7.5t-36.5 -23.5t-28 -39.5t-15.5 -56.5zM274 -200q-28 0 -55 8t-53 27l29 50q22 -18 44 -25.5t47 -7.5q24 0 36.5 8.5t12.5 23.5t-13.5 22.5t-36.5 7.5h-36l11 86
h56l-5 -42q28 -2 46.5 -12t27.5 -24.5t9 -30.5q0 -37 -30.5 -64t-89.5 -27zM347 659l58 -27q-23 -46 -60 -71.5t-85 -25.5q-47 0 -84.5 25.5t-60.5 71.5l58 27q17 -36 37.5 -53t49.5 -17q19 0 35 7.5t29 23t23 39.5z" />
    <glyph glyph-name="uni1E20" unicode="&#x1e20;" 
d="M277 -10q-76 0 -131 39t-84.5 110.5t-29.5 166.5q0 80 15.5 136.5t42.5 93.5t59.5 58t65 29t59.5 8q39 0 75 -13.5t66 -36.5t47 -56l-54 -48l-8 -7l-5 6q1 8 -2 15t-14 20q-14 16 -29 26.5t-33.5 15.5t-41.5 5q-26 0 -49.5 -7t-43.5 -24.5t-35 -45t-23 -68t-8 -94.5
q0 -63 11 -111t32.5 -80.5t51 -49t66.5 -16.5q13 0 27.5 1.5t29 6t28 11.5t25.5 16v137h-110v72h187v-251q-44 -33 -91.5 -49t-95.5 -16v0zM141 728v63h263v-63h-263z" />
    <glyph glyph-name="uni1E21" unicode="&#x1e21;" 
d="M244 -174q-48 0 -87 8t-66 23t-41.5 37t-14.5 51q0 27 12 48.5t31.5 36.5t43.5 23l37 -19q-17 -11 -28.5 -21.5t-17 -24t-5.5 -32.5q0 -15 10 -27.5t28 -20.5t44 -12.5t58 -4.5q43 0 71 8.5t42 24t14 34.5q0 20 -8 32.5t-32 18.5t-70 6q-34 0 -64 3t-54.5 10t-41.5 17.5
t-26.5 26.5t-9.5 37q0 28 16.5 52t42.5 46l40 -28q-10 -11 -16.5 -18.5t-9.5 -14.5t-3 -16q0 -15 13.5 -24t46 -13.5t86.5 -4.5q50 0 82 -9t50 -25.5t25.5 -38t7.5 -46.5q0 -28 -11.5 -53.5t-36 -45.5t-63.5 -32t-95 -12zM227 156q-49 0 -86 21t-57.5 57.5t-20.5 81.5
q0 44 20.5 80t57.5 58t86 22q50 0 86.5 -22t57 -58t20.5 -80q0 -45 -20.5 -81.5t-57 -57.5t-86.5 -21zM227 223q27 0 47.5 12.5t33 33.5t12.5 47t-12.5 46.5t-33 33t-47.5 12.5q-26 0 -47 -12.5t-33 -33.5t-12 -46t12 -46.5t33 -34t47 -12.5zM364 382l-33 40q29 27 62 40
t75 10l10 -66q-32 4 -61 -1t-53 -23zM96 564v63h263v-63h-263z" />
    <glyph glyph-name="uni1E24" unicode="&#x1e24;" 
d="M46 623h86h10v-8q-6 -6 -7.5 -13t-1.5 -24v-217h226v262h86h10v-8q-6 -6 -7.5 -13t-1.5 -24v-578h-87v291h-226v-291h-87v623zM248 -155q-24 0 -41 17t-17 40q0 25 16.5 41t41.5 16q23 0 40.5 -17t17.5 -40t-17.5 -40t-40.5 -17z" />
    <glyph glyph-name="uni1E25" unicode="&#x1e25;" 
d="M67 667h84h9v-8q-5 -6 -6.5 -13t-1.5 -24v-237q17 27 41 46t50.5 29.5t53.5 10.5q42 0 74.5 -19.5t50 -62t17.5 -111.5v-278h-84v276q0 46 -10 73t-27.5 39t-40.5 12q-18 0 -36 -6t-34 -17.5t-28.5 -28t-19.5 -37.5t-7 -47v-264h-85v667zM248 -155q-24 0 -41 17t-17 40
q0 25 16.5 41t41.5 16q23 0 40.5 -17t17.5 -40t-17.5 -40t-40.5 -17z" />
    <glyph glyph-name="uni1E2A" unicode="&#x1e2a;" 
d="M46 623h86h10v-8q-6 -6 -7.5 -13t-1.5 -24v-217h226v262h86h10v-8q-6 -6 -7.5 -13t-1.5 -24v-578h-87v291h-226v-291h-87v623zM347 -56l58 -27q-23 -46 -60 -71.5t-85 -25.5q-47 0 -84.5 25.5t-60.5 71.5l58 27q17 -36 37.5 -53t49.5 -17q19 0 35 7.5t29 23t23 39.5z" />
    <glyph glyph-name="uni1E2B" unicode="&#x1e2b;" 
d="M67 667h84h9v-8q-5 -6 -6.5 -13t-1.5 -24v-237q17 27 41 46t50.5 29.5t53.5 10.5q42 0 74.5 -19.5t50 -62t17.5 -111.5v-278h-84v276q0 46 -10 73t-27.5 39t-40.5 12q-18 0 -36 -6t-34 -17.5t-28.5 -28t-19.5 -37.5t-7 -47v-264h-85v667zM347 -56l58 -27
q-23 -46 -60 -71.5t-85 -25.5q-47 0 -84.5 25.5t-60.5 71.5l58 27q17 -36 37.5 -53t49.5 -17q19 0 35 7.5t29 23t23 39.5z" />
    <glyph glyph-name="uni1E2E" unicode="&#x1e2e;" 
d="M77 0v70h123v483h-116v70h321v-70h-123v-484h129v-69h-334zM150 686q-22 0 -39 16.5t-17 38.5t17 39t39 17q24 0 40.5 -17t16.5 -39t-17 -38.5t-40 -16.5zM330 686q-22 0 -38.5 16t-16.5 39t16.5 39.5t38.5 16.5q24 0 40 -17t16 -39t-16.5 -38.5t-39.5 -16.5zM165 805
l-24 46l155 91l42 -75z" />
    <glyph glyph-name="uni1E2F" unicode="&#x1e2f;" 
d="M95 0v68h116v323h-110v69h196v-392h106v-68h-308zM161 559q-23 0 -40 16t-17 38t17 39t40 17t39.5 -16.5t16.5 -39.5q0 -22 -17 -38t-39 -16zM341 559q-23 0 -39.5 15.5t-16.5 38.5t16.5 39.5t39.5 16.5t39 -17t16 -39t-16.5 -38t-38.5 -16zM241 655l-43 28l84 155
l63 -46z" />
    <glyph glyph-name="uni1E36" unicode="&#x1e36;" 
d="M63 623h86h10v-8q-6 -6 -7.5 -13t-1.5 -24v-507h295v-71h-382v623zM248 -155q-24 0 -41 17t-17 40q0 25 16.5 41t41.5 16q23 0 40.5 -17t17.5 -40t-17.5 -40t-40.5 -17z" />
    <glyph glyph-name="uni1E37" unicode="&#x1e37;" 
d="M74 0v68h133v531h-127v68h214v-599h133v-68h-353zM248 -155q-24 0 -41 17t-17 40q0 25 16.5 41t41.5 16q23 0 40.5 -17t17.5 -40t-17.5 -40t-40.5 -17z" />
    <glyph glyph-name="uni1E3A" unicode="&#x1e3a;" 
d="M63 623h86h10v-8q-6 -6 -7.5 -13t-1.5 -24v-507h295v-71h-382v623zM120 -156v63h263v-63h-263z" />
    <glyph glyph-name="uni1E3B" unicode="&#x1e3b;" 
d="M74 0v68h133v531h-127v68h214v-599h133v-68h-353zM120 -156v63h263v-63h-263z" />
    <glyph glyph-name="uni1E42" unicode="&#x1e42;" 
d="M38 0v623h70l143 -299l145 300h68v-624h-77v458l-122 -243h-37l-114 241v-456h-76zM248 -155q-24 0 -41 17t-17 40q0 25 16.5 41t41.5 16q23 0 40.5 -17t17.5 -40t-17.5 -40t-40.5 -17z" />
    <glyph glyph-name="uni1E43" unicode="&#x1e43;" 
d="M35 0v460h76v-42q11 17 25 28.5t30.5 18t33.5 6.5q19 0 35.5 -7.5t28 -22t16.5 -34.5q10 20 25 34t35 22t42 8q24 0 41 -9t28.5 -25t16.5 -39t4 -50v-348h-77v322q0 38 -4.5 56.5t-13 24t-20.5 5.5q-17 0 -32 -15.5t-24.5 -40t-9.5 -51.5v-301h-75v317q0 54 -9.5 72
t-34.5 18q-11 0 -21.5 -7t-19 -19.5t-14 -32t-5.5 -43.5v-305h-77zM248 -155q-24 0 -41 17t-17 40q0 25 16.5 41t41.5 16q23 0 40.5 -17t17.5 -40t-17.5 -40t-40.5 -17z" />
    <glyph glyph-name="uni1E44" unicode="&#x1e44;" 
d="M46 623h84l245 -445l-2 445h78h10v-8q-6 -6 -7.5 -13t-1.5 -24v-578h-72l-256 472v-472h-78v623zM249 689q-24 0 -41 17t-17 40q0 25 16.5 41t41.5 16q23 0 40.5 -17t17.5 -40t-17.5 -40t-40.5 -17z" />
    <glyph glyph-name="uni1E45" unicode="&#x1e45;" 
d="M66 0v460h85v-76q17 26 40 45.5t50.5 30.5t57.5 11q39 0 70 -19.5t50 -61.5t19 -112v-278h-84v276q0 45 -10 72t-28 39.5t-41 12.5q-21 0 -43 -9.5t-40.5 -26.5t-29.5 -41.5t-11 -54.5v-268h-85zM263 549q-24 0 -41 17t-17 40q0 25 16.5 41t41.5 16q23 0 40.5 -17
t17.5 -40t-17.5 -40t-40.5 -17z" />
    <glyph glyph-name="uni1E46" unicode="&#x1e46;" 
d="M46 623h84l245 -445l-2 445h78h10v-8q-6 -6 -7.5 -13t-1.5 -24v-578h-72l-256 472v-472h-78v623zM248 -155q-24 0 -41 17t-17 40q0 25 16.5 41t41.5 16q23 0 40.5 -17t17.5 -40t-17.5 -40t-40.5 -17z" />
    <glyph glyph-name="uni1E47" unicode="&#x1e47;" 
d="M66 0v460h85v-76q17 26 40 45.5t50.5 30.5t57.5 11q39 0 70 -19.5t50 -61.5t19 -112v-278h-84v276q0 45 -10 72t-28 39.5t-41 12.5q-21 0 -43 -9.5t-40.5 -26.5t-29.5 -41.5t-11 -54.5v-268h-85zM258 -155q-24 0 -41 17t-17 40q0 25 16.5 41t41.5 16q23 0 40.5 -17
t17.5 -40t-17.5 -40t-40.5 -17z" />
    <glyph glyph-name="uni1E48" unicode="&#x1e48;" 
d="M46 623h84l245 -445l-2 445h78h10v-8q-6 -6 -7.5 -13t-1.5 -24v-578h-72l-256 472v-472h-78v623zM120 -156v63h263v-63h-263z" />
    <glyph glyph-name="uni1E49" unicode="&#x1e49;" 
d="M66 0v460h85v-76q17 26 40 45.5t50.5 30.5t57.5 11q39 0 70 -19.5t50 -61.5t19 -112v-278h-84v276q0 45 -10 72t-28 39.5t-41 12.5q-21 0 -43 -9.5t-40.5 -26.5t-29.5 -41.5t-11 -54.5v-268h-85zM130 -156v63h263v-63h-263z" />
    <glyph glyph-name="uni1E4C" unicode="&#x1e4c;" 
d="M251 -11q-73 0 -123.5 37t-77 109t-26.5 174q0 100 26.5 171.5t77 110t123.5 38.5t123 -38.5t76.5 -110t26.5 -171.5q0 -102 -26.5 -174t-76.5 -109t-123 -37zM251 60q44 0 75.5 28.5t48 84t16.5 136.5q0 77 -16.5 132.5t-48 85.5t-75.5 30t-76 -30t-48.5 -85.5
t-16.5 -132.5q0 -81 16.5 -136.5t48.5 -84t76 -28.5zM374 791l50 -29q-21 -42 -42.5 -59.5t-51.5 -17.5q-25 0 -43 8.5t-32 20t-27.5 20t-29.5 8.5q-17 0 -30.5 -11t-24.5 -37l-54 25q15 37 41 59.5t65 22.5q23 0 40 -8.5t31 -19.5t28 -19.5t31 -8.5q16 0 26 10t23 36z
M176 817l-24 46l155 91l42 -75z" />
    <glyph glyph-name="uni1E4D" unicode="&#x1e4d;" 
d="M250 -9q-62 0 -110.5 30.5t-76.5 84.5t-28 124t28 124t76.5 85t110.5 31t110.5 -31t76.5 -85t28 -124t-28 -124t-76.5 -84.5t-110.5 -30.5zM250 61q37 0 65 22t44.5 60t16.5 88t-16.5 88t-44.5 59.5t-65 21.5q-36 0 -64.5 -21.5t-45 -59.5t-16.5 -88t16 -88t44.5 -60
t65.5 -22zM370 674l50 -29q-21 -42 -42.5 -59.5t-51.5 -17.5q-25 0 -43 8.5t-32 20t-27.5 20t-29.5 8.5q-17 0 -30.5 -11t-24.5 -37l-54 25q15 37 41 59.5t65 22.5q23 0 40 -8.5t31 -19.5t28 -19.5t31 -8.5q16 0 26 10t23 36zM241 686l-43 28l84 155l63 -46z" />
    <glyph glyph-name="uni1E4E" unicode="&#x1e4e;" 
d="M251 -11q-73 0 -123.5 37t-77 109t-26.5 174q0 100 26.5 171.5t77 110t123.5 38.5t123 -38.5t76.5 -110t26.5 -171.5q0 -102 -26.5 -174t-76.5 -109t-123 -37zM251 60q44 0 75.5 28.5t48 84t16.5 136.5q0 77 -16.5 132.5t-48 85.5t-75.5 30t-76 -30t-48.5 -85.5
t-16.5 -132.5q0 -81 16.5 -136.5t48.5 -84t76 -28.5zM374 791l50 -29q-21 -42 -42.5 -59.5t-51.5 -17.5q-25 0 -43 8.5t-32 20t-27.5 20t-29.5 8.5q-17 0 -30.5 -11t-24.5 -37l-54 25q15 37 41 59.5t65 22.5q23 0 40 -8.5t31 -19.5t28 -19.5t31 -8.5q16 0 26 10t23 36z
M160 845q-22 0 -39 16.5t-17 38.5t17 39t39 17q24 0 40.5 -17t16.5 -39t-17 -38.5t-40 -16.5zM340 845q-22 0 -38.5 16t-16.5 39t16.5 39.5t38.5 16.5q24 0 40 -17t16 -39t-16.5 -38.5t-39.5 -16.5z" />
    <glyph glyph-name="uni1E4F" unicode="&#x1e4f;" 
d="M250 -9q-62 0 -110.5 30.5t-76.5 84.5t-28 124t28 124t76.5 85t110.5 31t110.5 -31t76.5 -85t28 -124t-28 -124t-76.5 -84.5t-110.5 -30.5zM250 61q37 0 65 22t44.5 60t16.5 88t-16.5 88t-44.5 59.5t-65 21.5q-36 0 -64.5 -21.5t-45 -59.5t-16.5 -88t16 -88t44.5 -60
t65.5 -22zM370 674l50 -29q-21 -42 -42.5 -59.5t-51.5 -17.5q-25 0 -43 8.5t-32 20t-27.5 20t-29.5 8.5q-17 0 -30.5 -11t-24.5 -37l-54 25q15 37 41 59.5t65 22.5q23 0 40 -8.5t31 -19.5t28 -19.5t31 -8.5q16 0 26 10t23 36zM161 739q-23 0 -40 16t-17 38t17 39t40 17
t39.5 -16.5t16.5 -39.5q0 -22 -17 -38t-39 -16zM341 739q-23 0 -39.5 15.5t-16.5 38.5t16.5 39.5t39.5 16.5t39 -17t16 -39t-16.5 -38t-38.5 -16z" />
    <glyph glyph-name="uni1E50" unicode="&#x1e50;" 
d="M251 -11q-73 0 -123.5 37t-77 109t-26.5 174q0 100 26.5 171.5t77 110t123.5 38.5t123 -38.5t76.5 -110t26.5 -171.5q0 -102 -26.5 -174t-76.5 -109t-123 -37zM251 60q44 0 75.5 28.5t48 84t16.5 136.5q0 77 -16.5 132.5t-48 85.5t-75.5 30t-76 -30t-48.5 -85.5
t-16.5 -132.5q0 -81 16.5 -136.5t48.5 -84t76 -28.5zM119 729v63h263v-63h-263zM300 811l-173 62l42 75l156 -91z" />
    <glyph glyph-name="uni1E51" unicode="&#x1e51;" 
d="M250 -9q-62 0 -110.5 30.5t-76.5 84.5t-28 124t28 124t76.5 85t110.5 31t110.5 -31t76.5 -85t28 -124t-28 -124t-76.5 -84.5t-110.5 -30.5zM250 61q37 0 65 22t44.5 60t16.5 88t-16.5 88t-44.5 59.5t-65 21.5q-36 0 -64.5 -21.5t-45 -59.5t-16.5 -88t16 -88t44.5 -60
t65.5 -22zM119 564v63h263v-63h-263zM244 658l-104 137l63 46l84 -155z" />
    <glyph glyph-name="uni1E52" unicode="&#x1e52;" 
d="M251 -11q-73 0 -123.5 37t-77 109t-26.5 174q0 100 26.5 171.5t77 110t123.5 38.5t123 -38.5t76.5 -110t26.5 -171.5q0 -102 -26.5 -174t-76.5 -109t-123 -37zM251 60q44 0 75.5 28.5t48 84t16.5 136.5q0 77 -16.5 132.5t-48 85.5t-75.5 30t-76 -30t-48.5 -85.5
t-16.5 -132.5q0 -81 16.5 -136.5t48.5 -84t76 -28.5zM119 729v63h263v-63h-263zM176 811l-24 46l155 91l42 -75z" />
    <glyph glyph-name="uni1E53" unicode="&#x1e53;" 
d="M250 -9q-62 0 -110.5 30.5t-76.5 84.5t-28 124t28 124t76.5 85t110.5 31t110.5 -31t76.5 -85t28 -124t-28 -124t-76.5 -84.5t-110.5 -30.5zM250 61q37 0 65 22t44.5 60t16.5 88t-16.5 88t-44.5 59.5t-65 21.5q-36 0 -64.5 -21.5t-45 -59.5t-16.5 -88t16 -88t44.5 -60
t65.5 -22zM119 564v63h263v-63h-263zM240 658l-43 28l84 155l63 -46z" />
    <glyph glyph-name="uni1E5A" unicode="&#x1e5a;" 
d="M52 0v623h189q75 0 121.5 -22t68 -62.5t21.5 -95.5q0 -34 -15 -69t-43 -61t-66 -38l141 -275h-92l-134 270h-105v-270h-86zM138 342h111q60 0 88 27.5t28 72.5q0 29 -12 52.5t-38 37.5t-66 14h-111v-204zM248 -155q-24 0 -41 17t-17 40q0 25 16.5 41t41.5 16
q23 0 40.5 -17t17.5 -40t-17.5 -40t-40.5 -17z" />
    <glyph glyph-name="uni1E5B" unicode="&#x1e5b;" 
d="M109 460h89l-2 -132l-11 12q6 31 20.5 55t35 41t45.5 26t52 9q37 0 67.5 -12.5t55.5 -38.5l-37 -69l-4 -9l-7 4q-3 8 -6.5 15.5t-16.5 17.5q-15 11 -29 15t-32 4q-24 0 -48 -9t-43.5 -28t-30.5 -48.5t-11 -69.5v-244h-87v461zM274 -155q-24 0 -41 17t-17 40q0 25 16.5 41
t41.5 16q23 0 40.5 -17t17.5 -40t-17.5 -40t-40.5 -17z" />
    <glyph glyph-name="uni1E5E" unicode="&#x1e5e;" 
d="M52 0v623h189q75 0 121.5 -22t68 -62.5t21.5 -95.5q0 -34 -15 -69t-43 -61t-66 -38l141 -275h-92l-134 270h-105v-270h-86zM138 342h111q60 0 88 27.5t28 72.5q0 29 -12 52.5t-38 37.5t-66 14h-111v-204zM120 -156v63h263v-63h-263z" />
    <glyph glyph-name="uni1E5F" unicode="&#x1e5f;" 
d="M109 460h89l-2 -132l-11 12q6 31 20.5 55t35 41t45.5 26t52 9q37 0 67.5 -12.5t55.5 -38.5l-37 -69l-4 -9l-7 4q-3 8 -6.5 15.5t-16.5 17.5q-15 11 -29 15t-32 4q-24 0 -48 -9t-43.5 -28t-30.5 -48.5t-11 -69.5v-244h-87v461zM146 -156v63h263v-63h-263z" />
    <glyph glyph-name="uni1E60" unicode="&#x1e60;" 
d="M245 -10q-61 0 -111.5 19.5t-87.5 57.5l43 73l4 9l7 -4q2 -7 5.5 -15.5t14.5 -20.5q26 -21 59 -33.5t74 -12.5q27 0 49 7.5t38.5 20.5t25.5 31t9 39q0 16 -3.5 29t-12.5 24t-24 22t-39 24t-58 28q-64 26 -101.5 55t-53.5 62t-16 71q0 46 24 81t67.5 55t101.5 20
q36 0 68.5 -9.5t60.5 -26.5t50 -43l-48 -60l-6 -8l-7 5q-1 8 -4 16t-14 20q-22 21 -47 28.5t-60 7.5q-23 0 -41.5 -6t-31.5 -18t-20.5 -26.5t-7.5 -30.5t4 -28.5t13 -24.5t25.5 -24.5t42 -25t61.5 -27.5q47 -20 78 -39t48.5 -40.5t25.5 -46t8 -55.5q0 -43 -22 -85t-69 -68.5
t-122 -26.5v0zM258 689q-24 0 -41 17t-17 40q0 25 16.5 41t41.5 16q23 0 40.5 -17t17.5 -40t-17.5 -40t-40.5 -17z" />
    <glyph glyph-name="uni1E61" unicode="&#x1e61;" 
d="M254 -10q-40 0 -76 7.5t-67 24t-58 40.5l43 76l6 9l6 -4q3 -8 5.5 -16.5t13.5 -20.5q23 -21 53 -34t76 -13q34 0 57.5 8.5t36 23t12.5 34.5q0 14 -6 24.5t-19 19.5t-35 18.5t-53 18.5q-51 15 -89.5 34.5t-59.5 46.5t-21 62q0 37 20.5 64t59 42.5t93.5 15.5q31 0 57 -4.5
t48.5 -13.5t42 -22.5t36.5 -31.5l-46 -59l-7 -8l-5 5q-1 8 -4.5 15.5t-15.5 18.5q-22 17 -49.5 26t-54.5 9q-38 0 -65.5 -13t-27.5 -40q0 -15 11 -28t38 -26t76 -26q56 -17 91 -36t51 -44t16 -59q0 -38 -21 -71.5t-63.5 -53t-105.5 -19.5v0zM254 549q-24 0 -41 17t-17 40
q0 25 16.5 41t41.5 16q23 0 40.5 -17t17.5 -40t-17.5 -40t-40.5 -17z" />
    <glyph glyph-name="uni1E62" unicode="&#x1e62;" 
d="M245 -10q-61 0 -111.5 19.5t-87.5 57.5l43 73l4 9l7 -4q2 -7 5.5 -15.5t14.5 -20.5q26 -21 59 -33.5t74 -12.5q27 0 49 7.5t38.5 20.5t25.5 31t9 39q0 16 -3.5 29t-12.5 24t-24 22t-39 24t-58 28q-64 26 -101.5 55t-53.5 62t-16 71q0 46 24 81t67.5 55t101.5 20
q36 0 68.5 -9.5t60.5 -26.5t50 -43l-48 -60l-6 -8l-7 5q-1 8 -4 16t-14 20q-22 21 -47 28.5t-60 7.5q-23 0 -41.5 -6t-31.5 -18t-20.5 -26.5t-7.5 -30.5t4 -28.5t13 -24.5t25.5 -24.5t42 -25t61.5 -27.5q47 -20 78 -39t48.5 -40.5t25.5 -46t8 -55.5q0 -43 -22 -85t-69 -68.5
t-122 -26.5v0zM247 -155q-24 0 -41 17t-17 40q0 25 16.5 41t41.5 16q23 0 40.5 -17t17.5 -40t-17.5 -40t-40.5 -17z" />
    <glyph glyph-name="uni1E63" unicode="&#x1e63;" 
d="M254 -10q-40 0 -76 7.5t-67 24t-58 40.5l43 76l6 9l6 -4q3 -8 5.5 -16.5t13.5 -20.5q23 -21 53 -34t76 -13q34 0 57.5 8.5t36 23t12.5 34.5q0 14 -6 24.5t-19 19.5t-35 18.5t-53 18.5q-51 15 -89.5 34.5t-59.5 46.5t-21 62q0 37 20.5 64t59 42.5t93.5 15.5q31 0 57 -4.5
t48.5 -13.5t42 -22.5t36.5 -31.5l-46 -59l-7 -8l-5 5q-1 8 -4.5 15.5t-15.5 18.5q-22 17 -49.5 26t-54.5 9q-38 0 -65.5 -13t-27.5 -40q0 -15 11 -28t38 -26t76 -26q56 -17 91 -36t51 -44t16 -59q0 -38 -21 -71.5t-63.5 -53t-105.5 -19.5v0zM239 -155q-24 0 -41 17t-17 40
q0 25 16.5 41t41.5 16q23 0 40.5 -17t17.5 -40t-17.5 -40t-40.5 -17z" />
    <glyph glyph-name="uni1E64" unicode="&#x1e64;" 
d="M245 -10q-61 0 -111.5 19.5t-87.5 57.5l43 73l4 9l7 -4q2 -7 5.5 -15.5t14.5 -20.5q26 -21 59 -33.5t74 -12.5q27 0 49 7.5t38.5 20.5t25.5 31t9 39q0 16 -3.5 29t-12.5 24t-24 22t-39 24t-58 28q-64 26 -101.5 55t-53.5 62t-16 71q0 46 24 81t67.5 55t101.5 20
q36 0 68.5 -9.5t60.5 -26.5t50 -43l-48 -60l-6 -8l-7 5q-1 8 -4 16t-14 20q-22 21 -47 28.5t-60 7.5q-23 0 -41.5 -6t-31.5 -18t-20.5 -26.5t-7.5 -30.5t4 -28.5t13 -24.5t25.5 -24.5t42 -25t61.5 -27.5q47 -20 78 -39t48.5 -40.5t25.5 -46t8 -55.5q0 -43 -22 -85t-69 -68.5
t-122 -26.5v0zM185 658l-24 46l155 91l42 -75zM258 810q-24 0 -41 17t-17 40q0 25 16.5 41t41.5 16q23 0 40.5 -17t17.5 -40t-17.5 -40t-40.5 -17z" />
    <glyph glyph-name="uni1E65" unicode="&#x1e65;" 
d="M254 -10q-40 0 -76 7.5t-67 24t-58 40.5l43 76l6 9l6 -4q3 -8 5.5 -16.5t13.5 -20.5q23 -21 53 -34t76 -13q34 0 57.5 8.5t36 23t12.5 34.5q0 14 -6 24.5t-19 19.5t-35 18.5t-53 18.5q-51 15 -89.5 34.5t-59.5 46.5t-21 62q0 37 20.5 64t59 42.5t93.5 15.5q31 0 57 -4.5
t48.5 -13.5t42 -22.5t36.5 -31.5l-46 -59l-7 -8l-5 5q-1 8 -4.5 15.5t-15.5 18.5q-22 17 -49.5 26t-54.5 9q-38 0 -65.5 -13t-27.5 -40q0 -15 11 -28t38 -26t76 -26q56 -17 91 -36t51 -44t16 -59q0 -38 -21 -71.5t-63.5 -53t-105.5 -19.5v0zM255 506l-43 28l84 155l63 -46z
M279 708q-24 0 -41 17t-17 40q0 25 16.5 41t41.5 16q23 0 40.5 -17t17.5 -40t-17.5 -40t-40.5 -17z" />
    <glyph glyph-name="uni1E66" unicode="&#x1e66;" 
d="M245 -10q-61 0 -111.5 19.5t-87.5 57.5l43 73l4 9l7 -4q2 -7 5.5 -15.5t14.5 -20.5q26 -21 59 -33.5t74 -12.5q27 0 49 7.5t38.5 20.5t25.5 31t9 39q0 16 -3.5 29t-12.5 24t-24 22t-39 24t-58 28q-64 26 -101.5 55t-53.5 62t-16 71q0 46 24 81t67.5 55t101.5 20
q36 0 68.5 -9.5t60.5 -26.5t50 -43l-48 -60l-6 -8l-7 5q-1 8 -4 16t-14 20q-22 21 -47 28.5t-60 7.5q-23 0 -41.5 -6t-31.5 -18t-20.5 -26.5t-7.5 -30.5t4 -28.5t13 -24.5t25.5 -24.5t42 -25t61.5 -27.5q47 -20 78 -39t48.5 -40.5t25.5 -46t8 -55.5q0 -43 -22 -85t-69 -68.5
t-122 -26.5v0zM386 799l34 -43l-149 -98h-25l-153 98l32 43l132 -69zM258 843q-24 0 -41 17t-17 40q0 25 16.5 41t41.5 16q23 0 40.5 -17t17.5 -40t-17.5 -40t-40.5 -17z" />
    <glyph glyph-name="uni1E67" unicode="&#x1e67;" 
d="M254 -10q-40 0 -76 7.5t-67 24t-58 40.5l43 76l6 9l6 -4q3 -8 5.5 -16.5t13.5 -20.5q23 -21 53 -34t76 -13q34 0 57.5 8.5t36 23t12.5 34.5q0 14 -6 24.5t-19 19.5t-35 18.5t-53 18.5q-51 15 -89.5 34.5t-59.5 46.5t-21 62q0 37 20.5 64t59 42.5t93.5 15.5q31 0 57 -4.5
t48.5 -13.5t42 -22.5t36.5 -31.5l-46 -59l-7 -8l-5 5q-1 8 -4.5 15.5t-15.5 18.5q-22 17 -49.5 26t-54.5 9q-38 0 -65.5 -13t-27.5 -40q0 -15 11 -28t38 -26t76 -26q56 -17 91 -36t51 -44t16 -59q0 -38 -21 -71.5t-63.5 -53t-105.5 -19.5v0zM143 693l111 -107l111 107
l44 -39l-141 -139h-28l-141 139zM255 694q-24 0 -41 17t-17 40q0 25 16.5 41t41.5 16q23 0 40.5 -17t17.5 -40t-17.5 -40t-40.5 -17z" />
    <glyph glyph-name="uni1E68" unicode="&#x1e68;" 
d="M245 -10q-61 0 -111.5 19.5t-87.5 57.5l43 73l4 9l7 -4q2 -7 5.5 -15.5t14.5 -20.5q26 -21 59 -33.5t74 -12.5q27 0 49 7.5t38.5 20.5t25.5 31t9 39q0 16 -3.5 29t-12.5 24t-24 22t-39 24t-58 28q-64 26 -101.5 55t-53.5 62t-16 71q0 46 24 81t67.5 55t101.5 20
q36 0 68.5 -9.5t60.5 -26.5t50 -43l-48 -60l-6 -8l-7 5q-1 8 -4 16t-14 20q-22 21 -47 28.5t-60 7.5q-23 0 -41.5 -6t-31.5 -18t-20.5 -26.5t-7.5 -30.5t4 -28.5t13 -24.5t25.5 -24.5t42 -25t61.5 -27.5q47 -20 78 -39t48.5 -40.5t25.5 -46t8 -55.5q0 -43 -22 -85t-69 -68.5
t-122 -26.5v0zM247 -155q-24 0 -41 17t-17 40q0 25 16.5 41t41.5 16q23 0 40.5 -17t17.5 -40t-17.5 -40t-40.5 -17zM258 689q-24 0 -41 17t-17 40q0 25 16.5 41t41.5 16q23 0 40.5 -17t17.5 -40t-17.5 -40t-40.5 -17z" />
    <glyph glyph-name="uni1E69" unicode="&#x1e69;" 
d="M254 -10q-40 0 -76 7.5t-67 24t-58 40.5l43 76l6 9l6 -4q3 -8 5.5 -16.5t13.5 -20.5q23 -21 53 -34t76 -13q34 0 57.5 8.5t36 23t12.5 34.5q0 14 -6 24.5t-19 19.5t-35 18.5t-53 18.5q-51 15 -89.5 34.5t-59.5 46.5t-21 62q0 37 20.5 64t59 42.5t93.5 15.5q31 0 57 -4.5
t48.5 -13.5t42 -22.5t36.5 -31.5l-46 -59l-7 -8l-5 5q-1 8 -4.5 15.5t-15.5 18.5q-22 17 -49.5 26t-54.5 9q-38 0 -65.5 -13t-27.5 -40q0 -15 11 -28t38 -26t76 -26q56 -17 91 -36t51 -44t16 -59q0 -38 -21 -71.5t-63.5 -53t-105.5 -19.5v0zM239 -155q-24 0 -41 17t-17 40
q0 25 16.5 41t41.5 16q23 0 40.5 -17t17.5 -40t-17.5 -40t-40.5 -17zM254 549q-24 0 -41 17t-17 40q0 25 16.5 41t41.5 16q23 0 40.5 -17t17.5 -40t-17.5 -40t-40.5 -17z" />
    <glyph glyph-name="uni1E6C" unicode="&#x1e6c;" 
d="M202 0v550h-174v74h439v-74h-181v-550h-84zM248 -155q-24 0 -41 17t-17 40q0 25 16.5 41t41.5 16q23 0 40.5 -17t17.5 -40t-17.5 -40t-40.5 -17z" />
    <glyph glyph-name="uni1E6D" unicode="&#x1e6d;" 
d="M299 -8q-43 0 -71.5 14.5t-45 45t-22 78.5t-3.5 116l12 328l89 11l10 1l1 -7q-5 -7 -8.5 -14t-5.5 -24l-9 -122l3 -14l-7 -162q-3 -72 4 -111.5t24.5 -54.5t44.5 -15q33 0 58.5 13t51.5 32l22 -65q-34 -25 -70.5 -37.5t-77.5 -12.5v0zM66 460h339v-69h-339v69zM256 -155
q-24 0 -41 17t-17 40q0 25 16.5 41t41.5 16q23 0 40.5 -17t17.5 -40t-17.5 -40t-40.5 -17z" />
    <glyph glyph-name="uni1E6E" unicode="&#x1e6e;" 
d="M202 0v550h-174v74h439v-74h-181v-550h-84zM120 -156v63h263v-63h-263z" />
    <glyph glyph-name="uni1E6F" unicode="&#x1e6f;" 
d="M299 -8q-43 0 -71.5 14.5t-45 45t-22 78.5t-3.5 116l12 328l89 11l10 1l1 -7q-5 -7 -8.5 -14t-5.5 -24l-9 -122l3 -14l-7 -162q-3 -72 4 -111.5t24.5 -54.5t44.5 -15q33 0 58.5 13t51.5 32l22 -65q-34 -25 -70.5 -37.5t-77.5 -12.5v0zM66 460h339v-69h-339v69zM128 -156
v63h263v-63h-263z" />
    <glyph glyph-name="uni1E78" unicode="&#x1e78;" 
d="M251 -12q-101 0 -153.5 60.5t-52.5 167.5v407h83h10v-8q-6 -6 -7.5 -13t-1.5 -24v-363q0 -72 27 -114.5t96 -42.5t96.5 42.5t27.5 117.5v405h82v-404q0 -79 -26 -130t-72.5 -76t-108.5 -25v0zM373 790l50 -29q-21 -42 -42.5 -59.5t-51.5 -17.5q-25 0 -43 8.5t-32 20
t-27.5 20t-29.5 8.5q-17 0 -30.5 -11t-24.5 -37l-54 25q15 37 41 59.5t65 22.5q23 0 40 -8.5t31 -19.5t28 -19.5t31 -8.5q16 0 26 10t23 36zM176 816l-24 46l155 91l42 -75z" />
    <glyph glyph-name="uni1E79" unicode="&#x1e79;" 
d="M218 -11q-27 0 -51.5 7.5t-44 24t-34 41t-22 59t-7.5 78.5l1 261h84v-261q0 -39 7 -66.5t20 -44t30.5 -23.5t36.5 -7q23 0 43.5 8.5t36 26.5t24.5 45.5t9 64.5v257h85v-388q0 -19 1.5 -36.5t8.5 -35.5h-81q-5 11 -7 22t-2.5 22.5t-0.5 22.5q-11 -19 -25.5 -33.5
t-32.5 -24.5t-37.5 -15t-41.5 -5zM370 674l50 -29q-21 -42 -42.5 -59.5t-51.5 -17.5q-25 0 -43 8.5t-32 20t-27.5 20t-29.5 8.5q-17 0 -30.5 -11t-24.5 -37l-54 25q15 37 41 59.5t65 22.5q23 0 40 -8.5t31 -19.5t28 -19.5t31 -8.5q16 0 26 10t23 36zM240 686l-43 28l84 155
l63 -46z" />
    <glyph glyph-name="uni1E7A" unicode="&#x1e7a;" 
d="M251 -12q-101 0 -153.5 60.5t-52.5 167.5v407h83h10v-8q-6 -6 -7.5 -13t-1.5 -24v-363q0 -72 27 -114.5t96 -42.5t96.5 42.5t27.5 117.5v405h82v-404q0 -79 -26 -130t-72.5 -76t-108.5 -25v0zM118 728v63h263v-63h-263zM159 838q-22 0 -39 16.5t-17 38.5t17 39t39 17
q24 0 40.5 -17t16.5 -39t-17 -38.5t-40 -16.5zM339 838q-22 0 -38.5 16t-16.5 39t16.5 39.5t38.5 16.5q24 0 40 -17t16 -39t-16.5 -38.5t-39.5 -16.5z" />
    <glyph glyph-name="uni1E7B" unicode="&#x1e7b;" 
d="M218 -11q-27 0 -51.5 7.5t-44 24t-34 41t-22 59t-7.5 78.5l1 261h84v-261q0 -39 7 -66.5t20 -44t30.5 -23.5t36.5 -7q23 0 43.5 8.5t36 26.5t24.5 45.5t9 64.5v257h85v-388q0 -19 1.5 -36.5t8.5 -35.5h-81q-5 11 -7 22t-2.5 22.5t-0.5 22.5q-11 -19 -25.5 -33.5
t-32.5 -24.5t-37.5 -15t-41.5 -5zM118 564v63h263v-63h-263zM161 711q-23 0 -40 16t-17 38t17 39t40 17t39.5 -16.5t16.5 -39.5q0 -22 -17 -38t-39 -16zM341 711q-23 0 -39.5 15.5t-16.5 38.5t16.5 39.5t39.5 16.5t39 -17t16 -39t-16.5 -38t-38.5 -16z" />
    <glyph glyph-name="Wgrave" unicode="&#x1e80;" 
d="M109 0l-94 623h76l58 -411l94 364h34l94 -365l49 412h70l-93 -623h-41l-101 399l-103 -399h-43zM308 658l-173 62l42 75l156 -91z" />
    <glyph glyph-name="wgrave" unicode="&#x1e81;" 
d="M104 -1l-90 461h74l67 -351l74 305h49l91 -304q12 82 19.5 135t11.5 88t5 59.5t1 48.5v19h77q-9 -76 -20 -154t-24.5 -155t-29.5 -152h-78l-78 282l-73 -282h-76zM243 506l-104 137l63 46l84 -155z" />
    <glyph glyph-name="Wacute" unicode="&#x1e82;" 
d="M109 0l-94 623h76l58 -411l94 364h34l94 -365l49 412h70l-93 -623h-41l-101 399l-103 -399h-43zM185 658l-24 46l155 91l42 -75z" />
    <glyph glyph-name="wacute" unicode="&#x1e83;" 
d="M104 -1l-90 461h74l67 -351l74 305h49l91 -304q12 82 19.5 135t11.5 88t5 59.5t1 48.5v19h77q-9 -76 -20 -154t-24.5 -155t-29.5 -152h-78l-78 282l-73 -282h-76zM240 506l-43 28l84 155l63 -46z" />
    <glyph glyph-name="Wdieresis" unicode="&#x1e84;" 
d="M109 0l-94 623h76l58 -411l94 364h34l94 -365l49 412h70l-93 -623h-41l-101 399l-103 -399h-43zM168 686q-22 0 -39 16.5t-17 38.5t17 39t39 17q24 0 40.5 -17t16.5 -39t-17 -38.5t-40 -16.5zM348 686q-22 0 -38.5 16t-16.5 39t16.5 39.5t38.5 16.5q24 0 40 -17t16 -39
t-16.5 -38.5t-39.5 -16.5z" />
    <glyph glyph-name="wdieresis" unicode="&#x1e85;" 
d="M104 -1l-90 461h74l67 -351l74 305h49l91 -304q12 82 19.5 135t11.5 88t5 59.5t1 48.5v19h77q-9 -76 -20 -154t-24.5 -155t-29.5 -152h-78l-78 282l-73 -282h-76zM161 559q-23 0 -40 16t-17 38t17 39t40 17t39.5 -16.5t16.5 -39.5q0 -22 -17 -38t-39 -16zM341 559
q-23 0 -39.5 15.5t-16.5 38.5t16.5 39.5t39.5 16.5t39 -17t16 -39t-16.5 -38t-38.5 -16z" />
    <glyph glyph-name="uni1E8E" unicode="&#x1e8e;" 
d="M214 0v246l-190 377h92l145 -288l130 288h87l-175 -377v-246h-89zM249 689q-24 0 -41 17t-17 40q0 25 16.5 41t41.5 16q23 0 40.5 -17t17.5 -40t-17.5 -40t-40.5 -17z" />
    <glyph glyph-name="uni1E8F" unicode="&#x1e8f;" 
d="M127 -175q-33 0 -59.5 10.5t-47.5 30.5l33 58l6 9l7 -4q2 -8 7 -14t18 -15q9 -3 18.5 -4.5t19.5 -1.5q25 0 42 12t30.5 38t26.5 65l92 274q15 45 27.5 88.5t16.5 88.5h83q-6 -46 -21.5 -94t-32.5 -94l-114 -320q-26 -70 -64 -98.5t-88 -28.5v0zM41 460h88l144 -373
l-41 -99zM254 549q-24 0 -41 17t-17 40q0 25 16.5 41t41.5 16q23 0 40.5 -17t17.5 -40t-17.5 -40t-40.5 -17z" />
    <glyph glyph-name="uni1E92" unicode="&#x1e92;" 
d="M46 57l306 492h-294v74h394v-57l-301 -493h272q17 0 24 2t13 8h8v-10v-73h-422v57zM267 -155q-24 0 -41 17t-17 40q0 25 16.5 41t41.5 16q23 0 40.5 -17t17.5 -40t-17.5 -40t-40.5 -17z" />
    <glyph glyph-name="uni1E93" unicode="&#x1e93;" 
d="M47 55l274 332h-254v73h363v-57l-270 -331h249q17 0 24 2t13 8h7v-10v-72h-406v55zM248 -155q-24 0 -41 17t-17 40q0 25 16.5 41t41.5 16q23 0 40.5 -17t17.5 -40t-17.5 -40t-40.5 -17z" />
    <glyph glyph-name="uni1E97" unicode="&#x1e97;" 
d="M299 -8q-43 0 -71.5 14.5t-45 45t-22 78.5t-3.5 116l12 328l89 11l10 1l1 -7q-5 -7 -8.5 -14t-5.5 -24l-9 -122l3 -14l-7 -162q-3 -72 4 -111.5t24.5 -54.5t44.5 -15q33 0 58.5 13t51.5 32l22 -65q-34 -25 -70.5 -37.5t-77.5 -12.5v0zM66 460h339v-69h-339v69zM147 684
q-23 0 -40 16t-17 38t17 39t40 17t39.5 -16.5t16.5 -39.5q0 -22 -17 -38t-39 -16zM327 684q-23 0 -39.5 15.5t-16.5 38.5t16.5 39.5t39.5 16.5t39 -17t16 -39t-16.5 -38t-38.5 -16z" />
    <glyph glyph-name="uni1E9E" unicode="&#x1e9e;" 
d="M286 -11q-32 0 -58 8t-48 23l27 65q11 -7 22.5 -12.5t23.5 -8t24 -2.5q22 0 41.5 8.5t34.5 25t23.5 40t8.5 53.5t-12 59t-42.5 48.5t-88.5 19.5h-30v67l129 116q0 28 -9.5 51.5t-30 37.5t-55.5 14q-21 0 -41 -7.5t-36.5 -23t-26 -40.5t-9.5 -60v-471h-83v457
q0 58 16.5 99t44 66t62 36.5t71.5 11.5q60 0 99 -25t59 -66t20 -89l-170 -149l-12 42q72 0 122 -23.5t76.5 -68.5t26.5 -110q0 -49 -14 -84.5t-38 -59.5t-57 -36t-70 -12z" />
    <glyph glyph-name="uni1EA0" unicode="&#x1ea0;" 
d="M360 170h-232l15 63h200zM249 455l-151 -455h-83l223 632h24l223 -632h-86zM248 -155q-24 0 -41 17t-17 40q0 25 16.5 41t41.5 16q23 0 40.5 -17t17.5 -40t-17.5 -40t-40.5 -17z" />
    <glyph glyph-name="uni1EA1" unicode="&#x1ea1;" 
d="M207 -11q-78 0 -120 35.5t-42 91.5q0 37 17.5 67.5t49.5 51.5t76 32.5t97 11.5h29.5t33 -1.5t35.5 -3.5l3 -63q-16 2 -33 3.5t-33.5 2t-31.5 0.5q-37 0 -66.5 -6t-49.5 -17.5t-31 -29t-11 -40.5q0 -20 7 -33t19 -21t28 -11.5t35 -3.5q36 0 63.5 11.5t47 34.5t29.5 56.5
t10 78.5q0 64 -14.5 100t-43.5 50.5t-73 14.5q-33 0 -63.5 -11.5t-57.5 -38.5l-44 53q35 34 79 50t91 16q45 0 82 -10.5t64.5 -35.5t42.5 -67t15 -106v-251h-91v63q-13 -22 -30.5 -36.5t-37 -22.5t-40.5 -11.5t-41 -3.5zM248 -155q-24 0 -41 17t-17 40q0 25 16.5 41t41.5 16
q23 0 40.5 -17t17.5 -40t-17.5 -40t-40.5 -17z" />
    <glyph glyph-name="uni1EA2" unicode="&#x1ea2;" 
d="M360 170h-232l15 63h200zM249 455l-151 -455h-83l223 632h24l223 -632h-86zM344 797q0 -21 -9 -33.5t-20.5 -21.5t-21 -20t-9.5 -29v-8h-57v28q0 14 8.5 25t19.5 20t19.5 18t8.5 18q0 14 -9 21.5t-23 7.5q-15 0 -28 -6.5t-20 -27.5l-38 43q18 24 41 34t50 10
q25 -1 45 -10.5t31.5 -27t11.5 -41.5z" />
    <glyph glyph-name="uni1EA3" unicode="&#x1ea3;" 
d="M207 -11q-78 0 -120 35.5t-42 91.5q0 37 17.5 67.5t49.5 51.5t76 32.5t97 11.5h29.5t33 -1.5t35.5 -3.5l3 -63q-16 2 -33 3.5t-33.5 2t-31.5 0.5q-37 0 -66.5 -6t-49.5 -17.5t-31 -29t-11 -40.5q0 -20 7 -33t19 -21t28 -11.5t35 -3.5q36 0 63.5 11.5t47 34.5t29.5 56.5
t10 78.5q0 64 -14.5 100t-43.5 50.5t-73 14.5q-33 0 -63.5 -11.5t-57.5 -38.5l-44 53q35 34 79 50t91 16q45 0 82 -10.5t64.5 -35.5t42.5 -67t15 -106v-251h-91v63q-13 -22 -30.5 -36.5t-37 -22.5t-40.5 -11.5t-41 -3.5zM342 633q0 -21 -9 -33.5t-20.5 -21.5t-21 -20
t-9.5 -29v-8h-57v28q0 14 8.5 25t19.5 20t19.5 18t8.5 18q0 14 -9 21.5t-23 7.5q-15 0 -28 -6.5t-20 -27.5l-38 43q18 24 41 34t50 10q25 -1 45 -10.5t31.5 -27t11.5 -41.5z" />
    <glyph glyph-name="uni1EA4" unicode="&#x1ea4;" 
d="M360 170h-232l15 63h200zM249 455l-151 -455h-83l223 632h24l223 -632h-86zM118 653l-34 44l149 97h25l154 -97l-33 -43l-132 68zM370 767l-24 46l155 91l42 -75z" />
    <glyph glyph-name="uni1EA5" unicode="&#x1ea5;" 
d="M207 -11q-78 0 -120 35.5t-42 91.5q0 37 17.5 67.5t49.5 51.5t76 32.5t97 11.5h29.5t33 -1.5t35.5 -3.5l3 -63q-16 2 -33 3.5t-33.5 2t-31.5 0.5q-37 0 -66.5 -6t-49.5 -17.5t-31 -29t-11 -40.5q0 -20 7 -33t19 -21t28 -11.5t35 -3.5q36 0 63.5 11.5t47 34.5t29.5 56.5
t10 78.5q0 64 -14.5 100t-43.5 50.5t-73 14.5q-33 0 -63.5 -11.5t-57.5 -38.5l-44 53q35 34 79 50t91 16q45 0 82 -10.5t64.5 -35.5t42.5 -67t15 -106v-251h-91v63q-13 -22 -30.5 -36.5t-37 -22.5t-40.5 -11.5t-41 -3.5zM137 508l-44 38l141 140h28l141 -140l-44 -38
l-111 107zM386 630l-43 28l84 155l63 -46z" />
    <glyph glyph-name="uni1EA6" unicode="&#x1ea6;" 
d="M360 170h-232l15 63h200zM249 455l-151 -455h-83l223 632h24l223 -632h-86zM120 653l-34 44l149 97h25l154 -97l-33 -43l-132 68zM319 801l-173 62l42 75l156 -91z" />
    <glyph glyph-name="uni1EA7" unicode="&#x1ea7;" 
d="M207 -11q-78 0 -120 35.5t-42 91.5q0 37 17.5 67.5t49.5 51.5t76 32.5t97 11.5h29.5t33 -1.5t35.5 -3.5l3 -63q-16 2 -33 3.5t-33.5 2t-31.5 0.5q-37 0 -66.5 -6t-49.5 -17.5t-31 -29t-11 -40.5q0 -20 7 -33t19 -21t28 -11.5t35 -3.5q36 0 63.5 11.5t47 34.5t29.5 56.5
t10 78.5q0 64 -14.5 100t-43.5 50.5t-73 14.5q-33 0 -63.5 -11.5t-57.5 -38.5l-44 53q35 34 79 50t91 16q45 0 82 -10.5t64.5 -35.5t42.5 -67t15 -106v-251h-91v63q-13 -22 -30.5 -36.5t-37 -22.5t-40.5 -11.5t-41 -3.5zM138 508l-44 38l141 140h28l141 -140l-44 -38
l-111 107zM375 652l-104 137l63 46l84 -155z" />
    <glyph glyph-name="uni1EA8" unicode="&#x1ea8;" 
d="M360 170h-232l15 63h200zM249 455l-151 -455h-83l223 632h24l223 -632h-86zM116 653l-34 44l149 97h25l154 -97l-33 -43l-132 68zM464 862q0 -21 -9 -33.5t-20.5 -21.5t-21 -20t-9.5 -29v-8h-57v28q0 14 8.5 25t19.5 20t19.5 18t8.5 18q0 14 -9 21.5t-23 7.5
q-15 0 -28 -6.5t-20 -27.5l-38 43q18 24 41 34t50 10q25 -1 45 -10.5t31.5 -27t11.5 -41.5z" />
    <glyph glyph-name="uni1EA9" unicode="&#x1ea9;" 
d="M207 -11q-78 0 -120 35.5t-42 91.5q0 37 17.5 67.5t49.5 51.5t76 32.5t97 11.5h29.5t33 -1.5t35.5 -3.5l3 -63q-16 2 -33 3.5t-33.5 2t-31.5 0.5q-37 0 -66.5 -6t-49.5 -17.5t-31 -29t-11 -40.5q0 -20 7 -33t19 -21t28 -11.5t35 -3.5q36 0 63.5 11.5t47 34.5t29.5 56.5
t10 78.5q0 64 -14.5 100t-43.5 50.5t-73 14.5q-33 0 -63.5 -11.5t-57.5 -38.5l-44 53q35 34 79 50t91 16q45 0 82 -10.5t64.5 -35.5t42.5 -67t15 -106v-251h-91v63q-13 -22 -30.5 -36.5t-37 -22.5t-40.5 -11.5t-41 -3.5zM137 508l-44 38l141 140h28l141 -140l-44 -38
l-111 107zM466 736q0 -21 -9 -33.5t-20.5 -21.5t-21 -20t-9.5 -29v-8h-57v28q0 14 8.5 25t19.5 20t19.5 18t8.5 18q0 14 -9 21.5t-23 7.5q-15 0 -28 -6.5t-20 -27.5l-38 43q18 24 41 34t50 10q25 -1 45 -10.5t31.5 -27t11.5 -41.5z" />
    <glyph glyph-name="uni1EAA" unicode="&#x1eaa;" 
d="M360 170h-232l15 63h200zM249 455l-151 -455h-83l223 632h24l223 -632h-86zM119 653l-34 44l149 97h25l154 -97l-33 -43l-132 68zM340 925l50 -24q-19 -41 -39.5 -58t-46.5 -17q-19 0 -34.5 8t-28 18.5t-24 18.5t-23.5 8q-13 0 -24.5 -10.5t-19.5 -30.5l-50 24
q12 34 37 55t50 21q19 0 35.5 -8t30.5 -19t26 -19t23 -8t20 9.5t18 31.5z" />
    <glyph glyph-name="uni1EAB" unicode="&#x1eab;" 
d="M207 -11q-78 0 -120 35.5t-42 91.5q0 37 17.5 67.5t49.5 51.5t76 32.5t97 11.5h29.5t33 -1.5t35.5 -3.5l3 -63q-16 2 -33 3.5t-33.5 2t-31.5 0.5q-37 0 -66.5 -6t-49.5 -17.5t-31 -29t-11 -40.5q0 -20 7 -33t19 -21t28 -11.5t35 -3.5q36 0 63.5 11.5t47 34.5t29.5 56.5
t10 78.5q0 64 -14.5 100t-43.5 50.5t-73 14.5q-33 0 -63.5 -11.5t-57.5 -38.5l-44 53q35 34 79 50t91 16q45 0 82 -10.5t64.5 -35.5t42.5 -67t15 -106v-251h-91v63q-13 -22 -30.5 -36.5t-37 -22.5t-40.5 -11.5t-41 -3.5zM138 508l-44 38l141 140h28l141 -140l-44 -38
l-111 107zM340 816l50 -24q-19 -41 -39.5 -58t-46.5 -17q-19 0 -34.5 8t-28 18.5t-24 18.5t-23.5 8q-13 0 -24.5 -10.5t-19.5 -30.5l-50 24q12 34 37 55t50 21q19 0 35.5 -8t30.5 -19t26 -19t23 -8t20 9.5t18 31.5z" />
    <glyph glyph-name="uni1EAC" unicode="&#x1eac;" 
d="M360 170h-232l15 63h200zM249 455l-151 -455h-83l223 632h24l223 -632h-86zM248 -155q-24 0 -41 17t-17 40q0 25 16.5 41t41.5 16q23 0 40.5 -17t17.5 -40t-17.5 -40t-40.5 -17zM120 653l-34 44l149 97h25l154 -97l-33 -43l-132 68z" />
    <glyph glyph-name="uni1EAD" unicode="&#x1ead;" 
d="M207 -11q-78 0 -120 35.5t-42 91.5q0 37 17.5 67.5t49.5 51.5t76 32.5t97 11.5h29.5t33 -1.5t35.5 -3.5l3 -63q-16 2 -33 3.5t-33.5 2t-31.5 0.5q-37 0 -66.5 -6t-49.5 -17.5t-31 -29t-11 -40.5q0 -20 7 -33t19 -21t28 -11.5t35 -3.5q36 0 63.5 11.5t47 34.5t29.5 56.5
t10 78.5q0 64 -14.5 100t-43.5 50.5t-73 14.5q-33 0 -63.5 -11.5t-57.5 -38.5l-44 53q35 34 79 50t91 16q45 0 82 -10.5t64.5 -35.5t42.5 -67t15 -106v-251h-91v63q-13 -22 -30.5 -36.5t-37 -22.5t-40.5 -11.5t-41 -3.5zM248 -155q-24 0 -41 17t-17 40q0 25 16.5 41t41.5 16
q23 0 40.5 -17t17.5 -40t-17.5 -40t-40.5 -17zM137 507l-44 38l141 140h28l141 -140l-44 -38l-111 107z" />
    <glyph glyph-name="uni1EAE" unicode="&#x1eae;" 
d="M360 170h-232l15 63h200zM249 455l-151 -455h-83l223 632h24l223 -632h-86zM337 792l58 -27q-23 -46 -60 -71.5t-85 -25.5q-47 0 -84.5 25.5t-60.5 71.5l58 27q17 -36 37.5 -53t49.5 -17q19 0 35 7.5t29 23t23 39.5zM206 778l-24 46l155 91l42 -75z" />
    <glyph glyph-name="uni1EAF" unicode="&#x1eaf;" 
d="M207 -11q-78 0 -120 35.5t-42 91.5q0 37 17.5 67.5t49.5 51.5t76 32.5t97 11.5h29.5t33 -1.5t35.5 -3.5l3 -63q-16 2 -33 3.5t-33.5 2t-31.5 0.5q-37 0 -66.5 -6t-49.5 -17.5t-31 -29t-11 -40.5q0 -20 7 -33t19 -21t28 -11.5t35 -3.5q36 0 63.5 11.5t47 34.5t29.5 56.5
t10 78.5q0 64 -14.5 100t-43.5 50.5t-73 14.5q-33 0 -63.5 -11.5t-57.5 -38.5l-44 53q35 34 79 50t91 16q45 0 82 -10.5t64.5 -35.5t42.5 -67t15 -106v-251h-91v63q-13 -22 -30.5 -36.5t-37 -22.5t-40.5 -11.5t-41 -3.5zM335 659l58 -27q-23 -46 -60 -71.5t-85 -25.5
q-47 0 -84.5 25.5t-60.5 71.5l58 27q17 -36 37.5 -53t49.5 -17q19 0 35 7.5t29 23t23 39.5zM253 637l-43 28l84 155l63 -46z" />
    <glyph glyph-name="uni1EB0" unicode="&#x1eb0;" 
d="M360 170h-232l15 63h200zM249 455l-151 -455h-83l223 632h24l223 -632h-86zM337 792l58 -27q-23 -46 -60 -71.5t-85 -25.5q-47 0 -84.5 25.5t-60.5 71.5l58 27q17 -36 37.5 -53t49.5 -17q19 0 35 7.5t29 23t23 39.5zM289 820l-173 62l42 75l156 -91z" />
    <glyph glyph-name="uni1EB1" unicode="&#x1eb1;" 
d="M207 -11q-78 0 -120 35.5t-42 91.5q0 37 17.5 67.5t49.5 51.5t76 32.5t97 11.5h29.5t33 -1.5t35.5 -3.5l3 -63q-16 2 -33 3.5t-33.5 2t-31.5 0.5q-37 0 -66.5 -6t-49.5 -17.5t-31 -29t-11 -40.5q0 -20 7 -33t19 -21t28 -11.5t35 -3.5q36 0 63.5 11.5t47 34.5t29.5 56.5
t10 78.5q0 64 -14.5 100t-43.5 50.5t-73 14.5q-33 0 -63.5 -11.5t-57.5 -38.5l-44 53q35 34 79 50t91 16q45 0 82 -10.5t64.5 -35.5t42.5 -67t15 -106v-251h-91v63q-13 -22 -30.5 -36.5t-37 -22.5t-40.5 -11.5t-41 -3.5zM335 659l58 -27q-23 -46 -60 -71.5t-85 -25.5
q-47 0 -84.5 25.5t-60.5 71.5l58 27q17 -36 37.5 -53t49.5 -17q19 0 35 7.5t29 23t23 39.5zM252 637l-104 137l63 46l84 -155z" />
    <glyph glyph-name="uni1EB2" unicode="&#x1eb2;" 
d="M360 170h-232l15 63h200zM249 455l-151 -455h-83l223 632h24l223 -632h-86zM337 792l58 -27q-23 -46 -60 -71.5t-85 -25.5q-47 0 -84.5 25.5t-60.5 71.5l58 27q17 -36 37.5 -53t49.5 -17q19 0 35 7.5t29 23t23 39.5zM334 883q0 -21 -9 -33.5t-20.5 -21.5t-21 -20
t-9.5 -29v-8h-57v28q0 14 8.5 25t19.5 20t19.5 18t8.5 18q0 14 -9 21.5t-23 7.5q-15 0 -28 -6.5t-20 -27.5l-38 43q18 24 41 34t50 10q25 -1 45 -10.5t31.5 -27t11.5 -41.5z" />
    <glyph glyph-name="uni1EB3" unicode="&#x1eb3;" 
d="M207 -11q-78 0 -120 35.5t-42 91.5q0 37 17.5 67.5t49.5 51.5t76 32.5t97 11.5h29.5t33 -1.5t35.5 -3.5l3 -63q-16 2 -33 3.5t-33.5 2t-31.5 0.5q-37 0 -66.5 -6t-49.5 -17.5t-31 -29t-11 -40.5q0 -20 7 -33t19 -21t28 -11.5t35 -3.5q36 0 63.5 11.5t47 34.5t29.5 56.5
t10 78.5q0 64 -14.5 100t-43.5 50.5t-73 14.5q-33 0 -63.5 -11.5t-57.5 -38.5l-44 53q35 34 79 50t91 16q45 0 82 -10.5t64.5 -35.5t42.5 -67t15 -106v-251h-91v63q-13 -22 -30.5 -36.5t-37 -22.5t-40.5 -11.5t-41 -3.5zM335 659l58 -27q-23 -46 -60 -71.5t-85 -25.5
q-47 0 -84.5 25.5t-60.5 71.5l58 27q17 -36 37.5 -53t49.5 -17q19 0 35 7.5t29 23t23 39.5zM337 769q0 -21 -9 -33.5t-20.5 -21.5t-21 -20t-9.5 -29v-8h-57v28q0 14 8.5 25t19.5 20t19.5 18t8.5 18q0 14 -9 21.5t-23 7.5q-15 0 -28 -6.5t-20 -27.5l-38 43q18 24 41 34t50 10
q25 -1 45 -10.5t31.5 -27t11.5 -41.5z" />
    <glyph glyph-name="uni1EB4" unicode="&#x1eb4;" 
d="M360 170h-232l15 63h200zM249 455l-151 -455h-83l223 632h24l223 -632h-86zM337 792l58 -27q-23 -46 -60 -71.5t-85 -25.5q-47 0 -84.5 25.5t-60.5 71.5l58 27q17 -36 37.5 -53t49.5 -17q19 0 35 7.5t29 23t23 39.5zM335 928l50 -24q-19 -41 -39.5 -58t-46.5 -17
q-19 0 -34.5 8t-28 18.5t-24 18.5t-23.5 8q-13 0 -24.5 -10.5t-19.5 -30.5l-50 24q12 34 37 55t50 21q19 0 35.5 -8t30.5 -19t26 -19t23 -8t20 9.5t18 31.5z" />
    <glyph glyph-name="uni1EB5" unicode="&#x1eb5;" 
d="M207 -11q-78 0 -120 35.5t-42 91.5q0 37 17.5 67.5t49.5 51.5t76 32.5t97 11.5h29.5t33 -1.5t35.5 -3.5l3 -63q-16 2 -33 3.5t-33.5 2t-31.5 0.5q-37 0 -66.5 -6t-49.5 -17.5t-31 -29t-11 -40.5q0 -20 7 -33t19 -21t28 -11.5t35 -3.5q36 0 63.5 11.5t47 34.5t29.5 56.5
t10 78.5q0 64 -14.5 100t-43.5 50.5t-73 14.5q-33 0 -63.5 -11.5t-57.5 -38.5l-44 53q35 34 79 50t91 16q45 0 82 -10.5t64.5 -35.5t42.5 -67t15 -106v-251h-91v63q-13 -22 -30.5 -36.5t-37 -22.5t-40.5 -11.5t-41 -3.5zM331 659l58 -27q-23 -46 -60 -71.5t-85 -25.5
q-47 0 -84.5 25.5t-60.5 71.5l58 27q17 -36 37.5 -53t49.5 -17q19 0 35 7.5t29 23t23 39.5zM340 797l50 -24q-19 -41 -39.5 -58t-46.5 -17q-19 0 -34.5 8t-28 18.5t-24 18.5t-23.5 8q-13 0 -24.5 -10.5t-19.5 -30.5l-50 24q12 34 37 55t50 21q19 0 35.5 -8t30.5 -19t26 -19
t23 -8t20 9.5t18 31.5z" />
    <glyph glyph-name="uni1EB6" unicode="&#x1eb6;" 
d="M360 170h-232l15 63h200zM249 455l-151 -455h-83l223 632h24l223 -632h-86zM248 -155q-24 0 -41 17t-17 40q0 25 16.5 41t41.5 16q23 0 40.5 -17t17.5 -40t-17.5 -40t-40.5 -17zM337 792l58 -27q-23 -46 -60 -71.5t-85 -25.5q-47 0 -84.5 25.5t-60.5 71.5l58 27
q17 -36 37.5 -53t49.5 -17q19 0 35 7.5t29 23t23 39.5z" />
    <glyph glyph-name="uni1EB7" unicode="&#x1eb7;" 
d="M207 -11q-78 0 -120 35.5t-42 91.5q0 37 17.5 67.5t49.5 51.5t76 32.5t97 11.5h29.5t33 -1.5t35.5 -3.5l3 -63q-16 2 -33 3.5t-33.5 2t-31.5 0.5q-37 0 -66.5 -6t-49.5 -17.5t-31 -29t-11 -40.5q0 -20 7 -33t19 -21t28 -11.5t35 -3.5q36 0 63.5 11.5t47 34.5t29.5 56.5
t10 78.5q0 64 -14.5 100t-43.5 50.5t-73 14.5q-33 0 -63.5 -11.5t-57.5 -38.5l-44 53q35 34 79 50t91 16q45 0 82 -10.5t64.5 -35.5t42.5 -67t15 -106v-251h-91v63q-13 -22 -30.5 -36.5t-37 -22.5t-40.5 -11.5t-41 -3.5zM248 -155q-24 0 -41 17t-17 40q0 25 16.5 41t41.5 16
q23 0 40.5 -17t17.5 -40t-17.5 -40t-40.5 -17zM335 659l58 -27q-23 -46 -60 -71.5t-85 -25.5q-47 0 -84.5 25.5t-60.5 71.5l58 27q17 -36 37.5 -53t49.5 -17q19 0 35 7.5t29 23t23 39.5z" />
    <glyph glyph-name="uni1EB8" unicode="&#x1eb8;" 
d="M56 0v624h390v-72h-309v-190h255v-74h-255v-216h306v-72h-387zM248 -155q-24 0 -41 17t-17 40q0 25 16.5 41t41.5 16q23 0 40.5 -17t17.5 -40t-17.5 -40t-40.5 -17z" />
    <glyph glyph-name="uni1EB9" unicode="&#x1eb9;" 
d="M272 -10q-50 0 -91.5 15.5t-72 45.5t-46.5 75t-16 102q0 58 16.5 103t45.5 76t68 47.5t83 16.5q39 0 74 -13.5t60.5 -40.5t40.5 -68.5t15 -97.5q0 -9 -0.5 -19.5t-1.5 -18.5h-319q2 -41 14.5 -70.5t32.5 -48t45.5 -27.5t54.5 -9q23 0 43.5 5t38.5 16t33 27l46 -44
q-20 -24 -45.5 -40.5t-55 -24t-63.5 -7.5zM131 278h233q0 30 -8 53t-22 40t-34.5 25.5t-45.5 8.5q-23 0 -43 -7.5t-36.5 -23.5t-28 -39.5t-15.5 -56.5zM274 -155q-24 0 -41 17t-17 40q0 25 16.5 41t41.5 16q23 0 40.5 -17t17.5 -40t-17.5 -40t-40.5 -17z" />
    <glyph glyph-name="uni1EBA" unicode="&#x1eba;" 
d="M56 0v624h390v-72h-309v-190h255v-74h-255v-216h306v-72h-387zM355 797q0 -21 -9 -33.5t-20.5 -21.5t-21 -20t-9.5 -29v-8h-57v28q0 14 8.5 25t19.5 20t19.5 18t8.5 18q0 14 -9 21.5t-23 7.5q-15 0 -28 -6.5t-20 -27.5l-38 43q18 24 41 34t50 10q25 -1 45 -10.5t31.5 -27
t11.5 -41.5z" />
    <glyph glyph-name="uni1EBB" unicode="&#x1ebb;" 
d="M272 -10q-50 0 -91.5 15.5t-72 45.5t-46.5 75t-16 102q0 58 16.5 103t45.5 76t68 47.5t83 16.5q39 0 74 -13.5t60.5 -40.5t40.5 -68.5t15 -97.5q0 -9 -0.5 -19.5t-1.5 -18.5h-319q2 -41 14.5 -70.5t32.5 -48t45.5 -27.5t54.5 -9q23 0 43.5 5t38.5 16t33 27l46 -44
q-20 -24 -45.5 -40.5t-55 -24t-63.5 -7.5zM131 278h233q0 30 -8 53t-22 40t-34.5 25.5t-45.5 8.5q-23 0 -43 -7.5t-36.5 -23.5t-28 -39.5t-15.5 -56.5zM353 633q0 -21 -9 -33.5t-20.5 -21.5t-21 -20t-9.5 -29v-8h-57v28q0 14 8.5 25t19.5 20t19.5 18t8.5 18q0 14 -9 21.5
t-23 7.5q-15 0 -28 -6.5t-20 -27.5l-38 43q18 24 41 34t50 10q25 -1 45 -10.5t31.5 -27t11.5 -41.5z" />
    <glyph glyph-name="uni1EBC" unicode="&#x1ebc;" 
d="M56 0v624h390v-72h-309v-190h255v-74h-255v-216h306v-72h-387zM385 790l50 -29q-21 -42 -42.5 -59.5t-51.5 -17.5q-25 0 -43 8.5t-32 20t-27.5 20t-29.5 8.5q-17 0 -30.5 -11t-24.5 -37l-54 25q15 37 41 59.5t65 22.5q23 0 40 -8.5t31 -19.5t28 -19.5t31 -8.5q16 0 26 10
t23 36z" />
    <glyph glyph-name="uni1EBD" unicode="&#x1ebd;" 
d="M272 -10q-50 0 -91.5 15.5t-72 45.5t-46.5 75t-16 102q0 58 16.5 103t45.5 76t68 47.5t83 16.5q39 0 74 -13.5t60.5 -40.5t40.5 -68.5t15 -97.5q0 -9 -0.5 -19.5t-1.5 -18.5h-319q2 -41 14.5 -70.5t32.5 -48t45.5 -27.5t54.5 -9q23 0 43.5 5t38.5 16t33 27l46 -44
q-20 -24 -45.5 -40.5t-55 -24t-63.5 -7.5zM131 278h233q0 30 -8 53t-22 40t-34.5 25.5t-45.5 8.5q-23 0 -43 -7.5t-36.5 -23.5t-28 -39.5t-15.5 -56.5zM380 674l50 -29q-21 -42 -42.5 -59.5t-51.5 -17.5q-25 0 -43 8.5t-32 20t-27.5 20t-29.5 8.5q-17 0 -30.5 -11t-24.5 -37
l-54 25q15 37 41 59.5t65 22.5q23 0 40 -8.5t31 -19.5t28 -19.5t31 -8.5q16 0 26 10t23 36z" />
    <glyph glyph-name="uni1EBE" unicode="&#x1ebe;" 
d="M56 0v624h390v-72h-309v-190h255v-74h-255v-216h306v-72h-387zM129 653l-34 44l149 97h25l154 -97l-33 -43l-132 68zM381 767l-24 46l155 91l42 -75z" />
    <glyph glyph-name="uni1EBF" unicode="&#x1ebf;" 
d="M272 -10q-50 0 -91.5 15.5t-72 45.5t-46.5 75t-16 102q0 58 16.5 103t45.5 76t68 47.5t83 16.5q39 0 74 -13.5t60.5 -40.5t40.5 -68.5t15 -97.5q0 -9 -0.5 -19.5t-1.5 -18.5h-319q2 -41 14.5 -70.5t32.5 -48t45.5 -27.5t54.5 -9q23 0 43.5 5t38.5 16t33 27l46 -44
q-20 -24 -45.5 -40.5t-55 -24t-63.5 -7.5zM131 278h233q0 30 -8 53t-22 40t-34.5 25.5t-45.5 8.5q-23 0 -43 -7.5t-36.5 -23.5t-28 -39.5t-15.5 -56.5zM149 508l-44 38l141 140h28l141 -140l-44 -38l-111 107zM398 630l-43 28l84 155l63 -46z" />
    <glyph glyph-name="uni1EC0" unicode="&#x1ec0;" 
d="M56 0v624h390v-72h-309v-190h255v-74h-255v-216h306v-72h-387zM131 653l-34 44l149 97h25l154 -97l-33 -43l-132 68zM330 801l-173 62l42 75l156 -91z" />
    <glyph glyph-name="uni1EC1" unicode="&#x1ec1;" 
d="M272 -10q-50 0 -91.5 15.5t-72 45.5t-46.5 75t-16 102q0 58 16.5 103t45.5 76t68 47.5t83 16.5q39 0 74 -13.5t60.5 -40.5t40.5 -68.5t15 -97.5q0 -9 -0.5 -19.5t-1.5 -18.5h-319q2 -41 14.5 -70.5t32.5 -48t45.5 -27.5t54.5 -9q23 0 43.5 5t38.5 16t33 27l46 -44
q-20 -24 -45.5 -40.5t-55 -24t-63.5 -7.5zM131 278h233q0 30 -8 53t-22 40t-34.5 25.5t-45.5 8.5q-23 0 -43 -7.5t-36.5 -23.5t-28 -39.5t-15.5 -56.5zM150 508l-44 38l141 140h28l141 -140l-44 -38l-111 107zM387 652l-104 137l63 46l84 -155z" />
    <glyph glyph-name="uni1EC2" unicode="&#x1ec2;" 
d="M56 0v624h390v-72h-309v-190h255v-74h-255v-216h306v-72h-387zM127 653l-34 44l149 97h25l154 -97l-33 -43l-132 68zM475 862q0 -21 -9 -33.5t-20.5 -21.5t-21 -20t-9.5 -29v-8h-57v28q0 14 8.5 25t19.5 20t19.5 18t8.5 18q0 14 -9 21.5t-23 7.5q-15 0 -28 -6.5
t-20 -27.5l-38 43q18 24 41 34t50 10q25 -1 45 -10.5t31.5 -27t11.5 -41.5z" />
    <glyph glyph-name="uni1EC3" unicode="&#x1ec3;" 
d="M272 -10q-50 0 -91.5 15.5t-72 45.5t-46.5 75t-16 102q0 58 16.5 103t45.5 76t68 47.5t83 16.5q39 0 74 -13.5t60.5 -40.5t40.5 -68.5t15 -97.5q0 -9 -0.5 -19.5t-1.5 -18.5h-319q2 -41 14.5 -70.5t32.5 -48t45.5 -27.5t54.5 -9q23 0 43.5 5t38.5 16t33 27l46 -44
q-20 -24 -45.5 -40.5t-55 -24t-63.5 -7.5zM131 278h233q0 30 -8 53t-22 40t-34.5 25.5t-45.5 8.5q-23 0 -43 -7.5t-36.5 -23.5t-28 -39.5t-15.5 -56.5zM149 508l-44 38l141 140h28l141 -140l-44 -38l-111 107zM478 736q0 -21 -9 -33.5t-20.5 -21.5t-21 -20t-9.5 -29v-8h-57
v28q0 14 8.5 25t19.5 20t19.5 18t8.5 18q0 14 -9 21.5t-23 7.5q-15 0 -28 -6.5t-20 -27.5l-38 43q18 24 41 34t50 10q25 -1 45 -10.5t31.5 -27t11.5 -41.5z" />
    <glyph glyph-name="uni1EC4" unicode="&#x1ec4;" 
d="M56 0v624h390v-72h-309v-190h255v-74h-255v-216h306v-72h-387zM130 653l-34 44l149 97h25l154 -97l-33 -43l-132 68zM351 925l50 -24q-19 -41 -39.5 -58t-46.5 -17q-19 0 -34.5 8t-28 18.5t-24 18.5t-23.5 8q-13 0 -24.5 -10.5t-19.5 -30.5l-50 24q12 34 37 55t50 21
q19 0 35.5 -8t30.5 -19t26 -19t23 -8t20 9.5t18 31.5z" />
    <glyph glyph-name="uni1EC5" unicode="&#x1ec5;" 
d="M272 -10q-50 0 -91.5 15.5t-72 45.5t-46.5 75t-16 102q0 58 16.5 103t45.5 76t68 47.5t83 16.5q39 0 74 -13.5t60.5 -40.5t40.5 -68.5t15 -97.5q0 -9 -0.5 -19.5t-1.5 -18.5h-319q2 -41 14.5 -70.5t32.5 -48t45.5 -27.5t54.5 -9q23 0 43.5 5t38.5 16t33 27l46 -44
q-20 -24 -45.5 -40.5t-55 -24t-63.5 -7.5zM131 278h233q0 30 -8 53t-22 40t-34.5 25.5t-45.5 8.5q-23 0 -43 -7.5t-36.5 -23.5t-28 -39.5t-15.5 -56.5zM149 508l-44 38l141 140h28l141 -140l-44 -38l-111 107zM351 816l50 -24q-19 -41 -39.5 -58t-46.5 -17q-19 0 -34.5 8
t-28 18.5t-24 18.5t-23.5 8q-13 0 -24.5 -10.5t-19.5 -30.5l-50 24q12 34 37 55t50 21q19 0 35.5 -8t30.5 -19t26 -19t23 -8t20 9.5t18 31.5z" />
    <glyph glyph-name="uni1EC6" unicode="&#x1ec6;" 
d="M56 0v624h390v-72h-309v-190h255v-74h-255v-216h306v-72h-387zM248 -155q-24 0 -41 17t-17 40q0 25 16.5 41t41.5 16q23 0 40.5 -17t17.5 -40t-17.5 -40t-40.5 -17zM131 653l-34 44l149 97h25l154 -97l-33 -43l-132 68z" />
    <glyph glyph-name="uni1EC7" unicode="&#x1ec7;" 
d="M272 -10q-50 0 -91.5 15.5t-72 45.5t-46.5 75t-16 102q0 58 16.5 103t45.5 76t68 47.5t83 16.5q39 0 74 -13.5t60.5 -40.5t40.5 -68.5t15 -97.5q0 -9 -0.5 -19.5t-1.5 -18.5h-319q2 -41 14.5 -70.5t32.5 -48t45.5 -27.5t54.5 -9q23 0 43.5 5t38.5 16t33 27l46 -44
q-20 -24 -45.5 -40.5t-55 -24t-63.5 -7.5zM131 278h233q0 30 -8 53t-22 40t-34.5 25.5t-45.5 8.5q-23 0 -43 -7.5t-36.5 -23.5t-28 -39.5t-15.5 -56.5zM274 -155q-24 0 -41 17t-17 40q0 25 16.5 41t41.5 16q23 0 40.5 -17t17.5 -40t-17.5 -40t-40.5 -17zM148 507l-44 38
l141 140h28l141 -140l-44 -38l-111 107z" />
    <glyph glyph-name="uni1EC8" unicode="&#x1ec8;" 
d="M77 0v70h123v483h-116v70h321v-70h-123v-484h129v-69h-334zM335 797q0 -21 -9 -33.5t-20.5 -21.5t-21 -20t-9.5 -29v-8h-57v28q0 14 8.5 25t19.5 20t19.5 18t8.5 18q0 14 -9 21.5t-23 7.5q-15 0 -28 -6.5t-20 -27.5l-38 43q18 24 41 34t50 10q25 -1 45 -10.5t31.5 -27
t11.5 -41.5z" />
    <glyph glyph-name="uni1EC9" unicode="&#x1ec9;" 
d="M95 0v68h116v323h-110v69h196v-392h106v-68h-308zM344 633q0 -21 -9 -33.5t-20.5 -21.5t-21 -20t-9.5 -29v-8h-57v28q0 14 8.5 25t19.5 20t19.5 18t8.5 18q0 14 -9 21.5t-23 7.5q-15 0 -28 -6.5t-20 -27.5l-38 43q18 24 41 34t50 10q25 -1 45 -10.5t31.5 -27t11.5 -41.5z
" />
    <glyph glyph-name="uni1ECA" unicode="&#x1eca;" 
d="M77 0v70h123v483h-116v70h321v-70h-123v-484h129v-69h-334zM248 -155q-24 0 -41 17t-17 40q0 25 16.5 41t41.5 16q23 0 40.5 -17t17.5 -40t-17.5 -40t-40.5 -17z" />
    <glyph glyph-name="uni1ECB" unicode="&#x1ecb;" 
d="M95 0v68h116v323h-110v69h196v-392h106v-68h-308zM249 549q-24 0 -41 17t-17 40q0 25 16.5 41t41.5 16q23 0 40.5 -17t17.5 -40t-17.5 -40t-40.5 -17zM248 -155q-24 0 -41 17t-17 40q0 25 16.5 41t41.5 16q23 0 40.5 -17t17.5 -40t-17.5 -40t-40.5 -17z" />
    <glyph glyph-name="uni1ECC" unicode="&#x1ecc;" 
d="M251 -11q-73 0 -123.5 37t-77 109t-26.5 174q0 100 26.5 171.5t77 110t123.5 38.5t123 -38.5t76.5 -110t26.5 -171.5q0 -102 -26.5 -174t-76.5 -109t-123 -37zM251 60q44 0 75.5 28.5t48 84t16.5 136.5q0 77 -16.5 132.5t-48 85.5t-75.5 30t-76 -30t-48.5 -85.5
t-16.5 -132.5q0 -81 16.5 -136.5t48.5 -84t76 -28.5zM249 -155q-24 0 -41 17t-17 40q0 25 16.5 41t41.5 16q23 0 40.5 -17t17.5 -40t-17.5 -40t-40.5 -17z" />
    <glyph glyph-name="uni1ECD" unicode="&#x1ecd;" 
d="M250 -9q-62 0 -110.5 30.5t-76.5 84.5t-28 124t28 124t76.5 85t110.5 31t110.5 -31t76.5 -85t28 -124t-28 -124t-76.5 -84.5t-110.5 -30.5zM250 61q37 0 65 22t44.5 60t16.5 88t-16.5 88t-44.5 59.5t-65 21.5q-36 0 -64.5 -21.5t-45 -59.5t-16.5 -88t16 -88t44.5 -60
t65.5 -22zM248 -155q-24 0 -41 17t-17 40q0 25 16.5 41t41.5 16q23 0 40.5 -17t17.5 -40t-17.5 -40t-40.5 -17z" />
    <glyph glyph-name="uni1ECE" unicode="&#x1ece;" 
d="M251 -11q-73 0 -123.5 37t-77 109t-26.5 174q0 100 26.5 171.5t77 110t123.5 38.5t123 -38.5t76.5 -110t26.5 -171.5q0 -102 -26.5 -174t-76.5 -109t-123 -37zM251 60q44 0 75.5 28.5t48 84t16.5 136.5q0 77 -16.5 132.5t-48 85.5t-75.5 30t-76 -30t-48.5 -85.5
t-16.5 -132.5q0 -81 16.5 -136.5t48.5 -84t76 -28.5zM344 798q0 -21 -9 -33.5t-20.5 -21.5t-21 -20t-9.5 -29v-8h-57v28q0 14 8.5 25t19.5 20t19.5 18t8.5 18q0 14 -9 21.5t-23 7.5q-15 0 -28 -6.5t-20 -27.5l-38 43q18 24 41 34t50 10q25 -1 45 -10.5t31.5 -27t11.5 -41.5z
" />
    <glyph glyph-name="uni1ECF" unicode="&#x1ecf;" 
d="M250 -9q-62 0 -110.5 30.5t-76.5 84.5t-28 124t28 124t76.5 85t110.5 31t110.5 -31t76.5 -85t28 -124t-28 -124t-76.5 -84.5t-110.5 -30.5zM250 61q37 0 65 22t44.5 60t16.5 88t-16.5 88t-44.5 59.5t-65 21.5q-36 0 -64.5 -21.5t-45 -59.5t-16.5 -88t16 -88t44.5 -60
t65.5 -22zM344 633q0 -21 -9 -33.5t-20.5 -21.5t-21 -20t-9.5 -29v-8h-57v28q0 14 8.5 25t19.5 20t19.5 18t8.5 18q0 14 -9 21.5t-23 7.5q-15 0 -28 -6.5t-20 -27.5l-38 43q18 24 41 34t50 10q25 -1 45 -10.5t31.5 -27t11.5 -41.5z" />
    <glyph glyph-name="uni1ED0" unicode="&#x1ed0;" 
d="M251 -11q-73 0 -123.5 37t-77 109t-26.5 174q0 100 26.5 171.5t77 110t123.5 38.5t123 -38.5t76.5 -110t26.5 -171.5q0 -102 -26.5 -174t-76.5 -109t-123 -37zM251 60q44 0 75.5 28.5t48 84t16.5 136.5q0 77 -16.5 132.5t-48 85.5t-75.5 30t-76 -30t-48.5 -85.5
t-16.5 -132.5q0 -81 16.5 -136.5t48.5 -84t76 -28.5zM119 654l-34 44l149 97h25l154 -97l-33 -43l-132 68zM371 768l-24 46l155 91l42 -75z" />
    <glyph glyph-name="uni1ED1" unicode="&#x1ed1;" 
d="M250 -9q-62 0 -110.5 30.5t-76.5 84.5t-28 124t28 124t76.5 85t110.5 31t110.5 -31t76.5 -85t28 -124t-28 -124t-76.5 -84.5t-110.5 -30.5zM250 61q37 0 65 22t44.5 60t16.5 88t-16.5 88t-44.5 59.5t-65 21.5q-36 0 -64.5 -21.5t-45 -59.5t-16.5 -88t16 -88t44.5 -60
t65.5 -22zM139 508l-44 38l141 140h28l141 -140l-44 -38l-111 107zM388 630l-43 28l84 155l63 -46z" />
    <glyph glyph-name="uni1ED2" unicode="&#x1ed2;" 
d="M251 -11q-73 0 -123.5 37t-77 109t-26.5 174q0 100 26.5 171.5t77 110t123.5 38.5t123 -38.5t76.5 -110t26.5 -171.5q0 -102 -26.5 -174t-76.5 -109t-123 -37zM251 60q44 0 75.5 28.5t48 84t16.5 136.5q0 77 -16.5 132.5t-48 85.5t-75.5 30t-76 -30t-48.5 -85.5
t-16.5 -132.5q0 -81 16.5 -136.5t48.5 -84t76 -28.5zM120 654l-34 44l149 97h25l154 -97l-33 -43l-132 68zM319 802l-173 62l42 75l156 -91z" />
    <glyph glyph-name="uni1ED3" unicode="&#x1ed3;" 
d="M250 -9q-62 0 -110.5 30.5t-76.5 84.5t-28 124t28 124t76.5 85t110.5 31t110.5 -31t76.5 -85t28 -124t-28 -124t-76.5 -84.5t-110.5 -30.5zM250 61q37 0 65 22t44.5 60t16.5 88t-16.5 88t-44.5 59.5t-65 21.5q-36 0 -64.5 -21.5t-45 -59.5t-16.5 -88t16 -88t44.5 -60
t65.5 -22zM140 508l-44 38l141 140h28l141 -140l-44 -38l-111 107zM377 652l-104 137l63 46l84 -155z" />
    <glyph glyph-name="uni1ED4" unicode="&#x1ed4;" 
d="M251 -11q-73 0 -123.5 37t-77 109t-26.5 174q0 100 26.5 171.5t77 110t123.5 38.5t123 -38.5t76.5 -110t26.5 -171.5q0 -102 -26.5 -174t-76.5 -109t-123 -37zM251 60q44 0 75.5 28.5t48 84t16.5 136.5q0 77 -16.5 132.5t-48 85.5t-75.5 30t-76 -30t-48.5 -85.5
t-16.5 -132.5q0 -81 16.5 -136.5t48.5 -84t76 -28.5zM116 654l-34 44l149 97h25l154 -97l-33 -43l-132 68zM464 863q0 -21 -9 -33.5t-20.5 -21.5t-21 -20t-9.5 -29v-8h-57v28q0 14 8.5 25t19.5 20t19.5 18t8.5 18q0 14 -9 21.5t-23 7.5q-15 0 -28 -6.5t-20 -27.5l-38 43
q18 24 41 34t50 10q25 -1 45 -10.5t31.5 -27t11.5 -41.5z" />
    <glyph glyph-name="uni1ED5" unicode="&#x1ed5;" 
d="M250 -9q-62 0 -110.5 30.5t-76.5 84.5t-28 124t28 124t76.5 85t110.5 31t110.5 -31t76.5 -85t28 -124t-28 -124t-76.5 -84.5t-110.5 -30.5zM250 61q37 0 65 22t44.5 60t16.5 88t-16.5 88t-44.5 59.5t-65 21.5q-36 0 -64.5 -21.5t-45 -59.5t-16.5 -88t16 -88t44.5 -60
t65.5 -22zM139 508l-44 38l141 140h28l141 -140l-44 -38l-111 107zM468 736q0 -21 -9 -33.5t-20.5 -21.5t-21 -20t-9.5 -29v-8h-57v28q0 14 8.5 25t19.5 20t19.5 18t8.5 18q0 14 -9 21.5t-23 7.5q-15 0 -28 -6.5t-20 -27.5l-38 43q18 24 41 34t50 10q25 -1 45 -10.5
t31.5 -27t11.5 -41.5z" />
    <glyph glyph-name="uni1ED6" unicode="&#x1ed6;" 
d="M251 -11q-73 0 -123.5 37t-77 109t-26.5 174q0 100 26.5 171.5t77 110t123.5 38.5t123 -38.5t76.5 -110t26.5 -171.5q0 -102 -26.5 -174t-76.5 -109t-123 -37zM251 60q44 0 75.5 28.5t48 84t16.5 136.5q0 77 -16.5 132.5t-48 85.5t-75.5 30t-76 -30t-48.5 -85.5
t-16.5 -132.5q0 -81 16.5 -136.5t48.5 -84t76 -28.5zM120 654l-34 44l149 97h25l154 -97l-33 -43l-132 68zM341 926l50 -24q-19 -41 -39.5 -58t-46.5 -17q-19 0 -34.5 8t-28 18.5t-24 18.5t-23.5 8q-13 0 -24.5 -10.5t-19.5 -30.5l-50 24q12 34 37 55t50 21q19 0 35.5 -8
t30.5 -19t26 -19t23 -8t20 9.5t18 31.5z" />
    <glyph glyph-name="uni1ED7" unicode="&#x1ed7;" 
d="M250 -9q-62 0 -110.5 30.5t-76.5 84.5t-28 124t28 124t76.5 85t110.5 31t110.5 -31t76.5 -85t28 -124t-28 -124t-76.5 -84.5t-110.5 -30.5zM250 61q37 0 65 22t44.5 60t16.5 88t-16.5 88t-44.5 59.5t-65 21.5q-36 0 -64.5 -21.5t-45 -59.5t-16.5 -88t16 -88t44.5 -60
t65.5 -22zM140 508l-44 38l141 140h28l141 -140l-44 -38l-111 107zM342 816l50 -24q-19 -41 -39.5 -58t-46.5 -17q-19 0 -34.5 8t-28 18.5t-24 18.5t-23.5 8q-13 0 -24.5 -10.5t-19.5 -30.5l-50 24q12 34 37 55t50 21q19 0 35.5 -8t30.5 -19t26 -19t23 -8t20 9.5t18 31.5z
" />
    <glyph glyph-name="uni1ED8" unicode="&#x1ed8;" 
d="M251 -11q-73 0 -123.5 37t-77 109t-26.5 174q0 100 26.5 171.5t77 110t123.5 38.5t123 -38.5t76.5 -110t26.5 -171.5q0 -102 -26.5 -174t-76.5 -109t-123 -37zM251 60q44 0 75.5 28.5t48 84t16.5 136.5q0 77 -16.5 132.5t-48 85.5t-75.5 30t-76 -30t-48.5 -85.5
t-16.5 -132.5q0 -81 16.5 -136.5t48.5 -84t76 -28.5zM249 -155q-24 0 -41 17t-17 40q0 25 16.5 41t41.5 16q23 0 40.5 -17t17.5 -40t-17.5 -40t-40.5 -17zM120 654l-34 44l149 97h25l154 -97l-33 -43l-132 68z" />
    <glyph glyph-name="uni1ED9" unicode="&#x1ed9;" 
d="M250 -9q-62 0 -110.5 30.5t-76.5 84.5t-28 124t28 124t76.5 85t110.5 31t110.5 -31t76.5 -85t28 -124t-28 -124t-76.5 -84.5t-110.5 -30.5zM250 61q37 0 65 22t44.5 60t16.5 88t-16.5 88t-44.5 59.5t-65 21.5q-36 0 -64.5 -21.5t-45 -59.5t-16.5 -88t16 -88t44.5 -60
t65.5 -22zM248 -155q-24 0 -41 17t-17 40q0 25 16.5 41t41.5 16q23 0 40.5 -17t17.5 -40t-17.5 -40t-40.5 -17zM139 507l-44 38l141 140h28l141 -140l-44 -38l-111 107z" />
    <glyph glyph-name="uni1EDA" unicode="&#x1eda;" 
d="M251 -11q-73 0 -123.5 37t-77 109t-26.5 174q0 100 26.5 171.5t77 110t123.5 38.5t123 -38.5t76.5 -110t26.5 -171.5q0 -102 -26.5 -174t-76.5 -109t-123 -37zM251 60q44 0 75.5 28.5t48 84t16.5 136.5q0 77 -16.5 132.5t-48 85.5t-75.5 30t-76 -30t-48.5 -85.5
t-16.5 -132.5q0 -81 16.5 -136.5t48.5 -84t76 -28.5zM386 525l-10 57q17 0 25 8t10 28.5t2 57.5h62q0 -52 -6 -85.5t-24.5 -49.5t-58.5 -16zM176 659l-24 46l155 91l42 -75z" />
    </font>
</defs>
</svg>
