<?xml version="1.0" standalone="no"?>
<!DOCTYPE svg PUBLIC "-//W3C//DTD SVG 1.1//EN" "http://www.w3.org/Graphics/SVG/1.1/DTD/svg11.dtd" >
<svg xmlns="http://www.w3.org/2000/svg" xmlns:xlink="http://www.w3.org/1999/xlink" version="1.1">
<metadata>
Created by FontForge 20170731 at Wed Apr  1 16:10:26 2020
 By Aleksey,,,
Copyright 2006 The Inconsolata Project Authors (https://github.com/cyrealtype/Inconsolata)
</metadata>
<defs>
<font id="Inconsolata-SemiBold" horiz-adv-x="500" >
  <font-face 
    font-family="Inconsolata SemiBold"
    font-weight="600"
    font-stretch="normal"
    units-per-em="1000"
    panose-1="0 0 5 9 0 0 0 0 0 0"
    ascent="800"
    descent="-200"
    x-height="463"
    cap-height="623"
    bbox="-80 -400 1455 1000"
    underline-thickness="50"
    underline-position="-275"
    unicode-range="U+000D-FFFD"
  />
<missing-glyph 
 />
    <glyph glyph-name=".notdef" 
 />
    <glyph glyph-name=".null" horiz-adv-x="0" 
 />
    <glyph glyph-name="nonmarkingreturn" horiz-adv-x="333" 
 />
    <glyph glyph-name="NULL" 
 />
    <glyph glyph-name="NULL" 
 />
    <glyph glyph-name="CR" unicode="&#xd;" 
 />
    <glyph glyph-name="space" unicode=" " 
 />
    <glyph glyph-name="exclam" unicode="!" 
d="M205 204l-27 382q-1 29 7 47t23 27t33 9t32.5 -8.5t23 -28t7.5 -52.5l-29 -376h-70zM239 -11q-30 0 -51.5 20.5t-21.5 49.5q0 28 21.5 49.5t51.5 21.5q31 0 52.5 -22t21.5 -49q0 -28 -22 -49t-52 -21z" />
    <glyph glyph-name="quotedbl" unicode="&#x22;" 
d="M125 665h96q0 -60 -1.5 -96t-4 -60.5t-6 -47t-6.5 -54.5h-60q-3 32 -6.5 54.5t-6 46.5t-4 60.5t-1.5 96.5zM279 665h96q0 -60 -1.5 -96t-4 -60.5t-6 -47t-6.5 -54.5h-60q-3 32 -6.5 54.5t-6 46.5t-4 60.5t-1.5 96.5z" />
    <glyph glyph-name="numbersign" unicode="#" 
d="M261 9l22 169h-93l-21 -165l-79 -1l20 165h-91l4 66h95l18 149h-103l3 67h106l19 166l82 1l-20 -165h92l19 162l84 1l-19 -161h84l-7 -68h-85l-18 -148h91l-6 -66h-92l-21 -167zM197 245h92l19 148h-93z" />
    <glyph glyph-name="dollar" unicode="$" 
d="M233 -46v57q-33 3 -65.5 12.5t-61 26.5t-52.5 41l49 77q8 -4 9 -12t7 -15q15 -15 32.5 -26t38 -17.5t41.5 -9.5v193q-52 20 -87.5 42.5t-54.5 52.5t-19 70q0 39 22 69.5t59 50.5t82 26v59h70q2 -1 2.5 -2.5t0.5 -3.5t-3 -8.5t-4 -14.5v-29q31 -4 58 -14t51 -26t43 -38
l-50 -63q-8 1 -9.5 9.5t-7.5 12.5q-7 8 -16 15t-20 12t-22.5 8.5t-24.5 5.5v-169q58 -19 94.5 -41t54.5 -51t18 -72q0 -39 -21 -75.5t-58.5 -62t-89.5 -32.5v-58h-66zM301 89q25 5 43.5 18.5t29 32t10.5 37.5q0 21 -9.5 36t-27.5 27t-46 20v-171zM231 372v144
q-22 -2 -39 -11.5t-26.5 -22.5t-9.5 -31q0 -16 8.5 -30t25.5 -26.5t41 -22.5z" />
    <glyph glyph-name="percent" unicode="%" 
d="M38 0l349 623h75l-352 -623h-72zM369 -10q-32 0 -58.5 17.5t-42.5 47.5t-16 67q0 38 16 67.5t42.5 47.5t58.5 18t58 -18t42 -48t16 -67q0 -38 -15.5 -68t-42 -47t-58.5 -17zM369 52q14 0 24 8.5t16 24t6 36.5q0 20 -5.5 36t-16 25.5t-25.5 9.5q-13 0 -23.5 -8
t-16.5 -23.5t-6 -38.5q0 -22 6.5 -38t17.5 -24t23 -8zM139 368q-31 0 -58 17.5t-43 48t-16 68.5q0 37 16 67t43 47.5t58 17.5q32 0 58 -18t42.5 -48t16.5 -67q0 -39 -15.5 -69t-42 -47t-59.5 -17zM139 432q13 0 22.5 7.5t15.5 23t6 38.5q0 17 -3.5 30t-9.5 22t-14.5 13
t-17.5 4q-13 0 -22.5 -7.5t-16 -22.5t-6.5 -39q0 -23 6.5 -38t16.5 -23t23 -8z" />
    <glyph glyph-name="ampersand" unicode="&#x26;" 
d="M406 -13l-52 78q-20 -23 -45 -40.5t-54 -26.5t-61 -9q-49 0 -85.5 21t-56.5 56.5t-20 79.5q0 31 7.5 59t22.5 53t37 47t50 39q-33 40 -49 77.5t-16 74.5q0 29 11.5 53.5t32 42.5t47 28.5t55.5 10.5q42 0 73 -19.5t48.5 -50t17.5 -65.5q0 -28 -8 -53.5t-21.5 -47
t-32 -39.5t-40.5 -32l97 -135q10 11 17 22t12 22t8 22t3 22q0 4 1 7.5t5 7.5l75 -52q-11 -21 -22.5 -41t-23.5 -38t-25 -35l61 -80zM203 70q20 0 37.5 6.5t34.5 19t31 29.5l-110 154q-17 -11 -29.5 -25.5t-21.5 -30t-13.5 -32.5t-4.5 -35q0 -19 5.5 -34.5t15.5 -27.5t24 -18
t31 -6zM221 385q15 9 27 20.5t20.5 25.5t12.5 29.5t4 30.5q0 26 -15 44.5t-39 18.5q-17 0 -30.5 -8t-21 -22t-7.5 -30q0 -15 5 -32t16 -36t28 -41z" />
    <glyph glyph-name="quotesingle" unicode="'" 
d="M202 665h96q0 -60 -1.5 -96t-4 -60.5t-6 -47t-6.5 -54.5h-60q-3 32 -6.5 54.5t-6 46.5t-4 60.5t-1.5 96.5z" />
    <glyph glyph-name="parenleft" unicode="(" 
d="M396 -107q-92 41 -156 107t-97.5 148.5t-33.5 171.5t33 169.5t96 144.5t152 104l25 -83q-49 -26 -87.5 -61t-66 -78t-42 -93t-14.5 -106t15 -106.5t43 -95t68 -80.5t91 -61z" />
    <glyph glyph-name="parenright" unicode=")" 
d="M132 -107l-26 81q51 25 91 61t68 80.5t43 95t15 106.5t-14.5 106t-42 93t-66 78t-87.5 61l25 83q90 -40 152.5 -104t95.5 -144.5t33 -169.5t-33.5 -171.5t-97.5 -148.5t-156 -107z" />
    <glyph glyph-name="asterisk" unicode="*" 
d="M150 113l-79 63l125 136l-161 48l35 90l147 -75l-20 165h114l-25 -165l143 68l37 -85l-161 -45l121 -137l-80 -62l-96 156z" />
    <glyph glyph-name="plus" unicode="+" 
d="M212 104v180h-171v78h171v165h85v-165h164v-78h-164v-180h-85z" />
    <glyph glyph-name="comma" unicode="," 
d="M209 -170l-53 44q28 26 44 53t16 45q0 11 -7 20.5t-16.5 18.5t-16.5 21.5t-7 28.5q0 30 20.5 48t50.5 18q34 0 56.5 -26.5t22.5 -68.5q0 -22 -7 -45.5t-20.5 -49t-34 -52t-48.5 -55.5z" />
    <glyph glyph-name="hyphen" unicode="-" 
d="M107 275v84h288v-84h-288z" />
    <glyph glyph-name="period" unicode="." 
d="M239 -12q-29 0 -49.5 20.5t-20.5 48.5q0 29 20.5 49.5t49.5 20.5q28 0 48.5 -20.5t20.5 -49.5q0 -28 -20.5 -48.5t-48.5 -20.5z" />
    <glyph glyph-name="slash" unicode="/" 
d="M141 -43l-89 40l309 669l88 -45z" />
    <glyph glyph-name="zero" unicode="0" 
d="M107 175l266 324l21 -65l-266 -322zM250 -11q-64 0 -110.5 37t-71 108.5t-24.5 173.5q0 101 24.5 173t71 110.5t110.5 38.5t110.5 -38.5t71 -110.5t24.5 -173q0 -102 -24.5 -173.5t-71 -108.5t-110.5 -37zM250 66q37 0 61.5 28.5t37.5 82.5t13 131q0 75 -13 129
t-37.5 83.5t-61.5 29.5q-36 0 -61 -29.5t-38 -83.5t-13 -129q0 -77 13 -131t38 -82.5t61 -28.5z" />
    <glyph glyph-name="one" unicode="1" 
d="M215 0v513l-117 -39l-22 62l166 88h72v-624h-99z" />
    <glyph glyph-name="two" unicode="2" 
d="M63 74q56 56 101 100.5t79.5 81t57.5 68t34.5 62.5t11.5 66q0 25 -6.5 43t-18.5 29.5t-29.5 17t-39.5 5.5t-41.5 -5.5t-37 -17t-32.5 -29.5q-10 -14 -12 -21t-1 -15l-5 -7l-8 5l-68 53q21 39 52.5 66t70.5 40.5t82 13.5q55 0 97.5 -22t67.5 -62t25 -95q0 -39 -12.5 -75
t-35.5 -70.5t-54 -69.5t-69 -73l-81 -81h208q17 0 24 2t13 7h9v-9v-82h-382v74z" />
    <glyph glyph-name="three" unicode="3" 
d="M237 -11q-53 0 -103 18t-82 55l54 74l6 8l7 -6q1 -7 4 -15t14 -20q19 -15 42 -24.5t53 -9.5q35 0 58 13.5t35 38t12 55.5q0 33 -11 55.5t-32.5 35.5t-52.5 17t-71 0v78q45 -1 75 7t46.5 22.5t23 33.5t6.5 40q0 19 -6 34.5t-17 26.5t-26.5 17t-34.5 6q-20 0 -40 -5
t-38 -15.5t-34 -27.5l-57 58q35 39 80.5 55t90.5 16q54 0 94 -20t62.5 -56t22.5 -82q0 -34 -12.5 -62.5t-34.5 -48.5t-51 -30q32 -10 58.5 -31t42.5 -52.5t16 -74.5q0 -51 -24 -93t-68.5 -66.5t-107.5 -24.5v0z" />
    <glyph glyph-name="four" unicode="4" 
d="M296 0v149h-254v67l275 408h76v-395h81v-81h-81v-148h-97zM145 229h152v234z" />
    <glyph glyph-name="five" unicode="5" 
d="M251 -11q-62 0 -113 24.5t-81 73.5l72 56l7 6l6 -6q-1 -8 2.5 -15t13.5 -20q18 -19 40.5 -28.5t53.5 -9.5q23 0 42.5 9.5t34.5 26.5t23 40.5t8 51.5q0 30 -8 54.5t-23 41.5t-35.5 26.5t-45.5 9.5q-21 0 -40.5 -5.5t-36 -17.5t-30.5 -29l-60 18l21 327h328v-82h-245
l-9 -154q14 8 29.5 13t32 7.5t31.5 2.5q41 0 75 -14t59 -40.5t38.5 -65t13.5 -88.5q0 -66 -26.5 -114t-72.5 -73.5t-105 -25.5v0z" />
    <glyph glyph-name="six" unicode="6" 
d="M260 -11q-65 0 -110.5 36.5t-69 103.5t-23.5 156q0 111 29 188t80.5 118t118.5 41q41 0 80.5 -14t70.5 -46l-55 -63l-7 -7l-6 6q-1 8 -5.5 13.5t-18.5 15.5q-7 4 -15 6.5t-17 4t-19 1.5q-15 0 -33.5 -5t-36 -17.5t-33 -35t-25.5 -58.5t-12 -87q14 19 33.5 32.5t42 21
t45.5 7.5q37 0 68.5 -13t55.5 -39t37.5 -64t13.5 -87q0 -62 -25 -111t-67 -76.5t-97 -27.5v0zM263 70q19 0 36 9.5t30 26.5t20.5 41.5t7.5 55.5q0 32 -8.5 55.5t-22 39t-30.5 23t-35 7.5q-16 0 -31 -5.5t-28 -15.5t-24.5 -23t-21.5 -30q-2 -36 4.5 -69.5t20.5 -59
t34.5 -40.5t47.5 -15v0z" />
    <glyph glyph-name="seven" unicode="7" 
d="M135 0q29 93 59.5 182t63 177t67.5 177h-255v87h370v-54q-29 -70 -56 -139.5t-52.5 -140.5t-48.5 -142.5t-45 -146.5h-103z" />
    <glyph glyph-name="eight" unicode="8" 
d="M250 -11q-61 0 -106.5 22.5t-70 61t-24.5 86.5q0 39 15 71t42 58t63 44q-27 16 -47.5 38t-32 49t-11.5 56q0 44 21.5 79.5t61 57t94.5 21.5q59 0 97.5 -20.5t58.5 -55t20 -76.5q0 -24 -6 -46t-18 -41.5t-28.5 -35.5t-37.5 -28q26 -12 46.5 -30t35 -40t22 -46.5t7.5 -50.5
q0 -51 -25 -90t-70.5 -61.5t-106.5 -22.5zM252 73q34 0 56.5 12.5t34 33.5t11.5 48q0 21 -8.5 40t-24 35.5t-38 29.5t-49.5 22q-19 -10 -35 -22.5t-27.5 -28.5t-18 -34t-6.5 -39q0 -27 12.5 -49t36 -35t56.5 -13zM269 362q16 10 28.5 23t21.5 27t13.5 30t4.5 32
q0 21 -9.5 38.5t-28.5 28.5t-46 11t-45 -10.5t-27 -27.5t-9 -37t7.5 -36.5t21 -30.5t31 -26t37.5 -22z" />
    <glyph glyph-name="nine" unicode="9" 
d="M225 -11q-46 0 -87.5 13.5t-75.5 42.5l52 73l7 8l7 -6q1 -7 5 -14t17 -17q15 -10 32.5 -14.5t37.5 -4.5q33 0 58 19t41.5 52t25 77t9.5 93q0 86 -11 138.5t-35 76.5t-60 24q-23 0 -41.5 -9t-32 -26t-20.5 -41t-7 -55q0 -27 7.5 -48t21.5 -35t32.5 -21.5t39.5 -7.5
q28 0 50.5 6.5t41 22t32.5 41.5l10 -88q-16 -19 -37 -33t-47 -22t-57 -8q-40 0 -74 14t-59.5 39.5t-39.5 61.5t-14 81q0 44 15 82t41.5 66.5t62 44t76.5 15.5q63 0 107 -33.5t66.5 -96t22.5 -150.5q0 -119 -26 -199t-75 -120.5t-119 -41.5v0z" />
    <glyph glyph-name="colon" unicode=":" 
d="M236 296q-28 0 -49 21t-21 49t21 49t49 21q27 0 49 -20.5t22 -49.5q0 -28 -20.5 -49t-50.5 -21zM236 -12q-30 0 -50 20.5t-20 48.5q0 29 21 50t49 21q27 0 49 -21t22 -50q0 -27 -20.5 -48t-50.5 -21z" />
    <glyph glyph-name="semicolon" unicode=";" 
d="M208 -170l-52 44q28 26 44 53t16 45q0 11 -7 20.5t-17 18.5t-17 21.5t-7 28.5q0 20 9.5 34.5t26 23t35.5 8.5q35 0 57 -26.5t22 -68.5q0 -30 -12 -62t-36 -66.5t-62 -73.5zM236 296q-28 0 -49 21t-21 49t21 49t49 21q27 0 49 -20.5t22 -49.5q0 -28 -20.5 -49t-50.5 -21z
" />
    <glyph glyph-name="less" unicode="&#x3c;" 
d="M464 40l-430 253v57l427 227v-93l-325 -163l328 -182v-99z" />
    <glyph glyph-name="equal" unicode="=" 
d="M43 381v78h416v-78h-416zM43 172v79h416v-79h-416z" />
    <glyph glyph-name="greater" unicode="&#x3e;" 
d="M39 40v96l327 185l-326 163v93l429 -227v-57z" />
    <glyph glyph-name="question" unicode="?" 
d="M216 244q0 35 9.5 59.5t25 43t32 35t32 33t25 37.5t9.5 50q0 21 -7 37t-20.5 27t-31 16.5t-38.5 5.5q-30 0 -55.5 -10t-45.5 -30q-11 -13 -13.5 -20t-2.5 -15l-5 -6l-8 6l-62 46q23 35 50.5 59t64 37t83.5 13q56 0 97.5 -21.5t64 -58t22.5 -82.5q0 -38 -10 -65
t-25.5 -46.5t-33.5 -35.5t-33.5 -31.5t-26 -35.5t-10.5 -48v-47h-87v47zM262 -12q-29 0 -49.5 20.5t-20.5 49.5q0 28 20.5 48.5t49.5 20.5q28 0 48.5 -20.5t20.5 -48.5q0 -29 -20.5 -49.5t-48.5 -20.5z" />
    <glyph glyph-name="at" unicode="@" 
d="M295 -11q-52 0 -100 19.5t-86 60t-60 101.5t-22 145q0 82 20.5 142t55.5 99.5t79 58.5t89 19q43 0 79.5 -14.5t63.5 -43.5t41.5 -74t14.5 -106v-226h-78v34q-17 -20 -38.5 -30.5t-49.5 -10.5q-38 0 -68 17t-47 48t-17 69q0 35 12.5 64.5t39.5 50.5t68 31.5t97 8.5
q-1 36 -16 61.5t-41 39.5t-64 14q-32 0 -62 -14.5t-53 -44.5t-36.5 -76t-13.5 -110q0 -68 16 -116.5t44.5 -80.5t63.5 -47.5t74 -15.5q27 0 54 8.5t53 27.5l38 -62q-33 -23 -72 -35t-79 -12zM316 232q21 0 35 8.5t23.5 26.5t13.5 47t4 70q-49 3 -80.5 -7t-46 -29t-14.5 -46
q0 -34 16.5 -52t48.5 -18z" />
    <glyph glyph-name="A" unicode="A" 
d="M363 158h-237l15 71h205zM250 437l-139 -437h-97l217 630h39l217 -630h-100z" />
    <glyph glyph-name="B" unicode="B" 
d="M41 0v623h186q55 0 95.5 -11t67 -32t39.5 -49.5t13 -62.5q0 -27 -10.5 -54.5t-30 -49t-49.5 -32.5q26 -10 47 -26t36 -36.5t23.5 -43.5t8.5 -48q0 -40 -15 -73t-45 -56.5t-75 -36t-106 -12.5h-185zM139 83h98q39 0 67 10.5t43.5 32.5t15.5 56q0 32 -13.5 56.5t-44.5 38.5
t-84 14h-82v-208zM139 371h78q48 0 75.5 11t39 31t11.5 45q0 19 -6.5 34t-20.5 26.5t-36 17.5t-52 6h-89v-171z" />
    <glyph glyph-name="C" unicode="C" 
d="M281 -11q-51 0 -95.5 19t-78.5 58t-53.5 99t-19.5 143q0 73 14.5 127.5t39.5 92t57 60t67 33t70 10.5q70 0 119.5 -32.5t74.5 -89.5l-67 -45l-8 -5l-5 7q2 8 -0.5 15.5t-11.5 20.5q-22 29 -47 39t-51 10q-32 0 -60.5 -15.5t-49.5 -45.5t-33 -74.5t-12 -102.5
q0 -56 11.5 -100.5t32 -76t48 -48t59.5 -16.5q25 0 46 7t39 23.5t32 39.5l70 -49q-33 -55 -79 -79.5t-109 -24.5v0z" />
    <glyph glyph-name="D" unicode="D" 
d="M46 -1v624h155q55 0 92.5 -10t64 -29t46.5 -47q21 -28 35.5 -63t21.5 -76.5t7 -89.5q-1 -72 -17.5 -129t-50 -97t-85.5 -61.5t-126 -21.5h-143zM141 77h46q67 0 107.5 27.5t59 79t18.5 121.5q0 74 -17 127t-54.5 82.5t-103.5 29.5h-56v-467z" />
    <glyph glyph-name="E" unicode="E" 
d="M54 0v624h397v-82h-302v-176h249v-83h-249v-201h300v-82h-395z" />
    <glyph glyph-name="F" unicode="F" 
d="M70 0v624h378v-82h-287v-165h232v-82h-232v-295h-91z" />
    <glyph glyph-name="G" unicode="G" 
d="M277 -11q-77 0 -133 39.5t-85.5 111.5t-29.5 167q-1 80 15.5 136.5t43.5 93.5t60 58t66 29t61 8q39 0 76 -13t67.5 -36.5t48.5 -57.5l-60 -57l-8 -7l-6 7q1 8 -2 15t-13 20q-13 15 -27.5 25t-32.5 15.5t-42 5.5t-46 -7.5t-41 -24t-33 -43.5t-22 -65.5t-8 -89.5
q0 -62 11 -108t30.5 -77t47.5 -47t62 -16q12 0 25.5 2t27 5.5t26 10.5t23.5 15v127h-106v82h195v-259q-44 -34 -92.5 -49.5t-98.5 -15.5v0z" />
    <glyph glyph-name="H" unicode="H" 
d="M42 623h100h9v-9q-6 -6 -7 -13t-1 -24v-211h209v257h99h10v-9q-6 -6 -7.5 -13t-1.5 -24v-577h-101v286h-208v-286h-101v623z" />
    <glyph glyph-name="I" unicode="I" 
d="M74 0v81h122v461h-116v81h333v-81h-122v-462h128v-80h-345z" />
    <glyph glyph-name="J" unicode="J" 
d="M194 -13q-46 0 -87 16.5t-70 52.5l50 75l7 8l7 -5q1 -8 4.5 -15.5t15.5 -18.5q15 -11 31 -17.5t36 -6.5q29 0 47.5 14.5t27.5 46t9 80.5v325h-116v81h308v-81h-93v-331q1 -58 -13.5 -101t-40 -70.5t-57 -40t-66.5 -12.5v0z" />
    <glyph glyph-name="K" unicode="K" 
d="M181 292l-44 -54v-238h-99v623h98h10v-9q-6 -6 -7.5 -13t-1.5 -24v-220l226 271q6 -1 15 -2t18 -1.5t17.5 -1t15.5 -0.5h43l-220 -264l233 -359l-116 -4z" />
    <glyph glyph-name="L" unicode="L" 
d="M60 623h100h9v-9q-6 -6 -7 -13t-1 -24v-495h290v-82h-391v623z" />
    <glyph glyph-name="M" unicode="M" 
d="M35 0v623h84l132 -292l134 293h83v-624h-87v447l-110 -237h-46l-104 235v-445h-86z" />
    <glyph glyph-name="N" unicode="N" 
d="M41 623h101l229 -428l-4 428h89h10v-9q-6 -6 -7.5 -13t-1.5 -24v-577h-88l-238 454v-454h-90v623z" />
    <glyph glyph-name="O" unicode="O" 
d="M251 -11q-74 0 -125.5 37t-77.5 109t-26 175q0 101 26 172.5t77.5 109.5t125.5 38q75 0 126 -38t77.5 -109.5t26.5 -172.5q0 -103 -26.5 -175t-77.5 -109t-126 -37zM251 70q41 0 70 27t45 80.5t16 133.5q0 75 -16 128t-45 81.5t-70 28.5t-70.5 -28.5t-44.5 -81.5
t-15 -128q0 -80 15 -133.5t44.5 -80.5t70.5 -27z" />
    <glyph glyph-name="P" unicode="P" 
d="M51 0v623h209q71 0 116.5 -24.5t67.5 -65.5t22 -90q0 -37 -12 -69t-36.5 -56.5t-62.5 -38t-90 -13.5h-113v-266h-101zM152 349h105q37 0 60.5 11.5t35.5 33t12 48.5t-12 48t-35.5 33.5t-59.5 12.5h-106v-187z" />
    <glyph glyph-name="Q" unicode="Q" 
d="M386 -145q-48 -2 -81.5 4.5t-54 23t-30.5 44t-11 67.5q-53 10 -95 49t-66.5 106t-24.5 161q0 89 19.5 150.5t52 99.5t73.5 55t83 17q47 0 89 -19t73.5 -58t49 -99.5t16.5 -144.5q0 -71 -12.5 -126.5t-35.5 -94t-56 -62.5t-74 -33q1 -18 7 -31.5t18.5 -21t35.5 -7.5l82 5
l-3 -85h-55zM254 73q25 0 47.5 12.5t41 40t29.5 71t11 104.5q0 72 -11.5 120t-30.5 76.5t-42.5 41t-46.5 12.5q-32 0 -57 -17.5t-41.5 -48t-25.5 -72.5t-9 -92q0 -77 17 -133t47 -85.5t71 -29.5z" />
    <glyph glyph-name="R" unicode="R" 
d="M48 0v623h194q75 0 122.5 -22.5t70 -63t22.5 -95.5q0 -35 -14.5 -69.5t-42 -61t-64.5 -38.5l138 -273h-105l-131 264h-89v-264h-101zM149 347h100q54 0 80.5 25.5t26.5 67.5q0 26 -11.5 48t-35 35t-60.5 13h-100v-189z" />
    <glyph glyph-name="S" unicode="S" 
d="M244 -11q-62 0 -114.5 19t-89.5 57l49 83l5 9l8 -5q2 -7 5 -15t15 -20q25 -19 57 -31.5t70 -12.5q26 0 46.5 6.5t36 18t23.5 28t8 36.5q0 14 -3 26.5t-11 23t-22.5 21.5t-37.5 23.5t-55 26.5q-65 28 -102.5 56.5t-53.5 62t-16 73.5q0 46 25 81.5t69.5 56t101.5 20.5
q38 0 71 -9.5t62 -27t52 -43.5l-58 -68l-6 -8l-7 6q-1 8 -3.5 16t-13.5 20q-21 19 -44.5 26t-55.5 7q-21 0 -38.5 -5.5t-30 -16t-19 -23.5t-6.5 -28q0 -14 3 -25t11.5 -22t24 -22.5t39.5 -24t59 -27.5q47 -21 78.5 -41t50 -41.5t26.5 -47t8 -57.5q0 -45 -22.5 -86.5
t-70.5 -68.5t-124 -27v0z" />
    <glyph glyph-name="T" unicode="T" 
d="M196 0v539h-170v85h445v-85h-178v-539h-97z" />
    <glyph glyph-name="U" unicode="U" 
d="M250 -12q-101 0 -155 60.5t-54 168.5v406h97h10v-9q-6 -6 -7.5 -13t-1.5 -24v-361q0 -68 24.5 -108t87.5 -40q64 0 89 40t25 111v404h97v-403q0 -80 -27 -131t-74.5 -76t-110.5 -25v0z" />
    <glyph glyph-name="V" unicode="V" 
d="M223 -2l-204 626h99l140 -453l133 452h95l-201 -625h-62z" />
    <glyph glyph-name="W" unicode="W" 
d="M101 0l-88 623h86l51 -401l87 353h46l88 -353l40 401h81l-86 -623h-56l-95 392l-96 -392h-58z" />
    <glyph glyph-name="X" unicode="X" 
d="M33 0l165 318l-162 306h101l114 -216l112 216h96l-153 -305l172 -319h-105l-121 226l-117 -226h-102z" />
    <glyph glyph-name="Y" unicode="Y" 
d="M208 0v246l-188 377h105l136 -274l122 274h100l-174 -377v-246h-101z" />
    <glyph glyph-name="Z" unicode="Z" 
d="M42 65l298 473h-286v85h403v-65l-293 -474h263q17 0 24 1.5t13 7.5h8v-9v-84h-430v65z" />
    <glyph glyph-name="bracketleft" unicode="[" 
d="M122 -89v759h303v-81h-211v-600h212v-78h-304z" />
    <glyph glyph-name="backslash" unicode="\" 
d="M363 -44l-311 667l89 43l310 -668z" />
    <glyph glyph-name="bracketright" unicode="]" 
d="M427 -89h-304v78h212v600h-211v81h303v-759z" />
    <glyph glyph-name="asciicircum" unicode="^" 
d="M153 335l-74 37l153 252h44l140 -252l-75 -37l-90 161z" />
    <glyph glyph-name="underscore" unicode="_" 
d="M33 -94v81h435v-81h-435z" />
    <glyph glyph-name="grave" unicode="`" 
d="M254 505l-108 140l72 51l83 -160z" />
    <glyph glyph-name="a" unicode="a" 
d="M202 -11q-77 0 -119.5 35.5t-42.5 92.5q0 38 17.5 68.5t50 52.5t78.5 34.5t104 12.5q12 0 25.5 -0.5t29 -1.5t31.5 -2l3 -71q-14 2 -29.5 3t-30.5 1h-28q-39 0 -67.5 -5.5t-47 -16.5t-27.5 -27t-9 -37q0 -17 6 -29.5t16.5 -19.5t25 -10.5t31.5 -3.5q33 0 58 11t42.5 32.5
t26.5 54t9 76.5q0 61 -13.5 95t-39.5 47t-65 13q-32 0 -61.5 -10.5t-57.5 -38.5l-53 60q38 36 83.5 52t93.5 16q44 0 81.5 -10.5t66 -34.5t44 -65t15.5 -104v-259h-104v57q-13 -20 -29 -33.5t-34.5 -21t-38.5 -10.5t-41 -3z" />
    <glyph glyph-name="b" unicode="b" 
d="M274 -11q-25 0 -48.5 7.5t-44 22t-36.5 35.5l-21 -54h-72v669h100h9v-9q-5 -6 -6.5 -13t-1.5 -24v-219q10 16 24 28.5t30.5 22t35 14.5t36.5 5q42 -1 76.5 -15.5t59.5 -44t38.5 -73.5t13.5 -103q0 -63 -15.5 -110t-42.5 -78t-62 -46t-73 -15v0zM257 69q22 0 41.5 8t35 27
t24.5 50t9 75q0 41 -7.5 72t-21.5 52.5t-34.5 32t-44.5 10.5q-33 0 -56.5 -20t-36.5 -56.5t-13 -86.5q0 -39 6 -69.5t18.5 -51.5t32 -32t47.5 -11v0z" />
    <glyph glyph-name="c" unicode="c" 
d="M281 -11q-51 0 -94.5 17.5t-75 50t-49 76t-17.5 95.5t17.5 96.5t49 77.5t75 51.5t93.5 18.5q62 0 108.5 -23t75.5 -65l-57 -60l-7 -7l-6 6q-1 8 -3.5 15.5t-13.5 20.5q-20 18 -44 25.5t-55 7.5q-26 0 -49.5 -11t-42 -32t-29.5 -51t-11 -67q0 -36 11 -65.5t30 -50
t44.5 -32t53.5 -11.5q22 0 42.5 5.5t39.5 18t36 32.5l55 -64q-36 -39 -82.5 -57t-94.5 -18v0z" />
    <glyph glyph-name="d" unicode="d" 
d="M228 -11q-37 0 -71.5 15.5t-61.5 45.5t-42.5 76.5t-15.5 107.5q0 62 15.5 107t42.5 74.5t62 44t73 14.5q27 0 49.5 -7t40.5 -21t29 -35v258h97h9v-9q-5 -6 -7 -13t-1 -24v-558q0 -16 1.5 -32.5t8.5 -32.5h-98q-5 11 -7 20t-2 18v19q-14 -21 -32 -36.5t-41 -23.5t-49 -8v0
zM245 71q27 0 46 11t31 32t18 51t6 68q0 51 -11 87.5t-34.5 56t-59.5 19.5q-26 0 -46 -11t-33.5 -31.5t-20.5 -49.5t-7 -65q0 -51 14.5 -89t39.5 -58.5t57 -20.5v0z" />
    <glyph glyph-name="e" unicode="e" 
d="M271 -11q-50 0 -92 16t-72.5 46.5t-47.5 75.5t-17 102q0 58 17 103.5t46.5 76.5t69 48t84.5 17q39 0 74.5 -14t62 -41.5t42 -69.5t15.5 -98v-22.5t-1 -21.5h-314q2 -36 14 -62.5t30.5 -43.5t42.5 -25t50 -8q23 0 42.5 4.5t37.5 14.5t33 27l52 -51q-21 -25 -47 -41.5
t-56.5 -24.5t-65.5 -8zM140 282h216q0 28 -7 49t-20.5 36t-32.5 22.5t-42 7.5q-22 0 -40.5 -7t-33.5 -21t-25.5 -35.5t-14.5 -51.5z" />
    <glyph glyph-name="f" unicode="f" 
d="M146 384h-99v79h99v31q0 62 25.5 102.5t67.5 60t92 19.5q46 0 85 -16t67 -48l-42 -69l-5 -8l-7 4q-2 8 -5.5 16t-15.5 19q-17 13 -33 18t-39 5q-28 0 -48.5 -10.5t-32 -33t-11.5 -59.5v-31h144v-79h-144v-384h-98v384z" />
    <glyph glyph-name="g" unicode="g" 
d="M241 -176q-48 0 -87 8t-66.5 23.5t-41.5 38t-14 50.5q0 26 12 47t32 36.5t44 23.5l44 -20q-16 -10 -28 -20t-18.5 -22.5t-6.5 -29.5q0 -15 10 -26t28 -18t43 -11t56 -4q41 0 68 7.5t40.5 21.5t13.5 32t-8 28.5t-30 16t-64 5.5q-34 0 -64.5 2.5t-56 9.5t-44.5 18
t-29.5 27.5t-10.5 39.5q0 30 18 54.5t45 44.5l45 -28q-9 -10 -16 -17t-11 -13.5t-4 -15.5q0 -13 15 -22t48.5 -13t89.5 -4q47 0 78.5 -9.5t49.5 -26.5t25.5 -38.5t7.5 -47.5q0 -28 -12 -54.5t-37.5 -47.5t-66 -33.5t-97.5 -12.5zM228 156q-49 0 -87 21.5t-59.5 57.5
t-21.5 81t21.5 81.5t59.5 58t87 21.5q50 0 88 -21.5t59.5 -58t21.5 -81.5t-21.5 -81t-59.5 -57.5t-88 -21.5zM228 231q25 0 44 11t30 30.5t11 43.5q0 25 -11 43.5t-30.5 29.5t-43.5 11q-23 0 -42 -11t-30.5 -30t-11.5 -43q0 -23 11 -42.5t30 -31t43 -11.5zM369 381l-38 47
q29 24 63.5 36.5t76.5 9.5l10 -71q-31 4 -60 -0.5t-52 -21.5z" />
    <glyph glyph-name="h" unicode="h" 
d="M61 669h98h10v-9q-6 -6 -7.5 -13t-1.5 -24v-228q17 25 40.5 42.5t49 27t51.5 9.5q44 0 76.5 -20t50.5 -62.5t18 -112.5v-279h-98v278q0 43 -9 68.5t-25 37t-38 11.5q-18 0 -34.5 -6t-31.5 -16.5t-26 -26.5t-17.5 -36t-6.5 -44v-266h-99v669z" />
    <glyph glyph-name="i" unicode="i" 
d="M90 0v79h115v305h-110v79h210v-384h105v-79h-320zM249 546q-27 0 -45.5 18.5t-18.5 43.5q0 27 18 45t46 18q26 0 45.5 -19t19.5 -44t-19.5 -43.5t-45.5 -18.5z" />
    <glyph glyph-name="j" unicode="j" 
d="M192 -175q-46 0 -85 17.5t-68 51.5l55 72l6 8l7 -5q2 -8 4.5 -16t12.5 -20q13 -11 29.5 -18t37.5 -7q28 0 47 11.5t28.5 36t9.5 62.5v365h-165v80h266v-437q0 -71 -26 -115.5t-68 -65t-91 -20.5v0zM319 546q-27 0 -45.5 18.5t-18.5 43.5q0 27 18 45t46 18q26 0 45.5 -19
t19.5 -44t-19.5 -43.5t-45.5 -18.5z" />
    <glyph glyph-name="k" unicode="k" 
d="M203 217l-46 -43v-174h-100v669h99h10v-9q-6 -6 -7.5 -13t-1.5 -24v-343l196 186q7 -2 15 -3t16.5 -1.5t16.5 -1t14 -0.5h45l-187 -182l214 -278l-116 -4z" />
    <glyph glyph-name="l" unicode="l" 
d="M68 0v79h132v511h-126v79h227v-590h131v-79h-364z" />
    <glyph glyph-name="m" unicode="m" 
d="M33 0v463h85v-38q11 16 24.5 26.5t29 16.5t31.5 6q18 0 34 -7t28 -20t18 -34q10 20 24.5 33t34 20.5t41.5 7.5q24 0 41.5 -9.5t29 -26t17 -40t4.5 -52.5v-346h-87v320q0 35 -4 52t-11.5 23t-17.5 6q-15 0 -28.5 -13.5t-22 -36.5t-8.5 -51v-300h-84v316q0 52 -8.5 69
t-29.5 17q-10 0 -19.5 -6.5t-17.5 -19t-12.5 -30.5t-4.5 -42v-304h-87z" />
    <glyph glyph-name="n" unicode="n" 
d="M60 0v463h100v-71q17 25 38 43t47 28.5t56 10.5q39 0 72 -20t53 -62.5t20 -112.5v-279h-99v278q0 41 -9 67t-25.5 38t-39.5 12q-20 0 -40 -9t-36.5 -24.5t-26.5 -38t-10 -50.5v-273h-100z" />
    <glyph glyph-name="o" unicode="o" 
d="M250 -10q-63 0 -112 30.5t-78 85t-29 125.5q0 70 29 124.5t78 86t112 31.5q62 0 111.5 -31.5t78.5 -86t29 -124.5t-29 -124.5t-78.5 -85.5t-111.5 -31zM250 71q34 0 60.5 20.5t41.5 56.5t15 84q0 49 -15 85t-41.5 56t-60.5 20t-60.5 -20t-41.5 -56t-15 -85q0 -48 15 -84
t41.5 -56.5t60.5 -20.5z" />
    <glyph glyph-name="p" unicode="p" 
d="M52 -167v630h99v-74q13 30 33.5 48.5t45.5 27t54 8.5q38 0 71.5 -15.5t59.5 -45.5t41 -75t15 -105q0 -61 -16 -107t-42.5 -76.5t-60.5 -45.5t-70 -15q-25 0 -49.5 6.5t-44.5 20t-35 31.5v-213h-101zM257 68q23 0 43 8.5t36 27t25 51t9 79.5q0 50 -12.5 85t-36 54
t-56.5 20q-25 1 -46 -8.5t-36 -30t-22.5 -54t-7.5 -79.5q0 -31 4.5 -55.5t13.5 -43t21.5 -30.5t29 -18t35.5 -6z" />
    <glyph glyph-name="q" unicode="q" 
d="M350 -167v220q-12 -19 -30.5 -34t-42 -22.5t-49.5 -7.5q-44 0 -80.5 17.5t-62 49.5t-39.5 76.5t-14 99.5q0 56 14.5 100.5t41 76t64 48.5t83.5 17q21 0 39 -4.5t33 -12.5t26.5 -20.5t20.5 -27.5v54h96v-630h-100zM245 69q22 0 41 9.5t33.5 29.5t22.5 52.5t8 78.5
q0 44 -7.5 74t-21.5 48.5t-32 26.5t-40 8q-25 0 -46.5 -9t-37.5 -28t-25 -50t-9 -74q0 -41 8 -72t23.5 -52t36.5 -31.5t46 -10.5z" />
    <glyph glyph-name="r" unicode="r" 
d="M99 463h103l-2 -132l-12 11q5 30 19 54.5t34.5 41.5t45.5 26.5t52 9.5q38 0 69 -13t56 -39l-42 -82l-4 -9l-8 4l-6 16t-15 19q-15 10 -29.5 15t-33.5 5q-24 0 -46.5 -8.5t-40.5 -26.5t-28.5 -45.5t-10.5 -66.5v-244h-101v464z" />
    <glyph glyph-name="s" unicode="s" 
d="M257 -11q-42 0 -79 8t-69.5 24t-59.5 41l46 84l6 9l7 -4q2 -8 5 -16.5t14 -20.5q24 -21 55 -33.5t76 -12.5q31 0 52.5 7.5t33.5 21t12 30.5q0 13 -6.5 22.5t-19.5 18t-34 17t-51 16.5q-51 15 -89 34.5t-59 46.5t-21 64t21.5 65.5t61.5 45.5t95 17q30 0 56.5 -4.5
t49 -13.5t42.5 -22.5t38 -31.5l-51 -68l-6 -8l-7 6q-1 8 -4.5 15t-14.5 18q-22 16 -48 24t-53 8q-35 0 -61.5 -12t-26.5 -36q0 -14 11.5 -26t37.5 -23.5t71 -23.5q57 -15 92 -34.5t51.5 -45.5t16.5 -61q0 -39 -21.5 -72.5t-64.5 -53.5t-105 -20v0z" />
    <glyph glyph-name="t" unicode="t" 
d="M299 -9q-41 0 -70.5 13.5t-47 43.5t-24.5 78t-5 117l13 332l102 13l10 1l1 -9q-5 -7 -8.5 -14t-5.5 -24l-10 -129l4 -11l-7 -159q-3 -68 4 -105.5t24 -52t41 -14.5q32 0 57.5 13t50.5 32l22 -74q-34 -25 -71 -38t-80 -13v0zM62 463h349l-1 -80h-348v80z" />
    <glyph glyph-name="u" unicode="u" 
d="M215 -11q-28 0 -52.5 7.5t-44.5 23.5t-34.5 40t-22 58t-7.5 77l1 268h98v-268q0 -35 6.5 -59.5t18 -39.5t26.5 -21.5t32 -6.5q22 0 41 8t33.5 24.5t22 42t7.5 59.5v261h100v-390q0 -20 1.5 -37.5t8.5 -35.5h-93q-5 11 -7 21.5t-2.5 21t-0.5 21.5q-10 -19 -24.5 -33
t-32 -23.5t-36 -14t-39.5 -4.5z" />
    <glyph glyph-name="v" unicode="v" 
d="M209 0l-176 463h103l128 -348h-15l69 163q20 51 33 97t17 88h93q-6 -44 -22.5 -93.5t-38.5 -102.5l-112 -267h-79z" />
    <glyph glyph-name="w" unicode="w" 
d="M99 -1l-87 464h85l60 -335l71 286h54l84 -284q10 74 17 123.5t10 83t4 57t1 46.5v23h87q-7 -75 -18 -154t-25 -157.5t-29 -152.5h-88l-71 267l-67 -267h-88z" />
    <glyph glyph-name="x" unicode="x" 
d="M34 0l161 232l-158 231h106l106 -153l100 153h101l-148 -226l167 -237h-108l-113 158l-105 -158h-109z" />
    <glyph glyph-name="y" unicode="y" 
d="M126 -175q-33 0 -59 10.5t-50 31.5l37 68l5 8l7 -4q3 -7 7.5 -13.5t18.5 -16.5q8 -3 17 -4.5t18 -1.5q23 0 39 11.5t28.5 35.5t25.5 62l96 280q15 44 26.5 85.5t14.5 85.5h94q-4 -46 -20.5 -95t-33.5 -95l-115 -317q-26 -73 -65 -102t-91 -29v0zM36 463h101l140 -364
l-50 -110z" />
    <glyph glyph-name="z" unicode="z" 
d="M43 61l266 318h-246v84h371v-65l-261 -315h238q17 0 24 2t13 7h9v-9v-83h-414v61z" />
    <glyph glyph-name="braceleft" unicode="{" 
d="M367 -88q-72 0 -122 15t-76.5 54t-24.5 110l4 93q0 40 -9 61t-26 28.5t-42 7.5h-29v77h28q27 0 44.5 9t26.5 29.5t9 54.5l-2 80q0 59 23 98t66 59t104 20h71v-78h-89q-40 0 -60.5 -22.5t-20.5 -65.5l2 -79q0 -34 -9 -61.5t-27 -48t-44 -33.5q25 -11 42.5 -31.5t26.5 -50
t9 -68.5l-2 -79q0 -37 11.5 -60t36.5 -32.5t64 -9.5h59v-77h-44z" />
    <glyph glyph-name="bar" unicode="|" 
d="M205 -151v803h91v-803h-91z" />
    <glyph glyph-name="braceright" unicode="}" 
d="M95 -88h-44v77h59q40 0 64.5 9.5t36 32.5t11.5 60l-2 79q0 39 9 68.5t27 50t42 31.5q-26 13 -44 33.5t-27 48t-9 61.5l2 79q0 43 -20 65.5t-61 22.5h-89v78h71q61 0 104 -20t66 -59t23 -98l-2 -80q0 -34 9 -54.5t27 -29.5t44 -9h28v-77h-29q-24 0 -41.5 -7.5t-26.5 -28.5
t-9 -61l4 -93q2 -71 -24 -110t-76.5 -54t-122.5 -15z" />
    <glyph glyph-name="asciitilde" unicode="~" 
d="M345 254q-25 0 -44.5 8t-36 19t-32.5 19t-35 8q-25 0 -43.5 -10t-35.5 -35l-64 44q14 23 33 41t45 28.5t57 10.5q25 0 44.5 -8t36 -19t33 -19t35.5 -8q22 0 39 13.5t34 38.5l57 -52q-18 -26 -37 -43.5t-40 -26t-46 -9.5z" />
    <glyph glyph-name="uni00A0" unicode="&#xa0;" 
 />
    <glyph glyph-name="exclamdown" unicode="&#xa1;" 
d="M205 383h70l29 -376q1 -32 -7.5 -52t-23 -28.5t-32.5 -8.5t-33 9t-23 27.5t-7 46.5zM239 598q30 0 52 -21t22 -49q0 -27 -21.5 -49t-52.5 -22q-30 0 -51.5 21.5t-21.5 49.5q0 29 21.5 49.5t51.5 20.5z" />
    <glyph glyph-name="cent" unicode="&#xa2;" 
d="M267 -73h-81l95 696h78zM281 32q-51 0 -94.5 17.5t-75 50t-49 76t-17.5 95.5t17.5 96.5t49 77.5t75 51.5t93.5 18.5q62 0 108.5 -23t75.5 -65l-57 -60l-7 -7l-6 6q-1 8 -3.5 15.5t-13.5 20.5q-20 18 -44 25.5t-55 7.5q-26 0 -49.5 -11t-42 -32t-29.5 -51t-11 -67
q0 -36 11 -65.5t30 -50t44.5 -32t53.5 -11.5q22 0 42.5 5.5t39.5 18t36 32.5l55 -64q-36 -39 -82.5 -57t-94.5 -18v0z" />
    <glyph glyph-name="sterling" unicode="&#xa3;" 
d="M66 -12l-32 78q40 18 63 36.5t33 47t10 74.5q0 17 -2.5 39t-9.5 49h-64v78h47q-3 15 -4 28.5t-1 26.5q0 55 24.5 95.5t65.5 62.5t91 22q40 0 73.5 -14t63.5 -44l-53 -68q-15 19 -35.5 33.5t-59.5 14.5q-23 0 -40.5 -12.5t-27 -35t-9.5 -53.5q0 -11 1.5 -24.5t4.5 -31.5
h126v-78h-109q6 -25 8 -46.5t2 -40.5q0 -22 -3 -42.5t-9.5 -39t-17.5 -36.5q23 2 44 -3.5t41 -13.5t40.5 -15t41.5 -7q18 0 35 8.5t38 24.5l32 -69q-28 -23 -55 -35t-57 -12q-17 0 -38.5 7t-45.5 15.5t-47.5 15t-44.5 6.5q-25 0 -53.5 -10t-66.5 -31z" />
    <glyph glyph-name="currency" unicode="&#xa4;" 
d="M113 155l-56 51l56 57q-12 19 -18 40t-6 43t5.5 43t18.5 41l-56 55l56 51l54 -54q19 10 40.5 16.5t43.5 6.5q21 0 42 -6t40 -16l54 53l56 -51l-56 -54q14 -20 20 -41.5t6 -43.5q0 -23 -6 -44.5t-19 -40.5l55 -55l-56 -51l-53 54q-19 -12 -40 -17t-43 -5q-23 0 -44 5.5
t-41 17.5zM250 258q27 0 45.5 11.5t28 31.5t9.5 44t-9.5 44t-28 32t-45.5 12q-26 0 -45 -12t-28.5 -32t-9.5 -44t9.5 -43.5t28 -31.5t45.5 -12z" />
    <glyph glyph-name="yen" unicode="&#xa5;" 
d="M225 222h-148v62h146zM290 284h142v-62h-142v62zM225 105h-148v61h148v-61zM290 166h142v-61h-142v61zM305 0h-95v288l-187 335h109l126 -244l117 244h102l-172 -332v-291z" />
    <glyph glyph-name="brokenbar" unicode="&#xa6;" 
d="M205 288v364h91v-364h-91zM205 -151v354h91v-354h-91z" />
    <glyph glyph-name="section" unicode="&#xa7;" 
d="M238 -56q-53 0 -101.5 21.5t-81.5 66.5l62 87q6 -2 7 -5.5t1.5 -9t5 -15t18.5 -23.5q11 -11 22.5 -18.5t27 -12t34.5 -4.5t35 5.5t26.5 14.5t16.5 21t6 24q0 19 -8.5 33t-30.5 26t-61 24q-52 17 -84 37t-46.5 45t-14.5 56q0 15 5.5 30t15.5 28.5t24.5 24.5t31.5 17
q-30 18 -46 45.5t-16 63.5q0 40 22 74t60 54.5t87 20.5q36 0 67.5 -11.5t57 -33t42.5 -52.5l-71 -63q-3 3 -5 6t-3 10q-3 12 -10.5 23.5t-18.5 21t-24.5 15t-29.5 5.5q-22 0 -39 -9t-26.5 -23t-9.5 -33q0 -17 7.5 -29.5t23 -23t39.5 -20.5t57 -22q21 -9 41 -21t35.5 -28
t25 -36.5t9.5 -44.5q0 -20 -9 -39.5t-24 -34.5t-34 -24q28 -21 43 -47.5t15 -57.5q0 -34 -13.5 -63t-37 -50.5t-56 -33.5t-70.5 -12zM305 237q9 7 15 14.5t8.5 17.5t2.5 21q0 15 -6 26.5t-18.5 21.5t-30 18.5t-40.5 17.5l-35 14q-7 -4 -13.5 -9.5t-11 -12.5t-7 -15t-2.5 -17
q0 -13 5.5 -24.5t16.5 -20.5t27.5 -17.5t39.5 -16.5q14 -5 26.5 -9.5t22.5 -8.5z" />
    <glyph glyph-name="dieresis" unicode="&#xa8;" 
d="M161 554q-26 0 -44 17.5t-18 41.5t18 42t44 18t43.5 -18.5t17.5 -41.5q0 -24 -18.5 -41.5t-42.5 -17.5zM343 554q-26 0 -44 17t-18 42t18 42.5t44 17.5t43 -18.5t17 -41.5q0 -24 -18 -41.5t-42 -17.5z" />
    <glyph glyph-name="copyright" unicode="&#xa9;" 
d="M256 126q-42 0 -73 20.5t-49 55t-18 74.5q0 31 11 57t29.5 46t42.5 30.5t50 10.5q57 0 91 -27.5t44 -71.5l-65 -19q-4 5 -4 9.5t-0.5 8.5t-4 10t-14.5 15q-7 7 -16.5 10t-20.5 3t-23 -4.5t-22.5 -14t-17 -24.5t-6.5 -34q0 -26 9 -46t25.5 -32.5t37.5 -12.5q14 0 26 5
t21 13.5t14 20.5l58 -30q-20 -34 -53.5 -53.5t-71.5 -19.5zM250 18q-51 0 -94.5 20t-77 55.5t-52 81.5t-18.5 98q0 53 19 99.5t52.5 81.5t78 55t95.5 20q49 0 93.5 -20t78.5 -55t53 -81.5t19 -99.5q0 -42 -12.5 -80.5t-35 -70t-53 -55t-68 -36.5t-78.5 -13zM254 71
q39 0 73.5 16t60.5 44t40 65t14 78q0 42 -15 78.5t-41 64.5t-60 44t-72 16t-72 -15.5t-60 -43.5t-41 -65t-15 -80q0 -42 15 -78.5t41 -64t60 -43.5t72 -16z" />
    <glyph glyph-name="ordfeminine" unicode="&#xaa;" 
d="M212 258q-56 0 -87 28.5t-31 72.5q0 39 21.5 68.5t64 46t102.5 16.5h16t19.5 -0.5t20.5 -2.5l2 -59q-8 2 -18.5 2t-21 0.5t-19.5 0.5q-38 0 -61 -8t-33.5 -21.5t-10.5 -32.5q0 -16 7 -26.5t19 -15t26 -4.5q22 0 38.5 8t27.5 23.5t17 40t6 58.5q0 46 -8.5 70.5t-26 34
t-43.5 9.5q-23 0 -43.5 -7.5t-40.5 -28.5l-45 50q29 28 63.5 40t70.5 12q44 0 78.5 -14.5t54.5 -49t20 -98.5v-204h-85v39q-9 -13 -20 -22.5t-24 -15t-26.5 -8t-29.5 -2.5zM71 217h359v-75h-359v75z" />
    <glyph glyph-name="guillemotleft" unicode="&#xab;" 
d="M226 52l-164 176v30l160 154l46 -50l-120 -120l128 -142zM397 52l-163 176v30l159 154l49 -52l-123 -118l130 -142z" />
    <glyph glyph-name="logicalnot" unicode="&#xac;" 
d="M329 155v120h-245v85h337v-205h-92z" />
    <glyph glyph-name="uni00AD" unicode="&#xad;" 
d="M107 275v84h288v-84h-288z" />
    <glyph glyph-name="registered" unicode="&#xae;" 
d="M309 139l-53 112h-42v-108h-57v270h88q43 0 68.5 -10t37 -28t11.5 -43q0 -23 -12.5 -43t-36.5 -29l56 -112zM214 297h37q27 0 40.5 8.5t13.5 25.5q0 16 -14 24.5t-42 8.5h-35v-67zM250 18q-51 0 -94.5 20t-77 55.5t-52 81.5t-18.5 98q0 53 19 99.5t52.5 81.5t78 55
t95.5 20q49 0 93.5 -20t78.5 -55t53 -81.5t19 -99.5q0 -42 -12.5 -80.5t-35 -70t-53 -55t-68 -36.5t-78.5 -13zM254 71q39 0 73.5 16t60.5 44t40 65t14 78q0 42 -15 78.5t-41 64.5t-60 44t-72 16t-72 -15.5t-60 -43.5t-41 -65t-15 -80q0 -42 15 -78.5t41 -64t60 -43.5
t72 -16z" />
    <glyph glyph-name="macron" unicode="&#xaf;" 
d="M113 566v69h271v-69h-271z" />
    <glyph glyph-name="degree" unicode="&#xb0;" 
d="M256 378q-39 0 -72 18.5t-52 50.5t-19 70q0 30 11.5 55.5t31.5 44.5t45.5 29.5t54.5 10.5q40 0 72 -19.5t51.5 -51t19.5 -69.5q0 -37 -19 -69t-51.5 -51t-72.5 -19zM256 450q18 0 31.5 9t21 25t7.5 34q0 19 -7.5 35t-21 25t-31.5 9q-17 0 -30.5 -9t-21 -24.5t-7.5 -35.5
q0 -18 7.5 -34t21 -25t30.5 -9z" />
    <glyph glyph-name="plusminus" unicode="&#xb1;" 
d="M212 152v181h-171v79h171v165h85v-165h164v-79h-164v-181h-85zM41 7v83h420v-83h-420z" />
    <glyph glyph-name="uni00B2" unicode="&#xb2;" 
d="M120 298q49 44 85 75.5t60 56t36.5 47.5t12.5 48q0 18 -7 30t-21 17.5t-35 5.5q-18 0 -34 -4.5t-29 -14.5q-10 -12 -13.5 -18.5t-3.5 -14.5l-5 -7l-8 6l-49 39q24 35 61 54.5t82 19.5q37 0 67 -14t47 -38.5t17 -59.5q0 -30 -11.5 -56t-33 -51.5t-51 -53.5t-65.5 -61h117
q17 0 24 2t13 8h9v-10v-58h-265v52z" />
    <glyph glyph-name="uni00B3" unicode="&#xb3;" 
d="M240 239q-37 0 -72 11.5t-56 34.5l37 51l6 8l7 -5q2 -8 6 -14.5t17 -16.5q11 -5 24 -8.5t28 -3.5q34 0 52.5 17t18.5 43t-13.5 40.5t-38.5 20t-62 1.5v56q30 0 50 3.5t31.5 11.5t16.5 19t5 23q0 15 -7.5 25.5t-20 16.5t-29.5 6q-21 0 -40.5 -7t-35.5 -23l-42 43
q24 25 56 35.5t63 10.5q56 0 91 -28t35 -71q0 -33 -18.5 -55.5t-44.5 -32.5q20 -6 37 -18.5t28 -32t11 -46.5q0 -33 -16.5 -59t-47.5 -41t-76 -15v0z" />
    <glyph glyph-name="acute" unicode="&#xb4;" 
d="M255 514l-47 31l83 160l72 -51z" />
    <glyph glyph-name="uni00B5" unicode="&#xb5;" 
d="M18 -158q0 16 1.5 44t4.5 65t5.5 79t4.5 86t2 87v260h96v-279q0 -35 6 -58t16 -36t23.5 -19t29.5 -6q25 0 42 14.5t26 41t9 64.5v278h94v-341q0 -17 3.5 -28.5t11 -17t17.5 -5.5t22.5 10t18.5 22l6 13l37 -69q-20 -29 -44 -43t-49 -14q-18 0 -34 8.5t-26.5 22.5t-15.5 30
q-10 -19 -27 -32.5t-38 -20.5t-45 -7q-21 0 -41.5 6t-37.5 19.5t-27 33.5v-49t-0.5 -55.5t-1 -55t-0.5 -48.5h-89z" />
    <glyph glyph-name="paragraph" unicode="&#xb6;" 
d="M217 -69v388q-36 4 -67.5 19.5t-54 39.5t-35.5 55.5t-13 66.5q0 44 23.5 81.5t78 61t147.5 23.5h157v-735h-85v656h-65v-656h-86z" />
    <glyph glyph-name="periodcentered" unicode="&#xb7;" 
d="M239 263q-30 0 -50.5 20t-20.5 49q0 30 21 50t50 20q28 0 49.5 -20.5t21.5 -48.5q0 -29 -21 -49.5t-50 -20.5z" />
    <glyph glyph-name="cedilla" unicode="&#xb8;" 
d="M269 -202q-29 0 -58 8t-58 30l33 57q24 -20 47 -28t49 -8q20 0 33.5 8t13.5 22q0 13 -13.5 19t-34.5 6h-43l12 88h68l-5 -36q27 -2 44.5 -12.5t26.5 -25.5t9 -31q0 -40 -32 -68.5t-92 -28.5z" />
    <glyph glyph-name="uni00B9" unicode="&#xb9;" 
d="M224 246v310l-78 -26l-16 47l112 56h54v-387h-72z" />
    <glyph glyph-name="ordmasculine" unicode="&#xba;" 
d="M250 259q-46 0 -83 23t-58.5 65t-21.5 99q0 55 21.5 97.5t58.5 66t83 23.5t82.5 -23.5t58.5 -66t22 -97.5q0 -57 -22 -99t-58.5 -65t-82.5 -23zM250 327q24 0 41.5 14.5t27.5 41.5t10 63q0 38 -10 64.5t-28 41t-41 14.5t-41 -14.5t-28 -41t-10 -64.5q0 -36 10 -63
t28 -41.5t41 -14.5zM71 217h359v-75h-359v75z" />
    <glyph glyph-name="guillemotright" unicode="&#xbb;" 
d="M292 52l-50 48l128 142l-120 120l46 50l160 -154v-30zM121 52l-52 48l130 142l-123 118l49 52l159 -154v-30z" />
    <glyph glyph-name="onequarter" unicode="&#xbc;" 
d="M86 380v240l-59 -21l-14 43l89 44h47v-306h-63zM386 -70v71h-131v39l145 196h46v-185h45v-51h-45v-70h-60zM321 50h66v92zM123 -43l-58 35l311 677l59 -36z" />
    <glyph glyph-name="onehalf" unicode="&#xbd;" 
d="M86 380v240l-59 -21l-14 43l89 44h47v-306h-63zM275 -70v45q39 35 68 60t47.5 43.5t28 35.5t9.5 37q0 12 -5.5 20.5t-16 12.5t-26.5 4t-28.5 -4t-23 -12.5t-18.5 -22.5l-43 33q18 28 48 43t65 15q30 0 54 -10.5t38.5 -30.5t14.5 -47q0 -24 -8.5 -44t-24 -39t-38 -40.5
t-51.5 -47.5h123v-51h-213zM123 -43l-58 35l311 677l59 -36z" />
    <glyph glyph-name="threequarters" unicode="&#xbe;" 
d="M102 374q-31 0 -59.5 9t-45.5 28l32 45l6 8l7 -5q1 -8 6 -14t18 -15q7 -3 15 -4.5t18 -1.5q25 0 38.5 12t13.5 31q0 20 -9.5 31t-29 15t-48.5 0v49q23 -1 38.5 2t24.5 9t13 13t4 16q0 11 -5.5 19.5t-15 13t-23.5 4.5q-16 0 -31.5 -5.5t-27.5 -18.5l-37 37
q20 21 46.5 29.5t51.5 8.5q45 0 74 -22t29 -57q0 -26 -15 -43.5t-35 -25.5q22 -6 41 -25t19 -52q0 -38 -30 -64.5t-83 -26.5v0zM386 1h-131v39l145 196h46v-185h45v-51h-45v-70h-60v71zM387 50v92l-66 -92h66zM123 -43l-58 35l311 677l59 -36z" />
    <glyph glyph-name="questiondown" unicode="&#xbf;" 
d="M282 306q0 -34 -9.5 -59t-25 -43.5t-32 -35t-32 -33t-25 -37.5t-9.5 -50q0 -21 7 -37t20.5 -27t31 -16.5t38.5 -5.5q30 0 55.5 10t45.5 30q11 13 13.5 20t2.5 15l5 6l8 -6l62 -46q-22 -34 -50 -58.5t-64 -37.5t-84 -13q-56 0 -97.5 21.5t-64 58t-22.5 82.5q0 39 10 65.5
t25.5 46t33.5 35.5t34 31.5t26 36t10 47.5v47h87v-47zM236 562q29 0 49.5 -20.5t20.5 -49.5q0 -28 -20.5 -48.5t-49.5 -20.5q-28 0 -48.5 20.5t-20.5 48.5q0 29 20.5 49.5t48.5 20.5v0z" />
    <glyph glyph-name="Agrave" unicode="&#xc0;" 
d="M363 158h-237l15 71h205zM250 437l-139 -437h-97l217 630h39l217 -630h-100zM307 656l-177 62l45 81l158 -93z" />
    <glyph glyph-name="Aacute" unicode="&#xc1;" 
d="M363 158h-237l15 71h205zM250 437l-139 -437h-97l217 630h39l217 -630h-100zM176 656l-27 50l159 93l43 -81z" />
    <glyph glyph-name="Acircumflex" unicode="&#xc2;" 
d="M363 158h-237l15 71h205zM250 437l-139 -437h-97l217 630h39l217 -630h-100zM116 651l-35 49l155 97h28l155 -96l-35 -50l-133 68z" />
    <glyph glyph-name="Atilde" unicode="&#xc3;" 
d="M363 158h-237l15 71h205zM250 437l-139 -437h-97l217 630h39l217 -630h-100zM367 789l56 -30q-21 -42 -43.5 -60t-53.5 -18q-27 0 -45.5 8.5t-32 20.5t-26 21t-28.5 9t-29.5 -12t-24.5 -36l-57 26q15 41 41.5 63t66.5 22q25 0 42.5 -8.5t31 -20.5t27 -20.5t29.5 -8.5
t25.5 10.5t20.5 33.5z" />
    <glyph glyph-name="Adieresis" unicode="&#xc4;" 
d="M363 158h-237l15 71h205zM250 437l-139 -437h-97l217 630h39l217 -630h-100zM158 685q-25 0 -43 17.5t-18 41.5t18 42t43 18q27 0 44.5 -18.5t17.5 -41.5q0 -24 -18.5 -41.5t-43.5 -17.5zM340 685q-25 0 -43 17t-18 42t18 42.5t43 17.5q27 0 44 -18.5t17 -41.5
q0 -24 -18 -41.5t-43 -17.5z" />
    <glyph glyph-name="Aring" unicode="&#xc5;" 
d="M363 158h-237l15 71h205zM250 437l-139 -437h-97l217 630h39l217 -630h-100zM248 617q-27 0 -49.5 13t-36 35t-13.5 48t13.5 47.5t36.5 34.5t49 13q28 0 50.5 -13t36 -34.5t13.5 -47.5t-13.5 -48t-36 -35t-50.5 -13zM249 674q15 0 25 11.5t10 28.5t-10 28.5t-25 11.5
q-14 0 -24.5 -11.5t-10.5 -28.5t10.5 -28.5t24.5 -11.5z" />
    <glyph glyph-name="AE" unicode="&#xc6;" 
d="M5 0l193 623h299v-81h-162v-177h137v-82h-137v-202h160v-81h-249v162h-100l-48 -162h-93zM164 243h82l4 279h-5z" />
    <glyph glyph-name="Ccedilla" unicode="&#xc7;" 
d="M281 -11q-51 0 -95.5 19t-78.5 58t-53.5 99t-19.5 143q0 73 14.5 127.5t39.5 92t57 60t67 33t70 10.5q70 0 119.5 -32.5t74.5 -89.5l-67 -45l-8 -5l-5 7q2 8 -0.5 15.5t-11.5 20.5q-22 29 -47 39t-51 10q-32 0 -60.5 -15.5t-49.5 -45.5t-33 -74.5t-12 -102.5
q0 -56 11.5 -100.5t32 -76t48 -48t59.5 -16.5q25 0 46 7t39 23.5t32 39.5l70 -49q-33 -55 -79 -79.5t-109 -24.5v0zM274 -202q-29 0 -58 8t-58 30l33 57q24 -20 47 -28t49 -8q20 0 33.5 8t13.5 22q0 13 -13.5 19t-34.5 6h-43l12 88h68l-5 -36q27 -2 44.5 -12.5t26.5 -25.5
t9 -31q0 -40 -32 -68.5t-92 -28.5z" />
    <glyph glyph-name="Egrave" unicode="&#xc8;" 
d="M54 0v624h397v-82h-302v-176h249v-83h-249v-201h300v-82h-395zM320 656l-177 62l45 81l158 -93z" />
    <glyph glyph-name="Eacute" unicode="&#xc9;" 
d="M54 0v624h397v-82h-302v-176h249v-83h-249v-201h300v-82h-395zM189 656l-27 50l159 93l43 -81z" />
    <glyph glyph-name="Ecircumflex" unicode="&#xca;" 
d="M54 0v624h397v-82h-302v-176h249v-83h-249v-201h300v-82h-395zM129 651l-35 49l155 97h28l155 -96l-35 -50l-133 68z" />
    <glyph glyph-name="Edieresis" unicode="&#xcb;" 
d="M54 0v624h397v-82h-302v-176h249v-83h-249v-201h300v-82h-395zM171 685q-25 0 -43 17.5t-18 41.5t18 42t43 18q27 0 44.5 -18.5t17.5 -41.5q0 -24 -18.5 -41.5t-43.5 -17.5zM353 685q-25 0 -43 17t-18 42t18 42.5t43 17.5q27 0 44 -18.5t17 -41.5q0 -24 -18 -41.5
t-43 -17.5z" />
    <glyph glyph-name="Igrave" unicode="&#xcc;" 
d="M74 0v81h122v461h-116v81h333v-81h-122v-462h128v-80h-345zM300 656l-177 62l45 81l158 -93z" />
    <glyph glyph-name="Iacute" unicode="&#xcd;" 
d="M74 0v81h122v461h-116v81h333v-81h-122v-462h128v-80h-345zM169 656l-27 50l159 93l43 -81z" />
    <glyph glyph-name="Icircumflex" unicode="&#xce;" 
d="M74 0v81h122v461h-116v81h333v-81h-122v-462h128v-80h-345zM109 651l-35 49l155 97h28l155 -96l-35 -50l-133 68z" />
    <glyph glyph-name="Idieresis" unicode="&#xcf;" 
d="M74 0v81h122v461h-116v81h333v-81h-122v-462h128v-80h-345zM151 685q-25 0 -43 17.5t-18 41.5t18 42t43 18q27 0 44.5 -18.5t17.5 -41.5q0 -24 -18.5 -41.5t-43.5 -17.5zM333 685q-25 0 -43 17t-18 42t18 42.5t43 17.5q27 0 44 -18.5t17 -41.5q0 -24 -18 -41.5t-43 -17.5
z" />
    <glyph glyph-name="Eth" unicode="&#xd0;" 
d="M63 0v290h-42v79h42v254h152q46 0 81 -9t61 -25t44.5 -35.5t31.5 -39.5q12 -20 22 -50t15.5 -69.5t5.5 -86.5q0 -72 -16 -129t-49.5 -97t-85.5 -61t-122 -21h-140zM155 80h46q60 0 100 26t60 76.5t20 122.5q0 73 -17.5 126t-55 80.5t-97.5 27.5h-56v-170h98v-79h-98v-210
z" />
    <glyph glyph-name="Ntilde" unicode="&#xd1;" 
d="M41 623h101l229 -428l-4 428h89h10v-9q-6 -6 -7.5 -13t-1.5 -24v-577h-88l-238 454v-454h-90v623zM367 789l56 -30q-21 -42 -43.5 -60t-53.5 -18q-27 0 -45.5 8.5t-32 20.5t-26 21t-28.5 9t-29.5 -12t-24.5 -36l-57 26q15 41 41.5 63t66.5 22q25 0 42.5 -8.5t31 -20.5
t27 -20.5t29.5 -8.5t25.5 10.5t20.5 33.5z" />
    <glyph glyph-name="Ograve" unicode="&#xd2;" 
d="M251 -11q-74 0 -125.5 37t-77.5 109t-26 175q0 101 26 172.5t77.5 109.5t125.5 38q75 0 126 -38t77.5 -109.5t26.5 -172.5q0 -103 -26.5 -175t-77.5 -109t-126 -37zM251 70q41 0 70 27t45 80.5t16 133.5q0 75 -16 128t-45 81.5t-70 28.5t-70.5 -28.5t-44.5 -81.5
t-15 -128q0 -80 15 -133.5t44.5 -80.5t70.5 -27zM307 658l-177 62l45 81l158 -93z" />
    <glyph glyph-name="Oacute" unicode="&#xd3;" 
d="M251 -11q-74 0 -125.5 37t-77.5 109t-26 175q0 101 26 172.5t77.5 109.5t125.5 38q75 0 126 -38t77.5 -109.5t26.5 -172.5q0 -103 -26.5 -175t-77.5 -109t-126 -37zM251 70q41 0 70 27t45 80.5t16 133.5q0 75 -16 128t-45 81.5t-70 28.5t-70.5 -28.5t-44.5 -81.5
t-15 -128q0 -80 15 -133.5t44.5 -80.5t70.5 -27zM176 658l-27 50l159 93l43 -81z" />
    <glyph glyph-name="Ocircumflex" unicode="&#xd4;" 
d="M251 -11q-74 0 -125.5 37t-77.5 109t-26 175q0 101 26 172.5t77.5 109.5t125.5 38q75 0 126 -38t77.5 -109.5t26.5 -172.5q0 -103 -26.5 -175t-77.5 -109t-126 -37zM251 70q41 0 70 27t45 80.5t16 133.5q0 75 -16 128t-45 81.5t-70 28.5t-70.5 -28.5t-44.5 -81.5
t-15 -128q0 -80 15 -133.5t44.5 -80.5t70.5 -27zM116 653l-35 49l155 97h28l155 -96l-35 -50l-133 68z" />
    <glyph glyph-name="Otilde" unicode="&#xd5;" 
d="M251 -11q-74 0 -125.5 37t-77.5 109t-26 175q0 101 26 172.5t77.5 109.5t125.5 38q75 0 126 -38t77.5 -109.5t26.5 -172.5q0 -103 -26.5 -175t-77.5 -109t-126 -37zM251 70q41 0 70 27t45 80.5t16 133.5q0 75 -16 128t-45 81.5t-70 28.5t-70.5 -28.5t-44.5 -81.5
t-15 -128q0 -80 15 -133.5t44.5 -80.5t70.5 -27zM368 791l56 -30q-21 -42 -43.5 -60t-53.5 -18q-27 0 -45.5 8.5t-32 20.5t-26 21t-28.5 9t-29.5 -12t-24.5 -36l-57 26q15 41 41.5 63t66.5 22q25 0 42.5 -8.5t31 -20.5t27 -20.5t29.5 -8.5t25.5 10.5t20.5 33.5z" />
    <glyph glyph-name="Odieresis" unicode="&#xd6;" 
d="M251 -11q-74 0 -125.5 37t-77.5 109t-26 175q0 101 26 172.5t77.5 109.5t125.5 38q75 0 126 -38t77.5 -109.5t26.5 -172.5q0 -103 -26.5 -175t-77.5 -109t-126 -37zM251 70q41 0 70 27t45 80.5t16 133.5q0 75 -16 128t-45 81.5t-70 28.5t-70.5 -28.5t-44.5 -81.5
t-15 -128q0 -80 15 -133.5t44.5 -80.5t70.5 -27zM158 687q-25 0 -43 17.5t-18 41.5t18 42t43 18q27 0 44.5 -18.5t17.5 -41.5q0 -24 -18.5 -41.5t-43.5 -17.5zM340 687q-25 0 -43 17t-18 42t18 42.5t43 17.5q27 0 44 -18.5t17 -41.5q0 -24 -18 -41.5t-43 -17.5z" />
    <glyph glyph-name="multiply" unicode="&#xd7;" 
d="M375 143l-121 127l-119 -122l-60 59l120 125l-120 127l63 61l118 -124l119 123l64 -58l-123 -128l120 -128z" />
    <glyph glyph-name="Oslash" unicode="&#xd8;" 
d="M87 -51l-52 25l375 708l51 -27zM251 -11q-74 0 -125.5 37t-77.5 109t-26 175q0 101 26 172.5t77.5 109.5t125.5 38q75 0 126 -38t77.5 -109.5t26.5 -172.5q0 -103 -26.5 -175t-77.5 -109t-126 -37zM251 70q41 0 70 27t45 80.5t16 133.5q0 75 -16 128t-45 81.5t-70 28.5
t-70.5 -28.5t-44.5 -81.5t-15 -128q0 -80 15 -133.5t44.5 -80.5t70.5 -27z" />
    <glyph glyph-name="Ugrave" unicode="&#xd9;" 
d="M250 -12q-101 0 -155 60.5t-54 168.5v406h97h10v-9q-6 -6 -7.5 -13t-1.5 -24v-361q0 -68 24.5 -108t87.5 -40q64 0 89 40t25 111v404h97v-403q0 -80 -27 -131t-74.5 -76t-110.5 -25v0zM306 656l-177 62l45 81l158 -93z" />
    <glyph glyph-name="Uacute" unicode="&#xda;" 
d="M250 -12q-101 0 -155 60.5t-54 168.5v406h97h10v-9q-6 -6 -7.5 -13t-1.5 -24v-361q0 -68 24.5 -108t87.5 -40q64 0 89 40t25 111v404h97v-403q0 -80 -27 -131t-74.5 -76t-110.5 -25v0zM176 656l-27 50l159 93l43 -81z" />
    <glyph glyph-name="Ucircumflex" unicode="&#xdb;" 
d="M250 -12q-101 0 -155 60.5t-54 168.5v406h97h10v-9q-6 -6 -7.5 -13t-1.5 -24v-361q0 -68 24.5 -108t87.5 -40q64 0 89 40t25 111v404h97v-403q0 -80 -27 -131t-74.5 -76t-110.5 -25v0zM115 651l-35 49l155 97h28l155 -96l-35 -50l-133 68z" />
    <glyph glyph-name="Udieresis" unicode="&#xdc;" 
d="M250 -12q-101 0 -155 60.5t-54 168.5v406h97h10v-9q-6 -6 -7.5 -13t-1.5 -24v-361q0 -68 24.5 -108t87.5 -40q64 0 89 40t25 111v404h97v-403q0 -80 -27 -131t-74.5 -76t-110.5 -25v0zM157 685q-25 0 -43 17.5t-18 41.5t18 42t43 18q27 0 44.5 -18.5t17.5 -41.5
q0 -24 -18.5 -41.5t-43.5 -17.5zM339 685q-25 0 -43 17t-18 42t18 42.5t43 17.5q27 0 44 -18.5t17 -41.5q0 -24 -18 -41.5t-43 -17.5z" />
    <glyph glyph-name="Yacute" unicode="&#xdd;" 
d="M208 0v246l-188 377h105l136 -274l122 274h100l-174 -377v-246h-101zM176 656l-27 50l159 93l43 -81z" />
    <glyph glyph-name="Thorn" unicode="&#xde;" 
d="M53 0v623h107q2 -1 2 -2v-2q0 -4 -3.5 -9t-5.5 -18v-81h107q73 0 118 -24.5t66.5 -66t21.5 -91.5q0 -49 -21 -89.5t-65 -64.5t-115 -24h-113v-151h-99zM152 231h108q37 0 60.5 13t34.5 35t11 48t-11.5 48.5t-35 37t-61.5 14.5h-105z" />
    <glyph glyph-name="germandbls" unicode="&#xdf;" 
d="M285 -12q-31 0 -55 7.5t-49 23.5l40 76q13 -11 28 -17t33 -6t34.5 10t28 27t18.5 39t7 46q0 25 -8 46.5t-24 37.5t-40 25t-58 9h-38v78h44q14 0 26.5 4.5t23.5 12.5t19 20t13 27.5t5 34.5q0 22 -7 40.5t-19.5 33t-29.5 22.5t-38 8q-30 0 -52.5 -20t-34.5 -55t-12 -83
v-435h-94v429q0 82 24 136t66 80t97 26q57 0 99.5 -24.5t67 -64.5t24.5 -87q0 -28 -8.5 -53.5t-25.5 -46t-43 -35.5q28 -8 49 -24.5t36.5 -39.5t23.5 -51t8 -62q0 -55 -22.5 -99.5t-62.5 -70t-94 -25.5z" />
    <glyph glyph-name="agrave" unicode="&#xe0;" 
d="M202 -11q-77 0 -119.5 35.5t-42.5 92.5q0 38 17.5 68.5t50 52.5t78.5 34.5t104 12.5q12 0 25.5 -0.5t29 -1.5t31.5 -2l3 -71q-14 2 -29.5 3t-30.5 1h-28q-39 0 -67.5 -5.5t-47 -16.5t-27.5 -27t-9 -37q0 -17 6 -29.5t16.5 -19.5t25 -10.5t31.5 -3.5q33 0 58 11t42.5 32.5
t26.5 54t9 76.5q0 61 -13.5 95t-39.5 47t-65 13q-32 0 -61.5 -10.5t-57.5 -38.5l-53 60q38 36 83.5 52t93.5 16q44 0 81.5 -10.5t66 -34.5t44 -65t15.5 -104v-259h-104v57q-13 -20 -29 -33.5t-34.5 -21t-38.5 -10.5t-41 -3zM240 505l-108 140l72 51l83 -160z" />
    <glyph glyph-name="aacute" unicode="&#xe1;" 
d="M202 -11q-77 0 -119.5 35.5t-42.5 92.5q0 38 17.5 68.5t50 52.5t78.5 34.5t104 12.5q12 0 25.5 -0.5t29 -1.5t31.5 -2l3 -71q-14 2 -29.5 3t-30.5 1h-28q-39 0 -67.5 -5.5t-47 -16.5t-27.5 -27t-9 -37q0 -17 6 -29.5t16.5 -19.5t25 -10.5t31.5 -3.5q33 0 58 11t42.5 32.5
t26.5 54t9 76.5q0 61 -13.5 95t-39.5 47t-65 13q-32 0 -61.5 -10.5t-57.5 -38.5l-53 60q38 36 83.5 52t93.5 16q44 0 81.5 -10.5t66 -34.5t44 -65t15.5 -104v-259h-104v57q-13 -20 -29 -33.5t-34.5 -21t-38.5 -10.5t-41 -3zM232 505l-47 31l83 160l72 -51z" />
    <glyph glyph-name="acircumflex" unicode="&#xe2;" 
d="M202 -11q-77 0 -119.5 35.5t-42.5 92.5q0 38 17.5 68.5t50 52.5t78.5 34.5t104 12.5q12 0 25.5 -0.5t29 -1.5t31.5 -2l3 -71q-14 2 -29.5 3t-30.5 1h-28q-39 0 -67.5 -5.5t-47 -16.5t-27.5 -27t-9 -37q0 -17 6 -29.5t16.5 -19.5t25 -10.5t31.5 -3.5q33 0 58 11t42.5 32.5
t26.5 54t9 76.5q0 61 -13.5 95t-39.5 47t-65 13q-32 0 -61.5 -10.5t-57.5 -38.5l-53 60q38 36 83.5 52t93.5 16q44 0 81.5 -10.5t66 -34.5t44 -65t15.5 -104v-259h-104v57q-13 -20 -29 -33.5t-34.5 -21t-38.5 -10.5t-41 -3zM134 502l-49 44l144 139h32l144 -139l-49 -44
l-111 105z" />
    <glyph glyph-name="atilde" unicode="&#xe3;" 
d="M202 -11q-77 0 -119.5 35.5t-42.5 92.5q0 38 17.5 68.5t50 52.5t78.5 34.5t104 12.5q12 0 25.5 -0.5t29 -1.5t31.5 -2l3 -71q-14 2 -29.5 3t-30.5 1h-28q-39 0 -67.5 -5.5t-47 -16.5t-27.5 -27t-9 -37q0 -17 6 -29.5t16.5 -19.5t25 -10.5t31.5 -3.5q33 0 58 11t42.5 32.5
t26.5 54t9 76.5q0 61 -13.5 95t-39.5 47t-65 13q-32 0 -61.5 -10.5t-57.5 -38.5l-53 60q38 36 83.5 52t93.5 16q44 0 81.5 -10.5t66 -34.5t44 -65t15.5 -104v-259h-104v57q-13 -20 -29 -33.5t-34.5 -21t-38.5 -10.5t-41 -3zM360 671l56 -30q-21 -42 -43.5 -60t-53.5 -18
q-27 0 -45.5 8.5t-32 20.5t-26 21t-28.5 9t-29.5 -12t-24.5 -36l-57 26q15 41 41.5 63t66.5 22q25 0 42.5 -8.5t31 -20.5t27 -20.5t29.5 -8.5t25.5 10.5t20.5 33.5z" />
    <glyph glyph-name="adieresis" unicode="&#xe4;" 
d="M202 -11q-77 0 -119.5 35.5t-42.5 92.5q0 38 17.5 68.5t50 52.5t78.5 34.5t104 12.5q12 0 25.5 -0.5t29 -1.5t31.5 -2l3 -71q-14 2 -29.5 3t-30.5 1h-28q-39 0 -67.5 -5.5t-47 -16.5t-27.5 -27t-9 -37q0 -17 6 -29.5t16.5 -19.5t25 -10.5t31.5 -3.5q33 0 58 11t42.5 32.5
t26.5 54t9 76.5q0 61 -13.5 95t-39.5 47t-65 13q-32 0 -61.5 -10.5t-57.5 -38.5l-53 60q38 36 83.5 52t93.5 16q44 0 81.5 -10.5t66 -34.5t44 -65t15.5 -104v-259h-104v57q-13 -20 -29 -33.5t-34.5 -21t-38.5 -10.5t-41 -3zM156 554q-26 0 -44 17.5t-18 41.5t18 42t44 18
t43.5 -18.5t17.5 -41.5q0 -24 -18.5 -41.5t-42.5 -17.5zM338 554q-26 0 -44 17t-18 42t18 42.5t44 17.5t43 -18.5t17 -41.5q0 -24 -18 -41.5t-42 -17.5z" />
    <glyph glyph-name="aring" unicode="&#xe5;" 
d="M202 -11q-77 0 -119.5 35.5t-42.5 92.5q0 38 17.5 68.5t50 52.5t78.5 34.5t104 12.5q12 0 25.5 -0.5t29 -1.5t31.5 -2l3 -71q-14 2 -29.5 3t-30.5 1h-28q-39 0 -67.5 -5.5t-47 -16.5t-27.5 -27t-9 -37q0 -17 6 -29.5t16.5 -19.5t25 -10.5t31.5 -3.5q33 0 58 11t42.5 32.5
t26.5 54t9 76.5q0 61 -13.5 95t-39.5 47t-65 13q-32 0 -61.5 -10.5t-57.5 -38.5l-53 60q38 36 83.5 52t93.5 16q44 0 81.5 -10.5t66 -34.5t44 -65t15.5 -104v-259h-104v57q-13 -20 -29 -33.5t-34.5 -21t-38.5 -10.5t-41 -3zM243 514q-26 0 -48.5 13t-36.5 34.5t-14 48.5
q0 26 14 47.5t36.5 34.5t48.5 13q28 0 51 -13t36.5 -34.5t13.5 -47.5t-14 -48t-36.5 -35t-50.5 -13zM244 571q15 0 25.5 11.5t10.5 28.5t-10.5 28.5t-25.5 11.5q-14 0 -24.5 -11.5t-10.5 -28.5t10.5 -28.5t24.5 -11.5z" />
    <glyph glyph-name="ae" unicode="&#xe6;" 
d="M145 -12q-42 0 -73.5 17t-49 48t-17.5 74q0 36 14 65t40 49.5t64.5 32.5t86.5 13q0 37 -8.5 61.5t-24 37.5t-36.5 13q-20 0 -38.5 -11.5t-34.5 -33.5l-46 57q24 32 56.5 47t71.5 15q23 0 44.5 -8t38.5 -21t26 -30q11 17 26.5 30.5t33.5 21t37 7.5q48 0 78 -25t44.5 -70.5
t14.5 -107.5v-44l-202 -7v-42q0 -26 6 -47t17.5 -36t27.5 -23.5t37 -8.5q14 0 27 4.5t24.5 14t21.5 23.5l46 -55q-25 -29 -56.5 -45t-68.5 -16q-23 0 -45 8t-40 22.5t-32 33.5q-11 -19 -29 -33.5t-39 -22.5t-43 -8zM148 65q26 0 40 16.5t19 50t5 83.5q-44 -2 -71 -13
t-38.5 -30t-11.5 -45q0 -22 6.5 -35.5t19.5 -20t31 -6.5zM291 289l129 4q0 35 -7 59t-21 35.5t-34 11.5q-19 0 -34.5 -13t-24 -37.5t-8.5 -59.5z" />
    <glyph glyph-name="ccedilla" unicode="&#xe7;" 
d="M281 -11q-51 0 -94.5 17.5t-75 50t-49 76t-17.5 95.5t17.5 96.5t49 77.5t75 51.5t93.5 18.5q62 0 108.5 -23t75.5 -65l-57 -60l-7 -7l-6 6q-1 8 -3.5 15.5t-13.5 20.5q-20 18 -44 25.5t-55 7.5q-26 0 -49.5 -11t-42 -32t-29.5 -51t-11 -67q0 -36 11 -65.5t30 -50
t44.5 -32t53.5 -11.5q22 0 42.5 5.5t39.5 18t36 32.5l55 -64q-36 -39 -82.5 -57t-94.5 -18v0zM278 -202q-29 0 -58 8t-58 30l33 57q24 -20 47 -28t49 -8q20 0 33.5 8t13.5 22q0 13 -13.5 19t-34.5 6h-43l12 88h68l-5 -36q27 -2 44.5 -12.5t26.5 -25.5t9 -31q0 -40 -32 -68.5
t-92 -28.5z" />
    <glyph glyph-name="egrave" unicode="&#xe8;" 
d="M271 -11q-50 0 -92 16t-72.5 46.5t-47.5 75.5t-17 102q0 58 17 103.5t46.5 76.5t69 48t84.5 17q39 0 74.5 -14t62 -41.5t42 -69.5t15.5 -98v-22.5t-1 -21.5h-314q2 -36 14 -62.5t30.5 -43.5t42.5 -25t50 -8q23 0 42.5 4.5t37.5 14.5t33 27l52 -51q-21 -25 -47 -41.5
t-56.5 -24.5t-65.5 -8zM140 282h216q0 28 -7 49t-20.5 36t-32.5 22.5t-42 7.5q-22 0 -40.5 -7t-33.5 -21t-25.5 -35.5t-14.5 -51.5zM253 505l-108 140l72 51l83 -160z" />
    <glyph glyph-name="eacute" unicode="&#xe9;" 
d="M271 -11q-50 0 -92 16t-72.5 46.5t-47.5 75.5t-17 102q0 58 17 103.5t46.5 76.5t69 48t84.5 17q39 0 74.5 -14t62 -41.5t42 -69.5t15.5 -98v-22.5t-1 -21.5h-314q2 -36 14 -62.5t30.5 -43.5t42.5 -25t50 -8q23 0 42.5 4.5t37.5 14.5t33 27l52 -51q-21 -25 -47 -41.5
t-56.5 -24.5t-65.5 -8zM140 282h216q0 28 -7 49t-20.5 36t-32.5 22.5t-42 7.5q-22 0 -40.5 -7t-33.5 -21t-25.5 -35.5t-14.5 -51.5zM246 505l-47 31l83 160l72 -51z" />
    <glyph glyph-name="ecircumflex" unicode="&#xea;" 
d="M271 -11q-50 0 -92 16t-72.5 46.5t-47.5 75.5t-17 102q0 58 17 103.5t46.5 76.5t69 48t84.5 17q39 0 74.5 -14t62 -41.5t42 -69.5t15.5 -98v-22.5t-1 -21.5h-314q2 -36 14 -62.5t30.5 -43.5t42.5 -25t50 -8q23 0 42.5 4.5t37.5 14.5t33 27l52 -51q-21 -25 -47 -41.5
t-56.5 -24.5t-65.5 -8zM140 282h216q0 28 -7 49t-20.5 36t-32.5 22.5t-42 7.5q-22 0 -40.5 -7t-33.5 -21t-25.5 -35.5t-14.5 -51.5zM147 502l-49 44l144 139h32l144 -139l-49 -44l-111 105z" />
    <glyph glyph-name="edieresis" unicode="&#xeb;" 
d="M271 -11q-50 0 -92 16t-72.5 46.5t-47.5 75.5t-17 102q0 58 17 103.5t46.5 76.5t69 48t84.5 17q39 0 74.5 -14t62 -41.5t42 -69.5t15.5 -98v-22.5t-1 -21.5h-314q2 -36 14 -62.5t30.5 -43.5t42.5 -25t50 -8q23 0 42.5 4.5t37.5 14.5t33 27l52 -51q-21 -25 -47 -41.5
t-56.5 -24.5t-65.5 -8zM140 282h216q0 28 -7 49t-20.5 36t-32.5 22.5t-42 7.5q-22 0 -40.5 -7t-33.5 -21t-25.5 -35.5t-14.5 -51.5zM169 554q-26 0 -44 17.5t-18 41.5t18 42t44 18t43.5 -18.5t17.5 -41.5q0 -24 -18.5 -41.5t-42.5 -17.5zM351 554q-26 0 -44 17t-18 42
t18 42.5t44 17.5t43 -18.5t17 -41.5q0 -24 -18 -41.5t-42 -17.5z" />
    <glyph glyph-name="igrave" unicode="&#xec;" 
d="M90 0v79h115v305h-110v79h210v-384h105v-79h-320zM244 505l-108 140l72 51l83 -160z" />
    <glyph glyph-name="iacute" unicode="&#xed;" 
d="M90 0v79h115v305h-110v79h210v-384h105v-79h-320zM247 514l-47 31l83 160l72 -51z" />
    <glyph glyph-name="icircumflex" unicode="&#xee;" 
d="M90 0v79h115v305h-110v79h210v-384h105v-79h-320zM138 502l-49 44l144 139h32l144 -139l-49 -44l-111 105z" />
    <glyph glyph-name="idieresis" unicode="&#xef;" 
d="M90 0v79h115v305h-110v79h210v-384h105v-79h-320zM153 554q-26 0 -44 17.5t-18 41.5t18 42t44 18t43.5 -18.5t17.5 -41.5q0 -24 -18.5 -41.5t-42.5 -17.5zM335 554q-26 0 -44 17t-18 42t18 42.5t44 17.5t43 -18.5t17 -41.5q0 -24 -18 -41.5t-42 -17.5z" />
    <glyph glyph-name="eth" unicode="&#xf0;" 
d="M256 -14q-47 0 -86.5 17t-69.5 48t-47 74t-17 96q0 52 16 97t44 79t63.5 53t74.5 19q23 0 43 -4.5t37 -14t30 -23.5q-14 30 -32.5 60t-42.5 53l-116 -33l-23 64l85 23q-15 12 -29.5 22t-30 20t-35.5 17l104 24q23 -13 42 -26t39 -31l112 32l23 -63l-78 -23
q25 -30 44.5 -65t33 -75t20 -83.5t6.5 -90.5q0 -59 -13.5 -108t-40 -84t-66 -54.5t-90.5 -19.5zM257 68q22 0 41.5 10t35 30t24.5 50.5t9 71.5q0 34 -7 59.5t-17.5 44t-25 30t-31 17.5t-32.5 6q-20 0 -40.5 -10t-37 -30t-26.5 -49t-10 -68q0 -36 9.5 -66t25.5 -51.5t37 -33
t45 -11.5z" />
    <glyph glyph-name="ntilde" unicode="&#xf1;" 
d="M60 0v463h100v-71q17 25 38 43t47 28.5t56 10.5q39 0 72 -20t53 -62.5t20 -112.5v-279h-99v278q0 41 -9 67t-25.5 38t-39.5 12q-20 0 -40 -9t-36.5 -24.5t-26.5 -38t-10 -50.5v-273h-100zM377 671l56 -30q-21 -42 -43.5 -60t-53.5 -18q-27 0 -45.5 8.5t-32 20.5t-26 21
t-28.5 9t-29.5 -12t-24.5 -36l-57 26q15 41 41.5 63t66.5 22q25 0 42.5 -8.5t31 -20.5t27 -20.5t29.5 -8.5t25.5 10.5t20.5 33.5z" />
    <glyph glyph-name="ograve" unicode="&#xf2;" 
d="M250 -10q-63 0 -112 30.5t-78 85t-29 125.5q0 70 29 124.5t78 86t112 31.5q62 0 111.5 -31.5t78.5 -86t29 -124.5t-29 -124.5t-78.5 -85.5t-111.5 -31zM250 71q34 0 60.5 20.5t41.5 56.5t15 84q0 49 -15 85t-41.5 56t-60.5 20t-60.5 -20t-41.5 -56t-15 -85q0 -48 15 -84
t41.5 -56.5t60.5 -20.5zM244 505l-108 140l72 51l83 -160z" />
    <glyph glyph-name="oacute" unicode="&#xf3;" 
d="M250 -10q-63 0 -112 30.5t-78 85t-29 125.5q0 70 29 124.5t78 86t112 31.5q62 0 111.5 -31.5t78.5 -86t29 -124.5t-29 -124.5t-78.5 -85.5t-111.5 -31zM250 71q34 0 60.5 20.5t41.5 56.5t15 84q0 49 -15 85t-41.5 56t-60.5 20t-60.5 -20t-41.5 -56t-15 -85q0 -48 15 -84
t41.5 -56.5t60.5 -20.5zM237 505l-47 31l83 160l72 -51z" />
    <glyph glyph-name="ocircumflex" unicode="&#xf4;" 
d="M250 -10q-63 0 -112 30.5t-78 85t-29 125.5q0 70 29 124.5t78 86t112 31.5q62 0 111.5 -31.5t78.5 -86t29 -124.5t-29 -124.5t-78.5 -85.5t-111.5 -31zM250 71q34 0 60.5 20.5t41.5 56.5t15 84q0 49 -15 85t-41.5 56t-60.5 20t-60.5 -20t-41.5 -56t-15 -85q0 -48 15 -84
t41.5 -56.5t60.5 -20.5zM139 502l-49 44l144 139h32l144 -139l-49 -44l-111 105z" />
    <glyph glyph-name="otilde" unicode="&#xf5;" 
d="M250 -10q-63 0 -112 30.5t-78 85t-29 125.5q0 70 29 124.5t78 86t112 31.5q62 0 111.5 -31.5t78.5 -86t29 -124.5t-29 -124.5t-78.5 -85.5t-111.5 -31zM250 71q34 0 60.5 20.5t41.5 56.5t15 84q0 49 -15 85t-41.5 56t-60.5 20t-60.5 -20t-41.5 -56t-15 -85q0 -48 15 -84
t41.5 -56.5t60.5 -20.5zM365 671l56 -30q-21 -42 -43.5 -60t-53.5 -18q-27 0 -45.5 8.5t-32 20.5t-26 21t-28.5 9t-29.5 -12t-24.5 -36l-57 26q15 41 41.5 63t66.5 22q25 0 42.5 -8.5t31 -20.5t27 -20.5t29.5 -8.5t25.5 10.5t20.5 33.5z" />
    <glyph glyph-name="odieresis" unicode="&#xf6;" 
d="M250 -10q-63 0 -112 30.5t-78 85t-29 125.5q0 70 29 124.5t78 86t112 31.5q62 0 111.5 -31.5t78.5 -86t29 -124.5t-29 -124.5t-78.5 -85.5t-111.5 -31zM250 71q34 0 60.5 20.5t41.5 56.5t15 84q0 49 -15 85t-41.5 56t-60.5 20t-60.5 -20t-41.5 -56t-15 -85q0 -48 15 -84
t41.5 -56.5t60.5 -20.5zM160 554q-26 0 -44 17.5t-18 41.5t18 42t44 18t43.5 -18.5t17.5 -41.5q0 -24 -18.5 -41.5t-42.5 -17.5zM342 554q-26 0 -44 17t-18 42t18 42.5t44 17.5t43 -18.5t17 -41.5q0 -24 -18 -41.5t-42 -17.5z" />
    <glyph glyph-name="divide" unicode="&#xf7;" 
d="M65 270v88h371v-88h-371zM255 424q-21 0 -36.5 15.5t-15.5 36.5q0 22 16 38t36 16q22 0 37.5 -16.5t15.5 -37.5t-15.5 -36.5t-37.5 -15.5zM256 96q-22 0 -38 15t-16 37q0 23 16.5 38.5t37.5 15.5t36.5 -16.5t15.5 -37.5t-15.5 -36.5t-36.5 -15.5z" />
    <glyph glyph-name="oslash" unicode="&#xf8;" 
d="M133 -66l-71 37l298 551l73 -39zM250 -10q-63 0 -112 30.5t-78 85t-29 125.5q0 70 29 124.5t78 86t112 31.5q62 0 111.5 -31.5t78.5 -86t29 -124.5t-29 -124.5t-78.5 -85.5t-111.5 -31zM250 71q34 0 60.5 20.5t41.5 56.5t15 84q0 49 -15 85t-41.5 56t-60.5 20t-60.5 -20
t-41.5 -56t-15 -85q0 -48 15 -84t41.5 -56.5t60.5 -20.5z" />
    <glyph glyph-name="ugrave" unicode="&#xf9;" 
d="M215 -11q-28 0 -52.5 7.5t-44.5 23.5t-34.5 40t-22 58t-7.5 77l1 268h98v-268q0 -35 6.5 -59.5t18 -39.5t26.5 -21.5t32 -6.5q22 0 41 8t33.5 24.5t22 42t7.5 59.5v261h100v-390q0 -20 1.5 -37.5t8.5 -35.5h-93q-5 11 -7 21.5t-2.5 21t-0.5 21.5q-10 -19 -24.5 -33
t-32 -23.5t-36 -14t-39.5 -4.5zM244 505l-108 140l72 51l83 -160z" />
    <glyph glyph-name="uacute" unicode="&#xfa;" 
d="M215 -11q-28 0 -52.5 7.5t-44.5 23.5t-34.5 40t-22 58t-7.5 77l1 268h98v-268q0 -35 6.5 -59.5t18 -39.5t26.5 -21.5t32 -6.5q22 0 41 8t33.5 24.5t22 42t7.5 59.5v261h100v-390q0 -20 1.5 -37.5t8.5 -35.5h-93q-5 11 -7 21.5t-2.5 21t-0.5 21.5q-10 -19 -24.5 -33
t-32 -23.5t-36 -14t-39.5 -4.5zM236 505l-47 31l83 160l72 -51z" />
    <glyph glyph-name="ucircumflex" unicode="&#xfb;" 
d="M215 -11q-28 0 -52.5 7.5t-44.5 23.5t-34.5 40t-22 58t-7.5 77l1 268h98v-268q0 -35 6.5 -59.5t18 -39.5t26.5 -21.5t32 -6.5q22 0 41 8t33.5 24.5t22 42t7.5 59.5v261h100v-390q0 -20 1.5 -37.5t8.5 -35.5h-93q-5 11 -7 21.5t-2.5 21t-0.5 21.5q-10 -19 -24.5 -33
t-32 -23.5t-36 -14t-39.5 -4.5zM138 502l-49 44l144 139h32l144 -139l-49 -44l-111 105z" />
    <glyph glyph-name="udieresis" unicode="&#xfc;" 
d="M215 -11q-28 0 -52.5 7.5t-44.5 23.5t-34.5 40t-22 58t-7.5 77l1 268h98v-268q0 -35 6.5 -59.5t18 -39.5t26.5 -21.5t32 -6.5q22 0 41 8t33.5 24.5t22 42t7.5 59.5v261h100v-390q0 -20 1.5 -37.5t8.5 -35.5h-93q-5 11 -7 21.5t-2.5 21t-0.5 21.5q-10 -19 -24.5 -33
t-32 -23.5t-36 -14t-39.5 -4.5zM160 554q-26 0 -44 17.5t-18 41.5t18 42t44 18t43.5 -18.5t17.5 -41.5q0 -24 -18.5 -41.5t-42.5 -17.5zM342 554q-26 0 -44 17t-18 42t18 42.5t44 17.5t43 -18.5t17 -41.5q0 -24 -18 -41.5t-42 -17.5z" />
    <glyph glyph-name="yacute" unicode="&#xfd;" 
d="M126 -175q-33 0 -59 10.5t-50 31.5l37 68l5 8l7 -4q3 -7 7.5 -13.5t18.5 -16.5q8 -3 17 -4.5t18 -1.5q23 0 39 11.5t28.5 35.5t25.5 62l96 280q15 44 26.5 85.5t14.5 85.5h94q-4 -46 -20.5 -95t-33.5 -95l-115 -317q-26 -73 -65 -102t-91 -29v0zM36 463h101l140 -364
l-50 -110zM242 505l-47 31l83 160l72 -51z" />
    <glyph glyph-name="thorn" unicode="&#xfe;" 
d="M52 669h98h9v-9q-5 -6 -6.5 -13t-1.5 -24v-234q13 30 33.5 48.5t45.5 27t54 8.5q38 0 71.5 -15.5t59.5 -45.5t41 -75t15 -105q0 -61 -16 -107t-42.5 -76.5t-60.5 -45.5t-70 -15q-25 0 -49.5 6.5t-44.5 20t-35 31.5v-213h-101v836zM257 68q23 0 43 8.5t36 27t25 51t9 79.5
q0 50 -12.5 85t-36 54t-56.5 20q-25 1 -46 -8.5t-36 -30t-22.5 -54t-7.5 -79.5q0 -31 4.5 -55.5t13.5 -43t21.5 -30.5t29 -18t35.5 -6v0z" />
    <glyph glyph-name="ydieresis" unicode="&#xff;" 
d="M126 -175q-33 0 -59 10.5t-50 31.5l37 68l5 8l7 -4q3 -7 7.5 -13.5t18.5 -16.5q8 -3 17 -4.5t18 -1.5q23 0 39 11.5t28.5 35.5t25.5 62l96 280q15 44 26.5 85.5t14.5 85.5h94q-4 -46 -20.5 -95t-33.5 -95l-115 -317q-26 -73 -65 -102t-91 -29v0zM36 463h101l140 -364
l-50 -110zM166 554q-26 0 -44 17.5t-18 41.5t18 42t44 18t43.5 -18.5t17.5 -41.5q0 -24 -18.5 -41.5t-42.5 -17.5zM348 554q-26 0 -44 17t-18 42t18 42.5t44 17.5t43 -18.5t17 -41.5q0 -24 -18 -41.5t-42 -17.5z" />
    <glyph glyph-name="Amacron" unicode="&#x100;" 
d="M363 158h-237l15 71h205zM250 437l-139 -437h-97l217 630h39l217 -630h-100zM114 726v69h271v-69h-271z" />
    <glyph glyph-name="amacron" unicode="&#x101;" 
d="M202 -11q-77 0 -119.5 35.5t-42.5 92.5q0 38 17.5 68.5t50 52.5t78.5 34.5t104 12.5q12 0 25.5 -0.5t29 -1.5t31.5 -2l3 -71q-14 2 -29.5 3t-30.5 1h-28q-39 0 -67.5 -5.5t-47 -16.5t-27.5 -27t-9 -37q0 -17 6 -29.5t16.5 -19.5t25 -10.5t31.5 -3.5q33 0 58 11t42.5 32.5
t26.5 54t9 76.5q0 61 -13.5 95t-39.5 47t-65 13q-32 0 -61.5 -10.5t-57.5 -38.5l-53 60q38 36 83.5 52t93.5 16q44 0 81.5 -10.5t66 -34.5t44 -65t15.5 -104v-259h-104v57q-13 -20 -29 -33.5t-34.5 -21t-38.5 -10.5t-41 -3zM110 564v69h271v-69h-271z" />
    <glyph glyph-name="Abreve" unicode="&#x102;" 
d="M363 158h-237l15 71h205zM250 437l-139 -437h-97l217 630h39l217 -630h-100zM334 797l64 -29q-23 -48 -61 -74.5t-87 -26.5q-48 0 -86 26.5t-62 74.5l64 29q16 -36 36 -53t48 -17q19 0 34.5 7.5t28 23t21.5 39.5z" />
    <glyph glyph-name="abreve" unicode="&#x103;" 
d="M202 -11q-77 0 -119.5 35.5t-42.5 92.5q0 38 17.5 68.5t50 52.5t78.5 34.5t104 12.5q12 0 25.5 -0.5t29 -1.5t31.5 -2l3 -71q-14 2 -29.5 3t-30.5 1h-28q-39 0 -67.5 -5.5t-47 -16.5t-27.5 -27t-9 -37q0 -17 6 -29.5t16.5 -19.5t25 -10.5t31.5 -3.5q33 0 58 11t42.5 32.5
t26.5 54t9 76.5q0 61 -13.5 95t-39.5 47t-65 13q-32 0 -61.5 -10.5t-57.5 -38.5l-53 60q38 36 83.5 52t93.5 16q44 0 81.5 -10.5t66 -34.5t44 -65t15.5 -104v-259h-104v57q-13 -20 -29 -33.5t-34.5 -21t-38.5 -10.5t-41 -3zM330 663l64 -29q-23 -48 -61 -74.5t-87 -26.5
q-48 0 -86 26.5t-62 74.5l64 29q16 -36 36 -53t48 -17q19 0 34.5 7.5t28 23t21.5 39.5z" />
    <glyph glyph-name="Aogonek" unicode="&#x104;" 
d="M363 158h-237l15 71h205zM250 437l-139 -437h-97l217 630h39l217 -630h-100zM454 -160l-35 -74q-41 9 -69 24.5t-42.5 35.5t-14.5 44q0 26 15 52.5t45 52.5t72 49l36 -24q-23 -19 -39 -37.5t-24.5 -35.5t-8.5 -32q0 -19 16 -33.5t49 -21.5z" />
    <glyph glyph-name="aogonek" unicode="&#x105;" 
d="M202 -11q-77 0 -119.5 35.5t-42.5 92.5q0 38 17.5 68.5t50 52.5t78.5 34.5t104 12.5q12 0 25.5 -0.5t29 -1.5t31.5 -2l3 -71q-14 2 -29.5 3t-30.5 1h-28q-39 0 -67.5 -5.5t-47 -16.5t-27.5 -27t-9 -37q0 -17 6 -29.5t16.5 -19.5t25 -10.5t31.5 -3.5q33 0 58 11t42.5 32.5
t26.5 54t9 76.5q0 61 -13.5 95t-39.5 47t-65 13q-32 0 -61.5 -10.5t-57.5 -38.5l-53 60q38 36 83.5 52t93.5 16q44 0 81.5 -10.5t66 -34.5t44 -65t15.5 -104v-259h-104v57q-13 -20 -29 -33.5t-34.5 -21t-38.5 -10.5t-41 -3zM388 -160l-35 -74q-41 9 -69 24.5t-42.5 35.5
t-14.5 44q0 26 15 52.5t45 52.5t72 49l36 -24q-23 -19 -39 -37.5t-24.5 -35.5t-8.5 -32q0 -19 16 -33.5t49 -21.5z" />
    <glyph glyph-name="Cacute" unicode="&#x106;" 
d="M281 -11q-51 0 -95.5 19t-78.5 58t-53.5 99t-19.5 143q0 73 14.5 127.5t39.5 92t57 60t67 33t70 10.5q70 0 119.5 -32.5t74.5 -89.5l-67 -45l-8 -5l-5 7q2 8 -0.5 15.5t-11.5 20.5q-22 29 -47 39t-51 10q-32 0 -60.5 -15.5t-49.5 -45.5t-33 -74.5t-12 -102.5
q0 -56 11.5 -100.5t32 -76t48 -48t59.5 -16.5q25 0 46 7t39 23.5t32 39.5l70 -49q-33 -55 -79 -79.5t-109 -24.5v0zM196 656l-27 50l159 93l43 -81z" />
    <glyph glyph-name="cacute" unicode="&#x107;" 
d="M281 -11q-51 0 -94.5 17.5t-75 50t-49 76t-17.5 95.5t17.5 96.5t49 77.5t75 51.5t93.5 18.5q62 0 108.5 -23t75.5 -65l-57 -60l-7 -7l-6 6q-1 8 -3.5 15.5t-13.5 20.5q-20 18 -44 25.5t-55 7.5q-26 0 -49.5 -11t-42 -32t-29.5 -51t-11 -67q0 -36 11 -65.5t30 -50
t44.5 -32t53.5 -11.5q22 0 42.5 5.5t39.5 18t36 32.5l55 -64q-36 -39 -82.5 -57t-94.5 -18v0zM266 505l-47 31l83 160l72 -51z" />
    <glyph glyph-name="Ccircumflex" unicode="&#x108;" 
d="M281 -11q-51 0 -95.5 19t-78.5 58t-53.5 99t-19.5 143q0 73 14.5 127.5t39.5 92t57 60t67 33t70 10.5q70 0 119.5 -32.5t74.5 -89.5l-67 -45l-8 -5l-5 7q2 8 -0.5 15.5t-11.5 20.5q-22 29 -47 39t-51 10q-32 0 -60.5 -15.5t-49.5 -45.5t-33 -74.5t-12 -102.5
q0 -56 11.5 -100.5t32 -76t48 -48t59.5 -16.5q25 0 46 7t39 23.5t32 39.5l70 -49q-33 -55 -79 -79.5t-109 -24.5v0zM135 651l-35 49l155 97h28l155 -96l-35 -50l-133 68z" />
    <glyph glyph-name="ccircumflex" unicode="&#x109;" 
d="M281 -11q-51 0 -94.5 17.5t-75 50t-49 76t-17.5 95.5t17.5 96.5t49 77.5t75 51.5t93.5 18.5q62 0 108.5 -23t75.5 -65l-57 -60l-7 -7l-6 6q-1 8 -3.5 15.5t-13.5 20.5q-20 18 -44 25.5t-55 7.5q-26 0 -49.5 -11t-42 -32t-29.5 -51t-11 -67q0 -36 11 -65.5t30 -50
t44.5 -32t53.5 -11.5q22 0 42.5 5.5t39.5 18t36 32.5l55 -64q-36 -39 -82.5 -57t-94.5 -18v0zM168 502l-49 44l144 139h32l144 -139l-49 -44l-111 105z" />
    <glyph glyph-name="Cdotaccent" unicode="&#x10a;" 
d="M281 -11q-51 0 -95.5 19t-78.5 58t-53.5 99t-19.5 143q0 73 14.5 127.5t39.5 92t57 60t67 33t70 10.5q70 0 119.5 -32.5t74.5 -89.5l-67 -45l-8 -5l-5 7q2 8 -0.5 15.5t-11.5 20.5q-22 29 -47 39t-51 10q-32 0 -60.5 -15.5t-49.5 -45.5t-33 -74.5t-12 -102.5
q0 -56 11.5 -100.5t32 -76t48 -48t59.5 -16.5q25 0 46 7t39 23.5t32 39.5l70 -49q-33 -55 -79 -79.5t-109 -24.5v0zM270 686q-27 0 -45.5 18.5t-18.5 43.5q0 27 18 45t46 18q26 0 45.5 -19t19.5 -44t-19.5 -43.5t-45.5 -18.5z" />
    <glyph glyph-name="cdotaccent" unicode="&#x10b;" 
d="M281 -11q-51 0 -94.5 17.5t-75 50t-49 76t-17.5 95.5t17.5 96.5t49 77.5t75 51.5t93.5 18.5q62 0 108.5 -23t75.5 -65l-57 -60l-7 -7l-6 6q-1 8 -3.5 15.5t-13.5 20.5q-20 18 -44 25.5t-55 7.5q-26 0 -49.5 -11t-42 -32t-29.5 -51t-11 -67q0 -36 11 -65.5t30 -50
t44.5 -32t53.5 -11.5q22 0 42.5 5.5t39.5 18t36 32.5l55 -64q-36 -39 -82.5 -57t-94.5 -18v0zM279 546q-27 0 -45.5 18.5t-18.5 43.5q0 27 18 45t46 18q26 0 45.5 -19t19.5 -44t-19.5 -43.5t-45.5 -18.5z" />
    <glyph glyph-name="Ccaron" unicode="&#x10c;" 
d="M281 -11q-51 0 -95.5 19t-78.5 58t-53.5 99t-19.5 143q0 73 14.5 127.5t39.5 92t57 60t67 33t70 10.5q70 0 119.5 -32.5t74.5 -89.5l-67 -45l-8 -5l-5 7q2 8 -0.5 15.5t-11.5 20.5q-22 29 -47 39t-51 10q-32 0 -60.5 -15.5t-49.5 -45.5t-33 -74.5t-12 -102.5
q0 -56 11.5 -100.5t32 -76t48 -48t59.5 -16.5q25 0 46 7t39 23.5t32 39.5l70 -49q-33 -55 -79 -79.5t-109 -24.5v0zM404 806l35 -49l-155 -97h-28l-155 96l35 50l133 -68z" />
    <glyph glyph-name="ccaron" unicode="&#x10d;" 
d="M281 -11q-51 0 -94.5 17.5t-75 50t-49 76t-17.5 95.5t17.5 96.5t49 77.5t75 51.5t93.5 18.5q62 0 108.5 -23t75.5 -65l-57 -60l-7 -7l-6 6q-1 8 -3.5 15.5t-13.5 20.5q-20 18 -44 25.5t-55 7.5q-26 0 -49.5 -11t-42 -32t-29.5 -51t-11 -67q0 -36 11 -65.5t30 -50
t44.5 -32t53.5 -11.5q22 0 42.5 5.5t39.5 18t36 32.5l55 -64q-36 -39 -82.5 -57t-94.5 -18v0zM166 698l111 -105l111 105l49 -43l-144 -139h-32l-144 139z" />
    <glyph glyph-name="Dcaron" unicode="&#x10e;" 
d="M46 -1v624h155q55 0 92.5 -10t64 -29t46.5 -47q21 -28 35.5 -63t21.5 -76.5t7 -89.5q-1 -72 -17.5 -129t-50 -97t-85.5 -61.5t-126 -21.5h-143zM141 77h46q67 0 107.5 27.5t59 79t18.5 121.5q0 74 -17 127t-54.5 82.5t-103.5 29.5h-56v-467zM354 806l35 -49l-155 -97h-28
l-155 96l35 50l133 -68z" />
    <glyph glyph-name="dcaron" unicode="&#x10f;" 
d="M178 -10q-30 0 -57 13t-47.5 41t-32.5 75t-12 115q0 66 11.5 112t32 74.5t48 41.5t59.5 13q33 0 57.5 -15.5t35.5 -48.5v257h86h10v-9q-6 -6 -7.5 -13t-1.5 -24v-555q0 -17 1 -33.5t7 -33.5h-86q-4 10 -6 18.5t-2.5 17t-0.5 20.5q-10 -21 -24.5 -36t-32.5 -22.5t-38 -7.5
v0zM195 69q26 0 43 18.5t25 55t8 89.5q0 57 -8.5 93.5t-25.5 54.5t-43 18q-19 0 -34 -9.5t-25.5 -28.5t-15.5 -48.5t-5 -70.5q0 -45 6 -78t17 -53.5t26 -30.5t32 -10v0zM433 668q23 0 38 -16t15 -43q0 -23 -8.5 -48t-23 -51t-33.5 -52l-43 29q11 13 19.5 25.5t13.5 24.5
t5 24q0 9 -8 16.5t-16.5 17.5t-8.5 29q0 17 14 30.5t36 13.5z" />
    <glyph glyph-name="Dcroat" unicode="&#x110;" 
d="M63 0v290h-42v79h42v254h152q46 0 81 -9t61 -25t44.5 -35.5t31.5 -39.5q12 -20 22 -50t15.5 -69.5t5.5 -86.5q0 -72 -16 -129t-49.5 -97t-85.5 -61t-122 -21h-140zM155 80h46q60 0 100 26t60 76.5t20 122.5q0 73 -17.5 126t-55 80.5t-97.5 27.5h-56v-170h98v-79h-98v-210
z" />
    <glyph glyph-name="dcroat" unicode="&#x111;" 
d="M228 -11q-37 0 -71.5 15.5t-61.5 45.5t-42.5 76.5t-15.5 107.5q0 62 15.5 107t42.5 74.5t62 44t73 14.5q27 0 49.5 -7t40.5 -21t29 -35v258h97h9v-9q-5 -6 -7 -13t-1 -24v-558q0 -16 1.5 -32.5t8.5 -32.5h-98q-5 11 -7 20t-2 18v19q-14 -21 -32 -36.5t-41 -23.5t-49 -8v0
zM245 71q27 0 46 11t31 32t18 51t6 68q0 51 -11 87.5t-34.5 56t-59.5 19.5q-26 0 -46 -11t-33.5 -31.5t-20.5 -49.5t-7 -65q0 -51 14.5 -89t39.5 -58.5t57 -20.5v0zM225 523v67h274v-67h-274z" />
    <glyph glyph-name="Emacron" unicode="&#x112;" 
d="M54 0v624h397v-82h-302v-176h249v-83h-249v-201h300v-82h-395zM127 726v69h271v-69h-271z" />
    <glyph glyph-name="emacron" unicode="&#x113;" 
d="M271 -11q-50 0 -92 16t-72.5 46.5t-47.5 75.5t-17 102q0 58 17 103.5t46.5 76.5t69 48t84.5 17q39 0 74.5 -14t62 -41.5t42 -69.5t15.5 -98v-22.5t-1 -21.5h-314q2 -36 14 -62.5t30.5 -43.5t42.5 -25t50 -8q23 0 42.5 4.5t37.5 14.5t33 27l52 -51q-21 -25 -47 -41.5
t-56.5 -24.5t-65.5 -8zM140 282h216q0 28 -7 49t-20.5 36t-32.5 22.5t-42 7.5q-22 0 -40.5 -7t-33.5 -21t-25.5 -35.5t-14.5 -51.5zM123 564v69h271v-69h-271z" />
    <glyph glyph-name="Ebreve" unicode="&#x114;" 
d="M54 0v624h397v-82h-302v-176h249v-83h-249v-201h300v-82h-395zM347 797l64 -29q-23 -48 -61 -74.5t-87 -26.5q-48 0 -86 26.5t-62 74.5l64 29q16 -36 36 -53t48 -17q19 0 34.5 7.5t28 23t21.5 39.5z" />
    <glyph glyph-name="ebreve" unicode="&#x115;" 
d="M271 -11q-50 0 -92 16t-72.5 46.5t-47.5 75.5t-17 102q0 58 17 103.5t46.5 76.5t69 48t84.5 17q39 0 74.5 -14t62 -41.5t42 -69.5t15.5 -98v-22.5t-1 -21.5h-314q2 -36 14 -62.5t30.5 -43.5t42.5 -25t50 -8q23 0 42.5 4.5t37.5 14.5t33 27l52 -51q-21 -25 -47 -41.5
t-56.5 -24.5t-65.5 -8zM140 282h216q0 28 -7 49t-20.5 36t-32.5 22.5t-42 7.5q-22 0 -40.5 -7t-33.5 -21t-25.5 -35.5t-14.5 -51.5zM343 663l64 -29q-23 -48 -61 -74.5t-87 -26.5q-48 0 -86 26.5t-62 74.5l64 29q16 -36 36 -53t48 -17q19 0 34.5 7.5t28 23t21.5 39.5z" />
    <glyph glyph-name="Edotaccent" unicode="&#x116;" 
d="M54 0v624h397v-82h-302v-176h249v-83h-249v-201h300v-82h-395zM263 686q-27 0 -45.5 18.5t-18.5 43.5q0 27 18 45t46 18q26 0 45.5 -19t19.5 -44t-19.5 -43.5t-45.5 -18.5z" />
    <glyph glyph-name="edotaccent" unicode="&#x117;" 
d="M271 -11q-50 0 -92 16t-72.5 46.5t-47.5 75.5t-17 102q0 58 17 103.5t46.5 76.5t69 48t84.5 17q39 0 74.5 -14t62 -41.5t42 -69.5t15.5 -98v-22.5t-1 -21.5h-314q2 -36 14 -62.5t30.5 -43.5t42.5 -25t50 -8q23 0 42.5 4.5t37.5 14.5t33 27l52 -51q-21 -25 -47 -41.5
t-56.5 -24.5t-65.5 -8zM140 282h216q0 28 -7 49t-20.5 36t-32.5 22.5t-42 7.5q-22 0 -40.5 -7t-33.5 -21t-25.5 -35.5t-14.5 -51.5zM259 546q-27 0 -45.5 18.5t-18.5 43.5q0 27 18 45t46 18q26 0 45.5 -19t19.5 -44t-19.5 -43.5t-45.5 -18.5z" />
    <glyph glyph-name="Eogonek" unicode="&#x118;" 
d="M54 0v624h397v-82h-302v-176h249v-83h-249v-201h300v-82h-395zM388 -160l-35 -74q-41 9 -69 24.5t-42.5 35.5t-14.5 44q0 26 15 52.5t45 52.5t72 49l36 -24q-23 -19 -39 -37.5t-24.5 -35.5t-8.5 -32q0 -19 16 -33.5t49 -21.5z" />
    <glyph glyph-name="eogonek" unicode="&#x119;" 
d="M271 -11q-50 0 -92 16t-72.5 46.5t-47.5 75.5t-17 102q0 58 17 103.5t46.5 76.5t69 48t84.5 17q39 0 74.5 -14t62 -41.5t42 -69.5t15.5 -98v-22.5t-1 -21.5h-314q2 -36 14 -62.5t30.5 -43.5t42.5 -25t50 -8q23 0 42.5 4.5t37.5 14.5t33 27l52 -51q-21 -25 -47 -41.5
t-56.5 -24.5t-65.5 -8zM140 282h216q0 28 -7 49t-20.5 36t-32.5 22.5t-42 7.5q-22 0 -40.5 -7t-33.5 -21t-25.5 -35.5t-14.5 -51.5zM375 -145l-35 -74q-41 9 -69 24.5t-42.5 35.5t-14.5 44q0 26 15 52.5t45 52.5t72 49l36 -24q-23 -19 -39 -37.5t-24.5 -35.5t-8.5 -32
q0 -19 16 -33.5t49 -21.5z" />
    <glyph glyph-name="Ecaron" unicode="&#x11a;" 
d="M54 0v624h397v-82h-302v-176h249v-83h-249v-201h300v-82h-395zM397 806l35 -49l-155 -97h-28l-155 96l35 50l133 -68z" />
    <glyph glyph-name="ecaron" unicode="&#x11b;" 
d="M271 -11q-50 0 -92 16t-72.5 46.5t-47.5 75.5t-17 102q0 58 17 103.5t46.5 76.5t69 48t84.5 17q39 0 74.5 -14t62 -41.5t42 -69.5t15.5 -98v-22.5t-1 -21.5h-314q2 -36 14 -62.5t30.5 -43.5t42.5 -25t50 -8q23 0 42.5 4.5t37.5 14.5t33 27l52 -51q-21 -25 -47 -41.5
t-56.5 -24.5t-65.5 -8zM140 282h216q0 28 -7 49t-20.5 36t-32.5 22.5t-42 7.5q-22 0 -40.5 -7t-33.5 -21t-25.5 -35.5t-14.5 -51.5zM146 698l111 -105l111 105l49 -43l-144 -139h-32l-144 139z" />
    <glyph glyph-name="Gcircumflex" unicode="&#x11c;" 
d="M277 -11q-77 0 -133 39.5t-85.5 111.5t-29.5 167q-1 80 15.5 136.5t43.5 93.5t60 58t66 29t61 8q39 0 76 -13t67.5 -36.5t48.5 -57.5l-60 -57l-8 -7l-6 7q1 8 -2 15t-13 20q-13 15 -27.5 25t-32.5 15.5t-42 5.5t-46 -7.5t-41 -24t-33 -43.5t-22 -65.5t-8 -89.5
q0 -62 11 -108t30.5 -77t47.5 -47t62 -16q12 0 25.5 2t27 5.5t26 10.5t23.5 15v127h-106v82h195v-259q-44 -34 -92.5 -49.5t-98.5 -15.5v0zM136 651l-35 49l155 97h28l155 -96l-35 -50l-133 68z" />
    <glyph glyph-name="gcircumflex" unicode="&#x11d;" 
d="M241 -176q-48 0 -87 8t-66.5 23.5t-41.5 38t-14 50.5q0 26 12 47t32 36.5t44 23.5l44 -20q-16 -10 -28 -20t-18.5 -22.5t-6.5 -29.5q0 -15 10 -26t28 -18t43 -11t56 -4q41 0 68 7.5t40.5 21.5t13.5 32t-8 28.5t-30 16t-64 5.5q-34 0 -64.5 2.5t-56 9.5t-44.5 18
t-29.5 27.5t-10.5 39.5q0 30 18 54.5t45 44.5l45 -28q-9 -10 -16 -17t-11 -13.5t-4 -15.5q0 -13 15 -22t48.5 -13t89.5 -4q47 0 78.5 -9.5t49.5 -26.5t25.5 -38.5t7.5 -47.5q0 -28 -12 -54.5t-37.5 -47.5t-66 -33.5t-97.5 -12.5zM228 156q-49 0 -87 21.5t-59.5 57.5
t-21.5 81t21.5 81.5t59.5 58t87 21.5q50 0 88 -21.5t59.5 -58t21.5 -81.5t-21.5 -81t-59.5 -57.5t-88 -21.5zM228 231q25 0 44 11t30 30.5t11 43.5q0 25 -11 43.5t-30.5 29.5t-43.5 11q-23 0 -42 -11t-30.5 -30t-11.5 -43q0 -23 11 -42.5t30 -31t43 -11.5zM369 381l-38 47
q29 24 63.5 36.5t76.5 9.5l10 -71q-31 4 -60 -0.5t-52 -21.5zM118 502l-49 44l144 139h32l144 -139l-49 -44l-111 105z" />
    <glyph glyph-name="Gbreve" unicode="&#x11e;" 
d="M277 -11q-77 0 -133 39.5t-85.5 111.5t-29.5 167q-1 80 15.5 136.5t43.5 93.5t60 58t66 29t61 8q39 0 76 -13t67.5 -36.5t48.5 -57.5l-60 -57l-8 -7l-6 7q1 8 -2 15t-13 20q-13 15 -27.5 25t-32.5 15.5t-42 5.5t-46 -7.5t-41 -24t-33 -43.5t-22 -65.5t-8 -89.5
q0 -62 11 -108t30.5 -77t47.5 -47t62 -16q12 0 25.5 2t27 5.5t26 10.5t23.5 15v127h-106v82h195v-259q-44 -34 -92.5 -49.5t-98.5 -15.5v0zM355 797l64 -29q-23 -48 -61 -74.5t-87 -26.5q-48 0 -86 26.5t-62 74.5l64 29q16 -36 36 -53t48 -17q19 0 34.5 7.5t28 23t21.5 39.5
z" />
    <glyph glyph-name="gbreve" unicode="&#x11f;" 
d="M241 -176q-48 0 -87 8t-66.5 23.5t-41.5 38t-14 50.5q0 26 12 47t32 36.5t44 23.5l44 -20q-16 -10 -28 -20t-18.5 -22.5t-6.5 -29.5q0 -15 10 -26t28 -18t43 -11t56 -4q41 0 68 7.5t40.5 21.5t13.5 32t-8 28.5t-30 16t-64 5.5q-34 0 -64.5 2.5t-56 9.5t-44.5 18
t-29.5 27.5t-10.5 39.5q0 30 18 54.5t45 44.5l45 -28q-9 -10 -16 -17t-11 -13.5t-4 -15.5q0 -13 15 -22t48.5 -13t89.5 -4q47 0 78.5 -9.5t49.5 -26.5t25.5 -38.5t7.5 -47.5q0 -28 -12 -54.5t-37.5 -47.5t-66 -33.5t-97.5 -12.5zM228 156q-49 0 -87 21.5t-59.5 57.5
t-21.5 81t21.5 81.5t59.5 58t87 21.5q50 0 88 -21.5t59.5 -58t21.5 -81.5t-21.5 -81t-59.5 -57.5t-88 -21.5zM228 231q25 0 44 11t30 30.5t11 43.5q0 25 -11 43.5t-30.5 29.5t-43.5 11q-23 0 -42 -11t-30.5 -30t-11.5 -43q0 -23 11 -42.5t30 -31t43 -11.5zM369 381l-38 47
q29 24 63.5 36.5t76.5 9.5l10 -71q-31 4 -60 -0.5t-52 -21.5zM259 520q-40 0 -80.5 19.5t-79.5 61.5l53 64q21 -34 49.5 -52t59.5 -18q28 0 57 16t56 54l41 -62q-20 -26 -46 -44.5t-54 -28.5t-56 -10z" />
    <glyph glyph-name="Gdotaccent" unicode="&#x120;" 
d="M277 -11q-77 0 -133 39.5t-85.5 111.5t-29.5 167q-1 80 15.5 136.5t43.5 93.5t60 58t66 29t61 8q39 0 76 -13t67.5 -36.5t48.5 -57.5l-60 -57l-8 -7l-6 7q1 8 -2 15t-13 20q-13 15 -27.5 25t-32.5 15.5t-42 5.5t-46 -7.5t-41 -24t-33 -43.5t-22 -65.5t-8 -89.5
q0 -62 11 -108t30.5 -77t47.5 -47t62 -16q12 0 25.5 2t27 5.5t26 10.5t23.5 15v127h-106v82h195v-259q-44 -34 -92.5 -49.5t-98.5 -15.5v0zM271 686q-27 0 -45.5 18.5t-18.5 43.5q0 27 18 45t46 18q26 0 45.5 -19t19.5 -44t-19.5 -43.5t-45.5 -18.5z" />
    <glyph glyph-name="gdotaccent" unicode="&#x121;" 
d="M241 -176q-48 0 -87 8t-66.5 23.5t-41.5 38t-14 50.5q0 26 12 47t32 36.5t44 23.5l44 -20q-16 -10 -28 -20t-18.5 -22.5t-6.5 -29.5q0 -15 10 -26t28 -18t43 -11t56 -4q41 0 68 7.5t40.5 21.5t13.5 32t-8 28.5t-30 16t-64 5.5q-34 0 -64.5 2.5t-56 9.5t-44.5 18
t-29.5 27.5t-10.5 39.5q0 30 18 54.5t45 44.5l45 -28q-9 -10 -16 -17t-11 -13.5t-4 -15.5q0 -13 15 -22t48.5 -13t89.5 -4q47 0 78.5 -9.5t49.5 -26.5t25.5 -38.5t7.5 -47.5q0 -28 -12 -54.5t-37.5 -47.5t-66 -33.5t-97.5 -12.5zM228 156q-49 0 -87 21.5t-59.5 57.5
t-21.5 81t21.5 81.5t59.5 58t87 21.5q50 0 88 -21.5t59.5 -58t21.5 -81.5t-21.5 -81t-59.5 -57.5t-88 -21.5zM228 231q25 0 44 11t30 30.5t11 43.5q0 25 -11 43.5t-30.5 29.5t-43.5 11q-23 0 -42 -11t-30.5 -30t-11.5 -43q0 -23 11 -42.5t30 -31t43 -11.5zM369 381l-38 47
q29 24 63.5 36.5t76.5 9.5l10 -71q-31 4 -60 -0.5t-52 -21.5zM229 546q-27 0 -45.5 18.5t-18.5 43.5q0 27 18 45t46 18q26 0 45.5 -19t19.5 -44t-19.5 -43.5t-45.5 -18.5z" />
    <glyph glyph-name="uni0122" unicode="&#x122;" 
d="M277 -11q-77 0 -133 39.5t-85.5 111.5t-29.5 167q-1 80 15.5 136.5t43.5 93.5t60 58t66 29t61 8q39 0 76 -13t67.5 -36.5t48.5 -57.5l-60 -57l-8 -7l-6 7q1 8 -2 15t-13 20q-13 15 -27.5 25t-32.5 15.5t-42 5.5t-46 -7.5t-41 -24t-33 -43.5t-22 -65.5t-8 -89.5
q0 -62 11 -108t30.5 -77t47.5 -47t62 -16q12 0 25.5 2t27 5.5t26 10.5t23.5 15v127h-106v82h195v-259q-44 -34 -92.5 -49.5t-98.5 -15.5v0zM244 -289l-47 40q24 23 39 47.5t15 40.5q0 13 -11 24t-21.5 23.5t-10.5 32.5q0 27 18.5 43t45.5 16q31 0 51 -23.5t20 -61.5
q0 -27 -11 -56t-33 -60t-55 -66z" />
    <glyph glyph-name="uni0123" unicode="&#x123;" 
d="M241 -176q-48 0 -87 8t-66.5 23.5t-41.5 38t-14 50.5q0 26 12 47t32 36.5t44 23.5l44 -20q-16 -10 -28 -20t-18.5 -22.5t-6.5 -29.5q0 -15 10 -26t28 -18t43 -11t56 -4q41 0 68 7.5t40.5 21.5t13.5 32t-8 28.5t-30 16t-64 5.5q-34 0 -64.5 2.5t-56 9.5t-44.5 18
t-29.5 27.5t-10.5 39.5q0 30 18 54.5t45 44.5l45 -28q-9 -10 -16 -17t-11 -13.5t-4 -15.5q0 -13 15 -22t48.5 -13t89.5 -4q47 0 78.5 -9.5t49.5 -26.5t25.5 -38.5t7.5 -47.5q0 -28 -12 -54.5t-37.5 -47.5t-66 -33.5t-97.5 -12.5zM228 156q-49 0 -87 21.5t-59.5 57.5
t-21.5 81t21.5 81.5t59.5 58t87 21.5q50 0 88 -21.5t59.5 -58t21.5 -81.5t-21.5 -81t-59.5 -57.5t-88 -21.5zM228 231q25 0 44 11t30 30.5t11 43.5q0 25 -11 43.5t-30.5 29.5t-43.5 11q-23 0 -42 -11t-30.5 -30t-11.5 -43q0 -23 11 -42.5t30 -31t43 -11.5zM369 381l-38 47
q29 24 63.5 36.5t76.5 9.5l10 -71q-31 4 -60 -0.5t-52 -21.5zM257 817l53 -44q-28 -26 -44 -53t-16 -45q0 -11 7 -20.5t16.5 -18.5t16.5 -21t7 -29q0 -30 -20.5 -48t-50.5 -18q-34 0 -56.5 26.5t-22.5 68.5q0 22 7 45.5t20.5 49t34 52t48.5 55.5z" />
    <glyph glyph-name="Hcircumflex" unicode="&#x124;" 
d="M42 623h100h9v-9q-6 -6 -7 -13t-1 -24v-211h209v257h99h10v-9q-6 -6 -7.5 -13t-1.5 -24v-577h-101v286h-208v-286h-101v623zM115 651l-35 49l155 97h28l155 -96l-35 -50l-133 68z" />
    <glyph glyph-name="hcircumflex" unicode="&#x125;" 
d="M61 669h98h10v-9q-6 -6 -7.5 -13t-1.5 -24v-228q17 25 40.5 42.5t49 27t51.5 9.5q44 0 76.5 -20t50.5 -62.5t18 -112.5v-279h-98v278q0 43 -9 68.5t-25 37t-38 11.5q-18 0 -34.5 -6t-31.5 -16.5t-26 -26.5t-17.5 -36t-6.5 -44v-266h-99v669zM-17 697l-35 49l155 97h28
l155 -96l-35 -50l-133 68z" />
    <glyph glyph-name="Hbar" unicode="&#x126;" 
d="M6 487v77h486v-77h-486zM42 623h100h9v-9q-6 -6 -7 -13t-1 -24v-211h209v257h99h10v-9q-6 -6 -7.5 -13t-1.5 -24v-577h-101v286h-208v-286h-101v623z" />
    <glyph glyph-name="hbar" unicode="&#x127;" 
d="M61 669h98h10v-9q-6 -6 -7.5 -13t-1.5 -24v-228q17 25 40.5 42.5t49 27t51.5 9.5q44 0 76.5 -20t50.5 -62.5t18 -112.5v-279h-98v278q0 43 -9 68.5t-25 37t-38 11.5q-18 0 -34.5 -6t-31.5 -16.5t-26 -26.5t-17.5 -36t-6.5 -44v-266h-99v669zM-2 519v67h274v-67h-274z" />
    <glyph glyph-name="Itilde" unicode="&#x128;" 
d="M74 0v81h122v461h-116v81h333v-81h-122v-462h128v-80h-345zM358 833l56 -30q-21 -42 -43.5 -60t-53.5 -18q-27 0 -45.5 8.5t-32 20.5t-26 21t-28.5 9t-29.5 -12t-24.5 -36l-57 26q15 41 41.5 63t66.5 22q25 0 42.5 -8.5t31 -20.5t27 -20.5t29.5 -8.5t25.5 10.5t20.5 33.5
z" />
    <glyph glyph-name="itilde" unicode="&#x129;" 
d="M90 0v79h115v305h-110v79h210v-384h105v-79h-320zM344 671l53 -26q-18 -40 -40 -58t-48 -18q-19 0 -34.5 8t-28 19t-24 19t-22.5 8q-13 0 -24 -10.5t-19 -30.5l-53 26q12 35 37.5 55.5t50.5 20.5q19 0 35.5 -8t30.5 -18.5t26 -18.5t22 -8q11 0 20 9t18 31z" />
    <glyph glyph-name="Imacron" unicode="&#x12a;" 
d="M74 0v81h122v461h-116v81h333v-81h-122v-462h128v-80h-345zM107 726v69h271v-69h-271z" />
    <glyph glyph-name="imacron" unicode="&#x12b;" 
d="M90 0v79h115v305h-110v79h210v-384h105v-79h-320zM114 564v69h271v-69h-271z" />
    <glyph glyph-name="Ibreve" unicode="&#x12c;" 
d="M74 0v81h122v461h-116v81h333v-81h-122v-462h128v-80h-345zM327 797l64 -29q-23 -48 -61 -74.5t-87 -26.5q-48 0 -86 26.5t-62 74.5l64 29q16 -36 36 -53t48 -17q19 0 34.5 7.5t28 23t21.5 39.5z" />
    <glyph glyph-name="ibreve" unicode="&#x12d;" 
d="M90 0v79h115v305h-110v79h210v-384h105v-79h-320zM334 663l64 -29q-23 -48 -61 -74.5t-87 -26.5q-48 0 -86 26.5t-62 74.5l64 29q16 -36 36 -53t48 -17q19 0 34.5 7.5t28 23t21.5 39.5z" />
    <glyph glyph-name="Iogonek" unicode="&#x12e;" 
d="M74 0v81h122v461h-116v81h333v-81h-122v-462h128v-80h-345zM415 -160l-35 -74q-41 9 -69 24.5t-42.5 35.5t-14.5 44q0 26 15 52.5t45 52.5t72 49l36 -24q-23 -19 -39 -37.5t-24.5 -35.5t-8.5 -32q0 -19 16 -33.5t49 -21.5z" />
    <glyph glyph-name="iogonek" unicode="&#x12f;" 
d="M90 0v79h115v305h-110v79h210v-384h105v-79h-320zM249 546q-27 0 -45.5 18.5t-18.5 43.5q0 27 18 45t46 18q26 0 45.5 -19t19.5 -44t-19.5 -43.5t-45.5 -18.5zM404 -160l-35 -74q-41 9 -69 24.5t-42.5 35.5t-14.5 44q0 26 15 52.5t45 52.5t72 49l36 -24
q-23 -19 -39 -37.5t-24.5 -35.5t-8.5 -32q0 -19 16 -33.5t49 -21.5z" />
    <glyph glyph-name="Idotaccent" unicode="&#x130;" 
d="M74 0v81h122v461h-116v81h333v-81h-122v-462h128v-80h-345zM243 686q-27 0 -45.5 18.5t-18.5 43.5q0 27 18 45t46 18q26 0 45.5 -19t19.5 -44t-19.5 -43.5t-45.5 -18.5z" />
    <glyph glyph-name="dotlessi" unicode="&#x131;" 
d="M90 0v79h115v305h-110v79h210v-384h105v-79h-320z" />
    <glyph glyph-name="Jcircumflex" unicode="&#x134;" 
d="M194 -13q-46 0 -87 16.5t-70 52.5l50 75l7 8l7 -5q1 -8 4.5 -15.5t15.5 -18.5q15 -11 31 -17.5t36 -6.5q29 0 47.5 14.5t27.5 46t9 80.5v325h-116v81h308v-81h-93v-331q1 -58 -13.5 -101t-40 -70.5t-57 -40t-66.5 -12.5v0zM187 651l-35 49l155 97h28l155 -96l-35 -50
l-133 68z" />
    <glyph glyph-name="jcircumflex" unicode="&#x135;" 
d="M192 -175q-46 0 -85 17.5t-68 51.5l55 72l6 8l7 -5q2 -8 4.5 -16t12.5 -20q13 -11 29.5 -18t37.5 -7q28 0 47 11.5t28.5 36t9.5 62.5v365h-165v80h266v-437q0 -71 -26 -115.5t-68 -65t-91 -20.5v0zM208 502l-49 44l144 139h32l144 -139l-49 -44l-111 105z" />
    <glyph glyph-name="uni0136" unicode="&#x136;" 
d="M181 292l-44 -54v-238h-99v623h98h10v-9q-6 -6 -7.5 -13t-1.5 -24v-220l226 271q6 -1 15 -2t18 -1.5t17.5 -1t15.5 -0.5h43l-220 -264l233 -359l-116 -4zM216 -289l-47 40q24 23 39 47.5t15 40.5q0 13 -11 24t-21.5 23.5t-10.5 32.5q0 27 18.5 43t45.5 16q31 0 51 -23.5
t20 -61.5q0 -27 -11 -56t-33 -60t-55 -66z" />
    <glyph glyph-name="uni0137" unicode="&#x137;" 
d="M203 217l-46 -43v-174h-100v669h99h10v-9q-6 -6 -7.5 -13t-1.5 -24v-343l196 186q7 -2 15 -3t16.5 -1.5t16.5 -1t14 -0.5h45l-187 -182l214 -278l-116 -4zM228 -289l-47 40q24 23 39 47.5t15 40.5q0 13 -11 24t-21.5 23.5t-10.5 32.5q0 27 18.5 43t45.5 16q31 0 51 -23.5
t20 -61.5q0 -27 -11 -56t-33 -60t-55 -66z" />
    <glyph glyph-name="kgreenlandic" unicode="&#x138;" 
d="M203 217l-46 -43v-174h-100v463h99h10v-9q-6 -6 -7.5 -13t-1.5 -24v-137l196 186q7 -2 15 -3t16.5 -1.5t16.5 -1t14 -0.5h45l-187 -182l214 -278l-116 -4z" />
    <glyph glyph-name="Lacute" unicode="&#x139;" 
d="M60 623h100h9v-9q-6 -6 -7 -13t-1 -24v-495h290v-82h-391v623zM146 656l-27 50l159 93l43 -81z" />
    <glyph glyph-name="lacute" unicode="&#x13a;" 
d="M68 0v79h132v511h-126v79h227v-590h131v-79h-364zM176 702l-27 50l159 93l43 -81z" />
    <glyph glyph-name="uni013B" unicode="&#x13b;" 
d="M60 623h100h9v-9q-6 -6 -7 -13t-1 -24v-495h290v-82h-391v623zM228 -289l-47 40q24 23 39 47.5t15 40.5q0 13 -11 24t-21.5 23.5t-10.5 32.5q0 27 18.5 43t45.5 16q31 0 51 -23.5t20 -61.5q0 -27 -11 -56t-33 -60t-55 -66z" />
    <glyph glyph-name="uni013C" unicode="&#x13c;" 
d="M68 0v79h132v511h-126v79h227v-590h131v-79h-364zM228 -289l-47 40q24 23 39 47.5t15 40.5q0 13 -11 24t-21.5 23.5t-10.5 32.5q0 27 18.5 43t45.5 16q31 0 51 -23.5t20 -61.5q0 -27 -11 -56t-33 -60t-55 -66z" />
    <glyph glyph-name="Lcaron" unicode="&#x13d;" 
d="M342 401l-42 35q22 21 35 43t13 36q0 11 -9.5 21t-19 21.5t-9.5 28.5q0 24 16.5 38t40.5 14q27 0 45 -21t18 -54q0 -25 -9.5 -50.5t-29 -53t-49.5 -58.5zM60 623h100h9v-9q-5 -6 -6.5 -13t-1.5 -24v-495h290v-82h-391v623z" />
    <glyph glyph-name="lcaron" unicode="&#x13e;" 
d="M68 0v79h132v511h-126v79h227v-590h131v-79h-364zM384 443l-48 42q16 15 28 29t18.5 26.5t6.5 21.5q0 7 -5.5 13.5t-13 13t-13 15t-5.5 19.5q0 25 17 41t43 16t46.5 -21t20.5 -54q0 -22 -10.5 -47.5t-31.5 -54t-53 -60.5z" />
    <glyph glyph-name="Ldot" unicode="&#x13f;" 
d="M60 623h100h9v-9q-6 -6 -7 -13t-1 -24v-495h290v-82h-391v623zM315 263q-30 0 -50.5 20t-20.5 49q0 30 21 50t50 20q28 0 49.5 -20.5t21.5 -48.5q0 -29 -21 -49.5t-50 -20.5z" />
    <glyph glyph-name="ldot" unicode="&#x140;" 
d="M61 0v79h109v514h-103v79h204v-593h149v-79h-359zM393 263q-30 0 -50.5 20t-20.5 49q0 30 21 50t50 20q28 0 49.5 -20.5t21.5 -48.5q0 -29 -21 -49.5t-50 -20.5z" />
    <glyph glyph-name="Lslash" unicode="&#x141;" 
d="M69 0v228l-55 -17v83l55 18v311h108q2 -1 2 -2v-2q0 -4 -3.5 -8t-5.5 -23v-243l147 48q10 4 18 7.5t15 8.5v-92l-180 -58v-177h289v-82h-390z" />
    <glyph glyph-name="lslash" unicode="&#x142;" 
d="M71 0v79h129v183l-74 -26v91l74 25v238h-123v79h224v-282l86 29v-92l-86 -30v-215h129v-79h-359z" />
    <glyph glyph-name="Nacute" unicode="&#x143;" 
d="M41 623h101l229 -428l-4 428h89h10v-9q-6 -6 -7.5 -13t-1.5 -24v-577h-88l-238 454v-454h-90v623zM176 656l-27 50l159 93l43 -81z" />
    <glyph glyph-name="nacute" unicode="&#x144;" 
d="M60 0v463h100v-71q17 25 38 43t47 28.5t56 10.5q39 0 72 -20t53 -62.5t20 -112.5v-279h-99v278q0 41 -9 67t-25.5 38t-39.5 12q-20 0 -40 -9t-36.5 -24.5t-26.5 -38t-10 -50.5v-273h-100zM249 505l-47 31l83 160l72 -51z" />
    <glyph glyph-name="uni0145" unicode="&#x145;" 
d="M41 623h101l229 -428l-4 428h89h10v-9q-6 -6 -7.5 -13t-1.5 -24v-577h-88l-238 454v-454h-90v623zM228 -289l-47 40q24 23 39 47.5t15 40.5q0 13 -11 24t-21.5 23.5t-10.5 32.5q0 27 18.5 43t45.5 16q31 0 51 -23.5t20 -61.5q0 -27 -11 -56t-33 -60t-55 -66z" />
    <glyph glyph-name="uni0146" unicode="&#x146;" 
d="M60 0v463h100v-71q17 25 38 43t47 28.5t56 10.5q39 0 72 -20t53 -62.5t20 -112.5v-279h-99v278q0 41 -9 67t-25.5 38t-39.5 12q-20 0 -40 -9t-36.5 -24.5t-26.5 -38t-10 -50.5v-273h-100zM238 -289l-47 40q24 23 39 47.5t15 40.5q0 13 -11 24t-21.5 23.5t-10.5 32.5
q0 27 18.5 43t45.5 16q31 0 51 -23.5t20 -61.5q0 -27 -11 -56t-33 -60t-55 -66z" />
    <glyph glyph-name="Ncaron" unicode="&#x147;" 
d="M41 623h101l229 -428l-4 428h89h10v-9q-6 -6 -7.5 -13t-1.5 -24v-577h-88l-238 454v-454h-90v623zM384 806l35 -49l-155 -97h-28l-155 96l35 50l133 -68z" />
    <glyph glyph-name="ncaron" unicode="&#x148;" 
d="M60 0v463h100v-71q17 25 38 43t47 28.5t56 10.5q39 0 72 -20t53 -62.5t20 -112.5v-279h-99v278q0 41 -9 67t-25.5 38t-39.5 12q-20 0 -40 -9t-36.5 -24.5t-26.5 -38t-10 -50.5v-273h-100zM149 698l111 -105l111 105l49 -43l-144 -139h-32l-144 139z" />
    <glyph glyph-name="Eng" unicode="&#x14a;" 
d="M372 623h94q0 -11 -3.5 -18t-3.5 -20v-585q0 -62 -20 -105t-55 -66t-80 -23q-27 0 -54 9t-53 27l46 81q8 0 12 -4.5t8.5 -10t12.5 -9.5t24 -4q24 0 39 12.5t22.5 38t7.5 62.5l-239 446v-454h-90v623h100l232 -428v428z" />
    <glyph glyph-name="eng" unicode="&#x14b;" 
d="M266 -178q-28 0 -57 10.5t-53 30.5l42 82q5 -1 7.5 -6.5t8 -12t17 -11.5t33.5 -5q29 0 47.5 14.5t28 44.5t9.5 75v236q0 30 -6 51.5t-17 34.5t-24.5 19.5t-30.5 6.5q-18 0 -34.5 -6t-31 -16.5t-25 -26t-16.5 -34.5t-6 -41v-268h-100v463h100v-71q12 18 28 33t34.5 25.5
t38 16.5t39.5 6q31 0 58 -10.5t47.5 -33t31.5 -59.5t11 -89v-227q0 -61 -14 -105t-38.5 -72t-57.5 -41.5t-70 -13.5z" />
    <glyph glyph-name="Omacron" unicode="&#x14c;" 
d="M251 -11q-74 0 -125.5 37t-77.5 109t-26 175q0 101 26 172.5t77.5 109.5t125.5 38q75 0 126 -38t77.5 -109.5t26.5 -172.5q0 -103 -26.5 -175t-77.5 -109t-126 -37zM251 70q41 0 70 27t45 80.5t16 133.5q0 75 -16 128t-45 81.5t-70 28.5t-70.5 -28.5t-44.5 -81.5
t-15 -128q0 -80 15 -133.5t44.5 -80.5t70.5 -27zM115 728v69h271v-69h-271z" />
    <glyph glyph-name="omacron" unicode="&#x14d;" 
d="M250 -10q-63 0 -112 30.5t-78 85t-29 125.5q0 70 29 124.5t78 86t112 31.5q62 0 111.5 -31.5t78.5 -86t29 -124.5t-29 -124.5t-78.5 -85.5t-111.5 -31zM250 71q34 0 60.5 20.5t41.5 56.5t15 84q0 49 -15 85t-41.5 56t-60.5 20t-60.5 -20t-41.5 -56t-15 -85q0 -48 15 -84
t41.5 -56.5t60.5 -20.5zM114 564v69h271v-69h-271z" />
    <glyph glyph-name="Obreve" unicode="&#x14e;" 
d="M251 -11q-74 0 -125.5 37t-77.5 109t-26 175q0 101 26 172.5t77.5 109.5t125.5 38q75 0 126 -38t77.5 -109.5t26.5 -172.5q0 -103 -26.5 -175t-77.5 -109t-126 -37zM251 70q41 0 70 27t45 80.5t16 133.5q0 75 -16 128t-45 81.5t-70 28.5t-70.5 -28.5t-44.5 -81.5
t-15 -128q0 -80 15 -133.5t44.5 -80.5t70.5 -27zM335 799l64 -29q-23 -48 -61 -74.5t-87 -26.5q-48 0 -86 26.5t-62 74.5l64 29q16 -36 36 -53t48 -17q19 0 34.5 7.5t28 23t21.5 39.5z" />
    <glyph glyph-name="obreve" unicode="&#x14f;" 
d="M250 -10q-63 0 -112 30.5t-78 85t-29 125.5q0 70 29 124.5t78 86t112 31.5q62 0 111.5 -31.5t78.5 -86t29 -124.5t-29 -124.5t-78.5 -85.5t-111.5 -31zM250 71q34 0 60.5 20.5t41.5 56.5t15 84q0 49 -15 85t-41.5 56t-60.5 20t-60.5 -20t-41.5 -56t-15 -85q0 -48 15 -84
t41.5 -56.5t60.5 -20.5zM334 663l64 -29q-23 -48 -61 -74.5t-87 -26.5q-48 0 -86 26.5t-62 74.5l64 29q16 -36 36 -53t48 -17q19 0 34.5 7.5t28 23t21.5 39.5z" />
    <glyph glyph-name="Ohungarumlaut" unicode="&#x150;" 
d="M251 -11q-74 0 -125.5 37t-77.5 109t-26 175q0 101 26 172.5t77.5 109.5t125.5 38q75 0 126 -38t77.5 -109.5t26.5 -172.5q0 -103 -26.5 -175t-77.5 -109t-126 -37zM251 70q41 0 70 27t45 80.5t16 133.5q0 75 -16 128t-45 81.5t-70 28.5t-70.5 -28.5t-44.5 -81.5
t-15 -128q0 -80 15 -133.5t44.5 -80.5t70.5 -27zM279 644l-36 46l136 125l52 -69zM101 644l-36 46l135 125l53 -69z" />
    <glyph glyph-name="ohungarumlaut" unicode="&#x151;" 
d="M250 -10q-63 0 -112 30.5t-78 85t-29 125.5q0 70 29 124.5t78 86t112 31.5q62 0 111.5 -31.5t78.5 -86t29 -124.5t-29 -124.5t-78.5 -85.5t-111.5 -31zM250 71q34 0 60.5 20.5t41.5 56.5t15 84q0 49 -15 85t-41.5 56t-60.5 20t-60.5 -20t-41.5 -56t-15 -85q0 -48 15 -84
t41.5 -56.5t60.5 -20.5zM335 519l-56 34l84 156l75 -51zM180 519l-56 34l84 156l75 -51z" />
    <glyph glyph-name="OE" unicode="&#x152;" 
d="M175 -7q-38 0 -69.5 19t-54 58.5t-34.5 99.5t-12 142q0 106 20.5 177t59 107t93.5 36q16 0 33.5 -7t32.5 -21v20h246v-81h-160v-177h135v-82h-135v-203h158v-81h-245v21q-15 -14 -33 -21t-35 -7zM185 77q21 0 35.5 17t18.5 45v341q-7 29 -22 50t-40 21q-16 0 -30.5 -11.5
t-25.5 -38.5t-17 -73t-6 -115q0 -75 9.5 -127.5t29 -80.5t48.5 -28z" />
    <glyph glyph-name="oe" unicode="&#x153;" 
d="M365 -12q-30 0 -57.5 9t-52.5 30q-22 -21 -45.5 -29.5t-50.5 -8.5t-54 11t-49.5 38t-36 74t-13.5 119q0 88 22.5 140.5t59 76.5t78.5 24q29 0 51.5 -10.5t39.5 -32.5q17 21 41 32t52 11q45 0 76.5 -21.5t49 -64t17.5 -103.5v-68h-216q2 -62 13 -95.5t31 -45t47 -11.5
q25 0 46 8t37 28l40 -54q-27 -29 -57 -43t-69 -14zM168 66q9 0 16.5 2.5t13.5 7.5t9.5 11t3.5 13q0 5 -1 9.5t-2 12.5q-3 20 -5.5 37.5t-3.5 37t-1 43.5q0 37 3 61t6 38t3 18q0 6 -3 13t-8.5 12t-14 8.5t-18.5 3.5q-20 0 -37.5 -15.5t-28.5 -49t-11 -86.5q0 -57 8.5 -96.5
t25.5 -60t45 -20.5zM279 284h141q0 39 -6.5 63.5t-21.5 36.5t-40 12q-22 0 -38.5 -14t-25.5 -39.5t-9 -58.5z" />
    <glyph glyph-name="Racute" unicode="&#x154;" 
d="M48 0v623h194q75 0 122.5 -22.5t70 -63t22.5 -95.5q0 -35 -14.5 -69.5t-42 -61t-64.5 -38.5l138 -273h-105l-131 264h-89v-264h-101zM149 347h100q54 0 80.5 25.5t26.5 67.5q0 26 -11.5 48t-35 35t-60.5 13h-100v-189zM176 656l-27 50l159 93l43 -81z" />
    <glyph glyph-name="racute" unicode="&#x155;" 
d="M99 463h103l-2 -132l-12 11q5 30 19 54.5t34.5 41.5t45.5 26.5t52 9.5q38 0 69 -13t56 -39l-42 -82l-4 -9l-8 4l-6 16t-15 19q-15 10 -29.5 15t-33.5 5q-24 0 -46.5 -8.5t-40.5 -26.5t-28.5 -45.5t-10.5 -66.5v-244h-101v464zM272 505l-47 31l83 160l72 -51z" />
    <glyph glyph-name="uni0156" unicode="&#x156;" 
d="M48 0v623h194q75 0 122.5 -22.5t70 -63t22.5 -95.5q0 -35 -14.5 -69.5t-42 -61t-64.5 -38.5l138 -273h-105l-131 264h-89v-264h-101zM149 347h100q54 0 80.5 25.5t26.5 67.5q0 26 -11.5 48t-35 35t-60.5 13h-100v-189zM228 -289l-47 40q24 23 39 47.5t15 40.5
q0 13 -11 24t-21.5 23.5t-10.5 32.5q0 27 18.5 43t45.5 16q31 0 51 -23.5t20 -61.5q0 -27 -11 -56t-33 -60t-55 -66z" />
    <glyph glyph-name="uni0157" unicode="&#x157;" 
d="M99 463h103l-2 -132l-12 11q5 30 19 54.5t34.5 41.5t45.5 26.5t52 9.5q38 0 69 -13t56 -39l-42 -82l-4 -9l-8 4l-6 16t-15 19q-15 10 -29.5 15t-33.5 5q-24 0 -46.5 -8.5t-40.5 -26.5t-28.5 -45.5t-10.5 -66.5v-244h-101v464zM260 -289l-47 40q24 23 39 47.5t15 40.5
q0 13 -11 24t-21.5 23.5t-10.5 32.5q0 27 18.5 43t45.5 16q31 0 51 -23.5t20 -61.5q0 -27 -11 -56t-33 -60t-55 -66z" />
    <glyph glyph-name="Rcaron" unicode="&#x158;" 
d="M48 0v623h194q75 0 122.5 -22.5t70 -63t22.5 -95.5q0 -35 -14.5 -69.5t-42 -61t-64.5 -38.5l138 -273h-105l-131 264h-89v-264h-101zM149 347h100q54 0 80.5 25.5t26.5 67.5q0 26 -11.5 48t-35 35t-60.5 13h-100v-189zM384 806l35 -49l-155 -97h-28l-155 96l35 50
l133 -68z" />
    <glyph glyph-name="rcaron" unicode="&#x159;" 
d="M99 463h103l-2 -132l-12 11q5 30 19 54.5t34.5 41.5t45.5 26.5t52 9.5q38 0 69 -13t56 -39l-42 -82l-4 -9l-8 4l-6 16t-15 19q-15 10 -29.5 15t-33.5 5q-24 0 -46.5 -8.5t-40.5 -26.5t-28.5 -45.5t-10.5 -66.5v-244h-101v464zM172 698l111 -105l111 105l49 -43l-144 -139
h-32l-144 139z" />
    <glyph glyph-name="Sacute" unicode="&#x15a;" 
d="M244 -11q-62 0 -114.5 19t-89.5 57l49 83l5 9l8 -5q2 -7 5 -15t15 -20q25 -19 57 -31.5t70 -12.5q26 0 46.5 6.5t36 18t23.5 28t8 36.5q0 14 -3 26.5t-11 23t-22.5 21.5t-37.5 23.5t-55 26.5q-65 28 -102.5 56.5t-53.5 62t-16 73.5q0 46 25 81.5t69.5 56t101.5 20.5
q38 0 71 -9.5t62 -27t52 -43.5l-58 -68l-6 -8l-7 6q-1 8 -3.5 16t-13.5 20q-21 19 -44.5 26t-55.5 7q-21 0 -38.5 -5.5t-30 -16t-19 -23.5t-6.5 -28q0 -14 3 -25t11.5 -22t24 -22.5t39.5 -24t59 -27.5q47 -21 78.5 -41t50 -41.5t26.5 -47t8 -57.5q0 -45 -22.5 -86.5
t-70.5 -68.5t-124 -27v0zM182 656l-27 50l159 93l43 -81z" />
    <glyph glyph-name="sacute" unicode="&#x15b;" 
d="M257 -11q-42 0 -79 8t-69.5 24t-59.5 41l46 84l6 9l7 -4q2 -8 5 -16.5t14 -20.5q24 -21 55 -33.5t76 -12.5q31 0 52.5 7.5t33.5 21t12 30.5q0 13 -6.5 22.5t-19.5 18t-34 17t-51 16.5q-51 15 -89 34.5t-59 46.5t-21 64t21.5 65.5t61.5 45.5t95 17q30 0 56.5 -4.5
t49 -13.5t42.5 -22.5t38 -31.5l-51 -68l-6 -8l-7 6q-1 8 -4.5 15t-14.5 18q-22 16 -48 24t-53 8q-35 0 -61.5 -12t-26.5 -36q0 -14 11.5 -26t37.5 -23.5t71 -23.5q57 -15 92 -34.5t51.5 -45.5t16.5 -61q0 -39 -21.5 -72.5t-64.5 -53.5t-105 -20v0zM255 505l-47 31l83 160
l72 -51z" />
    <glyph glyph-name="Scircumflex" unicode="&#x15c;" 
d="M244 -11q-62 0 -114.5 19t-89.5 57l49 83l5 9l8 -5q2 -7 5 -15t15 -20q25 -19 57 -31.5t70 -12.5q26 0 46.5 6.5t36 18t23.5 28t8 36.5q0 14 -3 26.5t-11 23t-22.5 21.5t-37.5 23.5t-55 26.5q-65 28 -102.5 56.5t-53.5 62t-16 73.5q0 46 25 81.5t69.5 56t101.5 20.5
q38 0 71 -9.5t62 -27t52 -43.5l-58 -68l-6 -8l-7 6q-1 8 -3.5 16t-13.5 20q-21 19 -44.5 26t-55.5 7q-21 0 -38.5 -5.5t-30 -16t-19 -23.5t-6.5 -28q0 -14 3 -25t11.5 -22t24 -22.5t39.5 -24t59 -27.5q47 -21 78.5 -41t50 -41.5t26.5 -47t8 -57.5q0 -45 -22.5 -86.5
t-70.5 -68.5t-124 -27v0zM122 651l-35 49l155 97h28l155 -96l-35 -50l-133 68z" />
    <glyph glyph-name="scircumflex" unicode="&#x15d;" 
d="M257 -11q-42 0 -79 8t-69.5 24t-59.5 41l46 84l6 9l7 -4q2 -8 5 -16.5t14 -20.5q24 -21 55 -33.5t76 -12.5q31 0 52.5 7.5t33.5 21t12 30.5q0 13 -6.5 22.5t-19.5 18t-34 17t-51 16.5q-51 15 -89 34.5t-59 46.5t-21 64t21.5 65.5t61.5 45.5t95 17q30 0 56.5 -4.5
t49 -13.5t42.5 -22.5t38 -31.5l-51 -68l-6 -8l-7 6q-1 8 -4.5 15t-14.5 18q-22 16 -48 24t-53 8q-35 0 -61.5 -12t-26.5 -36q0 -14 11.5 -26t37.5 -23.5t71 -23.5q57 -15 92 -34.5t51.5 -45.5t16.5 -61q0 -39 -21.5 -72.5t-64.5 -53.5t-105 -20v0zM137 504l-49 44l144 139
h32l144 -139l-49 -44l-111 105z" />
    <glyph glyph-name="Scedilla" unicode="&#x15e;" 
d="M244 -11q-62 0 -114.5 19t-89.5 57l49 83l5 9l8 -5q2 -7 5 -15t15 -20q25 -19 57 -31.5t70 -12.5q26 0 46.5 6.5t36 18t23.5 28t8 36.5q0 14 -3 26.5t-11 23t-22.5 21.5t-37.5 23.5t-55 26.5q-65 28 -102.5 56.5t-53.5 62t-16 73.5q0 46 25 81.5t69.5 56t101.5 20.5
q38 0 71 -9.5t62 -27t52 -43.5l-58 -68l-6 -8l-7 6q-1 8 -3.5 16t-13.5 20q-21 19 -44.5 26t-55.5 7q-21 0 -38.5 -5.5t-30 -16t-19 -23.5t-6.5 -28q0 -14 3 -25t11.5 -22t24 -22.5t39.5 -24t59 -27.5q47 -21 78.5 -41t50 -41.5t26.5 -47t8 -57.5q0 -45 -22.5 -86.5
t-70.5 -68.5t-124 -27v0zM249 -202q-29 0 -58 8t-58 30l33 57q24 -20 47 -28t49 -8q20 0 33.5 8t13.5 22q0 13 -13.5 19t-34.5 6h-43l12 88h68l-5 -36q27 -2 44.5 -12.5t26.5 -25.5t9 -31q0 -40 -32 -68.5t-92 -28.5z" />
    <glyph glyph-name="scedilla" unicode="&#x15f;" 
d="M257 -11q-42 0 -79 8t-69.5 24t-59.5 41l46 84l6 9l7 -4q2 -8 5 -16.5t14 -20.5q24 -21 55 -33.5t76 -12.5q31 0 52.5 7.5t33.5 21t12 30.5q0 13 -6.5 22.5t-19.5 18t-34 17t-51 16.5q-51 15 -89 34.5t-59 46.5t-21 64t21.5 65.5t61.5 45.5t95 17q30 0 56.5 -4.5
t49 -13.5t42.5 -22.5t38 -31.5l-51 -68l-6 -8l-7 6q-1 8 -4.5 15t-14.5 18q-22 16 -48 24t-53 8q-35 0 -61.5 -12t-26.5 -36q0 -14 11.5 -26t37.5 -23.5t71 -23.5q57 -15 92 -34.5t51.5 -45.5t16.5 -61q0 -39 -21.5 -72.5t-64.5 -53.5t-105 -20v0zM269 -202q-29 0 -58 8
t-58 30l33 57q24 -20 47 -28t49 -8q20 0 33.5 8t13.5 22q0 13 -13.5 19t-34.5 6h-43l12 88h68l-5 -36q27 -2 44.5 -12.5t26.5 -25.5t9 -31q0 -40 -32 -68.5t-92 -28.5z" />
    <glyph glyph-name="Scaron" unicode="&#x160;" 
d="M244 -11q-62 0 -114.5 19t-89.5 57l49 83l5 9l8 -5q2 -7 5 -15t15 -20q25 -19 57 -31.5t70 -12.5q26 0 46.5 6.5t36 18t23.5 28t8 36.5q0 14 -3 26.5t-11 23t-22.5 21.5t-37.5 23.5t-55 26.5q-65 28 -102.5 56.5t-53.5 62t-16 73.5q0 46 25 81.5t69.5 56t101.5 20.5
q38 0 71 -9.5t62 -27t52 -43.5l-58 -68l-6 -8l-7 6q-1 8 -3.5 16t-13.5 20q-21 19 -44.5 26t-55.5 7q-21 0 -38.5 -5.5t-30 -16t-19 -23.5t-6.5 -28q0 -14 3 -25t11.5 -22t24 -22.5t39.5 -24t59 -27.5q47 -21 78.5 -41t50 -41.5t26.5 -47t8 -57.5q0 -45 -22.5 -86.5
t-70.5 -68.5t-124 -27v0zM390 806l35 -49l-155 -97h-28l-155 96l35 50l133 -68z" />
    <glyph glyph-name="scaron" unicode="&#x161;" 
d="M257 -11q-42 0 -79 8t-69.5 24t-59.5 41l46 84l6 9l7 -4q2 -8 5 -16.5t14 -20.5q24 -21 55 -33.5t76 -12.5q31 0 52.5 7.5t33.5 21t12 30.5q0 13 -6.5 22.5t-19.5 18t-34 17t-51 16.5q-51 15 -89 34.5t-59 46.5t-21 64t21.5 65.5t61.5 45.5t95 17q30 0 56.5 -4.5
t49 -13.5t42.5 -22.5t38 -31.5l-51 -68l-6 -8l-7 6q-1 8 -4.5 15t-14.5 18q-22 16 -48 24t-53 8q-35 0 -61.5 -12t-26.5 -36q0 -14 11.5 -26t37.5 -23.5t71 -23.5q57 -15 92 -34.5t51.5 -45.5t16.5 -61q0 -39 -21.5 -72.5t-64.5 -53.5t-105 -20v0zM142 698l111 -105l111 105
l49 -43l-144 -139h-32l-144 139z" />
    <glyph glyph-name="uni0162" unicode="&#x162;" 
d="M196 0v539h-170v85h445v-85h-178v-539h-97zM248 -202q-29 0 -58 8t-58 30l33 57q24 -20 47 -28t49 -8q20 0 33.5 8t13.5 22q0 13 -13.5 19t-34.5 6h-43l12 88h68l-5 -36q27 -2 44.5 -12.5t26.5 -25.5t9 -31q0 -40 -32 -68.5t-92 -28.5z" />
    <glyph glyph-name="uni0163" unicode="&#x163;" 
d="M299 -9q-41 0 -70.5 13.5t-47 43.5t-24.5 78t-5 117l13 332l102 13l10 1l1 -9q-5 -7 -8.5 -14t-5.5 -24l-10 -129l4 -11l-7 -159q-3 -68 4 -105.5t24 -52t41 -14.5q32 0 57.5 13t50.5 32l22 -74q-34 -25 -71 -38t-80 -13v0zM62 463h349l-1 -80h-348v80zM264 -202
q-29 0 -58 8t-58 30l33 57q24 -20 47 -28t49 -8q20 0 33.5 8t13.5 22q0 13 -13.5 19t-34.5 6h-43l12 88h68l-5 -36q27 -2 44.5 -12.5t26.5 -25.5t9 -31q0 -40 -32 -68.5t-92 -28.5z" />
    <glyph glyph-name="Tcaron" unicode="&#x164;" 
d="M196 0v539h-170v85h445v-85h-178v-539h-97zM384 806l35 -49l-155 -97h-28l-155 96l35 50l133 -68z" />
    <glyph glyph-name="tcaron" unicode="&#x165;" 
d="M299 -9q-41 0 -70.5 13.5t-47 43.5t-24.5 78t-5 117l13 332l102 13l10 1l1 -9q-5 -7 -8.5 -14t-5.5 -24l-10 -129l4 -11l-7 -159q-3 -68 4 -105.5t24 -52t41 -14.5q32 0 57.5 13t50.5 32l22 -74q-34 -25 -71 -38t-80 -13v0zM62 463h349l-1 -80h-348v80zM394 478l-48 42
q16 15 28 29t18.5 26.5t6.5 21.5q0 7 -5.5 13.5t-13 13t-13 15t-5.5 19.5q0 25 17 41t43 16t46.5 -21t20.5 -54q0 -22 -10.5 -47.5t-31.5 -54t-53 -60.5z" />
    <glyph glyph-name="Tbar" unicode="&#x166;" 
d="M196 0v539h-170v85h445v-85h-178v-539h-97zM76 280v66h340v-66h-340z" />
    <glyph glyph-name="tbar" unicode="&#x167;" 
d="M55 211v78h349v-78h-349zM299 -9q-41 0 -70.5 13.5t-47 43.5t-24.5 78t-5 117l13 332l102 13l10 1l1 -9q-5 -7 -8.5 -14t-5.5 -24l-10 -129l4 -11l-7 -159q-3 -68 4 -105.5t24 -52t41 -14.5q32 0 57.5 13t50.5 32l22 -74q-34 -25 -71 -38t-80 -13v0zM62 463h349l-1 -80
h-348v80z" />
    <glyph glyph-name="Utilde" unicode="&#x168;" 
d="M250 -12q-101 0 -155 60.5t-54 168.5v406h97h10v-9q-6 -6 -7.5 -13t-1.5 -24v-361q0 -68 24.5 -108t87.5 -40q64 0 89 40t25 111v404h97v-403q0 -80 -27 -131t-74.5 -76t-110.5 -25v0zM367 789l56 -30q-21 -42 -43.5 -60t-53.5 -18q-27 0 -45.5 8.5t-32 20.5t-26 21
t-28.5 9t-29.5 -12t-24.5 -36l-57 26q15 41 41.5 63t66.5 22q25 0 42.5 -8.5t31 -20.5t27 -20.5t29.5 -8.5t25.5 10.5t20.5 33.5z" />
    <glyph glyph-name="utilde" unicode="&#x169;" 
d="M215 -11q-28 0 -52.5 7.5t-44.5 23.5t-34.5 40t-22 58t-7.5 77l1 268h98v-268q0 -35 6.5 -59.5t18 -39.5t26.5 -21.5t32 -6.5q22 0 41 8t33.5 24.5t22 42t7.5 59.5v261h100v-390q0 -20 1.5 -37.5t8.5 -35.5h-93q-5 11 -7 21.5t-2.5 21t-0.5 21.5q-10 -19 -24.5 -33
t-32 -23.5t-36 -14t-39.5 -4.5zM364 671l56 -30q-21 -42 -43.5 -60t-53.5 -18q-27 0 -45.5 8.5t-32 20.5t-26 21t-28.5 9t-29.5 -12t-24.5 -36l-57 26q15 41 41.5 63t66.5 22q25 0 42.5 -8.5t31 -20.5t27 -20.5t29.5 -8.5t25.5 10.5t20.5 33.5z" />
    <glyph glyph-name="Umacron" unicode="&#x16a;" 
d="M250 -12q-101 0 -155 60.5t-54 168.5v406h97h10v-9q-6 -6 -7.5 -13t-1.5 -24v-361q0 -68 24.5 -108t87.5 -40q64 0 89 40t25 111v404h97v-403q0 -80 -27 -131t-74.5 -76t-110.5 -25v0zM114 726v69h271v-69h-271z" />
    <glyph glyph-name="umacron" unicode="&#x16b;" 
d="M215 -11q-28 0 -52.5 7.5t-44.5 23.5t-34.5 40t-22 58t-7.5 77l1 268h98v-268q0 -35 6.5 -59.5t18 -39.5t26.5 -21.5t32 -6.5q22 0 41 8t33.5 24.5t22 42t7.5 59.5v261h100v-390q0 -20 1.5 -37.5t8.5 -35.5h-93q-5 11 -7 21.5t-2.5 21t-0.5 21.5q-10 -19 -24.5 -33
t-32 -23.5t-36 -14t-39.5 -4.5zM114 564v69h271v-69h-271z" />
    <glyph glyph-name="Ubreve" unicode="&#x16c;" 
d="M250 -12q-101 0 -155 60.5t-54 168.5v406h97h10v-9q-6 -6 -7.5 -13t-1.5 -24v-361q0 -68 24.5 -108t87.5 -40q64 0 89 40t25 111v404h97v-403q0 -80 -27 -131t-74.5 -76t-110.5 -25v0zM334 797l64 -29q-23 -48 -61 -74.5t-87 -26.5q-48 0 -86 26.5t-62 74.5l64 29
q16 -36 36 -53t48 -17q19 0 34.5 7.5t28 23t21.5 39.5z" />
    <glyph glyph-name="ubreve" unicode="&#x16d;" 
d="M215 -11q-28 0 -52.5 7.5t-44.5 23.5t-34.5 40t-22 58t-7.5 77l1 268h98v-268q0 -35 6.5 -59.5t18 -39.5t26.5 -21.5t32 -6.5q22 0 41 8t33.5 24.5t22 42t7.5 59.5v261h100v-390q0 -20 1.5 -37.5t8.5 -35.5h-93q-5 11 -7 21.5t-2.5 21t-0.5 21.5q-10 -19 -24.5 -33
t-32 -23.5t-36 -14t-39.5 -4.5zM334 663l64 -29q-23 -48 -61 -74.5t-87 -26.5q-48 0 -86 26.5t-62 74.5l64 29q16 -36 36 -53t48 -17q19 0 34.5 7.5t28 23t21.5 39.5z" />
    <glyph glyph-name="Uring" unicode="&#x16e;" 
d="M250 -12q-101 0 -155 60.5t-54 168.5v406h97h10v-9q-6 -6 -7.5 -13t-1.5 -24v-361q0 -68 24.5 -108t87.5 -40q64 0 89 40t25 111v404h97v-403q0 -80 -27 -131t-74.5 -76t-110.5 -25v0zM247 617q-27 0 -49.5 13t-36 35t-13.5 48t13.5 47.5t36.5 34.5t49 13q28 0 50.5 -13
t36 -34.5t13.5 -47.5t-13.5 -48t-36 -35t-50.5 -13zM248 674q15 0 25 11.5t10 28.5t-10 28.5t-25 11.5q-14 0 -24.5 -11.5t-10.5 -28.5t10.5 -28.5t24.5 -11.5z" />
    <glyph glyph-name="uring" unicode="&#x16f;" 
d="M215 -11q-28 0 -52.5 7.5t-44.5 23.5t-34.5 40t-22 58t-7.5 77l1 268h98v-268q0 -35 6.5 -59.5t18 -39.5t26.5 -21.5t32 -6.5q22 0 41 8t33.5 24.5t22 42t7.5 59.5v261h100v-390q0 -20 1.5 -37.5t8.5 -35.5h-93q-5 11 -7 21.5t-2.5 21t-0.5 21.5q-10 -19 -24.5 -33
t-32 -23.5t-36 -14t-39.5 -4.5zM247 514q-26 0 -48.5 13t-36.5 34.5t-14 48.5q0 26 14 47.5t36.5 34.5t48.5 13q28 0 51 -13t36.5 -34.5t13.5 -47.5t-14 -48t-36.5 -35t-50.5 -13zM248 571q15 0 25.5 11.5t10.5 28.5t-10.5 28.5t-25.5 11.5q-14 0 -24.5 -11.5t-10.5 -28.5
t10.5 -28.5t24.5 -11.5z" />
    <glyph glyph-name="Uhungarumlaut" unicode="&#x170;" 
d="M250 -12q-101 0 -155 60.5t-54 168.5v406h97h10v-9q-6 -6 -7.5 -13t-1.5 -24v-361q0 -68 24.5 -108t87.5 -40q64 0 89 40t25 111v404h97v-403q0 -80 -27 -131t-74.5 -76t-110.5 -25v0zM279 642l-36 46l136 125l52 -69zM101 642l-36 46l135 125l53 -69z" />
    <glyph glyph-name="uhungarumlaut" unicode="&#x171;" 
d="M215 -11q-28 0 -52.5 7.5t-44.5 23.5t-34.5 40t-22 58t-7.5 77l1 268h98v-268q0 -35 6.5 -59.5t18 -39.5t26.5 -21.5t32 -6.5q22 0 41 8t33.5 24.5t22 42t7.5 59.5v261h100v-390q0 -20 1.5 -37.5t8.5 -35.5h-93q-5 11 -7 21.5t-2.5 21t-0.5 21.5q-10 -19 -24.5 -33
t-32 -23.5t-36 -14t-39.5 -4.5zM335 519l-56 34l84 156l75 -51zM180 519l-56 34l84 156l75 -51z" />
    <glyph glyph-name="Uogonek" unicode="&#x172;" 
d="M250 -12q-101 0 -155 60.5t-54 168.5v406h97h10v-9q-6 -6 -7.5 -13t-1.5 -24v-361q0 -68 24.5 -108t87.5 -40q64 0 89 40t25 111v404h97v-403q0 -80 -27 -131t-74.5 -76t-110.5 -25v0zM350 -150l-35 -74q-41 9 -69 24.5t-42.5 35.5t-14.5 44q0 26 15 52.5t45 52.5t72 49
l36 -24q-23 -19 -39 -37.5t-24.5 -35.5t-8.5 -32q0 -19 16 -33.5t49 -21.5z" />
    <glyph glyph-name="uogonek" unicode="&#x173;" 
d="M215 -11q-28 0 -52.5 7.5t-44.5 23.5t-34.5 40t-22 58t-7.5 77l1 268h98v-268q0 -35 6.5 -59.5t18 -39.5t26.5 -21.5t32 -6.5q22 0 41 8t33.5 24.5t22 42t7.5 59.5v261h100v-390q0 -20 1.5 -37.5t8.5 -35.5h-93q-5 11 -7 21.5t-2.5 21t-0.5 21.5q-10 -19 -24.5 -33
t-32 -23.5t-36 -14t-39.5 -4.5zM427 -160l-35 -74q-41 9 -69 24.5t-42.5 35.5t-14.5 44q0 26 15 52.5t45 52.5t72 49l36 -24q-23 -19 -39 -37.5t-24.5 -35.5t-8.5 -32q0 -19 16 -33.5t49 -21.5z" />
    <glyph glyph-name="Wcircumflex" unicode="&#x174;" 
d="M101 0l-88 623h86l51 -401l87 353h46l88 -353l40 401h81l-86 -623h-56l-95 392l-96 -392h-58zM123 651l-35 49l155 97h28l155 -96l-35 -50l-133 68z" />
    <glyph glyph-name="wcircumflex" unicode="&#x175;" 
d="M99 -1l-87 464h85l60 -335l71 286h54l84 -284q10 74 17 123.5t10 83t4 57t1 46.5v23h87q-7 -75 -18 -154t-25 -157.5t-29 -152.5h-88l-71 267l-67 -267h-88zM138 502l-49 44l144 139h32l144 -139l-49 -44l-111 105z" />
    <glyph glyph-name="Ycircumflex" unicode="&#x176;" 
d="M208 0v246l-188 377h105l136 -274l122 274h100l-174 -377v-246h-101zM115 651l-35 49l155 97h28l155 -96l-35 -50l-133 68z" />
    <glyph glyph-name="ycircumflex" unicode="&#x177;" 
d="M126 -175q-33 0 -59 10.5t-50 31.5l37 68l5 8l7 -4q3 -7 7.5 -13.5t18.5 -16.5q8 -3 17 -4.5t18 -1.5q23 0 39 11.5t28.5 35.5t25.5 62l96 280q15 44 26.5 85.5t14.5 85.5h94q-4 -46 -20.5 -95t-33.5 -95l-115 -317q-26 -73 -65 -102t-91 -29v0zM36 463h101l140 -364
l-50 -110zM144 502l-49 44l144 139h32l144 -139l-49 -44l-111 105z" />
    <glyph glyph-name="Ydieresis" unicode="&#x178;" 
d="M208 0v246l-188 377h105l136 -274l122 274h100l-174 -377v-246h-101zM157 685q-25 0 -43 17.5t-18 41.5t18 42t43 18q27 0 44.5 -18.5t17.5 -41.5q0 -24 -18.5 -41.5t-43.5 -17.5zM339 685q-25 0 -43 17t-18 42t18 42.5t43 17.5q27 0 44 -18.5t17 -41.5q0 -24 -18 -41.5
t-43 -17.5z" />
    <glyph glyph-name="Zacute" unicode="&#x179;" 
d="M42 65l298 473h-286v85h403v-65l-293 -474h263q17 0 24 1.5t13 7.5h8v-9v-84h-430v65zM186 656l-27 50l159 93l43 -81z" />
    <glyph glyph-name="zacute" unicode="&#x17a;" 
d="M43 61l266 318h-246v84h371v-65l-261 -315h238q17 0 24 2t13 7h9v-9v-83h-414v61zM238 505l-47 31l83 160l72 -51z" />
    <glyph glyph-name="Zdotaccent" unicode="&#x17b;" 
d="M42 65l298 473h-286v85h403v-65l-293 -474h263q17 0 24 1.5t13 7.5h8v-9v-84h-430v65zM260 686q-27 0 -45.5 18.5t-18.5 43.5q0 27 18 45t46 18q26 0 45.5 -19t19.5 -44t-19.5 -43.5t-45.5 -18.5z" />
    <glyph glyph-name="zdotaccent" unicode="&#x17c;" 
d="M43 61l266 318h-246v84h371v-65l-261 -315h238q17 0 24 2t13 7h9v-9v-83h-414v61zM254 546q-27 0 -45.5 18.5t-18.5 43.5q0 27 18 45t46 18q26 0 45.5 -19t19.5 -44t-19.5 -43.5t-45.5 -18.5z" />
    <glyph glyph-name="Zcaron" unicode="&#x17d;" 
d="M42 65l298 473h-286v85h403v-65l-293 -474h263q17 0 24 1.5t13 7.5h8v-9v-84h-430v65zM394 806l35 -49l-155 -97h-28l-155 96l35 50l133 -68z" />
    <glyph glyph-name="zcaron" unicode="&#x17e;" 
d="M43 61l266 318h-246v84h371v-65l-261 -315h238q17 0 24 2t13 7h9v-9v-83h-414v61zM138 698l111 -105l111 105l49 -43l-144 -139h-32l-144 139z" />
    <glyph glyph-name="uni018F" unicode="&#x18f;" 
d="M251 -11q-74 0 -125.5 37t-77.5 109t-26 175q0 101 26 172.5t77.5 109.5t125.5 38q75 0 126 -38t77.5 -109.5t26.5 -172.5q0 -103 -26.5 -175t-77.5 -109t-126 -37zM251 70q41 0 70 27t45 80.5t16 133.5q0 75 -16 128t-45 81.5t-70 28.5t-70.5 -28.5t-44.5 -81.5
t-15 -128q0 -80 15 -133.5t44.5 -80.5t70.5 -27z" />
    <glyph glyph-name="florin" unicode="&#x192;" 
d="M107 -175q-27 0 -51 11t-45 33l51 80q5 0 7 -6t4.5 -13t11 -12t25.5 -5t28.5 14t18.5 41t9 63l22 284h-114v79h119l7 84q6 69 27 112.5t56 64.5t81 21q36 0 67 -15t56 -46l-39 -81q-6 0 -8 3.5t-4 10.5q-3 11 -9 20t-14.5 15.5t-19 10t-22.5 3.5q-20 0 -36 -11.5
t-26 -39.5t-13 -80l-5 -72h115v-79h-122l-23 -288q-7 -70 -28.5 -115t-53.5 -66t-72 -21z" />
    <glyph glyph-name="uni0198" unicode="&#x198;" 
d="M40 623h101h9v-9q-5 -6 -6.5 -13t-1.5 -24v-212q45 72 83.5 122.5t72 81.5t64.5 45t63 14q14 0 26.5 -2.5t21.5 -7.5v-95v-10h-9q-6 6 -12.5 12t-22.5 9h-4.5h-4.5q-15 0 -33 -8t-40.5 -26.5t-52 -52.5t-67 -86t-85.5 -125v-236h-102v623zM148 336l68 67l261 -402
l-114 -6z" />
    <glyph glyph-name="Ohorn" unicode="&#x1a0;" 
d="M251 -11q-74 0 -125.5 37t-77.5 109t-26 175q0 101 26 172.5t77.5 109.5t125.5 38q75 0 126 -38t77.5 -109.5t26.5 -172.5q0 -103 -26.5 -175t-77.5 -109t-126 -37zM251 70q41 0 70 27t45 80.5t16 133.5q0 75 -16 128t-45 81.5t-70 28.5t-70.5 -28.5t-44.5 -81.5
t-15 -128q0 -80 15 -133.5t44.5 -80.5t70.5 -27zM394 516l-10 65q16 0 22.5 8.5t8.5 29.5t2 56h66q0 -52 -6 -87.5t-24.5 -53.5t-58.5 -18z" />
    <glyph glyph-name="ohorn" unicode="&#x1a1;" 
d="M250 -10q-63 0 -112 30.5t-78 85t-29 125.5q0 70 29 124.5t78 86t112 31.5q62 0 111.5 -31.5t78.5 -86t29 -124.5t-29 -124.5t-78.5 -85.5t-111.5 -31zM250 71q34 0 60.5 20.5t41.5 56.5t15 84q0 49 -15 85t-41.5 56t-60.5 20t-60.5 -20t-41.5 -56t-15 -85q0 -48 15 -84
t41.5 -56.5t60.5 -20.5zM459 532q0 -58 -10.5 -92t-33.5 -48t-60 -14v63q13 0 19 20t6 71h79z" />
    <glyph glyph-name="Uhorn" unicode="&#x1af;" 
d="M225 -12q-91 0 -139.5 60.5t-48.5 168.5v406h87h9v-9q-5 -6 -6.5 -13t-1.5 -24v-361q0 -68 22 -108t79 -40q58 0 80.5 40t22.5 111v404h87v-403q0 -80 -24 -131t-67 -76t-100 -25v0zM408 558l-10 65q16 0 22.5 8.5t8.5 29.5t2 56h66q0 -52 -6 -87.5t-24.5 -53.5
t-58.5 -18z" />
    <glyph glyph-name="uhorn" unicode="&#x1b0;" 
d="M179 -11q-26 0 -49 7.5t-41.5 23.5t-31.5 40t-20 58t-7 77v268h91v-268q0 -35 6 -59.5t16.5 -39.5t25 -21.5t30.5 -6.5q20 0 38 8t31.5 24.5t20.5 42t7 59.5v261h91v-390q0 -20 1.5 -37.5t8.5 -35.5h-85q-5 11 -7 21.5t-2 21v21.5q-10 -19 -23.5 -33t-29.5 -23.5t-34 -14
t-37 -4.5zM478 552q0 -58 -10.5 -92t-33.5 -48t-60 -14v63q13 0 19 20t6 71h79z" />
    <glyph glyph-name="uni01B8" unicode="&#x1b8;" 
d="M267 -16q-66 0 -113 26t-72.5 68.5t-25.5 94.5q0 46 17 84.5t48.5 66t74.5 42.5t96 15h44v-77q-48 2 -82.5 -6t-56.5 -24t-32.5 -40.5t-10.5 -55.5q0 -35 15.5 -59.5t42.5 -37.5t62 -13q33 0 56 8t41 26q11 13 14 20t2 14l6 7l7 -6l45 -76q-34 -39 -78 -58t-100 -19v0z
M74 547v76h334v-86h-217l145 -156l-83 -22z" />
    <glyph glyph-name="uni01B9" unicode="&#x1b9;" 
d="M277 -178q-66 0 -113 26t-72.5 68.5t-25.5 94.5q0 46 17 84.5t48.5 66t74.5 42.5t96 15h44v-77q-48 2 -82.5 -6t-56.5 -24t-32.5 -40.5t-10.5 -55.5q0 -35 15.5 -59.5t42.5 -37.5t62 -13q33 0 56 8t41 26q11 13 14 20t2 14l6 7l7 -6l45 -76q-34 -39 -78 -58t-100 -19v0z
M84 385v76h334v-86h-217l145 -156l-83 -22z" />
    <glyph glyph-name="uni01C7" unicode="&#x1c7;" 
d="M284 -170q-42 0 -77.5 17.5t-62.5 50.5l62 71q7 -5 8 -9t2 -8.5t6 -12.5q5 -5 13.5 -11.5t21 -11.5t28.5 -5q26 0 42.5 15t24.5 47.5t8 83.5v487h-110v79h208v-82v0v-492q1 -58 -12.5 -99.5t-38 -68t-56 -39t-67.5 -12.5zM54 0v623h109q0 -7 -2.5 -8.5t-4.5 -6t-2 -20.5
v-507h139v-81h-239z" />
    <glyph glyph-name="uni01C8" unicode="&#x1c8;" 
d="M63 0v623h108q0 -10 -4 -16.5t-4 -18.5v-505h123v-83h-223zM257 -176q-24 0 -47.5 6t-43.5 18.5t-36 29.5l62 81q4 -4 5 -9t3 -10t7.5 -10.5t18.5 -12.5q5 -2 10.5 -4t11.5 -3.5t13 -1.5q18 0 33 6.5t26.5 19.5t18 34.5t6.5 50.5v364h-115v81h214v-441q0 -53 -14.5 -90.5
t-40 -61t-59.5 -35t-73 -12.5zM389 545q-27 0 -45.5 18.5t-18.5 43.5q0 28 18 45.5t46 17.5q26 0 45.5 -18.5t19.5 -44.5q0 -25 -19.5 -43.5t-45.5 -18.5z" />
    <glyph glyph-name="uni01C9" unicode="&#x1c9;" 
d="M257 -176q-37 0 -68 13.5t-55 40.5l53 79q5 -3 6.5 -7.5t3 -9.5t7.5 -10.5t20 -12.5q8 -3 17 -6t20 -3q24 0 43 11.5t30 36t11 63.5v364h-115v80h214v-440q0 -53 -14.5 -90.5t-40 -61t-59.5 -35t-73 -12.5zM23 0v79h54v514h-48v79h147v-593h106v-79h-259zM388 546
q-26 0 -45 18.5t-19 43.5q0 27 18 45t46 18q26 0 45.5 -19t19.5 -44t-19.5 -43.5t-45.5 -18.5z" />
    <glyph glyph-name="Gcaron" unicode="&#x1e6;" 
d="M277 -11q-77 0 -133 39.5t-85.5 111.5t-29.5 167q-1 80 15.5 136.5t43.5 93.5t60 58t66 29t61 8q39 0 76 -13t67.5 -36.5t48.5 -57.5l-60 -57l-8 -7l-6 7q1 8 -2 15t-13 20q-13 15 -27.5 25t-32.5 15.5t-42 5.5t-46 -7.5t-41 -24t-33 -43.5t-22 -65.5t-8 -89.5
q0 -62 11 -108t30.5 -77t47.5 -47t62 -16q12 0 25.5 2t27 5.5t26 10.5t23.5 15v127h-106v82h195v-259q-44 -34 -92.5 -49.5t-98.5 -15.5v0zM405 806l35 -49l-155 -97h-28l-155 96l35 50l133 -68z" />
    <glyph glyph-name="gcaron" unicode="&#x1e7;" 
d="M241 -176q-48 0 -87 8t-66.5 23.5t-41.5 38t-14 50.5q0 26 12 47t32 36.5t44 23.5l44 -20q-16 -10 -28 -20t-18.5 -22.5t-6.5 -29.5q0 -15 10 -26t28 -18t43 -11t56 -4q41 0 68 7.5t40.5 21.5t13.5 32t-8 28.5t-30 16t-64 5.5q-34 0 -64.5 2.5t-56 9.5t-44.5 18
t-29.5 27.5t-10.5 39.5q0 30 18 54.5t45 44.5l45 -28q-9 -10 -16 -17t-11 -13.5t-4 -15.5q0 -13 15 -22t48.5 -13t89.5 -4q47 0 78.5 -9.5t49.5 -26.5t25.5 -38.5t7.5 -47.5q0 -28 -12 -54.5t-37.5 -47.5t-66 -33.5t-97.5 -12.5zM228 156q-49 0 -87 21.5t-59.5 57.5
t-21.5 81t21.5 81.5t59.5 58t87 21.5q50 0 88 -21.5t59.5 -58t21.5 -81.5t-21.5 -81t-59.5 -57.5t-88 -21.5zM228 231q25 0 44 11t30 30.5t11 43.5q0 25 -11 43.5t-30.5 29.5t-43.5 11q-23 0 -42 -11t-30.5 -30t-11.5 -43q0 -23 11 -42.5t30 -31t43 -11.5zM369 381l-38 47
q29 24 63.5 36.5t76.5 9.5l10 -71q-31 4 -60 -0.5t-52 -21.5zM116 698l111 -105l111 105l49 -43l-144 -139h-32l-144 139z" />
    <glyph glyph-name="uni01EA" unicode="&#x1ea;" 
d="M251 -11q-74 0 -125.5 37t-77.5 109t-26 175q0 101 26 172.5t77.5 109.5t125.5 38q75 0 126 -38t77.5 -109.5t26.5 -172.5q0 -103 -26.5 -175t-77.5 -109t-126 -37zM251 70q41 0 70 27t45 80.5t16 133.5q0 75 -16 128t-45 81.5t-70 28.5t-70.5 -28.5t-44.5 -81.5
t-15 -128q0 -80 15 -133.5t44.5 -80.5t70.5 -27zM344 -147l-35 -74q-41 9 -69 24.5t-42.5 35.5t-14.5 44q0 26 15 52.5t45 52.5t72 49l36 -24q-23 -19 -39 -37.5t-24.5 -35.5t-8.5 -32q0 -19 16 -33.5t49 -21.5z" />
    <glyph glyph-name="uni01EB" unicode="&#x1eb;" 
d="M250 -10q-63 0 -112 30.5t-78 85t-29 125.5q0 70 29 124.5t78 86t112 31.5q62 0 111.5 -31.5t78.5 -86t29 -124.5t-29 -124.5t-78.5 -85.5t-111.5 -31zM250 71q34 0 60.5 20.5t41.5 56.5t15 84q0 49 -15 85t-41.5 56t-60.5 20t-60.5 -20t-41.5 -56t-15 -85q0 -48 15 -84
t41.5 -56.5t60.5 -20.5zM350 -140l-35 -74q-41 9 -69 24.5t-42.5 35.5t-14.5 44q0 26 15 52.5t45 52.5t72 49l36 -24q-23 -19 -39 -37.5t-24.5 -35.5t-8.5 -32q0 -19 16 -33.5t49 -21.5z" />
    <glyph glyph-name="Aringacute" unicode="&#x1fa;" 
d="M363 158h-237l15 71h205zM250 437l-139 -437h-97l217 630h39l217 -630h-100zM248 617q-27 0 -49.5 13t-36 35t-13.5 48t13.5 47.5t36.5 34.5t49 13q28 0 50.5 -13t36 -34.5t13.5 -47.5t-13.5 -48t-36 -35t-50.5 -13zM249 674q15 0 25 11.5t10 28.5t-10 28.5t-25 11.5
q-14 0 -24.5 -11.5t-10.5 -28.5t10.5 -28.5t24.5 -11.5zM176 836l-27 50l159 93l43 -81z" />
    <glyph glyph-name="aringacute" unicode="&#x1fb;" 
d="M202 -11q-77 0 -119.5 35.5t-42.5 92.5q0 38 17.5 68.5t50 52.5t78.5 34.5t104 12.5q12 0 25.5 -0.5t29 -1.5t31.5 -2l3 -71q-14 2 -29.5 3t-30.5 1h-28q-39 0 -67.5 -5.5t-47 -16.5t-27.5 -27t-9 -37q0 -17 6 -29.5t16.5 -19.5t25 -10.5t31.5 -3.5q33 0 58 11t42.5 32.5
t26.5 54t9 76.5q0 61 -13.5 95t-39.5 47t-65 13q-32 0 -61.5 -10.5t-57.5 -38.5l-53 60q38 36 83.5 52t93.5 16q44 0 81.5 -10.5t66 -34.5t44 -65t15.5 -104v-259h-104v57q-13 -20 -29 -33.5t-34.5 -21t-38.5 -10.5t-41 -3zM243 514q-26 0 -48.5 13t-36.5 34.5t-14 48.5
q0 26 14 47.5t36.5 34.5t48.5 13q28 0 51 -13t36.5 -34.5t13.5 -47.5t-14 -48t-36.5 -35t-50.5 -13zM244 571q15 0 25.5 11.5t10.5 28.5t-10.5 28.5t-25.5 11.5q-14 0 -24.5 -11.5t-10.5 -28.5t10.5 -28.5t24.5 -11.5zM232 744l-47 31l83 160l72 -51z" />
    <glyph glyph-name="AEacute" unicode="&#x1fc;" 
d="M5 0l193 623h299v-81h-162v-177h137v-82h-137v-202h160v-81h-249v162h-100l-48 -162h-93zM164 243h82l4 279h-5zM195 656l-27 50l159 93l43 -81z" />
    <glyph glyph-name="aeacute" unicode="&#x1fd;" 
d="M145 -12q-42 0 -73.5 17t-49 48t-17.5 74q0 36 14 65t40 49.5t64.5 32.5t86.5 13q0 37 -8.5 61.5t-24 37.5t-36.5 13q-20 0 -38.5 -11.5t-34.5 -33.5l-46 57q24 32 56.5 47t71.5 15q23 0 44.5 -8t38.5 -21t26 -30q11 17 26.5 30.5t33.5 21t37 7.5q48 0 78 -25t44.5 -70.5
t14.5 -107.5v-44l-202 -7v-42q0 -26 6 -47t17.5 -36t27.5 -23.5t37 -8.5q14 0 27 4.5t24.5 14t21.5 23.5l46 -55q-25 -29 -56.5 -45t-68.5 -16q-23 0 -45 8t-40 22.5t-32 33.5q-11 -19 -29 -33.5t-39 -22.5t-43 -8zM148 65q26 0 40 16.5t19 50t5 83.5q-44 -2 -71 -13
t-38.5 -30t-11.5 -45q0 -22 6.5 -35.5t19.5 -20t31 -6.5zM291 289l129 4q0 35 -7 59t-21 35.5t-34 11.5q-19 0 -34.5 -13t-24 -37.5t-8.5 -59.5zM255 505l-47 31l83 160l72 -51z" />
    <glyph glyph-name="Oslashacute" unicode="&#x1fe;" 
d="M87 -51l-52 25l375 708l51 -27zM251 -11q-74 0 -125.5 37t-77.5 109t-26 175q0 101 26 172.5t77.5 109.5t125.5 38q75 0 126 -38t77.5 -109.5t26.5 -172.5q0 -103 -26.5 -175t-77.5 -109t-126 -37zM251 70q41 0 70 27t45 80.5t16 133.5q0 75 -16 128t-45 81.5t-70 28.5
t-70.5 -28.5t-44.5 -81.5t-15 -128q0 -80 15 -133.5t44.5 -80.5t70.5 -27zM176 658l-27 50l159 93l43 -81z" />
    <glyph glyph-name="oslashacute" unicode="&#x1ff;" 
d="M133 -66l-71 37l298 551l73 -39zM250 -10q-63 0 -112 30.5t-78 85t-29 125.5q0 70 29 124.5t78 86t112 31.5q62 0 111.5 -31.5t78.5 -86t29 -124.5t-29 -124.5t-78.5 -85.5t-111.5 -31zM250 71q34 0 60.5 20.5t41.5 56.5t15 84q0 49 -15 85t-41.5 56t-60.5 20t-60.5 -20
t-41.5 -56t-15 -85q0 -48 15 -84t41.5 -56.5t60.5 -20.5zM237 505l-47 31l83 160l72 -51z" />
    <glyph glyph-name="uni0200" unicode="&#x200;" 
d="M363 158h-237l15 71h205zM250 437l-139 -437h-97l217 630h39l217 -630h-100zM182 667l-108 140l72 51l83 -160zM342 667l-108 140l72 51l83 -160z" />
    <glyph glyph-name="uni0201" unicode="&#x201;" 
d="M202 -11q-77 0 -119.5 35.5t-42.5 92.5q0 38 17.5 68.5t50 52.5t78.5 34.5t104 12.5q12 0 25.5 -0.5t29 -1.5t31.5 -2l3 -71q-14 2 -29.5 3t-30.5 1h-28q-39 0 -67.5 -5.5t-47 -16.5t-27.5 -27t-9 -37q0 -17 6 -29.5t16.5 -19.5t25 -10.5t31.5 -3.5q33 0 58 11t42.5 32.5
t26.5 54t9 76.5q0 61 -13.5 95t-39.5 47t-65 13q-32 0 -61.5 -10.5t-57.5 -38.5l-53 60q38 36 83.5 52t93.5 16q44 0 81.5 -10.5t66 -34.5t44 -65t15.5 -104v-259h-104v57q-13 -20 -29 -33.5t-34.5 -21t-38.5 -10.5t-41 -3zM178 505l-108 140l72 51l83 -160zM338 505
l-108 140l72 51l83 -160z" />
    <glyph glyph-name="uni0202" unicode="&#x202;" 
d="M363 158h-237l15 71h205zM250 437l-139 -437h-97l217 630h39l217 -630h-100zM167 685l-64 29q24 49 62 75t86 26q49 0 87 -26t61 -75l-64 -29q-15 36 -35.5 53t-48.5 17q-18 0 -33.5 -7.5t-28 -22.5t-22.5 -40z" />
    <glyph glyph-name="uni0203" unicode="&#x203;" 
d="M202 -11q-77 0 -119.5 35.5t-42.5 92.5q0 38 17.5 68.5t50 52.5t78.5 34.5t104 12.5q12 0 25.5 -0.5t29 -1.5t31.5 -2l3 -71q-14 2 -29.5 3t-30.5 1h-28q-39 0 -67.5 -5.5t-47 -16.5t-27.5 -27t-9 -37q0 -17 6 -29.5t16.5 -19.5t25 -10.5t31.5 -3.5q33 0 58 11t42.5 32.5
t26.5 54t9 76.5q0 61 -13.5 95t-39.5 47t-65 13q-32 0 -61.5 -10.5t-57.5 -38.5l-53 60q38 36 83.5 52t93.5 16q44 0 81.5 -10.5t66 -34.5t44 -65t15.5 -104v-259h-104v57q-13 -20 -29 -33.5t-34.5 -21t-38.5 -10.5t-41 -3zM162 523l-64 29q24 49 62 75t86 26q49 0 87 -26
t61 -75l-64 -29q-15 36 -35.5 53t-48.5 17q-18 0 -33.5 -7.5t-28 -22.5t-22.5 -40z" />
    <glyph glyph-name="uni0204" unicode="&#x204;" 
d="M54 0v624h397v-82h-302v-176h249v-83h-249v-201h300v-82h-395zM195 667l-108 140l72 51l83 -160zM355 667l-108 140l72 51l83 -160z" />
    <glyph glyph-name="uni0205" unicode="&#x205;" 
d="M271 -11q-50 0 -92 16t-72.5 46.5t-47.5 75.5t-17 102q0 58 17 103.5t46.5 76.5t69 48t84.5 17q39 0 74.5 -14t62 -41.5t42 -69.5t15.5 -98v-22.5t-1 -21.5h-314q2 -36 14 -62.5t30.5 -43.5t42.5 -25t50 -8q23 0 42.5 4.5t37.5 14.5t33 27l52 -51q-21 -25 -47 -41.5
t-56.5 -24.5t-65.5 -8zM140 282h216q0 28 -7 49t-20.5 36t-32.5 22.5t-42 7.5q-22 0 -40.5 -7t-33.5 -21t-25.5 -35.5t-14.5 -51.5zM191 505l-108 140l72 51l83 -160zM351 505l-108 140l72 51l83 -160z" />
    <glyph glyph-name="uni0206" unicode="&#x206;" 
d="M54 0v624h397v-82h-302v-176h249v-83h-249v-201h300v-82h-395zM180 685l-64 29q24 49 62 75t86 26q49 0 87 -26t61 -75l-64 -29q-15 36 -35.5 53t-48.5 17q-18 0 -33.5 -7.5t-28 -22.5t-22.5 -40z" />
    <glyph glyph-name="uni0207" unicode="&#x207;" 
d="M271 -11q-50 0 -92 16t-72.5 46.5t-47.5 75.5t-17 102q0 58 17 103.5t46.5 76.5t69 48t84.5 17q39 0 74.5 -14t62 -41.5t42 -69.5t15.5 -98v-22.5t-1 -21.5h-314q2 -36 14 -62.5t30.5 -43.5t42.5 -25t50 -8q23 0 42.5 4.5t37.5 14.5t33 27l52 -51q-21 -25 -47 -41.5
t-56.5 -24.5t-65.5 -8zM140 282h216q0 28 -7 49t-20.5 36t-32.5 22.5t-42 7.5q-22 0 -40.5 -7t-33.5 -21t-25.5 -35.5t-14.5 -51.5zM175 523l-64 29q24 49 62 75t86 26q49 0 87 -26t61 -75l-64 -29q-15 36 -35.5 53t-48.5 17q-18 0 -33.5 -7.5t-28 -22.5t-22.5 -40z" />
    <glyph glyph-name="uni0208" unicode="&#x208;" 
d="M74 0v81h122v461h-116v81h333v-81h-122v-462h128v-80h-345zM175 667l-108 140l72 51l83 -160zM335 667l-108 140l72 51l83 -160z" />
    <glyph glyph-name="uni0209" unicode="&#x209;" 
d="M90 0v79h115v305h-110v79h210v-384h105v-79h-320zM182 505l-108 140l72 51l83 -160zM342 505l-108 140l72 51l83 -160z" />
    <glyph glyph-name="uni020A" unicode="&#x20a;" 
d="M74 0v81h122v461h-116v81h333v-81h-122v-462h128v-80h-345zM160 685l-64 29q24 49 62 75t86 26q49 0 87 -26t61 -75l-64 -29q-15 36 -35.5 53t-48.5 17q-18 0 -33.5 -7.5t-28 -22.5t-22.5 -40z" />
    <glyph glyph-name="uni020B" unicode="&#x20b;" 
d="M90 0v79h115v305h-110v79h210v-384h105v-79h-320zM166 523l-64 29q24 49 62 75t86 26q49 0 87 -26t61 -75l-64 -29q-15 36 -35.5 53t-48.5 17q-18 0 -33.5 -7.5t-28 -22.5t-22.5 -40z" />
    <glyph glyph-name="uni020C" unicode="&#x20c;" 
d="M251 -11q-74 0 -125.5 37t-77.5 109t-26 175q0 101 26 172.5t77.5 109.5t125.5 38q75 0 126 -38t77.5 -109.5t26.5 -172.5q0 -103 -26.5 -175t-77.5 -109t-126 -37zM251 70q41 0 70 27t45 80.5t16 133.5q0 75 -16 128t-45 81.5t-70 28.5t-70.5 -28.5t-44.5 -81.5
t-15 -128q0 -80 15 -133.5t44.5 -80.5t70.5 -27zM183 669l-108 140l72 51l83 -160zM343 669l-108 140l72 51l83 -160z" />
    <glyph glyph-name="uni020D" unicode="&#x20d;" 
d="M250 -10q-63 0 -112 30.5t-78 85t-29 125.5q0 70 29 124.5t78 86t112 31.5q62 0 111.5 -31.5t78.5 -86t29 -124.5t-29 -124.5t-78.5 -85.5t-111.5 -31zM250 71q34 0 60.5 20.5t41.5 56.5t15 84q0 49 -15 85t-41.5 56t-60.5 20t-60.5 -20t-41.5 -56t-15 -85q0 -48 15 -84
t41.5 -56.5t60.5 -20.5zM182 505l-108 140l72 51l83 -160zM342 505l-108 140l72 51l83 -160z" />
    <glyph glyph-name="uni020E" unicode="&#x20e;" 
d="M251 -11q-74 0 -125.5 37t-77.5 109t-26 175q0 101 26 172.5t77.5 109.5t125.5 38q75 0 126 -38t77.5 -109.5t26.5 -172.5q0 -103 -26.5 -175t-77.5 -109t-126 -37zM251 70q41 0 70 27t45 80.5t16 133.5q0 75 -16 128t-45 81.5t-70 28.5t-70.5 -28.5t-44.5 -81.5
t-15 -128q0 -80 15 -133.5t44.5 -80.5t70.5 -27zM167 687l-64 29q24 49 62 75t86 26q49 0 87 -26t61 -75l-64 -29q-15 36 -35.5 53t-48.5 17q-18 0 -33.5 -7.5t-28 -22.5t-22.5 -40z" />
    <glyph glyph-name="uni020F" unicode="&#x20f;" 
d="M250 -10q-63 0 -112 30.5t-78 85t-29 125.5q0 70 29 124.5t78 86t112 31.5q62 0 111.5 -31.5t78.5 -86t29 -124.5t-29 -124.5t-78.5 -85.5t-111.5 -31zM250 71q34 0 60.5 20.5t41.5 56.5t15 84q0 49 -15 85t-41.5 56t-60.5 20t-60.5 -20t-41.5 -56t-15 -85q0 -48 15 -84
t41.5 -56.5t60.5 -20.5zM167 523l-64 29q24 49 62 75t86 26q49 0 87 -26t61 -75l-64 -29q-15 36 -35.5 53t-48.5 17q-18 0 -33.5 -7.5t-28 -22.5t-22.5 -40z" />
    <glyph glyph-name="uni0210" unicode="&#x210;" 
d="M48 0v623h194q75 0 122.5 -22.5t70 -63t22.5 -95.5q0 -35 -14.5 -69.5t-42 -61t-64.5 -38.5l138 -273h-105l-131 264h-89v-264h-101zM149 347h100q54 0 80.5 25.5t26.5 67.5q0 26 -11.5 48t-35 35t-60.5 13h-100v-189zM182 667l-108 140l72 51l83 -160zM342 667l-108 140
l72 51l83 -160z" />
    <glyph glyph-name="uni0211" unicode="&#x211;" 
d="M99 463h103l-2 -132l-12 11q5 30 19 54.5t34.5 41.5t45.5 26.5t52 9.5q38 0 69 -13t56 -39l-42 -82l-4 -9l-8 4l-6 16t-15 19q-15 10 -29.5 15t-33.5 5q-24 0 -46.5 -8.5t-40.5 -26.5t-28.5 -45.5t-10.5 -66.5v-244h-101v464zM218 505l-108 140l72 51l83 -160zM378 505
l-108 140l72 51l83 -160z" />
    <glyph glyph-name="uni0212" unicode="&#x212;" 
d="M48 0v623h194q75 0 122.5 -22.5t70 -63t22.5 -95.5q0 -35 -14.5 -69.5t-42 -61t-64.5 -38.5l138 -273h-105l-131 264h-89v-264h-101zM149 347h100q54 0 80.5 25.5t26.5 67.5q0 26 -11.5 48t-35 35t-60.5 13h-100v-189zM166 685l-64 29q24 49 62 75t86 26q49 0 87 -26
t61 -75l-64 -29q-15 36 -35.5 53t-48.5 17q-18 0 -33.5 -7.5t-28 -22.5t-22.5 -40z" />
    <glyph glyph-name="uni0213" unicode="&#x213;" 
d="M99 463h103l-2 -132l-12 11q5 30 19 54.5t34.5 41.5t45.5 26.5t52 9.5q38 0 69 -13t56 -39l-42 -82l-4 -9l-8 4l-6 16t-15 19q-15 10 -29.5 15t-33.5 5q-24 0 -46.5 -8.5t-40.5 -26.5t-28.5 -45.5t-10.5 -66.5v-244h-101v464zM202 523l-64 29q24 49 62 75t86 26
q49 0 87 -26t61 -75l-64 -29q-15 36 -35.5 53t-48.5 17q-18 0 -33.5 -7.5t-28 -22.5t-22.5 -40z" />
    <glyph glyph-name="uni0214" unicode="&#x214;" 
d="M250 -12q-101 0 -155 60.5t-54 168.5v406h97h10v-9q-6 -6 -7.5 -13t-1.5 -24v-361q0 -68 24.5 -108t87.5 -40q64 0 89 40t25 111v404h97v-403q0 -80 -27 -131t-74.5 -76t-110.5 -25v0zM182 667l-108 140l72 51l83 -160zM342 667l-108 140l72 51l83 -160z" />
    <glyph glyph-name="uni0215" unicode="&#x215;" 
d="M215 -11q-28 0 -52.5 7.5t-44.5 23.5t-34.5 40t-22 58t-7.5 77l1 268h98v-268q0 -35 6.5 -59.5t18 -39.5t26.5 -21.5t32 -6.5q22 0 41 8t33.5 24.5t22 42t7.5 59.5v261h100v-390q0 -20 1.5 -37.5t8.5 -35.5h-93q-5 11 -7 21.5t-2.5 21t-0.5 21.5q-10 -19 -24.5 -33
t-32 -23.5t-36 -14t-39.5 -4.5zM182 505l-108 140l72 51l83 -160zM342 505l-108 140l72 51l83 -160z" />
    <glyph glyph-name="uni0216" unicode="&#x216;" 
d="M250 -12q-101 0 -155 60.5t-54 168.5v406h97h10v-9q-6 -6 -7.5 -13t-1.5 -24v-361q0 -68 24.5 -108t87.5 -40q64 0 89 40t25 111v404h97v-403q0 -80 -27 -131t-74.5 -76t-110.5 -25v0zM166 685l-64 29q24 49 62 75t86 26q49 0 87 -26t61 -75l-64 -29q-15 36 -35.5 53
t-48.5 17q-18 0 -33.5 -7.5t-28 -22.5t-22.5 -40z" />
    <glyph glyph-name="uni0217" unicode="&#x217;" 
d="M215 -11q-28 0 -52.5 7.5t-44.5 23.5t-34.5 40t-22 58t-7.5 77l1 268h98v-268q0 -35 6.5 -59.5t18 -39.5t26.5 -21.5t32 -6.5q22 0 41 8t33.5 24.5t22 42t7.5 59.5v261h100v-390q0 -20 1.5 -37.5t8.5 -35.5h-93q-5 11 -7 21.5t-2.5 21t-0.5 21.5q-10 -19 -24.5 -33
t-32 -23.5t-36 -14t-39.5 -4.5zM166 523l-64 29q24 49 62 75t86 26q49 0 87 -26t61 -75l-64 -29q-15 36 -35.5 53t-48.5 17q-18 0 -33.5 -7.5t-28 -22.5t-22.5 -40z" />
    <glyph glyph-name="uni0218" unicode="&#x218;" 
d="M244 -11q-62 0 -114.5 19t-89.5 57l49 83l5 9l8 -5q2 -7 5 -15t15 -20q25 -19 57 -31.5t70 -12.5q26 0 46.5 6.5t36 18t23.5 28t8 36.5q0 14 -3 26.5t-11 23t-22.5 21.5t-37.5 23.5t-55 26.5q-65 28 -102.5 56.5t-53.5 62t-16 73.5q0 46 25 81.5t69.5 56t101.5 20.5
q38 0 71 -9.5t62 -27t52 -43.5l-58 -68l-6 -8l-7 6q-1 8 -3.5 16t-13.5 20q-21 19 -44.5 26t-55.5 7q-21 0 -38.5 -5.5t-30 -16t-19 -23.5t-6.5 -28q0 -14 3 -25t11.5 -22t24 -22.5t39.5 -24t59 -27.5q47 -21 78.5 -41t50 -41.5t26.5 -47t8 -57.5q0 -45 -22.5 -86.5
t-70.5 -68.5t-124 -27v0zM230 -289l-47 40q24 23 39 47.5t15 40.5q0 13 -11 24t-21.5 23.5t-10.5 32.5q0 27 18.5 43t45.5 16q31 0 51 -23.5t20 -61.5q0 -27 -11 -56t-33 -60t-55 -66z" />
    <glyph glyph-name="uni0219" unicode="&#x219;" 
d="M257 -11q-42 0 -79 8t-69.5 24t-59.5 41l46 84l6 9l7 -4q2 -8 5 -16.5t14 -20.5q24 -21 55 -33.5t76 -12.5q31 0 52.5 7.5t33.5 21t12 30.5q0 13 -6.5 22.5t-19.5 18t-34 17t-51 16.5q-51 15 -89 34.5t-59 46.5t-21 64t21.5 65.5t61.5 45.5t95 17q30 0 56.5 -4.5
t49 -13.5t42.5 -22.5t38 -31.5l-51 -68l-6 -8l-7 6q-1 8 -4.5 15t-14.5 18q-22 16 -48 24t-53 8q-35 0 -61.5 -12t-26.5 -36q0 -14 11.5 -26t37.5 -23.5t71 -23.5q57 -15 92 -34.5t51.5 -45.5t16.5 -61q0 -39 -21.5 -72.5t-64.5 -53.5t-105 -20v0zM216 -289l-47 40
q24 23 39 47.5t15 40.5q0 13 -11 24t-21.5 23.5t-10.5 32.5q0 27 18.5 43t45.5 16q31 0 51 -23.5t20 -61.5q0 -27 -11 -56t-33 -60t-55 -66z" />
    <glyph glyph-name="uni021A" unicode="&#x21a;" 
d="M196 0v539h-170v85h445v-85h-178v-539h-97zM228 -289l-47 40q24 23 39 47.5t15 40.5q0 13 -11 24t-21.5 23.5t-10.5 32.5q0 27 18.5 43t45.5 16q31 0 51 -23.5t20 -61.5q0 -27 -11 -56t-33 -60t-55 -66z" />
    <glyph glyph-name="uni021B" unicode="&#x21b;" 
d="M299 -9q-41 0 -70.5 13.5t-47 43.5t-24.5 78t-5 117l13 332l102 13l10 1l1 -9q-5 -7 -8.5 -14t-5.5 -24l-10 -129l4 -11l-7 -159q-3 -68 4 -105.5t24 -52t41 -14.5q32 0 57.5 13t50.5 32l22 -74q-34 -25 -71 -38t-80 -13v0zM62 463h349l-1 -80h-348v80zM244 -289l-47 40
q24 23 39 47.5t15 40.5q0 13 -11 24t-21.5 23.5t-10.5 32.5q0 27 18.5 43t45.5 16q31 0 51 -23.5t20 -61.5q0 -27 -11 -56t-33 -60t-55 -66z" />
    <glyph glyph-name="uni022A" unicode="&#x22a;" 
d="M251 -11q-74 0 -125.5 37t-77.5 109t-26 175q0 101 26 172.5t77.5 109.5t125.5 38q75 0 126 -38t77.5 -109.5t26.5 -172.5q0 -103 -26.5 -175t-77.5 -109t-126 -37zM251 70q41 0 70 27t45 80.5t16 133.5q0 75 -16 128t-45 81.5t-70 28.5t-70.5 -28.5t-44.5 -81.5
t-15 -128q0 -80 15 -133.5t44.5 -80.5t70.5 -27zM158 687q-25 0 -43 17.5t-18 41.5t18 42t43 18q27 0 44.5 -18.5t17.5 -41.5q0 -24 -18.5 -41.5t-43.5 -17.5zM340 687q-25 0 -43 17t-18 42t18 42.5t43 17.5q27 0 44 -18.5t17 -41.5q0 -24 -18 -41.5t-43 -17.5zM113 881v69
h271v-69h-271z" />
    <glyph glyph-name="uni022B" unicode="&#x22b;" 
d="M250 -10q-63 0 -112 30.5t-78 85t-29 125.5q0 70 29 124.5t78 86t112 31.5q62 0 111.5 -31.5t78.5 -86t29 -124.5t-29 -124.5t-78.5 -85.5t-111.5 -31zM250 71q34 0 60.5 20.5t41.5 56.5t15 84q0 49 -15 85t-41.5 56t-60.5 20t-60.5 -20t-41.5 -56t-15 -85q0 -48 15 -84
t41.5 -56.5t60.5 -20.5zM160 554q-26 0 -44 17.5t-18 41.5t18 42t44 18t43.5 -18.5t17.5 -41.5q0 -24 -18.5 -41.5t-42.5 -17.5zM342 554q-26 0 -44 17t-18 42t18 42.5t44 17.5t43 -18.5t17 -41.5q0 -24 -18 -41.5t-42 -17.5zM115 714v69h271v-69h-271z" />
    <glyph glyph-name="uni022C" unicode="&#x22c;" 
d="M251 -11q-74 0 -125.5 37t-77.5 109t-26 175q0 101 26 172.5t77.5 109.5t125.5 38q75 0 126 -38t77.5 -109.5t26.5 -172.5q0 -103 -26.5 -175t-77.5 -109t-126 -37zM251 70q41 0 70 27t45 80.5t16 133.5q0 75 -16 128t-45 81.5t-70 28.5t-70.5 -28.5t-44.5 -81.5
t-15 -128q0 -80 15 -133.5t44.5 -80.5t70.5 -27zM345 835l53 -26q-18 -40 -40 -58t-48 -18q-19 0 -34.5 8t-28 19t-24 19t-22.5 8q-13 0 -24 -10.5t-19 -30.5l-53 26q12 35 37.5 55.5t50.5 20.5q19 0 35.5 -8t30.5 -18.5t26 -18.5t22 -8q11 0 20 9t18 31zM108 877v69h271
v-69h-271z" />
    <glyph glyph-name="uni022D" unicode="&#x22d;" 
d="M250 -10q-63 0 -112 30.5t-78 85t-29 125.5q0 70 29 124.5t78 86t112 31.5q62 0 111.5 -31.5t78.5 -86t29 -124.5t-29 -124.5t-78.5 -85.5t-111.5 -31zM250 71q34 0 60.5 20.5t41.5 56.5t15 84q0 49 -15 85t-41.5 56t-60.5 20t-60.5 -20t-41.5 -56t-15 -85q0 -48 15 -84
t41.5 -56.5t60.5 -20.5zM365 671l56 -30q-21 -42 -43.5 -60t-53.5 -18q-27 0 -45.5 8.5t-32 20.5t-26 21t-28.5 9t-29.5 -12t-24.5 -36l-57 26q15 41 41.5 63t66.5 22q25 0 42.5 -8.5t31 -20.5t27 -20.5t29.5 -8.5t25.5 10.5t20.5 33.5zM115 744v69h271v-69h-271z" />
    <glyph glyph-name="uni0230" unicode="&#x230;" 
d="M251 -11q-74 0 -125.5 37t-77.5 109t-26 175q0 101 26 172.5t77.5 109.5t125.5 38q75 0 126 -38t77.5 -109.5t26.5 -172.5q0 -103 -26.5 -175t-77.5 -109t-126 -37zM251 70q41 0 70 27t45 80.5t16 133.5q0 75 -16 128t-45 81.5t-70 28.5t-70.5 -28.5t-44.5 -81.5
t-15 -128q0 -80 15 -133.5t44.5 -80.5t70.5 -27zM251 688q-27 0 -45.5 18.5t-18.5 43.5q0 27 18 45t46 18q26 0 45.5 -19t19.5 -44t-19.5 -43.5t-45.5 -18.5zM115 851v69h271v-69h-271z" />
    <glyph glyph-name="uni0231" unicode="&#x231;" 
d="M250 -10q-63 0 -112 30.5t-78 85t-29 125.5q0 70 29 124.5t78 86t112 31.5q62 0 111.5 -31.5t78.5 -86t29 -124.5t-29 -124.5t-78.5 -85.5t-111.5 -31zM250 71q34 0 60.5 20.5t41.5 56.5t15 84q0 49 -15 85t-41.5 56t-60.5 20t-60.5 -20t-41.5 -56t-15 -85q0 -48 15 -84
t41.5 -56.5t60.5 -20.5zM250 546q-27 0 -45.5 18.5t-18.5 43.5q0 27 18 45t46 18q26 0 45.5 -19t19.5 -44t-19.5 -43.5t-45.5 -18.5zM114 714v69h271v-69h-271z" />
    <glyph glyph-name="uni0232" unicode="&#x232;" 
d="M208 0v246l-188 377h105l136 -274l122 274h100l-174 -377v-246h-101zM114 726v69h271v-69h-271z" />
    <glyph glyph-name="uni0233" unicode="&#x233;" 
d="M126 -175q-33 0 -59 10.5t-50 31.5l37 68l5 8l7 -4q3 -7 7.5 -13.5t18.5 -16.5q8 -3 17 -4.5t18 -1.5q23 0 39 11.5t28.5 35.5t25.5 62l96 280q15 44 26.5 85.5t14.5 85.5h94q-4 -46 -20.5 -95t-33.5 -95l-115 -317q-26 -73 -65 -102t-91 -29v0zM36 463h101l140 -364
l-50 -110zM120 564v69h271v-69h-271z" />
    <glyph glyph-name="uni0237" unicode="&#x237;" 
d="M192 -175q-46 0 -85 17.5t-68 51.5l55 72l6 8l7 -5q2 -8 4.5 -16t12.5 -20q13 -11 29.5 -18t37.5 -7q28 0 47 11.5t28.5 36t9.5 62.5v365h-165v80h266v-437q0 -71 -26 -115.5t-68 -65t-91 -20.5v0z" />
    <glyph glyph-name="uni024D" unicode="&#x24d;" 
d="M30 161v79h287v-79h-287zM99 463h103l-2 -132l-12 11q5 30 19 54.5t34.5 41.5t45.5 26.5t52 9.5q38 0 69 -13t56 -39l-42 -82l-4 -9l-8 4l-6 16t-15 19q-15 10 -29.5 15t-33.5 5q-24 0 -46.5 -8.5t-40.5 -26.5t-28.5 -45.5t-10.5 -66.5v-244h-101v464z" />
    <glyph glyph-name="uni0259" unicode="&#x259;" 
d="M229 473q50 0 92 -15.5t72.5 -46t47.5 -75.5t17 -102q0 -58 -17 -103.5t-46.5 -77t-68.5 -48t-85 -16.5q-39 0 -74.5 14t-62 41.5t-42 69.5t-15.5 98v22t1 21h314q-2 37 -14 63.5t-30.5 43.5t-42.5 25t-50 8q-22 0 -42 -4.5t-37.5 -15t-33.5 -26.5l-52 50q21 26 47 42.5
t56.5 24t65.5 7.5zM360 180h-216q0 -27 7 -48t20.5 -36t32.5 -22.5t42 -7.5q22 0 40.5 6.5t33.5 21t25.5 36t14.5 50.5z" />
    <glyph glyph-name="uni027B" unicode="&#x27b;" 
d="M403 -177q-33 0 -58.5 9.5t-43.5 30t-27.5 52.5t-10.5 77v84q-12 -27 -32.5 -46.5t-46 -29.5t-52.5 -10q-32 0 -60.5 12t-55.5 38l39 77l4 9l7 -4q4 -8 7.5 -15.5t15.5 -18.5q11 -7 23 -10.5t29 -3.5q21 0 42 9.5t39.5 28t29.5 46t11 62.5v244h99v-472q0 -29 6.5 -48
t18.5 -28.5t30 -9.5q6 0 11.5 0.5t11 2t11.5 4.5q5 3 7.5 6t4 6.5t4.5 4.5l24 -76q-16 -14 -38 -22.5t-50 -8.5v0z" />
    <glyph glyph-name="uni0298" unicode="&#x298;" 
d="M251 -11q-74 0 -125.5 37t-77.5 109t-26 175q0 101 26 172.5t77.5 109.5t125.5 38q75 0 126 -38t77.5 -109.5t26.5 -172.5q0 -103 -26.5 -175t-77.5 -109t-126 -37zM251 70q41 0 70 27t45 80.5t16 133.5q0 75 -16 128t-45 81.5t-70 28.5t-70.5 -28.5t-44.5 -81.5
t-15 -128q0 -80 15 -133.5t44.5 -80.5t70.5 -27zM252 264q-22 0 -37 15t-15 35q0 22 15 36.5t37 14.5q21 0 36.5 -15.5t15.5 -35.5t-15.5 -35t-36.5 -15z" />
    <glyph glyph-name="uni029A" unicode="&#x29a;" 
d="M232 -14q-64 1 -108 20t-66.5 52.5t-22.5 75.5q0 28 10.5 50.5t30 38.5t45.5 26q-32 18 -48 44.5t-16 57.5q0 33 21.5 61t62 45.5t93.5 17.5q73 0 124 -30.5t78.5 -85t27.5 -127.5q0 -74 -28 -129.5t-80 -86t-124 -30.5zM234 67q43 0 72 18.5t44.5 55t15.5 91.5
q0 50 -13.5 86t-41 56t-70.5 20q-30 0 -48.5 -8.5t-27.5 -22t-9 -30.5q0 -14 7.5 -27t25 -20.5t47.5 -7.5h17t18 2v-78q-11 1 -16.5 1t-11 0.5t-14.5 0.5q-24 0 -42 -4.5t-30 -13.5t-18 -20.5t-6 -25.5q0 -19 12 -36t34.5 -27t54.5 -10z" />
    <glyph glyph-name="uni02B9" unicode="&#x2b9;" 
d="M261 520h-56l24 188h87z" />
    <glyph glyph-name="uni02BA" unicode="&#x2ba;" 
d="M330 520h-56l24 188h87zM200 520h-56l24 188h87z" />
    <glyph glyph-name="uni02BB" unicode="&#x2bb;" 
d="M265 649l48 -40q-25 -23 -40 -47.5t-15 -40.5q0 -13 11 -24t21.5 -23.5t10.5 -32.5q0 -27 -18.5 -43t-45.5 -16q-31 0 -51 23.5t-20 61.5q0 27 11 56t33 60t55 66z" />
    <glyph glyph-name="uni02BC" unicode="&#x2bc;" 
d="M220 443l-48 42q16 15 28 29t18.5 26.5t6.5 21.5q0 7 -5.5 13.5t-13 13t-13 15t-5.5 19.5q0 25 17 41t43 16t46.5 -21t20.5 -54q0 -22 -10.5 -47.5t-31.5 -54t-53 -60.5z" />
    <glyph glyph-name="uni02BE" unicode="&#x2be;" 
d="M193 457v58q14 0 24 7.5t16 19.5t6 27q0 22 -13.5 37.5t-33.5 15.5l1 58q30 0 56.5 -15t42 -40t15.5 -57q0 -31 -15 -56.5t-41 -40t-58 -14.5z" />
    <glyph glyph-name="uni02BF" unicode="&#x2bf;" 
d="M307 457q-32 0 -58 14.5t-41 40t-15 56.5q0 32 15.5 57t42 40t56.5 15l1 -58q-20 0 -33.5 -15.5t-13.5 -37.5q0 -15 6 -27t16.5 -19.5t23.5 -7.5v-58z" />
    <glyph glyph-name="circumflex" unicode="&#x2c6;" 
d="M347 515l-93 98l-99 -100l-44 39l130 141h29l126 -141z" />
    <glyph glyph-name="caron" unicode="&#x2c7;" 
d="M241 515l-113 141l52 43l78 -95l82 94l43 -42l-114 -141h-28z" />
    <glyph glyph-name="uni02C8" unicode="&#x2c8;" 
d="M309 445h-91v220h91v-220z" />
    <glyph glyph-name="uni02C9" unicode="&#x2c9;" 
d="M113 557v77h271v-77h-271z" />
    <glyph glyph-name="uni02CA" unicode="&#x2ca;" 
d="M251 554h-68l93 150h92z" />
    <glyph glyph-name="uni02CB" unicode="&#x2cb;" 
d="M280 519l-104 139l75 51l83 -158z" />
    <glyph glyph-name="uni02CC" unicode="&#x2cc;" 
d="M296 -190h-91v220h91v-220z" />
    <glyph glyph-name="breve" unicode="&#x2d8;" 
d="M250 520q-40 0 -80.5 19.5t-79.5 61.5l53 64q21 -34 49.5 -52t59.5 -18q28 0 57 16t56 54l41 -62q-20 -26 -46 -44.5t-54 -28.5t-56 -10z" />
    <glyph glyph-name="dotaccent" unicode="&#x2d9;" 
d="M254 546q-27 0 -45.5 18.5t-18.5 43.5q0 27 18 45t46 18q26 0 45.5 -19t19.5 -44t-19.5 -43.5t-45.5 -18.5z" />
    <glyph glyph-name="ring" unicode="&#x2da;" 
d="M251 514q-26 0 -48.5 13t-36.5 34.5t-14 48.5q0 26 14 47.5t36.5 34.5t48.5 13q28 0 51 -13t36.5 -34.5t13.5 -47.5t-14 -48t-36.5 -35t-50.5 -13zM252 571q15 0 25.5 11.5t10.5 28.5t-10.5 28.5t-25.5 11.5q-14 0 -24.5 -11.5t-10.5 -28.5t10.5 -28.5t24.5 -11.5z" />
    <glyph glyph-name="ogonek" unicode="&#x2db;" 
d="M388 -160l-35 -74q-41 9 -69 24.5t-42.5 35.5t-14.5 44q0 26 15 52.5t45 52.5t72 49l36 -24q-23 -19 -39 -37.5t-24.5 -35.5t-8.5 -32q0 -19 16 -33.5t49 -21.5z" />
    <glyph glyph-name="tilde" unicode="&#x2dc;" 
d="M374 671l56 -30q-21 -42 -43.5 -60t-53.5 -18q-27 0 -45.5 8.5t-32 20.5t-26 21t-28.5 9t-29.5 -12t-24.5 -36l-57 26q15 41 41.5 63t66.5 22q25 0 42.5 -8.5t31 -20.5t27 -20.5t29.5 -8.5t25.5 10.5t20.5 33.5z" />
    <glyph glyph-name="hungarumlaut" unicode="&#x2dd;" 
d="M332 519l-56 34l84 156l75 -51zM177 519l-56 34l84 156l75 -51z" />
    <glyph glyph-name="gravecomb" unicode="&#x300;" horiz-adv-x="0" 
d="M254 505l-108 140l72 51l83 -160z" />
    <glyph glyph-name="acutecomb" unicode="&#x301;" horiz-adv-x="0" 
d="M255 505l-47 31l83 160l72 -51z" />
    <glyph glyph-name="uni0302" unicode="&#x302;" horiz-adv-x="0" 
d="M137 504l-49 44l144 139h32l144 -139l-49 -44l-111 105z" />
    <glyph glyph-name="tildecomb" unicode="&#x303;" horiz-adv-x="0" 
d="M374 671l56 -30q-21 -42 -43.5 -60t-53.5 -18q-27 0 -45.5 8.5t-32 20.5t-26 21t-28.5 9t-29.5 -12t-24.5 -36l-57 26q15 41 41.5 63t66.5 22q25 0 42.5 -8.5t31 -20.5t27 -20.5t29.5 -8.5t25.5 10.5t20.5 33.5z" />
    <glyph glyph-name="uni0304" unicode="&#x304;" horiz-adv-x="0" 
d="M113 564v69h271v-69h-271z" />
    <glyph glyph-name="uni0306" unicode="&#x306;" horiz-adv-x="0" 
d="M342 663l64 -29q-23 -48 -61 -74.5t-87 -26.5q-48 0 -86 26.5t-62 74.5l64 29q16 -36 36 -53t48 -17q19 0 34.5 7.5t28 23t21.5 39.5z" />
    <glyph glyph-name="uni0307" unicode="&#x307;" horiz-adv-x="0" 
d="M254 546q-27 0 -45.5 18.5t-18.5 43.5q0 27 18 45t46 18q26 0 45.5 -19t19.5 -44t-19.5 -43.5t-45.5 -18.5z" />
    <glyph glyph-name="uni0308" unicode="&#x308;" horiz-adv-x="0" 
d="M161 554q-26 0 -44 17.5t-18 41.5t18 42t44 18t43.5 -18.5t17.5 -41.5q0 -24 -18.5 -41.5t-42.5 -17.5zM343 554q-26 0 -44 17t-18 42t18 42.5t44 17.5t43 -18.5t17 -41.5q0 -24 -18 -41.5t-42 -17.5z" />
    <glyph glyph-name="hookabovecomb" unicode="&#x309;" horiz-adv-x="0" 
d="M343 638q0 -21 -10 -34.5t-22.5 -24t-22 -22t-9.5 -27.5v-8h-64v28q0 14 9 25.5t21 21.5t21 19t9 19q0 14 -9.5 21.5t-23.5 7.5q-16 0 -29.5 -7.5t-21.5 -28.5l-40 49q19 24 44 34.5t53 9.5q27 0 48.5 -10.5t34 -29t12.5 -43.5z" />
    <glyph glyph-name="uni030A" unicode="&#x30a;" horiz-adv-x="0" 
d="M251 514q-26 0 -48.5 13t-36.5 34.5t-14 48.5q0 26 14 47.5t36.5 34.5t48.5 13q28 0 51 -13t36.5 -34.5t13.5 -47.5t-14 -48t-36.5 -35t-50.5 -13zM252 571q15 0 25.5 11.5t10.5 28.5t-10.5 28.5t-25.5 11.5q-14 0 -24.5 -11.5t-10.5 -28.5t10.5 -28.5t24.5 -11.5z" />
    <glyph glyph-name="uni030B" unicode="&#x30b;" horiz-adv-x="0" 
d="M332 519l-56 34l84 156l75 -51zM177 519l-56 34l84 156l75 -51z" />
    <glyph glyph-name="uni030C" unicode="&#x30c;" horiz-adv-x="0" 
d="M142 698l111 -105l111 105l49 -43l-144 -139h-32l-144 139z" />
    <glyph glyph-name="uni030F" unicode="&#x30f;" horiz-adv-x="0" 
d="M195 505l-108 140l72 51l83 -160zM355 505l-108 140l72 51l83 -160z" />
    <glyph glyph-name="uni0311" unicode="&#x311;" horiz-adv-x="0" 
d="M171 523l-64 29q24 49 62 75t86 26q49 0 87 -26t61 -75l-64 -29q-15 36 -35.5 53t-48.5 17q-18 0 -33.5 -7.5t-28 -22.5t-22.5 -40z" />
    <glyph glyph-name="uni0312" unicode="&#x312;" horiz-adv-x="0" 
d="M263 823l53 -44q-28 -26 -44 -53t-16 -45q0 -11 7 -20.5t16.5 -18.5t16.5 -21t7 -29q0 -30 -20.5 -48t-50.5 -18q-34 0 -56.5 26.5t-22.5 68.5q0 22 7 45.5t20.5 49t34 52t48.5 55.5z" />
    <glyph glyph-name="uni031B" unicode="&#x31b;" horiz-adv-x="0" 
d="M487 554q0 -58 -10.5 -92t-33.5 -48t-60 -14v63q13 0 19 20t6 71h79z" />
    <glyph glyph-name="dotbelowcomb" unicode="&#x323;" horiz-adv-x="0" 
d="M240 -162q-27 0 -45.5 18.5t-18.5 43.5q0 27 18 45t46 18q26 0 45.5 -19t19.5 -44t-19.5 -43.5t-45.5 -18.5z" />
    <glyph glyph-name="uni0324" unicode="&#x324;" horiz-adv-x="0" 
d="M161 -176q-26 0 -44 17.5t-18 41.5t18 42t44 18t43.5 -18.5t17.5 -41.5q0 -24 -18.5 -41.5t-42.5 -17.5zM343 -176q-26 0 -44 17t-18 42t18 42.5t44 17.5t43 -18.5t17 -41.5q0 -24 -18 -41.5t-42 -17.5z" />
    <glyph glyph-name="uni0326" unicode="&#x326;" horiz-adv-x="0" 
d="M216 -289l-47 40q24 23 39 47.5t15 40.5q0 13 -11 24t-21.5 23.5t-10.5 32.5q0 27 18.5 43t45.5 16q31 0 51 -23.5t20 -61.5q0 -27 -11 -56t-33 -60t-55 -66z" />
    <glyph glyph-name="uni0327" unicode="&#x327;" horiz-adv-x="0" 
d="M269 -202q-29 0 -58 8t-58 30l33 57q24 -20 47 -28t49 -8q20 0 33.5 8t13.5 22q0 13 -13.5 19t-34.5 6h-43l12 88h68l-5 -36q27 -2 44.5 -12.5t26.5 -25.5t9 -31q0 -40 -32 -68.5t-92 -28.5z" />
    <glyph glyph-name="uni0328" unicode="&#x328;" horiz-adv-x="0" 
d="M288 -160l-35 -74q-41 9 -69 24.5t-42.5 35.5t-14.5 44q0 26 15 52.5t45 52.5t72 49l36 -24q-23 -19 -39 -37.5t-24.5 -35.5t-8.5 -32q0 -19 16 -33.5t49 -21.5z" />
    <glyph glyph-name="uni032E" unicode="&#x32e;" horiz-adv-x="0" 
d="M342 -54l64 -29q-23 -48 -61 -74.5t-87 -26.5q-48 0 -86 26.5t-62 74.5l64 29q16 -36 36 -53t48 -17q19 0 34.5 7.5t28 23t21.5 39.5z" />
    <glyph glyph-name="uni0331" unicode="&#x331;" horiz-adv-x="0" 
d="M114 -156v69h271v-69h-271z" />
    <glyph glyph-name="uni0335" unicode="&#x335;" horiz-adv-x="0" 
d="M116 285v67h274v-67h-274z" />
    <glyph glyph-name="uni0336" unicode="&#x336;" horiz-adv-x="0" 
d="M107 275v84h288v-84h-288z" />
    <glyph glyph-name="uni0375" unicode="&#x375;" 
d="M229 -76h-56l64 188h87z" />
    <glyph glyph-name="uni1E08" unicode="&#x1e08;" 
d="M281 -11q-51 0 -95.5 19t-78.5 58t-53.5 99t-19.5 143q0 73 14.5 127.5t39.5 92t57 60t67 33t70 10.5q70 0 119.5 -32.5t74.5 -89.5l-67 -45l-8 -5l-5 7q2 8 -0.5 15.5t-11.5 20.5q-22 29 -47 39t-51 10q-32 0 -60.5 -15.5t-49.5 -45.5t-33 -74.5t-12 -102.5
q0 -56 11.5 -100.5t32 -76t48 -48t59.5 -16.5q25 0 46 7t39 23.5t32 39.5l70 -49q-33 -55 -79 -79.5t-109 -24.5v0zM274 -202q-29 0 -58 8t-58 30l33 57q24 -20 47 -28t49 -8q20 0 33.5 8t13.5 22q0 13 -13.5 19t-34.5 6h-43l12 88h68l-5 -36q27 -2 44.5 -12.5t26.5 -25.5
t9 -31q0 -40 -32 -68.5t-92 -28.5zM196 656l-27 50l159 93l43 -81z" />
    <glyph glyph-name="uni1E09" unicode="&#x1e09;" 
d="M281 -11q-51 0 -94.5 17.5t-75 50t-49 76t-17.5 95.5t17.5 96.5t49 77.5t75 51.5t93.5 18.5q62 0 108.5 -23t75.5 -65l-57 -60l-7 -7l-6 6q-1 8 -3.5 15.5t-13.5 20.5q-20 18 -44 25.5t-55 7.5q-26 0 -49.5 -11t-42 -32t-29.5 -51t-11 -67q0 -36 11 -65.5t30 -50
t44.5 -32t53.5 -11.5q22 0 42.5 5.5t39.5 18t36 32.5l55 -64q-36 -39 -82.5 -57t-94.5 -18v0zM278 -202q-29 0 -58 8t-58 30l33 57q24 -20 47 -28t49 -8q20 0 33.5 8t13.5 22q0 13 -13.5 19t-34.5 6h-43l12 88h68l-5 -36q27 -2 44.5 -12.5t26.5 -25.5t9 -31q0 -40 -32 -68.5
t-92 -28.5zM266 505l-47 31l83 160l72 -51z" />
    <glyph glyph-name="uni1E0C" unicode="&#x1e0c;" 
d="M46 -1v624h155q55 0 92.5 -10t64 -29t46.5 -47q21 -28 35.5 -63t21.5 -76.5t7 -89.5q-1 -72 -17.5 -129t-50 -97t-85.5 -61.5t-126 -21.5h-143zM141 77h46q67 0 107.5 27.5t59 79t18.5 121.5q0 74 -17 127t-54.5 82.5t-103.5 29.5h-56v-467zM244 -162q-27 0 -45.5 18.5
t-18.5 43.5q0 27 18 45t46 18q26 0 45.5 -19t19.5 -44t-19.5 -43.5t-45.5 -18.5z" />
    <glyph glyph-name="uni1E0D" unicode="&#x1e0d;" 
d="M228 -11q-37 0 -71.5 15.5t-61.5 45.5t-42.5 76.5t-15.5 107.5q0 62 15.5 107t42.5 74.5t62 44t73 14.5q27 0 49.5 -7t40.5 -21t29 -35v258h97h9v-9q-5 -6 -7 -13t-1 -24v-558q0 -16 1.5 -32.5t8.5 -32.5h-98q-5 11 -7 20t-2 18v19q-14 -21 -32 -36.5t-41 -23.5t-49 -8v0
zM245 71q27 0 46 11t31 32t18 51t6 68q0 51 -11 87.5t-34.5 56t-59.5 19.5q-26 0 -46 -11t-33.5 -31.5t-20.5 -49.5t-7 -65q0 -51 14.5 -89t39.5 -58.5t57 -20.5v0zM247 -162q-27 0 -45.5 18.5t-18.5 43.5q0 27 18 45t46 18q26 0 45.5 -19t19.5 -44t-19.5 -43.5t-45.5 -18.5
z" />
    <glyph glyph-name="uni1E0E" unicode="&#x1e0e;" 
d="M46 -1v624h155q55 0 92.5 -10t64 -29t46.5 -47q21 -28 35.5 -63t21.5 -76.5t7 -89.5q-1 -72 -17.5 -129t-50 -97t-85.5 -61.5t-126 -21.5h-143zM141 77h46q67 0 107.5 27.5t59 79t18.5 121.5q0 74 -17 127t-54.5 82.5t-103.5 29.5h-56v-467zM112 -156v69h271v-69h-271z
" />
    <glyph glyph-name="uni1E0F" unicode="&#x1e0f;" 
d="M228 -11q-37 0 -71.5 15.5t-61.5 45.5t-42.5 76.5t-15.5 107.5q0 62 15.5 107t42.5 74.5t62 44t73 14.5q27 0 49.5 -7t40.5 -21t29 -35v258h97h9v-9q-5 -6 -7 -13t-1 -24v-558q0 -16 1.5 -32.5t8.5 -32.5h-98q-5 11 -7 20t-2 18v19q-14 -21 -32 -36.5t-41 -23.5t-49 -8v0
zM245 71q27 0 46 11t31 32t18 51t6 68q0 51 -11 87.5t-34.5 56t-59.5 19.5q-26 0 -46 -11t-33.5 -31.5t-20.5 -49.5t-7 -65q0 -51 14.5 -89t39.5 -58.5t57 -20.5v0zM115 -156v69h271v-69h-271z" />
    <glyph glyph-name="uni1E14" unicode="&#x1e14;" 
d="M54 0v624h397v-82h-302v-176h249v-83h-249v-201h300v-82h-395zM127 726v69h271v-69h-271zM320 807l-177 62l45 81l158 -93z" />
    <glyph glyph-name="uni1E15" unicode="&#x1e15;" 
d="M271 -11q-50 0 -92 16t-72.5 46.5t-47.5 75.5t-17 102q0 58 17 103.5t46.5 76.5t69 48t84.5 17q39 0 74.5 -14t62 -41.5t42 -69.5t15.5 -98v-22.5t-1 -21.5h-314q2 -36 14 -62.5t30.5 -43.5t42.5 -25t50 -8q23 0 42.5 4.5t37.5 14.5t33 27l52 -51q-21 -25 -47 -41.5
t-56.5 -24.5t-65.5 -8zM140 282h216q0 28 -7 49t-20.5 36t-32.5 22.5t-42 7.5q-22 0 -40.5 -7t-33.5 -21t-25.5 -35.5t-14.5 -51.5zM123 564v69h271v-69h-271zM253 656l-108 140l72 51l83 -160z" />
    <glyph glyph-name="uni1E16" unicode="&#x1e16;" 
d="M54 0v624h397v-82h-302v-176h249v-83h-249v-201h300v-82h-395zM127 726v69h271v-69h-271zM189 807l-27 50l159 93l43 -81z" />
    <glyph glyph-name="uni1E17" unicode="&#x1e17;" 
d="M271 -11q-50 0 -92 16t-72.5 46.5t-47.5 75.5t-17 102q0 58 17 103.5t46.5 76.5t69 48t84.5 17q39 0 74.5 -14t62 -41.5t42 -69.5t15.5 -98v-22.5t-1 -21.5h-314q2 -36 14 -62.5t30.5 -43.5t42.5 -25t50 -8q23 0 42.5 4.5t37.5 14.5t33 27l52 -51q-21 -25 -47 -41.5
t-56.5 -24.5t-65.5 -8zM140 282h216q0 28 -7 49t-20.5 36t-32.5 22.5t-42 7.5q-22 0 -40.5 -7t-33.5 -21t-25.5 -35.5t-14.5 -51.5zM123 564v69h271v-69h-271zM246 656l-47 31l83 160l72 -51z" />
    <glyph glyph-name="uni1E1C" unicode="&#x1e1c;" 
d="M54 0v624h397v-82h-302v-176h249v-83h-249v-201h300v-82h-395zM248 -202q-29 0 -58 8t-58 30l33 57q24 -20 47 -28t49 -8q20 0 33.5 8t13.5 22q0 13 -13.5 19t-34.5 6h-43l12 88h68l-5 -36q27 -2 44.5 -12.5t26.5 -25.5t9 -31q0 -40 -32 -68.5t-92 -28.5zM347 797l64 -29
q-23 -48 -61 -74.5t-87 -26.5q-48 0 -86 26.5t-62 74.5l64 29q16 -36 36 -53t48 -17q19 0 34.5 7.5t28 23t21.5 39.5z" />
    <glyph glyph-name="uni1E1D" unicode="&#x1e1d;" 
d="M271 -11q-50 0 -92 16t-72.5 46.5t-47.5 75.5t-17 102q0 58 17 103.5t46.5 76.5t69 48t84.5 17q39 0 74.5 -14t62 -41.5t42 -69.5t15.5 -98v-22.5t-1 -21.5h-314q2 -36 14 -62.5t30.5 -43.5t42.5 -25t50 -8q23 0 42.5 4.5t37.5 14.5t33 27l52 -51q-21 -25 -47 -41.5
t-56.5 -24.5t-65.5 -8zM140 282h216q0 28 -7 49t-20.5 36t-32.5 22.5t-42 7.5q-22 0 -40.5 -7t-33.5 -21t-25.5 -35.5t-14.5 -51.5zM270 -202q-29 0 -58 8t-58 30l33 57q24 -20 47 -28t49 -8q20 0 33.5 8t13.5 22q0 13 -13.5 19t-34.5 6h-43l12 88h68l-5 -36
q27 -2 44.5 -12.5t26.5 -25.5t9 -31q0 -40 -32 -68.5t-92 -28.5zM343 663l64 -29q-23 -48 -61 -74.5t-87 -26.5q-48 0 -86 26.5t-62 74.5l64 29q16 -36 36 -53t48 -17q19 0 34.5 7.5t28 23t21.5 39.5z" />
    <glyph glyph-name="uni1E20" unicode="&#x1e20;" 
d="M277 -11q-77 0 -133 39.5t-85.5 111.5t-29.5 167q-1 80 15.5 136.5t43.5 93.5t60 58t66 29t61 8q39 0 76 -13t67.5 -36.5t48.5 -57.5l-60 -57l-8 -7l-6 7q1 8 -2 15t-13 20q-13 15 -27.5 25t-32.5 15.5t-42 5.5t-46 -7.5t-41 -24t-33 -43.5t-22 -65.5t-8 -89.5
q0 -62 11 -108t30.5 -77t47.5 -47t62 -16q12 0 25.5 2t27 5.5t26 10.5t23.5 15v127h-106v82h195v-259q-44 -34 -92.5 -49.5t-98.5 -15.5v0zM135 726v69h271v-69h-271z" />
    <glyph glyph-name="uni1E21" unicode="&#x1e21;" 
d="M241 -176q-48 0 -87 8t-66.5 23.5t-41.5 38t-14 50.5q0 26 12 47t32 36.5t44 23.5l44 -20q-16 -10 -28 -20t-18.5 -22.5t-6.5 -29.5q0 -15 10 -26t28 -18t43 -11t56 -4q41 0 68 7.5t40.5 21.5t13.5 32t-8 28.5t-30 16t-64 5.5q-34 0 -64.5 2.5t-56 9.5t-44.5 18
t-29.5 27.5t-10.5 39.5q0 30 18 54.5t45 44.5l45 -28q-9 -10 -16 -17t-11 -13.5t-4 -15.5q0 -13 15 -22t48.5 -13t89.5 -4q47 0 78.5 -9.5t49.5 -26.5t25.5 -38.5t7.5 -47.5q0 -28 -12 -54.5t-37.5 -47.5t-66 -33.5t-97.5 -12.5zM228 156q-49 0 -87 21.5t-59.5 57.5
t-21.5 81t21.5 81.5t59.5 58t87 21.5q50 0 88 -21.5t59.5 -58t21.5 -81.5t-21.5 -81t-59.5 -57.5t-88 -21.5zM228 231q25 0 44 11t30 30.5t11 43.5q0 25 -11 43.5t-30.5 29.5t-43.5 11q-23 0 -42 -11t-30.5 -30t-11.5 -43q0 -23 11 -42.5t30 -31t43 -11.5zM369 381l-38 47
q29 24 63.5 36.5t76.5 9.5l10 -71q-31 4 -60 -0.5t-52 -21.5zM93 564v69h271v-69h-271z" />
    <glyph glyph-name="uni1E24" unicode="&#x1e24;" 
d="M42 623h100h9v-9q-6 -6 -7 -13t-1 -24v-211h209v257h99h10v-9q-6 -6 -7.5 -13t-1.5 -24v-577h-101v286h-208v-286h-101v623zM247 -162q-27 0 -45.5 18.5t-18.5 43.5q0 27 18 45t46 18q26 0 45.5 -19t19.5 -44t-19.5 -43.5t-45.5 -18.5z" />
    <glyph glyph-name="uni1E25" unicode="&#x1e25;" 
d="M61 669h98h10v-9q-6 -6 -7.5 -13t-1.5 -24v-228q17 25 40.5 42.5t49 27t51.5 9.5q44 0 76.5 -20t50.5 -62.5t18 -112.5v-279h-98v278q0 43 -9 68.5t-25 37t-38 11.5q-18 0 -34.5 -6t-31.5 -16.5t-26 -26.5t-17.5 -36t-6.5 -44v-266h-99v669zM247 -162q-27 0 -45.5 18.5
t-18.5 43.5q0 27 18 45t46 18q26 0 45.5 -19t19.5 -44t-19.5 -43.5t-45.5 -18.5z" />
    <glyph glyph-name="uni1E2A" unicode="&#x1e2a;" 
d="M42 623h100h9v-9q-6 -6 -7 -13t-1 -24v-211h209v257h99h10v-9q-6 -6 -7.5 -13t-1.5 -24v-577h-101v286h-208v-286h-101v623zM344 -54l64 -29q-23 -48 -61 -74.5t-87 -26.5q-48 0 -86 26.5t-62 74.5l64 29q16 -36 36 -53t48 -17q19 0 34.5 7.5t28 23t21.5 39.5z" />
    <glyph glyph-name="uni1E2B" unicode="&#x1e2b;" 
d="M61 669h98h10v-9q-6 -6 -7.5 -13t-1.5 -24v-228q17 25 40.5 42.5t49 27t51.5 9.5q44 0 76.5 -20t50.5 -62.5t18 -112.5v-279h-98v278q0 43 -9 68.5t-25 37t-38 11.5q-18 0 -34.5 -6t-31.5 -16.5t-26 -26.5t-17.5 -36t-6.5 -44v-266h-99v669zM344 -54l64 -29
q-23 -48 -61 -74.5t-87 -26.5q-48 0 -86 26.5t-62 74.5l64 29q16 -36 36 -53t48 -17q19 0 34.5 7.5t28 23t21.5 39.5z" />
    <glyph glyph-name="uni1E2E" unicode="&#x1e2e;" 
d="M74 0v81h122v461h-116v81h333v-81h-122v-462h128v-80h-345zM151 685q-25 0 -43 17.5t-18 41.5t18 42t43 18q27 0 44.5 -18.5t17.5 -41.5q0 -24 -18.5 -41.5t-43.5 -17.5zM333 685q-25 0 -43 17t-18 42t18 42.5t43 17.5q27 0 44 -18.5t17 -41.5q0 -24 -18 -41.5t-43 -17.5
zM168 809l-27 50l159 93l43 -81z" />
    <glyph glyph-name="uni1E2F" unicode="&#x1e2f;" 
d="M90 0v79h115v305h-110v79h210v-384h105v-79h-320zM160 554q-26 0 -44 17.5t-18 41.5t18 42t44 18t43.5 -18.5t17.5 -41.5q0 -24 -18.5 -41.5t-42.5 -17.5zM342 554q-26 0 -44 17t-18 42t18 42.5t44 17.5t43 -18.5t17 -41.5q0 -24 -18 -41.5t-42 -17.5zM237 655l-47 31
l83 160l72 -51z" />
    <glyph glyph-name="uni1E36" unicode="&#x1e36;" 
d="M60 623h100h9v-9q-6 -6 -7 -13t-1 -24v-495h290v-82h-391v623zM247 -162q-27 0 -45.5 18.5t-18.5 43.5q0 27 18 45t46 18q26 0 45.5 -19t19.5 -44t-19.5 -43.5t-45.5 -18.5z" />
    <glyph glyph-name="uni1E37" unicode="&#x1e37;" 
d="M68 0v79h132v511h-126v79h227v-590h131v-79h-364zM247 -162q-27 0 -45.5 18.5t-18.5 43.5q0 27 18 45t46 18q26 0 45.5 -19t19.5 -44t-19.5 -43.5t-45.5 -18.5z" />
    <glyph glyph-name="uni1E3A" unicode="&#x1e3a;" 
d="M60 623h100h9v-9q-6 -6 -7 -13t-1 -24v-495h290v-82h-391v623zM115 -156v69h271v-69h-271z" />
    <glyph glyph-name="uni1E3B" unicode="&#x1e3b;" 
d="M68 0v79h132v511h-126v79h227v-590h131v-79h-364zM115 -156v69h271v-69h-271z" />
    <glyph glyph-name="uni1E42" unicode="&#x1e42;" 
d="M35 0v623h84l132 -292l134 293h83v-624h-87v447l-110 -237h-46l-104 235v-445h-86zM247 -162q-27 0 -45.5 18.5t-18.5 43.5q0 27 18 45t46 18q26 0 45.5 -19t19.5 -44t-19.5 -43.5t-45.5 -18.5z" />
    <glyph glyph-name="uni1E43" unicode="&#x1e43;" 
d="M33 0v463h85v-38q11 16 24.5 26.5t29 16.5t31.5 6q18 0 34 -7t28 -20t18 -34q10 20 24.5 33t34 20.5t41.5 7.5q24 0 41.5 -9.5t29 -26t17 -40t4.5 -52.5v-346h-87v320q0 35 -4 52t-11.5 23t-17.5 6q-15 0 -28.5 -13.5t-22 -36.5t-8.5 -51v-300h-84v316q0 52 -8.5 69
t-29.5 17q-10 0 -19.5 -6.5t-17.5 -19t-12.5 -30.5t-4.5 -42v-304h-87zM247 -162q-27 0 -45.5 18.5t-18.5 43.5q0 27 18 45t46 18q26 0 45.5 -19t19.5 -44t-19.5 -43.5t-45.5 -18.5z" />
    <glyph glyph-name="uni1E44" unicode="&#x1e44;" 
d="M41 623h101l229 -428l-4 428h89h10v-9q-6 -6 -7.5 -13t-1.5 -24v-577h-88l-238 454v-454h-90v623zM250 686q-27 0 -45.5 18.5t-18.5 43.5q0 27 18 45t46 18q26 0 45.5 -19t19.5 -44t-19.5 -43.5t-45.5 -18.5z" />
    <glyph glyph-name="uni1E45" unicode="&#x1e45;" 
d="M60 0v463h100v-71q17 25 38 43t47 28.5t56 10.5q39 0 72 -20t53 -62.5t20 -112.5v-279h-99v278q0 41 -9 67t-25.5 38t-39.5 12q-20 0 -40 -9t-36.5 -24.5t-26.5 -38t-10 -50.5v-273h-100zM262 546q-27 0 -45.5 18.5t-18.5 43.5q0 27 18 45t46 18q26 0 45.5 -19t19.5 -44
t-19.5 -43.5t-45.5 -18.5z" />
    <glyph glyph-name="uni1E46" unicode="&#x1e46;" 
d="M41 623h101l229 -428l-4 428h89h10v-9q-6 -6 -7.5 -13t-1.5 -24v-577h-88l-238 454v-454h-90v623zM247 -162q-27 0 -45.5 18.5t-18.5 43.5q0 27 18 45t46 18q26 0 45.5 -19t19.5 -44t-19.5 -43.5t-45.5 -18.5z" />
    <glyph glyph-name="uni1E47" unicode="&#x1e47;" 
d="M60 0v463h100v-71q17 25 38 43t47 28.5t56 10.5q39 0 72 -20t53 -62.5t20 -112.5v-279h-99v278q0 41 -9 67t-25.5 38t-39.5 12q-20 0 -40 -9t-36.5 -24.5t-26.5 -38t-10 -50.5v-273h-100zM257 -162q-27 0 -45.5 18.5t-18.5 43.5q0 27 18 45t46 18q26 0 45.5 -19t19.5 -44
t-19.5 -43.5t-45.5 -18.5z" />
    <glyph glyph-name="uni1E48" unicode="&#x1e48;" 
d="M41 623h101l229 -428l-4 428h89h10v-9q-6 -6 -7.5 -13t-1.5 -24v-577h-88l-238 454v-454h-90v623zM115 -156v69h271v-69h-271z" />
    <glyph glyph-name="uni1E49" unicode="&#x1e49;" 
d="M60 0v463h100v-71q17 25 38 43t47 28.5t56 10.5q39 0 72 -20t53 -62.5t20 -112.5v-279h-99v278q0 41 -9 67t-25.5 38t-39.5 12q-20 0 -40 -9t-36.5 -24.5t-26.5 -38t-10 -50.5v-273h-100zM125 -156v69h271v-69h-271z" />
    <glyph glyph-name="uni1E4C" unicode="&#x1e4c;" 
d="M251 -11q-74 0 -125.5 37t-77.5 109t-26 175q0 101 26 172.5t77.5 109.5t125.5 38q75 0 126 -38t77.5 -109.5t26.5 -172.5q0 -103 -26.5 -175t-77.5 -109t-126 -37zM251 70q41 0 70 27t45 80.5t16 133.5q0 75 -16 128t-45 81.5t-70 28.5t-70.5 -28.5t-44.5 -81.5
t-15 -128q0 -80 15 -133.5t44.5 -80.5t70.5 -27zM368 791l56 -30q-21 -42 -43.5 -60t-53.5 -18q-27 0 -45.5 8.5t-32 20.5t-26 21t-28.5 9t-29.5 -12t-24.5 -36l-57 26q15 41 41.5 63t66.5 22q25 0 42.5 -8.5t31 -20.5t27 -20.5t29.5 -8.5t25.5 10.5t20.5 33.5zM176 820
l-27 50l159 93l43 -81z" />
    <glyph glyph-name="uni1E4D" unicode="&#x1e4d;" 
d="M250 -10q-63 0 -112 30.5t-78 85t-29 125.5q0 70 29 124.5t78 86t112 31.5q62 0 111.5 -31.5t78.5 -86t29 -124.5t-29 -124.5t-78.5 -85.5t-111.5 -31zM250 71q34 0 60.5 20.5t41.5 56.5t15 84q0 49 -15 85t-41.5 56t-60.5 20t-60.5 -20t-41.5 -56t-15 -85q0 -48 15 -84
t41.5 -56.5t60.5 -20.5zM365 671l56 -30q-21 -42 -43.5 -60t-53.5 -18q-27 0 -45.5 8.5t-32 20.5t-26 21t-28.5 9t-29.5 -12t-24.5 -36l-57 26q15 41 41.5 63t66.5 22q25 0 42.5 -8.5t31 -20.5t27 -20.5t29.5 -8.5t25.5 10.5t20.5 33.5zM237 685l-47 31l83 160l72 -51z" />
    <glyph glyph-name="uni1E4E" unicode="&#x1e4e;" 
d="M251 -11q-74 0 -125.5 37t-77.5 109t-26 175q0 101 26 172.5t77.5 109.5t125.5 38q75 0 126 -38t77.5 -109.5t26.5 -172.5q0 -103 -26.5 -175t-77.5 -109t-126 -37zM251 70q41 0 70 27t45 80.5t16 133.5q0 75 -16 128t-45 81.5t-70 28.5t-70.5 -28.5t-44.5 -81.5
t-15 -128q0 -80 15 -133.5t44.5 -80.5t70.5 -27zM368 791l56 -30q-21 -42 -43.5 -60t-53.5 -18q-27 0 -45.5 8.5t-32 20.5t-26 21t-28.5 9t-29.5 -12t-24.5 -36l-57 26q15 41 41.5 63t66.5 22q25 0 42.5 -8.5t31 -20.5t27 -20.5t29.5 -8.5t25.5 10.5t20.5 33.5zM158 849
q-25 0 -43 17.5t-18 41.5t18 42t43 18q27 0 44.5 -18.5t17.5 -41.5q0 -24 -18.5 -41.5t-43.5 -17.5zM340 849q-25 0 -43 17t-18 42t18 42.5t43 17.5q27 0 44 -18.5t17 -41.5q0 -24 -18 -41.5t-43 -17.5z" />
    <glyph glyph-name="uni1E4F" unicode="&#x1e4f;" 
d="M250 -10q-63 0 -112 30.5t-78 85t-29 125.5q0 70 29 124.5t78 86t112 31.5q62 0 111.5 -31.5t78.5 -86t29 -124.5t-29 -124.5t-78.5 -85.5t-111.5 -31zM250 71q34 0 60.5 20.5t41.5 56.5t15 84q0 49 -15 85t-41.5 56t-60.5 20t-60.5 -20t-41.5 -56t-15 -85q0 -48 15 -84
t41.5 -56.5t60.5 -20.5zM365 671l56 -30q-21 -42 -43.5 -60t-53.5 -18q-27 0 -45.5 8.5t-32 20.5t-26 21t-28.5 9t-29.5 -12t-24.5 -36l-57 26q15 41 41.5 63t66.5 22q25 0 42.5 -8.5t31 -20.5t27 -20.5t29.5 -8.5t25.5 10.5t20.5 33.5zM161 734q-26 0 -44 17.5t-18 41.5
t18 42t44 18t43.5 -18.5t17.5 -41.5q0 -24 -18.5 -41.5t-42.5 -17.5zM343 734q-26 0 -44 17t-18 42t18 42.5t44 17.5t43 -18.5t17 -41.5q0 -24 -18 -41.5t-42 -17.5z" />
    <glyph glyph-name="uni1E50" unicode="&#x1e50;" 
d="M251 -11q-74 0 -125.5 37t-77.5 109t-26 175q0 101 26 172.5t77.5 109.5t125.5 38q75 0 126 -38t77.5 -109.5t26.5 -172.5q0 -103 -26.5 -175t-77.5 -109t-126 -37zM251 70q41 0 70 27t45 80.5t16 133.5q0 75 -16 128t-45 81.5t-70 28.5t-70.5 -28.5t-44.5 -81.5
t-15 -128q0 -80 15 -133.5t44.5 -80.5t70.5 -27zM115 728v69h271v-69h-271zM307 809l-177 62l45 81l158 -93z" />
    <glyph glyph-name="uni1E51" unicode="&#x1e51;" 
d="M250 -10q-63 0 -112 30.5t-78 85t-29 125.5q0 70 29 124.5t78 86t112 31.5q62 0 111.5 -31.5t78.5 -86t29 -124.5t-29 -124.5t-78.5 -85.5t-111.5 -31zM250 71q34 0 60.5 20.5t41.5 56.5t15 84q0 49 -15 85t-41.5 56t-60.5 20t-60.5 -20t-41.5 -56t-15 -85q0 -48 15 -84
t41.5 -56.5t60.5 -20.5zM114 564v69h271v-69h-271zM244 656l-108 140l72 51l83 -160z" />
    <glyph glyph-name="uni1E52" unicode="&#x1e52;" 
d="M251 -11q-74 0 -125.5 37t-77.5 109t-26 175q0 101 26 172.5t77.5 109.5t125.5 38q75 0 126 -38t77.5 -109.5t26.5 -172.5q0 -103 -26.5 -175t-77.5 -109t-126 -37zM251 70q41 0 70 27t45 80.5t16 133.5q0 75 -16 128t-45 81.5t-70 28.5t-70.5 -28.5t-44.5 -81.5
t-15 -128q0 -80 15 -133.5t44.5 -80.5t70.5 -27zM115 728v69h271v-69h-271zM176 809l-27 50l159 93l43 -81z" />
    <glyph glyph-name="uni1E53" unicode="&#x1e53;" 
d="M250 -10q-63 0 -112 30.5t-78 85t-29 125.5q0 70 29 124.5t78 86t112 31.5q62 0 111.5 -31.5t78.5 -86t29 -124.5t-29 -124.5t-78.5 -85.5t-111.5 -31zM250 71q34 0 60.5 20.5t41.5 56.5t15 84q0 49 -15 85t-41.5 56t-60.5 20t-60.5 -20t-41.5 -56t-15 -85q0 -48 15 -84
t41.5 -56.5t60.5 -20.5zM114 564v69h271v-69h-271zM237 656l-47 31l83 160l72 -51z" />
    <glyph glyph-name="uni1E5A" unicode="&#x1e5a;" 
d="M48 0v623h194q75 0 122.5 -22.5t70 -63t22.5 -95.5q0 -35 -14.5 -69.5t-42 -61t-64.5 -38.5l138 -273h-105l-131 264h-89v-264h-101zM149 347h100q54 0 80.5 25.5t26.5 67.5q0 26 -11.5 48t-35 35t-60.5 13h-100v-189zM247 -162q-27 0 -45.5 18.5t-18.5 43.5q0 27 18 45
t46 18q26 0 45.5 -19t19.5 -44t-19.5 -43.5t-45.5 -18.5z" />
    <glyph glyph-name="uni1E5B" unicode="&#x1e5b;" 
d="M99 463h103l-2 -132l-12 11q5 30 19 54.5t34.5 41.5t45.5 26.5t52 9.5q38 0 69 -13t56 -39l-42 -82l-4 -9l-8 4l-6 16t-15 19q-15 10 -29.5 15t-33.5 5q-24 0 -46.5 -8.5t-40.5 -26.5t-28.5 -45.5t-10.5 -66.5v-244h-101v464zM279 -162q-27 0 -45.5 18.5t-18.5 43.5
q0 27 18 45t46 18q26 0 45.5 -19t19.5 -44t-19.5 -43.5t-45.5 -18.5z" />
    <glyph glyph-name="uni1E5E" unicode="&#x1e5e;" 
d="M48 0v623h194q75 0 122.5 -22.5t70 -63t22.5 -95.5q0 -35 -14.5 -69.5t-42 -61t-64.5 -38.5l138 -273h-105l-131 264h-89v-264h-101zM149 347h100q54 0 80.5 25.5t26.5 67.5q0 26 -11.5 48t-35 35t-60.5 13h-100v-189zM115 -156v69h271v-69h-271z" />
    <glyph glyph-name="uni1E5F" unicode="&#x1e5f;" 
d="M99 463h103l-2 -132l-12 11q5 30 19 54.5t34.5 41.5t45.5 26.5t52 9.5q38 0 69 -13t56 -39l-42 -82l-4 -9l-8 4l-6 16t-15 19q-15 10 -29.5 15t-33.5 5q-24 0 -46.5 -8.5t-40.5 -26.5t-28.5 -45.5t-10.5 -66.5v-244h-101v464zM147 -156v69h271v-69h-271z" />
    <glyph glyph-name="uni1E60" unicode="&#x1e60;" 
d="M244 -11q-62 0 -114.5 19t-89.5 57l49 83l5 9l8 -5q2 -7 5 -15t15 -20q25 -19 57 -31.5t70 -12.5q26 0 46.5 6.5t36 18t23.5 28t8 36.5q0 14 -3 26.5t-11 23t-22.5 21.5t-37.5 23.5t-55 26.5q-65 28 -102.5 56.5t-53.5 62t-16 73.5q0 46 25 81.5t69.5 56t101.5 20.5
q38 0 71 -9.5t62 -27t52 -43.5l-58 -68l-6 -8l-7 6q-1 8 -3.5 16t-13.5 20q-21 19 -44.5 26t-55.5 7q-21 0 -38.5 -5.5t-30 -16t-19 -23.5t-6.5 -28q0 -14 3 -25t11.5 -22t24 -22.5t39.5 -24t59 -27.5q47 -21 78.5 -41t50 -41.5t26.5 -47t8 -57.5q0 -45 -22.5 -86.5
t-70.5 -68.5t-124 -27v0zM257 686q-27 0 -45.5 18.5t-18.5 43.5q0 27 18 45t46 18q26 0 45.5 -19t19.5 -44t-19.5 -43.5t-45.5 -18.5z" />
    <glyph glyph-name="uni1E61" unicode="&#x1e61;" 
d="M257 -11q-42 0 -79 8t-69.5 24t-59.5 41l46 84l6 9l7 -4q2 -8 5 -16.5t14 -20.5q24 -21 55 -33.5t76 -12.5q31 0 52.5 7.5t33.5 21t12 30.5q0 13 -6.5 22.5t-19.5 18t-34 17t-51 16.5q-51 15 -89 34.5t-59 46.5t-21 64t21.5 65.5t61.5 45.5t95 17q30 0 56.5 -4.5
t49 -13.5t42.5 -22.5t38 -31.5l-51 -68l-6 -8l-7 6q-1 8 -4.5 15t-14.5 18q-22 16 -48 24t-53 8q-35 0 -61.5 -12t-26.5 -36q0 -14 11.5 -26t37.5 -23.5t71 -23.5q57 -15 92 -34.5t51.5 -45.5t16.5 -61q0 -39 -21.5 -72.5t-64.5 -53.5t-105 -20v0zM254 546q-27 0 -45.5 18.5
t-18.5 43.5q0 27 18 45t46 18q26 0 45.5 -19t19.5 -44t-19.5 -43.5t-45.5 -18.5z" />
    <glyph glyph-name="uni1E62" unicode="&#x1e62;" 
d="M244 -11q-62 0 -114.5 19t-89.5 57l49 83l5 9l8 -5q2 -7 5 -15t15 -20q25 -19 57 -31.5t70 -12.5q26 0 46.5 6.5t36 18t23.5 28t8 36.5q0 14 -3 26.5t-11 23t-22.5 21.5t-37.5 23.5t-55 26.5q-65 28 -102.5 56.5t-53.5 62t-16 73.5q0 46 25 81.5t69.5 56t101.5 20.5
q38 0 71 -9.5t62 -27t52 -43.5l-58 -68l-6 -8l-7 6q-1 8 -3.5 16t-13.5 20q-21 19 -44.5 26t-55.5 7q-21 0 -38.5 -5.5t-30 -16t-19 -23.5t-6.5 -28q0 -14 3 -25t11.5 -22t24 -22.5t39.5 -24t59 -27.5q47 -21 78.5 -41t50 -41.5t26.5 -47t8 -57.5q0 -45 -22.5 -86.5
t-70.5 -68.5t-124 -27v0zM249 -162q-27 0 -45.5 18.5t-18.5 43.5q0 27 18 45t46 18q26 0 45.5 -19t19.5 -44t-19.5 -43.5t-45.5 -18.5z" />
    <glyph glyph-name="uni1E63" unicode="&#x1e63;" 
d="M257 -11q-42 0 -79 8t-69.5 24t-59.5 41l46 84l6 9l7 -4q2 -8 5 -16.5t14 -20.5q24 -21 55 -33.5t76 -12.5q31 0 52.5 7.5t33.5 21t12 30.5q0 13 -6.5 22.5t-19.5 18t-34 17t-51 16.5q-51 15 -89 34.5t-59 46.5t-21 64t21.5 65.5t61.5 45.5t95 17q30 0 56.5 -4.5
t49 -13.5t42.5 -22.5t38 -31.5l-51 -68l-6 -8l-7 6q-1 8 -4.5 15t-14.5 18q-22 16 -48 24t-53 8q-35 0 -61.5 -12t-26.5 -36q0 -14 11.5 -26t37.5 -23.5t71 -23.5q57 -15 92 -34.5t51.5 -45.5t16.5 -61q0 -39 -21.5 -72.5t-64.5 -53.5t-105 -20v0zM240 -162
q-27 0 -45.5 18.5t-18.5 43.5q0 27 18 45t46 18q26 0 45.5 -19t19.5 -44t-19.5 -43.5t-45.5 -18.5z" />
    <glyph glyph-name="uni1E64" unicode="&#x1e64;" 
d="M244 -11q-62 0 -114.5 19t-89.5 57l49 83l5 9l8 -5q2 -7 5 -15t15 -20q25 -19 57 -31.5t70 -12.5q26 0 46.5 6.5t36 18t23.5 28t8 36.5q0 14 -3 26.5t-11 23t-22.5 21.5t-37.5 23.5t-55 26.5q-65 28 -102.5 56.5t-53.5 62t-16 73.5q0 46 25 81.5t69.5 56t101.5 20.5
q38 0 71 -9.5t62 -27t52 -43.5l-58 -68l-6 -8l-7 6q-1 8 -3.5 16t-13.5 20q-21 19 -44.5 26t-55.5 7q-21 0 -38.5 -5.5t-30 -16t-19 -23.5t-6.5 -28q0 -14 3 -25t11.5 -22t24 -22.5t39.5 -24t59 -27.5q47 -21 78.5 -41t50 -41.5t26.5 -47t8 -57.5q0 -45 -22.5 -86.5
t-70.5 -68.5t-124 -27v0zM182 656l-27 50l159 93l43 -81zM257 810q-27 0 -45.5 18.5t-18.5 43.5q0 27 18 45t46 18q26 0 45.5 -19t19.5 -44t-19.5 -43.5t-45.5 -18.5z" />
    <glyph glyph-name="uni1E65" unicode="&#x1e65;" 
d="M257 -11q-42 0 -79 8t-69.5 24t-59.5 41l46 84l6 9l7 -4q2 -8 5 -16.5t14 -20.5q24 -21 55 -33.5t76 -12.5q31 0 52.5 7.5t33.5 21t12 30.5q0 13 -6.5 22.5t-19.5 18t-34 17t-51 16.5q-51 15 -89 34.5t-59 46.5t-21 64t21.5 65.5t61.5 45.5t95 17q30 0 56.5 -4.5
t49 -13.5t42.5 -22.5t38 -31.5l-51 -68l-6 -8l-7 6q-1 8 -4.5 15t-14.5 18q-22 16 -48 24t-53 8q-35 0 -61.5 -12t-26.5 -36q0 -14 11.5 -26t37.5 -23.5t71 -23.5q57 -15 92 -34.5t51.5 -45.5t16.5 -61q0 -39 -21.5 -72.5t-64.5 -53.5t-105 -20v0zM255 505l-47 31l83 160
l72 -51zM279 712q-27 0 -45.5 18.5t-18.5 43.5q0 27 18 45t46 18q26 0 45.5 -19t19.5 -44t-19.5 -43.5t-45.5 -18.5z" />
    <glyph glyph-name="uni1E66" unicode="&#x1e66;" 
d="M244 -11q-62 0 -114.5 19t-89.5 57l49 83l5 9l8 -5q2 -7 5 -15t15 -20q25 -19 57 -31.5t70 -12.5q26 0 46.5 6.5t36 18t23.5 28t8 36.5q0 14 -3 26.5t-11 23t-22.5 21.5t-37.5 23.5t-55 26.5q-65 28 -102.5 56.5t-53.5 62t-16 73.5q0 46 25 81.5t69.5 56t101.5 20.5
q38 0 71 -9.5t62 -27t52 -43.5l-58 -68l-6 -8l-7 6q-1 8 -3.5 16t-13.5 20q-21 19 -44.5 26t-55.5 7q-21 0 -38.5 -5.5t-30 -16t-19 -23.5t-6.5 -28q0 -14 3 -25t11.5 -22t24 -22.5t39.5 -24t59 -27.5q47 -21 78.5 -41t50 -41.5t26.5 -47t8 -57.5q0 -45 -22.5 -86.5
t-70.5 -68.5t-124 -27v0zM390 806l35 -49l-155 -97h-28l-155 96l35 50l133 -68zM257 836q-27 0 -45.5 18.5t-18.5 43.5q0 27 18 45t46 18q26 0 45.5 -19t19.5 -44t-19.5 -43.5t-45.5 -18.5z" />
    <glyph glyph-name="uni1E67" unicode="&#x1e67;" 
d="M257 -11q-42 0 -79 8t-69.5 24t-59.5 41l46 84l6 9l7 -4q2 -8 5 -16.5t14 -20.5q24 -21 55 -33.5t76 -12.5q31 0 52.5 7.5t33.5 21t12 30.5q0 13 -6.5 22.5t-19.5 18t-34 17t-51 16.5q-51 15 -89 34.5t-59 46.5t-21 64t21.5 65.5t61.5 45.5t95 17q30 0 56.5 -4.5
t49 -13.5t42.5 -22.5t38 -31.5l-51 -68l-6 -8l-7 6q-1 8 -4.5 15t-14.5 18q-22 16 -48 24t-53 8q-35 0 -61.5 -12t-26.5 -36q0 -14 11.5 -26t37.5 -23.5t71 -23.5q57 -15 92 -34.5t51.5 -45.5t16.5 -61q0 -39 -21.5 -72.5t-64.5 -53.5t-105 -20v0zM142 698l111 -105l111 105
l49 -43l-144 -139h-32l-144 139zM255 688q-27 0 -45.5 18.5t-18.5 43.5q0 27 18 45t46 18q26 0 45.5 -19t19.5 -44t-19.5 -43.5t-45.5 -18.5z" />
    <glyph glyph-name="uni1E68" unicode="&#x1e68;" 
d="M244 -11q-62 0 -114.5 19t-89.5 57l49 83l5 9l8 -5q2 -7 5 -15t15 -20q25 -19 57 -31.5t70 -12.5q26 0 46.5 6.5t36 18t23.5 28t8 36.5q0 14 -3 26.5t-11 23t-22.5 21.5t-37.5 23.5t-55 26.5q-65 28 -102.5 56.5t-53.5 62t-16 73.5q0 46 25 81.5t69.5 56t101.5 20.5
q38 0 71 -9.5t62 -27t52 -43.5l-58 -68l-6 -8l-7 6q-1 8 -3.5 16t-13.5 20q-21 19 -44.5 26t-55.5 7q-21 0 -38.5 -5.5t-30 -16t-19 -23.5t-6.5 -28q0 -14 3 -25t11.5 -22t24 -22.5t39.5 -24t59 -27.5q47 -21 78.5 -41t50 -41.5t26.5 -47t8 -57.5q0 -45 -22.5 -86.5
t-70.5 -68.5t-124 -27v0zM249 -162q-27 0 -45.5 18.5t-18.5 43.5q0 27 18 45t46 18q26 0 45.5 -19t19.5 -44t-19.5 -43.5t-45.5 -18.5zM257 686q-27 0 -45.5 18.5t-18.5 43.5q0 27 18 45t46 18q26 0 45.5 -19t19.5 -44t-19.5 -43.5t-45.5 -18.5z" />
    <glyph glyph-name="uni1E69" unicode="&#x1e69;" 
d="M257 -11q-42 0 -79 8t-69.5 24t-59.5 41l46 84l6 9l7 -4q2 -8 5 -16.5t14 -20.5q24 -21 55 -33.5t76 -12.5q31 0 52.5 7.5t33.5 21t12 30.5q0 13 -6.5 22.5t-19.5 18t-34 17t-51 16.5q-51 15 -89 34.5t-59 46.5t-21 64t21.5 65.5t61.5 45.5t95 17q30 0 56.5 -4.5
t49 -13.5t42.5 -22.5t38 -31.5l-51 -68l-6 -8l-7 6q-1 8 -4.5 15t-14.5 18q-22 16 -48 24t-53 8q-35 0 -61.5 -12t-26.5 -36q0 -14 11.5 -26t37.5 -23.5t71 -23.5q57 -15 92 -34.5t51.5 -45.5t16.5 -61q0 -39 -21.5 -72.5t-64.5 -53.5t-105 -20v0zM240 -162
q-27 0 -45.5 18.5t-18.5 43.5q0 27 18 45t46 18q26 0 45.5 -19t19.5 -44t-19.5 -43.5t-45.5 -18.5zM254 546q-27 0 -45.5 18.5t-18.5 43.5q0 27 18 45t46 18q26 0 45.5 -19t19.5 -44t-19.5 -43.5t-45.5 -18.5z" />
    <glyph glyph-name="uni1E6C" unicode="&#x1e6c;" 
d="M196 0v539h-170v85h445v-85h-178v-539h-97zM247 -162q-27 0 -45.5 18.5t-18.5 43.5q0 27 18 45t46 18q26 0 45.5 -19t19.5 -44t-19.5 -43.5t-45.5 -18.5z" />
    <glyph glyph-name="uni1E6D" unicode="&#x1e6d;" 
d="M299 -9q-41 0 -70.5 13.5t-47 43.5t-24.5 78t-5 117l13 332l102 13l10 1l1 -9q-5 -7 -8.5 -14t-5.5 -24l-10 -129l4 -11l-7 -159q-3 -68 4 -105.5t24 -52t41 -14.5q32 0 57.5 13t50.5 32l22 -74q-34 -25 -71 -38t-80 -13v0zM62 463h349l-1 -80h-348v80zM263 -162
q-27 0 -45.5 18.5t-18.5 43.5q0 27 18 45t46 18q26 0 45.5 -19t19.5 -44t-19.5 -43.5t-45.5 -18.5z" />
    <glyph glyph-name="uni1E6E" unicode="&#x1e6e;" 
d="M196 0v539h-170v85h445v-85h-178v-539h-97zM115 -156v69h271v-69h-271z" />
    <glyph glyph-name="uni1E6F" unicode="&#x1e6f;" 
d="M299 -9q-41 0 -70.5 13.5t-47 43.5t-24.5 78t-5 117l13 332l102 13l10 1l1 -9q-5 -7 -8.5 -14t-5.5 -24l-10 -129l4 -11l-7 -159q-3 -68 4 -105.5t24 -52t41 -14.5q32 0 57.5 13t50.5 32l22 -74q-34 -25 -71 -38t-80 -13v0zM62 463h349l-1 -80h-348v80zM131 -156v69h271
v-69h-271z" />
    <glyph glyph-name="uni1E78" unicode="&#x1e78;" 
d="M250 -12q-101 0 -155 60.5t-54 168.5v406h97h10v-9q-6 -6 -7.5 -13t-1.5 -24v-361q0 -68 24.5 -108t87.5 -40q64 0 89 40t25 111v404h97v-403q0 -80 -27 -131t-74.5 -76t-110.5 -25v0zM367 789l56 -30q-21 -42 -43.5 -60t-53.5 -18q-27 0 -45.5 8.5t-32 20.5t-26 21
t-28.5 9t-29.5 -12t-24.5 -36l-57 26q15 41 41.5 63t66.5 22q25 0 42.5 -8.5t31 -20.5t27 -20.5t29.5 -8.5t25.5 10.5t20.5 33.5zM176 818l-27 50l159 93l43 -81z" />
    <glyph glyph-name="uni1E79" unicode="&#x1e79;" 
d="M215 -11q-28 0 -52.5 7.5t-44.5 23.5t-34.5 40t-22 58t-7.5 77l1 268h98v-268q0 -35 6.5 -59.5t18 -39.5t26.5 -21.5t32 -6.5q22 0 41 8t33.5 24.5t22 42t7.5 59.5v261h100v-390q0 -20 1.5 -37.5t8.5 -35.5h-93q-5 11 -7 21.5t-2.5 21t-0.5 21.5q-10 -19 -24.5 -33
t-32 -23.5t-36 -14t-39.5 -4.5zM364 671l56 -30q-21 -42 -43.5 -60t-53.5 -18q-27 0 -45.5 8.5t-32 20.5t-26 21t-28.5 9t-29.5 -12t-24.5 -36l-57 26q15 41 41.5 63t66.5 22q25 0 42.5 -8.5t31 -20.5t27 -20.5t29.5 -8.5t25.5 10.5t20.5 33.5zM237 685l-47 31l83 160
l72 -51z" />
    <glyph glyph-name="uni1E7A" unicode="&#x1e7a;" 
d="M250 -12q-101 0 -155 60.5t-54 168.5v406h97h10v-9q-6 -6 -7.5 -13t-1.5 -24v-361q0 -68 24.5 -108t87.5 -40q64 0 89 40t25 111v404h97v-403q0 -80 -27 -131t-74.5 -76t-110.5 -25v0zM114 726v69h271v-69h-271zM157 836q-25 0 -43 17.5t-18 41.5t18 42t43 18
q27 0 44.5 -18.5t17.5 -41.5q0 -24 -18.5 -41.5t-43.5 -17.5zM339 836q-25 0 -43 17t-18 42t18 42.5t43 17.5q27 0 44 -18.5t17 -41.5q0 -24 -18 -41.5t-43 -17.5z" />
    <glyph glyph-name="uni1E7B" unicode="&#x1e7b;" 
d="M215 -11q-28 0 -52.5 7.5t-44.5 23.5t-34.5 40t-22 58t-7.5 77l1 268h98v-268q0 -35 6.5 -59.5t18 -39.5t26.5 -21.5t32 -6.5q22 0 41 8t33.5 24.5t22 42t7.5 59.5v261h100v-390q0 -20 1.5 -37.5t8.5 -35.5h-93q-5 11 -7 21.5t-2.5 21t-0.5 21.5q-10 -19 -24.5 -33
t-32 -23.5t-36 -14t-39.5 -4.5zM114 564v69h271v-69h-271zM160 705q-26 0 -44 17.5t-18 41.5t18 42t44 18t43.5 -18.5t17.5 -41.5q0 -24 -18.5 -41.5t-42.5 -17.5zM342 705q-26 0 -44 17t-18 42t18 42.5t44 17.5t43 -18.5t17 -41.5q0 -24 -18 -41.5t-42 -17.5z" />
    <glyph glyph-name="Wgrave" unicode="&#x1e80;" 
d="M101 0l-88 623h86l51 -401l87 353h46l88 -353l40 401h81l-86 -623h-56l-95 392l-96 -392h-58zM314 656l-177 62l45 81l158 -93z" />
    <glyph glyph-name="wgrave" unicode="&#x1e81;" 
d="M99 -1l-87 464h85l60 -335l71 286h54l84 -284q10 74 17 123.5t10 83t4 57t1 46.5v23h87q-7 -75 -18 -154t-25 -157.5t-29 -152.5h-88l-71 267l-67 -267h-88zM244 505l-108 140l72 51l83 -160z" />
    <glyph glyph-name="Wacute" unicode="&#x1e82;" 
d="M101 0l-88 623h86l51 -401l87 353h46l88 -353l40 401h81l-86 -623h-56l-95 392l-96 -392h-58zM184 656l-27 50l159 93l43 -81z" />
    <glyph glyph-name="wacute" unicode="&#x1e83;" 
d="M99 -1l-87 464h85l60 -335l71 286h54l84 -284q10 74 17 123.5t10 83t4 57t1 46.5v23h87q-7 -75 -18 -154t-25 -157.5t-29 -152.5h-88l-71 267l-67 -267h-88zM236 505l-47 31l83 160l72 -51z" />
    <glyph glyph-name="Wdieresis" unicode="&#x1e84;" 
d="M101 0l-88 623h86l51 -401l87 353h46l88 -353l40 401h81l-86 -623h-56l-95 392l-96 -392h-58zM165 685q-25 0 -43 17.5t-18 41.5t18 42t43 18q27 0 44.5 -18.5t17.5 -41.5q0 -24 -18.5 -41.5t-43.5 -17.5zM347 685q-25 0 -43 17t-18 42t18 42.5t43 17.5q27 0 44 -18.5
t17 -41.5q0 -24 -18 -41.5t-43 -17.5z" />
    <glyph glyph-name="wdieresis" unicode="&#x1e85;" 
d="M99 -1l-87 464h85l60 -335l71 286h54l84 -284q10 74 17 123.5t10 83t4 57t1 46.5v23h87q-7 -75 -18 -154t-25 -157.5t-29 -152.5h-88l-71 267l-67 -267h-88zM160 554q-26 0 -44 17.5t-18 41.5t18 42t44 18t43.5 -18.5t17.5 -41.5q0 -24 -18.5 -41.5t-42.5 -17.5zM342 554
q-26 0 -44 17t-18 42t18 42.5t44 17.5t43 -18.5t17 -41.5q0 -24 -18 -41.5t-42 -17.5z" />
    <glyph glyph-name="uni1E8E" unicode="&#x1e8e;" 
d="M208 0v246l-188 377h105l136 -274l122 274h100l-174 -377v-246h-101zM250 686q-27 0 -45.5 18.5t-18.5 43.5q0 27 18 45t46 18q26 0 45.5 -19t19.5 -44t-19.5 -43.5t-45.5 -18.5z" />
    <glyph glyph-name="uni1E8F" unicode="&#x1e8f;" 
d="M126 -175q-33 0 -59 10.5t-50 31.5l37 68l5 8l7 -4q3 -7 7.5 -13.5t18.5 -16.5q8 -3 17 -4.5t18 -1.5q23 0 39 11.5t28.5 35.5t25.5 62l96 280q15 44 26.5 85.5t14.5 85.5h94q-4 -46 -20.5 -95t-33.5 -95l-115 -317q-26 -73 -65 -102t-91 -29v0zM36 463h101l140 -364
l-50 -110zM255 546q-27 0 -45.5 18.5t-18.5 43.5q0 27 18 45t46 18q26 0 45.5 -19t19.5 -44t-19.5 -43.5t-45.5 -18.5z" />
    <glyph glyph-name="uni1E92" unicode="&#x1e92;" 
d="M42 65l298 473h-286v85h403v-65l-293 -474h263q17 0 24 1.5t13 7.5h8v-9v-84h-430v65zM266 -162q-27 0 -45.5 18.5t-18.5 43.5q0 27 18 45t46 18q26 0 45.5 -19t19.5 -44t-19.5 -43.5t-45.5 -18.5z" />
    <glyph glyph-name="uni1E93" unicode="&#x1e93;" 
d="M43 61l266 318h-246v84h371v-65l-261 -315h238q17 0 24 2t13 7h9v-9v-83h-414v61zM247 -162q-27 0 -45.5 18.5t-18.5 43.5q0 27 18 45t46 18q26 0 45.5 -19t19.5 -44t-19.5 -43.5t-45.5 -18.5z" />
    <glyph glyph-name="uni1E97" unicode="&#x1e97;" 
d="M299 -9q-41 0 -70.5 13.5t-47 43.5t-24.5 78t-5 117l13 332l102 13l10 1l1 -9q-5 -7 -8.5 -14t-5.5 -24l-10 -129l4 -11l-7 -159q-3 -68 4 -105.5t24 -52t41 -14.5q32 0 57.5 13t50.5 32l22 -74q-34 -25 -71 -38t-80 -13v0zM62 463h349l-1 -80h-348v80zM147 678
q-26 0 -44 17.5t-18 41.5t18 42t44 18t43.5 -18.5t17.5 -41.5q0 -24 -18.5 -41.5t-42.5 -17.5zM329 678q-26 0 -44 17t-18 42t18 42.5t44 17.5t43 -18.5t17 -41.5q0 -24 -18 -41.5t-42 -17.5z" />
    <glyph glyph-name="uni1E9E" unicode="&#x1e9e;" 
d="M289 -12q-32 0 -58.5 8t-47.5 23l32 75q9 -7 19.5 -12t21 -7.5t21.5 -2.5q20 0 37 8t30 23t20.5 36.5t7.5 48.5q0 29 -11.5 56.5t-40 45.5t-80.5 18h-30v78l120 112q0 27 -9 48t-27.5 33.5t-48.5 12.5q-19 0 -37 -7t-32.5 -22.5t-23 -39.5t-8.5 -56v-467h-98v452
q0 59 16 100.5t43.5 68t63 38.5t74.5 12q59 0 99 -25.5t60.5 -67.5t20.5 -92l-168 -152l-14 52q73 0 123 -25t76 -71t26 -109q0 -46 -13 -82t-36.5 -60.5t-56.5 -37.5t-71 -13z" />
    <glyph glyph-name="uni1EA0" unicode="&#x1ea0;" 
d="M363 158h-237l15 71h205zM250 437l-139 -437h-97l217 630h39l217 -630h-100zM247 -162q-27 0 -45.5 18.5t-18.5 43.5q0 27 18 45t46 18q26 0 45.5 -19t19.5 -44t-19.5 -43.5t-45.5 -18.5z" />
    <glyph glyph-name="uni1EA1" unicode="&#x1ea1;" 
d="M202 -11q-77 0 -119.5 35.5t-42.5 92.5q0 38 17.5 68.5t50 52.5t78.5 34.5t104 12.5q12 0 25.5 -0.5t29 -1.5t31.5 -2l3 -71q-14 2 -29.5 3t-30.5 1h-28q-39 0 -67.5 -5.5t-47 -16.5t-27.5 -27t-9 -37q0 -17 6 -29.5t16.5 -19.5t25 -10.5t31.5 -3.5q33 0 58 11t42.5 32.5
t26.5 54t9 76.5q0 61 -13.5 95t-39.5 47t-65 13q-32 0 -61.5 -10.5t-57.5 -38.5l-53 60q38 36 83.5 52t93.5 16q44 0 81.5 -10.5t66 -34.5t44 -65t15.5 -104v-259h-104v57q-13 -20 -29 -33.5t-34.5 -21t-38.5 -10.5t-41 -3zM247 -162q-27 0 -45.5 18.5t-18.5 43.5
q0 27 18 45t46 18q26 0 45.5 -19t19.5 -44t-19.5 -43.5t-45.5 -18.5z" />
    <glyph glyph-name="uni1EA2" unicode="&#x1ea2;" 
d="M363 158h-237l15 71h205zM250 437l-139 -437h-97l217 630h39l217 -630h-100zM354 798q0 -21 -10 -34.5t-22.5 -24t-22 -22t-9.5 -27.5v-8h-64v28q0 14 9 25.5t21 21.5t21 19t9 19q0 14 -9.5 21.5t-23.5 7.5q-16 0 -29.5 -7.5t-21.5 -28.5l-40 49q19 24 44 34.5t53 9.5
q27 0 48.5 -10.5t34 -29t12.5 -43.5z" />
    <glyph glyph-name="uni1EA3" unicode="&#x1ea3;" 
d="M202 -11q-77 0 -119.5 35.5t-42.5 92.5q0 38 17.5 68.5t50 52.5t78.5 34.5t104 12.5q12 0 25.5 -0.5t29 -1.5t31.5 -2l3 -71q-14 2 -29.5 3t-30.5 1h-28q-39 0 -67.5 -5.5t-47 -16.5t-27.5 -27t-9 -37q0 -17 6 -29.5t16.5 -19.5t25 -10.5t31.5 -3.5q33 0 58 11t42.5 32.5
t26.5 54t9 76.5q0 61 -13.5 95t-39.5 47t-65 13q-32 0 -61.5 -10.5t-57.5 -38.5l-53 60q38 36 83.5 52t93.5 16q44 0 81.5 -10.5t66 -34.5t44 -65t15.5 -104v-259h-104v57q-13 -20 -29 -33.5t-34.5 -21t-38.5 -10.5t-41 -3zM350 636q0 -21 -10 -34.5t-22.5 -24t-22 -22
t-9.5 -27.5v-8h-64v28q0 14 9 25.5t21 21.5t21 19t9 19q0 14 -9.5 21.5t-23.5 7.5q-16 0 -29.5 -7.5t-21.5 -28.5l-40 49q19 24 44 34.5t53 9.5q27 0 48.5 -10.5t34 -29t12.5 -43.5z" />
    <glyph glyph-name="uni1EA4" unicode="&#x1ea4;" 
d="M363 158h-237l15 71h205zM250 437l-139 -437h-97l217 630h39l217 -630h-100zM114 651l-35 49l155 97h28l155 -96l-35 -50l-133 68zM373 768l-27 50l159 93l43 -81z" />
    <glyph glyph-name="uni1EA5" unicode="&#x1ea5;" 
d="M202 -11q-77 0 -119.5 35.5t-42.5 92.5q0 38 17.5 68.5t50 52.5t78.5 34.5t104 12.5q12 0 25.5 -0.5t29 -1.5t31.5 -2l3 -71q-14 2 -29.5 3t-30.5 1h-28q-39 0 -67.5 -5.5t-47 -16.5t-27.5 -27t-9 -37q0 -17 6 -29.5t16.5 -19.5t25 -10.5t31.5 -3.5q33 0 58 11t42.5 32.5
t26.5 54t9 76.5q0 61 -13.5 95t-39.5 47t-65 13q-32 0 -61.5 -10.5t-57.5 -38.5l-53 60q38 36 83.5 52t93.5 16q44 0 81.5 -10.5t66 -34.5t44 -65t15.5 -104v-259h-104v57q-13 -20 -29 -33.5t-34.5 -21t-38.5 -10.5t-41 -3zM134 504l-49 44l144 139h32l144 -139l-49 -44
l-111 105zM386 630l-47 31l83 160l72 -51z" />
    <glyph glyph-name="uni1EA6" unicode="&#x1ea6;" 
d="M363 158h-237l15 71h205zM250 437l-139 -437h-97l217 630h39l217 -630h-100zM116 651l-35 49l155 97h28l155 -96l-35 -50l-133 68zM332 804l-177 62l45 81l158 -93z" />
    <glyph glyph-name="uni1EA7" unicode="&#x1ea7;" 
d="M202 -11q-77 0 -119.5 35.5t-42.5 92.5q0 38 17.5 68.5t50 52.5t78.5 34.5t104 12.5q12 0 25.5 -0.5t29 -1.5t31.5 -2l3 -71q-14 2 -29.5 3t-30.5 1h-28q-39 0 -67.5 -5.5t-47 -16.5t-27.5 -27t-9 -37q0 -17 6 -29.5t16.5 -19.5t25 -10.5t31.5 -3.5q33 0 58 11t42.5 32.5
t26.5 54t9 76.5q0 61 -13.5 95t-39.5 47t-65 13q-32 0 -61.5 -10.5t-57.5 -38.5l-53 60q38 36 83.5 52t93.5 16q44 0 81.5 -10.5t66 -34.5t44 -65t15.5 -104v-259h-104v57q-13 -20 -29 -33.5t-34.5 -21t-38.5 -10.5t-41 -3zM135 504l-49 44l144 139h32l144 -139l-49 -44
l-111 105zM372 653l-108 140l72 51l83 -160z" />
    <glyph glyph-name="uni1EA8" unicode="&#x1ea8;" 
d="M363 158h-237l15 71h205zM250 437l-139 -437h-97l217 630h39l217 -630h-100zM112 651l-35 49l155 97h28l155 -96l-35 -50l-133 68zM480 867q0 -21 -10 -34.5t-22.5 -24t-22 -22t-9.5 -27.5v-8h-64v28q0 14 9 25.5t21 21.5t21 19t9 19q0 14 -9.5 21.5t-23.5 7.5
q-16 0 -29.5 -7.5t-21.5 -28.5l-40 49q19 24 44 34.5t53 9.5q27 0 48.5 -10.5t34 -29t12.5 -43.5z" />
    <glyph glyph-name="uni1EA9" unicode="&#x1ea9;" 
d="M202 -11q-77 0 -119.5 35.5t-42.5 92.5q0 38 17.5 68.5t50 52.5t78.5 34.5t104 12.5q12 0 25.5 -0.5t29 -1.5t31.5 -2l3 -71q-14 2 -29.5 3t-30.5 1h-28q-39 0 -67.5 -5.5t-47 -16.5t-27.5 -27t-9 -37q0 -17 6 -29.5t16.5 -19.5t25 -10.5t31.5 -3.5q33 0 58 11t42.5 32.5
t26.5 54t9 76.5q0 61 -13.5 95t-39.5 47t-65 13q-32 0 -61.5 -10.5t-57.5 -38.5l-53 60q38 36 83.5 52t93.5 16q44 0 81.5 -10.5t66 -34.5t44 -65t15.5 -104v-259h-104v57q-13 -20 -29 -33.5t-34.5 -21t-38.5 -10.5t-41 -3zM135 504l-49 44l144 139h32l144 -139l-49 -44
l-111 105zM477 742q0 -21 -10 -34.5t-22.5 -24t-22 -22t-9.5 -27.5v-8h-64v28q0 14 9 25.5t21 21.5t21 19t9 19q0 14 -9.5 21.5t-23.5 7.5q-16 0 -29.5 -7.5t-21.5 -28.5l-40 49q19 24 44 34.5t53 9.5q27 0 48.5 -10.5t34 -29t12.5 -43.5z" />
    <glyph glyph-name="uni1EAA" unicode="&#x1eaa;" 
d="M363 158h-237l15 71h205zM250 437l-139 -437h-97l217 630h39l217 -630h-100zM115 651l-35 49l155 97h28l155 -96l-35 -50l-133 68zM335 929l53 -26q-18 -40 -40 -58t-48 -18q-19 0 -34.5 8t-28 19t-24 19t-22.5 8q-13 0 -24 -10.5t-19 -30.5l-53 26q12 35 37.5 55.5
t50.5 20.5q19 0 35.5 -8t30.5 -18.5t26 -18.5t22 -8q11 0 20 9t18 31z" />
    <glyph glyph-name="uni1EAB" unicode="&#x1eab;" 
d="M202 -11q-77 0 -119.5 35.5t-42.5 92.5q0 38 17.5 68.5t50 52.5t78.5 34.5t104 12.5q12 0 25.5 -0.5t29 -1.5t31.5 -2l3 -71q-14 2 -29.5 3t-30.5 1h-28q-39 0 -67.5 -5.5t-47 -16.5t-27.5 -27t-9 -37q0 -17 6 -29.5t16.5 -19.5t25 -10.5t31.5 -3.5q33 0 58 11t42.5 32.5
t26.5 54t9 76.5q0 61 -13.5 95t-39.5 47t-65 13q-32 0 -61.5 -10.5t-57.5 -38.5l-53 60q38 36 83.5 52t93.5 16q44 0 81.5 -10.5t66 -34.5t44 -65t15.5 -104v-259h-104v57q-13 -20 -29 -33.5t-34.5 -21t-38.5 -10.5t-41 -3zM135 504l-49 44l144 139h32l144 -139l-49 -44
l-111 105zM331 821l53 -26q-18 -40 -40 -58t-48 -18q-19 0 -34.5 8t-28 19t-24 19t-22.5 8q-13 0 -24 -10.5t-19 -30.5l-53 26q12 35 37.5 55.5t50.5 20.5q19 0 35.5 -8t30.5 -18.5t26 -18.5t22 -8q11 0 20 9t18 31z" />
    <glyph glyph-name="uni1EAC" unicode="&#x1eac;" 
d="M363 158h-237l15 71h205zM250 437l-139 -437h-97l217 630h39l217 -630h-100zM247 -162q-27 0 -45.5 18.5t-18.5 43.5q0 27 18 45t46 18q26 0 45.5 -19t19.5 -44t-19.5 -43.5t-45.5 -18.5zM116 651l-35 49l155 97h28l155 -96l-35 -50l-133 68z" />
    <glyph glyph-name="uni1EAD" unicode="&#x1ead;" 
d="M202 -11q-77 0 -119.5 35.5t-42.5 92.5q0 38 17.5 68.5t50 52.5t78.5 34.5t104 12.5q12 0 25.5 -0.5t29 -1.5t31.5 -2l3 -71q-14 2 -29.5 3t-30.5 1h-28q-39 0 -67.5 -5.5t-47 -16.5t-27.5 -27t-9 -37q0 -17 6 -29.5t16.5 -19.5t25 -10.5t31.5 -3.5q33 0 58 11t42.5 32.5
t26.5 54t9 76.5q0 61 -13.5 95t-39.5 47t-65 13q-32 0 -61.5 -10.5t-57.5 -38.5l-53 60q38 36 83.5 52t93.5 16q44 0 81.5 -10.5t66 -34.5t44 -65t15.5 -104v-259h-104v57q-13 -20 -29 -33.5t-34.5 -21t-38.5 -10.5t-41 -3zM247 -162q-27 0 -45.5 18.5t-18.5 43.5
q0 27 18 45t46 18q26 0 45.5 -19t19.5 -44t-19.5 -43.5t-45.5 -18.5zM134 502l-49 44l144 139h32l144 -139l-49 -44l-111 105z" />
    <glyph glyph-name="uni1EAE" unicode="&#x1eae;" 
d="M363 158h-237l15 71h205zM250 437l-139 -437h-97l217 630h39l217 -630h-100zM334 797l64 -29q-23 -48 -61 -74.5t-87 -26.5q-48 0 -86 26.5t-62 74.5l64 29q16 -36 36 -53t48 -17q19 0 34.5 7.5t28 23t21.5 39.5zM206 785l-27 50l159 93l43 -81z" />
    <glyph glyph-name="uni1EAF" unicode="&#x1eaf;" 
d="M202 -11q-77 0 -119.5 35.5t-42.5 92.5q0 38 17.5 68.5t50 52.5t78.5 34.5t104 12.5q12 0 25.5 -0.5t29 -1.5t31.5 -2l3 -71q-14 2 -29.5 3t-30.5 1h-28q-39 0 -67.5 -5.5t-47 -16.5t-27.5 -27t-9 -37q0 -17 6 -29.5t16.5 -19.5t25 -10.5t31.5 -3.5q33 0 58 11t42.5 32.5
t26.5 54t9 76.5q0 61 -13.5 95t-39.5 47t-65 13q-32 0 -61.5 -10.5t-57.5 -38.5l-53 60q38 36 83.5 52t93.5 16q44 0 81.5 -10.5t66 -34.5t44 -65t15.5 -104v-259h-104v57q-13 -20 -29 -33.5t-34.5 -21t-38.5 -10.5t-41 -3zM330 663l64 -29q-23 -48 -61 -74.5t-87 -26.5
q-48 0 -86 26.5t-62 74.5l64 29q16 -36 36 -53t48 -17q19 0 34.5 7.5t28 23t21.5 39.5zM251 636l-47 31l83 160l72 -51z" />
    <glyph glyph-name="uni1EB0" unicode="&#x1eb0;" 
d="M363 158h-237l15 71h205zM250 437l-139 -437h-97l217 630h39l217 -630h-100zM334 797l64 -29q-23 -48 -61 -74.5t-87 -26.5q-48 0 -86 26.5t-62 74.5l64 29q16 -36 36 -53t48 -17q19 0 34.5 7.5t28 23t21.5 39.5zM286 816l-177 62l45 81l158 -93z" />
    <glyph glyph-name="uni1EB1" unicode="&#x1eb1;" 
d="M202 -11q-77 0 -119.5 35.5t-42.5 92.5q0 38 17.5 68.5t50 52.5t78.5 34.5t104 12.5q12 0 25.5 -0.5t29 -1.5t31.5 -2l3 -71q-14 2 -29.5 3t-30.5 1h-28q-39 0 -67.5 -5.5t-47 -16.5t-27.5 -27t-9 -37q0 -17 6 -29.5t16.5 -19.5t25 -10.5t31.5 -3.5q33 0 58 11t42.5 32.5
t26.5 54t9 76.5q0 61 -13.5 95t-39.5 47t-65 13q-32 0 -61.5 -10.5t-57.5 -38.5l-53 60q38 36 83.5 52t93.5 16q44 0 81.5 -10.5t66 -34.5t44 -65t15.5 -104v-259h-104v57q-13 -20 -29 -33.5t-34.5 -21t-38.5 -10.5t-41 -3zM330 663l64 -29q-23 -48 -61 -74.5t-87 -26.5
q-48 0 -86 26.5t-62 74.5l64 29q16 -36 36 -53t48 -17q19 0 34.5 7.5t28 23t21.5 39.5zM250 636l-108 140l72 51l83 -160z" />
    <glyph glyph-name="uni1EB2" unicode="&#x1eb2;" 
d="M363 158h-237l15 71h205zM250 437l-139 -437h-97l217 630h39l217 -630h-100zM334 797l64 -29q-23 -48 -61 -74.5t-87 -26.5q-48 0 -86 26.5t-62 74.5l64 29q16 -36 36 -53t48 -17q19 0 34.5 7.5t28 23t21.5 39.5zM344 889q0 -21 -10 -34.5t-22.5 -24t-22 -22t-9.5 -27.5
v-8h-64v28q0 14 9 25.5t21 21.5t21 19t9 19q0 14 -9.5 21.5t-23.5 7.5q-16 0 -29.5 -7.5t-21.5 -28.5l-40 49q19 24 44 34.5t53 9.5q27 0 48.5 -10.5t34 -29t12.5 -43.5z" />
    <glyph glyph-name="uni1EB3" unicode="&#x1eb3;" 
d="M202 -11q-77 0 -119.5 35.5t-42.5 92.5q0 38 17.5 68.5t50 52.5t78.5 34.5t104 12.5q12 0 25.5 -0.5t29 -1.5t31.5 -2l3 -71q-14 2 -29.5 3t-30.5 1h-28q-39 0 -67.5 -5.5t-47 -16.5t-27.5 -27t-9 -37q0 -17 6 -29.5t16.5 -19.5t25 -10.5t31.5 -3.5q33 0 58 11t42.5 32.5
t26.5 54t9 76.5q0 61 -13.5 95t-39.5 47t-65 13q-32 0 -61.5 -10.5t-57.5 -38.5l-53 60q38 36 83.5 52t93.5 16q44 0 81.5 -10.5t66 -34.5t44 -65t15.5 -104v-259h-104v57q-13 -20 -29 -33.5t-34.5 -21t-38.5 -10.5t-41 -3zM330 663l64 -29q-23 -48 -61 -74.5t-87 -26.5
q-48 0 -86 26.5t-62 74.5l64 29q16 -36 36 -53t48 -17q19 0 34.5 7.5t28 23t21.5 39.5zM346 782q0 -21 -10 -34.5t-22.5 -24t-22 -22t-9.5 -27.5v-8h-64v28q0 14 9 25.5t21 21.5t21 19t9 19q0 14 -9.5 21.5t-23.5 7.5q-16 0 -29.5 -7.5t-21.5 -28.5l-40 49q19 24 44 34.5
t53 9.5q27 0 48.5 -10.5t34 -29t12.5 -43.5z" />
    <glyph glyph-name="uni1EB4" unicode="&#x1eb4;" 
d="M363 158h-237l15 71h205zM250 437l-139 -437h-97l217 630h39l217 -630h-100zM334 797l64 -29q-23 -48 -61 -74.5t-87 -26.5q-48 0 -86 26.5t-62 74.5l64 29q16 -36 36 -53t48 -17q19 0 34.5 7.5t28 23t21.5 39.5zM328 938l53 -26q-18 -40 -40 -58t-48 -18q-19 0 -34.5 8
t-28 19t-24 19t-22.5 8q-13 0 -24 -10.5t-19 -30.5l-53 26q12 35 37.5 55.5t50.5 20.5q19 0 35.5 -8t30.5 -18.5t26 -18.5t22 -8q11 0 20 9t18 31z" />
    <glyph glyph-name="uni1EB5" unicode="&#x1eb5;" 
d="M202 -11q-77 0 -119.5 35.5t-42.5 92.5q0 38 17.5 68.5t50 52.5t78.5 34.5t104 12.5q12 0 25.5 -0.5t29 -1.5t31.5 -2l3 -71q-14 2 -29.5 3t-30.5 1h-28q-39 0 -67.5 -5.5t-47 -16.5t-27.5 -27t-9 -37q0 -17 6 -29.5t16.5 -19.5t25 -10.5t31.5 -3.5q33 0 58 11t42.5 32.5
t26.5 54t9 76.5q0 61 -13.5 95t-39.5 47t-65 13q-32 0 -61.5 -10.5t-57.5 -38.5l-53 60q38 36 83.5 52t93.5 16q44 0 81.5 -10.5t66 -34.5t44 -65t15.5 -104v-259h-104v57q-13 -20 -29 -33.5t-34.5 -21t-38.5 -10.5t-41 -3zM326 663l64 -29q-23 -48 -61 -74.5t-87 -26.5
q-48 0 -86 26.5t-62 74.5l64 29q16 -36 36 -53t48 -17q19 0 34.5 7.5t28 23t21.5 39.5zM337 803l53 -26q-18 -40 -40 -58t-48 -18q-19 0 -34.5 8t-28 19t-24 19t-22.5 8q-13 0 -24 -10.5t-19 -30.5l-53 26q12 35 37.5 55.5t50.5 20.5q19 0 35.5 -8t30.5 -18.5t26 -18.5
t22 -8q11 0 20 9t18 31z" />
    <glyph glyph-name="uni1EB6" unicode="&#x1eb6;" 
d="M363 158h-237l15 71h205zM250 437l-139 -437h-97l217 630h39l217 -630h-100zM247 -162q-27 0 -45.5 18.5t-18.5 43.5q0 27 18 45t46 18q26 0 45.5 -19t19.5 -44t-19.5 -43.5t-45.5 -18.5zM334 797l64 -29q-23 -48 -61 -74.5t-87 -26.5q-48 0 -86 26.5t-62 74.5l64 29
q16 -36 36 -53t48 -17q19 0 34.5 7.5t28 23t21.5 39.5z" />
    <glyph glyph-name="uni1EB7" unicode="&#x1eb7;" 
d="M202 -11q-77 0 -119.5 35.5t-42.5 92.5q0 38 17.5 68.5t50 52.5t78.5 34.5t104 12.5q12 0 25.5 -0.5t29 -1.5t31.5 -2l3 -71q-14 2 -29.5 3t-30.5 1h-28q-39 0 -67.5 -5.5t-47 -16.5t-27.5 -27t-9 -37q0 -17 6 -29.5t16.5 -19.5t25 -10.5t31.5 -3.5q33 0 58 11t42.5 32.5
t26.5 54t9 76.5q0 61 -13.5 95t-39.5 47t-65 13q-32 0 -61.5 -10.5t-57.5 -38.5l-53 60q38 36 83.5 52t93.5 16q44 0 81.5 -10.5t66 -34.5t44 -65t15.5 -104v-259h-104v57q-13 -20 -29 -33.5t-34.5 -21t-38.5 -10.5t-41 -3zM247 -162q-27 0 -45.5 18.5t-18.5 43.5
q0 27 18 45t46 18q26 0 45.5 -19t19.5 -44t-19.5 -43.5t-45.5 -18.5zM330 663l64 -29q-23 -48 -61 -74.5t-87 -26.5q-48 0 -86 26.5t-62 74.5l64 29q16 -36 36 -53t48 -17q19 0 34.5 7.5t28 23t21.5 39.5z" />
    <glyph glyph-name="uni1EB8" unicode="&#x1eb8;" 
d="M54 0v624h397v-82h-302v-176h249v-83h-249v-201h300v-82h-395zM247 -162q-27 0 -45.5 18.5t-18.5 43.5q0 27 18 45t46 18q26 0 45.5 -19t19.5 -44t-19.5 -43.5t-45.5 -18.5z" />
    <glyph glyph-name="uni1EB9" unicode="&#x1eb9;" 
d="M271 -11q-50 0 -92 16t-72.5 46.5t-47.5 75.5t-17 102q0 58 17 103.5t46.5 76.5t69 48t84.5 17q39 0 74.5 -14t62 -41.5t42 -69.5t15.5 -98v-22.5t-1 -21.5h-314q2 -36 14 -62.5t30.5 -43.5t42.5 -25t50 -8q23 0 42.5 4.5t37.5 14.5t33 27l52 -51q-21 -25 -47 -41.5
t-56.5 -24.5t-65.5 -8zM140 282h216q0 28 -7 49t-20.5 36t-32.5 22.5t-42 7.5q-22 0 -40.5 -7t-33.5 -21t-25.5 -35.5t-14.5 -51.5zM269 -162q-27 0 -45.5 18.5t-18.5 43.5q0 27 18 45t46 18q26 0 45.5 -19t19.5 -44t-19.5 -43.5t-45.5 -18.5z" />
    <glyph glyph-name="uni1EBA" unicode="&#x1eba;" 
d="M54 0v624h397v-82h-302v-176h249v-83h-249v-201h300v-82h-395zM367 798q0 -21 -10 -34.5t-22.5 -24t-22 -22t-9.5 -27.5v-8h-64v28q0 14 9 25.5t21 21.5t21 19t9 19q0 14 -9.5 21.5t-23.5 7.5q-16 0 -29.5 -7.5t-21.5 -28.5l-40 49q19 24 44 34.5t53 9.5q27 0 48.5 -10.5
t34 -29t12.5 -43.5z" />
    <glyph glyph-name="uni1EBB" unicode="&#x1ebb;" 
d="M271 -11q-50 0 -92 16t-72.5 46.5t-47.5 75.5t-17 102q0 58 17 103.5t46.5 76.5t69 48t84.5 17q39 0 74.5 -14t62 -41.5t42 -69.5t15.5 -98v-22.5t-1 -21.5h-314q2 -36 14 -62.5t30.5 -43.5t42.5 -25t50 -8q23 0 42.5 4.5t37.5 14.5t33 27l52 -51q-21 -25 -47 -41.5
t-56.5 -24.5t-65.5 -8zM140 282h216q0 28 -7 49t-20.5 36t-32.5 22.5t-42 7.5q-22 0 -40.5 -7t-33.5 -21t-25.5 -35.5t-14.5 -51.5zM363 636q0 -21 -10 -34.5t-22.5 -24t-22 -22t-9.5 -27.5v-8h-64v28q0 14 9 25.5t21 21.5t21 19t9 19q0 14 -9.5 21.5t-23.5 7.5
q-16 0 -29.5 -7.5t-21.5 -28.5l-40 49q19 24 44 34.5t53 9.5q27 0 48.5 -10.5t34 -29t12.5 -43.5z" />
    <glyph glyph-name="uni1EBC" unicode="&#x1ebc;" 
d="M54 0v624h397v-82h-302v-176h249v-83h-249v-201h300v-82h-395zM380 789l56 -30q-21 -42 -43.5 -60t-53.5 -18q-27 0 -45.5 8.5t-32 20.5t-26 21t-28.5 9t-29.5 -12t-24.5 -36l-57 26q15 41 41.5 63t66.5 22q25 0 42.5 -8.5t31 -20.5t27 -20.5t29.5 -8.5t25.5 10.5
t20.5 33.5z" />
    <glyph glyph-name="uni1EBD" unicode="&#x1ebd;" 
d="M271 -11q-50 0 -92 16t-72.5 46.5t-47.5 75.5t-17 102q0 58 17 103.5t46.5 76.5t69 48t84.5 17q39 0 74.5 -14t62 -41.5t42 -69.5t15.5 -98v-22.5t-1 -21.5h-314q2 -36 14 -62.5t30.5 -43.5t42.5 -25t50 -8q23 0 42.5 4.5t37.5 14.5t33 27l52 -51q-21 -25 -47 -41.5
t-56.5 -24.5t-65.5 -8zM140 282h216q0 28 -7 49t-20.5 36t-32.5 22.5t-42 7.5q-22 0 -40.5 -7t-33.5 -21t-25.5 -35.5t-14.5 -51.5zM374 671l56 -30q-21 -42 -43.5 -60t-53.5 -18q-27 0 -45.5 8.5t-32 20.5t-26 21t-28.5 9t-29.5 -12t-24.5 -36l-57 26q15 41 41.5 63
t66.5 22q25 0 42.5 -8.5t31 -20.5t27 -20.5t29.5 -8.5t25.5 10.5t20.5 33.5z" />
    <glyph glyph-name="uni1EBE" unicode="&#x1ebe;" 
d="M54 0v624h397v-82h-302v-176h249v-83h-249v-201h300v-82h-395zM127 651l-35 49l155 97h28l155 -96l-35 -50l-133 68zM386 768l-27 50l159 93l43 -81z" />
    <glyph glyph-name="uni1EBF" unicode="&#x1ebf;" 
d="M271 -11q-50 0 -92 16t-72.5 46.5t-47.5 75.5t-17 102q0 58 17 103.5t46.5 76.5t69 48t84.5 17q39 0 74.5 -14t62 -41.5t42 -69.5t15.5 -98v-22.5t-1 -21.5h-314q2 -36 14 -62.5t30.5 -43.5t42.5 -25t50 -8q23 0 42.5 4.5t37.5 14.5t33 27l52 -51q-21 -25 -47 -41.5
t-56.5 -24.5t-65.5 -8zM140 282h216q0 28 -7 49t-20.5 36t-32.5 22.5t-42 7.5q-22 0 -40.5 -7t-33.5 -21t-25.5 -35.5t-14.5 -51.5zM147 504l-49 44l144 139h32l144 -139l-49 -44l-111 105zM399 630l-47 31l83 160l72 -51z" />
    <glyph glyph-name="uni1EC0" unicode="&#x1ec0;" 
d="M54 0v624h397v-82h-302v-176h249v-83h-249v-201h300v-82h-395zM129 651l-35 49l155 97h28l155 -96l-35 -50l-133 68zM345 804l-177 62l45 81l158 -93z" />
    <glyph glyph-name="uni1EC1" unicode="&#x1ec1;" 
d="M271 -11q-50 0 -92 16t-72.5 46.5t-47.5 75.5t-17 102q0 58 17 103.5t46.5 76.5t69 48t84.5 17q39 0 74.5 -14t62 -41.5t42 -69.5t15.5 -98v-22.5t-1 -21.5h-314q2 -36 14 -62.5t30.5 -43.5t42.5 -25t50 -8q23 0 42.5 4.5t37.5 14.5t33 27l52 -51q-21 -25 -47 -41.5
t-56.5 -24.5t-65.5 -8zM140 282h216q0 28 -7 49t-20.5 36t-32.5 22.5t-42 7.5q-22 0 -40.5 -7t-33.5 -21t-25.5 -35.5t-14.5 -51.5zM148 504l-49 44l144 139h32l144 -139l-49 -44l-111 105zM385 653l-108 140l72 51l83 -160z" />
    <glyph glyph-name="uni1EC2" unicode="&#x1ec2;" 
d="M54 0v624h397v-82h-302v-176h249v-83h-249v-201h300v-82h-395zM125 651l-35 49l155 97h28l155 -96l-35 -50l-133 68zM493 867q0 -21 -10 -34.5t-22.5 -24t-22 -22t-9.5 -27.5v-8h-64v28q0 14 9 25.5t21 21.5t21 19t9 19q0 14 -9.5 21.5t-23.5 7.5q-16 0 -29.5 -7.5
t-21.5 -28.5l-40 49q19 24 44 34.5t53 9.5q27 0 48.5 -10.5t34 -29t12.5 -43.5z" />
    <glyph glyph-name="uni1EC3" unicode="&#x1ec3;" 
d="M271 -11q-50 0 -92 16t-72.5 46.5t-47.5 75.5t-17 102q0 58 17 103.5t46.5 76.5t69 48t84.5 17q39 0 74.5 -14t62 -41.5t42 -69.5t15.5 -98v-22.5t-1 -21.5h-314q2 -36 14 -62.5t30.5 -43.5t42.5 -25t50 -8q23 0 42.5 4.5t37.5 14.5t33 27l52 -51q-21 -25 -47 -41.5
t-56.5 -24.5t-65.5 -8zM140 282h216q0 28 -7 49t-20.5 36t-32.5 22.5t-42 7.5q-22 0 -40.5 -7t-33.5 -21t-25.5 -35.5t-14.5 -51.5zM148 504l-49 44l144 139h32l144 -139l-49 -44l-111 105zM490 742q0 -21 -10 -34.5t-22.5 -24t-22 -22t-9.5 -27.5v-8h-64v28q0 14 9 25.5
t21 21.5t21 19t9 19q0 14 -9.5 21.5t-23.5 7.5q-16 0 -29.5 -7.5t-21.5 -28.5l-40 49q19 24 44 34.5t53 9.5q27 0 48.5 -10.5t34 -29t12.5 -43.5z" />
    <glyph glyph-name="uni1EC4" unicode="&#x1ec4;" 
d="M54 0v624h397v-82h-302v-176h249v-83h-249v-201h300v-82h-395zM128 651l-35 49l155 97h28l155 -96l-35 -50l-133 68zM348 929l53 -26q-18 -40 -40 -58t-48 -18q-19 0 -34.5 8t-28 19t-24 19t-22.5 8q-13 0 -24 -10.5t-19 -30.5l-53 26q12 35 37.5 55.5t50.5 20.5
q19 0 35.5 -8t30.5 -18.5t26 -18.5t22 -8q11 0 20 9t18 31z" />
    <glyph glyph-name="uni1EC5" unicode="&#x1ec5;" 
d="M271 -11q-50 0 -92 16t-72.5 46.5t-47.5 75.5t-17 102q0 58 17 103.5t46.5 76.5t69 48t84.5 17q39 0 74.5 -14t62 -41.5t42 -69.5t15.5 -98v-22.5t-1 -21.5h-314q2 -36 14 -62.5t30.5 -43.5t42.5 -25t50 -8q23 0 42.5 4.5t37.5 14.5t33 27l52 -51q-21 -25 -47 -41.5
t-56.5 -24.5t-65.5 -8zM140 282h216q0 28 -7 49t-20.5 36t-32.5 22.5t-42 7.5q-22 0 -40.5 -7t-33.5 -21t-25.5 -35.5t-14.5 -51.5zM148 504l-49 44l144 139h32l144 -139l-49 -44l-111 105zM344 821l53 -26q-18 -40 -40 -58t-48 -18q-19 0 -34.5 8t-28 19t-24 19t-22.5 8
q-13 0 -24 -10.5t-19 -30.5l-53 26q12 35 37.5 55.5t50.5 20.5q19 0 35.5 -8t30.5 -18.5t26 -18.5t22 -8q11 0 20 9t18 31z" />
    <glyph glyph-name="uni1EC6" unicode="&#x1ec6;" 
d="M54 0v624h397v-82h-302v-176h249v-83h-249v-201h300v-82h-395zM247 -162q-27 0 -45.5 18.5t-18.5 43.5q0 27 18 45t46 18q26 0 45.5 -19t19.5 -44t-19.5 -43.5t-45.5 -18.5zM129 651l-35 49l155 97h28l155 -96l-35 -50l-133 68z" />
    <glyph glyph-name="uni1EC7" unicode="&#x1ec7;" 
d="M271 -11q-50 0 -92 16t-72.5 46.5t-47.5 75.5t-17 102q0 58 17 103.5t46.5 76.5t69 48t84.5 17q39 0 74.5 -14t62 -41.5t42 -69.5t15.5 -98v-22.5t-1 -21.5h-314q2 -36 14 -62.5t30.5 -43.5t42.5 -25t50 -8q23 0 42.5 4.5t37.5 14.5t33 27l52 -51q-21 -25 -47 -41.5
t-56.5 -24.5t-65.5 -8zM140 282h216q0 28 -7 49t-20.5 36t-32.5 22.5t-42 7.5q-22 0 -40.5 -7t-33.5 -21t-25.5 -35.5t-14.5 -51.5zM269 -162q-27 0 -45.5 18.5t-18.5 43.5q0 27 18 45t46 18q26 0 45.5 -19t19.5 -44t-19.5 -43.5t-45.5 -18.5zM147 502l-49 44l144 139h32
l144 -139l-49 -44l-111 105z" />
    <glyph glyph-name="uni1EC8" unicode="&#x1ec8;" 
d="M74 0v81h122v461h-116v81h333v-81h-122v-462h128v-80h-345zM347 798q0 -21 -10 -34.5t-22.5 -24t-22 -22t-9.5 -27.5v-8h-64v28q0 14 9 25.5t21 21.5t21 19t9 19q0 14 -9.5 21.5t-23.5 7.5q-16 0 -29.5 -7.5t-21.5 -28.5l-40 49q19 24 44 34.5t53 9.5q27 0 48.5 -10.5
t34 -29t12.5 -43.5z" />
    <glyph glyph-name="uni1EC9" unicode="&#x1ec9;" 
d="M90 0v79h115v305h-110v79h210v-384h105v-79h-320zM354 636q0 -21 -10 -34.5t-22.5 -24t-22 -22t-9.5 -27.5v-8h-64v28q0 14 9 25.5t21 21.5t21 19t9 19q0 14 -9.5 21.5t-23.5 7.5q-16 0 -29.5 -7.5t-21.5 -28.5l-40 49q19 24 44 34.5t53 9.5q27 0 48.5 -10.5t34 -29
t12.5 -43.5z" />
    <glyph glyph-name="uni1ECA" unicode="&#x1eca;" 
d="M74 0v81h122v461h-116v81h333v-81h-122v-462h128v-80h-345zM247 -162q-27 0 -45.5 18.5t-18.5 43.5q0 27 18 45t46 18q26 0 45.5 -19t19.5 -44t-19.5 -43.5t-45.5 -18.5z" />
    <glyph glyph-name="uni1ECB" unicode="&#x1ecb;" 
d="M90 0v79h115v305h-110v79h210v-384h105v-79h-320zM249 546q-27 0 -45.5 18.5t-18.5 43.5q0 27 18 45t46 18q26 0 45.5 -19t19.5 -44t-19.5 -43.5t-45.5 -18.5zM247 -162q-27 0 -45.5 18.5t-18.5 43.5q0 27 18 45t46 18q26 0 45.5 -19t19.5 -44t-19.5 -43.5t-45.5 -18.5z
" />
    <glyph glyph-name="uni1ECC" unicode="&#x1ecc;" 
d="M251 -11q-74 0 -125.5 37t-77.5 109t-26 175q0 101 26 172.5t77.5 109.5t125.5 38q75 0 126 -38t77.5 -109.5t26.5 -172.5q0 -103 -26.5 -175t-77.5 -109t-126 -37zM251 70q41 0 70 27t45 80.5t16 133.5q0 75 -16 128t-45 81.5t-70 28.5t-70.5 -28.5t-44.5 -81.5
t-15 -128q0 -80 15 -133.5t44.5 -80.5t70.5 -27zM249 -162q-27 0 -45.5 18.5t-18.5 43.5q0 27 18 45t46 18q26 0 45.5 -19t19.5 -44t-19.5 -43.5t-45.5 -18.5z" />
    <glyph glyph-name="uni1ECD" unicode="&#x1ecd;" 
d="M250 -10q-63 0 -112 30.5t-78 85t-29 125.5q0 70 29 124.5t78 86t112 31.5q62 0 111.5 -31.5t78.5 -86t29 -124.5t-29 -124.5t-78.5 -85.5t-111.5 -31zM250 71q34 0 60.5 20.5t41.5 56.5t15 84q0 49 -15 85t-41.5 56t-60.5 20t-60.5 -20t-41.5 -56t-15 -85q0 -48 15 -84
t41.5 -56.5t60.5 -20.5zM247 -162q-27 0 -45.5 18.5t-18.5 43.5q0 27 18 45t46 18q26 0 45.5 -19t19.5 -44t-19.5 -43.5t-45.5 -18.5z" />
    <glyph glyph-name="uni1ECE" unicode="&#x1ece;" 
d="M251 -11q-74 0 -125.5 37t-77.5 109t-26 175q0 101 26 172.5t77.5 109.5t125.5 38q75 0 126 -38t77.5 -109.5t26.5 -172.5q0 -103 -26.5 -175t-77.5 -109t-126 -37zM251 70q41 0 70 27t45 80.5t16 133.5q0 75 -16 128t-45 81.5t-70 28.5t-70.5 -28.5t-44.5 -81.5
t-15 -128q0 -80 15 -133.5t44.5 -80.5t70.5 -27zM354 800q0 -21 -10 -34.5t-22.5 -24t-22 -22t-9.5 -27.5v-8h-64v28q0 14 9 25.5t21 21.5t21 19t9 19q0 14 -9.5 21.5t-23.5 7.5q-16 0 -29.5 -7.5t-21.5 -28.5l-40 49q19 24 44 34.5t53 9.5q27 0 48.5 -10.5t34 -29
t12.5 -43.5z" />
    <glyph glyph-name="uni1ECF" unicode="&#x1ecf;" 
d="M250 -10q-63 0 -112 30.5t-78 85t-29 125.5q0 70 29 124.5t78 86t112 31.5q62 0 111.5 -31.5t78.5 -86t29 -124.5t-29 -124.5t-78.5 -85.5t-111.5 -31zM250 71q34 0 60.5 20.5t41.5 56.5t15 84q0 49 -15 85t-41.5 56t-60.5 20t-60.5 -20t-41.5 -56t-15 -85q0 -48 15 -84
t41.5 -56.5t60.5 -20.5zM354 636q0 -21 -10 -34.5t-22.5 -24t-22 -22t-9.5 -27.5v-8h-64v28q0 14 9 25.5t21 21.5t21 19t9 19q0 14 -9.5 21.5t-23.5 7.5q-16 0 -29.5 -7.5t-21.5 -28.5l-40 49q19 24 44 34.5t53 9.5q27 0 48.5 -10.5t34 -29t12.5 -43.5z" />
    <glyph glyph-name="uni1ED0" unicode="&#x1ed0;" 
d="M251 -11q-74 0 -125.5 37t-77.5 109t-26 175q0 101 26 172.5t77.5 109.5t125.5 38q75 0 126 -38t77.5 -109.5t26.5 -172.5q0 -103 -26.5 -175t-77.5 -109t-126 -37zM251 70q41 0 70 27t45 80.5t16 133.5q0 75 -16 128t-45 81.5t-70 28.5t-70.5 -28.5t-44.5 -81.5
t-15 -128q0 -80 15 -133.5t44.5 -80.5t70.5 -27zM114 653l-35 49l155 97h28l155 -96l-35 -50l-133 68zM373 770l-27 50l159 93l43 -81z" />
    <glyph glyph-name="uni1ED1" unicode="&#x1ed1;" 
d="M250 -10q-63 0 -112 30.5t-78 85t-29 125.5q0 70 29 124.5t78 86t112 31.5q62 0 111.5 -31.5t78.5 -86t29 -124.5t-29 -124.5t-78.5 -85.5t-111.5 -31zM250 71q34 0 60.5 20.5t41.5 56.5t15 84q0 49 -15 85t-41.5 56t-60.5 20t-60.5 -20t-41.5 -56t-15 -85q0 -48 15 -84
t41.5 -56.5t60.5 -20.5zM138 504l-49 44l144 139h32l144 -139l-49 -44l-111 105zM390 630l-47 31l83 160l72 -51z" />
    <glyph glyph-name="uni1ED2" unicode="&#x1ed2;" 
d="M251 -11q-74 0 -125.5 37t-77.5 109t-26 175q0 101 26 172.5t77.5 109.5t125.5 38q75 0 126 -38t77.5 -109.5t26.5 -172.5q0 -103 -26.5 -175t-77.5 -109t-126 -37zM251 70q41 0 70 27t45 80.5t16 133.5q0 75 -16 128t-45 81.5t-70 28.5t-70.5 -28.5t-44.5 -81.5
t-15 -128q0 -80 15 -133.5t44.5 -80.5t70.5 -27zM117 653l-35 49l155 97h28l155 -96l-35 -50l-133 68zM333 806l-177 62l45 81l158 -93z" />
    <glyph glyph-name="uni1ED3" unicode="&#x1ed3;" 
d="M250 -10q-63 0 -112 30.5t-78 85t-29 125.5q0 70 29 124.5t78 86t112 31.5q62 0 111.5 -31.5t78.5 -86t29 -124.5t-29 -124.5t-78.5 -85.5t-111.5 -31zM250 71q34 0 60.5 20.5t41.5 56.5t15 84q0 49 -15 85t-41.5 56t-60.5 20t-60.5 -20t-41.5 -56t-15 -85q0 -48 15 -84
t41.5 -56.5t60.5 -20.5zM139 504l-49 44l144 139h32l144 -139l-49 -44l-111 105zM376 653l-108 140l72 51l83 -160z" />
    <glyph glyph-name="uni1ED4" unicode="&#x1ed4;" 
d="M251 -11q-74 0 -125.5 37t-77.5 109t-26 175q0 101 26 172.5t77.5 109.5t125.5 38q75 0 126 -38t77.5 -109.5t26.5 -172.5q0 -103 -26.5 -175t-77.5 -109t-126 -37zM251 70q41 0 70 27t45 80.5t16 133.5q0 75 -16 128t-45 81.5t-70 28.5t-70.5 -28.5t-44.5 -81.5
t-15 -128q0 -80 15 -133.5t44.5 -80.5t70.5 -27zM113 653l-35 49l155 97h28l155 -96l-35 -50l-133 68zM481 869q0 -21 -10 -34.5t-22.5 -24t-22 -22t-9.5 -27.5v-8h-64v28q0 14 9 25.5t21 21.5t21 19t9 19q0 14 -9.5 21.5t-23.5 7.5q-16 0 -29.5 -7.5t-21.5 -28.5l-40 49
q19 24 44 34.5t53 9.5q27 0 48.5 -10.5t34 -29t12.5 -43.5z" />
    <glyph glyph-name="uni1ED5" unicode="&#x1ed5;" 
d="M250 -10q-63 0 -112 30.5t-78 85t-29 125.5q0 70 29 124.5t78 86t112 31.5q62 0 111.5 -31.5t78.5 -86t29 -124.5t-29 -124.5t-78.5 -85.5t-111.5 -31zM250 71q34 0 60.5 20.5t41.5 56.5t15 84q0 49 -15 85t-41.5 56t-60.5 20t-60.5 -20t-41.5 -56t-15 -85q0 -48 15 -84
t41.5 -56.5t60.5 -20.5zM139 504l-49 44l144 139h32l144 -139l-49 -44l-111 105zM481 742q0 -21 -10 -34.5t-22.5 -24t-22 -22t-9.5 -27.5v-8h-64v28q0 14 9 25.5t21 21.5t21 19t9 19q0 14 -9.5 21.5t-23.5 7.5q-16 0 -29.5 -7.5t-21.5 -28.5l-40 49q19 24 44 34.5t53 9.5
q27 0 48.5 -10.5t34 -29t12.5 -43.5z" />
    <glyph glyph-name="uni1ED6" unicode="&#x1ed6;" 
d="M251 -11q-74 0 -125.5 37t-77.5 109t-26 175q0 101 26 172.5t77.5 109.5t125.5 38q75 0 126 -38t77.5 -109.5t26.5 -172.5q0 -103 -26.5 -175t-77.5 -109t-126 -37zM251 70q41 0 70 27t45 80.5t16 133.5q0 75 -16 128t-45 81.5t-70 28.5t-70.5 -28.5t-44.5 -81.5
t-15 -128q0 -80 15 -133.5t44.5 -80.5t70.5 -27zM115 653l-35 49l155 97h28l155 -96l-35 -50l-133 68zM335 931l53 -26q-18 -40 -40 -58t-48 -18q-19 0 -34.5 8t-28 19t-24 19t-22.5 8q-13 0 -24 -10.5t-19 -30.5l-53 26q12 35 37.5 55.5t50.5 20.5q19 0 35.5 -8t30.5 -18.5
t26 -18.5t22 -8q11 0 20 9t18 31z" />
    <glyph glyph-name="uni1ED7" unicode="&#x1ed7;" 
d="M250 -10q-63 0 -112 30.5t-78 85t-29 125.5q0 70 29 124.5t78 86t112 31.5q62 0 111.5 -31.5t78.5 -86t29 -124.5t-29 -124.5t-78.5 -85.5t-111.5 -31zM250 71q34 0 60.5 20.5t41.5 56.5t15 84q0 49 -15 85t-41.5 56t-60.5 20t-60.5 -20t-41.5 -56t-15 -85q0 -48 15 -84
t41.5 -56.5t60.5 -20.5zM140 504l-49 44l144 139h32l144 -139l-49 -44l-111 105zM336 821l53 -26q-18 -40 -40 -58t-48 -18q-19 0 -34.5 8t-28 19t-24 19t-22.5 8q-13 0 -24 -10.5t-19 -30.5l-53 26q12 35 37.5 55.5t50.5 20.5q19 0 35.5 -8t30.5 -18.5t26 -18.5t22 -8
q11 0 20 9t18 31z" />
    <glyph glyph-name="uni1ED8" unicode="&#x1ed8;" 
d="M251 -11q-74 0 -125.5 37t-77.5 109t-26 175q0 101 26 172.5t77.5 109.5t125.5 38q75 0 126 -38t77.5 -109.5t26.5 -172.5q0 -103 -26.5 -175t-77.5 -109t-126 -37zM251 70q41 0 70 27t45 80.5t16 133.5q0 75 -16 128t-45 81.5t-70 28.5t-70.5 -28.5t-44.5 -81.5
t-15 -128q0 -80 15 -133.5t44.5 -80.5t70.5 -27zM249 -162q-27 0 -45.5 18.5t-18.5 43.5q0 27 18 45t46 18q26 0 45.5 -19t19.5 -44t-19.5 -43.5t-45.5 -18.5zM116 653l-35 49l155 97h28l155 -96l-35 -50l-133 68z" />
    </font>
</defs>
</svg>
